%TF.GenerationSoftware,KiCad,Pcbnew,8.0.5-8.0.5-0~ubuntu24.04.1*%
%TF.CreationDate,2024-09-28T01:01:32+02:00*%
%TF.ProjectId,Highz-stereo,48696768-7a2d-4737-9465-72656f2e6b69,rev?*%
%TF.SameCoordinates,Original*%
%TF.FileFunction,Legend,Top*%
%TF.FilePolarity,Positive*%
%FSLAX46Y46*%
G04 Gerber Fmt 4.6, Leading zero omitted, Abs format (unit mm)*
G04 Created by KiCad (PCBNEW 8.0.5-8.0.5-0~ubuntu24.04.1) date 2024-09-28 01:01:32*
%MOMM*%
%LPD*%
G01*
G04 APERTURE LIST*
%ADD10C,0.150000*%
%ADD11C,0.300000*%
%ADD12C,0.120000*%
G04 APERTURE END LIST*
D10*
X49100000Y-123000000D02*
X52100000Y-123000000D01*
X52600000Y-120500000D02*
X52600000Y-123500000D01*
X59600000Y-123100000D02*
X62600000Y-123100000D01*
X59100000Y-120600000D02*
X59100000Y-123600000D01*
X58100000Y-122600000D02*
X58100000Y-123600000D01*
X59600000Y-121100000D02*
X62600000Y-121100000D01*
X62600000Y-121100000D02*
X62600000Y-123100000D01*
X59600000Y-123100000D02*
X59600000Y-121100000D01*
X63100000Y-120600000D02*
X63100000Y-123600000D01*
X57600000Y-123100000D02*
X58600000Y-123100000D01*
X53100000Y-123000000D02*
X54100000Y-123000000D01*
X63600000Y-123100000D02*
X64600000Y-123100000D01*
X75500000Y-123900000D02*
X75500000Y-121900000D01*
X52600000Y-122000000D02*
X54600000Y-122000000D01*
X86000000Y-124000000D02*
X89000000Y-124000000D01*
X75000000Y-122900000D02*
X73000000Y-122900000D01*
X86000000Y-122000000D02*
X89000000Y-122000000D01*
X84500000Y-123500000D02*
X84500000Y-124500000D01*
X90000000Y-124000000D02*
X91000000Y-124000000D01*
X89500000Y-123000000D02*
X91000000Y-123000000D01*
X79500000Y-123900000D02*
X80500000Y-123900000D01*
X47600000Y-122500000D02*
X47600000Y-123500000D01*
X48600000Y-122000000D02*
X46600000Y-122000000D01*
X52100000Y-121000000D02*
X52100000Y-123000000D01*
X89000000Y-122000000D02*
X89000000Y-124000000D01*
X75500000Y-123900000D02*
X78500000Y-123900000D01*
X49100000Y-123000000D02*
X49100000Y-121000000D01*
X78500000Y-121900000D02*
X78500000Y-123900000D01*
X85500000Y-121500000D02*
X85500000Y-124500000D01*
X85500000Y-123000000D02*
X84000000Y-123000000D01*
X47100000Y-123000000D02*
X48100000Y-123000000D01*
X79000000Y-122900000D02*
X81000000Y-122900000D01*
X48600000Y-120500000D02*
X48600000Y-123500000D01*
X74000000Y-123400000D02*
X74000000Y-124400000D01*
X84000000Y-124000000D02*
X85000000Y-124000000D01*
X75000000Y-121400000D02*
X75000000Y-124400000D01*
X59100000Y-122100000D02*
X57600000Y-122100000D01*
X86000000Y-124000000D02*
X86000000Y-122000000D01*
X73500000Y-123900000D02*
X74500000Y-123900000D01*
X79000000Y-121400000D02*
X79000000Y-124400000D01*
X49100000Y-121000000D02*
X52100000Y-121000000D01*
X63100000Y-122100000D02*
X64600000Y-122100000D01*
X89500000Y-121500000D02*
X89500000Y-124500000D01*
X75500000Y-121900000D02*
X78500000Y-121900000D01*
X76119048Y-36788152D02*
X76119048Y-37788152D01*
X76119048Y-36835771D02*
X76214286Y-36788152D01*
X76214286Y-36788152D02*
X76404762Y-36788152D01*
X76404762Y-36788152D02*
X76500000Y-36835771D01*
X76500000Y-36835771D02*
X76547619Y-36883390D01*
X76547619Y-36883390D02*
X76595238Y-36978628D01*
X76595238Y-36978628D02*
X76595238Y-37264342D01*
X76595238Y-37264342D02*
X76547619Y-37359580D01*
X76547619Y-37359580D02*
X76500000Y-37407200D01*
X76500000Y-37407200D02*
X76404762Y-37454819D01*
X76404762Y-37454819D02*
X76214286Y-37454819D01*
X76214286Y-37454819D02*
X76119048Y-37407200D01*
X77023810Y-37454819D02*
X77023810Y-36788152D01*
X77023810Y-36454819D02*
X76976191Y-36502438D01*
X76976191Y-36502438D02*
X77023810Y-36550057D01*
X77023810Y-36550057D02*
X77071429Y-36502438D01*
X77071429Y-36502438D02*
X77023810Y-36454819D01*
X77023810Y-36454819D02*
X77023810Y-36550057D01*
X77500000Y-36788152D02*
X77500000Y-37454819D01*
X77500000Y-36883390D02*
X77547619Y-36835771D01*
X77547619Y-36835771D02*
X77642857Y-36788152D01*
X77642857Y-36788152D02*
X77785714Y-36788152D01*
X77785714Y-36788152D02*
X77880952Y-36835771D01*
X77880952Y-36835771D02*
X77928571Y-36931009D01*
X77928571Y-36931009D02*
X77928571Y-37454819D01*
X78309524Y-36454819D02*
X78928571Y-36454819D01*
X78928571Y-36454819D02*
X78595238Y-36835771D01*
X78595238Y-36835771D02*
X78738095Y-36835771D01*
X78738095Y-36835771D02*
X78833333Y-36883390D01*
X78833333Y-36883390D02*
X78880952Y-36931009D01*
X78880952Y-36931009D02*
X78928571Y-37026247D01*
X78928571Y-37026247D02*
X78928571Y-37264342D01*
X78928571Y-37264342D02*
X78880952Y-37359580D01*
X78880952Y-37359580D02*
X78833333Y-37407200D01*
X78833333Y-37407200D02*
X78738095Y-37454819D01*
X78738095Y-37454819D02*
X78452381Y-37454819D01*
X78452381Y-37454819D02*
X78357143Y-37407200D01*
X78357143Y-37407200D02*
X78309524Y-37359580D01*
X46785714Y-35573866D02*
X47547619Y-35573866D01*
X47166666Y-35954819D02*
X47166666Y-35192914D01*
X48452380Y-35288152D02*
X48452380Y-35954819D01*
X48214285Y-34907200D02*
X47976190Y-35621485D01*
X47976190Y-35621485D02*
X48595237Y-35621485D01*
X49119047Y-35383390D02*
X49023809Y-35335771D01*
X49023809Y-35335771D02*
X48976190Y-35288152D01*
X48976190Y-35288152D02*
X48928571Y-35192914D01*
X48928571Y-35192914D02*
X48928571Y-35145295D01*
X48928571Y-35145295D02*
X48976190Y-35050057D01*
X48976190Y-35050057D02*
X49023809Y-35002438D01*
X49023809Y-35002438D02*
X49119047Y-34954819D01*
X49119047Y-34954819D02*
X49309523Y-34954819D01*
X49309523Y-34954819D02*
X49404761Y-35002438D01*
X49404761Y-35002438D02*
X49452380Y-35050057D01*
X49452380Y-35050057D02*
X49499999Y-35145295D01*
X49499999Y-35145295D02*
X49499999Y-35192914D01*
X49499999Y-35192914D02*
X49452380Y-35288152D01*
X49452380Y-35288152D02*
X49404761Y-35335771D01*
X49404761Y-35335771D02*
X49309523Y-35383390D01*
X49309523Y-35383390D02*
X49119047Y-35383390D01*
X49119047Y-35383390D02*
X49023809Y-35431009D01*
X49023809Y-35431009D02*
X48976190Y-35478628D01*
X48976190Y-35478628D02*
X48928571Y-35573866D01*
X48928571Y-35573866D02*
X48928571Y-35764342D01*
X48928571Y-35764342D02*
X48976190Y-35859580D01*
X48976190Y-35859580D02*
X49023809Y-35907200D01*
X49023809Y-35907200D02*
X49119047Y-35954819D01*
X49119047Y-35954819D02*
X49309523Y-35954819D01*
X49309523Y-35954819D02*
X49404761Y-35907200D01*
X49404761Y-35907200D02*
X49452380Y-35859580D01*
X49452380Y-35859580D02*
X49499999Y-35764342D01*
X49499999Y-35764342D02*
X49499999Y-35573866D01*
X49499999Y-35573866D02*
X49452380Y-35478628D01*
X49452380Y-35478628D02*
X49404761Y-35431009D01*
X49404761Y-35431009D02*
X49309523Y-35383390D01*
X50547619Y-34954819D02*
X50880952Y-35954819D01*
X50880952Y-35954819D02*
X51214285Y-34954819D01*
X51738095Y-34954819D02*
X51928571Y-34954819D01*
X51928571Y-34954819D02*
X52023809Y-35002438D01*
X52023809Y-35002438D02*
X52119047Y-35097676D01*
X52119047Y-35097676D02*
X52166666Y-35288152D01*
X52166666Y-35288152D02*
X52166666Y-35621485D01*
X52166666Y-35621485D02*
X52119047Y-35811961D01*
X52119047Y-35811961D02*
X52023809Y-35907200D01*
X52023809Y-35907200D02*
X51928571Y-35954819D01*
X51928571Y-35954819D02*
X51738095Y-35954819D01*
X51738095Y-35954819D02*
X51642857Y-35907200D01*
X51642857Y-35907200D02*
X51547619Y-35811961D01*
X51547619Y-35811961D02*
X51500000Y-35621485D01*
X51500000Y-35621485D02*
X51500000Y-35288152D01*
X51500000Y-35288152D02*
X51547619Y-35097676D01*
X51547619Y-35097676D02*
X51642857Y-35002438D01*
X51642857Y-35002438D02*
X51738095Y-34954819D01*
X53071428Y-35954819D02*
X52595238Y-35954819D01*
X52595238Y-35954819D02*
X52595238Y-34954819D01*
X53261905Y-34954819D02*
X53833333Y-34954819D01*
X53547619Y-35954819D02*
X53547619Y-34954819D01*
X54928572Y-35954819D02*
X54928572Y-34954819D01*
X54928572Y-34954819D02*
X55309524Y-34954819D01*
X55309524Y-34954819D02*
X55404762Y-35002438D01*
X55404762Y-35002438D02*
X55452381Y-35050057D01*
X55452381Y-35050057D02*
X55500000Y-35145295D01*
X55500000Y-35145295D02*
X55500000Y-35288152D01*
X55500000Y-35288152D02*
X55452381Y-35383390D01*
X55452381Y-35383390D02*
X55404762Y-35431009D01*
X55404762Y-35431009D02*
X55309524Y-35478628D01*
X55309524Y-35478628D02*
X54928572Y-35478628D01*
X55928572Y-35954819D02*
X55928572Y-34954819D01*
X55928572Y-35431009D02*
X56500000Y-35431009D01*
X56500000Y-35954819D02*
X56500000Y-34954819D01*
X56928572Y-35669104D02*
X57404762Y-35669104D01*
X56833334Y-35954819D02*
X57166667Y-34954819D01*
X57166667Y-34954819D02*
X57500000Y-35954819D01*
X57833334Y-35954819D02*
X57833334Y-34954819D01*
X57833334Y-34954819D02*
X58404762Y-35954819D01*
X58404762Y-35954819D02*
X58404762Y-34954819D01*
X58738096Y-34954819D02*
X59309524Y-34954819D01*
X59023810Y-35954819D02*
X59023810Y-34954819D01*
X59833334Y-34954819D02*
X60023810Y-34954819D01*
X60023810Y-34954819D02*
X60119048Y-35002438D01*
X60119048Y-35002438D02*
X60214286Y-35097676D01*
X60214286Y-35097676D02*
X60261905Y-35288152D01*
X60261905Y-35288152D02*
X60261905Y-35621485D01*
X60261905Y-35621485D02*
X60214286Y-35811961D01*
X60214286Y-35811961D02*
X60119048Y-35907200D01*
X60119048Y-35907200D02*
X60023810Y-35954819D01*
X60023810Y-35954819D02*
X59833334Y-35954819D01*
X59833334Y-35954819D02*
X59738096Y-35907200D01*
X59738096Y-35907200D02*
X59642858Y-35811961D01*
X59642858Y-35811961D02*
X59595239Y-35621485D01*
X59595239Y-35621485D02*
X59595239Y-35288152D01*
X59595239Y-35288152D02*
X59642858Y-35097676D01*
X59642858Y-35097676D02*
X59738096Y-35002438D01*
X59738096Y-35002438D02*
X59833334Y-34954819D01*
X60690477Y-35954819D02*
X60690477Y-34954819D01*
X60690477Y-34954819D02*
X61023810Y-35669104D01*
X61023810Y-35669104D02*
X61357143Y-34954819D01*
X61357143Y-34954819D02*
X61357143Y-35954819D01*
X62595239Y-35954819D02*
X62595239Y-34954819D01*
X62595239Y-34954819D02*
X62976191Y-34954819D01*
X62976191Y-34954819D02*
X63071429Y-35002438D01*
X63071429Y-35002438D02*
X63119048Y-35050057D01*
X63119048Y-35050057D02*
X63166667Y-35145295D01*
X63166667Y-35145295D02*
X63166667Y-35288152D01*
X63166667Y-35288152D02*
X63119048Y-35383390D01*
X63119048Y-35383390D02*
X63071429Y-35431009D01*
X63071429Y-35431009D02*
X62976191Y-35478628D01*
X62976191Y-35478628D02*
X62595239Y-35478628D01*
X63785715Y-34954819D02*
X63976191Y-34954819D01*
X63976191Y-34954819D02*
X64071429Y-35002438D01*
X64071429Y-35002438D02*
X64166667Y-35097676D01*
X64166667Y-35097676D02*
X64214286Y-35288152D01*
X64214286Y-35288152D02*
X64214286Y-35621485D01*
X64214286Y-35621485D02*
X64166667Y-35811961D01*
X64166667Y-35811961D02*
X64071429Y-35907200D01*
X64071429Y-35907200D02*
X63976191Y-35954819D01*
X63976191Y-35954819D02*
X63785715Y-35954819D01*
X63785715Y-35954819D02*
X63690477Y-35907200D01*
X63690477Y-35907200D02*
X63595239Y-35811961D01*
X63595239Y-35811961D02*
X63547620Y-35621485D01*
X63547620Y-35621485D02*
X63547620Y-35288152D01*
X63547620Y-35288152D02*
X63595239Y-35097676D01*
X63595239Y-35097676D02*
X63690477Y-35002438D01*
X63690477Y-35002438D02*
X63785715Y-34954819D01*
X64547620Y-34954819D02*
X64785715Y-35954819D01*
X64785715Y-35954819D02*
X64976191Y-35240533D01*
X64976191Y-35240533D02*
X65166667Y-35954819D01*
X65166667Y-35954819D02*
X65404763Y-34954819D01*
X65785715Y-35431009D02*
X66119048Y-35431009D01*
X66261905Y-35954819D02*
X65785715Y-35954819D01*
X65785715Y-35954819D02*
X65785715Y-34954819D01*
X65785715Y-34954819D02*
X66261905Y-34954819D01*
X67261905Y-35954819D02*
X66928572Y-35478628D01*
X66690477Y-35954819D02*
X66690477Y-34954819D01*
X66690477Y-34954819D02*
X67071429Y-34954819D01*
X67071429Y-34954819D02*
X67166667Y-35002438D01*
X67166667Y-35002438D02*
X67214286Y-35050057D01*
X67214286Y-35050057D02*
X67261905Y-35145295D01*
X67261905Y-35145295D02*
X67261905Y-35288152D01*
X67261905Y-35288152D02*
X67214286Y-35383390D01*
X67214286Y-35383390D02*
X67166667Y-35431009D01*
X67166667Y-35431009D02*
X67071429Y-35478628D01*
X67071429Y-35478628D02*
X66690477Y-35478628D01*
X86619048Y-36788152D02*
X86619048Y-37788152D01*
X86619048Y-36835771D02*
X86714286Y-36788152D01*
X86714286Y-36788152D02*
X86904762Y-36788152D01*
X86904762Y-36788152D02*
X87000000Y-36835771D01*
X87000000Y-36835771D02*
X87047619Y-36883390D01*
X87047619Y-36883390D02*
X87095238Y-36978628D01*
X87095238Y-36978628D02*
X87095238Y-37264342D01*
X87095238Y-37264342D02*
X87047619Y-37359580D01*
X87047619Y-37359580D02*
X87000000Y-37407200D01*
X87000000Y-37407200D02*
X86904762Y-37454819D01*
X86904762Y-37454819D02*
X86714286Y-37454819D01*
X86714286Y-37454819D02*
X86619048Y-37407200D01*
X87523810Y-37454819D02*
X87523810Y-36788152D01*
X87523810Y-36454819D02*
X87476191Y-36502438D01*
X87476191Y-36502438D02*
X87523810Y-36550057D01*
X87523810Y-36550057D02*
X87571429Y-36502438D01*
X87571429Y-36502438D02*
X87523810Y-36454819D01*
X87523810Y-36454819D02*
X87523810Y-36550057D01*
X88000000Y-36788152D02*
X88000000Y-37454819D01*
X88000000Y-36883390D02*
X88047619Y-36835771D01*
X88047619Y-36835771D02*
X88142857Y-36788152D01*
X88142857Y-36788152D02*
X88285714Y-36788152D01*
X88285714Y-36788152D02*
X88380952Y-36835771D01*
X88380952Y-36835771D02*
X88428571Y-36931009D01*
X88428571Y-36931009D02*
X88428571Y-37454819D01*
X89428571Y-37454819D02*
X88857143Y-37454819D01*
X89142857Y-37454819D02*
X89142857Y-36454819D01*
X89142857Y-36454819D02*
X89047619Y-36597676D01*
X89047619Y-36597676D02*
X88952381Y-36692914D01*
X88952381Y-36692914D02*
X88857143Y-36740533D01*
X63785714Y-128859580D02*
X63738095Y-128907200D01*
X63738095Y-128907200D02*
X63595238Y-128954819D01*
X63595238Y-128954819D02*
X63500000Y-128954819D01*
X63500000Y-128954819D02*
X63357143Y-128907200D01*
X63357143Y-128907200D02*
X63261905Y-128811961D01*
X63261905Y-128811961D02*
X63214286Y-128716723D01*
X63214286Y-128716723D02*
X63166667Y-128526247D01*
X63166667Y-128526247D02*
X63166667Y-128383390D01*
X63166667Y-128383390D02*
X63214286Y-128192914D01*
X63214286Y-128192914D02*
X63261905Y-128097676D01*
X63261905Y-128097676D02*
X63357143Y-128002438D01*
X63357143Y-128002438D02*
X63500000Y-127954819D01*
X63500000Y-127954819D02*
X63595238Y-127954819D01*
X63595238Y-127954819D02*
X63738095Y-128002438D01*
X63738095Y-128002438D02*
X63785714Y-128050057D01*
X64785714Y-128859580D02*
X64738095Y-128907200D01*
X64738095Y-128907200D02*
X64595238Y-128954819D01*
X64595238Y-128954819D02*
X64500000Y-128954819D01*
X64500000Y-128954819D02*
X64357143Y-128907200D01*
X64357143Y-128907200D02*
X64261905Y-128811961D01*
X64261905Y-128811961D02*
X64214286Y-128716723D01*
X64214286Y-128716723D02*
X64166667Y-128526247D01*
X64166667Y-128526247D02*
X64166667Y-128383390D01*
X64166667Y-128383390D02*
X64214286Y-128192914D01*
X64214286Y-128192914D02*
X64261905Y-128097676D01*
X64261905Y-128097676D02*
X64357143Y-128002438D01*
X64357143Y-128002438D02*
X64500000Y-127954819D01*
X64500000Y-127954819D02*
X64595238Y-127954819D01*
X64595238Y-127954819D02*
X64738095Y-128002438D01*
X64738095Y-128002438D02*
X64785714Y-128050057D01*
X65214286Y-128573866D02*
X65976191Y-128573866D01*
X66785714Y-128431009D02*
X66928571Y-128478628D01*
X66928571Y-128478628D02*
X66976190Y-128526247D01*
X66976190Y-128526247D02*
X67023809Y-128621485D01*
X67023809Y-128621485D02*
X67023809Y-128764342D01*
X67023809Y-128764342D02*
X66976190Y-128859580D01*
X66976190Y-128859580D02*
X66928571Y-128907200D01*
X66928571Y-128907200D02*
X66833333Y-128954819D01*
X66833333Y-128954819D02*
X66452381Y-128954819D01*
X66452381Y-128954819D02*
X66452381Y-127954819D01*
X66452381Y-127954819D02*
X66785714Y-127954819D01*
X66785714Y-127954819D02*
X66880952Y-128002438D01*
X66880952Y-128002438D02*
X66928571Y-128050057D01*
X66928571Y-128050057D02*
X66976190Y-128145295D01*
X66976190Y-128145295D02*
X66976190Y-128240533D01*
X66976190Y-128240533D02*
X66928571Y-128335771D01*
X66928571Y-128335771D02*
X66880952Y-128383390D01*
X66880952Y-128383390D02*
X66785714Y-128431009D01*
X66785714Y-128431009D02*
X66452381Y-128431009D01*
X67642857Y-128478628D02*
X67642857Y-128954819D01*
X67309524Y-127954819D02*
X67642857Y-128478628D01*
X67642857Y-128478628D02*
X67976190Y-127954819D01*
X68309524Y-128573866D02*
X69071429Y-128573866D01*
X69976190Y-128288152D02*
X69976190Y-128954819D01*
X69738095Y-127907200D02*
X69500000Y-128621485D01*
X69500000Y-128621485D02*
X70119047Y-128621485D01*
X70500000Y-128859580D02*
X70547619Y-128907200D01*
X70547619Y-128907200D02*
X70500000Y-128954819D01*
X70500000Y-128954819D02*
X70452381Y-128907200D01*
X70452381Y-128907200D02*
X70500000Y-128859580D01*
X70500000Y-128859580D02*
X70500000Y-128954819D01*
X71166666Y-127954819D02*
X71261904Y-127954819D01*
X71261904Y-127954819D02*
X71357142Y-128002438D01*
X71357142Y-128002438D02*
X71404761Y-128050057D01*
X71404761Y-128050057D02*
X71452380Y-128145295D01*
X71452380Y-128145295D02*
X71499999Y-128335771D01*
X71499999Y-128335771D02*
X71499999Y-128573866D01*
X71499999Y-128573866D02*
X71452380Y-128764342D01*
X71452380Y-128764342D02*
X71404761Y-128859580D01*
X71404761Y-128859580D02*
X71357142Y-128907200D01*
X71357142Y-128907200D02*
X71261904Y-128954819D01*
X71261904Y-128954819D02*
X71166666Y-128954819D01*
X71166666Y-128954819D02*
X71071428Y-128907200D01*
X71071428Y-128907200D02*
X71023809Y-128859580D01*
X71023809Y-128859580D02*
X70976190Y-128764342D01*
X70976190Y-128764342D02*
X70928571Y-128573866D01*
X70928571Y-128573866D02*
X70928571Y-128335771D01*
X70928571Y-128335771D02*
X70976190Y-128145295D01*
X70976190Y-128145295D02*
X71023809Y-128050057D01*
X71023809Y-128050057D02*
X71071428Y-128002438D01*
X71071428Y-128002438D02*
X71166666Y-127954819D01*
X73166666Y-128954819D02*
X72690476Y-128954819D01*
X72690476Y-128954819D02*
X72690476Y-127954819D01*
X73500000Y-128954819D02*
X73500000Y-128288152D01*
X73500000Y-127954819D02*
X73452381Y-128002438D01*
X73452381Y-128002438D02*
X73500000Y-128050057D01*
X73500000Y-128050057D02*
X73547619Y-128002438D01*
X73547619Y-128002438D02*
X73500000Y-127954819D01*
X73500000Y-127954819D02*
X73500000Y-128050057D01*
X74404761Y-128907200D02*
X74309523Y-128954819D01*
X74309523Y-128954819D02*
X74119047Y-128954819D01*
X74119047Y-128954819D02*
X74023809Y-128907200D01*
X74023809Y-128907200D02*
X73976190Y-128859580D01*
X73976190Y-128859580D02*
X73928571Y-128764342D01*
X73928571Y-128764342D02*
X73928571Y-128478628D01*
X73928571Y-128478628D02*
X73976190Y-128383390D01*
X73976190Y-128383390D02*
X74023809Y-128335771D01*
X74023809Y-128335771D02*
X74119047Y-128288152D01*
X74119047Y-128288152D02*
X74309523Y-128288152D01*
X74309523Y-128288152D02*
X74404761Y-128335771D01*
X75214285Y-128907200D02*
X75119047Y-128954819D01*
X75119047Y-128954819D02*
X74928571Y-128954819D01*
X74928571Y-128954819D02*
X74833333Y-128907200D01*
X74833333Y-128907200D02*
X74785714Y-128811961D01*
X74785714Y-128811961D02*
X74785714Y-128431009D01*
X74785714Y-128431009D02*
X74833333Y-128335771D01*
X74833333Y-128335771D02*
X74928571Y-128288152D01*
X74928571Y-128288152D02*
X75119047Y-128288152D01*
X75119047Y-128288152D02*
X75214285Y-128335771D01*
X75214285Y-128335771D02*
X75261904Y-128431009D01*
X75261904Y-128431009D02*
X75261904Y-128526247D01*
X75261904Y-128526247D02*
X74785714Y-128621485D01*
X75690476Y-128288152D02*
X75690476Y-128954819D01*
X75690476Y-128383390D02*
X75738095Y-128335771D01*
X75738095Y-128335771D02*
X75833333Y-128288152D01*
X75833333Y-128288152D02*
X75976190Y-128288152D01*
X75976190Y-128288152D02*
X76071428Y-128335771D01*
X76071428Y-128335771D02*
X76119047Y-128431009D01*
X76119047Y-128431009D02*
X76119047Y-128954819D01*
X76547619Y-128907200D02*
X76642857Y-128954819D01*
X76642857Y-128954819D02*
X76833333Y-128954819D01*
X76833333Y-128954819D02*
X76928571Y-128907200D01*
X76928571Y-128907200D02*
X76976190Y-128811961D01*
X76976190Y-128811961D02*
X76976190Y-128764342D01*
X76976190Y-128764342D02*
X76928571Y-128669104D01*
X76928571Y-128669104D02*
X76833333Y-128621485D01*
X76833333Y-128621485D02*
X76690476Y-128621485D01*
X76690476Y-128621485D02*
X76595238Y-128573866D01*
X76595238Y-128573866D02*
X76547619Y-128478628D01*
X76547619Y-128478628D02*
X76547619Y-128431009D01*
X76547619Y-128431009D02*
X76595238Y-128335771D01*
X76595238Y-128335771D02*
X76690476Y-128288152D01*
X76690476Y-128288152D02*
X76833333Y-128288152D01*
X76833333Y-128288152D02*
X76928571Y-128335771D01*
X77785714Y-128907200D02*
X77690476Y-128954819D01*
X77690476Y-128954819D02*
X77500000Y-128954819D01*
X77500000Y-128954819D02*
X77404762Y-128907200D01*
X77404762Y-128907200D02*
X77357143Y-128811961D01*
X77357143Y-128811961D02*
X77357143Y-128431009D01*
X77357143Y-128431009D02*
X77404762Y-128335771D01*
X77404762Y-128335771D02*
X77500000Y-128288152D01*
X77500000Y-128288152D02*
X77690476Y-128288152D01*
X77690476Y-128288152D02*
X77785714Y-128335771D01*
X77785714Y-128335771D02*
X77833333Y-128431009D01*
X77833333Y-128431009D02*
X77833333Y-128526247D01*
X77833333Y-128526247D02*
X77357143Y-128621485D01*
X71785714Y-35573866D02*
X72547619Y-35573866D01*
X72166666Y-35954819D02*
X72166666Y-35192914D01*
X73452380Y-35288152D02*
X73452380Y-35954819D01*
X73214285Y-34907200D02*
X72976190Y-35621485D01*
X72976190Y-35621485D02*
X73595237Y-35621485D01*
X74119047Y-35383390D02*
X74023809Y-35335771D01*
X74023809Y-35335771D02*
X73976190Y-35288152D01*
X73976190Y-35288152D02*
X73928571Y-35192914D01*
X73928571Y-35192914D02*
X73928571Y-35145295D01*
X73928571Y-35145295D02*
X73976190Y-35050057D01*
X73976190Y-35050057D02*
X74023809Y-35002438D01*
X74023809Y-35002438D02*
X74119047Y-34954819D01*
X74119047Y-34954819D02*
X74309523Y-34954819D01*
X74309523Y-34954819D02*
X74404761Y-35002438D01*
X74404761Y-35002438D02*
X74452380Y-35050057D01*
X74452380Y-35050057D02*
X74499999Y-35145295D01*
X74499999Y-35145295D02*
X74499999Y-35192914D01*
X74499999Y-35192914D02*
X74452380Y-35288152D01*
X74452380Y-35288152D02*
X74404761Y-35335771D01*
X74404761Y-35335771D02*
X74309523Y-35383390D01*
X74309523Y-35383390D02*
X74119047Y-35383390D01*
X74119047Y-35383390D02*
X74023809Y-35431009D01*
X74023809Y-35431009D02*
X73976190Y-35478628D01*
X73976190Y-35478628D02*
X73928571Y-35573866D01*
X73928571Y-35573866D02*
X73928571Y-35764342D01*
X73928571Y-35764342D02*
X73976190Y-35859580D01*
X73976190Y-35859580D02*
X74023809Y-35907200D01*
X74023809Y-35907200D02*
X74119047Y-35954819D01*
X74119047Y-35954819D02*
X74309523Y-35954819D01*
X74309523Y-35954819D02*
X74404761Y-35907200D01*
X74404761Y-35907200D02*
X74452380Y-35859580D01*
X74452380Y-35859580D02*
X74499999Y-35764342D01*
X74499999Y-35764342D02*
X74499999Y-35573866D01*
X74499999Y-35573866D02*
X74452380Y-35478628D01*
X74452380Y-35478628D02*
X74404761Y-35431009D01*
X74404761Y-35431009D02*
X74309523Y-35383390D01*
X75547619Y-34954819D02*
X75880952Y-35954819D01*
X75880952Y-35954819D02*
X76214285Y-34954819D01*
X76738095Y-34954819D02*
X76928571Y-34954819D01*
X76928571Y-34954819D02*
X77023809Y-35002438D01*
X77023809Y-35002438D02*
X77119047Y-35097676D01*
X77119047Y-35097676D02*
X77166666Y-35288152D01*
X77166666Y-35288152D02*
X77166666Y-35621485D01*
X77166666Y-35621485D02*
X77119047Y-35811961D01*
X77119047Y-35811961D02*
X77023809Y-35907200D01*
X77023809Y-35907200D02*
X76928571Y-35954819D01*
X76928571Y-35954819D02*
X76738095Y-35954819D01*
X76738095Y-35954819D02*
X76642857Y-35907200D01*
X76642857Y-35907200D02*
X76547619Y-35811961D01*
X76547619Y-35811961D02*
X76500000Y-35621485D01*
X76500000Y-35621485D02*
X76500000Y-35288152D01*
X76500000Y-35288152D02*
X76547619Y-35097676D01*
X76547619Y-35097676D02*
X76642857Y-35002438D01*
X76642857Y-35002438D02*
X76738095Y-34954819D01*
X78071428Y-35954819D02*
X77595238Y-35954819D01*
X77595238Y-35954819D02*
X77595238Y-34954819D01*
X78261905Y-34954819D02*
X78833333Y-34954819D01*
X78547619Y-35954819D02*
X78547619Y-34954819D01*
X79928572Y-35954819D02*
X79928572Y-34954819D01*
X79928572Y-34954819D02*
X80309524Y-34954819D01*
X80309524Y-34954819D02*
X80404762Y-35002438D01*
X80404762Y-35002438D02*
X80452381Y-35050057D01*
X80452381Y-35050057D02*
X80500000Y-35145295D01*
X80500000Y-35145295D02*
X80500000Y-35288152D01*
X80500000Y-35288152D02*
X80452381Y-35383390D01*
X80452381Y-35383390D02*
X80404762Y-35431009D01*
X80404762Y-35431009D02*
X80309524Y-35478628D01*
X80309524Y-35478628D02*
X79928572Y-35478628D01*
X80928572Y-35954819D02*
X80928572Y-34954819D01*
X80928572Y-35431009D02*
X81500000Y-35431009D01*
X81500000Y-35954819D02*
X81500000Y-34954819D01*
X81928572Y-35669104D02*
X82404762Y-35669104D01*
X81833334Y-35954819D02*
X82166667Y-34954819D01*
X82166667Y-34954819D02*
X82500000Y-35954819D01*
X82833334Y-35954819D02*
X82833334Y-34954819D01*
X82833334Y-34954819D02*
X83404762Y-35954819D01*
X83404762Y-35954819D02*
X83404762Y-34954819D01*
X83738096Y-34954819D02*
X84309524Y-34954819D01*
X84023810Y-35954819D02*
X84023810Y-34954819D01*
X84833334Y-34954819D02*
X85023810Y-34954819D01*
X85023810Y-34954819D02*
X85119048Y-35002438D01*
X85119048Y-35002438D02*
X85214286Y-35097676D01*
X85214286Y-35097676D02*
X85261905Y-35288152D01*
X85261905Y-35288152D02*
X85261905Y-35621485D01*
X85261905Y-35621485D02*
X85214286Y-35811961D01*
X85214286Y-35811961D02*
X85119048Y-35907200D01*
X85119048Y-35907200D02*
X85023810Y-35954819D01*
X85023810Y-35954819D02*
X84833334Y-35954819D01*
X84833334Y-35954819D02*
X84738096Y-35907200D01*
X84738096Y-35907200D02*
X84642858Y-35811961D01*
X84642858Y-35811961D02*
X84595239Y-35621485D01*
X84595239Y-35621485D02*
X84595239Y-35288152D01*
X84595239Y-35288152D02*
X84642858Y-35097676D01*
X84642858Y-35097676D02*
X84738096Y-35002438D01*
X84738096Y-35002438D02*
X84833334Y-34954819D01*
X85690477Y-35954819D02*
X85690477Y-34954819D01*
X85690477Y-34954819D02*
X86023810Y-35669104D01*
X86023810Y-35669104D02*
X86357143Y-34954819D01*
X86357143Y-34954819D02*
X86357143Y-35954819D01*
X87595239Y-35954819D02*
X87595239Y-34954819D01*
X87595239Y-34954819D02*
X87976191Y-34954819D01*
X87976191Y-34954819D02*
X88071429Y-35002438D01*
X88071429Y-35002438D02*
X88119048Y-35050057D01*
X88119048Y-35050057D02*
X88166667Y-35145295D01*
X88166667Y-35145295D02*
X88166667Y-35288152D01*
X88166667Y-35288152D02*
X88119048Y-35383390D01*
X88119048Y-35383390D02*
X88071429Y-35431009D01*
X88071429Y-35431009D02*
X87976191Y-35478628D01*
X87976191Y-35478628D02*
X87595239Y-35478628D01*
X88785715Y-34954819D02*
X88976191Y-34954819D01*
X88976191Y-34954819D02*
X89071429Y-35002438D01*
X89071429Y-35002438D02*
X89166667Y-35097676D01*
X89166667Y-35097676D02*
X89214286Y-35288152D01*
X89214286Y-35288152D02*
X89214286Y-35621485D01*
X89214286Y-35621485D02*
X89166667Y-35811961D01*
X89166667Y-35811961D02*
X89071429Y-35907200D01*
X89071429Y-35907200D02*
X88976191Y-35954819D01*
X88976191Y-35954819D02*
X88785715Y-35954819D01*
X88785715Y-35954819D02*
X88690477Y-35907200D01*
X88690477Y-35907200D02*
X88595239Y-35811961D01*
X88595239Y-35811961D02*
X88547620Y-35621485D01*
X88547620Y-35621485D02*
X88547620Y-35288152D01*
X88547620Y-35288152D02*
X88595239Y-35097676D01*
X88595239Y-35097676D02*
X88690477Y-35002438D01*
X88690477Y-35002438D02*
X88785715Y-34954819D01*
X89547620Y-34954819D02*
X89785715Y-35954819D01*
X89785715Y-35954819D02*
X89976191Y-35240533D01*
X89976191Y-35240533D02*
X90166667Y-35954819D01*
X90166667Y-35954819D02*
X90404763Y-34954819D01*
X90785715Y-35431009D02*
X91119048Y-35431009D01*
X91261905Y-35954819D02*
X90785715Y-35954819D01*
X90785715Y-35954819D02*
X90785715Y-34954819D01*
X90785715Y-34954819D02*
X91261905Y-34954819D01*
X92261905Y-35954819D02*
X91928572Y-35478628D01*
X91690477Y-35954819D02*
X91690477Y-34954819D01*
X91690477Y-34954819D02*
X92071429Y-34954819D01*
X92071429Y-34954819D02*
X92166667Y-35002438D01*
X92166667Y-35002438D02*
X92214286Y-35050057D01*
X92214286Y-35050057D02*
X92261905Y-35145295D01*
X92261905Y-35145295D02*
X92261905Y-35288152D01*
X92261905Y-35288152D02*
X92214286Y-35383390D01*
X92214286Y-35383390D02*
X92166667Y-35431009D01*
X92166667Y-35431009D02*
X92071429Y-35478628D01*
X92071429Y-35478628D02*
X91690477Y-35478628D01*
X49619048Y-36788152D02*
X49619048Y-37788152D01*
X49619048Y-36835771D02*
X49714286Y-36788152D01*
X49714286Y-36788152D02*
X49904762Y-36788152D01*
X49904762Y-36788152D02*
X50000000Y-36835771D01*
X50000000Y-36835771D02*
X50047619Y-36883390D01*
X50047619Y-36883390D02*
X50095238Y-36978628D01*
X50095238Y-36978628D02*
X50095238Y-37264342D01*
X50095238Y-37264342D02*
X50047619Y-37359580D01*
X50047619Y-37359580D02*
X50000000Y-37407200D01*
X50000000Y-37407200D02*
X49904762Y-37454819D01*
X49904762Y-37454819D02*
X49714286Y-37454819D01*
X49714286Y-37454819D02*
X49619048Y-37407200D01*
X50523810Y-37454819D02*
X50523810Y-36788152D01*
X50523810Y-36454819D02*
X50476191Y-36502438D01*
X50476191Y-36502438D02*
X50523810Y-36550057D01*
X50523810Y-36550057D02*
X50571429Y-36502438D01*
X50571429Y-36502438D02*
X50523810Y-36454819D01*
X50523810Y-36454819D02*
X50523810Y-36550057D01*
X51000000Y-36788152D02*
X51000000Y-37454819D01*
X51000000Y-36883390D02*
X51047619Y-36835771D01*
X51047619Y-36835771D02*
X51142857Y-36788152D01*
X51142857Y-36788152D02*
X51285714Y-36788152D01*
X51285714Y-36788152D02*
X51380952Y-36835771D01*
X51380952Y-36835771D02*
X51428571Y-36931009D01*
X51428571Y-36931009D02*
X51428571Y-37454819D01*
X51809524Y-36454819D02*
X52428571Y-36454819D01*
X52428571Y-36454819D02*
X52095238Y-36835771D01*
X52095238Y-36835771D02*
X52238095Y-36835771D01*
X52238095Y-36835771D02*
X52333333Y-36883390D01*
X52333333Y-36883390D02*
X52380952Y-36931009D01*
X52380952Y-36931009D02*
X52428571Y-37026247D01*
X52428571Y-37026247D02*
X52428571Y-37264342D01*
X52428571Y-37264342D02*
X52380952Y-37359580D01*
X52380952Y-37359580D02*
X52333333Y-37407200D01*
X52333333Y-37407200D02*
X52238095Y-37454819D01*
X52238095Y-37454819D02*
X51952381Y-37454819D01*
X51952381Y-37454819D02*
X51857143Y-37407200D01*
X51857143Y-37407200D02*
X51809524Y-37359580D01*
X54619048Y-36788152D02*
X54619048Y-37788152D01*
X54619048Y-36835771D02*
X54714286Y-36788152D01*
X54714286Y-36788152D02*
X54904762Y-36788152D01*
X54904762Y-36788152D02*
X55000000Y-36835771D01*
X55000000Y-36835771D02*
X55047619Y-36883390D01*
X55047619Y-36883390D02*
X55095238Y-36978628D01*
X55095238Y-36978628D02*
X55095238Y-37264342D01*
X55095238Y-37264342D02*
X55047619Y-37359580D01*
X55047619Y-37359580D02*
X55000000Y-37407200D01*
X55000000Y-37407200D02*
X54904762Y-37454819D01*
X54904762Y-37454819D02*
X54714286Y-37454819D01*
X54714286Y-37454819D02*
X54619048Y-37407200D01*
X55523810Y-37454819D02*
X55523810Y-36788152D01*
X55523810Y-36454819D02*
X55476191Y-36502438D01*
X55476191Y-36502438D02*
X55523810Y-36550057D01*
X55523810Y-36550057D02*
X55571429Y-36502438D01*
X55571429Y-36502438D02*
X55523810Y-36454819D01*
X55523810Y-36454819D02*
X55523810Y-36550057D01*
X56000000Y-36788152D02*
X56000000Y-37454819D01*
X56000000Y-36883390D02*
X56047619Y-36835771D01*
X56047619Y-36835771D02*
X56142857Y-36788152D01*
X56142857Y-36788152D02*
X56285714Y-36788152D01*
X56285714Y-36788152D02*
X56380952Y-36835771D01*
X56380952Y-36835771D02*
X56428571Y-36931009D01*
X56428571Y-36931009D02*
X56428571Y-37454819D01*
X56857143Y-36550057D02*
X56904762Y-36502438D01*
X56904762Y-36502438D02*
X57000000Y-36454819D01*
X57000000Y-36454819D02*
X57238095Y-36454819D01*
X57238095Y-36454819D02*
X57333333Y-36502438D01*
X57333333Y-36502438D02*
X57380952Y-36550057D01*
X57380952Y-36550057D02*
X57428571Y-36645295D01*
X57428571Y-36645295D02*
X57428571Y-36740533D01*
X57428571Y-36740533D02*
X57380952Y-36883390D01*
X57380952Y-36883390D02*
X56809524Y-37454819D01*
X56809524Y-37454819D02*
X57428571Y-37454819D01*
X55027255Y-33369819D02*
X55217731Y-33369819D01*
X55217731Y-33369819D02*
X55312969Y-33417438D01*
X55312969Y-33417438D02*
X55408207Y-33512676D01*
X55408207Y-33512676D02*
X55455826Y-33703152D01*
X55455826Y-33703152D02*
X55455826Y-34036485D01*
X55455826Y-34036485D02*
X55408207Y-34226961D01*
X55408207Y-34226961D02*
X55312969Y-34322200D01*
X55312969Y-34322200D02*
X55217731Y-34369819D01*
X55217731Y-34369819D02*
X55027255Y-34369819D01*
X55027255Y-34369819D02*
X54932017Y-34322200D01*
X54932017Y-34322200D02*
X54836779Y-34226961D01*
X54836779Y-34226961D02*
X54789160Y-34036485D01*
X54789160Y-34036485D02*
X54789160Y-33703152D01*
X54789160Y-33703152D02*
X54836779Y-33512676D01*
X54836779Y-33512676D02*
X54932017Y-33417438D01*
X54932017Y-33417438D02*
X55027255Y-33369819D01*
X55884398Y-33369819D02*
X55884398Y-34179342D01*
X55884398Y-34179342D02*
X55932017Y-34274580D01*
X55932017Y-34274580D02*
X55979636Y-34322200D01*
X55979636Y-34322200D02*
X56074874Y-34369819D01*
X56074874Y-34369819D02*
X56265350Y-34369819D01*
X56265350Y-34369819D02*
X56360588Y-34322200D01*
X56360588Y-34322200D02*
X56408207Y-34274580D01*
X56408207Y-34274580D02*
X56455826Y-34179342D01*
X56455826Y-34179342D02*
X56455826Y-33369819D01*
X56789160Y-33369819D02*
X57360588Y-33369819D01*
X57074874Y-34369819D02*
X57074874Y-33369819D01*
X58408208Y-34084104D02*
X58884398Y-34084104D01*
X58312970Y-34369819D02*
X58646303Y-33369819D01*
X58646303Y-33369819D02*
X58979636Y-34369819D01*
X60119048Y-36788152D02*
X60119048Y-37788152D01*
X60119048Y-36835771D02*
X60214286Y-36788152D01*
X60214286Y-36788152D02*
X60404762Y-36788152D01*
X60404762Y-36788152D02*
X60500000Y-36835771D01*
X60500000Y-36835771D02*
X60547619Y-36883390D01*
X60547619Y-36883390D02*
X60595238Y-36978628D01*
X60595238Y-36978628D02*
X60595238Y-37264342D01*
X60595238Y-37264342D02*
X60547619Y-37359580D01*
X60547619Y-37359580D02*
X60500000Y-37407200D01*
X60500000Y-37407200D02*
X60404762Y-37454819D01*
X60404762Y-37454819D02*
X60214286Y-37454819D01*
X60214286Y-37454819D02*
X60119048Y-37407200D01*
X61023810Y-37454819D02*
X61023810Y-36788152D01*
X61023810Y-36454819D02*
X60976191Y-36502438D01*
X60976191Y-36502438D02*
X61023810Y-36550057D01*
X61023810Y-36550057D02*
X61071429Y-36502438D01*
X61071429Y-36502438D02*
X61023810Y-36454819D01*
X61023810Y-36454819D02*
X61023810Y-36550057D01*
X61500000Y-36788152D02*
X61500000Y-37454819D01*
X61500000Y-36883390D02*
X61547619Y-36835771D01*
X61547619Y-36835771D02*
X61642857Y-36788152D01*
X61642857Y-36788152D02*
X61785714Y-36788152D01*
X61785714Y-36788152D02*
X61880952Y-36835771D01*
X61880952Y-36835771D02*
X61928571Y-36931009D01*
X61928571Y-36931009D02*
X61928571Y-37454819D01*
X62928571Y-37454819D02*
X62357143Y-37454819D01*
X62642857Y-37454819D02*
X62642857Y-36454819D01*
X62642857Y-36454819D02*
X62547619Y-36597676D01*
X62547619Y-36597676D02*
X62452381Y-36692914D01*
X62452381Y-36692914D02*
X62357143Y-36740533D01*
X81119048Y-36788152D02*
X81119048Y-37788152D01*
X81119048Y-36835771D02*
X81214286Y-36788152D01*
X81214286Y-36788152D02*
X81404762Y-36788152D01*
X81404762Y-36788152D02*
X81500000Y-36835771D01*
X81500000Y-36835771D02*
X81547619Y-36883390D01*
X81547619Y-36883390D02*
X81595238Y-36978628D01*
X81595238Y-36978628D02*
X81595238Y-37264342D01*
X81595238Y-37264342D02*
X81547619Y-37359580D01*
X81547619Y-37359580D02*
X81500000Y-37407200D01*
X81500000Y-37407200D02*
X81404762Y-37454819D01*
X81404762Y-37454819D02*
X81214286Y-37454819D01*
X81214286Y-37454819D02*
X81119048Y-37407200D01*
X82023810Y-37454819D02*
X82023810Y-36788152D01*
X82023810Y-36454819D02*
X81976191Y-36502438D01*
X81976191Y-36502438D02*
X82023810Y-36550057D01*
X82023810Y-36550057D02*
X82071429Y-36502438D01*
X82071429Y-36502438D02*
X82023810Y-36454819D01*
X82023810Y-36454819D02*
X82023810Y-36550057D01*
X82500000Y-36788152D02*
X82500000Y-37454819D01*
X82500000Y-36883390D02*
X82547619Y-36835771D01*
X82547619Y-36835771D02*
X82642857Y-36788152D01*
X82642857Y-36788152D02*
X82785714Y-36788152D01*
X82785714Y-36788152D02*
X82880952Y-36835771D01*
X82880952Y-36835771D02*
X82928571Y-36931009D01*
X82928571Y-36931009D02*
X82928571Y-37454819D01*
X83357143Y-36550057D02*
X83404762Y-36502438D01*
X83404762Y-36502438D02*
X83500000Y-36454819D01*
X83500000Y-36454819D02*
X83738095Y-36454819D01*
X83738095Y-36454819D02*
X83833333Y-36502438D01*
X83833333Y-36502438D02*
X83880952Y-36550057D01*
X83880952Y-36550057D02*
X83928571Y-36645295D01*
X83928571Y-36645295D02*
X83928571Y-36740533D01*
X83928571Y-36740533D02*
X83880952Y-36883390D01*
X83880952Y-36883390D02*
X83309524Y-37454819D01*
X83309524Y-37454819D02*
X83928571Y-37454819D01*
X54836779Y-124869819D02*
X54836779Y-123869819D01*
X55312969Y-124869819D02*
X55312969Y-123869819D01*
X55312969Y-123869819D02*
X55884397Y-124869819D01*
X55884397Y-124869819D02*
X55884397Y-123869819D01*
X57074874Y-124584104D02*
X57551064Y-124584104D01*
X56979636Y-124869819D02*
X57312969Y-123869819D01*
X57312969Y-123869819D02*
X57646302Y-124869819D01*
X81527255Y-33369819D02*
X81717731Y-33369819D01*
X81717731Y-33369819D02*
X81812969Y-33417438D01*
X81812969Y-33417438D02*
X81908207Y-33512676D01*
X81908207Y-33512676D02*
X81955826Y-33703152D01*
X81955826Y-33703152D02*
X81955826Y-34036485D01*
X81955826Y-34036485D02*
X81908207Y-34226961D01*
X81908207Y-34226961D02*
X81812969Y-34322200D01*
X81812969Y-34322200D02*
X81717731Y-34369819D01*
X81717731Y-34369819D02*
X81527255Y-34369819D01*
X81527255Y-34369819D02*
X81432017Y-34322200D01*
X81432017Y-34322200D02*
X81336779Y-34226961D01*
X81336779Y-34226961D02*
X81289160Y-34036485D01*
X81289160Y-34036485D02*
X81289160Y-33703152D01*
X81289160Y-33703152D02*
X81336779Y-33512676D01*
X81336779Y-33512676D02*
X81432017Y-33417438D01*
X81432017Y-33417438D02*
X81527255Y-33369819D01*
X82384398Y-33369819D02*
X82384398Y-34179342D01*
X82384398Y-34179342D02*
X82432017Y-34274580D01*
X82432017Y-34274580D02*
X82479636Y-34322200D01*
X82479636Y-34322200D02*
X82574874Y-34369819D01*
X82574874Y-34369819D02*
X82765350Y-34369819D01*
X82765350Y-34369819D02*
X82860588Y-34322200D01*
X82860588Y-34322200D02*
X82908207Y-34274580D01*
X82908207Y-34274580D02*
X82955826Y-34179342D01*
X82955826Y-34179342D02*
X82955826Y-33369819D01*
X83289160Y-33369819D02*
X83860588Y-33369819D01*
X83574874Y-34369819D02*
X83574874Y-33369819D01*
X85289160Y-33846009D02*
X85432017Y-33893628D01*
X85432017Y-33893628D02*
X85479636Y-33941247D01*
X85479636Y-33941247D02*
X85527255Y-34036485D01*
X85527255Y-34036485D02*
X85527255Y-34179342D01*
X85527255Y-34179342D02*
X85479636Y-34274580D01*
X85479636Y-34274580D02*
X85432017Y-34322200D01*
X85432017Y-34322200D02*
X85336779Y-34369819D01*
X85336779Y-34369819D02*
X84955827Y-34369819D01*
X84955827Y-34369819D02*
X84955827Y-33369819D01*
X84955827Y-33369819D02*
X85289160Y-33369819D01*
X85289160Y-33369819D02*
X85384398Y-33417438D01*
X85384398Y-33417438D02*
X85432017Y-33465057D01*
X85432017Y-33465057D02*
X85479636Y-33560295D01*
X85479636Y-33560295D02*
X85479636Y-33655533D01*
X85479636Y-33655533D02*
X85432017Y-33750771D01*
X85432017Y-33750771D02*
X85384398Y-33798390D01*
X85384398Y-33798390D02*
X85289160Y-33846009D01*
X85289160Y-33846009D02*
X84955827Y-33846009D01*
D11*
X40178328Y-109142859D02*
X38678328Y-109142859D01*
X40178328Y-108500002D02*
X39392614Y-108500002D01*
X39392614Y-108500002D02*
X39249757Y-108571430D01*
X39249757Y-108571430D02*
X39178328Y-108714287D01*
X39178328Y-108714287D02*
X39178328Y-108928573D01*
X39178328Y-108928573D02*
X39249757Y-109071430D01*
X39249757Y-109071430D02*
X39321185Y-109142859D01*
X39178328Y-108000001D02*
X39178328Y-107428573D01*
X38678328Y-107785716D02*
X39964042Y-107785716D01*
X39964042Y-107785716D02*
X40106900Y-107714287D01*
X40106900Y-107714287D02*
X40178328Y-107571430D01*
X40178328Y-107571430D02*
X40178328Y-107428573D01*
X39178328Y-107142858D02*
X39178328Y-106571430D01*
X38678328Y-106928573D02*
X39964042Y-106928573D01*
X39964042Y-106928573D02*
X40106900Y-106857144D01*
X40106900Y-106857144D02*
X40178328Y-106714287D01*
X40178328Y-106714287D02*
X40178328Y-106571430D01*
X39178328Y-106071430D02*
X40678328Y-106071430D01*
X39249757Y-106071430D02*
X39178328Y-105928573D01*
X39178328Y-105928573D02*
X39178328Y-105642858D01*
X39178328Y-105642858D02*
X39249757Y-105500001D01*
X39249757Y-105500001D02*
X39321185Y-105428573D01*
X39321185Y-105428573D02*
X39464042Y-105357144D01*
X39464042Y-105357144D02*
X39892614Y-105357144D01*
X39892614Y-105357144D02*
X40035471Y-105428573D01*
X40035471Y-105428573D02*
X40106900Y-105500001D01*
X40106900Y-105500001D02*
X40178328Y-105642858D01*
X40178328Y-105642858D02*
X40178328Y-105928573D01*
X40178328Y-105928573D02*
X40106900Y-106071430D01*
X40106900Y-104785715D02*
X40178328Y-104642858D01*
X40178328Y-104642858D02*
X40178328Y-104357144D01*
X40178328Y-104357144D02*
X40106900Y-104214287D01*
X40106900Y-104214287D02*
X39964042Y-104142858D01*
X39964042Y-104142858D02*
X39892614Y-104142858D01*
X39892614Y-104142858D02*
X39749757Y-104214287D01*
X39749757Y-104214287D02*
X39678328Y-104357144D01*
X39678328Y-104357144D02*
X39678328Y-104571430D01*
X39678328Y-104571430D02*
X39606900Y-104714287D01*
X39606900Y-104714287D02*
X39464042Y-104785715D01*
X39464042Y-104785715D02*
X39392614Y-104785715D01*
X39392614Y-104785715D02*
X39249757Y-104714287D01*
X39249757Y-104714287D02*
X39178328Y-104571430D01*
X39178328Y-104571430D02*
X39178328Y-104357144D01*
X39178328Y-104357144D02*
X39249757Y-104214287D01*
X40035471Y-103500001D02*
X40106900Y-103428572D01*
X40106900Y-103428572D02*
X40178328Y-103500001D01*
X40178328Y-103500001D02*
X40106900Y-103571429D01*
X40106900Y-103571429D02*
X40035471Y-103500001D01*
X40035471Y-103500001D02*
X40178328Y-103500001D01*
X39249757Y-103500001D02*
X39321185Y-103428572D01*
X39321185Y-103428572D02*
X39392614Y-103500001D01*
X39392614Y-103500001D02*
X39321185Y-103571429D01*
X39321185Y-103571429D02*
X39249757Y-103500001D01*
X39249757Y-103500001D02*
X39392614Y-103500001D01*
X38606900Y-101714286D02*
X40535471Y-103000000D01*
X38606900Y-100142857D02*
X40535471Y-101428571D01*
X39178328Y-99000000D02*
X40392614Y-99000000D01*
X40392614Y-99000000D02*
X40535471Y-99071428D01*
X40535471Y-99071428D02*
X40606900Y-99142857D01*
X40606900Y-99142857D02*
X40678328Y-99285714D01*
X40678328Y-99285714D02*
X40678328Y-99500000D01*
X40678328Y-99500000D02*
X40606900Y-99642857D01*
X40106900Y-99000000D02*
X40178328Y-99142857D01*
X40178328Y-99142857D02*
X40178328Y-99428571D01*
X40178328Y-99428571D02*
X40106900Y-99571428D01*
X40106900Y-99571428D02*
X40035471Y-99642857D01*
X40035471Y-99642857D02*
X39892614Y-99714285D01*
X39892614Y-99714285D02*
X39464042Y-99714285D01*
X39464042Y-99714285D02*
X39321185Y-99642857D01*
X39321185Y-99642857D02*
X39249757Y-99571428D01*
X39249757Y-99571428D02*
X39178328Y-99428571D01*
X39178328Y-99428571D02*
X39178328Y-99142857D01*
X39178328Y-99142857D02*
X39249757Y-99000000D01*
X40178328Y-98285714D02*
X39178328Y-98285714D01*
X38678328Y-98285714D02*
X38749757Y-98357142D01*
X38749757Y-98357142D02*
X38821185Y-98285714D01*
X38821185Y-98285714D02*
X38749757Y-98214285D01*
X38749757Y-98214285D02*
X38678328Y-98285714D01*
X38678328Y-98285714D02*
X38821185Y-98285714D01*
X39178328Y-97785713D02*
X39178328Y-97214285D01*
X38678328Y-97571428D02*
X39964042Y-97571428D01*
X39964042Y-97571428D02*
X40106900Y-97499999D01*
X40106900Y-97499999D02*
X40178328Y-97357142D01*
X40178328Y-97357142D02*
X40178328Y-97214285D01*
X40178328Y-96714285D02*
X38678328Y-96714285D01*
X40178328Y-96071428D02*
X39392614Y-96071428D01*
X39392614Y-96071428D02*
X39249757Y-96142856D01*
X39249757Y-96142856D02*
X39178328Y-96285713D01*
X39178328Y-96285713D02*
X39178328Y-96499999D01*
X39178328Y-96499999D02*
X39249757Y-96642856D01*
X39249757Y-96642856D02*
X39321185Y-96714285D01*
X39178328Y-94714285D02*
X40178328Y-94714285D01*
X39178328Y-95357142D02*
X39964042Y-95357142D01*
X39964042Y-95357142D02*
X40106900Y-95285713D01*
X40106900Y-95285713D02*
X40178328Y-95142856D01*
X40178328Y-95142856D02*
X40178328Y-94928570D01*
X40178328Y-94928570D02*
X40106900Y-94785713D01*
X40106900Y-94785713D02*
X40035471Y-94714285D01*
X40178328Y-93999999D02*
X38678328Y-93999999D01*
X39249757Y-93999999D02*
X39178328Y-93857142D01*
X39178328Y-93857142D02*
X39178328Y-93571427D01*
X39178328Y-93571427D02*
X39249757Y-93428570D01*
X39249757Y-93428570D02*
X39321185Y-93357142D01*
X39321185Y-93357142D02*
X39464042Y-93285713D01*
X39464042Y-93285713D02*
X39892614Y-93285713D01*
X39892614Y-93285713D02*
X40035471Y-93357142D01*
X40035471Y-93357142D02*
X40106900Y-93428570D01*
X40106900Y-93428570D02*
X40178328Y-93571427D01*
X40178328Y-93571427D02*
X40178328Y-93857142D01*
X40178328Y-93857142D02*
X40106900Y-93999999D01*
X40035471Y-92642856D02*
X40106900Y-92571427D01*
X40106900Y-92571427D02*
X40178328Y-92642856D01*
X40178328Y-92642856D02*
X40106900Y-92714284D01*
X40106900Y-92714284D02*
X40035471Y-92642856D01*
X40035471Y-92642856D02*
X40178328Y-92642856D01*
X40106900Y-91285713D02*
X40178328Y-91428570D01*
X40178328Y-91428570D02*
X40178328Y-91714284D01*
X40178328Y-91714284D02*
X40106900Y-91857141D01*
X40106900Y-91857141D02*
X40035471Y-91928570D01*
X40035471Y-91928570D02*
X39892614Y-91999998D01*
X39892614Y-91999998D02*
X39464042Y-91999998D01*
X39464042Y-91999998D02*
X39321185Y-91928570D01*
X39321185Y-91928570D02*
X39249757Y-91857141D01*
X39249757Y-91857141D02*
X39178328Y-91714284D01*
X39178328Y-91714284D02*
X39178328Y-91428570D01*
X39178328Y-91428570D02*
X39249757Y-91285713D01*
X40178328Y-90428570D02*
X40106900Y-90571427D01*
X40106900Y-90571427D02*
X40035471Y-90642856D01*
X40035471Y-90642856D02*
X39892614Y-90714284D01*
X39892614Y-90714284D02*
X39464042Y-90714284D01*
X39464042Y-90714284D02*
X39321185Y-90642856D01*
X39321185Y-90642856D02*
X39249757Y-90571427D01*
X39249757Y-90571427D02*
X39178328Y-90428570D01*
X39178328Y-90428570D02*
X39178328Y-90214284D01*
X39178328Y-90214284D02*
X39249757Y-90071427D01*
X39249757Y-90071427D02*
X39321185Y-89999999D01*
X39321185Y-89999999D02*
X39464042Y-89928570D01*
X39464042Y-89928570D02*
X39892614Y-89928570D01*
X39892614Y-89928570D02*
X40035471Y-89999999D01*
X40035471Y-89999999D02*
X40106900Y-90071427D01*
X40106900Y-90071427D02*
X40178328Y-90214284D01*
X40178328Y-90214284D02*
X40178328Y-90428570D01*
X40178328Y-89285713D02*
X39178328Y-89285713D01*
X39321185Y-89285713D02*
X39249757Y-89214284D01*
X39249757Y-89214284D02*
X39178328Y-89071427D01*
X39178328Y-89071427D02*
X39178328Y-88857141D01*
X39178328Y-88857141D02*
X39249757Y-88714284D01*
X39249757Y-88714284D02*
X39392614Y-88642856D01*
X39392614Y-88642856D02*
X40178328Y-88642856D01*
X39392614Y-88642856D02*
X39249757Y-88571427D01*
X39249757Y-88571427D02*
X39178328Y-88428570D01*
X39178328Y-88428570D02*
X39178328Y-88214284D01*
X39178328Y-88214284D02*
X39249757Y-88071427D01*
X39249757Y-88071427D02*
X39392614Y-87999998D01*
X39392614Y-87999998D02*
X40178328Y-87999998D01*
X38606900Y-86214284D02*
X40535471Y-87499998D01*
X40106900Y-85785712D02*
X40178328Y-85571427D01*
X40178328Y-85571427D02*
X40178328Y-85214284D01*
X40178328Y-85214284D02*
X40106900Y-85071427D01*
X40106900Y-85071427D02*
X40035471Y-84999998D01*
X40035471Y-84999998D02*
X39892614Y-84928569D01*
X39892614Y-84928569D02*
X39749757Y-84928569D01*
X39749757Y-84928569D02*
X39606900Y-84999998D01*
X39606900Y-84999998D02*
X39535471Y-85071427D01*
X39535471Y-85071427D02*
X39464042Y-85214284D01*
X39464042Y-85214284D02*
X39392614Y-85499998D01*
X39392614Y-85499998D02*
X39321185Y-85642855D01*
X39321185Y-85642855D02*
X39249757Y-85714284D01*
X39249757Y-85714284D02*
X39106900Y-85785712D01*
X39106900Y-85785712D02*
X38964042Y-85785712D01*
X38964042Y-85785712D02*
X38821185Y-85714284D01*
X38821185Y-85714284D02*
X38749757Y-85642855D01*
X38749757Y-85642855D02*
X38678328Y-85499998D01*
X38678328Y-85499998D02*
X38678328Y-85142855D01*
X38678328Y-85142855D02*
X38749757Y-84928569D01*
X39178328Y-83642856D02*
X40178328Y-83642856D01*
X39178328Y-84285713D02*
X39964042Y-84285713D01*
X39964042Y-84285713D02*
X40106900Y-84214284D01*
X40106900Y-84214284D02*
X40178328Y-84071427D01*
X40178328Y-84071427D02*
X40178328Y-83857141D01*
X40178328Y-83857141D02*
X40106900Y-83714284D01*
X40106900Y-83714284D02*
X40035471Y-83642856D01*
X39178328Y-82928570D02*
X40678328Y-82928570D01*
X39249757Y-82928570D02*
X39178328Y-82785713D01*
X39178328Y-82785713D02*
X39178328Y-82499998D01*
X39178328Y-82499998D02*
X39249757Y-82357141D01*
X39249757Y-82357141D02*
X39321185Y-82285713D01*
X39321185Y-82285713D02*
X39464042Y-82214284D01*
X39464042Y-82214284D02*
X39892614Y-82214284D01*
X39892614Y-82214284D02*
X40035471Y-82285713D01*
X40035471Y-82285713D02*
X40106900Y-82357141D01*
X40106900Y-82357141D02*
X40178328Y-82499998D01*
X40178328Y-82499998D02*
X40178328Y-82785713D01*
X40178328Y-82785713D02*
X40106900Y-82928570D01*
X40106900Y-80999998D02*
X40178328Y-81142855D01*
X40178328Y-81142855D02*
X40178328Y-81428570D01*
X40178328Y-81428570D02*
X40106900Y-81571427D01*
X40106900Y-81571427D02*
X39964042Y-81642855D01*
X39964042Y-81642855D02*
X39392614Y-81642855D01*
X39392614Y-81642855D02*
X39249757Y-81571427D01*
X39249757Y-81571427D02*
X39178328Y-81428570D01*
X39178328Y-81428570D02*
X39178328Y-81142855D01*
X39178328Y-81142855D02*
X39249757Y-80999998D01*
X39249757Y-80999998D02*
X39392614Y-80928570D01*
X39392614Y-80928570D02*
X39535471Y-80928570D01*
X39535471Y-80928570D02*
X39678328Y-81642855D01*
X40178328Y-80285713D02*
X39178328Y-80285713D01*
X39464042Y-80285713D02*
X39321185Y-80214284D01*
X39321185Y-80214284D02*
X39249757Y-80142856D01*
X39249757Y-80142856D02*
X39178328Y-79999998D01*
X39178328Y-79999998D02*
X39178328Y-79857141D01*
X40178328Y-79357142D02*
X39178328Y-79357142D01*
X39321185Y-79357142D02*
X39249757Y-79285713D01*
X39249757Y-79285713D02*
X39178328Y-79142856D01*
X39178328Y-79142856D02*
X39178328Y-78928570D01*
X39178328Y-78928570D02*
X39249757Y-78785713D01*
X39249757Y-78785713D02*
X39392614Y-78714285D01*
X39392614Y-78714285D02*
X40178328Y-78714285D01*
X39392614Y-78714285D02*
X39249757Y-78642856D01*
X39249757Y-78642856D02*
X39178328Y-78499999D01*
X39178328Y-78499999D02*
X39178328Y-78285713D01*
X39178328Y-78285713D02*
X39249757Y-78142856D01*
X39249757Y-78142856D02*
X39392614Y-78071427D01*
X39392614Y-78071427D02*
X40178328Y-78071427D01*
X40178328Y-76714285D02*
X39392614Y-76714285D01*
X39392614Y-76714285D02*
X39249757Y-76785713D01*
X39249757Y-76785713D02*
X39178328Y-76928570D01*
X39178328Y-76928570D02*
X39178328Y-77214285D01*
X39178328Y-77214285D02*
X39249757Y-77357142D01*
X40106900Y-76714285D02*
X40178328Y-76857142D01*
X40178328Y-76857142D02*
X40178328Y-77214285D01*
X40178328Y-77214285D02*
X40106900Y-77357142D01*
X40106900Y-77357142D02*
X39964042Y-77428570D01*
X39964042Y-77428570D02*
X39821185Y-77428570D01*
X39821185Y-77428570D02*
X39678328Y-77357142D01*
X39678328Y-77357142D02*
X39606900Y-77214285D01*
X39606900Y-77214285D02*
X39606900Y-76857142D01*
X39606900Y-76857142D02*
X39535471Y-76714285D01*
X39178328Y-75357142D02*
X40392614Y-75357142D01*
X40392614Y-75357142D02*
X40535471Y-75428570D01*
X40535471Y-75428570D02*
X40606900Y-75499999D01*
X40606900Y-75499999D02*
X40678328Y-75642856D01*
X40678328Y-75642856D02*
X40678328Y-75857142D01*
X40678328Y-75857142D02*
X40606900Y-75999999D01*
X40106900Y-75357142D02*
X40178328Y-75499999D01*
X40178328Y-75499999D02*
X40178328Y-75785713D01*
X40178328Y-75785713D02*
X40106900Y-75928570D01*
X40106900Y-75928570D02*
X40035471Y-75999999D01*
X40035471Y-75999999D02*
X39892614Y-76071427D01*
X39892614Y-76071427D02*
X39464042Y-76071427D01*
X39464042Y-76071427D02*
X39321185Y-75999999D01*
X39321185Y-75999999D02*
X39249757Y-75928570D01*
X39249757Y-75928570D02*
X39178328Y-75785713D01*
X39178328Y-75785713D02*
X39178328Y-75499999D01*
X39178328Y-75499999D02*
X39249757Y-75357142D01*
X39178328Y-74642856D02*
X40178328Y-74642856D01*
X39321185Y-74642856D02*
X39249757Y-74571427D01*
X39249757Y-74571427D02*
X39178328Y-74428570D01*
X39178328Y-74428570D02*
X39178328Y-74214284D01*
X39178328Y-74214284D02*
X39249757Y-74071427D01*
X39249757Y-74071427D02*
X39392614Y-73999999D01*
X39392614Y-73999999D02*
X40178328Y-73999999D01*
X39178328Y-72642856D02*
X40178328Y-72642856D01*
X39178328Y-73285713D02*
X39964042Y-73285713D01*
X39964042Y-73285713D02*
X40106900Y-73214284D01*
X40106900Y-73214284D02*
X40178328Y-73071427D01*
X40178328Y-73071427D02*
X40178328Y-72857141D01*
X40178328Y-72857141D02*
X40106900Y-72714284D01*
X40106900Y-72714284D02*
X40035471Y-72642856D01*
X40178328Y-71928570D02*
X39178328Y-71928570D01*
X39321185Y-71928570D02*
X39249757Y-71857141D01*
X39249757Y-71857141D02*
X39178328Y-71714284D01*
X39178328Y-71714284D02*
X39178328Y-71499998D01*
X39178328Y-71499998D02*
X39249757Y-71357141D01*
X39249757Y-71357141D02*
X39392614Y-71285713D01*
X39392614Y-71285713D02*
X40178328Y-71285713D01*
X39392614Y-71285713D02*
X39249757Y-71214284D01*
X39249757Y-71214284D02*
X39178328Y-71071427D01*
X39178328Y-71071427D02*
X39178328Y-70857141D01*
X39178328Y-70857141D02*
X39249757Y-70714284D01*
X39249757Y-70714284D02*
X39392614Y-70642855D01*
X39392614Y-70642855D02*
X40178328Y-70642855D01*
X38606900Y-68857141D02*
X40535471Y-70142855D01*
X40178328Y-68357141D02*
X38678328Y-68357141D01*
X39392614Y-68357141D02*
X39392614Y-67499998D01*
X40178328Y-67499998D02*
X38678328Y-67499998D01*
X40178328Y-66785712D02*
X39178328Y-66785712D01*
X38678328Y-66785712D02*
X38749757Y-66857140D01*
X38749757Y-66857140D02*
X38821185Y-66785712D01*
X38821185Y-66785712D02*
X38749757Y-66714283D01*
X38749757Y-66714283D02*
X38678328Y-66785712D01*
X38678328Y-66785712D02*
X38821185Y-66785712D01*
X39178328Y-65428569D02*
X40392614Y-65428569D01*
X40392614Y-65428569D02*
X40535471Y-65499997D01*
X40535471Y-65499997D02*
X40606900Y-65571426D01*
X40606900Y-65571426D02*
X40678328Y-65714283D01*
X40678328Y-65714283D02*
X40678328Y-65928569D01*
X40678328Y-65928569D02*
X40606900Y-66071426D01*
X40106900Y-65428569D02*
X40178328Y-65571426D01*
X40178328Y-65571426D02*
X40178328Y-65857140D01*
X40178328Y-65857140D02*
X40106900Y-65999997D01*
X40106900Y-65999997D02*
X40035471Y-66071426D01*
X40035471Y-66071426D02*
X39892614Y-66142854D01*
X39892614Y-66142854D02*
X39464042Y-66142854D01*
X39464042Y-66142854D02*
X39321185Y-66071426D01*
X39321185Y-66071426D02*
X39249757Y-65999997D01*
X39249757Y-65999997D02*
X39178328Y-65857140D01*
X39178328Y-65857140D02*
X39178328Y-65571426D01*
X39178328Y-65571426D02*
X39249757Y-65428569D01*
X40178328Y-64714283D02*
X38678328Y-64714283D01*
X40178328Y-64071426D02*
X39392614Y-64071426D01*
X39392614Y-64071426D02*
X39249757Y-64142854D01*
X39249757Y-64142854D02*
X39178328Y-64285711D01*
X39178328Y-64285711D02*
X39178328Y-64499997D01*
X39178328Y-64499997D02*
X39249757Y-64642854D01*
X39249757Y-64642854D02*
X39321185Y-64714283D01*
X38678328Y-63499997D02*
X38678328Y-62499997D01*
X38678328Y-62499997D02*
X40178328Y-63499997D01*
X40178328Y-63499997D02*
X40178328Y-62499997D01*
X39606900Y-61928569D02*
X39606900Y-60785712D01*
X40106900Y-60142854D02*
X40178328Y-59999997D01*
X40178328Y-59999997D02*
X40178328Y-59714283D01*
X40178328Y-59714283D02*
X40106900Y-59571426D01*
X40106900Y-59571426D02*
X39964042Y-59499997D01*
X39964042Y-59499997D02*
X39892614Y-59499997D01*
X39892614Y-59499997D02*
X39749757Y-59571426D01*
X39749757Y-59571426D02*
X39678328Y-59714283D01*
X39678328Y-59714283D02*
X39678328Y-59928569D01*
X39678328Y-59928569D02*
X39606900Y-60071426D01*
X39606900Y-60071426D02*
X39464042Y-60142854D01*
X39464042Y-60142854D02*
X39392614Y-60142854D01*
X39392614Y-60142854D02*
X39249757Y-60071426D01*
X39249757Y-60071426D02*
X39178328Y-59928569D01*
X39178328Y-59928569D02*
X39178328Y-59714283D01*
X39178328Y-59714283D02*
X39249757Y-59571426D01*
X39178328Y-59071425D02*
X39178328Y-58499997D01*
X38678328Y-58857140D02*
X39964042Y-58857140D01*
X39964042Y-58857140D02*
X40106900Y-58785711D01*
X40106900Y-58785711D02*
X40178328Y-58642854D01*
X40178328Y-58642854D02*
X40178328Y-58499997D01*
X40106900Y-57428568D02*
X40178328Y-57571425D01*
X40178328Y-57571425D02*
X40178328Y-57857140D01*
X40178328Y-57857140D02*
X40106900Y-57999997D01*
X40106900Y-57999997D02*
X39964042Y-58071425D01*
X39964042Y-58071425D02*
X39392614Y-58071425D01*
X39392614Y-58071425D02*
X39249757Y-57999997D01*
X39249757Y-57999997D02*
X39178328Y-57857140D01*
X39178328Y-57857140D02*
X39178328Y-57571425D01*
X39178328Y-57571425D02*
X39249757Y-57428568D01*
X39249757Y-57428568D02*
X39392614Y-57357140D01*
X39392614Y-57357140D02*
X39535471Y-57357140D01*
X39535471Y-57357140D02*
X39678328Y-58071425D01*
X40178328Y-56714283D02*
X39178328Y-56714283D01*
X39464042Y-56714283D02*
X39321185Y-56642854D01*
X39321185Y-56642854D02*
X39249757Y-56571426D01*
X39249757Y-56571426D02*
X39178328Y-56428568D01*
X39178328Y-56428568D02*
X39178328Y-56285711D01*
X40106900Y-55214283D02*
X40178328Y-55357140D01*
X40178328Y-55357140D02*
X40178328Y-55642855D01*
X40178328Y-55642855D02*
X40106900Y-55785712D01*
X40106900Y-55785712D02*
X39964042Y-55857140D01*
X39964042Y-55857140D02*
X39392614Y-55857140D01*
X39392614Y-55857140D02*
X39249757Y-55785712D01*
X39249757Y-55785712D02*
X39178328Y-55642855D01*
X39178328Y-55642855D02*
X39178328Y-55357140D01*
X39178328Y-55357140D02*
X39249757Y-55214283D01*
X39249757Y-55214283D02*
X39392614Y-55142855D01*
X39392614Y-55142855D02*
X39535471Y-55142855D01*
X39535471Y-55142855D02*
X39678328Y-55857140D01*
X40178328Y-54285712D02*
X40106900Y-54428569D01*
X40106900Y-54428569D02*
X40035471Y-54499998D01*
X40035471Y-54499998D02*
X39892614Y-54571426D01*
X39892614Y-54571426D02*
X39464042Y-54571426D01*
X39464042Y-54571426D02*
X39321185Y-54499998D01*
X39321185Y-54499998D02*
X39249757Y-54428569D01*
X39249757Y-54428569D02*
X39178328Y-54285712D01*
X39178328Y-54285712D02*
X39178328Y-54071426D01*
X39178328Y-54071426D02*
X39249757Y-53928569D01*
X39249757Y-53928569D02*
X39321185Y-53857141D01*
X39321185Y-53857141D02*
X39464042Y-53785712D01*
X39464042Y-53785712D02*
X39892614Y-53785712D01*
X39892614Y-53785712D02*
X40035471Y-53857141D01*
X40035471Y-53857141D02*
X40106900Y-53928569D01*
X40106900Y-53928569D02*
X40178328Y-54071426D01*
X40178328Y-54071426D02*
X40178328Y-54285712D01*
D10*
X61859580Y-62166666D02*
X61907200Y-62214285D01*
X61907200Y-62214285D02*
X61954819Y-62357142D01*
X61954819Y-62357142D02*
X61954819Y-62452380D01*
X61954819Y-62452380D02*
X61907200Y-62595237D01*
X61907200Y-62595237D02*
X61811961Y-62690475D01*
X61811961Y-62690475D02*
X61716723Y-62738094D01*
X61716723Y-62738094D02*
X61526247Y-62785713D01*
X61526247Y-62785713D02*
X61383390Y-62785713D01*
X61383390Y-62785713D02*
X61192914Y-62738094D01*
X61192914Y-62738094D02*
X61097676Y-62690475D01*
X61097676Y-62690475D02*
X61002438Y-62595237D01*
X61002438Y-62595237D02*
X60954819Y-62452380D01*
X60954819Y-62452380D02*
X60954819Y-62357142D01*
X60954819Y-62357142D02*
X61002438Y-62214285D01*
X61002438Y-62214285D02*
X61050057Y-62166666D01*
X61954819Y-61214285D02*
X61954819Y-61785713D01*
X61954819Y-61499999D02*
X60954819Y-61499999D01*
X60954819Y-61499999D02*
X61097676Y-61595237D01*
X61097676Y-61595237D02*
X61192914Y-61690475D01*
X61192914Y-61690475D02*
X61240533Y-61785713D01*
X56859580Y-62166666D02*
X56907200Y-62214285D01*
X56907200Y-62214285D02*
X56954819Y-62357142D01*
X56954819Y-62357142D02*
X56954819Y-62452380D01*
X56954819Y-62452380D02*
X56907200Y-62595237D01*
X56907200Y-62595237D02*
X56811961Y-62690475D01*
X56811961Y-62690475D02*
X56716723Y-62738094D01*
X56716723Y-62738094D02*
X56526247Y-62785713D01*
X56526247Y-62785713D02*
X56383390Y-62785713D01*
X56383390Y-62785713D02*
X56192914Y-62738094D01*
X56192914Y-62738094D02*
X56097676Y-62690475D01*
X56097676Y-62690475D02*
X56002438Y-62595237D01*
X56002438Y-62595237D02*
X55954819Y-62452380D01*
X55954819Y-62452380D02*
X55954819Y-62357142D01*
X55954819Y-62357142D02*
X56002438Y-62214285D01*
X56002438Y-62214285D02*
X56050057Y-62166666D01*
X56050057Y-61785713D02*
X56002438Y-61738094D01*
X56002438Y-61738094D02*
X55954819Y-61642856D01*
X55954819Y-61642856D02*
X55954819Y-61404761D01*
X55954819Y-61404761D02*
X56002438Y-61309523D01*
X56002438Y-61309523D02*
X56050057Y-61261904D01*
X56050057Y-61261904D02*
X56145295Y-61214285D01*
X56145295Y-61214285D02*
X56240533Y-61214285D01*
X56240533Y-61214285D02*
X56383390Y-61261904D01*
X56383390Y-61261904D02*
X56954819Y-61833332D01*
X56954819Y-61833332D02*
X56954819Y-61214285D01*
X51859580Y-62166666D02*
X51907200Y-62214285D01*
X51907200Y-62214285D02*
X51954819Y-62357142D01*
X51954819Y-62357142D02*
X51954819Y-62452380D01*
X51954819Y-62452380D02*
X51907200Y-62595237D01*
X51907200Y-62595237D02*
X51811961Y-62690475D01*
X51811961Y-62690475D02*
X51716723Y-62738094D01*
X51716723Y-62738094D02*
X51526247Y-62785713D01*
X51526247Y-62785713D02*
X51383390Y-62785713D01*
X51383390Y-62785713D02*
X51192914Y-62738094D01*
X51192914Y-62738094D02*
X51097676Y-62690475D01*
X51097676Y-62690475D02*
X51002438Y-62595237D01*
X51002438Y-62595237D02*
X50954819Y-62452380D01*
X50954819Y-62452380D02*
X50954819Y-62357142D01*
X50954819Y-62357142D02*
X51002438Y-62214285D01*
X51002438Y-62214285D02*
X51050057Y-62166666D01*
X50954819Y-61833332D02*
X50954819Y-61214285D01*
X50954819Y-61214285D02*
X51335771Y-61547618D01*
X51335771Y-61547618D02*
X51335771Y-61404761D01*
X51335771Y-61404761D02*
X51383390Y-61309523D01*
X51383390Y-61309523D02*
X51431009Y-61261904D01*
X51431009Y-61261904D02*
X51526247Y-61214285D01*
X51526247Y-61214285D02*
X51764342Y-61214285D01*
X51764342Y-61214285D02*
X51859580Y-61261904D01*
X51859580Y-61261904D02*
X51907200Y-61309523D01*
X51907200Y-61309523D02*
X51954819Y-61404761D01*
X51954819Y-61404761D02*
X51954819Y-61690475D01*
X51954819Y-61690475D02*
X51907200Y-61785713D01*
X51907200Y-61785713D02*
X51859580Y-61833332D01*
X46859580Y-62166666D02*
X46907200Y-62214285D01*
X46907200Y-62214285D02*
X46954819Y-62357142D01*
X46954819Y-62357142D02*
X46954819Y-62452380D01*
X46954819Y-62452380D02*
X46907200Y-62595237D01*
X46907200Y-62595237D02*
X46811961Y-62690475D01*
X46811961Y-62690475D02*
X46716723Y-62738094D01*
X46716723Y-62738094D02*
X46526247Y-62785713D01*
X46526247Y-62785713D02*
X46383390Y-62785713D01*
X46383390Y-62785713D02*
X46192914Y-62738094D01*
X46192914Y-62738094D02*
X46097676Y-62690475D01*
X46097676Y-62690475D02*
X46002438Y-62595237D01*
X46002438Y-62595237D02*
X45954819Y-62452380D01*
X45954819Y-62452380D02*
X45954819Y-62357142D01*
X45954819Y-62357142D02*
X46002438Y-62214285D01*
X46002438Y-62214285D02*
X46050057Y-62166666D01*
X46288152Y-61309523D02*
X46954819Y-61309523D01*
X45907200Y-61547618D02*
X46621485Y-61785713D01*
X46621485Y-61785713D02*
X46621485Y-61166666D01*
X66859580Y-62166666D02*
X66907200Y-62214285D01*
X66907200Y-62214285D02*
X66954819Y-62357142D01*
X66954819Y-62357142D02*
X66954819Y-62452380D01*
X66954819Y-62452380D02*
X66907200Y-62595237D01*
X66907200Y-62595237D02*
X66811961Y-62690475D01*
X66811961Y-62690475D02*
X66716723Y-62738094D01*
X66716723Y-62738094D02*
X66526247Y-62785713D01*
X66526247Y-62785713D02*
X66383390Y-62785713D01*
X66383390Y-62785713D02*
X66192914Y-62738094D01*
X66192914Y-62738094D02*
X66097676Y-62690475D01*
X66097676Y-62690475D02*
X66002438Y-62595237D01*
X66002438Y-62595237D02*
X65954819Y-62452380D01*
X65954819Y-62452380D02*
X65954819Y-62357142D01*
X65954819Y-62357142D02*
X66002438Y-62214285D01*
X66002438Y-62214285D02*
X66050057Y-62166666D01*
X65954819Y-61261904D02*
X65954819Y-61738094D01*
X65954819Y-61738094D02*
X66431009Y-61785713D01*
X66431009Y-61785713D02*
X66383390Y-61738094D01*
X66383390Y-61738094D02*
X66335771Y-61642856D01*
X66335771Y-61642856D02*
X66335771Y-61404761D01*
X66335771Y-61404761D02*
X66383390Y-61309523D01*
X66383390Y-61309523D02*
X66431009Y-61261904D01*
X66431009Y-61261904D02*
X66526247Y-61214285D01*
X66526247Y-61214285D02*
X66764342Y-61214285D01*
X66764342Y-61214285D02*
X66859580Y-61261904D01*
X66859580Y-61261904D02*
X66907200Y-61309523D01*
X66907200Y-61309523D02*
X66954819Y-61404761D01*
X66954819Y-61404761D02*
X66954819Y-61642856D01*
X66954819Y-61642856D02*
X66907200Y-61738094D01*
X66907200Y-61738094D02*
X66859580Y-61785713D01*
X56083333Y-115859580D02*
X56035714Y-115907200D01*
X56035714Y-115907200D02*
X55892857Y-115954819D01*
X55892857Y-115954819D02*
X55797619Y-115954819D01*
X55797619Y-115954819D02*
X55654762Y-115907200D01*
X55654762Y-115907200D02*
X55559524Y-115811961D01*
X55559524Y-115811961D02*
X55511905Y-115716723D01*
X55511905Y-115716723D02*
X55464286Y-115526247D01*
X55464286Y-115526247D02*
X55464286Y-115383390D01*
X55464286Y-115383390D02*
X55511905Y-115192914D01*
X55511905Y-115192914D02*
X55559524Y-115097676D01*
X55559524Y-115097676D02*
X55654762Y-115002438D01*
X55654762Y-115002438D02*
X55797619Y-114954819D01*
X55797619Y-114954819D02*
X55892857Y-114954819D01*
X55892857Y-114954819D02*
X56035714Y-115002438D01*
X56035714Y-115002438D02*
X56083333Y-115050057D01*
X56654762Y-115383390D02*
X56559524Y-115335771D01*
X56559524Y-115335771D02*
X56511905Y-115288152D01*
X56511905Y-115288152D02*
X56464286Y-115192914D01*
X56464286Y-115192914D02*
X56464286Y-115145295D01*
X56464286Y-115145295D02*
X56511905Y-115050057D01*
X56511905Y-115050057D02*
X56559524Y-115002438D01*
X56559524Y-115002438D02*
X56654762Y-114954819D01*
X56654762Y-114954819D02*
X56845238Y-114954819D01*
X56845238Y-114954819D02*
X56940476Y-115002438D01*
X56940476Y-115002438D02*
X56988095Y-115050057D01*
X56988095Y-115050057D02*
X57035714Y-115145295D01*
X57035714Y-115145295D02*
X57035714Y-115192914D01*
X57035714Y-115192914D02*
X56988095Y-115288152D01*
X56988095Y-115288152D02*
X56940476Y-115335771D01*
X56940476Y-115335771D02*
X56845238Y-115383390D01*
X56845238Y-115383390D02*
X56654762Y-115383390D01*
X56654762Y-115383390D02*
X56559524Y-115431009D01*
X56559524Y-115431009D02*
X56511905Y-115478628D01*
X56511905Y-115478628D02*
X56464286Y-115573866D01*
X56464286Y-115573866D02*
X56464286Y-115764342D01*
X56464286Y-115764342D02*
X56511905Y-115859580D01*
X56511905Y-115859580D02*
X56559524Y-115907200D01*
X56559524Y-115907200D02*
X56654762Y-115954819D01*
X56654762Y-115954819D02*
X56845238Y-115954819D01*
X56845238Y-115954819D02*
X56940476Y-115907200D01*
X56940476Y-115907200D02*
X56988095Y-115859580D01*
X56988095Y-115859580D02*
X57035714Y-115764342D01*
X57035714Y-115764342D02*
X57035714Y-115573866D01*
X57035714Y-115573866D02*
X56988095Y-115478628D01*
X56988095Y-115478628D02*
X56940476Y-115431009D01*
X56940476Y-115431009D02*
X56845238Y-115383390D01*
X49761905Y-98454819D02*
X49761905Y-97454819D01*
X49761905Y-97454819D02*
X50000000Y-97454819D01*
X50000000Y-97454819D02*
X50142857Y-97502438D01*
X50142857Y-97502438D02*
X50238095Y-97597676D01*
X50238095Y-97597676D02*
X50285714Y-97692914D01*
X50285714Y-97692914D02*
X50333333Y-97883390D01*
X50333333Y-97883390D02*
X50333333Y-98026247D01*
X50333333Y-98026247D02*
X50285714Y-98216723D01*
X50285714Y-98216723D02*
X50238095Y-98311961D01*
X50238095Y-98311961D02*
X50142857Y-98407200D01*
X50142857Y-98407200D02*
X50000000Y-98454819D01*
X50000000Y-98454819D02*
X49761905Y-98454819D01*
X51190476Y-97788152D02*
X51190476Y-98454819D01*
X50952381Y-97407200D02*
X50714286Y-98121485D01*
X50714286Y-98121485D02*
X51333333Y-98121485D01*
X46118095Y-96654819D02*
X46118095Y-95654819D01*
X46689523Y-96654819D02*
X46260952Y-96083390D01*
X46689523Y-95654819D02*
X46118095Y-96226247D01*
X62261905Y-98454819D02*
X62261905Y-97454819D01*
X62261905Y-97454819D02*
X62500000Y-97454819D01*
X62500000Y-97454819D02*
X62642857Y-97502438D01*
X62642857Y-97502438D02*
X62738095Y-97597676D01*
X62738095Y-97597676D02*
X62785714Y-97692914D01*
X62785714Y-97692914D02*
X62833333Y-97883390D01*
X62833333Y-97883390D02*
X62833333Y-98026247D01*
X62833333Y-98026247D02*
X62785714Y-98216723D01*
X62785714Y-98216723D02*
X62738095Y-98311961D01*
X62738095Y-98311961D02*
X62642857Y-98407200D01*
X62642857Y-98407200D02*
X62500000Y-98454819D01*
X62500000Y-98454819D02*
X62261905Y-98454819D01*
X63738095Y-97454819D02*
X63261905Y-97454819D01*
X63261905Y-97454819D02*
X63214286Y-97931009D01*
X63214286Y-97931009D02*
X63261905Y-97883390D01*
X63261905Y-97883390D02*
X63357143Y-97835771D01*
X63357143Y-97835771D02*
X63595238Y-97835771D01*
X63595238Y-97835771D02*
X63690476Y-97883390D01*
X63690476Y-97883390D02*
X63738095Y-97931009D01*
X63738095Y-97931009D02*
X63785714Y-98026247D01*
X63785714Y-98026247D02*
X63785714Y-98264342D01*
X63785714Y-98264342D02*
X63738095Y-98359580D01*
X63738095Y-98359580D02*
X63690476Y-98407200D01*
X63690476Y-98407200D02*
X63595238Y-98454819D01*
X63595238Y-98454819D02*
X63357143Y-98454819D01*
X63357143Y-98454819D02*
X63261905Y-98407200D01*
X63261905Y-98407200D02*
X63214286Y-98359580D01*
X58738095Y-96654819D02*
X58738095Y-95654819D01*
X59309523Y-96654819D02*
X58880952Y-96083390D01*
X59309523Y-95654819D02*
X58738095Y-96226247D01*
X50204819Y-84312857D02*
X49728628Y-84646190D01*
X50204819Y-84884285D02*
X49204819Y-84884285D01*
X49204819Y-84884285D02*
X49204819Y-84503333D01*
X49204819Y-84503333D02*
X49252438Y-84408095D01*
X49252438Y-84408095D02*
X49300057Y-84360476D01*
X49300057Y-84360476D02*
X49395295Y-84312857D01*
X49395295Y-84312857D02*
X49538152Y-84312857D01*
X49538152Y-84312857D02*
X49633390Y-84360476D01*
X49633390Y-84360476D02*
X49681009Y-84408095D01*
X49681009Y-84408095D02*
X49728628Y-84503333D01*
X49728628Y-84503333D02*
X49728628Y-84884285D01*
X50204819Y-83360476D02*
X50204819Y-83931904D01*
X50204819Y-83646190D02*
X49204819Y-83646190D01*
X49204819Y-83646190D02*
X49347676Y-83741428D01*
X49347676Y-83741428D02*
X49442914Y-83836666D01*
X49442914Y-83836666D02*
X49490533Y-83931904D01*
X50204819Y-82408095D02*
X50204819Y-82979523D01*
X50204819Y-82693809D02*
X49204819Y-82693809D01*
X49204819Y-82693809D02*
X49347676Y-82789047D01*
X49347676Y-82789047D02*
X49442914Y-82884285D01*
X49442914Y-82884285D02*
X49490533Y-82979523D01*
X44454819Y-66166666D02*
X43978628Y-66499999D01*
X44454819Y-66738094D02*
X43454819Y-66738094D01*
X43454819Y-66738094D02*
X43454819Y-66357142D01*
X43454819Y-66357142D02*
X43502438Y-66261904D01*
X43502438Y-66261904D02*
X43550057Y-66214285D01*
X43550057Y-66214285D02*
X43645295Y-66166666D01*
X43645295Y-66166666D02*
X43788152Y-66166666D01*
X43788152Y-66166666D02*
X43883390Y-66214285D01*
X43883390Y-66214285D02*
X43931009Y-66261904D01*
X43931009Y-66261904D02*
X43978628Y-66357142D01*
X43978628Y-66357142D02*
X43978628Y-66738094D01*
X43454819Y-65261904D02*
X43454819Y-65738094D01*
X43454819Y-65738094D02*
X43931009Y-65785713D01*
X43931009Y-65785713D02*
X43883390Y-65738094D01*
X43883390Y-65738094D02*
X43835771Y-65642856D01*
X43835771Y-65642856D02*
X43835771Y-65404761D01*
X43835771Y-65404761D02*
X43883390Y-65309523D01*
X43883390Y-65309523D02*
X43931009Y-65261904D01*
X43931009Y-65261904D02*
X44026247Y-65214285D01*
X44026247Y-65214285D02*
X44264342Y-65214285D01*
X44264342Y-65214285D02*
X44359580Y-65261904D01*
X44359580Y-65261904D02*
X44407200Y-65309523D01*
X44407200Y-65309523D02*
X44454819Y-65404761D01*
X44454819Y-65404761D02*
X44454819Y-65642856D01*
X44454819Y-65642856D02*
X44407200Y-65738094D01*
X44407200Y-65738094D02*
X44359580Y-65785713D01*
X56333333Y-64454819D02*
X56000000Y-63978628D01*
X55761905Y-64454819D02*
X55761905Y-63454819D01*
X55761905Y-63454819D02*
X56142857Y-63454819D01*
X56142857Y-63454819D02*
X56238095Y-63502438D01*
X56238095Y-63502438D02*
X56285714Y-63550057D01*
X56285714Y-63550057D02*
X56333333Y-63645295D01*
X56333333Y-63645295D02*
X56333333Y-63788152D01*
X56333333Y-63788152D02*
X56285714Y-63883390D01*
X56285714Y-63883390D02*
X56238095Y-63931009D01*
X56238095Y-63931009D02*
X56142857Y-63978628D01*
X56142857Y-63978628D02*
X55761905Y-63978628D01*
X57190476Y-63454819D02*
X57000000Y-63454819D01*
X57000000Y-63454819D02*
X56904762Y-63502438D01*
X56904762Y-63502438D02*
X56857143Y-63550057D01*
X56857143Y-63550057D02*
X56761905Y-63692914D01*
X56761905Y-63692914D02*
X56714286Y-63883390D01*
X56714286Y-63883390D02*
X56714286Y-64264342D01*
X56714286Y-64264342D02*
X56761905Y-64359580D01*
X56761905Y-64359580D02*
X56809524Y-64407200D01*
X56809524Y-64407200D02*
X56904762Y-64454819D01*
X56904762Y-64454819D02*
X57095238Y-64454819D01*
X57095238Y-64454819D02*
X57190476Y-64407200D01*
X57190476Y-64407200D02*
X57238095Y-64359580D01*
X57238095Y-64359580D02*
X57285714Y-64264342D01*
X57285714Y-64264342D02*
X57285714Y-64026247D01*
X57285714Y-64026247D02*
X57238095Y-63931009D01*
X57238095Y-63931009D02*
X57190476Y-63883390D01*
X57190476Y-63883390D02*
X57095238Y-63835771D01*
X57095238Y-63835771D02*
X56904762Y-63835771D01*
X56904762Y-63835771D02*
X56809524Y-63883390D01*
X56809524Y-63883390D02*
X56761905Y-63931009D01*
X56761905Y-63931009D02*
X56714286Y-64026247D01*
X48454819Y-66666666D02*
X47978628Y-66999999D01*
X48454819Y-67238094D02*
X47454819Y-67238094D01*
X47454819Y-67238094D02*
X47454819Y-66857142D01*
X47454819Y-66857142D02*
X47502438Y-66761904D01*
X47502438Y-66761904D02*
X47550057Y-66714285D01*
X47550057Y-66714285D02*
X47645295Y-66666666D01*
X47645295Y-66666666D02*
X47788152Y-66666666D01*
X47788152Y-66666666D02*
X47883390Y-66714285D01*
X47883390Y-66714285D02*
X47931009Y-66761904D01*
X47931009Y-66761904D02*
X47978628Y-66857142D01*
X47978628Y-66857142D02*
X47978628Y-67238094D01*
X47454819Y-66333332D02*
X47454819Y-65666666D01*
X47454819Y-65666666D02*
X48454819Y-66095237D01*
X51793333Y-108454819D02*
X51460000Y-107978628D01*
X51221905Y-108454819D02*
X51221905Y-107454819D01*
X51221905Y-107454819D02*
X51602857Y-107454819D01*
X51602857Y-107454819D02*
X51698095Y-107502438D01*
X51698095Y-107502438D02*
X51745714Y-107550057D01*
X51745714Y-107550057D02*
X51793333Y-107645295D01*
X51793333Y-107645295D02*
X51793333Y-107788152D01*
X51793333Y-107788152D02*
X51745714Y-107883390D01*
X51745714Y-107883390D02*
X51698095Y-107931009D01*
X51698095Y-107931009D02*
X51602857Y-107978628D01*
X51602857Y-107978628D02*
X51221905Y-107978628D01*
X52174286Y-107550057D02*
X52221905Y-107502438D01*
X52221905Y-107502438D02*
X52317143Y-107454819D01*
X52317143Y-107454819D02*
X52555238Y-107454819D01*
X52555238Y-107454819D02*
X52650476Y-107502438D01*
X52650476Y-107502438D02*
X52698095Y-107550057D01*
X52698095Y-107550057D02*
X52745714Y-107645295D01*
X52745714Y-107645295D02*
X52745714Y-107740533D01*
X52745714Y-107740533D02*
X52698095Y-107883390D01*
X52698095Y-107883390D02*
X52126667Y-108454819D01*
X52126667Y-108454819D02*
X52745714Y-108454819D01*
X46954819Y-107706666D02*
X46478628Y-108039999D01*
X46954819Y-108278094D02*
X45954819Y-108278094D01*
X45954819Y-108278094D02*
X45954819Y-107897142D01*
X45954819Y-107897142D02*
X46002438Y-107801904D01*
X46002438Y-107801904D02*
X46050057Y-107754285D01*
X46050057Y-107754285D02*
X46145295Y-107706666D01*
X46145295Y-107706666D02*
X46288152Y-107706666D01*
X46288152Y-107706666D02*
X46383390Y-107754285D01*
X46383390Y-107754285D02*
X46431009Y-107801904D01*
X46431009Y-107801904D02*
X46478628Y-107897142D01*
X46478628Y-107897142D02*
X46478628Y-108278094D01*
X46288152Y-106849523D02*
X46954819Y-106849523D01*
X45907200Y-107087618D02*
X46621485Y-107325713D01*
X46621485Y-107325713D02*
X46621485Y-106706666D01*
X69454819Y-66666666D02*
X68978628Y-66999999D01*
X69454819Y-67238094D02*
X68454819Y-67238094D01*
X68454819Y-67238094D02*
X68454819Y-66857142D01*
X68454819Y-66857142D02*
X68502438Y-66761904D01*
X68502438Y-66761904D02*
X68550057Y-66714285D01*
X68550057Y-66714285D02*
X68645295Y-66666666D01*
X68645295Y-66666666D02*
X68788152Y-66666666D01*
X68788152Y-66666666D02*
X68883390Y-66714285D01*
X68883390Y-66714285D02*
X68931009Y-66761904D01*
X68931009Y-66761904D02*
X68978628Y-66857142D01*
X68978628Y-66857142D02*
X68978628Y-67238094D01*
X68883390Y-66095237D02*
X68835771Y-66190475D01*
X68835771Y-66190475D02*
X68788152Y-66238094D01*
X68788152Y-66238094D02*
X68692914Y-66285713D01*
X68692914Y-66285713D02*
X68645295Y-66285713D01*
X68645295Y-66285713D02*
X68550057Y-66238094D01*
X68550057Y-66238094D02*
X68502438Y-66190475D01*
X68502438Y-66190475D02*
X68454819Y-66095237D01*
X68454819Y-66095237D02*
X68454819Y-65904761D01*
X68454819Y-65904761D02*
X68502438Y-65809523D01*
X68502438Y-65809523D02*
X68550057Y-65761904D01*
X68550057Y-65761904D02*
X68645295Y-65714285D01*
X68645295Y-65714285D02*
X68692914Y-65714285D01*
X68692914Y-65714285D02*
X68788152Y-65761904D01*
X68788152Y-65761904D02*
X68835771Y-65809523D01*
X68835771Y-65809523D02*
X68883390Y-65904761D01*
X68883390Y-65904761D02*
X68883390Y-66095237D01*
X68883390Y-66095237D02*
X68931009Y-66190475D01*
X68931009Y-66190475D02*
X68978628Y-66238094D01*
X68978628Y-66238094D02*
X69073866Y-66285713D01*
X69073866Y-66285713D02*
X69264342Y-66285713D01*
X69264342Y-66285713D02*
X69359580Y-66238094D01*
X69359580Y-66238094D02*
X69407200Y-66190475D01*
X69407200Y-66190475D02*
X69454819Y-66095237D01*
X69454819Y-66095237D02*
X69454819Y-65904761D01*
X69454819Y-65904761D02*
X69407200Y-65809523D01*
X69407200Y-65809523D02*
X69359580Y-65761904D01*
X69359580Y-65761904D02*
X69264342Y-65714285D01*
X69264342Y-65714285D02*
X69073866Y-65714285D01*
X69073866Y-65714285D02*
X68978628Y-65761904D01*
X68978628Y-65761904D02*
X68931009Y-65809523D01*
X68931009Y-65809523D02*
X68883390Y-65904761D01*
X46793333Y-91454819D02*
X46460000Y-90978628D01*
X46221905Y-91454819D02*
X46221905Y-90454819D01*
X46221905Y-90454819D02*
X46602857Y-90454819D01*
X46602857Y-90454819D02*
X46698095Y-90502438D01*
X46698095Y-90502438D02*
X46745714Y-90550057D01*
X46745714Y-90550057D02*
X46793333Y-90645295D01*
X46793333Y-90645295D02*
X46793333Y-90788152D01*
X46793333Y-90788152D02*
X46745714Y-90883390D01*
X46745714Y-90883390D02*
X46698095Y-90931009D01*
X46698095Y-90931009D02*
X46602857Y-90978628D01*
X46602857Y-90978628D02*
X46221905Y-90978628D01*
X47269524Y-91454819D02*
X47460000Y-91454819D01*
X47460000Y-91454819D02*
X47555238Y-91407200D01*
X47555238Y-91407200D02*
X47602857Y-91359580D01*
X47602857Y-91359580D02*
X47698095Y-91216723D01*
X47698095Y-91216723D02*
X47745714Y-91026247D01*
X47745714Y-91026247D02*
X47745714Y-90645295D01*
X47745714Y-90645295D02*
X47698095Y-90550057D01*
X47698095Y-90550057D02*
X47650476Y-90502438D01*
X47650476Y-90502438D02*
X47555238Y-90454819D01*
X47555238Y-90454819D02*
X47364762Y-90454819D01*
X47364762Y-90454819D02*
X47269524Y-90502438D01*
X47269524Y-90502438D02*
X47221905Y-90550057D01*
X47221905Y-90550057D02*
X47174286Y-90645295D01*
X47174286Y-90645295D02*
X47174286Y-90883390D01*
X47174286Y-90883390D02*
X47221905Y-90978628D01*
X47221905Y-90978628D02*
X47269524Y-91026247D01*
X47269524Y-91026247D02*
X47364762Y-91073866D01*
X47364762Y-91073866D02*
X47555238Y-91073866D01*
X47555238Y-91073866D02*
X47650476Y-91026247D01*
X47650476Y-91026247D02*
X47698095Y-90978628D01*
X47698095Y-90978628D02*
X47745714Y-90883390D01*
X59357142Y-108454819D02*
X59023809Y-107978628D01*
X58785714Y-108454819D02*
X58785714Y-107454819D01*
X58785714Y-107454819D02*
X59166666Y-107454819D01*
X59166666Y-107454819D02*
X59261904Y-107502438D01*
X59261904Y-107502438D02*
X59309523Y-107550057D01*
X59309523Y-107550057D02*
X59357142Y-107645295D01*
X59357142Y-107645295D02*
X59357142Y-107788152D01*
X59357142Y-107788152D02*
X59309523Y-107883390D01*
X59309523Y-107883390D02*
X59261904Y-107931009D01*
X59261904Y-107931009D02*
X59166666Y-107978628D01*
X59166666Y-107978628D02*
X58785714Y-107978628D01*
X60309523Y-108454819D02*
X59738095Y-108454819D01*
X60023809Y-108454819D02*
X60023809Y-107454819D01*
X60023809Y-107454819D02*
X59928571Y-107597676D01*
X59928571Y-107597676D02*
X59833333Y-107692914D01*
X59833333Y-107692914D02*
X59738095Y-107740533D01*
X60928571Y-107454819D02*
X61023809Y-107454819D01*
X61023809Y-107454819D02*
X61119047Y-107502438D01*
X61119047Y-107502438D02*
X61166666Y-107550057D01*
X61166666Y-107550057D02*
X61214285Y-107645295D01*
X61214285Y-107645295D02*
X61261904Y-107835771D01*
X61261904Y-107835771D02*
X61261904Y-108073866D01*
X61261904Y-108073866D02*
X61214285Y-108264342D01*
X61214285Y-108264342D02*
X61166666Y-108359580D01*
X61166666Y-108359580D02*
X61119047Y-108407200D01*
X61119047Y-108407200D02*
X61023809Y-108454819D01*
X61023809Y-108454819D02*
X60928571Y-108454819D01*
X60928571Y-108454819D02*
X60833333Y-108407200D01*
X60833333Y-108407200D02*
X60785714Y-108359580D01*
X60785714Y-108359580D02*
X60738095Y-108264342D01*
X60738095Y-108264342D02*
X60690476Y-108073866D01*
X60690476Y-108073866D02*
X60690476Y-107835771D01*
X60690476Y-107835771D02*
X60738095Y-107645295D01*
X60738095Y-107645295D02*
X60785714Y-107550057D01*
X60785714Y-107550057D02*
X60833333Y-107502438D01*
X60833333Y-107502438D02*
X60928571Y-107454819D01*
X49571905Y-102454819D02*
X49571905Y-101454819D01*
X49571905Y-101454819D02*
X49810000Y-101454819D01*
X49810000Y-101454819D02*
X49952857Y-101502438D01*
X49952857Y-101502438D02*
X50048095Y-101597676D01*
X50048095Y-101597676D02*
X50095714Y-101692914D01*
X50095714Y-101692914D02*
X50143333Y-101883390D01*
X50143333Y-101883390D02*
X50143333Y-102026247D01*
X50143333Y-102026247D02*
X50095714Y-102216723D01*
X50095714Y-102216723D02*
X50048095Y-102311961D01*
X50048095Y-102311961D02*
X49952857Y-102407200D01*
X49952857Y-102407200D02*
X49810000Y-102454819D01*
X49810000Y-102454819D02*
X49571905Y-102454819D01*
X50524286Y-101550057D02*
X50571905Y-101502438D01*
X50571905Y-101502438D02*
X50667143Y-101454819D01*
X50667143Y-101454819D02*
X50905238Y-101454819D01*
X50905238Y-101454819D02*
X51000476Y-101502438D01*
X51000476Y-101502438D02*
X51048095Y-101550057D01*
X51048095Y-101550057D02*
X51095714Y-101645295D01*
X51095714Y-101645295D02*
X51095714Y-101740533D01*
X51095714Y-101740533D02*
X51048095Y-101883390D01*
X51048095Y-101883390D02*
X50476667Y-102454819D01*
X50476667Y-102454819D02*
X51095714Y-102454819D01*
X46238095Y-100654819D02*
X46238095Y-99654819D01*
X46809523Y-100654819D02*
X46380952Y-100083390D01*
X46809523Y-99654819D02*
X46238095Y-100226247D01*
X62071905Y-102454819D02*
X62071905Y-101454819D01*
X62071905Y-101454819D02*
X62310000Y-101454819D01*
X62310000Y-101454819D02*
X62452857Y-101502438D01*
X62452857Y-101502438D02*
X62548095Y-101597676D01*
X62548095Y-101597676D02*
X62595714Y-101692914D01*
X62595714Y-101692914D02*
X62643333Y-101883390D01*
X62643333Y-101883390D02*
X62643333Y-102026247D01*
X62643333Y-102026247D02*
X62595714Y-102216723D01*
X62595714Y-102216723D02*
X62548095Y-102311961D01*
X62548095Y-102311961D02*
X62452857Y-102407200D01*
X62452857Y-102407200D02*
X62310000Y-102454819D01*
X62310000Y-102454819D02*
X62071905Y-102454819D01*
X62976667Y-101454819D02*
X63595714Y-101454819D01*
X63595714Y-101454819D02*
X63262381Y-101835771D01*
X63262381Y-101835771D02*
X63405238Y-101835771D01*
X63405238Y-101835771D02*
X63500476Y-101883390D01*
X63500476Y-101883390D02*
X63548095Y-101931009D01*
X63548095Y-101931009D02*
X63595714Y-102026247D01*
X63595714Y-102026247D02*
X63595714Y-102264342D01*
X63595714Y-102264342D02*
X63548095Y-102359580D01*
X63548095Y-102359580D02*
X63500476Y-102407200D01*
X63500476Y-102407200D02*
X63405238Y-102454819D01*
X63405238Y-102454819D02*
X63119524Y-102454819D01*
X63119524Y-102454819D02*
X63024286Y-102407200D01*
X63024286Y-102407200D02*
X62976667Y-102359580D01*
X58738095Y-100654819D02*
X58738095Y-99654819D01*
X59309523Y-100654819D02*
X58880952Y-100083390D01*
X59309523Y-99654819D02*
X58738095Y-100226247D01*
X66954819Y-107166666D02*
X66478628Y-107499999D01*
X66954819Y-107738094D02*
X65954819Y-107738094D01*
X65954819Y-107738094D02*
X65954819Y-107357142D01*
X65954819Y-107357142D02*
X66002438Y-107261904D01*
X66002438Y-107261904D02*
X66050057Y-107214285D01*
X66050057Y-107214285D02*
X66145295Y-107166666D01*
X66145295Y-107166666D02*
X66288152Y-107166666D01*
X66288152Y-107166666D02*
X66383390Y-107214285D01*
X66383390Y-107214285D02*
X66431009Y-107261904D01*
X66431009Y-107261904D02*
X66478628Y-107357142D01*
X66478628Y-107357142D02*
X66478628Y-107738094D01*
X65954819Y-106833332D02*
X65954819Y-106214285D01*
X65954819Y-106214285D02*
X66335771Y-106547618D01*
X66335771Y-106547618D02*
X66335771Y-106404761D01*
X66335771Y-106404761D02*
X66383390Y-106309523D01*
X66383390Y-106309523D02*
X66431009Y-106261904D01*
X66431009Y-106261904D02*
X66526247Y-106214285D01*
X66526247Y-106214285D02*
X66764342Y-106214285D01*
X66764342Y-106214285D02*
X66859580Y-106261904D01*
X66859580Y-106261904D02*
X66907200Y-106309523D01*
X66907200Y-106309523D02*
X66954819Y-106404761D01*
X66954819Y-106404761D02*
X66954819Y-106690475D01*
X66954819Y-106690475D02*
X66907200Y-106785713D01*
X66907200Y-106785713D02*
X66859580Y-106833332D01*
X64897142Y-91454819D02*
X64563809Y-90978628D01*
X64325714Y-91454819D02*
X64325714Y-90454819D01*
X64325714Y-90454819D02*
X64706666Y-90454819D01*
X64706666Y-90454819D02*
X64801904Y-90502438D01*
X64801904Y-90502438D02*
X64849523Y-90550057D01*
X64849523Y-90550057D02*
X64897142Y-90645295D01*
X64897142Y-90645295D02*
X64897142Y-90788152D01*
X64897142Y-90788152D02*
X64849523Y-90883390D01*
X64849523Y-90883390D02*
X64801904Y-90931009D01*
X64801904Y-90931009D02*
X64706666Y-90978628D01*
X64706666Y-90978628D02*
X64325714Y-90978628D01*
X65849523Y-91454819D02*
X65278095Y-91454819D01*
X65563809Y-91454819D02*
X65563809Y-90454819D01*
X65563809Y-90454819D02*
X65468571Y-90597676D01*
X65468571Y-90597676D02*
X65373333Y-90692914D01*
X65373333Y-90692914D02*
X65278095Y-90740533D01*
X66230476Y-90550057D02*
X66278095Y-90502438D01*
X66278095Y-90502438D02*
X66373333Y-90454819D01*
X66373333Y-90454819D02*
X66611428Y-90454819D01*
X66611428Y-90454819D02*
X66706666Y-90502438D01*
X66706666Y-90502438D02*
X66754285Y-90550057D01*
X66754285Y-90550057D02*
X66801904Y-90645295D01*
X66801904Y-90645295D02*
X66801904Y-90740533D01*
X66801904Y-90740533D02*
X66754285Y-90883390D01*
X66754285Y-90883390D02*
X66182857Y-91454819D01*
X66182857Y-91454819D02*
X66801904Y-91454819D01*
X55954819Y-84102857D02*
X55478628Y-84436190D01*
X55954819Y-84674285D02*
X54954819Y-84674285D01*
X54954819Y-84674285D02*
X54954819Y-84293333D01*
X54954819Y-84293333D02*
X55002438Y-84198095D01*
X55002438Y-84198095D02*
X55050057Y-84150476D01*
X55050057Y-84150476D02*
X55145295Y-84102857D01*
X55145295Y-84102857D02*
X55288152Y-84102857D01*
X55288152Y-84102857D02*
X55383390Y-84150476D01*
X55383390Y-84150476D02*
X55431009Y-84198095D01*
X55431009Y-84198095D02*
X55478628Y-84293333D01*
X55478628Y-84293333D02*
X55478628Y-84674285D01*
X55954819Y-83150476D02*
X55954819Y-83721904D01*
X55954819Y-83436190D02*
X54954819Y-83436190D01*
X54954819Y-83436190D02*
X55097676Y-83531428D01*
X55097676Y-83531428D02*
X55192914Y-83626666D01*
X55192914Y-83626666D02*
X55240533Y-83721904D01*
X54954819Y-82817142D02*
X54954819Y-82198095D01*
X54954819Y-82198095D02*
X55335771Y-82531428D01*
X55335771Y-82531428D02*
X55335771Y-82388571D01*
X55335771Y-82388571D02*
X55383390Y-82293333D01*
X55383390Y-82293333D02*
X55431009Y-82245714D01*
X55431009Y-82245714D02*
X55526247Y-82198095D01*
X55526247Y-82198095D02*
X55764342Y-82198095D01*
X55764342Y-82198095D02*
X55859580Y-82245714D01*
X55859580Y-82245714D02*
X55907200Y-82293333D01*
X55907200Y-82293333D02*
X55954819Y-82388571D01*
X55954819Y-82388571D02*
X55954819Y-82674285D01*
X55954819Y-82674285D02*
X55907200Y-82769523D01*
X55907200Y-82769523D02*
X55859580Y-82817142D01*
X43359580Y-83416666D02*
X43407200Y-83464285D01*
X43407200Y-83464285D02*
X43454819Y-83607142D01*
X43454819Y-83607142D02*
X43454819Y-83702380D01*
X43454819Y-83702380D02*
X43407200Y-83845237D01*
X43407200Y-83845237D02*
X43311961Y-83940475D01*
X43311961Y-83940475D02*
X43216723Y-83988094D01*
X43216723Y-83988094D02*
X43026247Y-84035713D01*
X43026247Y-84035713D02*
X42883390Y-84035713D01*
X42883390Y-84035713D02*
X42692914Y-83988094D01*
X42692914Y-83988094D02*
X42597676Y-83940475D01*
X42597676Y-83940475D02*
X42502438Y-83845237D01*
X42502438Y-83845237D02*
X42454819Y-83702380D01*
X42454819Y-83702380D02*
X42454819Y-83607142D01*
X42454819Y-83607142D02*
X42502438Y-83464285D01*
X42502438Y-83464285D02*
X42550057Y-83416666D01*
X42454819Y-82559523D02*
X42454819Y-82749999D01*
X42454819Y-82749999D02*
X42502438Y-82845237D01*
X42502438Y-82845237D02*
X42550057Y-82892856D01*
X42550057Y-82892856D02*
X42692914Y-82988094D01*
X42692914Y-82988094D02*
X42883390Y-83035713D01*
X42883390Y-83035713D02*
X43264342Y-83035713D01*
X43264342Y-83035713D02*
X43359580Y-82988094D01*
X43359580Y-82988094D02*
X43407200Y-82940475D01*
X43407200Y-82940475D02*
X43454819Y-82845237D01*
X43454819Y-82845237D02*
X43454819Y-82654761D01*
X43454819Y-82654761D02*
X43407200Y-82559523D01*
X43407200Y-82559523D02*
X43359580Y-82511904D01*
X43359580Y-82511904D02*
X43264342Y-82464285D01*
X43264342Y-82464285D02*
X43026247Y-82464285D01*
X43026247Y-82464285D02*
X42931009Y-82511904D01*
X42931009Y-82511904D02*
X42883390Y-82559523D01*
X42883390Y-82559523D02*
X42835771Y-82654761D01*
X42835771Y-82654761D02*
X42835771Y-82845237D01*
X42835771Y-82845237D02*
X42883390Y-82940475D01*
X42883390Y-82940475D02*
X42931009Y-82988094D01*
X42931009Y-82988094D02*
X43026247Y-83035713D01*
X62609580Y-83416666D02*
X62657200Y-83464285D01*
X62657200Y-83464285D02*
X62704819Y-83607142D01*
X62704819Y-83607142D02*
X62704819Y-83702380D01*
X62704819Y-83702380D02*
X62657200Y-83845237D01*
X62657200Y-83845237D02*
X62561961Y-83940475D01*
X62561961Y-83940475D02*
X62466723Y-83988094D01*
X62466723Y-83988094D02*
X62276247Y-84035713D01*
X62276247Y-84035713D02*
X62133390Y-84035713D01*
X62133390Y-84035713D02*
X61942914Y-83988094D01*
X61942914Y-83988094D02*
X61847676Y-83940475D01*
X61847676Y-83940475D02*
X61752438Y-83845237D01*
X61752438Y-83845237D02*
X61704819Y-83702380D01*
X61704819Y-83702380D02*
X61704819Y-83607142D01*
X61704819Y-83607142D02*
X61752438Y-83464285D01*
X61752438Y-83464285D02*
X61800057Y-83416666D01*
X62704819Y-82940475D02*
X62704819Y-82749999D01*
X62704819Y-82749999D02*
X62657200Y-82654761D01*
X62657200Y-82654761D02*
X62609580Y-82607142D01*
X62609580Y-82607142D02*
X62466723Y-82511904D01*
X62466723Y-82511904D02*
X62276247Y-82464285D01*
X62276247Y-82464285D02*
X61895295Y-82464285D01*
X61895295Y-82464285D02*
X61800057Y-82511904D01*
X61800057Y-82511904D02*
X61752438Y-82559523D01*
X61752438Y-82559523D02*
X61704819Y-82654761D01*
X61704819Y-82654761D02*
X61704819Y-82845237D01*
X61704819Y-82845237D02*
X61752438Y-82940475D01*
X61752438Y-82940475D02*
X61800057Y-82988094D01*
X61800057Y-82988094D02*
X61895295Y-83035713D01*
X61895295Y-83035713D02*
X62133390Y-83035713D01*
X62133390Y-83035713D02*
X62228628Y-82988094D01*
X62228628Y-82988094D02*
X62276247Y-82940475D01*
X62276247Y-82940475D02*
X62323866Y-82845237D01*
X62323866Y-82845237D02*
X62323866Y-82654761D01*
X62323866Y-82654761D02*
X62276247Y-82559523D01*
X62276247Y-82559523D02*
X62228628Y-82511904D01*
X62228628Y-82511904D02*
X62133390Y-82464285D01*
X47083333Y-69609580D02*
X47035714Y-69657200D01*
X47035714Y-69657200D02*
X46892857Y-69704819D01*
X46892857Y-69704819D02*
X46797619Y-69704819D01*
X46797619Y-69704819D02*
X46654762Y-69657200D01*
X46654762Y-69657200D02*
X46559524Y-69561961D01*
X46559524Y-69561961D02*
X46511905Y-69466723D01*
X46511905Y-69466723D02*
X46464286Y-69276247D01*
X46464286Y-69276247D02*
X46464286Y-69133390D01*
X46464286Y-69133390D02*
X46511905Y-68942914D01*
X46511905Y-68942914D02*
X46559524Y-68847676D01*
X46559524Y-68847676D02*
X46654762Y-68752438D01*
X46654762Y-68752438D02*
X46797619Y-68704819D01*
X46797619Y-68704819D02*
X46892857Y-68704819D01*
X46892857Y-68704819D02*
X47035714Y-68752438D01*
X47035714Y-68752438D02*
X47083333Y-68800057D01*
X47416667Y-68704819D02*
X48083333Y-68704819D01*
X48083333Y-68704819D02*
X47654762Y-69704819D01*
X57107142Y-69609580D02*
X57059523Y-69657200D01*
X57059523Y-69657200D02*
X56916666Y-69704819D01*
X56916666Y-69704819D02*
X56821428Y-69704819D01*
X56821428Y-69704819D02*
X56678571Y-69657200D01*
X56678571Y-69657200D02*
X56583333Y-69561961D01*
X56583333Y-69561961D02*
X56535714Y-69466723D01*
X56535714Y-69466723D02*
X56488095Y-69276247D01*
X56488095Y-69276247D02*
X56488095Y-69133390D01*
X56488095Y-69133390D02*
X56535714Y-68942914D01*
X56535714Y-68942914D02*
X56583333Y-68847676D01*
X56583333Y-68847676D02*
X56678571Y-68752438D01*
X56678571Y-68752438D02*
X56821428Y-68704819D01*
X56821428Y-68704819D02*
X56916666Y-68704819D01*
X56916666Y-68704819D02*
X57059523Y-68752438D01*
X57059523Y-68752438D02*
X57107142Y-68800057D01*
X58059523Y-69704819D02*
X57488095Y-69704819D01*
X57773809Y-69704819D02*
X57773809Y-68704819D01*
X57773809Y-68704819D02*
X57678571Y-68847676D01*
X57678571Y-68847676D02*
X57583333Y-68942914D01*
X57583333Y-68942914D02*
X57488095Y-68990533D01*
X58678571Y-68704819D02*
X58773809Y-68704819D01*
X58773809Y-68704819D02*
X58869047Y-68752438D01*
X58869047Y-68752438D02*
X58916666Y-68800057D01*
X58916666Y-68800057D02*
X58964285Y-68895295D01*
X58964285Y-68895295D02*
X59011904Y-69085771D01*
X59011904Y-69085771D02*
X59011904Y-69323866D01*
X59011904Y-69323866D02*
X58964285Y-69514342D01*
X58964285Y-69514342D02*
X58916666Y-69609580D01*
X58916666Y-69609580D02*
X58869047Y-69657200D01*
X58869047Y-69657200D02*
X58773809Y-69704819D01*
X58773809Y-69704819D02*
X58678571Y-69704819D01*
X58678571Y-69704819D02*
X58583333Y-69657200D01*
X58583333Y-69657200D02*
X58535714Y-69609580D01*
X58535714Y-69609580D02*
X58488095Y-69514342D01*
X58488095Y-69514342D02*
X58440476Y-69323866D01*
X58440476Y-69323866D02*
X58440476Y-69085771D01*
X58440476Y-69085771D02*
X58488095Y-68895295D01*
X58488095Y-68895295D02*
X58535714Y-68800057D01*
X58535714Y-68800057D02*
X58583333Y-68752438D01*
X58583333Y-68752438D02*
X58678571Y-68704819D01*
X53166666Y-88894819D02*
X53166666Y-89609104D01*
X53166666Y-89609104D02*
X53119047Y-89751961D01*
X53119047Y-89751961D02*
X53023809Y-89847200D01*
X53023809Y-89847200D02*
X52880952Y-89894819D01*
X52880952Y-89894819D02*
X52785714Y-89894819D01*
X53547619Y-88894819D02*
X54166666Y-88894819D01*
X54166666Y-88894819D02*
X53833333Y-89275771D01*
X53833333Y-89275771D02*
X53976190Y-89275771D01*
X53976190Y-89275771D02*
X54071428Y-89323390D01*
X54071428Y-89323390D02*
X54119047Y-89371009D01*
X54119047Y-89371009D02*
X54166666Y-89466247D01*
X54166666Y-89466247D02*
X54166666Y-89704342D01*
X54166666Y-89704342D02*
X54119047Y-89799580D01*
X54119047Y-89799580D02*
X54071428Y-89847200D01*
X54071428Y-89847200D02*
X53976190Y-89894819D01*
X53976190Y-89894819D02*
X53690476Y-89894819D01*
X53690476Y-89894819D02*
X53595238Y-89847200D01*
X53595238Y-89847200D02*
X53547619Y-89799580D01*
X86666666Y-87894819D02*
X86666666Y-88609104D01*
X86666666Y-88609104D02*
X86619047Y-88751961D01*
X86619047Y-88751961D02*
X86523809Y-88847200D01*
X86523809Y-88847200D02*
X86380952Y-88894819D01*
X86380952Y-88894819D02*
X86285714Y-88894819D01*
X87571428Y-87894819D02*
X87380952Y-87894819D01*
X87380952Y-87894819D02*
X87285714Y-87942438D01*
X87285714Y-87942438D02*
X87238095Y-87990057D01*
X87238095Y-87990057D02*
X87142857Y-88132914D01*
X87142857Y-88132914D02*
X87095238Y-88323390D01*
X87095238Y-88323390D02*
X87095238Y-88704342D01*
X87095238Y-88704342D02*
X87142857Y-88799580D01*
X87142857Y-88799580D02*
X87190476Y-88847200D01*
X87190476Y-88847200D02*
X87285714Y-88894819D01*
X87285714Y-88894819D02*
X87476190Y-88894819D01*
X87476190Y-88894819D02*
X87571428Y-88847200D01*
X87571428Y-88847200D02*
X87619047Y-88799580D01*
X87619047Y-88799580D02*
X87666666Y-88704342D01*
X87666666Y-88704342D02*
X87666666Y-88466247D01*
X87666666Y-88466247D02*
X87619047Y-88371009D01*
X87619047Y-88371009D02*
X87571428Y-88323390D01*
X87571428Y-88323390D02*
X87476190Y-88275771D01*
X87476190Y-88275771D02*
X87285714Y-88275771D01*
X87285714Y-88275771D02*
X87190476Y-88323390D01*
X87190476Y-88323390D02*
X87142857Y-88371009D01*
X87142857Y-88371009D02*
X87095238Y-88466247D01*
X95374819Y-107102857D02*
X94898628Y-107436190D01*
X95374819Y-107674285D02*
X94374819Y-107674285D01*
X94374819Y-107674285D02*
X94374819Y-107293333D01*
X94374819Y-107293333D02*
X94422438Y-107198095D01*
X94422438Y-107198095D02*
X94470057Y-107150476D01*
X94470057Y-107150476D02*
X94565295Y-107102857D01*
X94565295Y-107102857D02*
X94708152Y-107102857D01*
X94708152Y-107102857D02*
X94803390Y-107150476D01*
X94803390Y-107150476D02*
X94851009Y-107198095D01*
X94851009Y-107198095D02*
X94898628Y-107293333D01*
X94898628Y-107293333D02*
X94898628Y-107674285D01*
X95374819Y-106150476D02*
X95374819Y-106721904D01*
X95374819Y-106436190D02*
X94374819Y-106436190D01*
X94374819Y-106436190D02*
X94517676Y-106531428D01*
X94517676Y-106531428D02*
X94612914Y-106626666D01*
X94612914Y-106626666D02*
X94660533Y-106721904D01*
X94708152Y-105293333D02*
X95374819Y-105293333D01*
X94327200Y-105531428D02*
X95041485Y-105769523D01*
X95041485Y-105769523D02*
X95041485Y-105150476D01*
X72359580Y-58892857D02*
X72407200Y-58940476D01*
X72407200Y-58940476D02*
X72454819Y-59083333D01*
X72454819Y-59083333D02*
X72454819Y-59178571D01*
X72454819Y-59178571D02*
X72407200Y-59321428D01*
X72407200Y-59321428D02*
X72311961Y-59416666D01*
X72311961Y-59416666D02*
X72216723Y-59464285D01*
X72216723Y-59464285D02*
X72026247Y-59511904D01*
X72026247Y-59511904D02*
X71883390Y-59511904D01*
X71883390Y-59511904D02*
X71692914Y-59464285D01*
X71692914Y-59464285D02*
X71597676Y-59416666D01*
X71597676Y-59416666D02*
X71502438Y-59321428D01*
X71502438Y-59321428D02*
X71454819Y-59178571D01*
X71454819Y-59178571D02*
X71454819Y-59083333D01*
X71454819Y-59083333D02*
X71502438Y-58940476D01*
X71502438Y-58940476D02*
X71550057Y-58892857D01*
X72454819Y-57940476D02*
X72454819Y-58511904D01*
X72454819Y-58226190D02*
X71454819Y-58226190D01*
X71454819Y-58226190D02*
X71597676Y-58321428D01*
X71597676Y-58321428D02*
X71692914Y-58416666D01*
X71692914Y-58416666D02*
X71740533Y-58511904D01*
X72454819Y-57464285D02*
X72454819Y-57273809D01*
X72454819Y-57273809D02*
X72407200Y-57178571D01*
X72407200Y-57178571D02*
X72359580Y-57130952D01*
X72359580Y-57130952D02*
X72216723Y-57035714D01*
X72216723Y-57035714D02*
X72026247Y-56988095D01*
X72026247Y-56988095D02*
X71645295Y-56988095D01*
X71645295Y-56988095D02*
X71550057Y-57035714D01*
X71550057Y-57035714D02*
X71502438Y-57083333D01*
X71502438Y-57083333D02*
X71454819Y-57178571D01*
X71454819Y-57178571D02*
X71454819Y-57369047D01*
X71454819Y-57369047D02*
X71502438Y-57464285D01*
X71502438Y-57464285D02*
X71550057Y-57511904D01*
X71550057Y-57511904D02*
X71645295Y-57559523D01*
X71645295Y-57559523D02*
X71883390Y-57559523D01*
X71883390Y-57559523D02*
X71978628Y-57511904D01*
X71978628Y-57511904D02*
X72026247Y-57464285D01*
X72026247Y-57464285D02*
X72073866Y-57369047D01*
X72073866Y-57369047D02*
X72073866Y-57178571D01*
X72073866Y-57178571D02*
X72026247Y-57083333D01*
X72026247Y-57083333D02*
X71978628Y-57035714D01*
X71978628Y-57035714D02*
X71883390Y-56988095D01*
X72690476Y-115704819D02*
X72690476Y-116419104D01*
X72690476Y-116419104D02*
X72642857Y-116561961D01*
X72642857Y-116561961D02*
X72547619Y-116657200D01*
X72547619Y-116657200D02*
X72404762Y-116704819D01*
X72404762Y-116704819D02*
X72309524Y-116704819D01*
X73690476Y-116704819D02*
X73119048Y-116704819D01*
X73404762Y-116704819D02*
X73404762Y-115704819D01*
X73404762Y-115704819D02*
X73309524Y-115847676D01*
X73309524Y-115847676D02*
X73214286Y-115942914D01*
X73214286Y-115942914D02*
X73119048Y-115990533D01*
X74023810Y-115704819D02*
X74690476Y-115704819D01*
X74690476Y-115704819D02*
X74261905Y-116704819D01*
X93857142Y-89534819D02*
X93523809Y-89058628D01*
X93285714Y-89534819D02*
X93285714Y-88534819D01*
X93285714Y-88534819D02*
X93666666Y-88534819D01*
X93666666Y-88534819D02*
X93761904Y-88582438D01*
X93761904Y-88582438D02*
X93809523Y-88630057D01*
X93809523Y-88630057D02*
X93857142Y-88725295D01*
X93857142Y-88725295D02*
X93857142Y-88868152D01*
X93857142Y-88868152D02*
X93809523Y-88963390D01*
X93809523Y-88963390D02*
X93761904Y-89011009D01*
X93761904Y-89011009D02*
X93666666Y-89058628D01*
X93666666Y-89058628D02*
X93285714Y-89058628D01*
X94238095Y-88630057D02*
X94285714Y-88582438D01*
X94285714Y-88582438D02*
X94380952Y-88534819D01*
X94380952Y-88534819D02*
X94619047Y-88534819D01*
X94619047Y-88534819D02*
X94714285Y-88582438D01*
X94714285Y-88582438D02*
X94761904Y-88630057D01*
X94761904Y-88630057D02*
X94809523Y-88725295D01*
X94809523Y-88725295D02*
X94809523Y-88820533D01*
X94809523Y-88820533D02*
X94761904Y-88963390D01*
X94761904Y-88963390D02*
X94190476Y-89534819D01*
X94190476Y-89534819D02*
X94809523Y-89534819D01*
X95428571Y-88534819D02*
X95523809Y-88534819D01*
X95523809Y-88534819D02*
X95619047Y-88582438D01*
X95619047Y-88582438D02*
X95666666Y-88630057D01*
X95666666Y-88630057D02*
X95714285Y-88725295D01*
X95714285Y-88725295D02*
X95761904Y-88915771D01*
X95761904Y-88915771D02*
X95761904Y-89153866D01*
X95761904Y-89153866D02*
X95714285Y-89344342D01*
X95714285Y-89344342D02*
X95666666Y-89439580D01*
X95666666Y-89439580D02*
X95619047Y-89487200D01*
X95619047Y-89487200D02*
X95523809Y-89534819D01*
X95523809Y-89534819D02*
X95428571Y-89534819D01*
X95428571Y-89534819D02*
X95333333Y-89487200D01*
X95333333Y-89487200D02*
X95285714Y-89439580D01*
X95285714Y-89439580D02*
X95238095Y-89344342D01*
X95238095Y-89344342D02*
X95190476Y-89153866D01*
X95190476Y-89153866D02*
X95190476Y-88915771D01*
X95190476Y-88915771D02*
X95238095Y-88725295D01*
X95238095Y-88725295D02*
X95285714Y-88630057D01*
X95285714Y-88630057D02*
X95333333Y-88582438D01*
X95333333Y-88582438D02*
X95428571Y-88534819D01*
X70713095Y-71944819D02*
X70713095Y-72754342D01*
X70713095Y-72754342D02*
X70760714Y-72849580D01*
X70760714Y-72849580D02*
X70808333Y-72897200D01*
X70808333Y-72897200D02*
X70903571Y-72944819D01*
X70903571Y-72944819D02*
X71094047Y-72944819D01*
X71094047Y-72944819D02*
X71189285Y-72897200D01*
X71189285Y-72897200D02*
X71236904Y-72849580D01*
X71236904Y-72849580D02*
X71284523Y-72754342D01*
X71284523Y-72754342D02*
X71284523Y-71944819D01*
X71713095Y-72040057D02*
X71760714Y-71992438D01*
X71760714Y-71992438D02*
X71855952Y-71944819D01*
X71855952Y-71944819D02*
X72094047Y-71944819D01*
X72094047Y-71944819D02*
X72189285Y-71992438D01*
X72189285Y-71992438D02*
X72236904Y-72040057D01*
X72236904Y-72040057D02*
X72284523Y-72135295D01*
X72284523Y-72135295D02*
X72284523Y-72230533D01*
X72284523Y-72230533D02*
X72236904Y-72373390D01*
X72236904Y-72373390D02*
X71665476Y-72944819D01*
X71665476Y-72944819D02*
X72284523Y-72944819D01*
X87951905Y-96294819D02*
X87951905Y-95294819D01*
X87951905Y-95294819D02*
X88190000Y-95294819D01*
X88190000Y-95294819D02*
X88332857Y-95342438D01*
X88332857Y-95342438D02*
X88428095Y-95437676D01*
X88428095Y-95437676D02*
X88475714Y-95532914D01*
X88475714Y-95532914D02*
X88523333Y-95723390D01*
X88523333Y-95723390D02*
X88523333Y-95866247D01*
X88523333Y-95866247D02*
X88475714Y-96056723D01*
X88475714Y-96056723D02*
X88428095Y-96151961D01*
X88428095Y-96151961D02*
X88332857Y-96247200D01*
X88332857Y-96247200D02*
X88190000Y-96294819D01*
X88190000Y-96294819D02*
X87951905Y-96294819D01*
X88999524Y-96294819D02*
X89190000Y-96294819D01*
X89190000Y-96294819D02*
X89285238Y-96247200D01*
X89285238Y-96247200D02*
X89332857Y-96199580D01*
X89332857Y-96199580D02*
X89428095Y-96056723D01*
X89428095Y-96056723D02*
X89475714Y-95866247D01*
X89475714Y-95866247D02*
X89475714Y-95485295D01*
X89475714Y-95485295D02*
X89428095Y-95390057D01*
X89428095Y-95390057D02*
X89380476Y-95342438D01*
X89380476Y-95342438D02*
X89285238Y-95294819D01*
X89285238Y-95294819D02*
X89094762Y-95294819D01*
X89094762Y-95294819D02*
X88999524Y-95342438D01*
X88999524Y-95342438D02*
X88951905Y-95390057D01*
X88951905Y-95390057D02*
X88904286Y-95485295D01*
X88904286Y-95485295D02*
X88904286Y-95723390D01*
X88904286Y-95723390D02*
X88951905Y-95818628D01*
X88951905Y-95818628D02*
X88999524Y-95866247D01*
X88999524Y-95866247D02*
X89094762Y-95913866D01*
X89094762Y-95913866D02*
X89285238Y-95913866D01*
X89285238Y-95913866D02*
X89380476Y-95866247D01*
X89380476Y-95866247D02*
X89428095Y-95818628D01*
X89428095Y-95818628D02*
X89475714Y-95723390D01*
X84618095Y-96614819D02*
X84618095Y-95614819D01*
X85189523Y-96614819D02*
X84760952Y-96043390D01*
X85189523Y-95614819D02*
X84618095Y-96186247D01*
X74454819Y-67102857D02*
X73978628Y-67436190D01*
X74454819Y-67674285D02*
X73454819Y-67674285D01*
X73454819Y-67674285D02*
X73454819Y-67293333D01*
X73454819Y-67293333D02*
X73502438Y-67198095D01*
X73502438Y-67198095D02*
X73550057Y-67150476D01*
X73550057Y-67150476D02*
X73645295Y-67102857D01*
X73645295Y-67102857D02*
X73788152Y-67102857D01*
X73788152Y-67102857D02*
X73883390Y-67150476D01*
X73883390Y-67150476D02*
X73931009Y-67198095D01*
X73931009Y-67198095D02*
X73978628Y-67293333D01*
X73978628Y-67293333D02*
X73978628Y-67674285D01*
X73550057Y-66721904D02*
X73502438Y-66674285D01*
X73502438Y-66674285D02*
X73454819Y-66579047D01*
X73454819Y-66579047D02*
X73454819Y-66340952D01*
X73454819Y-66340952D02*
X73502438Y-66245714D01*
X73502438Y-66245714D02*
X73550057Y-66198095D01*
X73550057Y-66198095D02*
X73645295Y-66150476D01*
X73645295Y-66150476D02*
X73740533Y-66150476D01*
X73740533Y-66150476D02*
X73883390Y-66198095D01*
X73883390Y-66198095D02*
X74454819Y-66769523D01*
X74454819Y-66769523D02*
X74454819Y-66150476D01*
X73454819Y-65245714D02*
X73454819Y-65721904D01*
X73454819Y-65721904D02*
X73931009Y-65769523D01*
X73931009Y-65769523D02*
X73883390Y-65721904D01*
X73883390Y-65721904D02*
X73835771Y-65626666D01*
X73835771Y-65626666D02*
X73835771Y-65388571D01*
X73835771Y-65388571D02*
X73883390Y-65293333D01*
X73883390Y-65293333D02*
X73931009Y-65245714D01*
X73931009Y-65245714D02*
X74026247Y-65198095D01*
X74026247Y-65198095D02*
X74264342Y-65198095D01*
X74264342Y-65198095D02*
X74359580Y-65245714D01*
X74359580Y-65245714D02*
X74407200Y-65293333D01*
X74407200Y-65293333D02*
X74454819Y-65388571D01*
X74454819Y-65388571D02*
X74454819Y-65626666D01*
X74454819Y-65626666D02*
X74407200Y-65721904D01*
X74407200Y-65721904D02*
X74359580Y-65769523D01*
X56398095Y-58804819D02*
X56398095Y-59614342D01*
X56398095Y-59614342D02*
X56445714Y-59709580D01*
X56445714Y-59709580D02*
X56493333Y-59757200D01*
X56493333Y-59757200D02*
X56588571Y-59804819D01*
X56588571Y-59804819D02*
X56779047Y-59804819D01*
X56779047Y-59804819D02*
X56874285Y-59757200D01*
X56874285Y-59757200D02*
X56921904Y-59709580D01*
X56921904Y-59709580D02*
X56969523Y-59614342D01*
X56969523Y-59614342D02*
X56969523Y-58804819D01*
X57969523Y-59804819D02*
X57398095Y-59804819D01*
X57683809Y-59804819D02*
X57683809Y-58804819D01*
X57683809Y-58804819D02*
X57588571Y-58947676D01*
X57588571Y-58947676D02*
X57493333Y-59042914D01*
X57493333Y-59042914D02*
X57398095Y-59090533D01*
X83238095Y-52779819D02*
X83238095Y-53589342D01*
X83238095Y-53589342D02*
X83285714Y-53684580D01*
X83285714Y-53684580D02*
X83333333Y-53732200D01*
X83333333Y-53732200D02*
X83428571Y-53779819D01*
X83428571Y-53779819D02*
X83619047Y-53779819D01*
X83619047Y-53779819D02*
X83714285Y-53732200D01*
X83714285Y-53732200D02*
X83761904Y-53684580D01*
X83761904Y-53684580D02*
X83809523Y-53589342D01*
X83809523Y-53589342D02*
X83809523Y-52779819D01*
X84190476Y-52779819D02*
X84809523Y-52779819D01*
X84809523Y-52779819D02*
X84476190Y-53160771D01*
X84476190Y-53160771D02*
X84619047Y-53160771D01*
X84619047Y-53160771D02*
X84714285Y-53208390D01*
X84714285Y-53208390D02*
X84761904Y-53256009D01*
X84761904Y-53256009D02*
X84809523Y-53351247D01*
X84809523Y-53351247D02*
X84809523Y-53589342D01*
X84809523Y-53589342D02*
X84761904Y-53684580D01*
X84761904Y-53684580D02*
X84714285Y-53732200D01*
X84714285Y-53732200D02*
X84619047Y-53779819D01*
X84619047Y-53779819D02*
X84333333Y-53779819D01*
X84333333Y-53779819D02*
X84238095Y-53732200D01*
X84238095Y-53732200D02*
X84190476Y-53684580D01*
X94690476Y-33704819D02*
X94690476Y-34419104D01*
X94690476Y-34419104D02*
X94642857Y-34561961D01*
X94642857Y-34561961D02*
X94547619Y-34657200D01*
X94547619Y-34657200D02*
X94404762Y-34704819D01*
X94404762Y-34704819D02*
X94309524Y-34704819D01*
X95690476Y-34704819D02*
X95119048Y-34704819D01*
X95404762Y-34704819D02*
X95404762Y-33704819D01*
X95404762Y-33704819D02*
X95309524Y-33847676D01*
X95309524Y-33847676D02*
X95214286Y-33942914D01*
X95214286Y-33942914D02*
X95119048Y-33990533D01*
X96071429Y-33800057D02*
X96119048Y-33752438D01*
X96119048Y-33752438D02*
X96214286Y-33704819D01*
X96214286Y-33704819D02*
X96452381Y-33704819D01*
X96452381Y-33704819D02*
X96547619Y-33752438D01*
X96547619Y-33752438D02*
X96595238Y-33800057D01*
X96595238Y-33800057D02*
X96642857Y-33895295D01*
X96642857Y-33895295D02*
X96642857Y-33990533D01*
X96642857Y-33990533D02*
X96595238Y-34133390D01*
X96595238Y-34133390D02*
X96023810Y-34704819D01*
X96023810Y-34704819D02*
X96642857Y-34704819D01*
X76261905Y-96374819D02*
X76261905Y-95374819D01*
X76261905Y-95374819D02*
X76500000Y-95374819D01*
X76500000Y-95374819D02*
X76642857Y-95422438D01*
X76642857Y-95422438D02*
X76738095Y-95517676D01*
X76738095Y-95517676D02*
X76785714Y-95612914D01*
X76785714Y-95612914D02*
X76833333Y-95803390D01*
X76833333Y-95803390D02*
X76833333Y-95946247D01*
X76833333Y-95946247D02*
X76785714Y-96136723D01*
X76785714Y-96136723D02*
X76738095Y-96231961D01*
X76738095Y-96231961D02*
X76642857Y-96327200D01*
X76642857Y-96327200D02*
X76500000Y-96374819D01*
X76500000Y-96374819D02*
X76261905Y-96374819D01*
X77404762Y-95803390D02*
X77309524Y-95755771D01*
X77309524Y-95755771D02*
X77261905Y-95708152D01*
X77261905Y-95708152D02*
X77214286Y-95612914D01*
X77214286Y-95612914D02*
X77214286Y-95565295D01*
X77214286Y-95565295D02*
X77261905Y-95470057D01*
X77261905Y-95470057D02*
X77309524Y-95422438D01*
X77309524Y-95422438D02*
X77404762Y-95374819D01*
X77404762Y-95374819D02*
X77595238Y-95374819D01*
X77595238Y-95374819D02*
X77690476Y-95422438D01*
X77690476Y-95422438D02*
X77738095Y-95470057D01*
X77738095Y-95470057D02*
X77785714Y-95565295D01*
X77785714Y-95565295D02*
X77785714Y-95612914D01*
X77785714Y-95612914D02*
X77738095Y-95708152D01*
X77738095Y-95708152D02*
X77690476Y-95755771D01*
X77690476Y-95755771D02*
X77595238Y-95803390D01*
X77595238Y-95803390D02*
X77404762Y-95803390D01*
X77404762Y-95803390D02*
X77309524Y-95851009D01*
X77309524Y-95851009D02*
X77261905Y-95898628D01*
X77261905Y-95898628D02*
X77214286Y-95993866D01*
X77214286Y-95993866D02*
X77214286Y-96184342D01*
X77214286Y-96184342D02*
X77261905Y-96279580D01*
X77261905Y-96279580D02*
X77309524Y-96327200D01*
X77309524Y-96327200D02*
X77404762Y-96374819D01*
X77404762Y-96374819D02*
X77595238Y-96374819D01*
X77595238Y-96374819D02*
X77690476Y-96327200D01*
X77690476Y-96327200D02*
X77738095Y-96279580D01*
X77738095Y-96279580D02*
X77785714Y-96184342D01*
X77785714Y-96184342D02*
X77785714Y-95993866D01*
X77785714Y-95993866D02*
X77738095Y-95898628D01*
X77738095Y-95898628D02*
X77690476Y-95851009D01*
X77690476Y-95851009D02*
X77595238Y-95803390D01*
X72928095Y-96694819D02*
X72928095Y-95694819D01*
X73499523Y-96694819D02*
X73070952Y-96123390D01*
X73499523Y-95694819D02*
X72928095Y-96266247D01*
X84107142Y-51859580D02*
X84059523Y-51907200D01*
X84059523Y-51907200D02*
X83916666Y-51954819D01*
X83916666Y-51954819D02*
X83821428Y-51954819D01*
X83821428Y-51954819D02*
X83678571Y-51907200D01*
X83678571Y-51907200D02*
X83583333Y-51811961D01*
X83583333Y-51811961D02*
X83535714Y-51716723D01*
X83535714Y-51716723D02*
X83488095Y-51526247D01*
X83488095Y-51526247D02*
X83488095Y-51383390D01*
X83488095Y-51383390D02*
X83535714Y-51192914D01*
X83535714Y-51192914D02*
X83583333Y-51097676D01*
X83583333Y-51097676D02*
X83678571Y-51002438D01*
X83678571Y-51002438D02*
X83821428Y-50954819D01*
X83821428Y-50954819D02*
X83916666Y-50954819D01*
X83916666Y-50954819D02*
X84059523Y-51002438D01*
X84059523Y-51002438D02*
X84107142Y-51050057D01*
X84488095Y-51050057D02*
X84535714Y-51002438D01*
X84535714Y-51002438D02*
X84630952Y-50954819D01*
X84630952Y-50954819D02*
X84869047Y-50954819D01*
X84869047Y-50954819D02*
X84964285Y-51002438D01*
X84964285Y-51002438D02*
X85011904Y-51050057D01*
X85011904Y-51050057D02*
X85059523Y-51145295D01*
X85059523Y-51145295D02*
X85059523Y-51240533D01*
X85059523Y-51240533D02*
X85011904Y-51383390D01*
X85011904Y-51383390D02*
X84440476Y-51954819D01*
X84440476Y-51954819D02*
X85059523Y-51954819D01*
X85440476Y-51050057D02*
X85488095Y-51002438D01*
X85488095Y-51002438D02*
X85583333Y-50954819D01*
X85583333Y-50954819D02*
X85821428Y-50954819D01*
X85821428Y-50954819D02*
X85916666Y-51002438D01*
X85916666Y-51002438D02*
X85964285Y-51050057D01*
X85964285Y-51050057D02*
X86011904Y-51145295D01*
X86011904Y-51145295D02*
X86011904Y-51240533D01*
X86011904Y-51240533D02*
X85964285Y-51383390D01*
X85964285Y-51383390D02*
X85392857Y-51954819D01*
X85392857Y-51954819D02*
X86011904Y-51954819D01*
X77359580Y-58892857D02*
X77407200Y-58940476D01*
X77407200Y-58940476D02*
X77454819Y-59083333D01*
X77454819Y-59083333D02*
X77454819Y-59178571D01*
X77454819Y-59178571D02*
X77407200Y-59321428D01*
X77407200Y-59321428D02*
X77311961Y-59416666D01*
X77311961Y-59416666D02*
X77216723Y-59464285D01*
X77216723Y-59464285D02*
X77026247Y-59511904D01*
X77026247Y-59511904D02*
X76883390Y-59511904D01*
X76883390Y-59511904D02*
X76692914Y-59464285D01*
X76692914Y-59464285D02*
X76597676Y-59416666D01*
X76597676Y-59416666D02*
X76502438Y-59321428D01*
X76502438Y-59321428D02*
X76454819Y-59178571D01*
X76454819Y-59178571D02*
X76454819Y-59083333D01*
X76454819Y-59083333D02*
X76502438Y-58940476D01*
X76502438Y-58940476D02*
X76550057Y-58892857D01*
X77454819Y-57940476D02*
X77454819Y-58511904D01*
X77454819Y-58226190D02*
X76454819Y-58226190D01*
X76454819Y-58226190D02*
X76597676Y-58321428D01*
X76597676Y-58321428D02*
X76692914Y-58416666D01*
X76692914Y-58416666D02*
X76740533Y-58511904D01*
X76883390Y-57369047D02*
X76835771Y-57464285D01*
X76835771Y-57464285D02*
X76788152Y-57511904D01*
X76788152Y-57511904D02*
X76692914Y-57559523D01*
X76692914Y-57559523D02*
X76645295Y-57559523D01*
X76645295Y-57559523D02*
X76550057Y-57511904D01*
X76550057Y-57511904D02*
X76502438Y-57464285D01*
X76502438Y-57464285D02*
X76454819Y-57369047D01*
X76454819Y-57369047D02*
X76454819Y-57178571D01*
X76454819Y-57178571D02*
X76502438Y-57083333D01*
X76502438Y-57083333D02*
X76550057Y-57035714D01*
X76550057Y-57035714D02*
X76645295Y-56988095D01*
X76645295Y-56988095D02*
X76692914Y-56988095D01*
X76692914Y-56988095D02*
X76788152Y-57035714D01*
X76788152Y-57035714D02*
X76835771Y-57083333D01*
X76835771Y-57083333D02*
X76883390Y-57178571D01*
X76883390Y-57178571D02*
X76883390Y-57369047D01*
X76883390Y-57369047D02*
X76931009Y-57464285D01*
X76931009Y-57464285D02*
X76978628Y-57511904D01*
X76978628Y-57511904D02*
X77073866Y-57559523D01*
X77073866Y-57559523D02*
X77264342Y-57559523D01*
X77264342Y-57559523D02*
X77359580Y-57511904D01*
X77359580Y-57511904D02*
X77407200Y-57464285D01*
X77407200Y-57464285D02*
X77454819Y-57369047D01*
X77454819Y-57369047D02*
X77454819Y-57178571D01*
X77454819Y-57178571D02*
X77407200Y-57083333D01*
X77407200Y-57083333D02*
X77359580Y-57035714D01*
X77359580Y-57035714D02*
X77264342Y-56988095D01*
X77264342Y-56988095D02*
X77073866Y-56988095D01*
X77073866Y-56988095D02*
X76978628Y-57035714D01*
X76978628Y-57035714D02*
X76931009Y-57083333D01*
X76931009Y-57083333D02*
X76883390Y-57178571D01*
X81690476Y-115704819D02*
X81690476Y-116419104D01*
X81690476Y-116419104D02*
X81642857Y-116561961D01*
X81642857Y-116561961D02*
X81547619Y-116657200D01*
X81547619Y-116657200D02*
X81404762Y-116704819D01*
X81404762Y-116704819D02*
X81309524Y-116704819D01*
X82690476Y-116704819D02*
X82119048Y-116704819D01*
X82404762Y-116704819D02*
X82404762Y-115704819D01*
X82404762Y-115704819D02*
X82309524Y-115847676D01*
X82309524Y-115847676D02*
X82214286Y-115942914D01*
X82214286Y-115942914D02*
X82119048Y-115990533D01*
X83547619Y-115704819D02*
X83357143Y-115704819D01*
X83357143Y-115704819D02*
X83261905Y-115752438D01*
X83261905Y-115752438D02*
X83214286Y-115800057D01*
X83214286Y-115800057D02*
X83119048Y-115942914D01*
X83119048Y-115942914D02*
X83071429Y-116133390D01*
X83071429Y-116133390D02*
X83071429Y-116514342D01*
X83071429Y-116514342D02*
X83119048Y-116609580D01*
X83119048Y-116609580D02*
X83166667Y-116657200D01*
X83166667Y-116657200D02*
X83261905Y-116704819D01*
X83261905Y-116704819D02*
X83452381Y-116704819D01*
X83452381Y-116704819D02*
X83547619Y-116657200D01*
X83547619Y-116657200D02*
X83595238Y-116609580D01*
X83595238Y-116609580D02*
X83642857Y-116514342D01*
X83642857Y-116514342D02*
X83642857Y-116276247D01*
X83642857Y-116276247D02*
X83595238Y-116181009D01*
X83595238Y-116181009D02*
X83547619Y-116133390D01*
X83547619Y-116133390D02*
X83452381Y-116085771D01*
X83452381Y-116085771D02*
X83261905Y-116085771D01*
X83261905Y-116085771D02*
X83166667Y-116133390D01*
X83166667Y-116133390D02*
X83119048Y-116181009D01*
X83119048Y-116181009D02*
X83071429Y-116276247D01*
X84857142Y-62534819D02*
X84523809Y-62058628D01*
X84285714Y-62534819D02*
X84285714Y-61534819D01*
X84285714Y-61534819D02*
X84666666Y-61534819D01*
X84666666Y-61534819D02*
X84761904Y-61582438D01*
X84761904Y-61582438D02*
X84809523Y-61630057D01*
X84809523Y-61630057D02*
X84857142Y-61725295D01*
X84857142Y-61725295D02*
X84857142Y-61868152D01*
X84857142Y-61868152D02*
X84809523Y-61963390D01*
X84809523Y-61963390D02*
X84761904Y-62011009D01*
X84761904Y-62011009D02*
X84666666Y-62058628D01*
X84666666Y-62058628D02*
X84285714Y-62058628D01*
X85238095Y-61630057D02*
X85285714Y-61582438D01*
X85285714Y-61582438D02*
X85380952Y-61534819D01*
X85380952Y-61534819D02*
X85619047Y-61534819D01*
X85619047Y-61534819D02*
X85714285Y-61582438D01*
X85714285Y-61582438D02*
X85761904Y-61630057D01*
X85761904Y-61630057D02*
X85809523Y-61725295D01*
X85809523Y-61725295D02*
X85809523Y-61820533D01*
X85809523Y-61820533D02*
X85761904Y-61963390D01*
X85761904Y-61963390D02*
X85190476Y-62534819D01*
X85190476Y-62534819D02*
X85809523Y-62534819D01*
X86666666Y-61534819D02*
X86476190Y-61534819D01*
X86476190Y-61534819D02*
X86380952Y-61582438D01*
X86380952Y-61582438D02*
X86333333Y-61630057D01*
X86333333Y-61630057D02*
X86238095Y-61772914D01*
X86238095Y-61772914D02*
X86190476Y-61963390D01*
X86190476Y-61963390D02*
X86190476Y-62344342D01*
X86190476Y-62344342D02*
X86238095Y-62439580D01*
X86238095Y-62439580D02*
X86285714Y-62487200D01*
X86285714Y-62487200D02*
X86380952Y-62534819D01*
X86380952Y-62534819D02*
X86571428Y-62534819D01*
X86571428Y-62534819D02*
X86666666Y-62487200D01*
X86666666Y-62487200D02*
X86714285Y-62439580D01*
X86714285Y-62439580D02*
X86761904Y-62344342D01*
X86761904Y-62344342D02*
X86761904Y-62106247D01*
X86761904Y-62106247D02*
X86714285Y-62011009D01*
X86714285Y-62011009D02*
X86666666Y-61963390D01*
X86666666Y-61963390D02*
X86571428Y-61915771D01*
X86571428Y-61915771D02*
X86380952Y-61915771D01*
X86380952Y-61915771D02*
X86285714Y-61963390D01*
X86285714Y-61963390D02*
X86238095Y-62011009D01*
X86238095Y-62011009D02*
X86190476Y-62106247D01*
X83509793Y-70109580D02*
X83462174Y-70157200D01*
X83462174Y-70157200D02*
X83319317Y-70204819D01*
X83319317Y-70204819D02*
X83224079Y-70204819D01*
X83224079Y-70204819D02*
X83081222Y-70157200D01*
X83081222Y-70157200D02*
X82985984Y-70061961D01*
X82985984Y-70061961D02*
X82938365Y-69966723D01*
X82938365Y-69966723D02*
X82890746Y-69776247D01*
X82890746Y-69776247D02*
X82890746Y-69633390D01*
X82890746Y-69633390D02*
X82938365Y-69442914D01*
X82938365Y-69442914D02*
X82985984Y-69347676D01*
X82985984Y-69347676D02*
X83081222Y-69252438D01*
X83081222Y-69252438D02*
X83224079Y-69204819D01*
X83224079Y-69204819D02*
X83319317Y-69204819D01*
X83319317Y-69204819D02*
X83462174Y-69252438D01*
X83462174Y-69252438D02*
X83509793Y-69300057D01*
X84462174Y-70204819D02*
X83890746Y-70204819D01*
X84176460Y-70204819D02*
X84176460Y-69204819D01*
X84176460Y-69204819D02*
X84081222Y-69347676D01*
X84081222Y-69347676D02*
X83985984Y-69442914D01*
X83985984Y-69442914D02*
X83890746Y-69490533D01*
X84843127Y-69300057D02*
X84890746Y-69252438D01*
X84890746Y-69252438D02*
X84985984Y-69204819D01*
X84985984Y-69204819D02*
X85224079Y-69204819D01*
X85224079Y-69204819D02*
X85319317Y-69252438D01*
X85319317Y-69252438D02*
X85366936Y-69300057D01*
X85366936Y-69300057D02*
X85414555Y-69395295D01*
X85414555Y-69395295D02*
X85414555Y-69490533D01*
X85414555Y-69490533D02*
X85366936Y-69633390D01*
X85366936Y-69633390D02*
X84795508Y-70204819D01*
X84795508Y-70204819D02*
X85414555Y-70204819D01*
X99359580Y-58642857D02*
X99407200Y-58690476D01*
X99407200Y-58690476D02*
X99454819Y-58833333D01*
X99454819Y-58833333D02*
X99454819Y-58928571D01*
X99454819Y-58928571D02*
X99407200Y-59071428D01*
X99407200Y-59071428D02*
X99311961Y-59166666D01*
X99311961Y-59166666D02*
X99216723Y-59214285D01*
X99216723Y-59214285D02*
X99026247Y-59261904D01*
X99026247Y-59261904D02*
X98883390Y-59261904D01*
X98883390Y-59261904D02*
X98692914Y-59214285D01*
X98692914Y-59214285D02*
X98597676Y-59166666D01*
X98597676Y-59166666D02*
X98502438Y-59071428D01*
X98502438Y-59071428D02*
X98454819Y-58928571D01*
X98454819Y-58928571D02*
X98454819Y-58833333D01*
X98454819Y-58833333D02*
X98502438Y-58690476D01*
X98502438Y-58690476D02*
X98550057Y-58642857D01*
X98550057Y-58261904D02*
X98502438Y-58214285D01*
X98502438Y-58214285D02*
X98454819Y-58119047D01*
X98454819Y-58119047D02*
X98454819Y-57880952D01*
X98454819Y-57880952D02*
X98502438Y-57785714D01*
X98502438Y-57785714D02*
X98550057Y-57738095D01*
X98550057Y-57738095D02*
X98645295Y-57690476D01*
X98645295Y-57690476D02*
X98740533Y-57690476D01*
X98740533Y-57690476D02*
X98883390Y-57738095D01*
X98883390Y-57738095D02*
X99454819Y-58309523D01*
X99454819Y-58309523D02*
X99454819Y-57690476D01*
X98454819Y-57071428D02*
X98454819Y-56976190D01*
X98454819Y-56976190D02*
X98502438Y-56880952D01*
X98502438Y-56880952D02*
X98550057Y-56833333D01*
X98550057Y-56833333D02*
X98645295Y-56785714D01*
X98645295Y-56785714D02*
X98835771Y-56738095D01*
X98835771Y-56738095D02*
X99073866Y-56738095D01*
X99073866Y-56738095D02*
X99264342Y-56785714D01*
X99264342Y-56785714D02*
X99359580Y-56833333D01*
X99359580Y-56833333D02*
X99407200Y-56880952D01*
X99407200Y-56880952D02*
X99454819Y-56976190D01*
X99454819Y-56976190D02*
X99454819Y-57071428D01*
X99454819Y-57071428D02*
X99407200Y-57166666D01*
X99407200Y-57166666D02*
X99359580Y-57214285D01*
X99359580Y-57214285D02*
X99264342Y-57261904D01*
X99264342Y-57261904D02*
X99073866Y-57309523D01*
X99073866Y-57309523D02*
X98835771Y-57309523D01*
X98835771Y-57309523D02*
X98645295Y-57261904D01*
X98645295Y-57261904D02*
X98550057Y-57214285D01*
X98550057Y-57214285D02*
X98502438Y-57166666D01*
X98502438Y-57166666D02*
X98454819Y-57071428D01*
X93857093Y-70109580D02*
X93809474Y-70157200D01*
X93809474Y-70157200D02*
X93666617Y-70204819D01*
X93666617Y-70204819D02*
X93571379Y-70204819D01*
X93571379Y-70204819D02*
X93428522Y-70157200D01*
X93428522Y-70157200D02*
X93333284Y-70061961D01*
X93333284Y-70061961D02*
X93285665Y-69966723D01*
X93285665Y-69966723D02*
X93238046Y-69776247D01*
X93238046Y-69776247D02*
X93238046Y-69633390D01*
X93238046Y-69633390D02*
X93285665Y-69442914D01*
X93285665Y-69442914D02*
X93333284Y-69347676D01*
X93333284Y-69347676D02*
X93428522Y-69252438D01*
X93428522Y-69252438D02*
X93571379Y-69204819D01*
X93571379Y-69204819D02*
X93666617Y-69204819D01*
X93666617Y-69204819D02*
X93809474Y-69252438D01*
X93809474Y-69252438D02*
X93857093Y-69300057D01*
X94809474Y-70204819D02*
X94238046Y-70204819D01*
X94523760Y-70204819D02*
X94523760Y-69204819D01*
X94523760Y-69204819D02*
X94428522Y-69347676D01*
X94428522Y-69347676D02*
X94333284Y-69442914D01*
X94333284Y-69442914D02*
X94238046Y-69490533D01*
X95714236Y-69204819D02*
X95238046Y-69204819D01*
X95238046Y-69204819D02*
X95190427Y-69681009D01*
X95190427Y-69681009D02*
X95238046Y-69633390D01*
X95238046Y-69633390D02*
X95333284Y-69585771D01*
X95333284Y-69585771D02*
X95571379Y-69585771D01*
X95571379Y-69585771D02*
X95666617Y-69633390D01*
X95666617Y-69633390D02*
X95714236Y-69681009D01*
X95714236Y-69681009D02*
X95761855Y-69776247D01*
X95761855Y-69776247D02*
X95761855Y-70014342D01*
X95761855Y-70014342D02*
X95714236Y-70109580D01*
X95714236Y-70109580D02*
X95666617Y-70157200D01*
X95666617Y-70157200D02*
X95571379Y-70204819D01*
X95571379Y-70204819D02*
X95333284Y-70204819D01*
X95333284Y-70204819D02*
X95238046Y-70157200D01*
X95238046Y-70157200D02*
X95190427Y-70109580D01*
X86397142Y-109874819D02*
X86063809Y-109398628D01*
X85825714Y-109874819D02*
X85825714Y-108874819D01*
X85825714Y-108874819D02*
X86206666Y-108874819D01*
X86206666Y-108874819D02*
X86301904Y-108922438D01*
X86301904Y-108922438D02*
X86349523Y-108970057D01*
X86349523Y-108970057D02*
X86397142Y-109065295D01*
X86397142Y-109065295D02*
X86397142Y-109208152D01*
X86397142Y-109208152D02*
X86349523Y-109303390D01*
X86349523Y-109303390D02*
X86301904Y-109351009D01*
X86301904Y-109351009D02*
X86206666Y-109398628D01*
X86206666Y-109398628D02*
X85825714Y-109398628D01*
X87349523Y-109874819D02*
X86778095Y-109874819D01*
X87063809Y-109874819D02*
X87063809Y-108874819D01*
X87063809Y-108874819D02*
X86968571Y-109017676D01*
X86968571Y-109017676D02*
X86873333Y-109112914D01*
X86873333Y-109112914D02*
X86778095Y-109160533D01*
X88206666Y-108874819D02*
X88016190Y-108874819D01*
X88016190Y-108874819D02*
X87920952Y-108922438D01*
X87920952Y-108922438D02*
X87873333Y-108970057D01*
X87873333Y-108970057D02*
X87778095Y-109112914D01*
X87778095Y-109112914D02*
X87730476Y-109303390D01*
X87730476Y-109303390D02*
X87730476Y-109684342D01*
X87730476Y-109684342D02*
X87778095Y-109779580D01*
X87778095Y-109779580D02*
X87825714Y-109827200D01*
X87825714Y-109827200D02*
X87920952Y-109874819D01*
X87920952Y-109874819D02*
X88111428Y-109874819D01*
X88111428Y-109874819D02*
X88206666Y-109827200D01*
X88206666Y-109827200D02*
X88254285Y-109779580D01*
X88254285Y-109779580D02*
X88301904Y-109684342D01*
X88301904Y-109684342D02*
X88301904Y-109446247D01*
X88301904Y-109446247D02*
X88254285Y-109351009D01*
X88254285Y-109351009D02*
X88206666Y-109303390D01*
X88206666Y-109303390D02*
X88111428Y-109255771D01*
X88111428Y-109255771D02*
X87920952Y-109255771D01*
X87920952Y-109255771D02*
X87825714Y-109303390D01*
X87825714Y-109303390D02*
X87778095Y-109351009D01*
X87778095Y-109351009D02*
X87730476Y-109446247D01*
X75374819Y-107642857D02*
X74898628Y-107976190D01*
X75374819Y-108214285D02*
X74374819Y-108214285D01*
X74374819Y-108214285D02*
X74374819Y-107833333D01*
X74374819Y-107833333D02*
X74422438Y-107738095D01*
X74422438Y-107738095D02*
X74470057Y-107690476D01*
X74470057Y-107690476D02*
X74565295Y-107642857D01*
X74565295Y-107642857D02*
X74708152Y-107642857D01*
X74708152Y-107642857D02*
X74803390Y-107690476D01*
X74803390Y-107690476D02*
X74851009Y-107738095D01*
X74851009Y-107738095D02*
X74898628Y-107833333D01*
X74898628Y-107833333D02*
X74898628Y-108214285D01*
X75374819Y-106690476D02*
X75374819Y-107261904D01*
X75374819Y-106976190D02*
X74374819Y-106976190D01*
X74374819Y-106976190D02*
X74517676Y-107071428D01*
X74517676Y-107071428D02*
X74612914Y-107166666D01*
X74612914Y-107166666D02*
X74660533Y-107261904D01*
X74374819Y-105785714D02*
X74374819Y-106261904D01*
X74374819Y-106261904D02*
X74851009Y-106309523D01*
X74851009Y-106309523D02*
X74803390Y-106261904D01*
X74803390Y-106261904D02*
X74755771Y-106166666D01*
X74755771Y-106166666D02*
X74755771Y-105928571D01*
X74755771Y-105928571D02*
X74803390Y-105833333D01*
X74803390Y-105833333D02*
X74851009Y-105785714D01*
X74851009Y-105785714D02*
X74946247Y-105738095D01*
X74946247Y-105738095D02*
X75184342Y-105738095D01*
X75184342Y-105738095D02*
X75279580Y-105785714D01*
X75279580Y-105785714D02*
X75327200Y-105833333D01*
X75327200Y-105833333D02*
X75374819Y-105928571D01*
X75374819Y-105928571D02*
X75374819Y-106166666D01*
X75374819Y-106166666D02*
X75327200Y-106261904D01*
X75327200Y-106261904D02*
X75279580Y-106309523D01*
X77954819Y-67102857D02*
X77478628Y-67436190D01*
X77954819Y-67674285D02*
X76954819Y-67674285D01*
X76954819Y-67674285D02*
X76954819Y-67293333D01*
X76954819Y-67293333D02*
X77002438Y-67198095D01*
X77002438Y-67198095D02*
X77050057Y-67150476D01*
X77050057Y-67150476D02*
X77145295Y-67102857D01*
X77145295Y-67102857D02*
X77288152Y-67102857D01*
X77288152Y-67102857D02*
X77383390Y-67150476D01*
X77383390Y-67150476D02*
X77431009Y-67198095D01*
X77431009Y-67198095D02*
X77478628Y-67293333D01*
X77478628Y-67293333D02*
X77478628Y-67674285D01*
X77050057Y-66721904D02*
X77002438Y-66674285D01*
X77002438Y-66674285D02*
X76954819Y-66579047D01*
X76954819Y-66579047D02*
X76954819Y-66340952D01*
X76954819Y-66340952D02*
X77002438Y-66245714D01*
X77002438Y-66245714D02*
X77050057Y-66198095D01*
X77050057Y-66198095D02*
X77145295Y-66150476D01*
X77145295Y-66150476D02*
X77240533Y-66150476D01*
X77240533Y-66150476D02*
X77383390Y-66198095D01*
X77383390Y-66198095D02*
X77954819Y-66769523D01*
X77954819Y-66769523D02*
X77954819Y-66150476D01*
X77050057Y-65769523D02*
X77002438Y-65721904D01*
X77002438Y-65721904D02*
X76954819Y-65626666D01*
X76954819Y-65626666D02*
X76954819Y-65388571D01*
X76954819Y-65388571D02*
X77002438Y-65293333D01*
X77002438Y-65293333D02*
X77050057Y-65245714D01*
X77050057Y-65245714D02*
X77145295Y-65198095D01*
X77145295Y-65198095D02*
X77240533Y-65198095D01*
X77240533Y-65198095D02*
X77383390Y-65245714D01*
X77383390Y-65245714D02*
X77954819Y-65817142D01*
X77954819Y-65817142D02*
X77954819Y-65198095D01*
X97357519Y-67102857D02*
X96881328Y-67436190D01*
X97357519Y-67674285D02*
X96357519Y-67674285D01*
X96357519Y-67674285D02*
X96357519Y-67293333D01*
X96357519Y-67293333D02*
X96405138Y-67198095D01*
X96405138Y-67198095D02*
X96452757Y-67150476D01*
X96452757Y-67150476D02*
X96547995Y-67102857D01*
X96547995Y-67102857D02*
X96690852Y-67102857D01*
X96690852Y-67102857D02*
X96786090Y-67150476D01*
X96786090Y-67150476D02*
X96833709Y-67198095D01*
X96833709Y-67198095D02*
X96881328Y-67293333D01*
X96881328Y-67293333D02*
X96881328Y-67674285D01*
X96452757Y-66721904D02*
X96405138Y-66674285D01*
X96405138Y-66674285D02*
X96357519Y-66579047D01*
X96357519Y-66579047D02*
X96357519Y-66340952D01*
X96357519Y-66340952D02*
X96405138Y-66245714D01*
X96405138Y-66245714D02*
X96452757Y-66198095D01*
X96452757Y-66198095D02*
X96547995Y-66150476D01*
X96547995Y-66150476D02*
X96643233Y-66150476D01*
X96643233Y-66150476D02*
X96786090Y-66198095D01*
X96786090Y-66198095D02*
X97357519Y-66769523D01*
X97357519Y-66769523D02*
X97357519Y-66150476D01*
X96690852Y-65293333D02*
X97357519Y-65293333D01*
X96309900Y-65531428D02*
X97024185Y-65769523D01*
X97024185Y-65769523D02*
X97024185Y-65150476D01*
X86874819Y-84682857D02*
X86398628Y-85016190D01*
X86874819Y-85254285D02*
X85874819Y-85254285D01*
X85874819Y-85254285D02*
X85874819Y-84873333D01*
X85874819Y-84873333D02*
X85922438Y-84778095D01*
X85922438Y-84778095D02*
X85970057Y-84730476D01*
X85970057Y-84730476D02*
X86065295Y-84682857D01*
X86065295Y-84682857D02*
X86208152Y-84682857D01*
X86208152Y-84682857D02*
X86303390Y-84730476D01*
X86303390Y-84730476D02*
X86351009Y-84778095D01*
X86351009Y-84778095D02*
X86398628Y-84873333D01*
X86398628Y-84873333D02*
X86398628Y-85254285D01*
X86874819Y-83730476D02*
X86874819Y-84301904D01*
X86874819Y-84016190D02*
X85874819Y-84016190D01*
X85874819Y-84016190D02*
X86017676Y-84111428D01*
X86017676Y-84111428D02*
X86112914Y-84206666D01*
X86112914Y-84206666D02*
X86160533Y-84301904D01*
X86874819Y-83254285D02*
X86874819Y-83063809D01*
X86874819Y-83063809D02*
X86827200Y-82968571D01*
X86827200Y-82968571D02*
X86779580Y-82920952D01*
X86779580Y-82920952D02*
X86636723Y-82825714D01*
X86636723Y-82825714D02*
X86446247Y-82778095D01*
X86446247Y-82778095D02*
X86065295Y-82778095D01*
X86065295Y-82778095D02*
X85970057Y-82825714D01*
X85970057Y-82825714D02*
X85922438Y-82873333D01*
X85922438Y-82873333D02*
X85874819Y-82968571D01*
X85874819Y-82968571D02*
X85874819Y-83159047D01*
X85874819Y-83159047D02*
X85922438Y-83254285D01*
X85922438Y-83254285D02*
X85970057Y-83301904D01*
X85970057Y-83301904D02*
X86065295Y-83349523D01*
X86065295Y-83349523D02*
X86303390Y-83349523D01*
X86303390Y-83349523D02*
X86398628Y-83301904D01*
X86398628Y-83301904D02*
X86446247Y-83254285D01*
X86446247Y-83254285D02*
X86493866Y-83159047D01*
X86493866Y-83159047D02*
X86493866Y-82968571D01*
X86493866Y-82968571D02*
X86446247Y-82873333D01*
X86446247Y-82873333D02*
X86398628Y-82825714D01*
X86398628Y-82825714D02*
X86303390Y-82778095D01*
X82607142Y-110359580D02*
X82559523Y-110407200D01*
X82559523Y-110407200D02*
X82416666Y-110454819D01*
X82416666Y-110454819D02*
X82321428Y-110454819D01*
X82321428Y-110454819D02*
X82178571Y-110407200D01*
X82178571Y-110407200D02*
X82083333Y-110311961D01*
X82083333Y-110311961D02*
X82035714Y-110216723D01*
X82035714Y-110216723D02*
X81988095Y-110026247D01*
X81988095Y-110026247D02*
X81988095Y-109883390D01*
X81988095Y-109883390D02*
X82035714Y-109692914D01*
X82035714Y-109692914D02*
X82083333Y-109597676D01*
X82083333Y-109597676D02*
X82178571Y-109502438D01*
X82178571Y-109502438D02*
X82321428Y-109454819D01*
X82321428Y-109454819D02*
X82416666Y-109454819D01*
X82416666Y-109454819D02*
X82559523Y-109502438D01*
X82559523Y-109502438D02*
X82607142Y-109550057D01*
X83559523Y-110454819D02*
X82988095Y-110454819D01*
X83273809Y-110454819D02*
X83273809Y-109454819D01*
X83273809Y-109454819D02*
X83178571Y-109597676D01*
X83178571Y-109597676D02*
X83083333Y-109692914D01*
X83083333Y-109692914D02*
X82988095Y-109740533D01*
X84511904Y-110454819D02*
X83940476Y-110454819D01*
X84226190Y-110454819D02*
X84226190Y-109454819D01*
X84226190Y-109454819D02*
X84130952Y-109597676D01*
X84130952Y-109597676D02*
X84035714Y-109692914D01*
X84035714Y-109692914D02*
X83940476Y-109740533D01*
X73897142Y-89534819D02*
X73563809Y-89058628D01*
X73325714Y-89534819D02*
X73325714Y-88534819D01*
X73325714Y-88534819D02*
X73706666Y-88534819D01*
X73706666Y-88534819D02*
X73801904Y-88582438D01*
X73801904Y-88582438D02*
X73849523Y-88630057D01*
X73849523Y-88630057D02*
X73897142Y-88725295D01*
X73897142Y-88725295D02*
X73897142Y-88868152D01*
X73897142Y-88868152D02*
X73849523Y-88963390D01*
X73849523Y-88963390D02*
X73801904Y-89011009D01*
X73801904Y-89011009D02*
X73706666Y-89058628D01*
X73706666Y-89058628D02*
X73325714Y-89058628D01*
X74849523Y-89534819D02*
X74278095Y-89534819D01*
X74563809Y-89534819D02*
X74563809Y-88534819D01*
X74563809Y-88534819D02*
X74468571Y-88677676D01*
X74468571Y-88677676D02*
X74373333Y-88772914D01*
X74373333Y-88772914D02*
X74278095Y-88820533D01*
X75420952Y-88963390D02*
X75325714Y-88915771D01*
X75325714Y-88915771D02*
X75278095Y-88868152D01*
X75278095Y-88868152D02*
X75230476Y-88772914D01*
X75230476Y-88772914D02*
X75230476Y-88725295D01*
X75230476Y-88725295D02*
X75278095Y-88630057D01*
X75278095Y-88630057D02*
X75325714Y-88582438D01*
X75325714Y-88582438D02*
X75420952Y-88534819D01*
X75420952Y-88534819D02*
X75611428Y-88534819D01*
X75611428Y-88534819D02*
X75706666Y-88582438D01*
X75706666Y-88582438D02*
X75754285Y-88630057D01*
X75754285Y-88630057D02*
X75801904Y-88725295D01*
X75801904Y-88725295D02*
X75801904Y-88772914D01*
X75801904Y-88772914D02*
X75754285Y-88868152D01*
X75754285Y-88868152D02*
X75706666Y-88915771D01*
X75706666Y-88915771D02*
X75611428Y-88963390D01*
X75611428Y-88963390D02*
X75420952Y-88963390D01*
X75420952Y-88963390D02*
X75325714Y-89011009D01*
X75325714Y-89011009D02*
X75278095Y-89058628D01*
X75278095Y-89058628D02*
X75230476Y-89153866D01*
X75230476Y-89153866D02*
X75230476Y-89344342D01*
X75230476Y-89344342D02*
X75278095Y-89439580D01*
X75278095Y-89439580D02*
X75325714Y-89487200D01*
X75325714Y-89487200D02*
X75420952Y-89534819D01*
X75420952Y-89534819D02*
X75611428Y-89534819D01*
X75611428Y-89534819D02*
X75706666Y-89487200D01*
X75706666Y-89487200D02*
X75754285Y-89439580D01*
X75754285Y-89439580D02*
X75801904Y-89344342D01*
X75801904Y-89344342D02*
X75801904Y-89153866D01*
X75801904Y-89153866D02*
X75754285Y-89058628D01*
X75754285Y-89058628D02*
X75706666Y-89011009D01*
X75706666Y-89011009D02*
X75611428Y-88963390D01*
X56107142Y-51859580D02*
X56059523Y-51907200D01*
X56059523Y-51907200D02*
X55916666Y-51954819D01*
X55916666Y-51954819D02*
X55821428Y-51954819D01*
X55821428Y-51954819D02*
X55678571Y-51907200D01*
X55678571Y-51907200D02*
X55583333Y-51811961D01*
X55583333Y-51811961D02*
X55535714Y-51716723D01*
X55535714Y-51716723D02*
X55488095Y-51526247D01*
X55488095Y-51526247D02*
X55488095Y-51383390D01*
X55488095Y-51383390D02*
X55535714Y-51192914D01*
X55535714Y-51192914D02*
X55583333Y-51097676D01*
X55583333Y-51097676D02*
X55678571Y-51002438D01*
X55678571Y-51002438D02*
X55821428Y-50954819D01*
X55821428Y-50954819D02*
X55916666Y-50954819D01*
X55916666Y-50954819D02*
X56059523Y-51002438D01*
X56059523Y-51002438D02*
X56107142Y-51050057D01*
X56488095Y-51050057D02*
X56535714Y-51002438D01*
X56535714Y-51002438D02*
X56630952Y-50954819D01*
X56630952Y-50954819D02*
X56869047Y-50954819D01*
X56869047Y-50954819D02*
X56964285Y-51002438D01*
X56964285Y-51002438D02*
X57011904Y-51050057D01*
X57011904Y-51050057D02*
X57059523Y-51145295D01*
X57059523Y-51145295D02*
X57059523Y-51240533D01*
X57059523Y-51240533D02*
X57011904Y-51383390D01*
X57011904Y-51383390D02*
X56440476Y-51954819D01*
X56440476Y-51954819D02*
X57059523Y-51954819D01*
X58011904Y-51954819D02*
X57440476Y-51954819D01*
X57726190Y-51954819D02*
X57726190Y-50954819D01*
X57726190Y-50954819D02*
X57630952Y-51097676D01*
X57630952Y-51097676D02*
X57535714Y-51192914D01*
X57535714Y-51192914D02*
X57440476Y-51240533D01*
X82859580Y-59392857D02*
X82907200Y-59440476D01*
X82907200Y-59440476D02*
X82954819Y-59583333D01*
X82954819Y-59583333D02*
X82954819Y-59678571D01*
X82954819Y-59678571D02*
X82907200Y-59821428D01*
X82907200Y-59821428D02*
X82811961Y-59916666D01*
X82811961Y-59916666D02*
X82716723Y-59964285D01*
X82716723Y-59964285D02*
X82526247Y-60011904D01*
X82526247Y-60011904D02*
X82383390Y-60011904D01*
X82383390Y-60011904D02*
X82192914Y-59964285D01*
X82192914Y-59964285D02*
X82097676Y-59916666D01*
X82097676Y-59916666D02*
X82002438Y-59821428D01*
X82002438Y-59821428D02*
X81954819Y-59678571D01*
X81954819Y-59678571D02*
X81954819Y-59583333D01*
X81954819Y-59583333D02*
X82002438Y-59440476D01*
X82002438Y-59440476D02*
X82050057Y-59392857D01*
X82954819Y-58440476D02*
X82954819Y-59011904D01*
X82954819Y-58726190D02*
X81954819Y-58726190D01*
X81954819Y-58726190D02*
X82097676Y-58821428D01*
X82097676Y-58821428D02*
X82192914Y-58916666D01*
X82192914Y-58916666D02*
X82240533Y-59011904D01*
X81954819Y-57583333D02*
X81954819Y-57773809D01*
X81954819Y-57773809D02*
X82002438Y-57869047D01*
X82002438Y-57869047D02*
X82050057Y-57916666D01*
X82050057Y-57916666D02*
X82192914Y-58011904D01*
X82192914Y-58011904D02*
X82383390Y-58059523D01*
X82383390Y-58059523D02*
X82764342Y-58059523D01*
X82764342Y-58059523D02*
X82859580Y-58011904D01*
X82859580Y-58011904D02*
X82907200Y-57964285D01*
X82907200Y-57964285D02*
X82954819Y-57869047D01*
X82954819Y-57869047D02*
X82954819Y-57678571D01*
X82954819Y-57678571D02*
X82907200Y-57583333D01*
X82907200Y-57583333D02*
X82859580Y-57535714D01*
X82859580Y-57535714D02*
X82764342Y-57488095D01*
X82764342Y-57488095D02*
X82526247Y-57488095D01*
X82526247Y-57488095D02*
X82431009Y-57535714D01*
X82431009Y-57535714D02*
X82383390Y-57583333D01*
X82383390Y-57583333D02*
X82335771Y-57678571D01*
X82335771Y-57678571D02*
X82335771Y-57869047D01*
X82335771Y-57869047D02*
X82383390Y-57964285D01*
X82383390Y-57964285D02*
X82431009Y-58011904D01*
X82431009Y-58011904D02*
X82526247Y-58059523D01*
X78359580Y-84392857D02*
X78407200Y-84440476D01*
X78407200Y-84440476D02*
X78454819Y-84583333D01*
X78454819Y-84583333D02*
X78454819Y-84678571D01*
X78454819Y-84678571D02*
X78407200Y-84821428D01*
X78407200Y-84821428D02*
X78311961Y-84916666D01*
X78311961Y-84916666D02*
X78216723Y-84964285D01*
X78216723Y-84964285D02*
X78026247Y-85011904D01*
X78026247Y-85011904D02*
X77883390Y-85011904D01*
X77883390Y-85011904D02*
X77692914Y-84964285D01*
X77692914Y-84964285D02*
X77597676Y-84916666D01*
X77597676Y-84916666D02*
X77502438Y-84821428D01*
X77502438Y-84821428D02*
X77454819Y-84678571D01*
X77454819Y-84678571D02*
X77454819Y-84583333D01*
X77454819Y-84583333D02*
X77502438Y-84440476D01*
X77502438Y-84440476D02*
X77550057Y-84392857D01*
X78454819Y-83440476D02*
X78454819Y-84011904D01*
X78454819Y-83726190D02*
X77454819Y-83726190D01*
X77454819Y-83726190D02*
X77597676Y-83821428D01*
X77597676Y-83821428D02*
X77692914Y-83916666D01*
X77692914Y-83916666D02*
X77740533Y-84011904D01*
X77788152Y-82583333D02*
X78454819Y-82583333D01*
X77407200Y-82821428D02*
X78121485Y-83059523D01*
X78121485Y-83059523D02*
X78121485Y-82440476D01*
X83690476Y-87894819D02*
X83690476Y-88609104D01*
X83690476Y-88609104D02*
X83642857Y-88751961D01*
X83642857Y-88751961D02*
X83547619Y-88847200D01*
X83547619Y-88847200D02*
X83404762Y-88894819D01*
X83404762Y-88894819D02*
X83309524Y-88894819D01*
X84690476Y-88894819D02*
X84119048Y-88894819D01*
X84404762Y-88894819D02*
X84404762Y-87894819D01*
X84404762Y-87894819D02*
X84309524Y-88037676D01*
X84309524Y-88037676D02*
X84214286Y-88132914D01*
X84214286Y-88132914D02*
X84119048Y-88180533D01*
X85547619Y-88228152D02*
X85547619Y-88894819D01*
X85309524Y-87847200D02*
X85071429Y-88561485D01*
X85071429Y-88561485D02*
X85690476Y-88561485D01*
X91690476Y-115704819D02*
X91690476Y-116419104D01*
X91690476Y-116419104D02*
X91642857Y-116561961D01*
X91642857Y-116561961D02*
X91547619Y-116657200D01*
X91547619Y-116657200D02*
X91404762Y-116704819D01*
X91404762Y-116704819D02*
X91309524Y-116704819D01*
X92690476Y-116704819D02*
X92119048Y-116704819D01*
X92404762Y-116704819D02*
X92404762Y-115704819D01*
X92404762Y-115704819D02*
X92309524Y-115847676D01*
X92309524Y-115847676D02*
X92214286Y-115942914D01*
X92214286Y-115942914D02*
X92119048Y-115990533D01*
X93642857Y-116704819D02*
X93071429Y-116704819D01*
X93357143Y-116704819D02*
X93357143Y-115704819D01*
X93357143Y-115704819D02*
X93261905Y-115847676D01*
X93261905Y-115847676D02*
X93166667Y-115942914D01*
X93166667Y-115942914D02*
X93071429Y-115990533D01*
X94359580Y-84892857D02*
X94407200Y-84940476D01*
X94407200Y-84940476D02*
X94454819Y-85083333D01*
X94454819Y-85083333D02*
X94454819Y-85178571D01*
X94454819Y-85178571D02*
X94407200Y-85321428D01*
X94407200Y-85321428D02*
X94311961Y-85416666D01*
X94311961Y-85416666D02*
X94216723Y-85464285D01*
X94216723Y-85464285D02*
X94026247Y-85511904D01*
X94026247Y-85511904D02*
X93883390Y-85511904D01*
X93883390Y-85511904D02*
X93692914Y-85464285D01*
X93692914Y-85464285D02*
X93597676Y-85416666D01*
X93597676Y-85416666D02*
X93502438Y-85321428D01*
X93502438Y-85321428D02*
X93454819Y-85178571D01*
X93454819Y-85178571D02*
X93454819Y-85083333D01*
X93454819Y-85083333D02*
X93502438Y-84940476D01*
X93502438Y-84940476D02*
X93550057Y-84892857D01*
X94454819Y-83940476D02*
X94454819Y-84511904D01*
X94454819Y-84226190D02*
X93454819Y-84226190D01*
X93454819Y-84226190D02*
X93597676Y-84321428D01*
X93597676Y-84321428D02*
X93692914Y-84416666D01*
X93692914Y-84416666D02*
X93740533Y-84511904D01*
X93454819Y-83607142D02*
X93454819Y-82940476D01*
X93454819Y-82940476D02*
X94454819Y-83369047D01*
X87951905Y-99794819D02*
X87951905Y-98794819D01*
X87951905Y-98794819D02*
X88190000Y-98794819D01*
X88190000Y-98794819D02*
X88332857Y-98842438D01*
X88332857Y-98842438D02*
X88428095Y-98937676D01*
X88428095Y-98937676D02*
X88475714Y-99032914D01*
X88475714Y-99032914D02*
X88523333Y-99223390D01*
X88523333Y-99223390D02*
X88523333Y-99366247D01*
X88523333Y-99366247D02*
X88475714Y-99556723D01*
X88475714Y-99556723D02*
X88428095Y-99651961D01*
X88428095Y-99651961D02*
X88332857Y-99747200D01*
X88332857Y-99747200D02*
X88190000Y-99794819D01*
X88190000Y-99794819D02*
X87951905Y-99794819D01*
X88856667Y-98794819D02*
X89523333Y-98794819D01*
X89523333Y-98794819D02*
X89094762Y-99794819D01*
X84618095Y-100114819D02*
X84618095Y-99114819D01*
X85189523Y-100114819D02*
X84760952Y-99543390D01*
X85189523Y-99114819D02*
X84618095Y-99686247D01*
X76261905Y-99874819D02*
X76261905Y-98874819D01*
X76261905Y-98874819D02*
X76500000Y-98874819D01*
X76500000Y-98874819D02*
X76642857Y-98922438D01*
X76642857Y-98922438D02*
X76738095Y-99017676D01*
X76738095Y-99017676D02*
X76785714Y-99112914D01*
X76785714Y-99112914D02*
X76833333Y-99303390D01*
X76833333Y-99303390D02*
X76833333Y-99446247D01*
X76833333Y-99446247D02*
X76785714Y-99636723D01*
X76785714Y-99636723D02*
X76738095Y-99731961D01*
X76738095Y-99731961D02*
X76642857Y-99827200D01*
X76642857Y-99827200D02*
X76500000Y-99874819D01*
X76500000Y-99874819D02*
X76261905Y-99874819D01*
X77690476Y-98874819D02*
X77500000Y-98874819D01*
X77500000Y-98874819D02*
X77404762Y-98922438D01*
X77404762Y-98922438D02*
X77357143Y-98970057D01*
X77357143Y-98970057D02*
X77261905Y-99112914D01*
X77261905Y-99112914D02*
X77214286Y-99303390D01*
X77214286Y-99303390D02*
X77214286Y-99684342D01*
X77214286Y-99684342D02*
X77261905Y-99779580D01*
X77261905Y-99779580D02*
X77309524Y-99827200D01*
X77309524Y-99827200D02*
X77404762Y-99874819D01*
X77404762Y-99874819D02*
X77595238Y-99874819D01*
X77595238Y-99874819D02*
X77690476Y-99827200D01*
X77690476Y-99827200D02*
X77738095Y-99779580D01*
X77738095Y-99779580D02*
X77785714Y-99684342D01*
X77785714Y-99684342D02*
X77785714Y-99446247D01*
X77785714Y-99446247D02*
X77738095Y-99351009D01*
X77738095Y-99351009D02*
X77690476Y-99303390D01*
X77690476Y-99303390D02*
X77595238Y-99255771D01*
X77595238Y-99255771D02*
X77404762Y-99255771D01*
X77404762Y-99255771D02*
X77309524Y-99303390D01*
X77309524Y-99303390D02*
X77261905Y-99351009D01*
X77261905Y-99351009D02*
X77214286Y-99446247D01*
X72928095Y-100194819D02*
X72928095Y-99194819D01*
X73499523Y-100194819D02*
X73070952Y-99623390D01*
X73499523Y-99194819D02*
X72928095Y-99766247D01*
X90534819Y-84642857D02*
X90058628Y-84976190D01*
X90534819Y-85214285D02*
X89534819Y-85214285D01*
X89534819Y-85214285D02*
X89534819Y-84833333D01*
X89534819Y-84833333D02*
X89582438Y-84738095D01*
X89582438Y-84738095D02*
X89630057Y-84690476D01*
X89630057Y-84690476D02*
X89725295Y-84642857D01*
X89725295Y-84642857D02*
X89868152Y-84642857D01*
X89868152Y-84642857D02*
X89963390Y-84690476D01*
X89963390Y-84690476D02*
X90011009Y-84738095D01*
X90011009Y-84738095D02*
X90058628Y-84833333D01*
X90058628Y-84833333D02*
X90058628Y-85214285D01*
X89630057Y-84261904D02*
X89582438Y-84214285D01*
X89582438Y-84214285D02*
X89534819Y-84119047D01*
X89534819Y-84119047D02*
X89534819Y-83880952D01*
X89534819Y-83880952D02*
X89582438Y-83785714D01*
X89582438Y-83785714D02*
X89630057Y-83738095D01*
X89630057Y-83738095D02*
X89725295Y-83690476D01*
X89725295Y-83690476D02*
X89820533Y-83690476D01*
X89820533Y-83690476D02*
X89963390Y-83738095D01*
X89963390Y-83738095D02*
X90534819Y-84309523D01*
X90534819Y-84309523D02*
X90534819Y-83690476D01*
X90534819Y-82738095D02*
X90534819Y-83309523D01*
X90534819Y-83023809D02*
X89534819Y-83023809D01*
X89534819Y-83023809D02*
X89677676Y-83119047D01*
X89677676Y-83119047D02*
X89772914Y-83214285D01*
X89772914Y-83214285D02*
X89820533Y-83309523D01*
X95166666Y-121704819D02*
X95166666Y-122419104D01*
X95166666Y-122419104D02*
X95119047Y-122561961D01*
X95119047Y-122561961D02*
X95023809Y-122657200D01*
X95023809Y-122657200D02*
X94880952Y-122704819D01*
X94880952Y-122704819D02*
X94785714Y-122704819D01*
X96166666Y-122704819D02*
X95595238Y-122704819D01*
X95880952Y-122704819D02*
X95880952Y-121704819D01*
X95880952Y-121704819D02*
X95785714Y-121847676D01*
X95785714Y-121847676D02*
X95690476Y-121942914D01*
X95690476Y-121942914D02*
X95595238Y-121990533D01*
X87859580Y-58642857D02*
X87907200Y-58690476D01*
X87907200Y-58690476D02*
X87954819Y-58833333D01*
X87954819Y-58833333D02*
X87954819Y-58928571D01*
X87954819Y-58928571D02*
X87907200Y-59071428D01*
X87907200Y-59071428D02*
X87811961Y-59166666D01*
X87811961Y-59166666D02*
X87716723Y-59214285D01*
X87716723Y-59214285D02*
X87526247Y-59261904D01*
X87526247Y-59261904D02*
X87383390Y-59261904D01*
X87383390Y-59261904D02*
X87192914Y-59214285D01*
X87192914Y-59214285D02*
X87097676Y-59166666D01*
X87097676Y-59166666D02*
X87002438Y-59071428D01*
X87002438Y-59071428D02*
X86954819Y-58928571D01*
X86954819Y-58928571D02*
X86954819Y-58833333D01*
X86954819Y-58833333D02*
X87002438Y-58690476D01*
X87002438Y-58690476D02*
X87050057Y-58642857D01*
X87954819Y-57690476D02*
X87954819Y-58261904D01*
X87954819Y-57976190D02*
X86954819Y-57976190D01*
X86954819Y-57976190D02*
X87097676Y-58071428D01*
X87097676Y-58071428D02*
X87192914Y-58166666D01*
X87192914Y-58166666D02*
X87240533Y-58261904D01*
X86954819Y-57357142D02*
X86954819Y-56738095D01*
X86954819Y-56738095D02*
X87335771Y-57071428D01*
X87335771Y-57071428D02*
X87335771Y-56928571D01*
X87335771Y-56928571D02*
X87383390Y-56833333D01*
X87383390Y-56833333D02*
X87431009Y-56785714D01*
X87431009Y-56785714D02*
X87526247Y-56738095D01*
X87526247Y-56738095D02*
X87764342Y-56738095D01*
X87764342Y-56738095D02*
X87859580Y-56785714D01*
X87859580Y-56785714D02*
X87907200Y-56833333D01*
X87907200Y-56833333D02*
X87954819Y-56928571D01*
X87954819Y-56928571D02*
X87954819Y-57214285D01*
X87954819Y-57214285D02*
X87907200Y-57309523D01*
X87907200Y-57309523D02*
X87859580Y-57357142D01*
X78317142Y-109874819D02*
X77983809Y-109398628D01*
X77745714Y-109874819D02*
X77745714Y-108874819D01*
X77745714Y-108874819D02*
X78126666Y-108874819D01*
X78126666Y-108874819D02*
X78221904Y-108922438D01*
X78221904Y-108922438D02*
X78269523Y-108970057D01*
X78269523Y-108970057D02*
X78317142Y-109065295D01*
X78317142Y-109065295D02*
X78317142Y-109208152D01*
X78317142Y-109208152D02*
X78269523Y-109303390D01*
X78269523Y-109303390D02*
X78221904Y-109351009D01*
X78221904Y-109351009D02*
X78126666Y-109398628D01*
X78126666Y-109398628D02*
X77745714Y-109398628D01*
X79269523Y-109874819D02*
X78698095Y-109874819D01*
X78983809Y-109874819D02*
X78983809Y-108874819D01*
X78983809Y-108874819D02*
X78888571Y-109017676D01*
X78888571Y-109017676D02*
X78793333Y-109112914D01*
X78793333Y-109112914D02*
X78698095Y-109160533D01*
X79602857Y-108874819D02*
X80269523Y-108874819D01*
X80269523Y-108874819D02*
X79840952Y-109874819D01*
X55190476Y-88894819D02*
X55190476Y-89609104D01*
X55190476Y-89609104D02*
X55142857Y-89751961D01*
X55142857Y-89751961D02*
X55047619Y-89847200D01*
X55047619Y-89847200D02*
X54904762Y-89894819D01*
X54904762Y-89894819D02*
X54809524Y-89894819D01*
X56190476Y-89894819D02*
X55619048Y-89894819D01*
X55904762Y-89894819D02*
X55904762Y-88894819D01*
X55904762Y-88894819D02*
X55809524Y-89037676D01*
X55809524Y-89037676D02*
X55714286Y-89132914D01*
X55714286Y-89132914D02*
X55619048Y-89180533D01*
X56523810Y-88894819D02*
X57142857Y-88894819D01*
X57142857Y-88894819D02*
X56809524Y-89275771D01*
X56809524Y-89275771D02*
X56952381Y-89275771D01*
X56952381Y-89275771D02*
X57047619Y-89323390D01*
X57047619Y-89323390D02*
X57095238Y-89371009D01*
X57095238Y-89371009D02*
X57142857Y-89466247D01*
X57142857Y-89466247D02*
X57142857Y-89704342D01*
X57142857Y-89704342D02*
X57095238Y-89799580D01*
X57095238Y-89799580D02*
X57047619Y-89847200D01*
X57047619Y-89847200D02*
X56952381Y-89894819D01*
X56952381Y-89894819D02*
X56666667Y-89894819D01*
X56666667Y-89894819D02*
X56571429Y-89847200D01*
X56571429Y-89847200D02*
X56523810Y-89799580D01*
D12*
%TO.C,C1*%
X60130000Y-55630000D02*
X62870000Y-55630000D01*
X60130000Y-60870000D02*
X60130000Y-55630000D01*
X60130000Y-60870000D02*
X62870000Y-60870000D01*
X62870000Y-60870000D02*
X62870000Y-55630000D01*
%TO.C,C2*%
X55130000Y-55630000D02*
X57870000Y-55630000D01*
X55130000Y-60870000D02*
X55130000Y-55630000D01*
X55130000Y-60870000D02*
X57870000Y-60870000D01*
X57870000Y-60870000D02*
X57870000Y-55630000D01*
%TO.C,C3*%
X50130000Y-55630000D02*
X52870000Y-55630000D01*
X50130000Y-60870000D02*
X50130000Y-55630000D01*
X50130000Y-60870000D02*
X52870000Y-60870000D01*
X52870000Y-60870000D02*
X52870000Y-55630000D01*
%TO.C,C4*%
X45130000Y-55630000D02*
X47870000Y-55630000D01*
X45130000Y-60870000D02*
X45130000Y-55630000D01*
X45130000Y-60870000D02*
X47870000Y-60870000D01*
X47870000Y-60870000D02*
X47870000Y-55630000D01*
%TO.C,C5*%
X65130000Y-55630000D02*
X67870000Y-55630000D01*
X65130000Y-60870000D02*
X65130000Y-55630000D01*
X65130000Y-60870000D02*
X67870000Y-60870000D01*
X67870000Y-60870000D02*
X67870000Y-55630000D01*
%TO.C,C8*%
X53630000Y-114370000D02*
X53630000Y-111630000D01*
X58870000Y-111630000D02*
X53630000Y-111630000D01*
X58870000Y-114370000D02*
X53630000Y-114370000D01*
X58870000Y-114370000D02*
X58870000Y-111630000D01*
%TO.C,D4*%
X47420000Y-98000000D02*
X48070000Y-98000000D01*
X48070000Y-96880000D02*
X48070000Y-99120000D01*
X48070000Y-99120000D02*
X52310000Y-99120000D01*
X48670000Y-96880000D02*
X48670000Y-99120000D01*
X48790000Y-96880000D02*
X48790000Y-99120000D01*
X48910000Y-96880000D02*
X48910000Y-99120000D01*
X52310000Y-96880000D02*
X48070000Y-96880000D01*
X52310000Y-99120000D02*
X52310000Y-96880000D01*
X52960000Y-98000000D02*
X52310000Y-98000000D01*
%TO.C,D5*%
X60040000Y-98000000D02*
X60690000Y-98000000D01*
X60690000Y-96880000D02*
X60690000Y-99120000D01*
X60690000Y-99120000D02*
X64930000Y-99120000D01*
X61290000Y-96880000D02*
X61290000Y-99120000D01*
X61410000Y-96880000D02*
X61410000Y-99120000D01*
X61530000Y-96880000D02*
X61530000Y-99120000D01*
X64930000Y-96880000D02*
X60690000Y-96880000D01*
X64930000Y-99120000D02*
X64930000Y-96880000D01*
X65580000Y-98000000D02*
X64930000Y-98000000D01*
%TO.C,R11*%
X48830000Y-81790000D02*
X48830000Y-85630000D01*
X50670000Y-81790000D02*
X50670000Y-85630000D01*
%TO.C,R5*%
X43080000Y-68380000D02*
X43080000Y-64540000D01*
X44920000Y-68380000D02*
X44920000Y-64540000D01*
%TO.C,R6*%
X58380000Y-63080000D02*
X54540000Y-63080000D01*
X58380000Y-64920000D02*
X54540000Y-64920000D01*
%TO.C,R7*%
X47080000Y-64620000D02*
X47080000Y-68460000D01*
X48920000Y-64620000D02*
X48920000Y-68460000D01*
%TO.C,R2*%
X50040000Y-107080000D02*
X53880000Y-107080000D01*
X50040000Y-108920000D02*
X53880000Y-108920000D01*
%TO.C,R4*%
X45580000Y-105620000D02*
X45580000Y-109460000D01*
X47420000Y-105620000D02*
X47420000Y-109460000D01*
%TO.C,R8*%
X68080000Y-64620000D02*
X68080000Y-68460000D01*
X69920000Y-64620000D02*
X69920000Y-68460000D01*
%TO.C,R9*%
X45040000Y-90080000D02*
X48880000Y-90080000D01*
X45040000Y-91920000D02*
X48880000Y-91920000D01*
%TO.C,R10*%
X61960000Y-107080000D02*
X58120000Y-107080000D01*
X61960000Y-108920000D02*
X58120000Y-108920000D01*
%TO.C,D2*%
X47540000Y-102000000D02*
X48190000Y-102000000D01*
X48190000Y-100880000D02*
X48190000Y-103120000D01*
X48190000Y-103120000D02*
X52430000Y-103120000D01*
X48790000Y-100880000D02*
X48790000Y-103120000D01*
X48910000Y-100880000D02*
X48910000Y-103120000D01*
X49030000Y-100880000D02*
X49030000Y-103120000D01*
X52430000Y-100880000D02*
X48190000Y-100880000D01*
X52430000Y-103120000D02*
X52430000Y-100880000D01*
X53080000Y-102000000D02*
X52430000Y-102000000D01*
%TO.C,D3*%
X60040000Y-102000000D02*
X60690000Y-102000000D01*
X60690000Y-100880000D02*
X60690000Y-103120000D01*
X60690000Y-103120000D02*
X64930000Y-103120000D01*
X61290000Y-100880000D02*
X61290000Y-103120000D01*
X61410000Y-100880000D02*
X61410000Y-103120000D01*
X61530000Y-100880000D02*
X61530000Y-103120000D01*
X64930000Y-100880000D02*
X60690000Y-100880000D01*
X64930000Y-103120000D02*
X64930000Y-100880000D01*
X65580000Y-102000000D02*
X64930000Y-102000000D01*
%TO.C,R3*%
X65580000Y-105120000D02*
X65580000Y-108960000D01*
X67420000Y-105120000D02*
X67420000Y-108960000D01*
%TO.C,R12*%
X63620000Y-90080000D02*
X67460000Y-90080000D01*
X63620000Y-91920000D02*
X67460000Y-91920000D01*
%TO.C,R13*%
X54580000Y-81540000D02*
X54580000Y-85380000D01*
X56420000Y-81540000D02*
X56420000Y-85380000D01*
%TO.C,C6*%
X44130000Y-80630000D02*
X46870000Y-80630000D01*
X44130000Y-85870000D02*
X44130000Y-80630000D01*
X44130000Y-85870000D02*
X46870000Y-85870000D01*
X46870000Y-85870000D02*
X46870000Y-80630000D01*
%TO.C,C9*%
X58380000Y-80630000D02*
X61120000Y-80630000D01*
X58380000Y-85870000D02*
X58380000Y-80630000D01*
X58380000Y-85870000D02*
X61120000Y-85870000D01*
X61120000Y-85870000D02*
X61120000Y-80630000D01*
%TO.C,C7*%
X42840302Y-72185000D02*
X43640302Y-72185000D01*
X43240302Y-71785000D02*
X43240302Y-72585000D01*
X47250000Y-70420000D02*
X47250000Y-78580000D01*
X47290000Y-70420000D02*
X47290000Y-78580000D01*
X47330000Y-70420000D02*
X47330000Y-78580000D01*
X47370000Y-70421000D02*
X47370000Y-78579000D01*
X47410000Y-70423000D02*
X47410000Y-78577000D01*
X47450000Y-70424000D02*
X47450000Y-78576000D01*
X47490000Y-70426000D02*
X47490000Y-78574000D01*
X47530000Y-70429000D02*
X47530000Y-78571000D01*
X47570000Y-70432000D02*
X47570000Y-78568000D01*
X47610000Y-70435000D02*
X47610000Y-78565000D01*
X47650000Y-70439000D02*
X47650000Y-78561000D01*
X47690000Y-70443000D02*
X47690000Y-78557000D01*
X47730000Y-70448000D02*
X47730000Y-78552000D01*
X47770000Y-70452000D02*
X47770000Y-78548000D01*
X47810000Y-70458000D02*
X47810000Y-78542000D01*
X47850000Y-70463000D02*
X47850000Y-78537000D01*
X47890000Y-70470000D02*
X47890000Y-78530000D01*
X47930000Y-70476000D02*
X47930000Y-78524000D01*
X47971000Y-70483000D02*
X47971000Y-73460000D01*
X47971000Y-75540000D02*
X47971000Y-78517000D01*
X48011000Y-70490000D02*
X48011000Y-73460000D01*
X48011000Y-75540000D02*
X48011000Y-78510000D01*
X48051000Y-70498000D02*
X48051000Y-73460000D01*
X48051000Y-75540000D02*
X48051000Y-78502000D01*
X48091000Y-70506000D02*
X48091000Y-73460000D01*
X48091000Y-75540000D02*
X48091000Y-78494000D01*
X48131000Y-70515000D02*
X48131000Y-73460000D01*
X48131000Y-75540000D02*
X48131000Y-78485000D01*
X48171000Y-70524000D02*
X48171000Y-73460000D01*
X48171000Y-75540000D02*
X48171000Y-78476000D01*
X48211000Y-70533000D02*
X48211000Y-73460000D01*
X48211000Y-75540000D02*
X48211000Y-78467000D01*
X48251000Y-70543000D02*
X48251000Y-73460000D01*
X48251000Y-75540000D02*
X48251000Y-78457000D01*
X48291000Y-70553000D02*
X48291000Y-73460000D01*
X48291000Y-75540000D02*
X48291000Y-78447000D01*
X48331000Y-70564000D02*
X48331000Y-73460000D01*
X48331000Y-75540000D02*
X48331000Y-78436000D01*
X48371000Y-70575000D02*
X48371000Y-73460000D01*
X48371000Y-75540000D02*
X48371000Y-78425000D01*
X48411000Y-70586000D02*
X48411000Y-73460000D01*
X48411000Y-75540000D02*
X48411000Y-78414000D01*
X48451000Y-70598000D02*
X48451000Y-73460000D01*
X48451000Y-75540000D02*
X48451000Y-78402000D01*
X48491000Y-70611000D02*
X48491000Y-73460000D01*
X48491000Y-75540000D02*
X48491000Y-78389000D01*
X48531000Y-70623000D02*
X48531000Y-73460000D01*
X48531000Y-75540000D02*
X48531000Y-78377000D01*
X48571000Y-70637000D02*
X48571000Y-73460000D01*
X48571000Y-75540000D02*
X48571000Y-78363000D01*
X48611000Y-70650000D02*
X48611000Y-73460000D01*
X48611000Y-75540000D02*
X48611000Y-78350000D01*
X48651000Y-70665000D02*
X48651000Y-73460000D01*
X48651000Y-75540000D02*
X48651000Y-78335000D01*
X48691000Y-70679000D02*
X48691000Y-73460000D01*
X48691000Y-75540000D02*
X48691000Y-78321000D01*
X48731000Y-70695000D02*
X48731000Y-73460000D01*
X48731000Y-75540000D02*
X48731000Y-78305000D01*
X48771000Y-70710000D02*
X48771000Y-73460000D01*
X48771000Y-75540000D02*
X48771000Y-78290000D01*
X48811000Y-70726000D02*
X48811000Y-73460000D01*
X48811000Y-75540000D02*
X48811000Y-78274000D01*
X48851000Y-70743000D02*
X48851000Y-73460000D01*
X48851000Y-75540000D02*
X48851000Y-78257000D01*
X48891000Y-70760000D02*
X48891000Y-73460000D01*
X48891000Y-75540000D02*
X48891000Y-78240000D01*
X48931000Y-70778000D02*
X48931000Y-73460000D01*
X48931000Y-75540000D02*
X48931000Y-78222000D01*
X48971000Y-70796000D02*
X48971000Y-73460000D01*
X48971000Y-75540000D02*
X48971000Y-78204000D01*
X49011000Y-70814000D02*
X49011000Y-73460000D01*
X49011000Y-75540000D02*
X49011000Y-78186000D01*
X49051000Y-70834000D02*
X49051000Y-73460000D01*
X49051000Y-75540000D02*
X49051000Y-78166000D01*
X49091000Y-70853000D02*
X49091000Y-73460000D01*
X49091000Y-75540000D02*
X49091000Y-78147000D01*
X49131000Y-70873000D02*
X49131000Y-73460000D01*
X49131000Y-75540000D02*
X49131000Y-78127000D01*
X49171000Y-70894000D02*
X49171000Y-73460000D01*
X49171000Y-75540000D02*
X49171000Y-78106000D01*
X49211000Y-70916000D02*
X49211000Y-73460000D01*
X49211000Y-75540000D02*
X49211000Y-78084000D01*
X49251000Y-70938000D02*
X49251000Y-73460000D01*
X49251000Y-75540000D02*
X49251000Y-78062000D01*
X49291000Y-70960000D02*
X49291000Y-73460000D01*
X49291000Y-75540000D02*
X49291000Y-78040000D01*
X49331000Y-70983000D02*
X49331000Y-73460000D01*
X49331000Y-75540000D02*
X49331000Y-78017000D01*
X49371000Y-71007000D02*
X49371000Y-73460000D01*
X49371000Y-75540000D02*
X49371000Y-77993000D01*
X49411000Y-71031000D02*
X49411000Y-73460000D01*
X49411000Y-75540000D02*
X49411000Y-77969000D01*
X49451000Y-71056000D02*
X49451000Y-73460000D01*
X49451000Y-75540000D02*
X49451000Y-77944000D01*
X49491000Y-71082000D02*
X49491000Y-73460000D01*
X49491000Y-75540000D02*
X49491000Y-77918000D01*
X49531000Y-71108000D02*
X49531000Y-73460000D01*
X49531000Y-75540000D02*
X49531000Y-77892000D01*
X49571000Y-71135000D02*
X49571000Y-73460000D01*
X49571000Y-75540000D02*
X49571000Y-77865000D01*
X49611000Y-71162000D02*
X49611000Y-73460000D01*
X49611000Y-75540000D02*
X49611000Y-77838000D01*
X49651000Y-71191000D02*
X49651000Y-73460000D01*
X49651000Y-75540000D02*
X49651000Y-77809000D01*
X49691000Y-71220000D02*
X49691000Y-73460000D01*
X49691000Y-75540000D02*
X49691000Y-77780000D01*
X49731000Y-71250000D02*
X49731000Y-73460000D01*
X49731000Y-75540000D02*
X49731000Y-77750000D01*
X49771000Y-71280000D02*
X49771000Y-73460000D01*
X49771000Y-75540000D02*
X49771000Y-77720000D01*
X49811000Y-71311000D02*
X49811000Y-73460000D01*
X49811000Y-75540000D02*
X49811000Y-77689000D01*
X49851000Y-71344000D02*
X49851000Y-73460000D01*
X49851000Y-75540000D02*
X49851000Y-77656000D01*
X49891000Y-71376000D02*
X49891000Y-73460000D01*
X49891000Y-75540000D02*
X49891000Y-77624000D01*
X49931000Y-71410000D02*
X49931000Y-73460000D01*
X49931000Y-75540000D02*
X49931000Y-77590000D01*
X49971000Y-71445000D02*
X49971000Y-73460000D01*
X49971000Y-75540000D02*
X49971000Y-77555000D01*
X50011000Y-71481000D02*
X50011000Y-73460000D01*
X50011000Y-75540000D02*
X50011000Y-77519000D01*
X50051000Y-71517000D02*
X50051000Y-77483000D01*
X50091000Y-71555000D02*
X50091000Y-77445000D01*
X50131000Y-71593000D02*
X50131000Y-77407000D01*
X50171000Y-71633000D02*
X50171000Y-77367000D01*
X50211000Y-71674000D02*
X50211000Y-77326000D01*
X50251000Y-71716000D02*
X50251000Y-77284000D01*
X50291000Y-71759000D02*
X50291000Y-77241000D01*
X50331000Y-71803000D02*
X50331000Y-77197000D01*
X50371000Y-71849000D02*
X50371000Y-77151000D01*
X50411000Y-71896000D02*
X50411000Y-77104000D01*
X50451000Y-71944000D02*
X50451000Y-77056000D01*
X50491000Y-71995000D02*
X50491000Y-77005000D01*
X50531000Y-72046000D02*
X50531000Y-76954000D01*
X50571000Y-72100000D02*
X50571000Y-76900000D01*
X50611000Y-72155000D02*
X50611000Y-76845000D01*
X50651000Y-72213000D02*
X50651000Y-76787000D01*
X50691000Y-72272000D02*
X50691000Y-76728000D01*
X50731000Y-72334000D02*
X50731000Y-76666000D01*
X50771000Y-72398000D02*
X50771000Y-76602000D01*
X50811000Y-72466000D02*
X50811000Y-76534000D01*
X50851000Y-72536000D02*
X50851000Y-76464000D01*
X50891000Y-72610000D02*
X50891000Y-76390000D01*
X50931000Y-72687000D02*
X50931000Y-76313000D01*
X50971000Y-72769000D02*
X50971000Y-76231000D01*
X51011000Y-72855000D02*
X51011000Y-76145000D01*
X51051000Y-72948000D02*
X51051000Y-76052000D01*
X51091000Y-73047000D02*
X51091000Y-75953000D01*
X51131000Y-73154000D02*
X51131000Y-75846000D01*
X51171000Y-73271000D02*
X51171000Y-75729000D01*
X51211000Y-73402000D02*
X51211000Y-75598000D01*
X51251000Y-73552000D02*
X51251000Y-75448000D01*
X51291000Y-73732000D02*
X51291000Y-75268000D01*
X51331000Y-73967000D02*
X51331000Y-75033000D01*
X51370000Y-74500000D02*
G75*
G02*
X43130000Y-74500000I-4120000J0D01*
G01*
X43130000Y-74500000D02*
G75*
G02*
X51370000Y-74500000I4120000J0D01*
G01*
%TO.C,C10*%
X53340302Y-72185000D02*
X54140302Y-72185000D01*
X53740302Y-71785000D02*
X53740302Y-72585000D01*
X57750000Y-70420000D02*
X57750000Y-78580000D01*
X57790000Y-70420000D02*
X57790000Y-78580000D01*
X57830000Y-70420000D02*
X57830000Y-78580000D01*
X57870000Y-70421000D02*
X57870000Y-78579000D01*
X57910000Y-70423000D02*
X57910000Y-78577000D01*
X57950000Y-70424000D02*
X57950000Y-78576000D01*
X57990000Y-70426000D02*
X57990000Y-78574000D01*
X58030000Y-70429000D02*
X58030000Y-78571000D01*
X58070000Y-70432000D02*
X58070000Y-78568000D01*
X58110000Y-70435000D02*
X58110000Y-78565000D01*
X58150000Y-70439000D02*
X58150000Y-78561000D01*
X58190000Y-70443000D02*
X58190000Y-78557000D01*
X58230000Y-70448000D02*
X58230000Y-78552000D01*
X58270000Y-70452000D02*
X58270000Y-78548000D01*
X58310000Y-70458000D02*
X58310000Y-78542000D01*
X58350000Y-70463000D02*
X58350000Y-78537000D01*
X58390000Y-70470000D02*
X58390000Y-78530000D01*
X58430000Y-70476000D02*
X58430000Y-78524000D01*
X58471000Y-70483000D02*
X58471000Y-73460000D01*
X58471000Y-75540000D02*
X58471000Y-78517000D01*
X58511000Y-70490000D02*
X58511000Y-73460000D01*
X58511000Y-75540000D02*
X58511000Y-78510000D01*
X58551000Y-70498000D02*
X58551000Y-73460000D01*
X58551000Y-75540000D02*
X58551000Y-78502000D01*
X58591000Y-70506000D02*
X58591000Y-73460000D01*
X58591000Y-75540000D02*
X58591000Y-78494000D01*
X58631000Y-70515000D02*
X58631000Y-73460000D01*
X58631000Y-75540000D02*
X58631000Y-78485000D01*
X58671000Y-70524000D02*
X58671000Y-73460000D01*
X58671000Y-75540000D02*
X58671000Y-78476000D01*
X58711000Y-70533000D02*
X58711000Y-73460000D01*
X58711000Y-75540000D02*
X58711000Y-78467000D01*
X58751000Y-70543000D02*
X58751000Y-73460000D01*
X58751000Y-75540000D02*
X58751000Y-78457000D01*
X58791000Y-70553000D02*
X58791000Y-73460000D01*
X58791000Y-75540000D02*
X58791000Y-78447000D01*
X58831000Y-70564000D02*
X58831000Y-73460000D01*
X58831000Y-75540000D02*
X58831000Y-78436000D01*
X58871000Y-70575000D02*
X58871000Y-73460000D01*
X58871000Y-75540000D02*
X58871000Y-78425000D01*
X58911000Y-70586000D02*
X58911000Y-73460000D01*
X58911000Y-75540000D02*
X58911000Y-78414000D01*
X58951000Y-70598000D02*
X58951000Y-73460000D01*
X58951000Y-75540000D02*
X58951000Y-78402000D01*
X58991000Y-70611000D02*
X58991000Y-73460000D01*
X58991000Y-75540000D02*
X58991000Y-78389000D01*
X59031000Y-70623000D02*
X59031000Y-73460000D01*
X59031000Y-75540000D02*
X59031000Y-78377000D01*
X59071000Y-70637000D02*
X59071000Y-73460000D01*
X59071000Y-75540000D02*
X59071000Y-78363000D01*
X59111000Y-70650000D02*
X59111000Y-73460000D01*
X59111000Y-75540000D02*
X59111000Y-78350000D01*
X59151000Y-70665000D02*
X59151000Y-73460000D01*
X59151000Y-75540000D02*
X59151000Y-78335000D01*
X59191000Y-70679000D02*
X59191000Y-73460000D01*
X59191000Y-75540000D02*
X59191000Y-78321000D01*
X59231000Y-70695000D02*
X59231000Y-73460000D01*
X59231000Y-75540000D02*
X59231000Y-78305000D01*
X59271000Y-70710000D02*
X59271000Y-73460000D01*
X59271000Y-75540000D02*
X59271000Y-78290000D01*
X59311000Y-70726000D02*
X59311000Y-73460000D01*
X59311000Y-75540000D02*
X59311000Y-78274000D01*
X59351000Y-70743000D02*
X59351000Y-73460000D01*
X59351000Y-75540000D02*
X59351000Y-78257000D01*
X59391000Y-70760000D02*
X59391000Y-73460000D01*
X59391000Y-75540000D02*
X59391000Y-78240000D01*
X59431000Y-70778000D02*
X59431000Y-73460000D01*
X59431000Y-75540000D02*
X59431000Y-78222000D01*
X59471000Y-70796000D02*
X59471000Y-73460000D01*
X59471000Y-75540000D02*
X59471000Y-78204000D01*
X59511000Y-70814000D02*
X59511000Y-73460000D01*
X59511000Y-75540000D02*
X59511000Y-78186000D01*
X59551000Y-70834000D02*
X59551000Y-73460000D01*
X59551000Y-75540000D02*
X59551000Y-78166000D01*
X59591000Y-70853000D02*
X59591000Y-73460000D01*
X59591000Y-75540000D02*
X59591000Y-78147000D01*
X59631000Y-70873000D02*
X59631000Y-73460000D01*
X59631000Y-75540000D02*
X59631000Y-78127000D01*
X59671000Y-70894000D02*
X59671000Y-73460000D01*
X59671000Y-75540000D02*
X59671000Y-78106000D01*
X59711000Y-70916000D02*
X59711000Y-73460000D01*
X59711000Y-75540000D02*
X59711000Y-78084000D01*
X59751000Y-70938000D02*
X59751000Y-73460000D01*
X59751000Y-75540000D02*
X59751000Y-78062000D01*
X59791000Y-70960000D02*
X59791000Y-73460000D01*
X59791000Y-75540000D02*
X59791000Y-78040000D01*
X59831000Y-70983000D02*
X59831000Y-73460000D01*
X59831000Y-75540000D02*
X59831000Y-78017000D01*
X59871000Y-71007000D02*
X59871000Y-73460000D01*
X59871000Y-75540000D02*
X59871000Y-77993000D01*
X59911000Y-71031000D02*
X59911000Y-73460000D01*
X59911000Y-75540000D02*
X59911000Y-77969000D01*
X59951000Y-71056000D02*
X59951000Y-73460000D01*
X59951000Y-75540000D02*
X59951000Y-77944000D01*
X59991000Y-71082000D02*
X59991000Y-73460000D01*
X59991000Y-75540000D02*
X59991000Y-77918000D01*
X60031000Y-71108000D02*
X60031000Y-73460000D01*
X60031000Y-75540000D02*
X60031000Y-77892000D01*
X60071000Y-71135000D02*
X60071000Y-73460000D01*
X60071000Y-75540000D02*
X60071000Y-77865000D01*
X60111000Y-71162000D02*
X60111000Y-73460000D01*
X60111000Y-75540000D02*
X60111000Y-77838000D01*
X60151000Y-71191000D02*
X60151000Y-73460000D01*
X60151000Y-75540000D02*
X60151000Y-77809000D01*
X60191000Y-71220000D02*
X60191000Y-73460000D01*
X60191000Y-75540000D02*
X60191000Y-77780000D01*
X60231000Y-71250000D02*
X60231000Y-73460000D01*
X60231000Y-75540000D02*
X60231000Y-77750000D01*
X60271000Y-71280000D02*
X60271000Y-73460000D01*
X60271000Y-75540000D02*
X60271000Y-77720000D01*
X60311000Y-71311000D02*
X60311000Y-73460000D01*
X60311000Y-75540000D02*
X60311000Y-77689000D01*
X60351000Y-71344000D02*
X60351000Y-73460000D01*
X60351000Y-75540000D02*
X60351000Y-77656000D01*
X60391000Y-71376000D02*
X60391000Y-73460000D01*
X60391000Y-75540000D02*
X60391000Y-77624000D01*
X60431000Y-71410000D02*
X60431000Y-73460000D01*
X60431000Y-75540000D02*
X60431000Y-77590000D01*
X60471000Y-71445000D02*
X60471000Y-73460000D01*
X60471000Y-75540000D02*
X60471000Y-77555000D01*
X60511000Y-71481000D02*
X60511000Y-73460000D01*
X60511000Y-75540000D02*
X60511000Y-77519000D01*
X60551000Y-71517000D02*
X60551000Y-77483000D01*
X60591000Y-71555000D02*
X60591000Y-77445000D01*
X60631000Y-71593000D02*
X60631000Y-77407000D01*
X60671000Y-71633000D02*
X60671000Y-77367000D01*
X60711000Y-71674000D02*
X60711000Y-77326000D01*
X60751000Y-71716000D02*
X60751000Y-77284000D01*
X60791000Y-71759000D02*
X60791000Y-77241000D01*
X60831000Y-71803000D02*
X60831000Y-77197000D01*
X60871000Y-71849000D02*
X60871000Y-77151000D01*
X60911000Y-71896000D02*
X60911000Y-77104000D01*
X60951000Y-71944000D02*
X60951000Y-77056000D01*
X60991000Y-71995000D02*
X60991000Y-77005000D01*
X61031000Y-72046000D02*
X61031000Y-76954000D01*
X61071000Y-72100000D02*
X61071000Y-76900000D01*
X61111000Y-72155000D02*
X61111000Y-76845000D01*
X61151000Y-72213000D02*
X61151000Y-76787000D01*
X61191000Y-72272000D02*
X61191000Y-76728000D01*
X61231000Y-72334000D02*
X61231000Y-76666000D01*
X61271000Y-72398000D02*
X61271000Y-76602000D01*
X61311000Y-72466000D02*
X61311000Y-76534000D01*
X61351000Y-72536000D02*
X61351000Y-76464000D01*
X61391000Y-72610000D02*
X61391000Y-76390000D01*
X61431000Y-72687000D02*
X61431000Y-76313000D01*
X61471000Y-72769000D02*
X61471000Y-76231000D01*
X61511000Y-72855000D02*
X61511000Y-76145000D01*
X61551000Y-72948000D02*
X61551000Y-76052000D01*
X61591000Y-73047000D02*
X61591000Y-75953000D01*
X61631000Y-73154000D02*
X61631000Y-75846000D01*
X61671000Y-73271000D02*
X61671000Y-75729000D01*
X61711000Y-73402000D02*
X61711000Y-75598000D01*
X61751000Y-73552000D02*
X61751000Y-75448000D01*
X61791000Y-73732000D02*
X61791000Y-75268000D01*
X61831000Y-73967000D02*
X61831000Y-75033000D01*
X61870000Y-74500000D02*
G75*
G02*
X53630000Y-74500000I-4120000J0D01*
G01*
X53630000Y-74500000D02*
G75*
G02*
X61870000Y-74500000I4120000J0D01*
G01*
%TO.C,J3*%
X52805000Y-90315000D02*
X53500000Y-90315000D01*
X52805000Y-91000000D02*
X52805000Y-90315000D01*
X52805000Y-91685000D02*
X52805000Y-91560000D01*
X52805000Y-91685000D02*
X52891724Y-91685000D01*
X52805000Y-91685000D02*
X54195000Y-91685000D01*
X54108276Y-91685000D02*
X54195000Y-91685000D01*
X54195000Y-91685000D02*
X54195000Y-91560000D01*
%TO.C,J6*%
X86305000Y-89315000D02*
X87000000Y-89315000D01*
X86305000Y-90000000D02*
X86305000Y-89315000D01*
X86305000Y-90685000D02*
X86305000Y-90560000D01*
X86305000Y-90685000D02*
X86391724Y-90685000D01*
X86305000Y-90685000D02*
X87695000Y-90685000D01*
X87608276Y-90685000D02*
X87695000Y-90685000D01*
X87695000Y-90685000D02*
X87695000Y-90560000D01*
%TO.C,R14*%
X92080000Y-104540000D02*
X92080000Y-108380000D01*
X93920000Y-104540000D02*
X93920000Y-108380000D01*
%TO.C,C19*%
X73130000Y-55630000D02*
X75870000Y-55630000D01*
X73130000Y-60870000D02*
X73130000Y-55630000D01*
X73130000Y-60870000D02*
X75870000Y-60870000D01*
X75870000Y-60870000D02*
X75870000Y-55630000D01*
%TO.C,R20*%
X92580000Y-90080000D02*
X96420000Y-90080000D01*
X92580000Y-91920000D02*
X96420000Y-91920000D01*
%TO.C,U2*%
X71475000Y-73335000D02*
X69525000Y-73335000D01*
X71475000Y-73335000D02*
X73425000Y-73335000D01*
X71475000Y-82205000D02*
X69525000Y-82205000D01*
X71475000Y-82205000D02*
X73425000Y-82205000D01*
X68775000Y-73400000D02*
X68535000Y-73070000D01*
X69015000Y-73070000D01*
X68775000Y-73400000D01*
G36*
X68775000Y-73400000D02*
G01*
X68535000Y-73070000D01*
X69015000Y-73070000D01*
X68775000Y-73400000D01*
G37*
%TO.C,D9*%
X85920000Y-97960000D02*
X86570000Y-97960000D01*
X86570000Y-96840000D02*
X86570000Y-99080000D01*
X86570000Y-99080000D02*
X90810000Y-99080000D01*
X87170000Y-96840000D02*
X87170000Y-99080000D01*
X87290000Y-96840000D02*
X87290000Y-99080000D01*
X87410000Y-96840000D02*
X87410000Y-99080000D01*
X90810000Y-96840000D02*
X86570000Y-96840000D01*
X90810000Y-99080000D02*
X90810000Y-96840000D01*
X91460000Y-97960000D02*
X90810000Y-97960000D01*
%TO.C,R25*%
X73080000Y-68380000D02*
X73080000Y-64540000D01*
X74920000Y-68380000D02*
X74920000Y-64540000D01*
%TO.C,U1*%
X51340000Y-52270000D02*
X51340000Y-47629000D01*
X54609000Y-52270000D02*
X54609000Y-50760000D01*
X58310000Y-52270000D02*
X58310000Y-50760000D01*
X61580000Y-47629000D02*
X51340000Y-47629000D01*
X61580000Y-50760000D02*
X51340000Y-50760000D01*
X61580000Y-52270000D02*
X51340000Y-52270000D01*
X61580000Y-52270000D02*
X61580000Y-47629000D01*
%TO.C,U3*%
X78880000Y-52325000D02*
X78880000Y-47684000D01*
X82149000Y-52325000D02*
X82149000Y-50815000D01*
X85850000Y-52325000D02*
X85850000Y-50815000D01*
X89120000Y-47684000D02*
X78880000Y-47684000D01*
X89120000Y-50815000D02*
X78880000Y-50815000D01*
X89120000Y-52325000D02*
X78880000Y-52325000D01*
X89120000Y-52325000D02*
X89120000Y-47684000D01*
%TO.C,D8*%
X74230000Y-98040000D02*
X74880000Y-98040000D01*
X74880000Y-96920000D02*
X74880000Y-99160000D01*
X74880000Y-99160000D02*
X79120000Y-99160000D01*
X75480000Y-96920000D02*
X75480000Y-99160000D01*
X75600000Y-96920000D02*
X75600000Y-99160000D01*
X75720000Y-96920000D02*
X75720000Y-99160000D01*
X79120000Y-96920000D02*
X74880000Y-96920000D01*
X79120000Y-99160000D02*
X79120000Y-96920000D01*
X79770000Y-98040000D02*
X79120000Y-98040000D01*
%TO.C,C22*%
X82130000Y-52630000D02*
X82130000Y-55370000D01*
X82130000Y-52630000D02*
X87370000Y-52630000D01*
X82130000Y-55370000D02*
X87370000Y-55370000D01*
X87370000Y-52630000D02*
X87370000Y-55370000D01*
%TO.C,C18*%
X78130000Y-55630000D02*
X80870000Y-55630000D01*
X78130000Y-60870000D02*
X78130000Y-55630000D01*
X78130000Y-60870000D02*
X80870000Y-60870000D01*
X80870000Y-60870000D02*
X80870000Y-55630000D01*
%TO.C,R26*%
X83580000Y-63080000D02*
X87420000Y-63080000D01*
X83580000Y-64920000D02*
X87420000Y-64920000D01*
%TO.C,C12*%
X79840302Y-72685000D02*
X80640302Y-72685000D01*
X80240302Y-72285000D02*
X80240302Y-73085000D01*
X84250000Y-70920000D02*
X84250000Y-79080000D01*
X84290000Y-70920000D02*
X84290000Y-79080000D01*
X84330000Y-70920000D02*
X84330000Y-79080000D01*
X84370000Y-70921000D02*
X84370000Y-79079000D01*
X84410000Y-70923000D02*
X84410000Y-79077000D01*
X84450000Y-70924000D02*
X84450000Y-79076000D01*
X84490000Y-70926000D02*
X84490000Y-79074000D01*
X84530000Y-70929000D02*
X84530000Y-79071000D01*
X84570000Y-70932000D02*
X84570000Y-79068000D01*
X84610000Y-70935000D02*
X84610000Y-79065000D01*
X84650000Y-70939000D02*
X84650000Y-79061000D01*
X84690000Y-70943000D02*
X84690000Y-79057000D01*
X84730000Y-70948000D02*
X84730000Y-79052000D01*
X84770000Y-70952000D02*
X84770000Y-79048000D01*
X84810000Y-70958000D02*
X84810000Y-79042000D01*
X84850000Y-70963000D02*
X84850000Y-79037000D01*
X84890000Y-70970000D02*
X84890000Y-79030000D01*
X84930000Y-70976000D02*
X84930000Y-79024000D01*
X84971000Y-70983000D02*
X84971000Y-73960000D01*
X84971000Y-76040000D02*
X84971000Y-79017000D01*
X85011000Y-70990000D02*
X85011000Y-73960000D01*
X85011000Y-76040000D02*
X85011000Y-79010000D01*
X85051000Y-70998000D02*
X85051000Y-73960000D01*
X85051000Y-76040000D02*
X85051000Y-79002000D01*
X85091000Y-71006000D02*
X85091000Y-73960000D01*
X85091000Y-76040000D02*
X85091000Y-78994000D01*
X85131000Y-71015000D02*
X85131000Y-73960000D01*
X85131000Y-76040000D02*
X85131000Y-78985000D01*
X85171000Y-71024000D02*
X85171000Y-73960000D01*
X85171000Y-76040000D02*
X85171000Y-78976000D01*
X85211000Y-71033000D02*
X85211000Y-73960000D01*
X85211000Y-76040000D02*
X85211000Y-78967000D01*
X85251000Y-71043000D02*
X85251000Y-73960000D01*
X85251000Y-76040000D02*
X85251000Y-78957000D01*
X85291000Y-71053000D02*
X85291000Y-73960000D01*
X85291000Y-76040000D02*
X85291000Y-78947000D01*
X85331000Y-71064000D02*
X85331000Y-73960000D01*
X85331000Y-76040000D02*
X85331000Y-78936000D01*
X85371000Y-71075000D02*
X85371000Y-73960000D01*
X85371000Y-76040000D02*
X85371000Y-78925000D01*
X85411000Y-71086000D02*
X85411000Y-73960000D01*
X85411000Y-76040000D02*
X85411000Y-78914000D01*
X85451000Y-71098000D02*
X85451000Y-73960000D01*
X85451000Y-76040000D02*
X85451000Y-78902000D01*
X85491000Y-71111000D02*
X85491000Y-73960000D01*
X85491000Y-76040000D02*
X85491000Y-78889000D01*
X85531000Y-71123000D02*
X85531000Y-73960000D01*
X85531000Y-76040000D02*
X85531000Y-78877000D01*
X85571000Y-71137000D02*
X85571000Y-73960000D01*
X85571000Y-76040000D02*
X85571000Y-78863000D01*
X85611000Y-71150000D02*
X85611000Y-73960000D01*
X85611000Y-76040000D02*
X85611000Y-78850000D01*
X85651000Y-71165000D02*
X85651000Y-73960000D01*
X85651000Y-76040000D02*
X85651000Y-78835000D01*
X85691000Y-71179000D02*
X85691000Y-73960000D01*
X85691000Y-76040000D02*
X85691000Y-78821000D01*
X85731000Y-71195000D02*
X85731000Y-73960000D01*
X85731000Y-76040000D02*
X85731000Y-78805000D01*
X85771000Y-71210000D02*
X85771000Y-73960000D01*
X85771000Y-76040000D02*
X85771000Y-78790000D01*
X85811000Y-71226000D02*
X85811000Y-73960000D01*
X85811000Y-76040000D02*
X85811000Y-78774000D01*
X85851000Y-71243000D02*
X85851000Y-73960000D01*
X85851000Y-76040000D02*
X85851000Y-78757000D01*
X85891000Y-71260000D02*
X85891000Y-73960000D01*
X85891000Y-76040000D02*
X85891000Y-78740000D01*
X85931000Y-71278000D02*
X85931000Y-73960000D01*
X85931000Y-76040000D02*
X85931000Y-78722000D01*
X85971000Y-71296000D02*
X85971000Y-73960000D01*
X85971000Y-76040000D02*
X85971000Y-78704000D01*
X86011000Y-71314000D02*
X86011000Y-73960000D01*
X86011000Y-76040000D02*
X86011000Y-78686000D01*
X86051000Y-71334000D02*
X86051000Y-73960000D01*
X86051000Y-76040000D02*
X86051000Y-78666000D01*
X86091000Y-71353000D02*
X86091000Y-73960000D01*
X86091000Y-76040000D02*
X86091000Y-78647000D01*
X86131000Y-71373000D02*
X86131000Y-73960000D01*
X86131000Y-76040000D02*
X86131000Y-78627000D01*
X86171000Y-71394000D02*
X86171000Y-73960000D01*
X86171000Y-76040000D02*
X86171000Y-78606000D01*
X86211000Y-71416000D02*
X86211000Y-73960000D01*
X86211000Y-76040000D02*
X86211000Y-78584000D01*
X86251000Y-71438000D02*
X86251000Y-73960000D01*
X86251000Y-76040000D02*
X86251000Y-78562000D01*
X86291000Y-71460000D02*
X86291000Y-73960000D01*
X86291000Y-76040000D02*
X86291000Y-78540000D01*
X86331000Y-71483000D02*
X86331000Y-73960000D01*
X86331000Y-76040000D02*
X86331000Y-78517000D01*
X86371000Y-71507000D02*
X86371000Y-73960000D01*
X86371000Y-76040000D02*
X86371000Y-78493000D01*
X86411000Y-71531000D02*
X86411000Y-73960000D01*
X86411000Y-76040000D02*
X86411000Y-78469000D01*
X86451000Y-71556000D02*
X86451000Y-73960000D01*
X86451000Y-76040000D02*
X86451000Y-78444000D01*
X86491000Y-71582000D02*
X86491000Y-73960000D01*
X86491000Y-76040000D02*
X86491000Y-78418000D01*
X86531000Y-71608000D02*
X86531000Y-73960000D01*
X86531000Y-76040000D02*
X86531000Y-78392000D01*
X86571000Y-71635000D02*
X86571000Y-73960000D01*
X86571000Y-76040000D02*
X86571000Y-78365000D01*
X86611000Y-71662000D02*
X86611000Y-73960000D01*
X86611000Y-76040000D02*
X86611000Y-78338000D01*
X86651000Y-71691000D02*
X86651000Y-73960000D01*
X86651000Y-76040000D02*
X86651000Y-78309000D01*
X86691000Y-71720000D02*
X86691000Y-73960000D01*
X86691000Y-76040000D02*
X86691000Y-78280000D01*
X86731000Y-71750000D02*
X86731000Y-73960000D01*
X86731000Y-76040000D02*
X86731000Y-78250000D01*
X86771000Y-71780000D02*
X86771000Y-73960000D01*
X86771000Y-76040000D02*
X86771000Y-78220000D01*
X86811000Y-71811000D02*
X86811000Y-73960000D01*
X86811000Y-76040000D02*
X86811000Y-78189000D01*
X86851000Y-71844000D02*
X86851000Y-73960000D01*
X86851000Y-76040000D02*
X86851000Y-78156000D01*
X86891000Y-71876000D02*
X86891000Y-73960000D01*
X86891000Y-76040000D02*
X86891000Y-78124000D01*
X86931000Y-71910000D02*
X86931000Y-73960000D01*
X86931000Y-76040000D02*
X86931000Y-78090000D01*
X86971000Y-71945000D02*
X86971000Y-73960000D01*
X86971000Y-76040000D02*
X86971000Y-78055000D01*
X87011000Y-71981000D02*
X87011000Y-73960000D01*
X87011000Y-76040000D02*
X87011000Y-78019000D01*
X87051000Y-72017000D02*
X87051000Y-77983000D01*
X87091000Y-72055000D02*
X87091000Y-77945000D01*
X87131000Y-72093000D02*
X87131000Y-77907000D01*
X87171000Y-72133000D02*
X87171000Y-77867000D01*
X87211000Y-72174000D02*
X87211000Y-77826000D01*
X87251000Y-72216000D02*
X87251000Y-77784000D01*
X87291000Y-72259000D02*
X87291000Y-77741000D01*
X87331000Y-72303000D02*
X87331000Y-77697000D01*
X87371000Y-72349000D02*
X87371000Y-77651000D01*
X87411000Y-72396000D02*
X87411000Y-77604000D01*
X87451000Y-72444000D02*
X87451000Y-77556000D01*
X87491000Y-72495000D02*
X87491000Y-77505000D01*
X87531000Y-72546000D02*
X87531000Y-77454000D01*
X87571000Y-72600000D02*
X87571000Y-77400000D01*
X87611000Y-72655000D02*
X87611000Y-77345000D01*
X87651000Y-72713000D02*
X87651000Y-77287000D01*
X87691000Y-72772000D02*
X87691000Y-77228000D01*
X87731000Y-72834000D02*
X87731000Y-77166000D01*
X87771000Y-72898000D02*
X87771000Y-77102000D01*
X87811000Y-72966000D02*
X87811000Y-77034000D01*
X87851000Y-73036000D02*
X87851000Y-76964000D01*
X87891000Y-73110000D02*
X87891000Y-76890000D01*
X87931000Y-73187000D02*
X87931000Y-76813000D01*
X87971000Y-73269000D02*
X87971000Y-76731000D01*
X88011000Y-73355000D02*
X88011000Y-76645000D01*
X88051000Y-73448000D02*
X88051000Y-76552000D01*
X88091000Y-73547000D02*
X88091000Y-76453000D01*
X88131000Y-73654000D02*
X88131000Y-76346000D01*
X88171000Y-73771000D02*
X88171000Y-76229000D01*
X88211000Y-73902000D02*
X88211000Y-76098000D01*
X88251000Y-74052000D02*
X88251000Y-75948000D01*
X88291000Y-74232000D02*
X88291000Y-75768000D01*
X88331000Y-74467000D02*
X88331000Y-75533000D01*
X88370000Y-75000000D02*
G75*
G02*
X80130000Y-75000000I-4120000J0D01*
G01*
X80130000Y-75000000D02*
G75*
G02*
X88370000Y-75000000I4120000J0D01*
G01*
%TO.C,C20*%
X95130000Y-55380000D02*
X95130000Y-60620000D01*
X97870000Y-55380000D02*
X95130000Y-55380000D01*
X97870000Y-55380000D02*
X97870000Y-60620000D01*
X97870000Y-60620000D02*
X95130000Y-60620000D01*
%TO.C,C15*%
X90187602Y-72685000D02*
X90987602Y-72685000D01*
X90587602Y-72285000D02*
X90587602Y-73085000D01*
X94597300Y-70920000D02*
X94597300Y-79080000D01*
X94637300Y-70920000D02*
X94637300Y-79080000D01*
X94677300Y-70920000D02*
X94677300Y-79080000D01*
X94717300Y-70921000D02*
X94717300Y-79079000D01*
X94757300Y-70923000D02*
X94757300Y-79077000D01*
X94797300Y-70924000D02*
X94797300Y-79076000D01*
X94837300Y-70926000D02*
X94837300Y-79074000D01*
X94877300Y-70929000D02*
X94877300Y-79071000D01*
X94917300Y-70932000D02*
X94917300Y-79068000D01*
X94957300Y-70935000D02*
X94957300Y-79065000D01*
X94997300Y-70939000D02*
X94997300Y-79061000D01*
X95037300Y-70943000D02*
X95037300Y-79057000D01*
X95077300Y-70948000D02*
X95077300Y-79052000D01*
X95117300Y-70952000D02*
X95117300Y-79048000D01*
X95157300Y-70958000D02*
X95157300Y-79042000D01*
X95197300Y-70963000D02*
X95197300Y-79037000D01*
X95237300Y-70970000D02*
X95237300Y-79030000D01*
X95277300Y-70976000D02*
X95277300Y-79024000D01*
X95318300Y-70983000D02*
X95318300Y-73960000D01*
X95318300Y-76040000D02*
X95318300Y-79017000D01*
X95358300Y-70990000D02*
X95358300Y-73960000D01*
X95358300Y-76040000D02*
X95358300Y-79010000D01*
X95398300Y-70998000D02*
X95398300Y-73960000D01*
X95398300Y-76040000D02*
X95398300Y-79002000D01*
X95438300Y-71006000D02*
X95438300Y-73960000D01*
X95438300Y-76040000D02*
X95438300Y-78994000D01*
X95478300Y-71015000D02*
X95478300Y-73960000D01*
X95478300Y-76040000D02*
X95478300Y-78985000D01*
X95518300Y-71024000D02*
X95518300Y-73960000D01*
X95518300Y-76040000D02*
X95518300Y-78976000D01*
X95558300Y-71033000D02*
X95558300Y-73960000D01*
X95558300Y-76040000D02*
X95558300Y-78967000D01*
X95598300Y-71043000D02*
X95598300Y-73960000D01*
X95598300Y-76040000D02*
X95598300Y-78957000D01*
X95638300Y-71053000D02*
X95638300Y-73960000D01*
X95638300Y-76040000D02*
X95638300Y-78947000D01*
X95678300Y-71064000D02*
X95678300Y-73960000D01*
X95678300Y-76040000D02*
X95678300Y-78936000D01*
X95718300Y-71075000D02*
X95718300Y-73960000D01*
X95718300Y-76040000D02*
X95718300Y-78925000D01*
X95758300Y-71086000D02*
X95758300Y-73960000D01*
X95758300Y-76040000D02*
X95758300Y-78914000D01*
X95798300Y-71098000D02*
X95798300Y-73960000D01*
X95798300Y-76040000D02*
X95798300Y-78902000D01*
X95838300Y-71111000D02*
X95838300Y-73960000D01*
X95838300Y-76040000D02*
X95838300Y-78889000D01*
X95878300Y-71123000D02*
X95878300Y-73960000D01*
X95878300Y-76040000D02*
X95878300Y-78877000D01*
X95918300Y-71137000D02*
X95918300Y-73960000D01*
X95918300Y-76040000D02*
X95918300Y-78863000D01*
X95958300Y-71150000D02*
X95958300Y-73960000D01*
X95958300Y-76040000D02*
X95958300Y-78850000D01*
X95998300Y-71165000D02*
X95998300Y-73960000D01*
X95998300Y-76040000D02*
X95998300Y-78835000D01*
X96038300Y-71179000D02*
X96038300Y-73960000D01*
X96038300Y-76040000D02*
X96038300Y-78821000D01*
X96078300Y-71195000D02*
X96078300Y-73960000D01*
X96078300Y-76040000D02*
X96078300Y-78805000D01*
X96118300Y-71210000D02*
X96118300Y-73960000D01*
X96118300Y-76040000D02*
X96118300Y-78790000D01*
X96158300Y-71226000D02*
X96158300Y-73960000D01*
X96158300Y-76040000D02*
X96158300Y-78774000D01*
X96198300Y-71243000D02*
X96198300Y-73960000D01*
X96198300Y-76040000D02*
X96198300Y-78757000D01*
X96238300Y-71260000D02*
X96238300Y-73960000D01*
X96238300Y-76040000D02*
X96238300Y-78740000D01*
X96278300Y-71278000D02*
X96278300Y-73960000D01*
X96278300Y-76040000D02*
X96278300Y-78722000D01*
X96318300Y-71296000D02*
X96318300Y-73960000D01*
X96318300Y-76040000D02*
X96318300Y-78704000D01*
X96358300Y-71314000D02*
X96358300Y-73960000D01*
X96358300Y-76040000D02*
X96358300Y-78686000D01*
X96398300Y-71334000D02*
X96398300Y-73960000D01*
X96398300Y-76040000D02*
X96398300Y-78666000D01*
X96438300Y-71353000D02*
X96438300Y-73960000D01*
X96438300Y-76040000D02*
X96438300Y-78647000D01*
X96478300Y-71373000D02*
X96478300Y-73960000D01*
X96478300Y-76040000D02*
X96478300Y-78627000D01*
X96518300Y-71394000D02*
X96518300Y-73960000D01*
X96518300Y-76040000D02*
X96518300Y-78606000D01*
X96558300Y-71416000D02*
X96558300Y-73960000D01*
X96558300Y-76040000D02*
X96558300Y-78584000D01*
X96598300Y-71438000D02*
X96598300Y-73960000D01*
X96598300Y-76040000D02*
X96598300Y-78562000D01*
X96638300Y-71460000D02*
X96638300Y-73960000D01*
X96638300Y-76040000D02*
X96638300Y-78540000D01*
X96678300Y-71483000D02*
X96678300Y-73960000D01*
X96678300Y-76040000D02*
X96678300Y-78517000D01*
X96718300Y-71507000D02*
X96718300Y-73960000D01*
X96718300Y-76040000D02*
X96718300Y-78493000D01*
X96758300Y-71531000D02*
X96758300Y-73960000D01*
X96758300Y-76040000D02*
X96758300Y-78469000D01*
X96798300Y-71556000D02*
X96798300Y-73960000D01*
X96798300Y-76040000D02*
X96798300Y-78444000D01*
X96838300Y-71582000D02*
X96838300Y-73960000D01*
X96838300Y-76040000D02*
X96838300Y-78418000D01*
X96878300Y-71608000D02*
X96878300Y-73960000D01*
X96878300Y-76040000D02*
X96878300Y-78392000D01*
X96918300Y-71635000D02*
X96918300Y-73960000D01*
X96918300Y-76040000D02*
X96918300Y-78365000D01*
X96958300Y-71662000D02*
X96958300Y-73960000D01*
X96958300Y-76040000D02*
X96958300Y-78338000D01*
X96998300Y-71691000D02*
X96998300Y-73960000D01*
X96998300Y-76040000D02*
X96998300Y-78309000D01*
X97038300Y-71720000D02*
X97038300Y-73960000D01*
X97038300Y-76040000D02*
X97038300Y-78280000D01*
X97078300Y-71750000D02*
X97078300Y-73960000D01*
X97078300Y-76040000D02*
X97078300Y-78250000D01*
X97118300Y-71780000D02*
X97118300Y-73960000D01*
X97118300Y-76040000D02*
X97118300Y-78220000D01*
X97158300Y-71811000D02*
X97158300Y-73960000D01*
X97158300Y-76040000D02*
X97158300Y-78189000D01*
X97198300Y-71844000D02*
X97198300Y-73960000D01*
X97198300Y-76040000D02*
X97198300Y-78156000D01*
X97238300Y-71876000D02*
X97238300Y-73960000D01*
X97238300Y-76040000D02*
X97238300Y-78124000D01*
X97278300Y-71910000D02*
X97278300Y-73960000D01*
X97278300Y-76040000D02*
X97278300Y-78090000D01*
X97318300Y-71945000D02*
X97318300Y-73960000D01*
X97318300Y-76040000D02*
X97318300Y-78055000D01*
X97358300Y-71981000D02*
X97358300Y-73960000D01*
X97358300Y-76040000D02*
X97358300Y-78019000D01*
X97398300Y-72017000D02*
X97398300Y-77983000D01*
X97438300Y-72055000D02*
X97438300Y-77945000D01*
X97478300Y-72093000D02*
X97478300Y-77907000D01*
X97518300Y-72133000D02*
X97518300Y-77867000D01*
X97558300Y-72174000D02*
X97558300Y-77826000D01*
X97598300Y-72216000D02*
X97598300Y-77784000D01*
X97638300Y-72259000D02*
X97638300Y-77741000D01*
X97678300Y-72303000D02*
X97678300Y-77697000D01*
X97718300Y-72349000D02*
X97718300Y-77651000D01*
X97758300Y-72396000D02*
X97758300Y-77604000D01*
X97798300Y-72444000D02*
X97798300Y-77556000D01*
X97838300Y-72495000D02*
X97838300Y-77505000D01*
X97878300Y-72546000D02*
X97878300Y-77454000D01*
X97918300Y-72600000D02*
X97918300Y-77400000D01*
X97958300Y-72655000D02*
X97958300Y-77345000D01*
X97998300Y-72713000D02*
X97998300Y-77287000D01*
X98038300Y-72772000D02*
X98038300Y-77228000D01*
X98078300Y-72834000D02*
X98078300Y-77166000D01*
X98118300Y-72898000D02*
X98118300Y-77102000D01*
X98158300Y-72966000D02*
X98158300Y-77034000D01*
X98198300Y-73036000D02*
X98198300Y-76964000D01*
X98238300Y-73110000D02*
X98238300Y-76890000D01*
X98278300Y-73187000D02*
X98278300Y-76813000D01*
X98318300Y-73269000D02*
X98318300Y-76731000D01*
X98358300Y-73355000D02*
X98358300Y-76645000D01*
X98398300Y-73448000D02*
X98398300Y-76552000D01*
X98438300Y-73547000D02*
X98438300Y-76453000D01*
X98478300Y-73654000D02*
X98478300Y-76346000D01*
X98518300Y-73771000D02*
X98518300Y-76229000D01*
X98558300Y-73902000D02*
X98558300Y-76098000D01*
X98598300Y-74052000D02*
X98598300Y-75948000D01*
X98638300Y-74232000D02*
X98638300Y-75768000D01*
X98678300Y-74467000D02*
X98678300Y-75533000D01*
X98717300Y-75000000D02*
G75*
G02*
X90477300Y-75000000I-4120000J0D01*
G01*
X90477300Y-75000000D02*
G75*
G02*
X98717300Y-75000000I4120000J0D01*
G01*
%TO.C,R16*%
X88960000Y-106580000D02*
X85120000Y-106580000D01*
X88960000Y-108420000D02*
X85120000Y-108420000D01*
%TO.C,R15*%
X72080000Y-105080000D02*
X72080000Y-108920000D01*
X73920000Y-105080000D02*
X73920000Y-108920000D01*
%TO.C,R22*%
X76580000Y-68380000D02*
X76580000Y-64540000D01*
X78420000Y-68380000D02*
X78420000Y-64540000D01*
%TO.C,R24*%
X95982700Y-68380000D02*
X95982700Y-64540000D01*
X97822700Y-68380000D02*
X97822700Y-64540000D01*
%TO.C,R19*%
X83580000Y-82120000D02*
X83580000Y-85960000D01*
X85420000Y-82120000D02*
X85420000Y-85960000D01*
%TO.C,C11*%
X80630000Y-111130000D02*
X80630000Y-113870000D01*
X80630000Y-111130000D02*
X85870000Y-111130000D01*
X80630000Y-113870000D02*
X85870000Y-113870000D01*
X85870000Y-111130000D02*
X85870000Y-113870000D01*
%TO.C,R18*%
X72620000Y-90080000D02*
X76460000Y-90080000D01*
X72620000Y-91920000D02*
X76460000Y-91920000D01*
%TO.C,C21*%
X54130000Y-52630000D02*
X54130000Y-55370000D01*
X54130000Y-52630000D02*
X59370000Y-52630000D01*
X54130000Y-55370000D02*
X59370000Y-55370000D01*
X59370000Y-52630000D02*
X59370000Y-55370000D01*
%TO.C,C16*%
X83630000Y-55630000D02*
X86370000Y-55630000D01*
X83630000Y-60870000D02*
X83630000Y-55630000D01*
X83630000Y-60870000D02*
X86370000Y-60870000D01*
X86370000Y-60870000D02*
X86370000Y-55630000D01*
%TO.C,C14*%
X79130000Y-81130000D02*
X81870000Y-81130000D01*
X79130000Y-86370000D02*
X79130000Y-81130000D01*
X79130000Y-86370000D02*
X81870000Y-86370000D01*
X81870000Y-86370000D02*
X81870000Y-81130000D01*
%TO.C,J14*%
X83805000Y-89315000D02*
X84500000Y-89315000D01*
X83805000Y-90000000D02*
X83805000Y-89315000D01*
X83805000Y-90685000D02*
X83805000Y-90560000D01*
X83805000Y-90685000D02*
X83891724Y-90685000D01*
X83805000Y-90685000D02*
X85195000Y-90685000D01*
X85108276Y-90685000D02*
X85195000Y-90685000D01*
X85195000Y-90685000D02*
X85195000Y-90560000D01*
%TO.C,C17*%
X95130000Y-81630000D02*
X97870000Y-81630000D01*
X95130000Y-86870000D02*
X95130000Y-81630000D01*
X95130000Y-86870000D02*
X97870000Y-86870000D01*
X97870000Y-86870000D02*
X97870000Y-81630000D01*
%TO.C,D7*%
X85920000Y-101460000D02*
X86570000Y-101460000D01*
X86570000Y-100340000D02*
X86570000Y-102580000D01*
X86570000Y-102580000D02*
X90810000Y-102580000D01*
X87170000Y-100340000D02*
X87170000Y-102580000D01*
X87290000Y-100340000D02*
X87290000Y-102580000D01*
X87410000Y-100340000D02*
X87410000Y-102580000D01*
X90810000Y-100340000D02*
X86570000Y-100340000D01*
X90810000Y-102580000D02*
X90810000Y-100340000D01*
X91460000Y-101460000D02*
X90810000Y-101460000D01*
%TO.C,D6*%
X74230000Y-101540000D02*
X74880000Y-101540000D01*
X74880000Y-100420000D02*
X74880000Y-102660000D01*
X74880000Y-102660000D02*
X79120000Y-102660000D01*
X75480000Y-100420000D02*
X75480000Y-102660000D01*
X75600000Y-100420000D02*
X75600000Y-102660000D01*
X75720000Y-100420000D02*
X75720000Y-102660000D01*
X79120000Y-100420000D02*
X74880000Y-100420000D01*
X79120000Y-102660000D02*
X79120000Y-100420000D01*
X79770000Y-101540000D02*
X79120000Y-101540000D01*
%TO.C,R21*%
X91080000Y-85920000D02*
X91080000Y-82080000D01*
X92920000Y-85920000D02*
X92920000Y-82080000D01*
%TO.C,C13*%
X88630000Y-55380000D02*
X91370000Y-55380000D01*
X88630000Y-60620000D02*
X88630000Y-55380000D01*
X88630000Y-60620000D02*
X91370000Y-60620000D01*
X91370000Y-60620000D02*
X91370000Y-55380000D01*
%TO.C,R17*%
X80880000Y-106580000D02*
X77040000Y-106580000D01*
X80880000Y-108420000D02*
X77040000Y-108420000D01*
%TO.C,J13*%
X55305000Y-90315000D02*
X56000000Y-90315000D01*
X55305000Y-91000000D02*
X55305000Y-90315000D01*
X55305000Y-91685000D02*
X55305000Y-91560000D01*
X55305000Y-91685000D02*
X55391724Y-91685000D01*
X55305000Y-91685000D02*
X56695000Y-91685000D01*
X56608276Y-91685000D02*
X56695000Y-91685000D01*
X56695000Y-91685000D02*
X56695000Y-91560000D01*
%TD*%
M02*
