M48
; DRILL file {KiCad 8.0.6-8.0.6-0~ubuntu24.04.1} date 2024-10-25T11:54:26+0200
; FORMAT={-:-/ absolute / inch / decimal}
; #@! TF.CreationDate,2024-10-25T11:54:26+02:00
; #@! TF.GenerationSoftware,Kicad,Pcbnew,8.0.6-8.0.6-0~ubuntu24.04.1
; #@! TF.FileFunction,Plated,1,2,PTH
FMAT,2
INCH
; #@! TA.AperFunction,Plated,PTH,ViaDrill
T1C0.0157
; #@! TA.AperFunction,Plated,PTH,ComponentDrill
T2C0.0197
; #@! TA.AperFunction,Plated,PTH,ComponentDrill
T3C0.0276
; #@! TA.AperFunction,Plated,PTH,ComponentDrill
T4C0.0315
; #@! TA.AperFunction,Plated,PTH,ComponentDrill
T5C0.0335
; #@! TA.AperFunction,Plated,PTH,ComponentDrill
T6C0.0472
; #@! TA.AperFunction,Plated,PTH,ComponentDrill
T7C0.0866
%
G90
G05
T1
X1.6339Y-3.1496
X1.6929Y-2.4606
X1.7717Y-2.1457
X1.8307Y-3.4055
X1.8701Y-3.1693
X1.9291Y-2.7756
X1.9882Y-3.1496
X2.1161Y-2.9849
X2.1654Y-2.185
X2.1654Y-3.3858
X2.2244Y-3.189
X2.2742Y-3.0535
X2.3622Y-2.815
X2.3682Y-3.4646
X2.4218Y-3.0567
X2.4547Y-3.3169
X2.5197Y-2.8346
X2.5295Y-3.0472
X2.5394Y-3.5039
X2.5748Y-3.187
X2.5748Y-3.3287
X2.7362Y-3.1102
X2.9158Y-2.7818
X2.9331Y-2.5394
X2.9437Y-2.8864
X2.9921Y-2.815
X3.0709Y-2.4606
X3.0906Y-3.1496
X3.0906Y-3.4843
X3.189Y-3.4055
X3.2435Y-2.3807
X3.2677Y-3.1693
X3.3268Y-2.7756
X3.6417Y-2.5197
X3.6811Y-3.1693
X3.7008Y-2.5787
T2
X2.1063Y-3.6024
X2.2047Y-3.6024
X3.2283Y-3.6024
X3.3268Y-3.6024
T3
X1.6142Y-2.5165
X1.6142Y-2.7165
X1.711Y-3.6024
X1.7126Y-3.7205
X1.7126Y-3.9205
X1.7323Y-2.5197
X1.7323Y-2.7197
X1.8472Y-2.5197
X1.911Y-3.6024
X1.926Y-4.0157
X1.9488Y-3.2661
X1.9488Y-3.4661
X2.0472Y-2.5197
X2.0472Y-3.2646
X2.0472Y-3.4646
X2.126Y-4.0157
X2.185Y-2.5181
X2.185Y-2.7181
X2.3031Y-2.5181
X2.3031Y-2.7181
X2.3197Y-4.0157
X2.4197Y-3.6024
X2.5197Y-4.0157
X2.6181Y-4.0142
X2.6181Y-4.2142
X2.6181Y-4.311
X2.6181Y-4.511
X2.6197Y-3.6024
X2.874Y-4.0142
X2.874Y-4.2142
X2.874Y-4.311
X2.874Y-4.511
X2.8921Y-3.6024
X2.9709Y-4.0157
X3.0921Y-3.6024
X3.1102Y-2.5197
X3.1102Y-2.7197
X3.1709Y-4.0157
X3.248Y-2.5197
X3.248Y-2.7197
X3.3449Y-4.0157
X3.3827Y-2.5197
X3.3858Y-3.2465
X3.3858Y-3.4465
X3.4843Y-3.2465
X3.4843Y-3.4465
X3.5449Y-4.0157
X3.5614Y-3.6024
X3.5827Y-2.5197
X3.7008Y-2.5181
X3.7008Y-2.7181
X3.7598Y-3.7205
X3.7598Y-3.9205
X3.7614Y-3.6024
X3.8151Y-2.5165
X3.8151Y-2.7165
T4
X1.7126Y-2.9331
X1.7126Y-4.1732
X1.7126Y-4.3701
X1.7717Y-3.2677
X1.7717Y-3.4646
X1.826Y-3.7402
X1.8307Y-3.8976
X1.8504Y-2.9331
X1.9094Y-2.6378
X2.0079Y-2.6378
X2.0669Y-2.9331
X2.126Y-3.7402
X2.1307Y-3.8976
X2.2047Y-2.9331
X2.2244Y-3.2677
X2.2244Y-3.4646
X2.3228Y-3.7402
X2.3228Y-3.8976
X2.4213Y-3.3858
X2.4409Y-2.7528
X2.4409Y-3.1528
X2.5Y-3.3858
X2.6228Y-3.7402
X2.6228Y-3.8976
X2.8815Y-3.7417
X2.8815Y-3.8795
X2.9528Y-3.3858
X2.9724Y-2.7559
X2.9724Y-3.1559
X3.0315Y-3.3858
X3.1815Y-3.7417
X3.1815Y-3.8795
X3.195Y-2.9528
X3.2283Y-3.2677
X3.2283Y-3.4646
X3.3328Y-2.9528
X3.3417Y-3.7386
X3.3417Y-3.8764
X3.4236Y-2.6378
X3.522Y-2.6378
X3.5493Y-2.9528
X3.6417Y-3.7386
X3.6417Y-3.8764
X3.6614Y-3.2677
X3.6614Y-3.4646
X3.6871Y-2.9528
X3.7992Y-4.2126
X3.7992Y-4.4094
T5
X2.0079Y-4.6654
X2.0276Y-1.5748
X2.185Y-4.6654
X2.2047Y-1.5748
X2.3622Y-4.6654
X2.3819Y-1.5748
X3.0709Y-1.5551
X3.0709Y-4.685
X3.248Y-1.5551
X3.248Y-4.685
X3.4252Y-1.5551
X3.4252Y-4.685
T6
X1.6929Y-1.7717
X1.6929Y-2.3622
X1.8898Y-4.2717
X2.0866Y-1.7717
X2.0866Y-2.3622
X2.4803Y-1.7717
X2.4803Y-2.3622
X2.4803Y-4.2717
X2.9331Y-1.7717
X2.9331Y-2.3622
X3.0118Y-4.2717
X3.3268Y-1.7717
X3.3268Y-2.3622
X3.6024Y-4.2717
X3.7205Y-1.7717
X3.7205Y-2.3622
T7
X1.6732Y-1.4764
X1.6732Y-4.9213
X2.6969Y-1.4764
X2.7362Y-4.9213
X3.7598Y-1.4567
X3.7598Y-4.9213
M30
