M48
; DRILL file {KiCad 8.0.5-8.0.5-0~ubuntu24.04.1} date 2024-09-28T13:56:43+0200
; FORMAT={-:-/ absolute / inch / decimal}
; #@! TF.CreationDate,2024-09-28T13:56:43+02:00
; #@! TF.GenerationSoftware,Kicad,Pcbnew,8.0.5-8.0.5-0~ubuntu24.04.1
; #@! TF.FileFunction,Plated,1,2,PTH
FMAT,2
INCH
; #@! TA.AperFunction,Plated,PTH,ViaDrill
T1C0.0157
; #@! TA.AperFunction,Plated,PTH,ComponentDrill
T2C0.0197
; #@! TA.AperFunction,Plated,PTH,ComponentDrill
T3C0.0276
; #@! TA.AperFunction,Plated,PTH,ComponentDrill
T4C0.0315
; #@! TA.AperFunction,Plated,PTH,ComponentDrill
T5C0.0472
; #@! TA.AperFunction,Plated,PTH,ComponentDrill
T6C0.0866
%
G90
G05
T1
X1.6339Y-2.4409
X1.811Y-3.3661
X1.9488Y-3.0315
X1.9685Y-3.1693
X2.0079Y-3.5827
X2.0079Y-3.9567
X2.0866Y-2.7165
X2.0866Y-4.2717
X2.1063Y-3.3661
X2.2047Y-3.8189
X2.2638Y-3.1102
X2.2835Y-3.3858
X2.3222Y-3.1582
X2.3228Y-3.5827
X2.3622Y-3.0118
X2.4409Y-2.5
X2.5394Y-2.7953
X2.5591Y-3.2677
X2.6378Y-3.3661
X2.6772Y-2.7756
X2.6959Y-3.0363
X2.7559Y-3.1299
X2.8958Y-3.0165
X2.9128Y-3.1422
X2.9423Y-2.275
X2.9528Y-3.2283
X2.9921Y-2.5
X3.0906Y-3.4843
X3.1299Y-2.7953
X3.1496Y-3.1102
X3.2087Y-1.7717
X3.248Y-2.3622
X3.2874Y-4.3701
X3.3071Y-1.9291
X3.3071Y-3.1693
X3.622Y-2.5787
X3.6417Y-2.3031
X3.6614Y-2.8543
X3.6614Y-3.1693
T2
X2.1063Y-3.6024
X2.2047Y-3.6024
X3.2283Y-3.6024
X3.3268Y-3.6024
T3
X1.6142Y-2.5165
X1.6142Y-2.7165
X1.711Y-3.6024
X1.7126Y-3.7205
X1.7126Y-3.9205
X1.7323Y-2.5197
X1.7323Y-2.7197
X1.8472Y-2.5197
X1.911Y-3.6024
X1.926Y-4.0157
X1.9488Y-3.2661
X1.9488Y-3.4661
X2.0472Y-2.5197
X2.0472Y-3.2646
X2.0472Y-3.4646
X2.126Y-4.0157
X2.185Y-2.5181
X2.185Y-2.7181
X2.3031Y-2.5181
X2.3031Y-2.7181
X2.3197Y-4.0157
X2.4197Y-3.6024
X2.5197Y-4.0157
X2.6181Y-4.0142
X2.6181Y-4.2142
X2.6181Y-4.311
X2.6181Y-4.511
X2.6197Y-3.6024
X2.874Y-4.0142
X2.874Y-4.2142
X2.874Y-4.311
X2.874Y-4.511
X2.8921Y-3.6024
X2.9709Y-4.0157
X3.0921Y-3.6024
X3.1102Y-2.5197
X3.1102Y-2.7197
X3.1709Y-4.0157
X3.248Y-2.5197
X3.248Y-2.7197
X3.3449Y-4.0157
X3.3827Y-2.5197
X3.3858Y-3.2465
X3.3858Y-3.4465
X3.4843Y-3.2465
X3.4843Y-3.4465
X3.5449Y-4.0157
X3.5614Y-3.6024
X3.5827Y-2.5197
X3.7008Y-2.5181
X3.7008Y-2.7181
X3.7598Y-3.7205
X3.7598Y-3.9205
X3.7614Y-3.6024
X3.8151Y-2.5165
X3.8151Y-2.7165
T4
X1.7126Y-2.9331
X1.7126Y-4.1732
X1.7126Y-4.3701
X1.7717Y-3.2677
X1.7717Y-3.4646
X1.826Y-3.7402
X1.8307Y-3.8976
X1.8504Y-2.9331
X1.9094Y-2.6378
X2.0079Y-2.6378
X2.0669Y-2.9331
X2.126Y-3.7402
X2.1307Y-3.8976
X2.2047Y-2.9331
X2.2244Y-3.2677
X2.2244Y-3.4646
X2.3228Y-3.7402
X2.3228Y-3.8976
X2.4213Y-3.3858
X2.4409Y-2.7528
X2.4409Y-3.1528
X2.5Y-3.3858
X2.6228Y-3.7402
X2.6228Y-3.8976
X2.8815Y-3.7417
X2.8815Y-3.8795
X2.9528Y-3.3858
X2.9724Y-2.7559
X2.9724Y-3.1559
X3.0315Y-3.3858
X3.1815Y-3.7417
X3.1815Y-3.8795
X3.195Y-2.9528
X3.2283Y-3.2677
X3.2283Y-3.4646
X3.3328Y-2.9528
X3.3417Y-3.7386
X3.3417Y-3.8764
X3.4236Y-2.6378
X3.522Y-2.6378
X3.5493Y-2.9528
X3.6417Y-3.7386
X3.6417Y-3.8764
X3.6614Y-3.2677
X3.6614Y-3.4646
X3.6871Y-2.9528
X3.7992Y-4.2126
X3.7992Y-4.4094
T5
X1.6929Y-1.7717
X1.6929Y-2.3622
X1.8898Y-4.2717
X2.0866Y-1.7717
X2.0866Y-2.3622
X2.4803Y-1.7717
X2.4803Y-2.3622
X2.4803Y-4.2717
X2.9331Y-1.7717
X2.9331Y-2.3622
X3.0118Y-4.2717
X3.3268Y-1.7717
X3.3268Y-2.3622
X3.6024Y-4.2717
X3.7205Y-1.7717
X3.7205Y-2.3622
T6
X1.6732Y-1.4764
X1.6732Y-4.9213
X1.811Y-4.6752
X2.0079Y-1.5748
X2.1949Y-4.6752
X2.2047Y-1.5748
X2.4213Y-1.5748
X2.5984Y-4.6752
X2.6969Y-1.4764
X2.7362Y-4.9213
X2.8937Y-4.685
X3.0315Y-1.5748
X3.248Y-1.5748
X3.248Y-4.685
X3.4843Y-1.5748
X3.6417Y-4.685
X3.7598Y-1.4567
X3.7598Y-4.9213
M30
