%TF.GenerationSoftware,KiCad,Pcbnew,8.0.5-8.0.5-0~ubuntu24.04.1*%
%TF.CreationDate,2024-09-28T01:01:08+02:00*%
%TF.ProjectId,Highz-stereo,48696768-7a2d-4737-9465-72656f2e6b69,rev?*%
%TF.SameCoordinates,Original*%
%TF.FileFunction,Drillmap*%
%TF.FilePolarity,Positive*%
%FSLAX45Y45*%
G04 Gerber Fmt 4.5, Leading zero omitted, Abs format (unit mm)*
G04 Created by KiCad (PCBNEW 8.0.5-8.0.5-0~ubuntu24.04.1) date 2024-09-28 01:01:08*
%MOMM*%
%LPD*%
G01*
G04 APERTURE LIST*
%ADD10C,0.100000*%
%ADD11C,0.200000*%
%ADD12C,0.110000*%
%ADD13C,0.220000*%
G04 APERTURE END LIST*
D10*
X3750000Y-3250000D02*
X10000000Y-3250000D01*
X10000000Y-13000000D01*
X3750000Y-13000000D01*
X3750000Y-3250000D01*
D11*
D10*
X5880000Y-6680000D02*
X5920000Y-6720000D01*
X5920000Y-6680000D02*
X5880000Y-6720000D01*
X6030000Y-8730000D02*
X6070000Y-8770000D01*
X6070000Y-8730000D02*
X6030000Y-8770000D01*
X6251670Y-7991960D02*
X6291670Y-8031960D01*
X6291670Y-7991960D02*
X6251670Y-8031960D01*
X6280000Y-6630000D02*
X6320000Y-6670000D01*
X6320000Y-6630000D02*
X6280000Y-6670000D01*
X6430000Y-7630000D02*
X6470000Y-7670000D01*
X6470000Y-7630000D02*
X6430000Y-7670000D01*
X6480000Y-7380000D02*
X6520000Y-7420000D01*
X6520000Y-7380000D02*
X6480000Y-7420000D01*
X6631230Y-7267430D02*
X6671230Y-7307430D01*
X6671230Y-7267430D02*
X6631230Y-7307430D01*
X6807890Y-8234230D02*
X6847890Y-8274230D01*
X6847890Y-8234230D02*
X6807890Y-8274230D01*
X7376790Y-8234230D02*
X7416790Y-8274230D01*
X7416790Y-8234230D02*
X7376790Y-8274230D01*
X7537570Y-7752270D02*
X7577570Y-7792270D01*
X7577570Y-7752270D02*
X7537570Y-7792270D01*
X7630000Y-7880000D02*
X7670000Y-7920000D01*
X7670000Y-7880000D02*
X7630000Y-7920000D01*
X7842490Y-7730550D02*
X7882490Y-7770550D01*
X7882490Y-7730550D02*
X7842490Y-7770550D01*
X7908980Y-7419190D02*
X7948980Y-7459190D01*
X7948980Y-7419190D02*
X7908980Y-7459190D01*
X8018570Y-7713990D02*
X8058570Y-7753990D01*
X8058570Y-7713990D02*
X8018570Y-7753990D01*
X8719090Y-8111350D02*
X8759090Y-8151350D01*
X8759090Y-8111350D02*
X8719090Y-8151350D01*
X8780000Y-6130000D02*
X8820000Y-6170000D01*
X8820000Y-6130000D02*
X8780000Y-6170000D01*
X8880000Y-8180000D02*
X8920000Y-8220000D01*
X8920000Y-8180000D02*
X8880000Y-8220000D01*
X8980000Y-5330000D02*
X9020000Y-5370000D01*
X9020000Y-5330000D02*
X8980000Y-5370000D01*
X8980000Y-7830000D02*
X9020000Y-7870000D01*
X9020000Y-7830000D02*
X8980000Y-7870000D01*
X9680000Y-7980000D02*
X9720000Y-8020000D01*
X9720000Y-7980000D02*
X9680000Y-8020000D01*
X5375000Y-9100000D02*
G75*
G02*
X5325000Y-9100000I-25000J0D01*
G01*
X5325000Y-9100000D02*
G75*
G02*
X5375000Y-9100000I25000J0D01*
G01*
X5625000Y-9100000D02*
G75*
G02*
X5575000Y-9100000I-25000J0D01*
G01*
X5575000Y-9100000D02*
G75*
G02*
X5625000Y-9100000I25000J0D01*
G01*
X8475000Y-9000000D02*
G75*
G02*
X8425000Y-9000000I-25000J0D01*
G01*
X8425000Y-9000000D02*
G75*
G02*
X8475000Y-9000000I25000J0D01*
G01*
X8725000Y-9000000D02*
G75*
G02*
X8675000Y-9000000I-25000J0D01*
G01*
X8675000Y-9000000D02*
G75*
G02*
X8725000Y-9000000I25000J0D01*
G01*
X4400000Y-6357000D02*
X4400000Y-6427000D01*
X4365000Y-6392000D02*
X4435000Y-6392000D01*
X4400000Y-6865000D02*
X4400000Y-6935000D01*
X4365000Y-6900000D02*
X4435000Y-6900000D01*
X4442000Y-9065000D02*
X4442000Y-9135000D01*
X4407000Y-9100000D02*
X4477000Y-9100000D01*
X4650000Y-10465000D02*
X4650000Y-10535000D01*
X4615000Y-10500000D02*
X4685000Y-10500000D01*
X4650000Y-10973000D02*
X4650000Y-11043000D01*
X4615000Y-11008000D02*
X4685000Y-11008000D01*
X4800000Y-6365000D02*
X4800000Y-6435000D01*
X4765000Y-6400000D02*
X4835000Y-6400000D01*
X4800000Y-6873000D02*
X4800000Y-6943000D01*
X4765000Y-6908000D02*
X4835000Y-6908000D01*
X4942000Y-10765000D02*
X4942000Y-10835000D01*
X4907000Y-10800000D02*
X4977000Y-10800000D01*
X4950000Y-9065000D02*
X4950000Y-9135000D01*
X4915000Y-9100000D02*
X4985000Y-9100000D01*
X4975000Y-8082000D02*
X4975000Y-8152000D01*
X4940000Y-8117000D02*
X5010000Y-8117000D01*
X4975000Y-8590000D02*
X4975000Y-8660000D01*
X4940000Y-8625000D02*
X5010000Y-8625000D01*
X5392000Y-6365000D02*
X5392000Y-6435000D01*
X5357000Y-6400000D02*
X5427000Y-6400000D01*
X5450000Y-10765000D02*
X5450000Y-10835000D01*
X5415000Y-10800000D02*
X5485000Y-10800000D01*
X5550000Y-8057000D02*
X5550000Y-8127000D01*
X5515000Y-8092000D02*
X5585000Y-8092000D01*
X5550000Y-8565000D02*
X5550000Y-8635000D01*
X5515000Y-8600000D02*
X5585000Y-8600000D01*
X5750000Y-10765000D02*
X5750000Y-10835000D01*
X5715000Y-10800000D02*
X5785000Y-10800000D01*
X5900000Y-6365000D02*
X5900000Y-6435000D01*
X5865000Y-6400000D02*
X5935000Y-6400000D01*
X6258000Y-10765000D02*
X6258000Y-10835000D01*
X6223000Y-10800000D02*
X6293000Y-10800000D01*
X6300000Y-9065000D02*
X6300000Y-9135000D01*
X6265000Y-9100000D02*
X6335000Y-9100000D01*
X6650000Y-10415000D02*
X6650000Y-10485000D01*
X6615000Y-10450000D02*
X6685000Y-10450000D01*
X6650000Y-10923000D02*
X6650000Y-10993000D01*
X6615000Y-10958000D02*
X6685000Y-10958000D01*
X6808000Y-9065000D02*
X6808000Y-9135000D01*
X6773000Y-9100000D02*
X6843000Y-9100000D01*
X6900000Y-6365000D02*
X6900000Y-6435000D01*
X6865000Y-6400000D02*
X6935000Y-6400000D01*
X6900000Y-6873000D02*
X6900000Y-6943000D01*
X6865000Y-6908000D02*
X6935000Y-6908000D01*
X7200000Y-9065000D02*
X7200000Y-9135000D01*
X7165000Y-9100000D02*
X7235000Y-9100000D01*
X7300000Y-10411000D02*
X7300000Y-10481000D01*
X7265000Y-10446000D02*
X7335000Y-10446000D01*
X7300000Y-10919000D02*
X7300000Y-10989000D01*
X7265000Y-10954000D02*
X7335000Y-10954000D01*
X7400000Y-6357000D02*
X7400000Y-6427000D01*
X7365000Y-6392000D02*
X7435000Y-6392000D01*
X7400000Y-6865000D02*
X7400000Y-6935000D01*
X7365000Y-6900000D02*
X7435000Y-6900000D01*
X7642000Y-10715000D02*
X7642000Y-10785000D01*
X7607000Y-10750000D02*
X7677000Y-10750000D01*
X7708000Y-9065000D02*
X7708000Y-9135000D01*
X7673000Y-9100000D02*
X7743000Y-9100000D01*
X7750000Y-6357000D02*
X7750000Y-6427000D01*
X7715000Y-6392000D02*
X7785000Y-6392000D01*
X7750000Y-6865000D02*
X7750000Y-6935000D01*
X7715000Y-6900000D02*
X7785000Y-6900000D01*
X8150000Y-10715000D02*
X8150000Y-10785000D01*
X8115000Y-10750000D02*
X8185000Y-10750000D01*
X8296000Y-6365000D02*
X8296000Y-6435000D01*
X8261000Y-6400000D02*
X8331000Y-6400000D01*
X8450000Y-8115000D02*
X8450000Y-8185000D01*
X8415000Y-8150000D02*
X8485000Y-8150000D01*
X8450000Y-8623000D02*
X8450000Y-8693000D01*
X8415000Y-8658000D02*
X8485000Y-8658000D01*
X8450000Y-10715000D02*
X8450000Y-10785000D01*
X8415000Y-10750000D02*
X8485000Y-10750000D01*
X8804000Y-6365000D02*
X8804000Y-6435000D01*
X8769000Y-6400000D02*
X8839000Y-6400000D01*
X8958000Y-10715000D02*
X8958000Y-10785000D01*
X8923000Y-10750000D02*
X8993000Y-10750000D01*
X9196000Y-9065000D02*
X9196000Y-9135000D01*
X9161000Y-9100000D02*
X9231000Y-9100000D01*
X9200000Y-8111000D02*
X9200000Y-8181000D01*
X9165000Y-8146000D02*
X9235000Y-8146000D01*
X9200000Y-8619000D02*
X9200000Y-8689000D01*
X9165000Y-8654000D02*
X9235000Y-8654000D01*
X9300000Y-10357000D02*
X9300000Y-10427000D01*
X9265000Y-10392000D02*
X9335000Y-10392000D01*
X9300000Y-10865000D02*
X9300000Y-10935000D01*
X9265000Y-10900000D02*
X9335000Y-10900000D01*
X9690270Y-6357000D02*
X9690270Y-6427000D01*
X9655270Y-6392000D02*
X9725270Y-6392000D01*
X9690270Y-6865000D02*
X9690270Y-6935000D01*
X9655270Y-6900000D02*
X9725270Y-6900000D01*
X9704000Y-9065000D02*
X9704000Y-9135000D01*
X9669000Y-9100000D02*
X9739000Y-9100000D01*
X4578285Y-7478284D02*
X4578285Y-7421715D01*
X4521716Y-7421715D01*
X4521716Y-7478284D01*
X4578285Y-7478284D01*
X4578285Y-8228284D02*
X4578285Y-8171715D01*
X4521716Y-8171715D01*
X4521716Y-8228284D01*
X4578285Y-8228284D01*
X4578285Y-8478285D02*
X4578285Y-8421716D01*
X4521716Y-8421716D01*
X4521716Y-8478285D01*
X4578285Y-8478285D01*
X4666285Y-9828285D02*
X4666285Y-9771716D01*
X4609716Y-9771716D01*
X4609716Y-9828285D01*
X4666285Y-9828285D01*
X4678285Y-5728284D02*
X4678285Y-5671715D01*
X4621716Y-5671715D01*
X4621716Y-5728284D01*
X4678285Y-5728284D01*
X4678285Y-5978284D02*
X4678285Y-5921715D01*
X4621716Y-5921715D01*
X4621716Y-5978284D01*
X4678285Y-5978284D01*
X4678285Y-10228285D02*
X4678285Y-10171716D01*
X4621716Y-10171716D01*
X4621716Y-10228285D01*
X4678285Y-10228285D01*
X4928285Y-7478284D02*
X4928285Y-7421715D01*
X4871716Y-7421715D01*
X4871716Y-7478284D01*
X4928285Y-7478284D01*
X5178285Y-5728284D02*
X5178285Y-5671715D01*
X5121716Y-5671715D01*
X5121716Y-5728284D01*
X5178285Y-5728284D01*
X5178285Y-5978284D02*
X5178285Y-5921715D01*
X5121716Y-5921715D01*
X5121716Y-5978284D01*
X5178285Y-5978284D01*
X5428285Y-9828285D02*
X5428285Y-9771716D01*
X5371716Y-9771716D01*
X5371716Y-9828285D01*
X5428285Y-9828285D01*
X5440285Y-10228285D02*
X5440285Y-10171716D01*
X5383716Y-10171716D01*
X5383716Y-10228285D01*
X5440285Y-10228285D01*
X5528285Y-11328284D02*
X5528285Y-11271715D01*
X5471716Y-11271715D01*
X5471716Y-11328284D01*
X5528285Y-11328284D01*
X5578285Y-5428285D02*
X5578285Y-5371716D01*
X5521716Y-5371716D01*
X5521716Y-5428285D01*
X5578285Y-5428285D01*
X5628284Y-7478284D02*
X5628284Y-7421715D01*
X5571716Y-7421715D01*
X5571716Y-7478284D01*
X5628284Y-7478284D01*
X5678284Y-5728284D02*
X5678284Y-5671715D01*
X5621715Y-5671715D01*
X5621715Y-5728284D01*
X5678284Y-5728284D01*
X5678284Y-5978284D02*
X5678284Y-5921715D01*
X5621715Y-5921715D01*
X5621715Y-5978284D01*
X5678284Y-5978284D01*
X5778284Y-11328284D02*
X5778284Y-11271715D01*
X5721715Y-11271715D01*
X5721715Y-11328284D01*
X5778284Y-11328284D01*
X5828284Y-5428285D02*
X5828284Y-5371716D01*
X5771715Y-5371716D01*
X5771715Y-5428285D01*
X5828284Y-5428285D01*
X5928284Y-9828285D02*
X5928284Y-9771716D01*
X5871715Y-9771716D01*
X5871715Y-9828285D01*
X5928284Y-9828285D01*
X5928284Y-10228285D02*
X5928284Y-10171716D01*
X5871715Y-10171716D01*
X5871715Y-10228285D01*
X5928284Y-10228285D01*
X5978284Y-7478284D02*
X5978284Y-7421715D01*
X5921715Y-7421715D01*
X5921715Y-7478284D01*
X5978284Y-7478284D01*
X6003284Y-8228284D02*
X6003284Y-8171715D01*
X5946715Y-8171715D01*
X5946715Y-8228284D01*
X6003284Y-8228284D01*
X6003284Y-8478285D02*
X6003284Y-8421716D01*
X5946715Y-8421716D01*
X5946715Y-8478285D01*
X6003284Y-8478285D01*
X6178284Y-5728284D02*
X6178284Y-5671715D01*
X6121715Y-5671715D01*
X6121715Y-5728284D01*
X6178284Y-5728284D01*
X6178284Y-5978284D02*
X6178284Y-5921715D01*
X6121715Y-5921715D01*
X6121715Y-5978284D01*
X6178284Y-5978284D01*
X6678284Y-5728284D02*
X6678284Y-5671715D01*
X6621715Y-5671715D01*
X6621715Y-5728284D01*
X6678284Y-5728284D01*
X6678284Y-5978284D02*
X6678284Y-5921715D01*
X6621715Y-5921715D01*
X6621715Y-5978284D01*
X6678284Y-5978284D01*
X6690284Y-9828285D02*
X6690284Y-9771716D01*
X6633715Y-9771716D01*
X6633715Y-9828285D01*
X6690284Y-9828285D01*
X6690284Y-10228285D02*
X6690284Y-10171716D01*
X6633715Y-10171716D01*
X6633715Y-10228285D01*
X6690284Y-10228285D01*
X7347284Y-9832285D02*
X7347284Y-9775716D01*
X7290715Y-9775716D01*
X7290715Y-9832285D01*
X7347284Y-9832285D01*
X7347284Y-10182285D02*
X7347284Y-10125716D01*
X7290715Y-10125716D01*
X7290715Y-10182285D01*
X7347284Y-10182285D01*
X7478284Y-5728284D02*
X7478284Y-5671715D01*
X7421715Y-5671715D01*
X7421715Y-5728284D01*
X7478284Y-5728284D01*
X7478284Y-5978284D02*
X7478284Y-5921715D01*
X7421715Y-5921715D01*
X7421715Y-5978284D01*
X7478284Y-5978284D01*
X7978284Y-5728284D02*
X7978284Y-5671715D01*
X7921715Y-5671715D01*
X7921715Y-5728284D01*
X7978284Y-5728284D01*
X7978284Y-5978284D02*
X7978284Y-5921715D01*
X7921715Y-5921715D01*
X7921715Y-5978284D01*
X7978284Y-5978284D01*
X8078284Y-8278284D02*
X8078284Y-8221715D01*
X8021715Y-8221715D01*
X8021715Y-8278284D01*
X8078284Y-8278284D01*
X8078284Y-8528285D02*
X8078284Y-8471716D01*
X8021715Y-8471716D01*
X8021715Y-8528285D01*
X8078284Y-8528285D01*
X8109284Y-9832285D02*
X8109284Y-9775716D01*
X8052715Y-9775716D01*
X8052715Y-9832285D01*
X8109284Y-9832285D01*
X8109284Y-10182285D02*
X8109284Y-10125716D01*
X8052715Y-10125716D01*
X8052715Y-10182285D01*
X8109284Y-10182285D01*
X8228284Y-11278284D02*
X8228284Y-11221715D01*
X8171715Y-11221715D01*
X8171715Y-11278284D01*
X8228284Y-11278284D01*
X8278284Y-7528284D02*
X8278284Y-7471715D01*
X8221715Y-7471715D01*
X8221715Y-7528284D01*
X8278284Y-7528284D01*
X8378284Y-5428285D02*
X8378284Y-5371716D01*
X8321715Y-5371716D01*
X8321715Y-5428285D01*
X8378284Y-5428285D01*
X8478285Y-11278284D02*
X8478285Y-11221715D01*
X8421716Y-11221715D01*
X8421716Y-11278284D01*
X8478285Y-11278284D01*
X8516285Y-9824285D02*
X8516285Y-9767716D01*
X8459716Y-9767716D01*
X8459716Y-9824285D01*
X8516285Y-9824285D01*
X8516285Y-10174285D02*
X8516285Y-10117716D01*
X8459716Y-10117716D01*
X8459716Y-10174285D01*
X8516285Y-10174285D01*
X8528285Y-5728284D02*
X8528285Y-5671715D01*
X8471716Y-5671715D01*
X8471716Y-5728284D01*
X8528285Y-5728284D01*
X8528285Y-5978284D02*
X8528285Y-5921715D01*
X8471716Y-5921715D01*
X8471716Y-5978284D01*
X8528285Y-5978284D01*
X8628285Y-5428285D02*
X8628285Y-5371716D01*
X8571716Y-5371716D01*
X8571716Y-5428285D01*
X8628285Y-5428285D01*
X8628285Y-7528284D02*
X8628285Y-7471715D01*
X8571716Y-7471715D01*
X8571716Y-7528284D01*
X8628285Y-7528284D01*
X9028285Y-5703284D02*
X9028285Y-5646715D01*
X8971716Y-5646715D01*
X8971716Y-5703284D01*
X9028285Y-5703284D01*
X9028285Y-5953284D02*
X9028285Y-5896715D01*
X8971716Y-5896715D01*
X8971716Y-5953284D01*
X9028285Y-5953284D01*
X9278285Y-9824285D02*
X9278285Y-9767716D01*
X9221716Y-9767716D01*
X9221716Y-9824285D01*
X9278285Y-9824285D01*
X9278285Y-10174285D02*
X9278285Y-10117716D01*
X9221716Y-10117716D01*
X9221716Y-10174285D01*
X9278285Y-10174285D01*
X9313015Y-7528284D02*
X9313015Y-7471715D01*
X9256446Y-7471715D01*
X9256446Y-7528284D01*
X9313015Y-7528284D01*
X9663015Y-7528284D02*
X9663015Y-7471715D01*
X9606446Y-7471715D01*
X9606446Y-7528284D01*
X9663015Y-7528284D01*
X9678285Y-5703284D02*
X9678285Y-5646715D01*
X9621716Y-5646715D01*
X9621716Y-5703284D01*
X9678285Y-5703284D01*
X9678285Y-5953284D02*
X9678285Y-5896715D01*
X9621716Y-5896715D01*
X9621716Y-5953284D01*
X9678285Y-5953284D01*
X9678285Y-8328284D02*
X9678285Y-8271715D01*
X9621716Y-8271715D01*
X9621716Y-8328284D01*
X9678285Y-8328284D01*
X9678285Y-8578285D02*
X9678285Y-8521716D01*
X9621716Y-8521716D01*
X9621716Y-8578285D01*
X9678285Y-8578285D01*
D12*
X5392000Y-4955000D02*
X5447000Y-4900000D01*
X5392000Y-4845000D01*
X5337000Y-4900000D01*
X5392000Y-4955000D01*
X5646000Y-4955000D02*
X5701000Y-4900000D01*
X5646000Y-4845000D01*
X5591000Y-4900000D01*
X5646000Y-4955000D01*
X5900000Y-4955000D02*
X5955000Y-4900000D01*
X5900000Y-4845000D01*
X5845000Y-4900000D01*
X5900000Y-4955000D01*
X8146000Y-4960500D02*
X8201000Y-4905500D01*
X8146000Y-4850500D01*
X8091000Y-4905500D01*
X8146000Y-4960500D01*
X8400000Y-4960500D02*
X8455000Y-4905500D01*
X8400000Y-4850500D01*
X8345000Y-4905500D01*
X8400000Y-4960500D01*
X8654000Y-4960500D02*
X8709000Y-4905500D01*
X8654000Y-4850500D01*
X8599000Y-4905500D01*
X8654000Y-4960500D01*
D13*
X4140000Y-3640000D02*
X4360000Y-3860000D01*
X4360000Y-3640000D02*
X4140000Y-3860000D01*
X4360000Y-3750000D02*
G75*
G02*
X4140000Y-3750000I-110000J0D01*
G01*
X4140000Y-3750000D02*
G75*
G02*
X4360000Y-3750000I110000J0D01*
G01*
X4140000Y-12390000D02*
X4360000Y-12610000D01*
X4360000Y-12390000D02*
X4140000Y-12610000D01*
X4360000Y-12500000D02*
G75*
G02*
X4140000Y-12500000I-110000J0D01*
G01*
X4140000Y-12500000D02*
G75*
G02*
X4360000Y-12500000I110000J0D01*
G01*
X4490000Y-11765000D02*
X4710000Y-11985000D01*
X4710000Y-11765000D02*
X4490000Y-11985000D01*
X4710000Y-11875000D02*
G75*
G02*
X4490000Y-11875000I-110000J0D01*
G01*
X4490000Y-11875000D02*
G75*
G02*
X4710000Y-11875000I110000J0D01*
G01*
X4990000Y-3890000D02*
X5210000Y-4110000D01*
X5210000Y-3890000D02*
X4990000Y-4110000D01*
X5210000Y-4000000D02*
G75*
G02*
X4990000Y-4000000I-110000J0D01*
G01*
X4990000Y-4000000D02*
G75*
G02*
X5210000Y-4000000I110000J0D01*
G01*
X5465000Y-11765000D02*
X5685000Y-11985000D01*
X5685000Y-11765000D02*
X5465000Y-11985000D01*
X5685000Y-11875000D02*
G75*
G02*
X5465000Y-11875000I-110000J0D01*
G01*
X5465000Y-11875000D02*
G75*
G02*
X5685000Y-11875000I110000J0D01*
G01*
X5490000Y-3890000D02*
X5710000Y-4110000D01*
X5710000Y-3890000D02*
X5490000Y-4110000D01*
X5710000Y-4000000D02*
G75*
G02*
X5490000Y-4000000I-110000J0D01*
G01*
X5490000Y-4000000D02*
G75*
G02*
X5710000Y-4000000I110000J0D01*
G01*
X6040000Y-3890000D02*
X6260000Y-4110000D01*
X6260000Y-3890000D02*
X6040000Y-4110000D01*
X6260000Y-4000000D02*
G75*
G02*
X6040000Y-4000000I-110000J0D01*
G01*
X6040000Y-4000000D02*
G75*
G02*
X6260000Y-4000000I110000J0D01*
G01*
X6490000Y-11765000D02*
X6710000Y-11985000D01*
X6710000Y-11765000D02*
X6490000Y-11985000D01*
X6710000Y-11875000D02*
G75*
G02*
X6490000Y-11875000I-110000J0D01*
G01*
X6490000Y-11875000D02*
G75*
G02*
X6710000Y-11875000I110000J0D01*
G01*
X6890000Y-3640000D02*
X7110000Y-3860000D01*
X7110000Y-3640000D02*
X6890000Y-3860000D01*
X7110000Y-3750000D02*
G75*
G02*
X6890000Y-3750000I-110000J0D01*
G01*
X6890000Y-3750000D02*
G75*
G02*
X7110000Y-3750000I110000J0D01*
G01*
X6890000Y-12390000D02*
X7110000Y-12610000D01*
X7110000Y-12390000D02*
X6890000Y-12610000D01*
X7110000Y-12500000D02*
G75*
G02*
X6890000Y-12500000I-110000J0D01*
G01*
X6890000Y-12500000D02*
G75*
G02*
X7110000Y-12500000I110000J0D01*
G01*
X7240000Y-11790000D02*
X7460000Y-12010000D01*
X7460000Y-11790000D02*
X7240000Y-12010000D01*
X7460000Y-11900000D02*
G75*
G02*
X7240000Y-11900000I-110000J0D01*
G01*
X7240000Y-11900000D02*
G75*
G02*
X7460000Y-11900000I110000J0D01*
G01*
X7590000Y-3890000D02*
X7810000Y-4110000D01*
X7810000Y-3890000D02*
X7590000Y-4110000D01*
X7810000Y-4000000D02*
G75*
G02*
X7590000Y-4000000I-110000J0D01*
G01*
X7590000Y-4000000D02*
G75*
G02*
X7810000Y-4000000I110000J0D01*
G01*
X8140000Y-3890000D02*
X8360000Y-4110000D01*
X8360000Y-3890000D02*
X8140000Y-4110000D01*
X8360000Y-4000000D02*
G75*
G02*
X8140000Y-4000000I-110000J0D01*
G01*
X8140000Y-4000000D02*
G75*
G02*
X8360000Y-4000000I110000J0D01*
G01*
X8140000Y-11790000D02*
X8360000Y-12010000D01*
X8360000Y-11790000D02*
X8140000Y-12010000D01*
X8360000Y-11900000D02*
G75*
G02*
X8140000Y-11900000I-110000J0D01*
G01*
X8140000Y-11900000D02*
G75*
G02*
X8360000Y-11900000I110000J0D01*
G01*
X8740000Y-3890000D02*
X8960000Y-4110000D01*
X8960000Y-3890000D02*
X8740000Y-4110000D01*
X8960000Y-4000000D02*
G75*
G02*
X8740000Y-4000000I-110000J0D01*
G01*
X8740000Y-4000000D02*
G75*
G02*
X8960000Y-4000000I110000J0D01*
G01*
X9140000Y-11790000D02*
X9360000Y-12010000D01*
X9360000Y-11790000D02*
X9140000Y-12010000D01*
X9360000Y-11900000D02*
G75*
G02*
X9140000Y-11900000I-110000J0D01*
G01*
X9140000Y-11900000D02*
G75*
G02*
X9360000Y-11900000I110000J0D01*
G01*
X9440000Y-3590000D02*
X9660000Y-3810000D01*
X9660000Y-3590000D02*
X9440000Y-3810000D01*
X9660000Y-3700000D02*
G75*
G02*
X9440000Y-3700000I-110000J0D01*
G01*
X9440000Y-3700000D02*
G75*
G02*
X9660000Y-3700000I110000J0D01*
G01*
X9440000Y-12390000D02*
X9660000Y-12610000D01*
X9660000Y-12390000D02*
X9440000Y-12610000D01*
X9660000Y-12500000D02*
G75*
G02*
X9440000Y-12500000I-110000J0D01*
G01*
X9440000Y-12500000D02*
G75*
G02*
X9660000Y-12500000I110000J0D01*
G01*
D11*
X4005777Y-13316484D02*
X4005777Y-13116484D01*
X4005777Y-13116484D02*
X4053396Y-13116484D01*
X4053396Y-13116484D02*
X4081967Y-13126008D01*
X4081967Y-13126008D02*
X4101015Y-13145055D01*
X4101015Y-13145055D02*
X4110539Y-13164103D01*
X4110539Y-13164103D02*
X4120062Y-13202198D01*
X4120062Y-13202198D02*
X4120062Y-13230769D01*
X4120062Y-13230769D02*
X4110539Y-13268865D01*
X4110539Y-13268865D02*
X4101015Y-13287912D01*
X4101015Y-13287912D02*
X4081967Y-13306960D01*
X4081967Y-13306960D02*
X4053396Y-13316484D01*
X4053396Y-13316484D02*
X4005777Y-13316484D01*
X4205777Y-13316484D02*
X4205777Y-13183150D01*
X4205777Y-13221246D02*
X4215301Y-13202198D01*
X4215301Y-13202198D02*
X4224824Y-13192674D01*
X4224824Y-13192674D02*
X4243872Y-13183150D01*
X4243872Y-13183150D02*
X4262920Y-13183150D01*
X4329586Y-13316484D02*
X4329586Y-13183150D01*
X4329586Y-13116484D02*
X4320063Y-13126008D01*
X4320063Y-13126008D02*
X4329586Y-13135531D01*
X4329586Y-13135531D02*
X4339110Y-13126008D01*
X4339110Y-13126008D02*
X4329586Y-13116484D01*
X4329586Y-13116484D02*
X4329586Y-13135531D01*
X4453396Y-13316484D02*
X4434348Y-13306960D01*
X4434348Y-13306960D02*
X4424824Y-13287912D01*
X4424824Y-13287912D02*
X4424824Y-13116484D01*
X4558158Y-13316484D02*
X4539110Y-13306960D01*
X4539110Y-13306960D02*
X4529586Y-13287912D01*
X4529586Y-13287912D02*
X4529586Y-13116484D01*
X4786729Y-13316484D02*
X4786729Y-13116484D01*
X4786729Y-13116484D02*
X4853396Y-13259341D01*
X4853396Y-13259341D02*
X4920063Y-13116484D01*
X4920063Y-13116484D02*
X4920063Y-13316484D01*
X5101015Y-13316484D02*
X5101015Y-13211722D01*
X5101015Y-13211722D02*
X5091491Y-13192674D01*
X5091491Y-13192674D02*
X5072444Y-13183150D01*
X5072444Y-13183150D02*
X5034348Y-13183150D01*
X5034348Y-13183150D02*
X5015301Y-13192674D01*
X5101015Y-13306960D02*
X5081967Y-13316484D01*
X5081967Y-13316484D02*
X5034348Y-13316484D01*
X5034348Y-13316484D02*
X5015301Y-13306960D01*
X5015301Y-13306960D02*
X5005777Y-13287912D01*
X5005777Y-13287912D02*
X5005777Y-13268865D01*
X5005777Y-13268865D02*
X5015301Y-13249817D01*
X5015301Y-13249817D02*
X5034348Y-13240293D01*
X5034348Y-13240293D02*
X5081967Y-13240293D01*
X5081967Y-13240293D02*
X5101015Y-13230769D01*
X5196253Y-13183150D02*
X5196253Y-13383150D01*
X5196253Y-13192674D02*
X5215301Y-13183150D01*
X5215301Y-13183150D02*
X5253396Y-13183150D01*
X5253396Y-13183150D02*
X5272444Y-13192674D01*
X5272444Y-13192674D02*
X5281967Y-13202198D01*
X5281967Y-13202198D02*
X5291491Y-13221246D01*
X5291491Y-13221246D02*
X5291491Y-13278388D01*
X5291491Y-13278388D02*
X5281967Y-13297436D01*
X5281967Y-13297436D02*
X5272444Y-13306960D01*
X5272444Y-13306960D02*
X5253396Y-13316484D01*
X5253396Y-13316484D02*
X5215301Y-13316484D01*
X5215301Y-13316484D02*
X5196253Y-13306960D01*
X5377205Y-13297436D02*
X5386729Y-13306960D01*
X5386729Y-13306960D02*
X5377205Y-13316484D01*
X5377205Y-13316484D02*
X5367682Y-13306960D01*
X5367682Y-13306960D02*
X5377205Y-13297436D01*
X5377205Y-13297436D02*
X5377205Y-13316484D01*
X5377205Y-13192674D02*
X5386729Y-13202198D01*
X5386729Y-13202198D02*
X5377205Y-13211722D01*
X5377205Y-13211722D02*
X5367682Y-13202198D01*
X5367682Y-13202198D02*
X5377205Y-13192674D01*
X5377205Y-13192674D02*
X5377205Y-13211722D01*
D10*
X3705000Y-13625000D02*
X3745000Y-13665000D01*
X3745000Y-13625000D02*
X3705000Y-13665000D01*
D11*
X4043872Y-13536484D02*
X4062920Y-13536484D01*
X4062920Y-13536484D02*
X4081967Y-13546008D01*
X4081967Y-13546008D02*
X4091491Y-13555531D01*
X4091491Y-13555531D02*
X4101015Y-13574579D01*
X4101015Y-13574579D02*
X4110539Y-13612674D01*
X4110539Y-13612674D02*
X4110539Y-13660293D01*
X4110539Y-13660293D02*
X4101015Y-13698388D01*
X4101015Y-13698388D02*
X4091491Y-13717436D01*
X4091491Y-13717436D02*
X4081967Y-13726960D01*
X4081967Y-13726960D02*
X4062920Y-13736484D01*
X4062920Y-13736484D02*
X4043872Y-13736484D01*
X4043872Y-13736484D02*
X4024824Y-13726960D01*
X4024824Y-13726960D02*
X4015301Y-13717436D01*
X4015301Y-13717436D02*
X4005777Y-13698388D01*
X4005777Y-13698388D02*
X3996253Y-13660293D01*
X3996253Y-13660293D02*
X3996253Y-13612674D01*
X3996253Y-13612674D02*
X4005777Y-13574579D01*
X4005777Y-13574579D02*
X4015301Y-13555531D01*
X4015301Y-13555531D02*
X4024824Y-13546008D01*
X4024824Y-13546008D02*
X4043872Y-13536484D01*
X4196253Y-13717436D02*
X4205777Y-13726960D01*
X4205777Y-13726960D02*
X4196253Y-13736484D01*
X4196253Y-13736484D02*
X4186729Y-13726960D01*
X4186729Y-13726960D02*
X4196253Y-13717436D01*
X4196253Y-13717436D02*
X4196253Y-13736484D01*
X4377205Y-13603150D02*
X4377205Y-13736484D01*
X4329586Y-13526960D02*
X4281967Y-13669817D01*
X4281967Y-13669817D02*
X4405777Y-13669817D01*
X4520063Y-13536484D02*
X4539110Y-13536484D01*
X4539110Y-13536484D02*
X4558158Y-13546008D01*
X4558158Y-13546008D02*
X4567682Y-13555531D01*
X4567682Y-13555531D02*
X4577205Y-13574579D01*
X4577205Y-13574579D02*
X4586729Y-13612674D01*
X4586729Y-13612674D02*
X4586729Y-13660293D01*
X4586729Y-13660293D02*
X4577205Y-13698388D01*
X4577205Y-13698388D02*
X4567682Y-13717436D01*
X4567682Y-13717436D02*
X4558158Y-13726960D01*
X4558158Y-13726960D02*
X4539110Y-13736484D01*
X4539110Y-13736484D02*
X4520063Y-13736484D01*
X4520063Y-13736484D02*
X4501015Y-13726960D01*
X4501015Y-13726960D02*
X4491491Y-13717436D01*
X4491491Y-13717436D02*
X4481967Y-13698388D01*
X4481967Y-13698388D02*
X4472444Y-13660293D01*
X4472444Y-13660293D02*
X4472444Y-13612674D01*
X4472444Y-13612674D02*
X4481967Y-13574579D01*
X4481967Y-13574579D02*
X4491491Y-13555531D01*
X4491491Y-13555531D02*
X4501015Y-13546008D01*
X4501015Y-13546008D02*
X4520063Y-13536484D01*
X4710539Y-13536484D02*
X4729586Y-13536484D01*
X4729586Y-13536484D02*
X4748634Y-13546008D01*
X4748634Y-13546008D02*
X4758158Y-13555531D01*
X4758158Y-13555531D02*
X4767682Y-13574579D01*
X4767682Y-13574579D02*
X4777205Y-13612674D01*
X4777205Y-13612674D02*
X4777205Y-13660293D01*
X4777205Y-13660293D02*
X4767682Y-13698388D01*
X4767682Y-13698388D02*
X4758158Y-13717436D01*
X4758158Y-13717436D02*
X4748634Y-13726960D01*
X4748634Y-13726960D02*
X4729586Y-13736484D01*
X4729586Y-13736484D02*
X4710539Y-13736484D01*
X4710539Y-13736484D02*
X4691491Y-13726960D01*
X4691491Y-13726960D02*
X4681967Y-13717436D01*
X4681967Y-13717436D02*
X4672444Y-13698388D01*
X4672444Y-13698388D02*
X4662920Y-13660293D01*
X4662920Y-13660293D02*
X4662920Y-13612674D01*
X4662920Y-13612674D02*
X4672444Y-13574579D01*
X4672444Y-13574579D02*
X4681967Y-13555531D01*
X4681967Y-13555531D02*
X4691491Y-13546008D01*
X4691491Y-13546008D02*
X4710539Y-13536484D01*
X4862920Y-13736484D02*
X4862920Y-13603150D01*
X4862920Y-13622198D02*
X4872444Y-13612674D01*
X4872444Y-13612674D02*
X4891491Y-13603150D01*
X4891491Y-13603150D02*
X4920063Y-13603150D01*
X4920063Y-13603150D02*
X4939110Y-13612674D01*
X4939110Y-13612674D02*
X4948634Y-13631722D01*
X4948634Y-13631722D02*
X4948634Y-13736484D01*
X4948634Y-13631722D02*
X4958158Y-13612674D01*
X4958158Y-13612674D02*
X4977205Y-13603150D01*
X4977205Y-13603150D02*
X5005777Y-13603150D01*
X5005777Y-13603150D02*
X5024825Y-13612674D01*
X5024825Y-13612674D02*
X5034348Y-13631722D01*
X5034348Y-13631722D02*
X5034348Y-13736484D01*
X5129586Y-13736484D02*
X5129586Y-13603150D01*
X5129586Y-13622198D02*
X5139110Y-13612674D01*
X5139110Y-13612674D02*
X5158158Y-13603150D01*
X5158158Y-13603150D02*
X5186729Y-13603150D01*
X5186729Y-13603150D02*
X5205777Y-13612674D01*
X5205777Y-13612674D02*
X5215301Y-13631722D01*
X5215301Y-13631722D02*
X5215301Y-13736484D01*
X5215301Y-13631722D02*
X5224825Y-13612674D01*
X5224825Y-13612674D02*
X5243872Y-13603150D01*
X5243872Y-13603150D02*
X5272444Y-13603150D01*
X5272444Y-13603150D02*
X5291491Y-13612674D01*
X5291491Y-13612674D02*
X5301015Y-13631722D01*
X5301015Y-13631722D02*
X5301015Y-13736484D01*
X5691491Y-13526960D02*
X5520063Y-13784103D01*
X5948634Y-13536484D02*
X5967682Y-13536484D01*
X5967682Y-13536484D02*
X5986729Y-13546008D01*
X5986729Y-13546008D02*
X5996253Y-13555531D01*
X5996253Y-13555531D02*
X6005777Y-13574579D01*
X6005777Y-13574579D02*
X6015301Y-13612674D01*
X6015301Y-13612674D02*
X6015301Y-13660293D01*
X6015301Y-13660293D02*
X6005777Y-13698388D01*
X6005777Y-13698388D02*
X5996253Y-13717436D01*
X5996253Y-13717436D02*
X5986729Y-13726960D01*
X5986729Y-13726960D02*
X5967682Y-13736484D01*
X5967682Y-13736484D02*
X5948634Y-13736484D01*
X5948634Y-13736484D02*
X5929586Y-13726960D01*
X5929586Y-13726960D02*
X5920063Y-13717436D01*
X5920063Y-13717436D02*
X5910539Y-13698388D01*
X5910539Y-13698388D02*
X5901015Y-13660293D01*
X5901015Y-13660293D02*
X5901015Y-13612674D01*
X5901015Y-13612674D02*
X5910539Y-13574579D01*
X5910539Y-13574579D02*
X5920063Y-13555531D01*
X5920063Y-13555531D02*
X5929586Y-13546008D01*
X5929586Y-13546008D02*
X5948634Y-13536484D01*
X6101015Y-13717436D02*
X6110539Y-13726960D01*
X6110539Y-13726960D02*
X6101015Y-13736484D01*
X6101015Y-13736484D02*
X6091491Y-13726960D01*
X6091491Y-13726960D02*
X6101015Y-13717436D01*
X6101015Y-13717436D02*
X6101015Y-13736484D01*
X6234348Y-13536484D02*
X6253396Y-13536484D01*
X6253396Y-13536484D02*
X6272444Y-13546008D01*
X6272444Y-13546008D02*
X6281967Y-13555531D01*
X6281967Y-13555531D02*
X6291491Y-13574579D01*
X6291491Y-13574579D02*
X6301015Y-13612674D01*
X6301015Y-13612674D02*
X6301015Y-13660293D01*
X6301015Y-13660293D02*
X6291491Y-13698388D01*
X6291491Y-13698388D02*
X6281967Y-13717436D01*
X6281967Y-13717436D02*
X6272444Y-13726960D01*
X6272444Y-13726960D02*
X6253396Y-13736484D01*
X6253396Y-13736484D02*
X6234348Y-13736484D01*
X6234348Y-13736484D02*
X6215301Y-13726960D01*
X6215301Y-13726960D02*
X6205777Y-13717436D01*
X6205777Y-13717436D02*
X6196253Y-13698388D01*
X6196253Y-13698388D02*
X6186729Y-13660293D01*
X6186729Y-13660293D02*
X6186729Y-13612674D01*
X6186729Y-13612674D02*
X6196253Y-13574579D01*
X6196253Y-13574579D02*
X6205777Y-13555531D01*
X6205777Y-13555531D02*
X6215301Y-13546008D01*
X6215301Y-13546008D02*
X6234348Y-13536484D01*
X6491491Y-13736484D02*
X6377206Y-13736484D01*
X6434348Y-13736484D02*
X6434348Y-13536484D01*
X6434348Y-13536484D02*
X6415301Y-13565055D01*
X6415301Y-13565055D02*
X6396253Y-13584103D01*
X6396253Y-13584103D02*
X6377206Y-13593627D01*
X6672444Y-13536484D02*
X6577206Y-13536484D01*
X6577206Y-13536484D02*
X6567682Y-13631722D01*
X6567682Y-13631722D02*
X6577206Y-13622198D01*
X6577206Y-13622198D02*
X6596253Y-13612674D01*
X6596253Y-13612674D02*
X6643872Y-13612674D01*
X6643872Y-13612674D02*
X6662920Y-13622198D01*
X6662920Y-13622198D02*
X6672444Y-13631722D01*
X6672444Y-13631722D02*
X6681967Y-13650769D01*
X6681967Y-13650769D02*
X6681967Y-13698388D01*
X6681967Y-13698388D02*
X6672444Y-13717436D01*
X6672444Y-13717436D02*
X6662920Y-13726960D01*
X6662920Y-13726960D02*
X6643872Y-13736484D01*
X6643872Y-13736484D02*
X6596253Y-13736484D01*
X6596253Y-13736484D02*
X6577206Y-13726960D01*
X6577206Y-13726960D02*
X6567682Y-13717436D01*
X6748634Y-13536484D02*
X6881967Y-13536484D01*
X6881967Y-13536484D02*
X6796253Y-13736484D01*
X6948634Y-13536484D02*
X6948634Y-13574579D01*
X7024825Y-13536484D02*
X7024825Y-13574579D01*
X7320063Y-13812674D02*
X7310539Y-13803150D01*
X7310539Y-13803150D02*
X7291491Y-13774579D01*
X7291491Y-13774579D02*
X7281968Y-13755531D01*
X7281968Y-13755531D02*
X7272444Y-13726960D01*
X7272444Y-13726960D02*
X7262920Y-13679341D01*
X7262920Y-13679341D02*
X7262920Y-13641246D01*
X7262920Y-13641246D02*
X7272444Y-13593627D01*
X7272444Y-13593627D02*
X7281968Y-13565055D01*
X7281968Y-13565055D02*
X7291491Y-13546008D01*
X7291491Y-13546008D02*
X7310539Y-13517436D01*
X7310539Y-13517436D02*
X7320063Y-13507912D01*
X7386729Y-13555531D02*
X7396253Y-13546008D01*
X7396253Y-13546008D02*
X7415301Y-13536484D01*
X7415301Y-13536484D02*
X7462920Y-13536484D01*
X7462920Y-13536484D02*
X7481968Y-13546008D01*
X7481968Y-13546008D02*
X7491491Y-13555531D01*
X7491491Y-13555531D02*
X7501015Y-13574579D01*
X7501015Y-13574579D02*
X7501015Y-13593627D01*
X7501015Y-13593627D02*
X7491491Y-13622198D01*
X7491491Y-13622198D02*
X7377206Y-13736484D01*
X7377206Y-13736484D02*
X7501015Y-13736484D01*
X7624825Y-13536484D02*
X7643872Y-13536484D01*
X7643872Y-13536484D02*
X7662920Y-13546008D01*
X7662920Y-13546008D02*
X7672444Y-13555531D01*
X7672444Y-13555531D02*
X7681968Y-13574579D01*
X7681968Y-13574579D02*
X7691491Y-13612674D01*
X7691491Y-13612674D02*
X7691491Y-13660293D01*
X7691491Y-13660293D02*
X7681968Y-13698388D01*
X7681968Y-13698388D02*
X7672444Y-13717436D01*
X7672444Y-13717436D02*
X7662920Y-13726960D01*
X7662920Y-13726960D02*
X7643872Y-13736484D01*
X7643872Y-13736484D02*
X7624825Y-13736484D01*
X7624825Y-13736484D02*
X7605777Y-13726960D01*
X7605777Y-13726960D02*
X7596253Y-13717436D01*
X7596253Y-13717436D02*
X7586729Y-13698388D01*
X7586729Y-13698388D02*
X7577206Y-13660293D01*
X7577206Y-13660293D02*
X7577206Y-13612674D01*
X7577206Y-13612674D02*
X7586729Y-13574579D01*
X7586729Y-13574579D02*
X7596253Y-13555531D01*
X7596253Y-13555531D02*
X7605777Y-13546008D01*
X7605777Y-13546008D02*
X7624825Y-13536484D01*
X7929587Y-13736484D02*
X7929587Y-13536484D01*
X8015301Y-13736484D02*
X8015301Y-13631722D01*
X8015301Y-13631722D02*
X8005777Y-13612674D01*
X8005777Y-13612674D02*
X7986730Y-13603150D01*
X7986730Y-13603150D02*
X7958158Y-13603150D01*
X7958158Y-13603150D02*
X7939110Y-13612674D01*
X7939110Y-13612674D02*
X7929587Y-13622198D01*
X8139110Y-13736484D02*
X8120063Y-13726960D01*
X8120063Y-13726960D02*
X8110539Y-13717436D01*
X8110539Y-13717436D02*
X8101015Y-13698388D01*
X8101015Y-13698388D02*
X8101015Y-13641246D01*
X8101015Y-13641246D02*
X8110539Y-13622198D01*
X8110539Y-13622198D02*
X8120063Y-13612674D01*
X8120063Y-13612674D02*
X8139110Y-13603150D01*
X8139110Y-13603150D02*
X8167682Y-13603150D01*
X8167682Y-13603150D02*
X8186730Y-13612674D01*
X8186730Y-13612674D02*
X8196253Y-13622198D01*
X8196253Y-13622198D02*
X8205777Y-13641246D01*
X8205777Y-13641246D02*
X8205777Y-13698388D01*
X8205777Y-13698388D02*
X8196253Y-13717436D01*
X8196253Y-13717436D02*
X8186730Y-13726960D01*
X8186730Y-13726960D02*
X8167682Y-13736484D01*
X8167682Y-13736484D02*
X8139110Y-13736484D01*
X8320063Y-13736484D02*
X8301015Y-13726960D01*
X8301015Y-13726960D02*
X8291491Y-13707912D01*
X8291491Y-13707912D02*
X8291491Y-13536484D01*
X8472444Y-13726960D02*
X8453396Y-13736484D01*
X8453396Y-13736484D02*
X8415301Y-13736484D01*
X8415301Y-13736484D02*
X8396253Y-13726960D01*
X8396253Y-13726960D02*
X8386730Y-13707912D01*
X8386730Y-13707912D02*
X8386730Y-13631722D01*
X8386730Y-13631722D02*
X8396253Y-13612674D01*
X8396253Y-13612674D02*
X8415301Y-13603150D01*
X8415301Y-13603150D02*
X8453396Y-13603150D01*
X8453396Y-13603150D02*
X8472444Y-13612674D01*
X8472444Y-13612674D02*
X8481968Y-13631722D01*
X8481968Y-13631722D02*
X8481968Y-13650769D01*
X8481968Y-13650769D02*
X8386730Y-13669817D01*
X8558158Y-13726960D02*
X8577206Y-13736484D01*
X8577206Y-13736484D02*
X8615301Y-13736484D01*
X8615301Y-13736484D02*
X8634349Y-13726960D01*
X8634349Y-13726960D02*
X8643873Y-13707912D01*
X8643873Y-13707912D02*
X8643873Y-13698388D01*
X8643873Y-13698388D02*
X8634349Y-13679341D01*
X8634349Y-13679341D02*
X8615301Y-13669817D01*
X8615301Y-13669817D02*
X8586730Y-13669817D01*
X8586730Y-13669817D02*
X8567682Y-13660293D01*
X8567682Y-13660293D02*
X8558158Y-13641246D01*
X8558158Y-13641246D02*
X8558158Y-13631722D01*
X8558158Y-13631722D02*
X8567682Y-13612674D01*
X8567682Y-13612674D02*
X8586730Y-13603150D01*
X8586730Y-13603150D02*
X8615301Y-13603150D01*
X8615301Y-13603150D02*
X8634349Y-13612674D01*
X8710539Y-13812674D02*
X8720063Y-13803150D01*
X8720063Y-13803150D02*
X8739111Y-13774579D01*
X8739111Y-13774579D02*
X8748634Y-13755531D01*
X8748634Y-13755531D02*
X8758158Y-13726960D01*
X8758158Y-13726960D02*
X8767682Y-13679341D01*
X8767682Y-13679341D02*
X8767682Y-13641246D01*
X8767682Y-13641246D02*
X8758158Y-13593627D01*
X8758158Y-13593627D02*
X8748634Y-13565055D01*
X8748634Y-13565055D02*
X8739111Y-13546008D01*
X8739111Y-13546008D02*
X8720063Y-13517436D01*
X8720063Y-13517436D02*
X8710539Y-13507912D01*
D10*
X3745000Y-13909000D02*
G75*
G02*
X3695000Y-13909000I-25000J0D01*
G01*
X3695000Y-13909000D02*
G75*
G02*
X3745000Y-13909000I25000J0D01*
G01*
D11*
X4043872Y-13800484D02*
X4062920Y-13800484D01*
X4062920Y-13800484D02*
X4081967Y-13810008D01*
X4081967Y-13810008D02*
X4091491Y-13819531D01*
X4091491Y-13819531D02*
X4101015Y-13838579D01*
X4101015Y-13838579D02*
X4110539Y-13876674D01*
X4110539Y-13876674D02*
X4110539Y-13924293D01*
X4110539Y-13924293D02*
X4101015Y-13962388D01*
X4101015Y-13962388D02*
X4091491Y-13981436D01*
X4091491Y-13981436D02*
X4081967Y-13990960D01*
X4081967Y-13990960D02*
X4062920Y-14000484D01*
X4062920Y-14000484D02*
X4043872Y-14000484D01*
X4043872Y-14000484D02*
X4024824Y-13990960D01*
X4024824Y-13990960D02*
X4015301Y-13981436D01*
X4015301Y-13981436D02*
X4005777Y-13962388D01*
X4005777Y-13962388D02*
X3996253Y-13924293D01*
X3996253Y-13924293D02*
X3996253Y-13876674D01*
X3996253Y-13876674D02*
X4005777Y-13838579D01*
X4005777Y-13838579D02*
X4015301Y-13819531D01*
X4015301Y-13819531D02*
X4024824Y-13810008D01*
X4024824Y-13810008D02*
X4043872Y-13800484D01*
X4196253Y-13981436D02*
X4205777Y-13990960D01*
X4205777Y-13990960D02*
X4196253Y-14000484D01*
X4196253Y-14000484D02*
X4186729Y-13990960D01*
X4186729Y-13990960D02*
X4196253Y-13981436D01*
X4196253Y-13981436D02*
X4196253Y-14000484D01*
X4386729Y-13800484D02*
X4291491Y-13800484D01*
X4291491Y-13800484D02*
X4281967Y-13895722D01*
X4281967Y-13895722D02*
X4291491Y-13886198D01*
X4291491Y-13886198D02*
X4310539Y-13876674D01*
X4310539Y-13876674D02*
X4358158Y-13876674D01*
X4358158Y-13876674D02*
X4377205Y-13886198D01*
X4377205Y-13886198D02*
X4386729Y-13895722D01*
X4386729Y-13895722D02*
X4396253Y-13914769D01*
X4396253Y-13914769D02*
X4396253Y-13962388D01*
X4396253Y-13962388D02*
X4386729Y-13981436D01*
X4386729Y-13981436D02*
X4377205Y-13990960D01*
X4377205Y-13990960D02*
X4358158Y-14000484D01*
X4358158Y-14000484D02*
X4310539Y-14000484D01*
X4310539Y-14000484D02*
X4291491Y-13990960D01*
X4291491Y-13990960D02*
X4281967Y-13981436D01*
X4520063Y-13800484D02*
X4539110Y-13800484D01*
X4539110Y-13800484D02*
X4558158Y-13810008D01*
X4558158Y-13810008D02*
X4567682Y-13819531D01*
X4567682Y-13819531D02*
X4577205Y-13838579D01*
X4577205Y-13838579D02*
X4586729Y-13876674D01*
X4586729Y-13876674D02*
X4586729Y-13924293D01*
X4586729Y-13924293D02*
X4577205Y-13962388D01*
X4577205Y-13962388D02*
X4567682Y-13981436D01*
X4567682Y-13981436D02*
X4558158Y-13990960D01*
X4558158Y-13990960D02*
X4539110Y-14000484D01*
X4539110Y-14000484D02*
X4520063Y-14000484D01*
X4520063Y-14000484D02*
X4501015Y-13990960D01*
X4501015Y-13990960D02*
X4491491Y-13981436D01*
X4491491Y-13981436D02*
X4481967Y-13962388D01*
X4481967Y-13962388D02*
X4472444Y-13924293D01*
X4472444Y-13924293D02*
X4472444Y-13876674D01*
X4472444Y-13876674D02*
X4481967Y-13838579D01*
X4481967Y-13838579D02*
X4491491Y-13819531D01*
X4491491Y-13819531D02*
X4501015Y-13810008D01*
X4501015Y-13810008D02*
X4520063Y-13800484D01*
X4710539Y-13800484D02*
X4729586Y-13800484D01*
X4729586Y-13800484D02*
X4748634Y-13810008D01*
X4748634Y-13810008D02*
X4758158Y-13819531D01*
X4758158Y-13819531D02*
X4767682Y-13838579D01*
X4767682Y-13838579D02*
X4777205Y-13876674D01*
X4777205Y-13876674D02*
X4777205Y-13924293D01*
X4777205Y-13924293D02*
X4767682Y-13962388D01*
X4767682Y-13962388D02*
X4758158Y-13981436D01*
X4758158Y-13981436D02*
X4748634Y-13990960D01*
X4748634Y-13990960D02*
X4729586Y-14000484D01*
X4729586Y-14000484D02*
X4710539Y-14000484D01*
X4710539Y-14000484D02*
X4691491Y-13990960D01*
X4691491Y-13990960D02*
X4681967Y-13981436D01*
X4681967Y-13981436D02*
X4672444Y-13962388D01*
X4672444Y-13962388D02*
X4662920Y-13924293D01*
X4662920Y-13924293D02*
X4662920Y-13876674D01*
X4662920Y-13876674D02*
X4672444Y-13838579D01*
X4672444Y-13838579D02*
X4681967Y-13819531D01*
X4681967Y-13819531D02*
X4691491Y-13810008D01*
X4691491Y-13810008D02*
X4710539Y-13800484D01*
X4862920Y-14000484D02*
X4862920Y-13867150D01*
X4862920Y-13886198D02*
X4872444Y-13876674D01*
X4872444Y-13876674D02*
X4891491Y-13867150D01*
X4891491Y-13867150D02*
X4920063Y-13867150D01*
X4920063Y-13867150D02*
X4939110Y-13876674D01*
X4939110Y-13876674D02*
X4948634Y-13895722D01*
X4948634Y-13895722D02*
X4948634Y-14000484D01*
X4948634Y-13895722D02*
X4958158Y-13876674D01*
X4958158Y-13876674D02*
X4977205Y-13867150D01*
X4977205Y-13867150D02*
X5005777Y-13867150D01*
X5005777Y-13867150D02*
X5024825Y-13876674D01*
X5024825Y-13876674D02*
X5034348Y-13895722D01*
X5034348Y-13895722D02*
X5034348Y-14000484D01*
X5129586Y-14000484D02*
X5129586Y-13867150D01*
X5129586Y-13886198D02*
X5139110Y-13876674D01*
X5139110Y-13876674D02*
X5158158Y-13867150D01*
X5158158Y-13867150D02*
X5186729Y-13867150D01*
X5186729Y-13867150D02*
X5205777Y-13876674D01*
X5205777Y-13876674D02*
X5215301Y-13895722D01*
X5215301Y-13895722D02*
X5215301Y-14000484D01*
X5215301Y-13895722D02*
X5224825Y-13876674D01*
X5224825Y-13876674D02*
X5243872Y-13867150D01*
X5243872Y-13867150D02*
X5272444Y-13867150D01*
X5272444Y-13867150D02*
X5291491Y-13876674D01*
X5291491Y-13876674D02*
X5301015Y-13895722D01*
X5301015Y-13895722D02*
X5301015Y-14000484D01*
X5691491Y-13790960D02*
X5520063Y-14048103D01*
X5948634Y-13800484D02*
X5967682Y-13800484D01*
X5967682Y-13800484D02*
X5986729Y-13810008D01*
X5986729Y-13810008D02*
X5996253Y-13819531D01*
X5996253Y-13819531D02*
X6005777Y-13838579D01*
X6005777Y-13838579D02*
X6015301Y-13876674D01*
X6015301Y-13876674D02*
X6015301Y-13924293D01*
X6015301Y-13924293D02*
X6005777Y-13962388D01*
X6005777Y-13962388D02*
X5996253Y-13981436D01*
X5996253Y-13981436D02*
X5986729Y-13990960D01*
X5986729Y-13990960D02*
X5967682Y-14000484D01*
X5967682Y-14000484D02*
X5948634Y-14000484D01*
X5948634Y-14000484D02*
X5929586Y-13990960D01*
X5929586Y-13990960D02*
X5920063Y-13981436D01*
X5920063Y-13981436D02*
X5910539Y-13962388D01*
X5910539Y-13962388D02*
X5901015Y-13924293D01*
X5901015Y-13924293D02*
X5901015Y-13876674D01*
X5901015Y-13876674D02*
X5910539Y-13838579D01*
X5910539Y-13838579D02*
X5920063Y-13819531D01*
X5920063Y-13819531D02*
X5929586Y-13810008D01*
X5929586Y-13810008D02*
X5948634Y-13800484D01*
X6101015Y-13981436D02*
X6110539Y-13990960D01*
X6110539Y-13990960D02*
X6101015Y-14000484D01*
X6101015Y-14000484D02*
X6091491Y-13990960D01*
X6091491Y-13990960D02*
X6101015Y-13981436D01*
X6101015Y-13981436D02*
X6101015Y-14000484D01*
X6234348Y-13800484D02*
X6253396Y-13800484D01*
X6253396Y-13800484D02*
X6272444Y-13810008D01*
X6272444Y-13810008D02*
X6281967Y-13819531D01*
X6281967Y-13819531D02*
X6291491Y-13838579D01*
X6291491Y-13838579D02*
X6301015Y-13876674D01*
X6301015Y-13876674D02*
X6301015Y-13924293D01*
X6301015Y-13924293D02*
X6291491Y-13962388D01*
X6291491Y-13962388D02*
X6281967Y-13981436D01*
X6281967Y-13981436D02*
X6272444Y-13990960D01*
X6272444Y-13990960D02*
X6253396Y-14000484D01*
X6253396Y-14000484D02*
X6234348Y-14000484D01*
X6234348Y-14000484D02*
X6215301Y-13990960D01*
X6215301Y-13990960D02*
X6205777Y-13981436D01*
X6205777Y-13981436D02*
X6196253Y-13962388D01*
X6196253Y-13962388D02*
X6186729Y-13924293D01*
X6186729Y-13924293D02*
X6186729Y-13876674D01*
X6186729Y-13876674D02*
X6196253Y-13838579D01*
X6196253Y-13838579D02*
X6205777Y-13819531D01*
X6205777Y-13819531D02*
X6215301Y-13810008D01*
X6215301Y-13810008D02*
X6234348Y-13800484D01*
X6491491Y-14000484D02*
X6377206Y-14000484D01*
X6434348Y-14000484D02*
X6434348Y-13800484D01*
X6434348Y-13800484D02*
X6415301Y-13829055D01*
X6415301Y-13829055D02*
X6396253Y-13848103D01*
X6396253Y-13848103D02*
X6377206Y-13857627D01*
X6586729Y-14000484D02*
X6624825Y-14000484D01*
X6624825Y-14000484D02*
X6643872Y-13990960D01*
X6643872Y-13990960D02*
X6653396Y-13981436D01*
X6653396Y-13981436D02*
X6672444Y-13952865D01*
X6672444Y-13952865D02*
X6681967Y-13914769D01*
X6681967Y-13914769D02*
X6681967Y-13838579D01*
X6681967Y-13838579D02*
X6672444Y-13819531D01*
X6672444Y-13819531D02*
X6662920Y-13810008D01*
X6662920Y-13810008D02*
X6643872Y-13800484D01*
X6643872Y-13800484D02*
X6605777Y-13800484D01*
X6605777Y-13800484D02*
X6586729Y-13810008D01*
X6586729Y-13810008D02*
X6577206Y-13819531D01*
X6577206Y-13819531D02*
X6567682Y-13838579D01*
X6567682Y-13838579D02*
X6567682Y-13886198D01*
X6567682Y-13886198D02*
X6577206Y-13905246D01*
X6577206Y-13905246D02*
X6586729Y-13914769D01*
X6586729Y-13914769D02*
X6605777Y-13924293D01*
X6605777Y-13924293D02*
X6643872Y-13924293D01*
X6643872Y-13924293D02*
X6662920Y-13914769D01*
X6662920Y-13914769D02*
X6672444Y-13905246D01*
X6672444Y-13905246D02*
X6681967Y-13886198D01*
X6748634Y-13800484D02*
X6881967Y-13800484D01*
X6881967Y-13800484D02*
X6796253Y-14000484D01*
X6948634Y-13800484D02*
X6948634Y-13838579D01*
X7024825Y-13800484D02*
X7024825Y-13838579D01*
X7320063Y-14076674D02*
X7310539Y-14067150D01*
X7310539Y-14067150D02*
X7291491Y-14038579D01*
X7291491Y-14038579D02*
X7281968Y-14019531D01*
X7281968Y-14019531D02*
X7272444Y-13990960D01*
X7272444Y-13990960D02*
X7262920Y-13943341D01*
X7262920Y-13943341D02*
X7262920Y-13905246D01*
X7262920Y-13905246D02*
X7272444Y-13857627D01*
X7272444Y-13857627D02*
X7281968Y-13829055D01*
X7281968Y-13829055D02*
X7291491Y-13810008D01*
X7291491Y-13810008D02*
X7310539Y-13781436D01*
X7310539Y-13781436D02*
X7320063Y-13771912D01*
X7481968Y-13867150D02*
X7481968Y-14000484D01*
X7434348Y-13790960D02*
X7386729Y-13933817D01*
X7386729Y-13933817D02*
X7510539Y-13933817D01*
X7739110Y-14000484D02*
X7739110Y-13800484D01*
X7824825Y-14000484D02*
X7824825Y-13895722D01*
X7824825Y-13895722D02*
X7815301Y-13876674D01*
X7815301Y-13876674D02*
X7796253Y-13867150D01*
X7796253Y-13867150D02*
X7767682Y-13867150D01*
X7767682Y-13867150D02*
X7748634Y-13876674D01*
X7748634Y-13876674D02*
X7739110Y-13886198D01*
X7948634Y-14000484D02*
X7929587Y-13990960D01*
X7929587Y-13990960D02*
X7920063Y-13981436D01*
X7920063Y-13981436D02*
X7910539Y-13962388D01*
X7910539Y-13962388D02*
X7910539Y-13905246D01*
X7910539Y-13905246D02*
X7920063Y-13886198D01*
X7920063Y-13886198D02*
X7929587Y-13876674D01*
X7929587Y-13876674D02*
X7948634Y-13867150D01*
X7948634Y-13867150D02*
X7977206Y-13867150D01*
X7977206Y-13867150D02*
X7996253Y-13876674D01*
X7996253Y-13876674D02*
X8005777Y-13886198D01*
X8005777Y-13886198D02*
X8015301Y-13905246D01*
X8015301Y-13905246D02*
X8015301Y-13962388D01*
X8015301Y-13962388D02*
X8005777Y-13981436D01*
X8005777Y-13981436D02*
X7996253Y-13990960D01*
X7996253Y-13990960D02*
X7977206Y-14000484D01*
X7977206Y-14000484D02*
X7948634Y-14000484D01*
X8129587Y-14000484D02*
X8110539Y-13990960D01*
X8110539Y-13990960D02*
X8101015Y-13971912D01*
X8101015Y-13971912D02*
X8101015Y-13800484D01*
X8281968Y-13990960D02*
X8262920Y-14000484D01*
X8262920Y-14000484D02*
X8224825Y-14000484D01*
X8224825Y-14000484D02*
X8205777Y-13990960D01*
X8205777Y-13990960D02*
X8196253Y-13971912D01*
X8196253Y-13971912D02*
X8196253Y-13895722D01*
X8196253Y-13895722D02*
X8205777Y-13876674D01*
X8205777Y-13876674D02*
X8224825Y-13867150D01*
X8224825Y-13867150D02*
X8262920Y-13867150D01*
X8262920Y-13867150D02*
X8281968Y-13876674D01*
X8281968Y-13876674D02*
X8291491Y-13895722D01*
X8291491Y-13895722D02*
X8291491Y-13914769D01*
X8291491Y-13914769D02*
X8196253Y-13933817D01*
X8367682Y-13990960D02*
X8386730Y-14000484D01*
X8386730Y-14000484D02*
X8424825Y-14000484D01*
X8424825Y-14000484D02*
X8443873Y-13990960D01*
X8443873Y-13990960D02*
X8453396Y-13971912D01*
X8453396Y-13971912D02*
X8453396Y-13962388D01*
X8453396Y-13962388D02*
X8443873Y-13943341D01*
X8443873Y-13943341D02*
X8424825Y-13933817D01*
X8424825Y-13933817D02*
X8396253Y-13933817D01*
X8396253Y-13933817D02*
X8377206Y-13924293D01*
X8377206Y-13924293D02*
X8367682Y-13905246D01*
X8367682Y-13905246D02*
X8367682Y-13895722D01*
X8367682Y-13895722D02*
X8377206Y-13876674D01*
X8377206Y-13876674D02*
X8396253Y-13867150D01*
X8396253Y-13867150D02*
X8424825Y-13867150D01*
X8424825Y-13867150D02*
X8443873Y-13876674D01*
X8520063Y-14076674D02*
X8529587Y-14067150D01*
X8529587Y-14067150D02*
X8548634Y-14038579D01*
X8548634Y-14038579D02*
X8558158Y-14019531D01*
X8558158Y-14019531D02*
X8567682Y-13990960D01*
X8567682Y-13990960D02*
X8577206Y-13943341D01*
X8577206Y-13943341D02*
X8577206Y-13905246D01*
X8577206Y-13905246D02*
X8567682Y-13857627D01*
X8567682Y-13857627D02*
X8558158Y-13829055D01*
X8558158Y-13829055D02*
X8548634Y-13810008D01*
X8548634Y-13810008D02*
X8529587Y-13781436D01*
X8529587Y-13781436D02*
X8520063Y-13771912D01*
D10*
X3710000Y-14138000D02*
X3710000Y-14208000D01*
X3675000Y-14173000D02*
X3745000Y-14173000D01*
D11*
X4043872Y-14064484D02*
X4062920Y-14064484D01*
X4062920Y-14064484D02*
X4081967Y-14074008D01*
X4081967Y-14074008D02*
X4091491Y-14083531D01*
X4091491Y-14083531D02*
X4101015Y-14102579D01*
X4101015Y-14102579D02*
X4110539Y-14140674D01*
X4110539Y-14140674D02*
X4110539Y-14188293D01*
X4110539Y-14188293D02*
X4101015Y-14226388D01*
X4101015Y-14226388D02*
X4091491Y-14245436D01*
X4091491Y-14245436D02*
X4081967Y-14254960D01*
X4081967Y-14254960D02*
X4062920Y-14264484D01*
X4062920Y-14264484D02*
X4043872Y-14264484D01*
X4043872Y-14264484D02*
X4024824Y-14254960D01*
X4024824Y-14254960D02*
X4015301Y-14245436D01*
X4015301Y-14245436D02*
X4005777Y-14226388D01*
X4005777Y-14226388D02*
X3996253Y-14188293D01*
X3996253Y-14188293D02*
X3996253Y-14140674D01*
X3996253Y-14140674D02*
X4005777Y-14102579D01*
X4005777Y-14102579D02*
X4015301Y-14083531D01*
X4015301Y-14083531D02*
X4024824Y-14074008D01*
X4024824Y-14074008D02*
X4043872Y-14064484D01*
X4196253Y-14245436D02*
X4205777Y-14254960D01*
X4205777Y-14254960D02*
X4196253Y-14264484D01*
X4196253Y-14264484D02*
X4186729Y-14254960D01*
X4186729Y-14254960D02*
X4196253Y-14245436D01*
X4196253Y-14245436D02*
X4196253Y-14264484D01*
X4272444Y-14064484D02*
X4405777Y-14064484D01*
X4405777Y-14064484D02*
X4320063Y-14264484D01*
X4520063Y-14064484D02*
X4539110Y-14064484D01*
X4539110Y-14064484D02*
X4558158Y-14074008D01*
X4558158Y-14074008D02*
X4567682Y-14083531D01*
X4567682Y-14083531D02*
X4577205Y-14102579D01*
X4577205Y-14102579D02*
X4586729Y-14140674D01*
X4586729Y-14140674D02*
X4586729Y-14188293D01*
X4586729Y-14188293D02*
X4577205Y-14226388D01*
X4577205Y-14226388D02*
X4567682Y-14245436D01*
X4567682Y-14245436D02*
X4558158Y-14254960D01*
X4558158Y-14254960D02*
X4539110Y-14264484D01*
X4539110Y-14264484D02*
X4520063Y-14264484D01*
X4520063Y-14264484D02*
X4501015Y-14254960D01*
X4501015Y-14254960D02*
X4491491Y-14245436D01*
X4491491Y-14245436D02*
X4481967Y-14226388D01*
X4481967Y-14226388D02*
X4472444Y-14188293D01*
X4472444Y-14188293D02*
X4472444Y-14140674D01*
X4472444Y-14140674D02*
X4481967Y-14102579D01*
X4481967Y-14102579D02*
X4491491Y-14083531D01*
X4491491Y-14083531D02*
X4501015Y-14074008D01*
X4501015Y-14074008D02*
X4520063Y-14064484D01*
X4710539Y-14064484D02*
X4729586Y-14064484D01*
X4729586Y-14064484D02*
X4748634Y-14074008D01*
X4748634Y-14074008D02*
X4758158Y-14083531D01*
X4758158Y-14083531D02*
X4767682Y-14102579D01*
X4767682Y-14102579D02*
X4777205Y-14140674D01*
X4777205Y-14140674D02*
X4777205Y-14188293D01*
X4777205Y-14188293D02*
X4767682Y-14226388D01*
X4767682Y-14226388D02*
X4758158Y-14245436D01*
X4758158Y-14245436D02*
X4748634Y-14254960D01*
X4748634Y-14254960D02*
X4729586Y-14264484D01*
X4729586Y-14264484D02*
X4710539Y-14264484D01*
X4710539Y-14264484D02*
X4691491Y-14254960D01*
X4691491Y-14254960D02*
X4681967Y-14245436D01*
X4681967Y-14245436D02*
X4672444Y-14226388D01*
X4672444Y-14226388D02*
X4662920Y-14188293D01*
X4662920Y-14188293D02*
X4662920Y-14140674D01*
X4662920Y-14140674D02*
X4672444Y-14102579D01*
X4672444Y-14102579D02*
X4681967Y-14083531D01*
X4681967Y-14083531D02*
X4691491Y-14074008D01*
X4691491Y-14074008D02*
X4710539Y-14064484D01*
X4862920Y-14264484D02*
X4862920Y-14131150D01*
X4862920Y-14150198D02*
X4872444Y-14140674D01*
X4872444Y-14140674D02*
X4891491Y-14131150D01*
X4891491Y-14131150D02*
X4920063Y-14131150D01*
X4920063Y-14131150D02*
X4939110Y-14140674D01*
X4939110Y-14140674D02*
X4948634Y-14159722D01*
X4948634Y-14159722D02*
X4948634Y-14264484D01*
X4948634Y-14159722D02*
X4958158Y-14140674D01*
X4958158Y-14140674D02*
X4977205Y-14131150D01*
X4977205Y-14131150D02*
X5005777Y-14131150D01*
X5005777Y-14131150D02*
X5024825Y-14140674D01*
X5024825Y-14140674D02*
X5034348Y-14159722D01*
X5034348Y-14159722D02*
X5034348Y-14264484D01*
X5129586Y-14264484D02*
X5129586Y-14131150D01*
X5129586Y-14150198D02*
X5139110Y-14140674D01*
X5139110Y-14140674D02*
X5158158Y-14131150D01*
X5158158Y-14131150D02*
X5186729Y-14131150D01*
X5186729Y-14131150D02*
X5205777Y-14140674D01*
X5205777Y-14140674D02*
X5215301Y-14159722D01*
X5215301Y-14159722D02*
X5215301Y-14264484D01*
X5215301Y-14159722D02*
X5224825Y-14140674D01*
X5224825Y-14140674D02*
X5243872Y-14131150D01*
X5243872Y-14131150D02*
X5272444Y-14131150D01*
X5272444Y-14131150D02*
X5291491Y-14140674D01*
X5291491Y-14140674D02*
X5301015Y-14159722D01*
X5301015Y-14159722D02*
X5301015Y-14264484D01*
X5691491Y-14054960D02*
X5520063Y-14312103D01*
X5948634Y-14064484D02*
X5967682Y-14064484D01*
X5967682Y-14064484D02*
X5986729Y-14074008D01*
X5986729Y-14074008D02*
X5996253Y-14083531D01*
X5996253Y-14083531D02*
X6005777Y-14102579D01*
X6005777Y-14102579D02*
X6015301Y-14140674D01*
X6015301Y-14140674D02*
X6015301Y-14188293D01*
X6015301Y-14188293D02*
X6005777Y-14226388D01*
X6005777Y-14226388D02*
X5996253Y-14245436D01*
X5996253Y-14245436D02*
X5986729Y-14254960D01*
X5986729Y-14254960D02*
X5967682Y-14264484D01*
X5967682Y-14264484D02*
X5948634Y-14264484D01*
X5948634Y-14264484D02*
X5929586Y-14254960D01*
X5929586Y-14254960D02*
X5920063Y-14245436D01*
X5920063Y-14245436D02*
X5910539Y-14226388D01*
X5910539Y-14226388D02*
X5901015Y-14188293D01*
X5901015Y-14188293D02*
X5901015Y-14140674D01*
X5901015Y-14140674D02*
X5910539Y-14102579D01*
X5910539Y-14102579D02*
X5920063Y-14083531D01*
X5920063Y-14083531D02*
X5929586Y-14074008D01*
X5929586Y-14074008D02*
X5948634Y-14064484D01*
X6101015Y-14245436D02*
X6110539Y-14254960D01*
X6110539Y-14254960D02*
X6101015Y-14264484D01*
X6101015Y-14264484D02*
X6091491Y-14254960D01*
X6091491Y-14254960D02*
X6101015Y-14245436D01*
X6101015Y-14245436D02*
X6101015Y-14264484D01*
X6234348Y-14064484D02*
X6253396Y-14064484D01*
X6253396Y-14064484D02*
X6272444Y-14074008D01*
X6272444Y-14074008D02*
X6281967Y-14083531D01*
X6281967Y-14083531D02*
X6291491Y-14102579D01*
X6291491Y-14102579D02*
X6301015Y-14140674D01*
X6301015Y-14140674D02*
X6301015Y-14188293D01*
X6301015Y-14188293D02*
X6291491Y-14226388D01*
X6291491Y-14226388D02*
X6281967Y-14245436D01*
X6281967Y-14245436D02*
X6272444Y-14254960D01*
X6272444Y-14254960D02*
X6253396Y-14264484D01*
X6253396Y-14264484D02*
X6234348Y-14264484D01*
X6234348Y-14264484D02*
X6215301Y-14254960D01*
X6215301Y-14254960D02*
X6205777Y-14245436D01*
X6205777Y-14245436D02*
X6196253Y-14226388D01*
X6196253Y-14226388D02*
X6186729Y-14188293D01*
X6186729Y-14188293D02*
X6186729Y-14140674D01*
X6186729Y-14140674D02*
X6196253Y-14102579D01*
X6196253Y-14102579D02*
X6205777Y-14083531D01*
X6205777Y-14083531D02*
X6215301Y-14074008D01*
X6215301Y-14074008D02*
X6234348Y-14064484D01*
X6377206Y-14083531D02*
X6386729Y-14074008D01*
X6386729Y-14074008D02*
X6405777Y-14064484D01*
X6405777Y-14064484D02*
X6453396Y-14064484D01*
X6453396Y-14064484D02*
X6472444Y-14074008D01*
X6472444Y-14074008D02*
X6481967Y-14083531D01*
X6481967Y-14083531D02*
X6491491Y-14102579D01*
X6491491Y-14102579D02*
X6491491Y-14121627D01*
X6491491Y-14121627D02*
X6481967Y-14150198D01*
X6481967Y-14150198D02*
X6367682Y-14264484D01*
X6367682Y-14264484D02*
X6491491Y-14264484D01*
X6558158Y-14064484D02*
X6691491Y-14064484D01*
X6691491Y-14064484D02*
X6605777Y-14264484D01*
X6853396Y-14064484D02*
X6815301Y-14064484D01*
X6815301Y-14064484D02*
X6796253Y-14074008D01*
X6796253Y-14074008D02*
X6786729Y-14083531D01*
X6786729Y-14083531D02*
X6767682Y-14112103D01*
X6767682Y-14112103D02*
X6758158Y-14150198D01*
X6758158Y-14150198D02*
X6758158Y-14226388D01*
X6758158Y-14226388D02*
X6767682Y-14245436D01*
X6767682Y-14245436D02*
X6777206Y-14254960D01*
X6777206Y-14254960D02*
X6796253Y-14264484D01*
X6796253Y-14264484D02*
X6834348Y-14264484D01*
X6834348Y-14264484D02*
X6853396Y-14254960D01*
X6853396Y-14254960D02*
X6862920Y-14245436D01*
X6862920Y-14245436D02*
X6872444Y-14226388D01*
X6872444Y-14226388D02*
X6872444Y-14178769D01*
X6872444Y-14178769D02*
X6862920Y-14159722D01*
X6862920Y-14159722D02*
X6853396Y-14150198D01*
X6853396Y-14150198D02*
X6834348Y-14140674D01*
X6834348Y-14140674D02*
X6796253Y-14140674D01*
X6796253Y-14140674D02*
X6777206Y-14150198D01*
X6777206Y-14150198D02*
X6767682Y-14159722D01*
X6767682Y-14159722D02*
X6758158Y-14178769D01*
X6948634Y-14064484D02*
X6948634Y-14102579D01*
X7024825Y-14064484D02*
X7024825Y-14102579D01*
X7320063Y-14340674D02*
X7310539Y-14331150D01*
X7310539Y-14331150D02*
X7291491Y-14302579D01*
X7291491Y-14302579D02*
X7281968Y-14283531D01*
X7281968Y-14283531D02*
X7272444Y-14254960D01*
X7272444Y-14254960D02*
X7262920Y-14207341D01*
X7262920Y-14207341D02*
X7262920Y-14169246D01*
X7262920Y-14169246D02*
X7272444Y-14121627D01*
X7272444Y-14121627D02*
X7281968Y-14093055D01*
X7281968Y-14093055D02*
X7291491Y-14074008D01*
X7291491Y-14074008D02*
X7310539Y-14045436D01*
X7310539Y-14045436D02*
X7320063Y-14035912D01*
X7481968Y-14131150D02*
X7481968Y-14264484D01*
X7434348Y-14054960D02*
X7386729Y-14197817D01*
X7386729Y-14197817D02*
X7510539Y-14197817D01*
X7615301Y-14150198D02*
X7596253Y-14140674D01*
X7596253Y-14140674D02*
X7586729Y-14131150D01*
X7586729Y-14131150D02*
X7577206Y-14112103D01*
X7577206Y-14112103D02*
X7577206Y-14102579D01*
X7577206Y-14102579D02*
X7586729Y-14083531D01*
X7586729Y-14083531D02*
X7596253Y-14074008D01*
X7596253Y-14074008D02*
X7615301Y-14064484D01*
X7615301Y-14064484D02*
X7653396Y-14064484D01*
X7653396Y-14064484D02*
X7672444Y-14074008D01*
X7672444Y-14074008D02*
X7681968Y-14083531D01*
X7681968Y-14083531D02*
X7691491Y-14102579D01*
X7691491Y-14102579D02*
X7691491Y-14112103D01*
X7691491Y-14112103D02*
X7681968Y-14131150D01*
X7681968Y-14131150D02*
X7672444Y-14140674D01*
X7672444Y-14140674D02*
X7653396Y-14150198D01*
X7653396Y-14150198D02*
X7615301Y-14150198D01*
X7615301Y-14150198D02*
X7596253Y-14159722D01*
X7596253Y-14159722D02*
X7586729Y-14169246D01*
X7586729Y-14169246D02*
X7577206Y-14188293D01*
X7577206Y-14188293D02*
X7577206Y-14226388D01*
X7577206Y-14226388D02*
X7586729Y-14245436D01*
X7586729Y-14245436D02*
X7596253Y-14254960D01*
X7596253Y-14254960D02*
X7615301Y-14264484D01*
X7615301Y-14264484D02*
X7653396Y-14264484D01*
X7653396Y-14264484D02*
X7672444Y-14254960D01*
X7672444Y-14254960D02*
X7681968Y-14245436D01*
X7681968Y-14245436D02*
X7691491Y-14226388D01*
X7691491Y-14226388D02*
X7691491Y-14188293D01*
X7691491Y-14188293D02*
X7681968Y-14169246D01*
X7681968Y-14169246D02*
X7672444Y-14159722D01*
X7672444Y-14159722D02*
X7653396Y-14150198D01*
X7929587Y-14264484D02*
X7929587Y-14064484D01*
X8015301Y-14264484D02*
X8015301Y-14159722D01*
X8015301Y-14159722D02*
X8005777Y-14140674D01*
X8005777Y-14140674D02*
X7986730Y-14131150D01*
X7986730Y-14131150D02*
X7958158Y-14131150D01*
X7958158Y-14131150D02*
X7939110Y-14140674D01*
X7939110Y-14140674D02*
X7929587Y-14150198D01*
X8139110Y-14264484D02*
X8120063Y-14254960D01*
X8120063Y-14254960D02*
X8110539Y-14245436D01*
X8110539Y-14245436D02*
X8101015Y-14226388D01*
X8101015Y-14226388D02*
X8101015Y-14169246D01*
X8101015Y-14169246D02*
X8110539Y-14150198D01*
X8110539Y-14150198D02*
X8120063Y-14140674D01*
X8120063Y-14140674D02*
X8139110Y-14131150D01*
X8139110Y-14131150D02*
X8167682Y-14131150D01*
X8167682Y-14131150D02*
X8186730Y-14140674D01*
X8186730Y-14140674D02*
X8196253Y-14150198D01*
X8196253Y-14150198D02*
X8205777Y-14169246D01*
X8205777Y-14169246D02*
X8205777Y-14226388D01*
X8205777Y-14226388D02*
X8196253Y-14245436D01*
X8196253Y-14245436D02*
X8186730Y-14254960D01*
X8186730Y-14254960D02*
X8167682Y-14264484D01*
X8167682Y-14264484D02*
X8139110Y-14264484D01*
X8320063Y-14264484D02*
X8301015Y-14254960D01*
X8301015Y-14254960D02*
X8291491Y-14235912D01*
X8291491Y-14235912D02*
X8291491Y-14064484D01*
X8472444Y-14254960D02*
X8453396Y-14264484D01*
X8453396Y-14264484D02*
X8415301Y-14264484D01*
X8415301Y-14264484D02*
X8396253Y-14254960D01*
X8396253Y-14254960D02*
X8386730Y-14235912D01*
X8386730Y-14235912D02*
X8386730Y-14159722D01*
X8386730Y-14159722D02*
X8396253Y-14140674D01*
X8396253Y-14140674D02*
X8415301Y-14131150D01*
X8415301Y-14131150D02*
X8453396Y-14131150D01*
X8453396Y-14131150D02*
X8472444Y-14140674D01*
X8472444Y-14140674D02*
X8481968Y-14159722D01*
X8481968Y-14159722D02*
X8481968Y-14178769D01*
X8481968Y-14178769D02*
X8386730Y-14197817D01*
X8558158Y-14254960D02*
X8577206Y-14264484D01*
X8577206Y-14264484D02*
X8615301Y-14264484D01*
X8615301Y-14264484D02*
X8634349Y-14254960D01*
X8634349Y-14254960D02*
X8643873Y-14235912D01*
X8643873Y-14235912D02*
X8643873Y-14226388D01*
X8643873Y-14226388D02*
X8634349Y-14207341D01*
X8634349Y-14207341D02*
X8615301Y-14197817D01*
X8615301Y-14197817D02*
X8586730Y-14197817D01*
X8586730Y-14197817D02*
X8567682Y-14188293D01*
X8567682Y-14188293D02*
X8558158Y-14169246D01*
X8558158Y-14169246D02*
X8558158Y-14159722D01*
X8558158Y-14159722D02*
X8567682Y-14140674D01*
X8567682Y-14140674D02*
X8586730Y-14131150D01*
X8586730Y-14131150D02*
X8615301Y-14131150D01*
X8615301Y-14131150D02*
X8634349Y-14140674D01*
X8710539Y-14340674D02*
X8720063Y-14331150D01*
X8720063Y-14331150D02*
X8739111Y-14302579D01*
X8739111Y-14302579D02*
X8748634Y-14283531D01*
X8748634Y-14283531D02*
X8758158Y-14254960D01*
X8758158Y-14254960D02*
X8767682Y-14207341D01*
X8767682Y-14207341D02*
X8767682Y-14169246D01*
X8767682Y-14169246D02*
X8758158Y-14121627D01*
X8758158Y-14121627D02*
X8748634Y-14093055D01*
X8748634Y-14093055D02*
X8739111Y-14074008D01*
X8739111Y-14074008D02*
X8720063Y-14045436D01*
X8720063Y-14045436D02*
X8710539Y-14035912D01*
D10*
X3733284Y-14465284D02*
X3733284Y-14408715D01*
X3676715Y-14408715D01*
X3676715Y-14465284D01*
X3733284Y-14465284D01*
D11*
X4043872Y-14328484D02*
X4062920Y-14328484D01*
X4062920Y-14328484D02*
X4081967Y-14338008D01*
X4081967Y-14338008D02*
X4091491Y-14347531D01*
X4091491Y-14347531D02*
X4101015Y-14366579D01*
X4101015Y-14366579D02*
X4110539Y-14404674D01*
X4110539Y-14404674D02*
X4110539Y-14452293D01*
X4110539Y-14452293D02*
X4101015Y-14490388D01*
X4101015Y-14490388D02*
X4091491Y-14509436D01*
X4091491Y-14509436D02*
X4081967Y-14518960D01*
X4081967Y-14518960D02*
X4062920Y-14528484D01*
X4062920Y-14528484D02*
X4043872Y-14528484D01*
X4043872Y-14528484D02*
X4024824Y-14518960D01*
X4024824Y-14518960D02*
X4015301Y-14509436D01*
X4015301Y-14509436D02*
X4005777Y-14490388D01*
X4005777Y-14490388D02*
X3996253Y-14452293D01*
X3996253Y-14452293D02*
X3996253Y-14404674D01*
X3996253Y-14404674D02*
X4005777Y-14366579D01*
X4005777Y-14366579D02*
X4015301Y-14347531D01*
X4015301Y-14347531D02*
X4024824Y-14338008D01*
X4024824Y-14338008D02*
X4043872Y-14328484D01*
X4196253Y-14509436D02*
X4205777Y-14518960D01*
X4205777Y-14518960D02*
X4196253Y-14528484D01*
X4196253Y-14528484D02*
X4186729Y-14518960D01*
X4186729Y-14518960D02*
X4196253Y-14509436D01*
X4196253Y-14509436D02*
X4196253Y-14528484D01*
X4320063Y-14414198D02*
X4301015Y-14404674D01*
X4301015Y-14404674D02*
X4291491Y-14395150D01*
X4291491Y-14395150D02*
X4281967Y-14376103D01*
X4281967Y-14376103D02*
X4281967Y-14366579D01*
X4281967Y-14366579D02*
X4291491Y-14347531D01*
X4291491Y-14347531D02*
X4301015Y-14338008D01*
X4301015Y-14338008D02*
X4320063Y-14328484D01*
X4320063Y-14328484D02*
X4358158Y-14328484D01*
X4358158Y-14328484D02*
X4377205Y-14338008D01*
X4377205Y-14338008D02*
X4386729Y-14347531D01*
X4386729Y-14347531D02*
X4396253Y-14366579D01*
X4396253Y-14366579D02*
X4396253Y-14376103D01*
X4396253Y-14376103D02*
X4386729Y-14395150D01*
X4386729Y-14395150D02*
X4377205Y-14404674D01*
X4377205Y-14404674D02*
X4358158Y-14414198D01*
X4358158Y-14414198D02*
X4320063Y-14414198D01*
X4320063Y-14414198D02*
X4301015Y-14423722D01*
X4301015Y-14423722D02*
X4291491Y-14433246D01*
X4291491Y-14433246D02*
X4281967Y-14452293D01*
X4281967Y-14452293D02*
X4281967Y-14490388D01*
X4281967Y-14490388D02*
X4291491Y-14509436D01*
X4291491Y-14509436D02*
X4301015Y-14518960D01*
X4301015Y-14518960D02*
X4320063Y-14528484D01*
X4320063Y-14528484D02*
X4358158Y-14528484D01*
X4358158Y-14528484D02*
X4377205Y-14518960D01*
X4377205Y-14518960D02*
X4386729Y-14509436D01*
X4386729Y-14509436D02*
X4396253Y-14490388D01*
X4396253Y-14490388D02*
X4396253Y-14452293D01*
X4396253Y-14452293D02*
X4386729Y-14433246D01*
X4386729Y-14433246D02*
X4377205Y-14423722D01*
X4377205Y-14423722D02*
X4358158Y-14414198D01*
X4520063Y-14328484D02*
X4539110Y-14328484D01*
X4539110Y-14328484D02*
X4558158Y-14338008D01*
X4558158Y-14338008D02*
X4567682Y-14347531D01*
X4567682Y-14347531D02*
X4577205Y-14366579D01*
X4577205Y-14366579D02*
X4586729Y-14404674D01*
X4586729Y-14404674D02*
X4586729Y-14452293D01*
X4586729Y-14452293D02*
X4577205Y-14490388D01*
X4577205Y-14490388D02*
X4567682Y-14509436D01*
X4567682Y-14509436D02*
X4558158Y-14518960D01*
X4558158Y-14518960D02*
X4539110Y-14528484D01*
X4539110Y-14528484D02*
X4520063Y-14528484D01*
X4520063Y-14528484D02*
X4501015Y-14518960D01*
X4501015Y-14518960D02*
X4491491Y-14509436D01*
X4491491Y-14509436D02*
X4481967Y-14490388D01*
X4481967Y-14490388D02*
X4472444Y-14452293D01*
X4472444Y-14452293D02*
X4472444Y-14404674D01*
X4472444Y-14404674D02*
X4481967Y-14366579D01*
X4481967Y-14366579D02*
X4491491Y-14347531D01*
X4491491Y-14347531D02*
X4501015Y-14338008D01*
X4501015Y-14338008D02*
X4520063Y-14328484D01*
X4710539Y-14328484D02*
X4729586Y-14328484D01*
X4729586Y-14328484D02*
X4748634Y-14338008D01*
X4748634Y-14338008D02*
X4758158Y-14347531D01*
X4758158Y-14347531D02*
X4767682Y-14366579D01*
X4767682Y-14366579D02*
X4777205Y-14404674D01*
X4777205Y-14404674D02*
X4777205Y-14452293D01*
X4777205Y-14452293D02*
X4767682Y-14490388D01*
X4767682Y-14490388D02*
X4758158Y-14509436D01*
X4758158Y-14509436D02*
X4748634Y-14518960D01*
X4748634Y-14518960D02*
X4729586Y-14528484D01*
X4729586Y-14528484D02*
X4710539Y-14528484D01*
X4710539Y-14528484D02*
X4691491Y-14518960D01*
X4691491Y-14518960D02*
X4681967Y-14509436D01*
X4681967Y-14509436D02*
X4672444Y-14490388D01*
X4672444Y-14490388D02*
X4662920Y-14452293D01*
X4662920Y-14452293D02*
X4662920Y-14404674D01*
X4662920Y-14404674D02*
X4672444Y-14366579D01*
X4672444Y-14366579D02*
X4681967Y-14347531D01*
X4681967Y-14347531D02*
X4691491Y-14338008D01*
X4691491Y-14338008D02*
X4710539Y-14328484D01*
X4862920Y-14528484D02*
X4862920Y-14395150D01*
X4862920Y-14414198D02*
X4872444Y-14404674D01*
X4872444Y-14404674D02*
X4891491Y-14395150D01*
X4891491Y-14395150D02*
X4920063Y-14395150D01*
X4920063Y-14395150D02*
X4939110Y-14404674D01*
X4939110Y-14404674D02*
X4948634Y-14423722D01*
X4948634Y-14423722D02*
X4948634Y-14528484D01*
X4948634Y-14423722D02*
X4958158Y-14404674D01*
X4958158Y-14404674D02*
X4977205Y-14395150D01*
X4977205Y-14395150D02*
X5005777Y-14395150D01*
X5005777Y-14395150D02*
X5024825Y-14404674D01*
X5024825Y-14404674D02*
X5034348Y-14423722D01*
X5034348Y-14423722D02*
X5034348Y-14528484D01*
X5129586Y-14528484D02*
X5129586Y-14395150D01*
X5129586Y-14414198D02*
X5139110Y-14404674D01*
X5139110Y-14404674D02*
X5158158Y-14395150D01*
X5158158Y-14395150D02*
X5186729Y-14395150D01*
X5186729Y-14395150D02*
X5205777Y-14404674D01*
X5205777Y-14404674D02*
X5215301Y-14423722D01*
X5215301Y-14423722D02*
X5215301Y-14528484D01*
X5215301Y-14423722D02*
X5224825Y-14404674D01*
X5224825Y-14404674D02*
X5243872Y-14395150D01*
X5243872Y-14395150D02*
X5272444Y-14395150D01*
X5272444Y-14395150D02*
X5291491Y-14404674D01*
X5291491Y-14404674D02*
X5301015Y-14423722D01*
X5301015Y-14423722D02*
X5301015Y-14528484D01*
X5691491Y-14318960D02*
X5520063Y-14576103D01*
X5948634Y-14328484D02*
X5967682Y-14328484D01*
X5967682Y-14328484D02*
X5986729Y-14338008D01*
X5986729Y-14338008D02*
X5996253Y-14347531D01*
X5996253Y-14347531D02*
X6005777Y-14366579D01*
X6005777Y-14366579D02*
X6015301Y-14404674D01*
X6015301Y-14404674D02*
X6015301Y-14452293D01*
X6015301Y-14452293D02*
X6005777Y-14490388D01*
X6005777Y-14490388D02*
X5996253Y-14509436D01*
X5996253Y-14509436D02*
X5986729Y-14518960D01*
X5986729Y-14518960D02*
X5967682Y-14528484D01*
X5967682Y-14528484D02*
X5948634Y-14528484D01*
X5948634Y-14528484D02*
X5929586Y-14518960D01*
X5929586Y-14518960D02*
X5920063Y-14509436D01*
X5920063Y-14509436D02*
X5910539Y-14490388D01*
X5910539Y-14490388D02*
X5901015Y-14452293D01*
X5901015Y-14452293D02*
X5901015Y-14404674D01*
X5901015Y-14404674D02*
X5910539Y-14366579D01*
X5910539Y-14366579D02*
X5920063Y-14347531D01*
X5920063Y-14347531D02*
X5929586Y-14338008D01*
X5929586Y-14338008D02*
X5948634Y-14328484D01*
X6101015Y-14509436D02*
X6110539Y-14518960D01*
X6110539Y-14518960D02*
X6101015Y-14528484D01*
X6101015Y-14528484D02*
X6091491Y-14518960D01*
X6091491Y-14518960D02*
X6101015Y-14509436D01*
X6101015Y-14509436D02*
X6101015Y-14528484D01*
X6234348Y-14328484D02*
X6253396Y-14328484D01*
X6253396Y-14328484D02*
X6272444Y-14338008D01*
X6272444Y-14338008D02*
X6281967Y-14347531D01*
X6281967Y-14347531D02*
X6291491Y-14366579D01*
X6291491Y-14366579D02*
X6301015Y-14404674D01*
X6301015Y-14404674D02*
X6301015Y-14452293D01*
X6301015Y-14452293D02*
X6291491Y-14490388D01*
X6291491Y-14490388D02*
X6281967Y-14509436D01*
X6281967Y-14509436D02*
X6272444Y-14518960D01*
X6272444Y-14518960D02*
X6253396Y-14528484D01*
X6253396Y-14528484D02*
X6234348Y-14528484D01*
X6234348Y-14528484D02*
X6215301Y-14518960D01*
X6215301Y-14518960D02*
X6205777Y-14509436D01*
X6205777Y-14509436D02*
X6196253Y-14490388D01*
X6196253Y-14490388D02*
X6186729Y-14452293D01*
X6186729Y-14452293D02*
X6186729Y-14404674D01*
X6186729Y-14404674D02*
X6196253Y-14366579D01*
X6196253Y-14366579D02*
X6205777Y-14347531D01*
X6205777Y-14347531D02*
X6215301Y-14338008D01*
X6215301Y-14338008D02*
X6234348Y-14328484D01*
X6367682Y-14328484D02*
X6491491Y-14328484D01*
X6491491Y-14328484D02*
X6424825Y-14404674D01*
X6424825Y-14404674D02*
X6453396Y-14404674D01*
X6453396Y-14404674D02*
X6472444Y-14414198D01*
X6472444Y-14414198D02*
X6481967Y-14423722D01*
X6481967Y-14423722D02*
X6491491Y-14442769D01*
X6491491Y-14442769D02*
X6491491Y-14490388D01*
X6491491Y-14490388D02*
X6481967Y-14509436D01*
X6481967Y-14509436D02*
X6472444Y-14518960D01*
X6472444Y-14518960D02*
X6453396Y-14528484D01*
X6453396Y-14528484D02*
X6396253Y-14528484D01*
X6396253Y-14528484D02*
X6377206Y-14518960D01*
X6377206Y-14518960D02*
X6367682Y-14509436D01*
X6681967Y-14528484D02*
X6567682Y-14528484D01*
X6624825Y-14528484D02*
X6624825Y-14328484D01*
X6624825Y-14328484D02*
X6605777Y-14357055D01*
X6605777Y-14357055D02*
X6586729Y-14376103D01*
X6586729Y-14376103D02*
X6567682Y-14385627D01*
X6862920Y-14328484D02*
X6767682Y-14328484D01*
X6767682Y-14328484D02*
X6758158Y-14423722D01*
X6758158Y-14423722D02*
X6767682Y-14414198D01*
X6767682Y-14414198D02*
X6786729Y-14404674D01*
X6786729Y-14404674D02*
X6834348Y-14404674D01*
X6834348Y-14404674D02*
X6853396Y-14414198D01*
X6853396Y-14414198D02*
X6862920Y-14423722D01*
X6862920Y-14423722D02*
X6872444Y-14442769D01*
X6872444Y-14442769D02*
X6872444Y-14490388D01*
X6872444Y-14490388D02*
X6862920Y-14509436D01*
X6862920Y-14509436D02*
X6853396Y-14518960D01*
X6853396Y-14518960D02*
X6834348Y-14528484D01*
X6834348Y-14528484D02*
X6786729Y-14528484D01*
X6786729Y-14528484D02*
X6767682Y-14518960D01*
X6767682Y-14518960D02*
X6758158Y-14509436D01*
X6948634Y-14328484D02*
X6948634Y-14366579D01*
X7024825Y-14328484D02*
X7024825Y-14366579D01*
X7320063Y-14604674D02*
X7310539Y-14595150D01*
X7310539Y-14595150D02*
X7291491Y-14566579D01*
X7291491Y-14566579D02*
X7281968Y-14547531D01*
X7281968Y-14547531D02*
X7272444Y-14518960D01*
X7272444Y-14518960D02*
X7262920Y-14471341D01*
X7262920Y-14471341D02*
X7262920Y-14433246D01*
X7262920Y-14433246D02*
X7272444Y-14385627D01*
X7272444Y-14385627D02*
X7281968Y-14357055D01*
X7281968Y-14357055D02*
X7291491Y-14338008D01*
X7291491Y-14338008D02*
X7310539Y-14309436D01*
X7310539Y-14309436D02*
X7320063Y-14299912D01*
X7481968Y-14328484D02*
X7443872Y-14328484D01*
X7443872Y-14328484D02*
X7424825Y-14338008D01*
X7424825Y-14338008D02*
X7415301Y-14347531D01*
X7415301Y-14347531D02*
X7396253Y-14376103D01*
X7396253Y-14376103D02*
X7386729Y-14414198D01*
X7386729Y-14414198D02*
X7386729Y-14490388D01*
X7386729Y-14490388D02*
X7396253Y-14509436D01*
X7396253Y-14509436D02*
X7405777Y-14518960D01*
X7405777Y-14518960D02*
X7424825Y-14528484D01*
X7424825Y-14528484D02*
X7462920Y-14528484D01*
X7462920Y-14528484D02*
X7481968Y-14518960D01*
X7481968Y-14518960D02*
X7491491Y-14509436D01*
X7491491Y-14509436D02*
X7501015Y-14490388D01*
X7501015Y-14490388D02*
X7501015Y-14442769D01*
X7501015Y-14442769D02*
X7491491Y-14423722D01*
X7491491Y-14423722D02*
X7481968Y-14414198D01*
X7481968Y-14414198D02*
X7462920Y-14404674D01*
X7462920Y-14404674D02*
X7424825Y-14404674D01*
X7424825Y-14404674D02*
X7405777Y-14414198D01*
X7405777Y-14414198D02*
X7396253Y-14423722D01*
X7396253Y-14423722D02*
X7386729Y-14442769D01*
X7624825Y-14328484D02*
X7643872Y-14328484D01*
X7643872Y-14328484D02*
X7662920Y-14338008D01*
X7662920Y-14338008D02*
X7672444Y-14347531D01*
X7672444Y-14347531D02*
X7681968Y-14366579D01*
X7681968Y-14366579D02*
X7691491Y-14404674D01*
X7691491Y-14404674D02*
X7691491Y-14452293D01*
X7691491Y-14452293D02*
X7681968Y-14490388D01*
X7681968Y-14490388D02*
X7672444Y-14509436D01*
X7672444Y-14509436D02*
X7662920Y-14518960D01*
X7662920Y-14518960D02*
X7643872Y-14528484D01*
X7643872Y-14528484D02*
X7624825Y-14528484D01*
X7624825Y-14528484D02*
X7605777Y-14518960D01*
X7605777Y-14518960D02*
X7596253Y-14509436D01*
X7596253Y-14509436D02*
X7586729Y-14490388D01*
X7586729Y-14490388D02*
X7577206Y-14452293D01*
X7577206Y-14452293D02*
X7577206Y-14404674D01*
X7577206Y-14404674D02*
X7586729Y-14366579D01*
X7586729Y-14366579D02*
X7596253Y-14347531D01*
X7596253Y-14347531D02*
X7605777Y-14338008D01*
X7605777Y-14338008D02*
X7624825Y-14328484D01*
X7929587Y-14528484D02*
X7929587Y-14328484D01*
X8015301Y-14528484D02*
X8015301Y-14423722D01*
X8015301Y-14423722D02*
X8005777Y-14404674D01*
X8005777Y-14404674D02*
X7986730Y-14395150D01*
X7986730Y-14395150D02*
X7958158Y-14395150D01*
X7958158Y-14395150D02*
X7939110Y-14404674D01*
X7939110Y-14404674D02*
X7929587Y-14414198D01*
X8139110Y-14528484D02*
X8120063Y-14518960D01*
X8120063Y-14518960D02*
X8110539Y-14509436D01*
X8110539Y-14509436D02*
X8101015Y-14490388D01*
X8101015Y-14490388D02*
X8101015Y-14433246D01*
X8101015Y-14433246D02*
X8110539Y-14414198D01*
X8110539Y-14414198D02*
X8120063Y-14404674D01*
X8120063Y-14404674D02*
X8139110Y-14395150D01*
X8139110Y-14395150D02*
X8167682Y-14395150D01*
X8167682Y-14395150D02*
X8186730Y-14404674D01*
X8186730Y-14404674D02*
X8196253Y-14414198D01*
X8196253Y-14414198D02*
X8205777Y-14433246D01*
X8205777Y-14433246D02*
X8205777Y-14490388D01*
X8205777Y-14490388D02*
X8196253Y-14509436D01*
X8196253Y-14509436D02*
X8186730Y-14518960D01*
X8186730Y-14518960D02*
X8167682Y-14528484D01*
X8167682Y-14528484D02*
X8139110Y-14528484D01*
X8320063Y-14528484D02*
X8301015Y-14518960D01*
X8301015Y-14518960D02*
X8291491Y-14499912D01*
X8291491Y-14499912D02*
X8291491Y-14328484D01*
X8472444Y-14518960D02*
X8453396Y-14528484D01*
X8453396Y-14528484D02*
X8415301Y-14528484D01*
X8415301Y-14528484D02*
X8396253Y-14518960D01*
X8396253Y-14518960D02*
X8386730Y-14499912D01*
X8386730Y-14499912D02*
X8386730Y-14423722D01*
X8386730Y-14423722D02*
X8396253Y-14404674D01*
X8396253Y-14404674D02*
X8415301Y-14395150D01*
X8415301Y-14395150D02*
X8453396Y-14395150D01*
X8453396Y-14395150D02*
X8472444Y-14404674D01*
X8472444Y-14404674D02*
X8481968Y-14423722D01*
X8481968Y-14423722D02*
X8481968Y-14442769D01*
X8481968Y-14442769D02*
X8386730Y-14461817D01*
X8558158Y-14518960D02*
X8577206Y-14528484D01*
X8577206Y-14528484D02*
X8615301Y-14528484D01*
X8615301Y-14528484D02*
X8634349Y-14518960D01*
X8634349Y-14518960D02*
X8643873Y-14499912D01*
X8643873Y-14499912D02*
X8643873Y-14490388D01*
X8643873Y-14490388D02*
X8634349Y-14471341D01*
X8634349Y-14471341D02*
X8615301Y-14461817D01*
X8615301Y-14461817D02*
X8586730Y-14461817D01*
X8586730Y-14461817D02*
X8567682Y-14452293D01*
X8567682Y-14452293D02*
X8558158Y-14433246D01*
X8558158Y-14433246D02*
X8558158Y-14423722D01*
X8558158Y-14423722D02*
X8567682Y-14404674D01*
X8567682Y-14404674D02*
X8586730Y-14395150D01*
X8586730Y-14395150D02*
X8615301Y-14395150D01*
X8615301Y-14395150D02*
X8634349Y-14404674D01*
X8710539Y-14604674D02*
X8720063Y-14595150D01*
X8720063Y-14595150D02*
X8739111Y-14566579D01*
X8739111Y-14566579D02*
X8748634Y-14547531D01*
X8748634Y-14547531D02*
X8758158Y-14518960D01*
X8758158Y-14518960D02*
X8767682Y-14471341D01*
X8767682Y-14471341D02*
X8767682Y-14433246D01*
X8767682Y-14433246D02*
X8758158Y-14385627D01*
X8758158Y-14385627D02*
X8748634Y-14357055D01*
X8748634Y-14357055D02*
X8739111Y-14338008D01*
X8739111Y-14338008D02*
X8720063Y-14309436D01*
X8720063Y-14309436D02*
X8710539Y-14299912D01*
D12*
X3690000Y-14756000D02*
X3745000Y-14701000D01*
X3690000Y-14646000D01*
X3635000Y-14701000D01*
X3690000Y-14756000D01*
D11*
X4110539Y-14792484D02*
X3996253Y-14792484D01*
X4053396Y-14792484D02*
X4053396Y-14592484D01*
X4053396Y-14592484D02*
X4034348Y-14621055D01*
X4034348Y-14621055D02*
X4015301Y-14640103D01*
X4015301Y-14640103D02*
X3996253Y-14649627D01*
X4196253Y-14773436D02*
X4205777Y-14782960D01*
X4205777Y-14782960D02*
X4196253Y-14792484D01*
X4196253Y-14792484D02*
X4186729Y-14782960D01*
X4186729Y-14782960D02*
X4196253Y-14773436D01*
X4196253Y-14773436D02*
X4196253Y-14792484D01*
X4396253Y-14792484D02*
X4281967Y-14792484D01*
X4339110Y-14792484D02*
X4339110Y-14592484D01*
X4339110Y-14592484D02*
X4320063Y-14621055D01*
X4320063Y-14621055D02*
X4301015Y-14640103D01*
X4301015Y-14640103D02*
X4281967Y-14649627D01*
X4520063Y-14592484D02*
X4539110Y-14592484D01*
X4539110Y-14592484D02*
X4558158Y-14602008D01*
X4558158Y-14602008D02*
X4567682Y-14611531D01*
X4567682Y-14611531D02*
X4577205Y-14630579D01*
X4577205Y-14630579D02*
X4586729Y-14668674D01*
X4586729Y-14668674D02*
X4586729Y-14716293D01*
X4586729Y-14716293D02*
X4577205Y-14754388D01*
X4577205Y-14754388D02*
X4567682Y-14773436D01*
X4567682Y-14773436D02*
X4558158Y-14782960D01*
X4558158Y-14782960D02*
X4539110Y-14792484D01*
X4539110Y-14792484D02*
X4520063Y-14792484D01*
X4520063Y-14792484D02*
X4501015Y-14782960D01*
X4501015Y-14782960D02*
X4491491Y-14773436D01*
X4491491Y-14773436D02*
X4481967Y-14754388D01*
X4481967Y-14754388D02*
X4472444Y-14716293D01*
X4472444Y-14716293D02*
X4472444Y-14668674D01*
X4472444Y-14668674D02*
X4481967Y-14630579D01*
X4481967Y-14630579D02*
X4491491Y-14611531D01*
X4491491Y-14611531D02*
X4501015Y-14602008D01*
X4501015Y-14602008D02*
X4520063Y-14592484D01*
X4710539Y-14592484D02*
X4729586Y-14592484D01*
X4729586Y-14592484D02*
X4748634Y-14602008D01*
X4748634Y-14602008D02*
X4758158Y-14611531D01*
X4758158Y-14611531D02*
X4767682Y-14630579D01*
X4767682Y-14630579D02*
X4777205Y-14668674D01*
X4777205Y-14668674D02*
X4777205Y-14716293D01*
X4777205Y-14716293D02*
X4767682Y-14754388D01*
X4767682Y-14754388D02*
X4758158Y-14773436D01*
X4758158Y-14773436D02*
X4748634Y-14782960D01*
X4748634Y-14782960D02*
X4729586Y-14792484D01*
X4729586Y-14792484D02*
X4710539Y-14792484D01*
X4710539Y-14792484D02*
X4691491Y-14782960D01*
X4691491Y-14782960D02*
X4681967Y-14773436D01*
X4681967Y-14773436D02*
X4672444Y-14754388D01*
X4672444Y-14754388D02*
X4662920Y-14716293D01*
X4662920Y-14716293D02*
X4662920Y-14668674D01*
X4662920Y-14668674D02*
X4672444Y-14630579D01*
X4672444Y-14630579D02*
X4681967Y-14611531D01*
X4681967Y-14611531D02*
X4691491Y-14602008D01*
X4691491Y-14602008D02*
X4710539Y-14592484D01*
X4862920Y-14792484D02*
X4862920Y-14659150D01*
X4862920Y-14678198D02*
X4872444Y-14668674D01*
X4872444Y-14668674D02*
X4891491Y-14659150D01*
X4891491Y-14659150D02*
X4920063Y-14659150D01*
X4920063Y-14659150D02*
X4939110Y-14668674D01*
X4939110Y-14668674D02*
X4948634Y-14687722D01*
X4948634Y-14687722D02*
X4948634Y-14792484D01*
X4948634Y-14687722D02*
X4958158Y-14668674D01*
X4958158Y-14668674D02*
X4977205Y-14659150D01*
X4977205Y-14659150D02*
X5005777Y-14659150D01*
X5005777Y-14659150D02*
X5024825Y-14668674D01*
X5024825Y-14668674D02*
X5034348Y-14687722D01*
X5034348Y-14687722D02*
X5034348Y-14792484D01*
X5129586Y-14792484D02*
X5129586Y-14659150D01*
X5129586Y-14678198D02*
X5139110Y-14668674D01*
X5139110Y-14668674D02*
X5158158Y-14659150D01*
X5158158Y-14659150D02*
X5186729Y-14659150D01*
X5186729Y-14659150D02*
X5205777Y-14668674D01*
X5205777Y-14668674D02*
X5215301Y-14687722D01*
X5215301Y-14687722D02*
X5215301Y-14792484D01*
X5215301Y-14687722D02*
X5224825Y-14668674D01*
X5224825Y-14668674D02*
X5243872Y-14659150D01*
X5243872Y-14659150D02*
X5272444Y-14659150D01*
X5272444Y-14659150D02*
X5291491Y-14668674D01*
X5291491Y-14668674D02*
X5301015Y-14687722D01*
X5301015Y-14687722D02*
X5301015Y-14792484D01*
X5691491Y-14582960D02*
X5520063Y-14840103D01*
X5948634Y-14592484D02*
X5967682Y-14592484D01*
X5967682Y-14592484D02*
X5986729Y-14602008D01*
X5986729Y-14602008D02*
X5996253Y-14611531D01*
X5996253Y-14611531D02*
X6005777Y-14630579D01*
X6005777Y-14630579D02*
X6015301Y-14668674D01*
X6015301Y-14668674D02*
X6015301Y-14716293D01*
X6015301Y-14716293D02*
X6005777Y-14754388D01*
X6005777Y-14754388D02*
X5996253Y-14773436D01*
X5996253Y-14773436D02*
X5986729Y-14782960D01*
X5986729Y-14782960D02*
X5967682Y-14792484D01*
X5967682Y-14792484D02*
X5948634Y-14792484D01*
X5948634Y-14792484D02*
X5929586Y-14782960D01*
X5929586Y-14782960D02*
X5920063Y-14773436D01*
X5920063Y-14773436D02*
X5910539Y-14754388D01*
X5910539Y-14754388D02*
X5901015Y-14716293D01*
X5901015Y-14716293D02*
X5901015Y-14668674D01*
X5901015Y-14668674D02*
X5910539Y-14630579D01*
X5910539Y-14630579D02*
X5920063Y-14611531D01*
X5920063Y-14611531D02*
X5929586Y-14602008D01*
X5929586Y-14602008D02*
X5948634Y-14592484D01*
X6101015Y-14773436D02*
X6110539Y-14782960D01*
X6110539Y-14782960D02*
X6101015Y-14792484D01*
X6101015Y-14792484D02*
X6091491Y-14782960D01*
X6091491Y-14782960D02*
X6101015Y-14773436D01*
X6101015Y-14773436D02*
X6101015Y-14792484D01*
X6234348Y-14592484D02*
X6253396Y-14592484D01*
X6253396Y-14592484D02*
X6272444Y-14602008D01*
X6272444Y-14602008D02*
X6281967Y-14611531D01*
X6281967Y-14611531D02*
X6291491Y-14630579D01*
X6291491Y-14630579D02*
X6301015Y-14668674D01*
X6301015Y-14668674D02*
X6301015Y-14716293D01*
X6301015Y-14716293D02*
X6291491Y-14754388D01*
X6291491Y-14754388D02*
X6281967Y-14773436D01*
X6281967Y-14773436D02*
X6272444Y-14782960D01*
X6272444Y-14782960D02*
X6253396Y-14792484D01*
X6253396Y-14792484D02*
X6234348Y-14792484D01*
X6234348Y-14792484D02*
X6215301Y-14782960D01*
X6215301Y-14782960D02*
X6205777Y-14773436D01*
X6205777Y-14773436D02*
X6196253Y-14754388D01*
X6196253Y-14754388D02*
X6186729Y-14716293D01*
X6186729Y-14716293D02*
X6186729Y-14668674D01*
X6186729Y-14668674D02*
X6196253Y-14630579D01*
X6196253Y-14630579D02*
X6205777Y-14611531D01*
X6205777Y-14611531D02*
X6215301Y-14602008D01*
X6215301Y-14602008D02*
X6234348Y-14592484D01*
X6472444Y-14659150D02*
X6472444Y-14792484D01*
X6424825Y-14582960D02*
X6377206Y-14725817D01*
X6377206Y-14725817D02*
X6501015Y-14725817D01*
X6558158Y-14592484D02*
X6681967Y-14592484D01*
X6681967Y-14592484D02*
X6615301Y-14668674D01*
X6615301Y-14668674D02*
X6643872Y-14668674D01*
X6643872Y-14668674D02*
X6662920Y-14678198D01*
X6662920Y-14678198D02*
X6672444Y-14687722D01*
X6672444Y-14687722D02*
X6681967Y-14706769D01*
X6681967Y-14706769D02*
X6681967Y-14754388D01*
X6681967Y-14754388D02*
X6672444Y-14773436D01*
X6672444Y-14773436D02*
X6662920Y-14782960D01*
X6662920Y-14782960D02*
X6643872Y-14792484D01*
X6643872Y-14792484D02*
X6586729Y-14792484D01*
X6586729Y-14792484D02*
X6567682Y-14782960D01*
X6567682Y-14782960D02*
X6558158Y-14773436D01*
X6748634Y-14592484D02*
X6872444Y-14592484D01*
X6872444Y-14592484D02*
X6805777Y-14668674D01*
X6805777Y-14668674D02*
X6834348Y-14668674D01*
X6834348Y-14668674D02*
X6853396Y-14678198D01*
X6853396Y-14678198D02*
X6862920Y-14687722D01*
X6862920Y-14687722D02*
X6872444Y-14706769D01*
X6872444Y-14706769D02*
X6872444Y-14754388D01*
X6872444Y-14754388D02*
X6862920Y-14773436D01*
X6862920Y-14773436D02*
X6853396Y-14782960D01*
X6853396Y-14782960D02*
X6834348Y-14792484D01*
X6834348Y-14792484D02*
X6777206Y-14792484D01*
X6777206Y-14792484D02*
X6758158Y-14782960D01*
X6758158Y-14782960D02*
X6748634Y-14773436D01*
X6948634Y-14592484D02*
X6948634Y-14630579D01*
X7024825Y-14592484D02*
X7024825Y-14630579D01*
X7320063Y-14868674D02*
X7310539Y-14859150D01*
X7310539Y-14859150D02*
X7291491Y-14830579D01*
X7291491Y-14830579D02*
X7281968Y-14811531D01*
X7281968Y-14811531D02*
X7272444Y-14782960D01*
X7272444Y-14782960D02*
X7262920Y-14735341D01*
X7262920Y-14735341D02*
X7262920Y-14697246D01*
X7262920Y-14697246D02*
X7272444Y-14649627D01*
X7272444Y-14649627D02*
X7281968Y-14621055D01*
X7281968Y-14621055D02*
X7291491Y-14602008D01*
X7291491Y-14602008D02*
X7310539Y-14573436D01*
X7310539Y-14573436D02*
X7320063Y-14563912D01*
X7481968Y-14592484D02*
X7443872Y-14592484D01*
X7443872Y-14592484D02*
X7424825Y-14602008D01*
X7424825Y-14602008D02*
X7415301Y-14611531D01*
X7415301Y-14611531D02*
X7396253Y-14640103D01*
X7396253Y-14640103D02*
X7386729Y-14678198D01*
X7386729Y-14678198D02*
X7386729Y-14754388D01*
X7386729Y-14754388D02*
X7396253Y-14773436D01*
X7396253Y-14773436D02*
X7405777Y-14782960D01*
X7405777Y-14782960D02*
X7424825Y-14792484D01*
X7424825Y-14792484D02*
X7462920Y-14792484D01*
X7462920Y-14792484D02*
X7481968Y-14782960D01*
X7481968Y-14782960D02*
X7491491Y-14773436D01*
X7491491Y-14773436D02*
X7501015Y-14754388D01*
X7501015Y-14754388D02*
X7501015Y-14706769D01*
X7501015Y-14706769D02*
X7491491Y-14687722D01*
X7491491Y-14687722D02*
X7481968Y-14678198D01*
X7481968Y-14678198D02*
X7462920Y-14668674D01*
X7462920Y-14668674D02*
X7424825Y-14668674D01*
X7424825Y-14668674D02*
X7405777Y-14678198D01*
X7405777Y-14678198D02*
X7396253Y-14687722D01*
X7396253Y-14687722D02*
X7386729Y-14706769D01*
X7739110Y-14792484D02*
X7739110Y-14592484D01*
X7824825Y-14792484D02*
X7824825Y-14687722D01*
X7824825Y-14687722D02*
X7815301Y-14668674D01*
X7815301Y-14668674D02*
X7796253Y-14659150D01*
X7796253Y-14659150D02*
X7767682Y-14659150D01*
X7767682Y-14659150D02*
X7748634Y-14668674D01*
X7748634Y-14668674D02*
X7739110Y-14678198D01*
X7948634Y-14792484D02*
X7929587Y-14782960D01*
X7929587Y-14782960D02*
X7920063Y-14773436D01*
X7920063Y-14773436D02*
X7910539Y-14754388D01*
X7910539Y-14754388D02*
X7910539Y-14697246D01*
X7910539Y-14697246D02*
X7920063Y-14678198D01*
X7920063Y-14678198D02*
X7929587Y-14668674D01*
X7929587Y-14668674D02*
X7948634Y-14659150D01*
X7948634Y-14659150D02*
X7977206Y-14659150D01*
X7977206Y-14659150D02*
X7996253Y-14668674D01*
X7996253Y-14668674D02*
X8005777Y-14678198D01*
X8005777Y-14678198D02*
X8015301Y-14697246D01*
X8015301Y-14697246D02*
X8015301Y-14754388D01*
X8015301Y-14754388D02*
X8005777Y-14773436D01*
X8005777Y-14773436D02*
X7996253Y-14782960D01*
X7996253Y-14782960D02*
X7977206Y-14792484D01*
X7977206Y-14792484D02*
X7948634Y-14792484D01*
X8129587Y-14792484D02*
X8110539Y-14782960D01*
X8110539Y-14782960D02*
X8101015Y-14763912D01*
X8101015Y-14763912D02*
X8101015Y-14592484D01*
X8281968Y-14782960D02*
X8262920Y-14792484D01*
X8262920Y-14792484D02*
X8224825Y-14792484D01*
X8224825Y-14792484D02*
X8205777Y-14782960D01*
X8205777Y-14782960D02*
X8196253Y-14763912D01*
X8196253Y-14763912D02*
X8196253Y-14687722D01*
X8196253Y-14687722D02*
X8205777Y-14668674D01*
X8205777Y-14668674D02*
X8224825Y-14659150D01*
X8224825Y-14659150D02*
X8262920Y-14659150D01*
X8262920Y-14659150D02*
X8281968Y-14668674D01*
X8281968Y-14668674D02*
X8291491Y-14687722D01*
X8291491Y-14687722D02*
X8291491Y-14706769D01*
X8291491Y-14706769D02*
X8196253Y-14725817D01*
X8367682Y-14782960D02*
X8386730Y-14792484D01*
X8386730Y-14792484D02*
X8424825Y-14792484D01*
X8424825Y-14792484D02*
X8443873Y-14782960D01*
X8443873Y-14782960D02*
X8453396Y-14763912D01*
X8453396Y-14763912D02*
X8453396Y-14754388D01*
X8453396Y-14754388D02*
X8443873Y-14735341D01*
X8443873Y-14735341D02*
X8424825Y-14725817D01*
X8424825Y-14725817D02*
X8396253Y-14725817D01*
X8396253Y-14725817D02*
X8377206Y-14716293D01*
X8377206Y-14716293D02*
X8367682Y-14697246D01*
X8367682Y-14697246D02*
X8367682Y-14687722D01*
X8367682Y-14687722D02*
X8377206Y-14668674D01*
X8377206Y-14668674D02*
X8396253Y-14659150D01*
X8396253Y-14659150D02*
X8424825Y-14659150D01*
X8424825Y-14659150D02*
X8443873Y-14668674D01*
X8520063Y-14868674D02*
X8529587Y-14859150D01*
X8529587Y-14859150D02*
X8548634Y-14830579D01*
X8548634Y-14830579D02*
X8558158Y-14811531D01*
X8558158Y-14811531D02*
X8567682Y-14782960D01*
X8567682Y-14782960D02*
X8577206Y-14735341D01*
X8577206Y-14735341D02*
X8577206Y-14697246D01*
X8577206Y-14697246D02*
X8567682Y-14649627D01*
X8567682Y-14649627D02*
X8558158Y-14621055D01*
X8558158Y-14621055D02*
X8548634Y-14602008D01*
X8548634Y-14602008D02*
X8529587Y-14573436D01*
X8529587Y-14573436D02*
X8520063Y-14563912D01*
X3545000Y-14865000D02*
X3745000Y-15065000D01*
X3745000Y-14865000D02*
X3545000Y-15065000D01*
X3745000Y-14965000D02*
G75*
G02*
X3545000Y-14965000I-100000J0D01*
G01*
X3545000Y-14965000D02*
G75*
G02*
X3745000Y-14965000I100000J0D01*
G01*
X3996253Y-14875531D02*
X4005777Y-14866008D01*
X4005777Y-14866008D02*
X4024824Y-14856484D01*
X4024824Y-14856484D02*
X4072443Y-14856484D01*
X4072443Y-14856484D02*
X4091491Y-14866008D01*
X4091491Y-14866008D02*
X4101015Y-14875531D01*
X4101015Y-14875531D02*
X4110539Y-14894579D01*
X4110539Y-14894579D02*
X4110539Y-14913627D01*
X4110539Y-14913627D02*
X4101015Y-14942198D01*
X4101015Y-14942198D02*
X3986729Y-15056484D01*
X3986729Y-15056484D02*
X4110539Y-15056484D01*
X4196253Y-15037436D02*
X4205777Y-15046960D01*
X4205777Y-15046960D02*
X4196253Y-15056484D01*
X4196253Y-15056484D02*
X4186729Y-15046960D01*
X4186729Y-15046960D02*
X4196253Y-15037436D01*
X4196253Y-15037436D02*
X4196253Y-15056484D01*
X4281967Y-14875531D02*
X4291491Y-14866008D01*
X4291491Y-14866008D02*
X4310539Y-14856484D01*
X4310539Y-14856484D02*
X4358158Y-14856484D01*
X4358158Y-14856484D02*
X4377205Y-14866008D01*
X4377205Y-14866008D02*
X4386729Y-14875531D01*
X4386729Y-14875531D02*
X4396253Y-14894579D01*
X4396253Y-14894579D02*
X4396253Y-14913627D01*
X4396253Y-14913627D02*
X4386729Y-14942198D01*
X4386729Y-14942198D02*
X4272444Y-15056484D01*
X4272444Y-15056484D02*
X4396253Y-15056484D01*
X4520063Y-14856484D02*
X4539110Y-14856484D01*
X4539110Y-14856484D02*
X4558158Y-14866008D01*
X4558158Y-14866008D02*
X4567682Y-14875531D01*
X4567682Y-14875531D02*
X4577205Y-14894579D01*
X4577205Y-14894579D02*
X4586729Y-14932674D01*
X4586729Y-14932674D02*
X4586729Y-14980293D01*
X4586729Y-14980293D02*
X4577205Y-15018388D01*
X4577205Y-15018388D02*
X4567682Y-15037436D01*
X4567682Y-15037436D02*
X4558158Y-15046960D01*
X4558158Y-15046960D02*
X4539110Y-15056484D01*
X4539110Y-15056484D02*
X4520063Y-15056484D01*
X4520063Y-15056484D02*
X4501015Y-15046960D01*
X4501015Y-15046960D02*
X4491491Y-15037436D01*
X4491491Y-15037436D02*
X4481967Y-15018388D01*
X4481967Y-15018388D02*
X4472444Y-14980293D01*
X4472444Y-14980293D02*
X4472444Y-14932674D01*
X4472444Y-14932674D02*
X4481967Y-14894579D01*
X4481967Y-14894579D02*
X4491491Y-14875531D01*
X4491491Y-14875531D02*
X4501015Y-14866008D01*
X4501015Y-14866008D02*
X4520063Y-14856484D01*
X4710539Y-14856484D02*
X4729586Y-14856484D01*
X4729586Y-14856484D02*
X4748634Y-14866008D01*
X4748634Y-14866008D02*
X4758158Y-14875531D01*
X4758158Y-14875531D02*
X4767682Y-14894579D01*
X4767682Y-14894579D02*
X4777205Y-14932674D01*
X4777205Y-14932674D02*
X4777205Y-14980293D01*
X4777205Y-14980293D02*
X4767682Y-15018388D01*
X4767682Y-15018388D02*
X4758158Y-15037436D01*
X4758158Y-15037436D02*
X4748634Y-15046960D01*
X4748634Y-15046960D02*
X4729586Y-15056484D01*
X4729586Y-15056484D02*
X4710539Y-15056484D01*
X4710539Y-15056484D02*
X4691491Y-15046960D01*
X4691491Y-15046960D02*
X4681967Y-15037436D01*
X4681967Y-15037436D02*
X4672444Y-15018388D01*
X4672444Y-15018388D02*
X4662920Y-14980293D01*
X4662920Y-14980293D02*
X4662920Y-14932674D01*
X4662920Y-14932674D02*
X4672444Y-14894579D01*
X4672444Y-14894579D02*
X4681967Y-14875531D01*
X4681967Y-14875531D02*
X4691491Y-14866008D01*
X4691491Y-14866008D02*
X4710539Y-14856484D01*
X4862920Y-15056484D02*
X4862920Y-14923150D01*
X4862920Y-14942198D02*
X4872444Y-14932674D01*
X4872444Y-14932674D02*
X4891491Y-14923150D01*
X4891491Y-14923150D02*
X4920063Y-14923150D01*
X4920063Y-14923150D02*
X4939110Y-14932674D01*
X4939110Y-14932674D02*
X4948634Y-14951722D01*
X4948634Y-14951722D02*
X4948634Y-15056484D01*
X4948634Y-14951722D02*
X4958158Y-14932674D01*
X4958158Y-14932674D02*
X4977205Y-14923150D01*
X4977205Y-14923150D02*
X5005777Y-14923150D01*
X5005777Y-14923150D02*
X5024825Y-14932674D01*
X5024825Y-14932674D02*
X5034348Y-14951722D01*
X5034348Y-14951722D02*
X5034348Y-15056484D01*
X5129586Y-15056484D02*
X5129586Y-14923150D01*
X5129586Y-14942198D02*
X5139110Y-14932674D01*
X5139110Y-14932674D02*
X5158158Y-14923150D01*
X5158158Y-14923150D02*
X5186729Y-14923150D01*
X5186729Y-14923150D02*
X5205777Y-14932674D01*
X5205777Y-14932674D02*
X5215301Y-14951722D01*
X5215301Y-14951722D02*
X5215301Y-15056484D01*
X5215301Y-14951722D02*
X5224825Y-14932674D01*
X5224825Y-14932674D02*
X5243872Y-14923150D01*
X5243872Y-14923150D02*
X5272444Y-14923150D01*
X5272444Y-14923150D02*
X5291491Y-14932674D01*
X5291491Y-14932674D02*
X5301015Y-14951722D01*
X5301015Y-14951722D02*
X5301015Y-15056484D01*
X5691491Y-14846960D02*
X5520063Y-15104103D01*
X5948634Y-14856484D02*
X5967682Y-14856484D01*
X5967682Y-14856484D02*
X5986729Y-14866008D01*
X5986729Y-14866008D02*
X5996253Y-14875531D01*
X5996253Y-14875531D02*
X6005777Y-14894579D01*
X6005777Y-14894579D02*
X6015301Y-14932674D01*
X6015301Y-14932674D02*
X6015301Y-14980293D01*
X6015301Y-14980293D02*
X6005777Y-15018388D01*
X6005777Y-15018388D02*
X5996253Y-15037436D01*
X5996253Y-15037436D02*
X5986729Y-15046960D01*
X5986729Y-15046960D02*
X5967682Y-15056484D01*
X5967682Y-15056484D02*
X5948634Y-15056484D01*
X5948634Y-15056484D02*
X5929586Y-15046960D01*
X5929586Y-15046960D02*
X5920063Y-15037436D01*
X5920063Y-15037436D02*
X5910539Y-15018388D01*
X5910539Y-15018388D02*
X5901015Y-14980293D01*
X5901015Y-14980293D02*
X5901015Y-14932674D01*
X5901015Y-14932674D02*
X5910539Y-14894579D01*
X5910539Y-14894579D02*
X5920063Y-14875531D01*
X5920063Y-14875531D02*
X5929586Y-14866008D01*
X5929586Y-14866008D02*
X5948634Y-14856484D01*
X6101015Y-15037436D02*
X6110539Y-15046960D01*
X6110539Y-15046960D02*
X6101015Y-15056484D01*
X6101015Y-15056484D02*
X6091491Y-15046960D01*
X6091491Y-15046960D02*
X6101015Y-15037436D01*
X6101015Y-15037436D02*
X6101015Y-15056484D01*
X6234348Y-14856484D02*
X6253396Y-14856484D01*
X6253396Y-14856484D02*
X6272444Y-14866008D01*
X6272444Y-14866008D02*
X6281967Y-14875531D01*
X6281967Y-14875531D02*
X6291491Y-14894579D01*
X6291491Y-14894579D02*
X6301015Y-14932674D01*
X6301015Y-14932674D02*
X6301015Y-14980293D01*
X6301015Y-14980293D02*
X6291491Y-15018388D01*
X6291491Y-15018388D02*
X6281967Y-15037436D01*
X6281967Y-15037436D02*
X6272444Y-15046960D01*
X6272444Y-15046960D02*
X6253396Y-15056484D01*
X6253396Y-15056484D02*
X6234348Y-15056484D01*
X6234348Y-15056484D02*
X6215301Y-15046960D01*
X6215301Y-15046960D02*
X6205777Y-15037436D01*
X6205777Y-15037436D02*
X6196253Y-15018388D01*
X6196253Y-15018388D02*
X6186729Y-14980293D01*
X6186729Y-14980293D02*
X6186729Y-14932674D01*
X6186729Y-14932674D02*
X6196253Y-14894579D01*
X6196253Y-14894579D02*
X6205777Y-14875531D01*
X6205777Y-14875531D02*
X6215301Y-14866008D01*
X6215301Y-14866008D02*
X6234348Y-14856484D01*
X6415301Y-14942198D02*
X6396253Y-14932674D01*
X6396253Y-14932674D02*
X6386729Y-14923150D01*
X6386729Y-14923150D02*
X6377206Y-14904103D01*
X6377206Y-14904103D02*
X6377206Y-14894579D01*
X6377206Y-14894579D02*
X6386729Y-14875531D01*
X6386729Y-14875531D02*
X6396253Y-14866008D01*
X6396253Y-14866008D02*
X6415301Y-14856484D01*
X6415301Y-14856484D02*
X6453396Y-14856484D01*
X6453396Y-14856484D02*
X6472444Y-14866008D01*
X6472444Y-14866008D02*
X6481967Y-14875531D01*
X6481967Y-14875531D02*
X6491491Y-14894579D01*
X6491491Y-14894579D02*
X6491491Y-14904103D01*
X6491491Y-14904103D02*
X6481967Y-14923150D01*
X6481967Y-14923150D02*
X6472444Y-14932674D01*
X6472444Y-14932674D02*
X6453396Y-14942198D01*
X6453396Y-14942198D02*
X6415301Y-14942198D01*
X6415301Y-14942198D02*
X6396253Y-14951722D01*
X6396253Y-14951722D02*
X6386729Y-14961246D01*
X6386729Y-14961246D02*
X6377206Y-14980293D01*
X6377206Y-14980293D02*
X6377206Y-15018388D01*
X6377206Y-15018388D02*
X6386729Y-15037436D01*
X6386729Y-15037436D02*
X6396253Y-15046960D01*
X6396253Y-15046960D02*
X6415301Y-15056484D01*
X6415301Y-15056484D02*
X6453396Y-15056484D01*
X6453396Y-15056484D02*
X6472444Y-15046960D01*
X6472444Y-15046960D02*
X6481967Y-15037436D01*
X6481967Y-15037436D02*
X6491491Y-15018388D01*
X6491491Y-15018388D02*
X6491491Y-14980293D01*
X6491491Y-14980293D02*
X6481967Y-14961246D01*
X6481967Y-14961246D02*
X6472444Y-14951722D01*
X6472444Y-14951722D02*
X6453396Y-14942198D01*
X6662920Y-14856484D02*
X6624825Y-14856484D01*
X6624825Y-14856484D02*
X6605777Y-14866008D01*
X6605777Y-14866008D02*
X6596253Y-14875531D01*
X6596253Y-14875531D02*
X6577206Y-14904103D01*
X6577206Y-14904103D02*
X6567682Y-14942198D01*
X6567682Y-14942198D02*
X6567682Y-15018388D01*
X6567682Y-15018388D02*
X6577206Y-15037436D01*
X6577206Y-15037436D02*
X6586729Y-15046960D01*
X6586729Y-15046960D02*
X6605777Y-15056484D01*
X6605777Y-15056484D02*
X6643872Y-15056484D01*
X6643872Y-15056484D02*
X6662920Y-15046960D01*
X6662920Y-15046960D02*
X6672444Y-15037436D01*
X6672444Y-15037436D02*
X6681967Y-15018388D01*
X6681967Y-15018388D02*
X6681967Y-14970769D01*
X6681967Y-14970769D02*
X6672444Y-14951722D01*
X6672444Y-14951722D02*
X6662920Y-14942198D01*
X6662920Y-14942198D02*
X6643872Y-14932674D01*
X6643872Y-14932674D02*
X6605777Y-14932674D01*
X6605777Y-14932674D02*
X6586729Y-14942198D01*
X6586729Y-14942198D02*
X6577206Y-14951722D01*
X6577206Y-14951722D02*
X6567682Y-14970769D01*
X6853396Y-14856484D02*
X6815301Y-14856484D01*
X6815301Y-14856484D02*
X6796253Y-14866008D01*
X6796253Y-14866008D02*
X6786729Y-14875531D01*
X6786729Y-14875531D02*
X6767682Y-14904103D01*
X6767682Y-14904103D02*
X6758158Y-14942198D01*
X6758158Y-14942198D02*
X6758158Y-15018388D01*
X6758158Y-15018388D02*
X6767682Y-15037436D01*
X6767682Y-15037436D02*
X6777206Y-15046960D01*
X6777206Y-15046960D02*
X6796253Y-15056484D01*
X6796253Y-15056484D02*
X6834348Y-15056484D01*
X6834348Y-15056484D02*
X6853396Y-15046960D01*
X6853396Y-15046960D02*
X6862920Y-15037436D01*
X6862920Y-15037436D02*
X6872444Y-15018388D01*
X6872444Y-15018388D02*
X6872444Y-14970769D01*
X6872444Y-14970769D02*
X6862920Y-14951722D01*
X6862920Y-14951722D02*
X6853396Y-14942198D01*
X6853396Y-14942198D02*
X6834348Y-14932674D01*
X6834348Y-14932674D02*
X6796253Y-14932674D01*
X6796253Y-14932674D02*
X6777206Y-14942198D01*
X6777206Y-14942198D02*
X6767682Y-14951722D01*
X6767682Y-14951722D02*
X6758158Y-14970769D01*
X6948634Y-14856484D02*
X6948634Y-14894579D01*
X7024825Y-14856484D02*
X7024825Y-14894579D01*
X7320063Y-15132674D02*
X7310539Y-15123150D01*
X7310539Y-15123150D02*
X7291491Y-15094579D01*
X7291491Y-15094579D02*
X7281968Y-15075531D01*
X7281968Y-15075531D02*
X7272444Y-15046960D01*
X7272444Y-15046960D02*
X7262920Y-14999341D01*
X7262920Y-14999341D02*
X7262920Y-14961246D01*
X7262920Y-14961246D02*
X7272444Y-14913627D01*
X7272444Y-14913627D02*
X7281968Y-14885055D01*
X7281968Y-14885055D02*
X7291491Y-14866008D01*
X7291491Y-14866008D02*
X7310539Y-14837436D01*
X7310539Y-14837436D02*
X7320063Y-14827912D01*
X7501015Y-15056484D02*
X7386729Y-15056484D01*
X7443872Y-15056484D02*
X7443872Y-14856484D01*
X7443872Y-14856484D02*
X7424825Y-14885055D01*
X7424825Y-14885055D02*
X7405777Y-14904103D01*
X7405777Y-14904103D02*
X7386729Y-14913627D01*
X7615301Y-14942198D02*
X7596253Y-14932674D01*
X7596253Y-14932674D02*
X7586729Y-14923150D01*
X7586729Y-14923150D02*
X7577206Y-14904103D01*
X7577206Y-14904103D02*
X7577206Y-14894579D01*
X7577206Y-14894579D02*
X7586729Y-14875531D01*
X7586729Y-14875531D02*
X7596253Y-14866008D01*
X7596253Y-14866008D02*
X7615301Y-14856484D01*
X7615301Y-14856484D02*
X7653396Y-14856484D01*
X7653396Y-14856484D02*
X7672444Y-14866008D01*
X7672444Y-14866008D02*
X7681968Y-14875531D01*
X7681968Y-14875531D02*
X7691491Y-14894579D01*
X7691491Y-14894579D02*
X7691491Y-14904103D01*
X7691491Y-14904103D02*
X7681968Y-14923150D01*
X7681968Y-14923150D02*
X7672444Y-14932674D01*
X7672444Y-14932674D02*
X7653396Y-14942198D01*
X7653396Y-14942198D02*
X7615301Y-14942198D01*
X7615301Y-14942198D02*
X7596253Y-14951722D01*
X7596253Y-14951722D02*
X7586729Y-14961246D01*
X7586729Y-14961246D02*
X7577206Y-14980293D01*
X7577206Y-14980293D02*
X7577206Y-15018388D01*
X7577206Y-15018388D02*
X7586729Y-15037436D01*
X7586729Y-15037436D02*
X7596253Y-15046960D01*
X7596253Y-15046960D02*
X7615301Y-15056484D01*
X7615301Y-15056484D02*
X7653396Y-15056484D01*
X7653396Y-15056484D02*
X7672444Y-15046960D01*
X7672444Y-15046960D02*
X7681968Y-15037436D01*
X7681968Y-15037436D02*
X7691491Y-15018388D01*
X7691491Y-15018388D02*
X7691491Y-14980293D01*
X7691491Y-14980293D02*
X7681968Y-14961246D01*
X7681968Y-14961246D02*
X7672444Y-14951722D01*
X7672444Y-14951722D02*
X7653396Y-14942198D01*
X7929587Y-15056484D02*
X7929587Y-14856484D01*
X8015301Y-15056484D02*
X8015301Y-14951722D01*
X8015301Y-14951722D02*
X8005777Y-14932674D01*
X8005777Y-14932674D02*
X7986730Y-14923150D01*
X7986730Y-14923150D02*
X7958158Y-14923150D01*
X7958158Y-14923150D02*
X7939110Y-14932674D01*
X7939110Y-14932674D02*
X7929587Y-14942198D01*
X8139110Y-15056484D02*
X8120063Y-15046960D01*
X8120063Y-15046960D02*
X8110539Y-15037436D01*
X8110539Y-15037436D02*
X8101015Y-15018388D01*
X8101015Y-15018388D02*
X8101015Y-14961246D01*
X8101015Y-14961246D02*
X8110539Y-14942198D01*
X8110539Y-14942198D02*
X8120063Y-14932674D01*
X8120063Y-14932674D02*
X8139110Y-14923150D01*
X8139110Y-14923150D02*
X8167682Y-14923150D01*
X8167682Y-14923150D02*
X8186730Y-14932674D01*
X8186730Y-14932674D02*
X8196253Y-14942198D01*
X8196253Y-14942198D02*
X8205777Y-14961246D01*
X8205777Y-14961246D02*
X8205777Y-15018388D01*
X8205777Y-15018388D02*
X8196253Y-15037436D01*
X8196253Y-15037436D02*
X8186730Y-15046960D01*
X8186730Y-15046960D02*
X8167682Y-15056484D01*
X8167682Y-15056484D02*
X8139110Y-15056484D01*
X8320063Y-15056484D02*
X8301015Y-15046960D01*
X8301015Y-15046960D02*
X8291491Y-15027912D01*
X8291491Y-15027912D02*
X8291491Y-14856484D01*
X8472444Y-15046960D02*
X8453396Y-15056484D01*
X8453396Y-15056484D02*
X8415301Y-15056484D01*
X8415301Y-15056484D02*
X8396253Y-15046960D01*
X8396253Y-15046960D02*
X8386730Y-15027912D01*
X8386730Y-15027912D02*
X8386730Y-14951722D01*
X8386730Y-14951722D02*
X8396253Y-14932674D01*
X8396253Y-14932674D02*
X8415301Y-14923150D01*
X8415301Y-14923150D02*
X8453396Y-14923150D01*
X8453396Y-14923150D02*
X8472444Y-14932674D01*
X8472444Y-14932674D02*
X8481968Y-14951722D01*
X8481968Y-14951722D02*
X8481968Y-14970769D01*
X8481968Y-14970769D02*
X8386730Y-14989817D01*
X8558158Y-15046960D02*
X8577206Y-15056484D01*
X8577206Y-15056484D02*
X8615301Y-15056484D01*
X8615301Y-15056484D02*
X8634349Y-15046960D01*
X8634349Y-15046960D02*
X8643873Y-15027912D01*
X8643873Y-15027912D02*
X8643873Y-15018388D01*
X8643873Y-15018388D02*
X8634349Y-14999341D01*
X8634349Y-14999341D02*
X8615301Y-14989817D01*
X8615301Y-14989817D02*
X8586730Y-14989817D01*
X8586730Y-14989817D02*
X8567682Y-14980293D01*
X8567682Y-14980293D02*
X8558158Y-14961246D01*
X8558158Y-14961246D02*
X8558158Y-14951722D01*
X8558158Y-14951722D02*
X8567682Y-14932674D01*
X8567682Y-14932674D02*
X8586730Y-14923150D01*
X8586730Y-14923150D02*
X8615301Y-14923150D01*
X8615301Y-14923150D02*
X8634349Y-14932674D01*
X8710539Y-15132674D02*
X8720063Y-15123150D01*
X8720063Y-15123150D02*
X8739111Y-15094579D01*
X8739111Y-15094579D02*
X8748634Y-15075531D01*
X8748634Y-15075531D02*
X8758158Y-15046960D01*
X8758158Y-15046960D02*
X8767682Y-14999341D01*
X8767682Y-14999341D02*
X8767682Y-14961246D01*
X8767682Y-14961246D02*
X8758158Y-14913627D01*
X8758158Y-14913627D02*
X8748634Y-14885055D01*
X8748634Y-14885055D02*
X8739111Y-14866008D01*
X8739111Y-14866008D02*
X8720063Y-14837436D01*
X8720063Y-14837436D02*
X8710539Y-14827912D01*
M02*
