%TF.GenerationSoftware,KiCad,Pcbnew,8.0.5-8.0.5-0~ubuntu24.04.1*%
%TF.CreationDate,2024-09-28T04:38:33+02:00*%
%TF.ProjectId,Highz-stereo,48696768-7a2d-4737-9465-72656f2e6b69,rev?*%
%TF.SameCoordinates,Original*%
%TF.FileFunction,Legend,Top*%
%TF.FilePolarity,Positive*%
%FSLAX46Y46*%
G04 Gerber Fmt 4.6, Leading zero omitted, Abs format (unit mm)*
G04 Created by KiCad (PCBNEW 8.0.5-8.0.5-0~ubuntu24.04.1) date 2024-09-28 04:38:33*
%MOMM*%
%LPD*%
G01*
G04 APERTURE LIST*
%ADD10C,0.150000*%
%ADD11C,0.300000*%
%ADD12C,0.120000*%
G04 APERTURE END LIST*
D10*
X80836779Y-125869819D02*
X80836779Y-124869819D01*
X81312969Y-125869819D02*
X81312969Y-124869819D01*
X81312969Y-124869819D02*
X81884397Y-125869819D01*
X81884397Y-125869819D02*
X81884397Y-124869819D01*
X83455826Y-125346009D02*
X83598683Y-125393628D01*
X83598683Y-125393628D02*
X83646302Y-125441247D01*
X83646302Y-125441247D02*
X83693921Y-125536485D01*
X83693921Y-125536485D02*
X83693921Y-125679342D01*
X83693921Y-125679342D02*
X83646302Y-125774580D01*
X83646302Y-125774580D02*
X83598683Y-125822200D01*
X83598683Y-125822200D02*
X83503445Y-125869819D01*
X83503445Y-125869819D02*
X83122493Y-125869819D01*
X83122493Y-125869819D02*
X83122493Y-124869819D01*
X83122493Y-124869819D02*
X83455826Y-124869819D01*
X83455826Y-124869819D02*
X83551064Y-124917438D01*
X83551064Y-124917438D02*
X83598683Y-124965057D01*
X83598683Y-124965057D02*
X83646302Y-125060295D01*
X83646302Y-125060295D02*
X83646302Y-125155533D01*
X83646302Y-125155533D02*
X83598683Y-125250771D01*
X83598683Y-125250771D02*
X83551064Y-125298390D01*
X83551064Y-125298390D02*
X83455826Y-125346009D01*
X83455826Y-125346009D02*
X83122493Y-125346009D01*
X49100000Y-123000000D02*
X52100000Y-123000000D01*
X52600000Y-120500000D02*
X52600000Y-123500000D01*
X59600000Y-123100000D02*
X62600000Y-123100000D01*
X59100000Y-120600000D02*
X59100000Y-123600000D01*
X58100000Y-122600000D02*
X58100000Y-123600000D01*
X59600000Y-121100000D02*
X62600000Y-121100000D01*
X62600000Y-121100000D02*
X62600000Y-123100000D01*
X59600000Y-123100000D02*
X59600000Y-121100000D01*
X63100000Y-120600000D02*
X63100000Y-123600000D01*
X57600000Y-123100000D02*
X58600000Y-123100000D01*
X53100000Y-123000000D02*
X54100000Y-123000000D01*
X63600000Y-123100000D02*
X64600000Y-123100000D01*
X75500000Y-123900000D02*
X75500000Y-121900000D01*
X52600000Y-122000000D02*
X54600000Y-122000000D01*
X86000000Y-124000000D02*
X89000000Y-124000000D01*
X75000000Y-122900000D02*
X73000000Y-122900000D01*
X86000000Y-122000000D02*
X89000000Y-122000000D01*
X84500000Y-123500000D02*
X84500000Y-124500000D01*
X90000000Y-124000000D02*
X91000000Y-124000000D01*
X89500000Y-123000000D02*
X91000000Y-123000000D01*
X79500000Y-123900000D02*
X80500000Y-123900000D01*
X47600000Y-122500000D02*
X47600000Y-123500000D01*
X48600000Y-122000000D02*
X46600000Y-122000000D01*
X52100000Y-121000000D02*
X52100000Y-123000000D01*
X89000000Y-122000000D02*
X89000000Y-124000000D01*
X75500000Y-123900000D02*
X78500000Y-123900000D01*
X49100000Y-123000000D02*
X49100000Y-121000000D01*
X78500000Y-121900000D02*
X78500000Y-123900000D01*
X85500000Y-121500000D02*
X85500000Y-124500000D01*
X85500000Y-123000000D02*
X84000000Y-123000000D01*
X47100000Y-123000000D02*
X48100000Y-123000000D01*
X79000000Y-122900000D02*
X81000000Y-122900000D01*
X48600000Y-120500000D02*
X48600000Y-123500000D01*
X74000000Y-123400000D02*
X74000000Y-124400000D01*
X84000000Y-124000000D02*
X85000000Y-124000000D01*
X75000000Y-121400000D02*
X75000000Y-124400000D01*
X59100000Y-122100000D02*
X57600000Y-122100000D01*
X86000000Y-124000000D02*
X86000000Y-122000000D01*
X73500000Y-123900000D02*
X74500000Y-123900000D01*
X79000000Y-121400000D02*
X79000000Y-124400000D01*
X49100000Y-121000000D02*
X52100000Y-121000000D01*
X63100000Y-122100000D02*
X64600000Y-122100000D01*
X89500000Y-121500000D02*
X89500000Y-124500000D01*
X75500000Y-121900000D02*
X78500000Y-121900000D01*
X76119048Y-36788152D02*
X76119048Y-37788152D01*
X76119048Y-36835771D02*
X76214286Y-36788152D01*
X76214286Y-36788152D02*
X76404762Y-36788152D01*
X76404762Y-36788152D02*
X76500000Y-36835771D01*
X76500000Y-36835771D02*
X76547619Y-36883390D01*
X76547619Y-36883390D02*
X76595238Y-36978628D01*
X76595238Y-36978628D02*
X76595238Y-37264342D01*
X76595238Y-37264342D02*
X76547619Y-37359580D01*
X76547619Y-37359580D02*
X76500000Y-37407200D01*
X76500000Y-37407200D02*
X76404762Y-37454819D01*
X76404762Y-37454819D02*
X76214286Y-37454819D01*
X76214286Y-37454819D02*
X76119048Y-37407200D01*
X77023810Y-37454819D02*
X77023810Y-36788152D01*
X77023810Y-36454819D02*
X76976191Y-36502438D01*
X76976191Y-36502438D02*
X77023810Y-36550057D01*
X77023810Y-36550057D02*
X77071429Y-36502438D01*
X77071429Y-36502438D02*
X77023810Y-36454819D01*
X77023810Y-36454819D02*
X77023810Y-36550057D01*
X77500000Y-36788152D02*
X77500000Y-37454819D01*
X77500000Y-36883390D02*
X77547619Y-36835771D01*
X77547619Y-36835771D02*
X77642857Y-36788152D01*
X77642857Y-36788152D02*
X77785714Y-36788152D01*
X77785714Y-36788152D02*
X77880952Y-36835771D01*
X77880952Y-36835771D02*
X77928571Y-36931009D01*
X77928571Y-36931009D02*
X77928571Y-37454819D01*
X78309524Y-36454819D02*
X78928571Y-36454819D01*
X78928571Y-36454819D02*
X78595238Y-36835771D01*
X78595238Y-36835771D02*
X78738095Y-36835771D01*
X78738095Y-36835771D02*
X78833333Y-36883390D01*
X78833333Y-36883390D02*
X78880952Y-36931009D01*
X78880952Y-36931009D02*
X78928571Y-37026247D01*
X78928571Y-37026247D02*
X78928571Y-37264342D01*
X78928571Y-37264342D02*
X78880952Y-37359580D01*
X78880952Y-37359580D02*
X78833333Y-37407200D01*
X78833333Y-37407200D02*
X78738095Y-37454819D01*
X78738095Y-37454819D02*
X78452381Y-37454819D01*
X78452381Y-37454819D02*
X78357143Y-37407200D01*
X78357143Y-37407200D02*
X78309524Y-37359580D01*
X46785714Y-35573866D02*
X47547619Y-35573866D01*
X47166666Y-35954819D02*
X47166666Y-35192914D01*
X48452380Y-35288152D02*
X48452380Y-35954819D01*
X48214285Y-34907200D02*
X47976190Y-35621485D01*
X47976190Y-35621485D02*
X48595237Y-35621485D01*
X49119047Y-35383390D02*
X49023809Y-35335771D01*
X49023809Y-35335771D02*
X48976190Y-35288152D01*
X48976190Y-35288152D02*
X48928571Y-35192914D01*
X48928571Y-35192914D02*
X48928571Y-35145295D01*
X48928571Y-35145295D02*
X48976190Y-35050057D01*
X48976190Y-35050057D02*
X49023809Y-35002438D01*
X49023809Y-35002438D02*
X49119047Y-34954819D01*
X49119047Y-34954819D02*
X49309523Y-34954819D01*
X49309523Y-34954819D02*
X49404761Y-35002438D01*
X49404761Y-35002438D02*
X49452380Y-35050057D01*
X49452380Y-35050057D02*
X49499999Y-35145295D01*
X49499999Y-35145295D02*
X49499999Y-35192914D01*
X49499999Y-35192914D02*
X49452380Y-35288152D01*
X49452380Y-35288152D02*
X49404761Y-35335771D01*
X49404761Y-35335771D02*
X49309523Y-35383390D01*
X49309523Y-35383390D02*
X49119047Y-35383390D01*
X49119047Y-35383390D02*
X49023809Y-35431009D01*
X49023809Y-35431009D02*
X48976190Y-35478628D01*
X48976190Y-35478628D02*
X48928571Y-35573866D01*
X48928571Y-35573866D02*
X48928571Y-35764342D01*
X48928571Y-35764342D02*
X48976190Y-35859580D01*
X48976190Y-35859580D02*
X49023809Y-35907200D01*
X49023809Y-35907200D02*
X49119047Y-35954819D01*
X49119047Y-35954819D02*
X49309523Y-35954819D01*
X49309523Y-35954819D02*
X49404761Y-35907200D01*
X49404761Y-35907200D02*
X49452380Y-35859580D01*
X49452380Y-35859580D02*
X49499999Y-35764342D01*
X49499999Y-35764342D02*
X49499999Y-35573866D01*
X49499999Y-35573866D02*
X49452380Y-35478628D01*
X49452380Y-35478628D02*
X49404761Y-35431009D01*
X49404761Y-35431009D02*
X49309523Y-35383390D01*
X50547619Y-34954819D02*
X50880952Y-35954819D01*
X50880952Y-35954819D02*
X51214285Y-34954819D01*
X51738095Y-34954819D02*
X51928571Y-34954819D01*
X51928571Y-34954819D02*
X52023809Y-35002438D01*
X52023809Y-35002438D02*
X52119047Y-35097676D01*
X52119047Y-35097676D02*
X52166666Y-35288152D01*
X52166666Y-35288152D02*
X52166666Y-35621485D01*
X52166666Y-35621485D02*
X52119047Y-35811961D01*
X52119047Y-35811961D02*
X52023809Y-35907200D01*
X52023809Y-35907200D02*
X51928571Y-35954819D01*
X51928571Y-35954819D02*
X51738095Y-35954819D01*
X51738095Y-35954819D02*
X51642857Y-35907200D01*
X51642857Y-35907200D02*
X51547619Y-35811961D01*
X51547619Y-35811961D02*
X51500000Y-35621485D01*
X51500000Y-35621485D02*
X51500000Y-35288152D01*
X51500000Y-35288152D02*
X51547619Y-35097676D01*
X51547619Y-35097676D02*
X51642857Y-35002438D01*
X51642857Y-35002438D02*
X51738095Y-34954819D01*
X53071428Y-35954819D02*
X52595238Y-35954819D01*
X52595238Y-35954819D02*
X52595238Y-34954819D01*
X53261905Y-34954819D02*
X53833333Y-34954819D01*
X53547619Y-35954819D02*
X53547619Y-34954819D01*
X54928572Y-35954819D02*
X54928572Y-34954819D01*
X54928572Y-34954819D02*
X55309524Y-34954819D01*
X55309524Y-34954819D02*
X55404762Y-35002438D01*
X55404762Y-35002438D02*
X55452381Y-35050057D01*
X55452381Y-35050057D02*
X55500000Y-35145295D01*
X55500000Y-35145295D02*
X55500000Y-35288152D01*
X55500000Y-35288152D02*
X55452381Y-35383390D01*
X55452381Y-35383390D02*
X55404762Y-35431009D01*
X55404762Y-35431009D02*
X55309524Y-35478628D01*
X55309524Y-35478628D02*
X54928572Y-35478628D01*
X55928572Y-35954819D02*
X55928572Y-34954819D01*
X55928572Y-35431009D02*
X56500000Y-35431009D01*
X56500000Y-35954819D02*
X56500000Y-34954819D01*
X56928572Y-35669104D02*
X57404762Y-35669104D01*
X56833334Y-35954819D02*
X57166667Y-34954819D01*
X57166667Y-34954819D02*
X57500000Y-35954819D01*
X57833334Y-35954819D02*
X57833334Y-34954819D01*
X57833334Y-34954819D02*
X58404762Y-35954819D01*
X58404762Y-35954819D02*
X58404762Y-34954819D01*
X58738096Y-34954819D02*
X59309524Y-34954819D01*
X59023810Y-35954819D02*
X59023810Y-34954819D01*
X59833334Y-34954819D02*
X60023810Y-34954819D01*
X60023810Y-34954819D02*
X60119048Y-35002438D01*
X60119048Y-35002438D02*
X60214286Y-35097676D01*
X60214286Y-35097676D02*
X60261905Y-35288152D01*
X60261905Y-35288152D02*
X60261905Y-35621485D01*
X60261905Y-35621485D02*
X60214286Y-35811961D01*
X60214286Y-35811961D02*
X60119048Y-35907200D01*
X60119048Y-35907200D02*
X60023810Y-35954819D01*
X60023810Y-35954819D02*
X59833334Y-35954819D01*
X59833334Y-35954819D02*
X59738096Y-35907200D01*
X59738096Y-35907200D02*
X59642858Y-35811961D01*
X59642858Y-35811961D02*
X59595239Y-35621485D01*
X59595239Y-35621485D02*
X59595239Y-35288152D01*
X59595239Y-35288152D02*
X59642858Y-35097676D01*
X59642858Y-35097676D02*
X59738096Y-35002438D01*
X59738096Y-35002438D02*
X59833334Y-34954819D01*
X60690477Y-35954819D02*
X60690477Y-34954819D01*
X60690477Y-34954819D02*
X61023810Y-35669104D01*
X61023810Y-35669104D02*
X61357143Y-34954819D01*
X61357143Y-34954819D02*
X61357143Y-35954819D01*
X62595239Y-35954819D02*
X62595239Y-34954819D01*
X62595239Y-34954819D02*
X62976191Y-34954819D01*
X62976191Y-34954819D02*
X63071429Y-35002438D01*
X63071429Y-35002438D02*
X63119048Y-35050057D01*
X63119048Y-35050057D02*
X63166667Y-35145295D01*
X63166667Y-35145295D02*
X63166667Y-35288152D01*
X63166667Y-35288152D02*
X63119048Y-35383390D01*
X63119048Y-35383390D02*
X63071429Y-35431009D01*
X63071429Y-35431009D02*
X62976191Y-35478628D01*
X62976191Y-35478628D02*
X62595239Y-35478628D01*
X63785715Y-34954819D02*
X63976191Y-34954819D01*
X63976191Y-34954819D02*
X64071429Y-35002438D01*
X64071429Y-35002438D02*
X64166667Y-35097676D01*
X64166667Y-35097676D02*
X64214286Y-35288152D01*
X64214286Y-35288152D02*
X64214286Y-35621485D01*
X64214286Y-35621485D02*
X64166667Y-35811961D01*
X64166667Y-35811961D02*
X64071429Y-35907200D01*
X64071429Y-35907200D02*
X63976191Y-35954819D01*
X63976191Y-35954819D02*
X63785715Y-35954819D01*
X63785715Y-35954819D02*
X63690477Y-35907200D01*
X63690477Y-35907200D02*
X63595239Y-35811961D01*
X63595239Y-35811961D02*
X63547620Y-35621485D01*
X63547620Y-35621485D02*
X63547620Y-35288152D01*
X63547620Y-35288152D02*
X63595239Y-35097676D01*
X63595239Y-35097676D02*
X63690477Y-35002438D01*
X63690477Y-35002438D02*
X63785715Y-34954819D01*
X64547620Y-34954819D02*
X64785715Y-35954819D01*
X64785715Y-35954819D02*
X64976191Y-35240533D01*
X64976191Y-35240533D02*
X65166667Y-35954819D01*
X65166667Y-35954819D02*
X65404763Y-34954819D01*
X65785715Y-35431009D02*
X66119048Y-35431009D01*
X66261905Y-35954819D02*
X65785715Y-35954819D01*
X65785715Y-35954819D02*
X65785715Y-34954819D01*
X65785715Y-34954819D02*
X66261905Y-34954819D01*
X67261905Y-35954819D02*
X66928572Y-35478628D01*
X66690477Y-35954819D02*
X66690477Y-34954819D01*
X66690477Y-34954819D02*
X67071429Y-34954819D01*
X67071429Y-34954819D02*
X67166667Y-35002438D01*
X67166667Y-35002438D02*
X67214286Y-35050057D01*
X67214286Y-35050057D02*
X67261905Y-35145295D01*
X67261905Y-35145295D02*
X67261905Y-35288152D01*
X67261905Y-35288152D02*
X67214286Y-35383390D01*
X67214286Y-35383390D02*
X67166667Y-35431009D01*
X67166667Y-35431009D02*
X67071429Y-35478628D01*
X67071429Y-35478628D02*
X66690477Y-35478628D01*
X86619048Y-36788152D02*
X86619048Y-37788152D01*
X86619048Y-36835771D02*
X86714286Y-36788152D01*
X86714286Y-36788152D02*
X86904762Y-36788152D01*
X86904762Y-36788152D02*
X87000000Y-36835771D01*
X87000000Y-36835771D02*
X87047619Y-36883390D01*
X87047619Y-36883390D02*
X87095238Y-36978628D01*
X87095238Y-36978628D02*
X87095238Y-37264342D01*
X87095238Y-37264342D02*
X87047619Y-37359580D01*
X87047619Y-37359580D02*
X87000000Y-37407200D01*
X87000000Y-37407200D02*
X86904762Y-37454819D01*
X86904762Y-37454819D02*
X86714286Y-37454819D01*
X86714286Y-37454819D02*
X86619048Y-37407200D01*
X87523810Y-37454819D02*
X87523810Y-36788152D01*
X87523810Y-36454819D02*
X87476191Y-36502438D01*
X87476191Y-36502438D02*
X87523810Y-36550057D01*
X87523810Y-36550057D02*
X87571429Y-36502438D01*
X87571429Y-36502438D02*
X87523810Y-36454819D01*
X87523810Y-36454819D02*
X87523810Y-36550057D01*
X88000000Y-36788152D02*
X88000000Y-37454819D01*
X88000000Y-36883390D02*
X88047619Y-36835771D01*
X88047619Y-36835771D02*
X88142857Y-36788152D01*
X88142857Y-36788152D02*
X88285714Y-36788152D01*
X88285714Y-36788152D02*
X88380952Y-36835771D01*
X88380952Y-36835771D02*
X88428571Y-36931009D01*
X88428571Y-36931009D02*
X88428571Y-37454819D01*
X89428571Y-37454819D02*
X88857143Y-37454819D01*
X89142857Y-37454819D02*
X89142857Y-36454819D01*
X89142857Y-36454819D02*
X89047619Y-36597676D01*
X89047619Y-36597676D02*
X88952381Y-36692914D01*
X88952381Y-36692914D02*
X88857143Y-36740533D01*
X61785714Y-46859580D02*
X61738095Y-46907200D01*
X61738095Y-46907200D02*
X61595238Y-46954819D01*
X61595238Y-46954819D02*
X61500000Y-46954819D01*
X61500000Y-46954819D02*
X61357143Y-46907200D01*
X61357143Y-46907200D02*
X61261905Y-46811961D01*
X61261905Y-46811961D02*
X61214286Y-46716723D01*
X61214286Y-46716723D02*
X61166667Y-46526247D01*
X61166667Y-46526247D02*
X61166667Y-46383390D01*
X61166667Y-46383390D02*
X61214286Y-46192914D01*
X61214286Y-46192914D02*
X61261905Y-46097676D01*
X61261905Y-46097676D02*
X61357143Y-46002438D01*
X61357143Y-46002438D02*
X61500000Y-45954819D01*
X61500000Y-45954819D02*
X61595238Y-45954819D01*
X61595238Y-45954819D02*
X61738095Y-46002438D01*
X61738095Y-46002438D02*
X61785714Y-46050057D01*
X62785714Y-46859580D02*
X62738095Y-46907200D01*
X62738095Y-46907200D02*
X62595238Y-46954819D01*
X62595238Y-46954819D02*
X62500000Y-46954819D01*
X62500000Y-46954819D02*
X62357143Y-46907200D01*
X62357143Y-46907200D02*
X62261905Y-46811961D01*
X62261905Y-46811961D02*
X62214286Y-46716723D01*
X62214286Y-46716723D02*
X62166667Y-46526247D01*
X62166667Y-46526247D02*
X62166667Y-46383390D01*
X62166667Y-46383390D02*
X62214286Y-46192914D01*
X62214286Y-46192914D02*
X62261905Y-46097676D01*
X62261905Y-46097676D02*
X62357143Y-46002438D01*
X62357143Y-46002438D02*
X62500000Y-45954819D01*
X62500000Y-45954819D02*
X62595238Y-45954819D01*
X62595238Y-45954819D02*
X62738095Y-46002438D01*
X62738095Y-46002438D02*
X62785714Y-46050057D01*
X63214286Y-46573866D02*
X63976191Y-46573866D01*
X64785714Y-46431009D02*
X64928571Y-46478628D01*
X64928571Y-46478628D02*
X64976190Y-46526247D01*
X64976190Y-46526247D02*
X65023809Y-46621485D01*
X65023809Y-46621485D02*
X65023809Y-46764342D01*
X65023809Y-46764342D02*
X64976190Y-46859580D01*
X64976190Y-46859580D02*
X64928571Y-46907200D01*
X64928571Y-46907200D02*
X64833333Y-46954819D01*
X64833333Y-46954819D02*
X64452381Y-46954819D01*
X64452381Y-46954819D02*
X64452381Y-45954819D01*
X64452381Y-45954819D02*
X64785714Y-45954819D01*
X64785714Y-45954819D02*
X64880952Y-46002438D01*
X64880952Y-46002438D02*
X64928571Y-46050057D01*
X64928571Y-46050057D02*
X64976190Y-46145295D01*
X64976190Y-46145295D02*
X64976190Y-46240533D01*
X64976190Y-46240533D02*
X64928571Y-46335771D01*
X64928571Y-46335771D02*
X64880952Y-46383390D01*
X64880952Y-46383390D02*
X64785714Y-46431009D01*
X64785714Y-46431009D02*
X64452381Y-46431009D01*
X65642857Y-46478628D02*
X65642857Y-46954819D01*
X65309524Y-45954819D02*
X65642857Y-46478628D01*
X65642857Y-46478628D02*
X65976190Y-45954819D01*
X66309524Y-46573866D02*
X67071429Y-46573866D01*
X67976190Y-46288152D02*
X67976190Y-46954819D01*
X67738095Y-45907200D02*
X67500000Y-46621485D01*
X67500000Y-46621485D02*
X68119047Y-46621485D01*
X68500000Y-46859580D02*
X68547619Y-46907200D01*
X68547619Y-46907200D02*
X68500000Y-46954819D01*
X68500000Y-46954819D02*
X68452381Y-46907200D01*
X68452381Y-46907200D02*
X68500000Y-46859580D01*
X68500000Y-46859580D02*
X68500000Y-46954819D01*
X69166666Y-45954819D02*
X69261904Y-45954819D01*
X69261904Y-45954819D02*
X69357142Y-46002438D01*
X69357142Y-46002438D02*
X69404761Y-46050057D01*
X69404761Y-46050057D02*
X69452380Y-46145295D01*
X69452380Y-46145295D02*
X69499999Y-46335771D01*
X69499999Y-46335771D02*
X69499999Y-46573866D01*
X69499999Y-46573866D02*
X69452380Y-46764342D01*
X69452380Y-46764342D02*
X69404761Y-46859580D01*
X69404761Y-46859580D02*
X69357142Y-46907200D01*
X69357142Y-46907200D02*
X69261904Y-46954819D01*
X69261904Y-46954819D02*
X69166666Y-46954819D01*
X69166666Y-46954819D02*
X69071428Y-46907200D01*
X69071428Y-46907200D02*
X69023809Y-46859580D01*
X69023809Y-46859580D02*
X68976190Y-46764342D01*
X68976190Y-46764342D02*
X68928571Y-46573866D01*
X68928571Y-46573866D02*
X68928571Y-46335771D01*
X68928571Y-46335771D02*
X68976190Y-46145295D01*
X68976190Y-46145295D02*
X69023809Y-46050057D01*
X69023809Y-46050057D02*
X69071428Y-46002438D01*
X69071428Y-46002438D02*
X69166666Y-45954819D01*
X71166666Y-46954819D02*
X70690476Y-46954819D01*
X70690476Y-46954819D02*
X70690476Y-45954819D01*
X71500000Y-46954819D02*
X71500000Y-46288152D01*
X71500000Y-45954819D02*
X71452381Y-46002438D01*
X71452381Y-46002438D02*
X71500000Y-46050057D01*
X71500000Y-46050057D02*
X71547619Y-46002438D01*
X71547619Y-46002438D02*
X71500000Y-45954819D01*
X71500000Y-45954819D02*
X71500000Y-46050057D01*
X72404761Y-46907200D02*
X72309523Y-46954819D01*
X72309523Y-46954819D02*
X72119047Y-46954819D01*
X72119047Y-46954819D02*
X72023809Y-46907200D01*
X72023809Y-46907200D02*
X71976190Y-46859580D01*
X71976190Y-46859580D02*
X71928571Y-46764342D01*
X71928571Y-46764342D02*
X71928571Y-46478628D01*
X71928571Y-46478628D02*
X71976190Y-46383390D01*
X71976190Y-46383390D02*
X72023809Y-46335771D01*
X72023809Y-46335771D02*
X72119047Y-46288152D01*
X72119047Y-46288152D02*
X72309523Y-46288152D01*
X72309523Y-46288152D02*
X72404761Y-46335771D01*
X73214285Y-46907200D02*
X73119047Y-46954819D01*
X73119047Y-46954819D02*
X72928571Y-46954819D01*
X72928571Y-46954819D02*
X72833333Y-46907200D01*
X72833333Y-46907200D02*
X72785714Y-46811961D01*
X72785714Y-46811961D02*
X72785714Y-46431009D01*
X72785714Y-46431009D02*
X72833333Y-46335771D01*
X72833333Y-46335771D02*
X72928571Y-46288152D01*
X72928571Y-46288152D02*
X73119047Y-46288152D01*
X73119047Y-46288152D02*
X73214285Y-46335771D01*
X73214285Y-46335771D02*
X73261904Y-46431009D01*
X73261904Y-46431009D02*
X73261904Y-46526247D01*
X73261904Y-46526247D02*
X72785714Y-46621485D01*
X73690476Y-46288152D02*
X73690476Y-46954819D01*
X73690476Y-46383390D02*
X73738095Y-46335771D01*
X73738095Y-46335771D02*
X73833333Y-46288152D01*
X73833333Y-46288152D02*
X73976190Y-46288152D01*
X73976190Y-46288152D02*
X74071428Y-46335771D01*
X74071428Y-46335771D02*
X74119047Y-46431009D01*
X74119047Y-46431009D02*
X74119047Y-46954819D01*
X74547619Y-46907200D02*
X74642857Y-46954819D01*
X74642857Y-46954819D02*
X74833333Y-46954819D01*
X74833333Y-46954819D02*
X74928571Y-46907200D01*
X74928571Y-46907200D02*
X74976190Y-46811961D01*
X74976190Y-46811961D02*
X74976190Y-46764342D01*
X74976190Y-46764342D02*
X74928571Y-46669104D01*
X74928571Y-46669104D02*
X74833333Y-46621485D01*
X74833333Y-46621485D02*
X74690476Y-46621485D01*
X74690476Y-46621485D02*
X74595238Y-46573866D01*
X74595238Y-46573866D02*
X74547619Y-46478628D01*
X74547619Y-46478628D02*
X74547619Y-46431009D01*
X74547619Y-46431009D02*
X74595238Y-46335771D01*
X74595238Y-46335771D02*
X74690476Y-46288152D01*
X74690476Y-46288152D02*
X74833333Y-46288152D01*
X74833333Y-46288152D02*
X74928571Y-46335771D01*
X75785714Y-46907200D02*
X75690476Y-46954819D01*
X75690476Y-46954819D02*
X75500000Y-46954819D01*
X75500000Y-46954819D02*
X75404762Y-46907200D01*
X75404762Y-46907200D02*
X75357143Y-46811961D01*
X75357143Y-46811961D02*
X75357143Y-46431009D01*
X75357143Y-46431009D02*
X75404762Y-46335771D01*
X75404762Y-46335771D02*
X75500000Y-46288152D01*
X75500000Y-46288152D02*
X75690476Y-46288152D01*
X75690476Y-46288152D02*
X75785714Y-46335771D01*
X75785714Y-46335771D02*
X75833333Y-46431009D01*
X75833333Y-46431009D02*
X75833333Y-46526247D01*
X75833333Y-46526247D02*
X75357143Y-46621485D01*
X71785714Y-35573866D02*
X72547619Y-35573866D01*
X72166666Y-35954819D02*
X72166666Y-35192914D01*
X73452380Y-35288152D02*
X73452380Y-35954819D01*
X73214285Y-34907200D02*
X72976190Y-35621485D01*
X72976190Y-35621485D02*
X73595237Y-35621485D01*
X74119047Y-35383390D02*
X74023809Y-35335771D01*
X74023809Y-35335771D02*
X73976190Y-35288152D01*
X73976190Y-35288152D02*
X73928571Y-35192914D01*
X73928571Y-35192914D02*
X73928571Y-35145295D01*
X73928571Y-35145295D02*
X73976190Y-35050057D01*
X73976190Y-35050057D02*
X74023809Y-35002438D01*
X74023809Y-35002438D02*
X74119047Y-34954819D01*
X74119047Y-34954819D02*
X74309523Y-34954819D01*
X74309523Y-34954819D02*
X74404761Y-35002438D01*
X74404761Y-35002438D02*
X74452380Y-35050057D01*
X74452380Y-35050057D02*
X74499999Y-35145295D01*
X74499999Y-35145295D02*
X74499999Y-35192914D01*
X74499999Y-35192914D02*
X74452380Y-35288152D01*
X74452380Y-35288152D02*
X74404761Y-35335771D01*
X74404761Y-35335771D02*
X74309523Y-35383390D01*
X74309523Y-35383390D02*
X74119047Y-35383390D01*
X74119047Y-35383390D02*
X74023809Y-35431009D01*
X74023809Y-35431009D02*
X73976190Y-35478628D01*
X73976190Y-35478628D02*
X73928571Y-35573866D01*
X73928571Y-35573866D02*
X73928571Y-35764342D01*
X73928571Y-35764342D02*
X73976190Y-35859580D01*
X73976190Y-35859580D02*
X74023809Y-35907200D01*
X74023809Y-35907200D02*
X74119047Y-35954819D01*
X74119047Y-35954819D02*
X74309523Y-35954819D01*
X74309523Y-35954819D02*
X74404761Y-35907200D01*
X74404761Y-35907200D02*
X74452380Y-35859580D01*
X74452380Y-35859580D02*
X74499999Y-35764342D01*
X74499999Y-35764342D02*
X74499999Y-35573866D01*
X74499999Y-35573866D02*
X74452380Y-35478628D01*
X74452380Y-35478628D02*
X74404761Y-35431009D01*
X74404761Y-35431009D02*
X74309523Y-35383390D01*
X75547619Y-34954819D02*
X75880952Y-35954819D01*
X75880952Y-35954819D02*
X76214285Y-34954819D01*
X76738095Y-34954819D02*
X76928571Y-34954819D01*
X76928571Y-34954819D02*
X77023809Y-35002438D01*
X77023809Y-35002438D02*
X77119047Y-35097676D01*
X77119047Y-35097676D02*
X77166666Y-35288152D01*
X77166666Y-35288152D02*
X77166666Y-35621485D01*
X77166666Y-35621485D02*
X77119047Y-35811961D01*
X77119047Y-35811961D02*
X77023809Y-35907200D01*
X77023809Y-35907200D02*
X76928571Y-35954819D01*
X76928571Y-35954819D02*
X76738095Y-35954819D01*
X76738095Y-35954819D02*
X76642857Y-35907200D01*
X76642857Y-35907200D02*
X76547619Y-35811961D01*
X76547619Y-35811961D02*
X76500000Y-35621485D01*
X76500000Y-35621485D02*
X76500000Y-35288152D01*
X76500000Y-35288152D02*
X76547619Y-35097676D01*
X76547619Y-35097676D02*
X76642857Y-35002438D01*
X76642857Y-35002438D02*
X76738095Y-34954819D01*
X78071428Y-35954819D02*
X77595238Y-35954819D01*
X77595238Y-35954819D02*
X77595238Y-34954819D01*
X78261905Y-34954819D02*
X78833333Y-34954819D01*
X78547619Y-35954819D02*
X78547619Y-34954819D01*
X79928572Y-35954819D02*
X79928572Y-34954819D01*
X79928572Y-34954819D02*
X80309524Y-34954819D01*
X80309524Y-34954819D02*
X80404762Y-35002438D01*
X80404762Y-35002438D02*
X80452381Y-35050057D01*
X80452381Y-35050057D02*
X80500000Y-35145295D01*
X80500000Y-35145295D02*
X80500000Y-35288152D01*
X80500000Y-35288152D02*
X80452381Y-35383390D01*
X80452381Y-35383390D02*
X80404762Y-35431009D01*
X80404762Y-35431009D02*
X80309524Y-35478628D01*
X80309524Y-35478628D02*
X79928572Y-35478628D01*
X80928572Y-35954819D02*
X80928572Y-34954819D01*
X80928572Y-35431009D02*
X81500000Y-35431009D01*
X81500000Y-35954819D02*
X81500000Y-34954819D01*
X81928572Y-35669104D02*
X82404762Y-35669104D01*
X81833334Y-35954819D02*
X82166667Y-34954819D01*
X82166667Y-34954819D02*
X82500000Y-35954819D01*
X82833334Y-35954819D02*
X82833334Y-34954819D01*
X82833334Y-34954819D02*
X83404762Y-35954819D01*
X83404762Y-35954819D02*
X83404762Y-34954819D01*
X83738096Y-34954819D02*
X84309524Y-34954819D01*
X84023810Y-35954819D02*
X84023810Y-34954819D01*
X84833334Y-34954819D02*
X85023810Y-34954819D01*
X85023810Y-34954819D02*
X85119048Y-35002438D01*
X85119048Y-35002438D02*
X85214286Y-35097676D01*
X85214286Y-35097676D02*
X85261905Y-35288152D01*
X85261905Y-35288152D02*
X85261905Y-35621485D01*
X85261905Y-35621485D02*
X85214286Y-35811961D01*
X85214286Y-35811961D02*
X85119048Y-35907200D01*
X85119048Y-35907200D02*
X85023810Y-35954819D01*
X85023810Y-35954819D02*
X84833334Y-35954819D01*
X84833334Y-35954819D02*
X84738096Y-35907200D01*
X84738096Y-35907200D02*
X84642858Y-35811961D01*
X84642858Y-35811961D02*
X84595239Y-35621485D01*
X84595239Y-35621485D02*
X84595239Y-35288152D01*
X84595239Y-35288152D02*
X84642858Y-35097676D01*
X84642858Y-35097676D02*
X84738096Y-35002438D01*
X84738096Y-35002438D02*
X84833334Y-34954819D01*
X85690477Y-35954819D02*
X85690477Y-34954819D01*
X85690477Y-34954819D02*
X86023810Y-35669104D01*
X86023810Y-35669104D02*
X86357143Y-34954819D01*
X86357143Y-34954819D02*
X86357143Y-35954819D01*
X87595239Y-35954819D02*
X87595239Y-34954819D01*
X87595239Y-34954819D02*
X87976191Y-34954819D01*
X87976191Y-34954819D02*
X88071429Y-35002438D01*
X88071429Y-35002438D02*
X88119048Y-35050057D01*
X88119048Y-35050057D02*
X88166667Y-35145295D01*
X88166667Y-35145295D02*
X88166667Y-35288152D01*
X88166667Y-35288152D02*
X88119048Y-35383390D01*
X88119048Y-35383390D02*
X88071429Y-35431009D01*
X88071429Y-35431009D02*
X87976191Y-35478628D01*
X87976191Y-35478628D02*
X87595239Y-35478628D01*
X88785715Y-34954819D02*
X88976191Y-34954819D01*
X88976191Y-34954819D02*
X89071429Y-35002438D01*
X89071429Y-35002438D02*
X89166667Y-35097676D01*
X89166667Y-35097676D02*
X89214286Y-35288152D01*
X89214286Y-35288152D02*
X89214286Y-35621485D01*
X89214286Y-35621485D02*
X89166667Y-35811961D01*
X89166667Y-35811961D02*
X89071429Y-35907200D01*
X89071429Y-35907200D02*
X88976191Y-35954819D01*
X88976191Y-35954819D02*
X88785715Y-35954819D01*
X88785715Y-35954819D02*
X88690477Y-35907200D01*
X88690477Y-35907200D02*
X88595239Y-35811961D01*
X88595239Y-35811961D02*
X88547620Y-35621485D01*
X88547620Y-35621485D02*
X88547620Y-35288152D01*
X88547620Y-35288152D02*
X88595239Y-35097676D01*
X88595239Y-35097676D02*
X88690477Y-35002438D01*
X88690477Y-35002438D02*
X88785715Y-34954819D01*
X89547620Y-34954819D02*
X89785715Y-35954819D01*
X89785715Y-35954819D02*
X89976191Y-35240533D01*
X89976191Y-35240533D02*
X90166667Y-35954819D01*
X90166667Y-35954819D02*
X90404763Y-34954819D01*
X90785715Y-35431009D02*
X91119048Y-35431009D01*
X91261905Y-35954819D02*
X90785715Y-35954819D01*
X90785715Y-35954819D02*
X90785715Y-34954819D01*
X90785715Y-34954819D02*
X91261905Y-34954819D01*
X92261905Y-35954819D02*
X91928572Y-35478628D01*
X91690477Y-35954819D02*
X91690477Y-34954819D01*
X91690477Y-34954819D02*
X92071429Y-34954819D01*
X92071429Y-34954819D02*
X92166667Y-35002438D01*
X92166667Y-35002438D02*
X92214286Y-35050057D01*
X92214286Y-35050057D02*
X92261905Y-35145295D01*
X92261905Y-35145295D02*
X92261905Y-35288152D01*
X92261905Y-35288152D02*
X92214286Y-35383390D01*
X92214286Y-35383390D02*
X92166667Y-35431009D01*
X92166667Y-35431009D02*
X92071429Y-35478628D01*
X92071429Y-35478628D02*
X91690477Y-35478628D01*
X49619048Y-36788152D02*
X49619048Y-37788152D01*
X49619048Y-36835771D02*
X49714286Y-36788152D01*
X49714286Y-36788152D02*
X49904762Y-36788152D01*
X49904762Y-36788152D02*
X50000000Y-36835771D01*
X50000000Y-36835771D02*
X50047619Y-36883390D01*
X50047619Y-36883390D02*
X50095238Y-36978628D01*
X50095238Y-36978628D02*
X50095238Y-37264342D01*
X50095238Y-37264342D02*
X50047619Y-37359580D01*
X50047619Y-37359580D02*
X50000000Y-37407200D01*
X50000000Y-37407200D02*
X49904762Y-37454819D01*
X49904762Y-37454819D02*
X49714286Y-37454819D01*
X49714286Y-37454819D02*
X49619048Y-37407200D01*
X50523810Y-37454819D02*
X50523810Y-36788152D01*
X50523810Y-36454819D02*
X50476191Y-36502438D01*
X50476191Y-36502438D02*
X50523810Y-36550057D01*
X50523810Y-36550057D02*
X50571429Y-36502438D01*
X50571429Y-36502438D02*
X50523810Y-36454819D01*
X50523810Y-36454819D02*
X50523810Y-36550057D01*
X51000000Y-36788152D02*
X51000000Y-37454819D01*
X51000000Y-36883390D02*
X51047619Y-36835771D01*
X51047619Y-36835771D02*
X51142857Y-36788152D01*
X51142857Y-36788152D02*
X51285714Y-36788152D01*
X51285714Y-36788152D02*
X51380952Y-36835771D01*
X51380952Y-36835771D02*
X51428571Y-36931009D01*
X51428571Y-36931009D02*
X51428571Y-37454819D01*
X51809524Y-36454819D02*
X52428571Y-36454819D01*
X52428571Y-36454819D02*
X52095238Y-36835771D01*
X52095238Y-36835771D02*
X52238095Y-36835771D01*
X52238095Y-36835771D02*
X52333333Y-36883390D01*
X52333333Y-36883390D02*
X52380952Y-36931009D01*
X52380952Y-36931009D02*
X52428571Y-37026247D01*
X52428571Y-37026247D02*
X52428571Y-37264342D01*
X52428571Y-37264342D02*
X52380952Y-37359580D01*
X52380952Y-37359580D02*
X52333333Y-37407200D01*
X52333333Y-37407200D02*
X52238095Y-37454819D01*
X52238095Y-37454819D02*
X51952381Y-37454819D01*
X51952381Y-37454819D02*
X51857143Y-37407200D01*
X51857143Y-37407200D02*
X51809524Y-37359580D01*
X54619048Y-36788152D02*
X54619048Y-37788152D01*
X54619048Y-36835771D02*
X54714286Y-36788152D01*
X54714286Y-36788152D02*
X54904762Y-36788152D01*
X54904762Y-36788152D02*
X55000000Y-36835771D01*
X55000000Y-36835771D02*
X55047619Y-36883390D01*
X55047619Y-36883390D02*
X55095238Y-36978628D01*
X55095238Y-36978628D02*
X55095238Y-37264342D01*
X55095238Y-37264342D02*
X55047619Y-37359580D01*
X55047619Y-37359580D02*
X55000000Y-37407200D01*
X55000000Y-37407200D02*
X54904762Y-37454819D01*
X54904762Y-37454819D02*
X54714286Y-37454819D01*
X54714286Y-37454819D02*
X54619048Y-37407200D01*
X55523810Y-37454819D02*
X55523810Y-36788152D01*
X55523810Y-36454819D02*
X55476191Y-36502438D01*
X55476191Y-36502438D02*
X55523810Y-36550057D01*
X55523810Y-36550057D02*
X55571429Y-36502438D01*
X55571429Y-36502438D02*
X55523810Y-36454819D01*
X55523810Y-36454819D02*
X55523810Y-36550057D01*
X56000000Y-36788152D02*
X56000000Y-37454819D01*
X56000000Y-36883390D02*
X56047619Y-36835771D01*
X56047619Y-36835771D02*
X56142857Y-36788152D01*
X56142857Y-36788152D02*
X56285714Y-36788152D01*
X56285714Y-36788152D02*
X56380952Y-36835771D01*
X56380952Y-36835771D02*
X56428571Y-36931009D01*
X56428571Y-36931009D02*
X56428571Y-37454819D01*
X56857143Y-36550057D02*
X56904762Y-36502438D01*
X56904762Y-36502438D02*
X57000000Y-36454819D01*
X57000000Y-36454819D02*
X57238095Y-36454819D01*
X57238095Y-36454819D02*
X57333333Y-36502438D01*
X57333333Y-36502438D02*
X57380952Y-36550057D01*
X57380952Y-36550057D02*
X57428571Y-36645295D01*
X57428571Y-36645295D02*
X57428571Y-36740533D01*
X57428571Y-36740533D02*
X57380952Y-36883390D01*
X57380952Y-36883390D02*
X56809524Y-37454819D01*
X56809524Y-37454819D02*
X57428571Y-37454819D01*
X55027255Y-33369819D02*
X55217731Y-33369819D01*
X55217731Y-33369819D02*
X55312969Y-33417438D01*
X55312969Y-33417438D02*
X55408207Y-33512676D01*
X55408207Y-33512676D02*
X55455826Y-33703152D01*
X55455826Y-33703152D02*
X55455826Y-34036485D01*
X55455826Y-34036485D02*
X55408207Y-34226961D01*
X55408207Y-34226961D02*
X55312969Y-34322200D01*
X55312969Y-34322200D02*
X55217731Y-34369819D01*
X55217731Y-34369819D02*
X55027255Y-34369819D01*
X55027255Y-34369819D02*
X54932017Y-34322200D01*
X54932017Y-34322200D02*
X54836779Y-34226961D01*
X54836779Y-34226961D02*
X54789160Y-34036485D01*
X54789160Y-34036485D02*
X54789160Y-33703152D01*
X54789160Y-33703152D02*
X54836779Y-33512676D01*
X54836779Y-33512676D02*
X54932017Y-33417438D01*
X54932017Y-33417438D02*
X55027255Y-33369819D01*
X55884398Y-33369819D02*
X55884398Y-34179342D01*
X55884398Y-34179342D02*
X55932017Y-34274580D01*
X55932017Y-34274580D02*
X55979636Y-34322200D01*
X55979636Y-34322200D02*
X56074874Y-34369819D01*
X56074874Y-34369819D02*
X56265350Y-34369819D01*
X56265350Y-34369819D02*
X56360588Y-34322200D01*
X56360588Y-34322200D02*
X56408207Y-34274580D01*
X56408207Y-34274580D02*
X56455826Y-34179342D01*
X56455826Y-34179342D02*
X56455826Y-33369819D01*
X56789160Y-33369819D02*
X57360588Y-33369819D01*
X57074874Y-34369819D02*
X57074874Y-33369819D01*
X58408208Y-34084104D02*
X58884398Y-34084104D01*
X58312970Y-34369819D02*
X58646303Y-33369819D01*
X58646303Y-33369819D02*
X58979636Y-34369819D01*
D11*
X40178328Y-109142859D02*
X38678328Y-109142859D01*
X40178328Y-108500002D02*
X39392614Y-108500002D01*
X39392614Y-108500002D02*
X39249757Y-108571430D01*
X39249757Y-108571430D02*
X39178328Y-108714287D01*
X39178328Y-108714287D02*
X39178328Y-108928573D01*
X39178328Y-108928573D02*
X39249757Y-109071430D01*
X39249757Y-109071430D02*
X39321185Y-109142859D01*
X39178328Y-108000001D02*
X39178328Y-107428573D01*
X38678328Y-107785716D02*
X39964042Y-107785716D01*
X39964042Y-107785716D02*
X40106900Y-107714287D01*
X40106900Y-107714287D02*
X40178328Y-107571430D01*
X40178328Y-107571430D02*
X40178328Y-107428573D01*
X39178328Y-107142858D02*
X39178328Y-106571430D01*
X38678328Y-106928573D02*
X39964042Y-106928573D01*
X39964042Y-106928573D02*
X40106900Y-106857144D01*
X40106900Y-106857144D02*
X40178328Y-106714287D01*
X40178328Y-106714287D02*
X40178328Y-106571430D01*
X39178328Y-106071430D02*
X40678328Y-106071430D01*
X39249757Y-106071430D02*
X39178328Y-105928573D01*
X39178328Y-105928573D02*
X39178328Y-105642858D01*
X39178328Y-105642858D02*
X39249757Y-105500001D01*
X39249757Y-105500001D02*
X39321185Y-105428573D01*
X39321185Y-105428573D02*
X39464042Y-105357144D01*
X39464042Y-105357144D02*
X39892614Y-105357144D01*
X39892614Y-105357144D02*
X40035471Y-105428573D01*
X40035471Y-105428573D02*
X40106900Y-105500001D01*
X40106900Y-105500001D02*
X40178328Y-105642858D01*
X40178328Y-105642858D02*
X40178328Y-105928573D01*
X40178328Y-105928573D02*
X40106900Y-106071430D01*
X40106900Y-104785715D02*
X40178328Y-104642858D01*
X40178328Y-104642858D02*
X40178328Y-104357144D01*
X40178328Y-104357144D02*
X40106900Y-104214287D01*
X40106900Y-104214287D02*
X39964042Y-104142858D01*
X39964042Y-104142858D02*
X39892614Y-104142858D01*
X39892614Y-104142858D02*
X39749757Y-104214287D01*
X39749757Y-104214287D02*
X39678328Y-104357144D01*
X39678328Y-104357144D02*
X39678328Y-104571430D01*
X39678328Y-104571430D02*
X39606900Y-104714287D01*
X39606900Y-104714287D02*
X39464042Y-104785715D01*
X39464042Y-104785715D02*
X39392614Y-104785715D01*
X39392614Y-104785715D02*
X39249757Y-104714287D01*
X39249757Y-104714287D02*
X39178328Y-104571430D01*
X39178328Y-104571430D02*
X39178328Y-104357144D01*
X39178328Y-104357144D02*
X39249757Y-104214287D01*
X40035471Y-103500001D02*
X40106900Y-103428572D01*
X40106900Y-103428572D02*
X40178328Y-103500001D01*
X40178328Y-103500001D02*
X40106900Y-103571429D01*
X40106900Y-103571429D02*
X40035471Y-103500001D01*
X40035471Y-103500001D02*
X40178328Y-103500001D01*
X39249757Y-103500001D02*
X39321185Y-103428572D01*
X39321185Y-103428572D02*
X39392614Y-103500001D01*
X39392614Y-103500001D02*
X39321185Y-103571429D01*
X39321185Y-103571429D02*
X39249757Y-103500001D01*
X39249757Y-103500001D02*
X39392614Y-103500001D01*
X38606900Y-101714286D02*
X40535471Y-103000000D01*
X38606900Y-100142857D02*
X40535471Y-101428571D01*
X39178328Y-99000000D02*
X40392614Y-99000000D01*
X40392614Y-99000000D02*
X40535471Y-99071428D01*
X40535471Y-99071428D02*
X40606900Y-99142857D01*
X40606900Y-99142857D02*
X40678328Y-99285714D01*
X40678328Y-99285714D02*
X40678328Y-99500000D01*
X40678328Y-99500000D02*
X40606900Y-99642857D01*
X40106900Y-99000000D02*
X40178328Y-99142857D01*
X40178328Y-99142857D02*
X40178328Y-99428571D01*
X40178328Y-99428571D02*
X40106900Y-99571428D01*
X40106900Y-99571428D02*
X40035471Y-99642857D01*
X40035471Y-99642857D02*
X39892614Y-99714285D01*
X39892614Y-99714285D02*
X39464042Y-99714285D01*
X39464042Y-99714285D02*
X39321185Y-99642857D01*
X39321185Y-99642857D02*
X39249757Y-99571428D01*
X39249757Y-99571428D02*
X39178328Y-99428571D01*
X39178328Y-99428571D02*
X39178328Y-99142857D01*
X39178328Y-99142857D02*
X39249757Y-99000000D01*
X40178328Y-98285714D02*
X39178328Y-98285714D01*
X38678328Y-98285714D02*
X38749757Y-98357142D01*
X38749757Y-98357142D02*
X38821185Y-98285714D01*
X38821185Y-98285714D02*
X38749757Y-98214285D01*
X38749757Y-98214285D02*
X38678328Y-98285714D01*
X38678328Y-98285714D02*
X38821185Y-98285714D01*
X39178328Y-97785713D02*
X39178328Y-97214285D01*
X38678328Y-97571428D02*
X39964042Y-97571428D01*
X39964042Y-97571428D02*
X40106900Y-97499999D01*
X40106900Y-97499999D02*
X40178328Y-97357142D01*
X40178328Y-97357142D02*
X40178328Y-97214285D01*
X40178328Y-96714285D02*
X38678328Y-96714285D01*
X40178328Y-96071428D02*
X39392614Y-96071428D01*
X39392614Y-96071428D02*
X39249757Y-96142856D01*
X39249757Y-96142856D02*
X39178328Y-96285713D01*
X39178328Y-96285713D02*
X39178328Y-96499999D01*
X39178328Y-96499999D02*
X39249757Y-96642856D01*
X39249757Y-96642856D02*
X39321185Y-96714285D01*
X39178328Y-94714285D02*
X40178328Y-94714285D01*
X39178328Y-95357142D02*
X39964042Y-95357142D01*
X39964042Y-95357142D02*
X40106900Y-95285713D01*
X40106900Y-95285713D02*
X40178328Y-95142856D01*
X40178328Y-95142856D02*
X40178328Y-94928570D01*
X40178328Y-94928570D02*
X40106900Y-94785713D01*
X40106900Y-94785713D02*
X40035471Y-94714285D01*
X40178328Y-93999999D02*
X38678328Y-93999999D01*
X39249757Y-93999999D02*
X39178328Y-93857142D01*
X39178328Y-93857142D02*
X39178328Y-93571427D01*
X39178328Y-93571427D02*
X39249757Y-93428570D01*
X39249757Y-93428570D02*
X39321185Y-93357142D01*
X39321185Y-93357142D02*
X39464042Y-93285713D01*
X39464042Y-93285713D02*
X39892614Y-93285713D01*
X39892614Y-93285713D02*
X40035471Y-93357142D01*
X40035471Y-93357142D02*
X40106900Y-93428570D01*
X40106900Y-93428570D02*
X40178328Y-93571427D01*
X40178328Y-93571427D02*
X40178328Y-93857142D01*
X40178328Y-93857142D02*
X40106900Y-93999999D01*
X40035471Y-92642856D02*
X40106900Y-92571427D01*
X40106900Y-92571427D02*
X40178328Y-92642856D01*
X40178328Y-92642856D02*
X40106900Y-92714284D01*
X40106900Y-92714284D02*
X40035471Y-92642856D01*
X40035471Y-92642856D02*
X40178328Y-92642856D01*
X40106900Y-91285713D02*
X40178328Y-91428570D01*
X40178328Y-91428570D02*
X40178328Y-91714284D01*
X40178328Y-91714284D02*
X40106900Y-91857141D01*
X40106900Y-91857141D02*
X40035471Y-91928570D01*
X40035471Y-91928570D02*
X39892614Y-91999998D01*
X39892614Y-91999998D02*
X39464042Y-91999998D01*
X39464042Y-91999998D02*
X39321185Y-91928570D01*
X39321185Y-91928570D02*
X39249757Y-91857141D01*
X39249757Y-91857141D02*
X39178328Y-91714284D01*
X39178328Y-91714284D02*
X39178328Y-91428570D01*
X39178328Y-91428570D02*
X39249757Y-91285713D01*
X40178328Y-90428570D02*
X40106900Y-90571427D01*
X40106900Y-90571427D02*
X40035471Y-90642856D01*
X40035471Y-90642856D02*
X39892614Y-90714284D01*
X39892614Y-90714284D02*
X39464042Y-90714284D01*
X39464042Y-90714284D02*
X39321185Y-90642856D01*
X39321185Y-90642856D02*
X39249757Y-90571427D01*
X39249757Y-90571427D02*
X39178328Y-90428570D01*
X39178328Y-90428570D02*
X39178328Y-90214284D01*
X39178328Y-90214284D02*
X39249757Y-90071427D01*
X39249757Y-90071427D02*
X39321185Y-89999999D01*
X39321185Y-89999999D02*
X39464042Y-89928570D01*
X39464042Y-89928570D02*
X39892614Y-89928570D01*
X39892614Y-89928570D02*
X40035471Y-89999999D01*
X40035471Y-89999999D02*
X40106900Y-90071427D01*
X40106900Y-90071427D02*
X40178328Y-90214284D01*
X40178328Y-90214284D02*
X40178328Y-90428570D01*
X40178328Y-89285713D02*
X39178328Y-89285713D01*
X39321185Y-89285713D02*
X39249757Y-89214284D01*
X39249757Y-89214284D02*
X39178328Y-89071427D01*
X39178328Y-89071427D02*
X39178328Y-88857141D01*
X39178328Y-88857141D02*
X39249757Y-88714284D01*
X39249757Y-88714284D02*
X39392614Y-88642856D01*
X39392614Y-88642856D02*
X40178328Y-88642856D01*
X39392614Y-88642856D02*
X39249757Y-88571427D01*
X39249757Y-88571427D02*
X39178328Y-88428570D01*
X39178328Y-88428570D02*
X39178328Y-88214284D01*
X39178328Y-88214284D02*
X39249757Y-88071427D01*
X39249757Y-88071427D02*
X39392614Y-87999998D01*
X39392614Y-87999998D02*
X40178328Y-87999998D01*
X38606900Y-86214284D02*
X40535471Y-87499998D01*
X40106900Y-85785712D02*
X40178328Y-85571427D01*
X40178328Y-85571427D02*
X40178328Y-85214284D01*
X40178328Y-85214284D02*
X40106900Y-85071427D01*
X40106900Y-85071427D02*
X40035471Y-84999998D01*
X40035471Y-84999998D02*
X39892614Y-84928569D01*
X39892614Y-84928569D02*
X39749757Y-84928569D01*
X39749757Y-84928569D02*
X39606900Y-84999998D01*
X39606900Y-84999998D02*
X39535471Y-85071427D01*
X39535471Y-85071427D02*
X39464042Y-85214284D01*
X39464042Y-85214284D02*
X39392614Y-85499998D01*
X39392614Y-85499998D02*
X39321185Y-85642855D01*
X39321185Y-85642855D02*
X39249757Y-85714284D01*
X39249757Y-85714284D02*
X39106900Y-85785712D01*
X39106900Y-85785712D02*
X38964042Y-85785712D01*
X38964042Y-85785712D02*
X38821185Y-85714284D01*
X38821185Y-85714284D02*
X38749757Y-85642855D01*
X38749757Y-85642855D02*
X38678328Y-85499998D01*
X38678328Y-85499998D02*
X38678328Y-85142855D01*
X38678328Y-85142855D02*
X38749757Y-84928569D01*
X39178328Y-83642856D02*
X40178328Y-83642856D01*
X39178328Y-84285713D02*
X39964042Y-84285713D01*
X39964042Y-84285713D02*
X40106900Y-84214284D01*
X40106900Y-84214284D02*
X40178328Y-84071427D01*
X40178328Y-84071427D02*
X40178328Y-83857141D01*
X40178328Y-83857141D02*
X40106900Y-83714284D01*
X40106900Y-83714284D02*
X40035471Y-83642856D01*
X39178328Y-82928570D02*
X40678328Y-82928570D01*
X39249757Y-82928570D02*
X39178328Y-82785713D01*
X39178328Y-82785713D02*
X39178328Y-82499998D01*
X39178328Y-82499998D02*
X39249757Y-82357141D01*
X39249757Y-82357141D02*
X39321185Y-82285713D01*
X39321185Y-82285713D02*
X39464042Y-82214284D01*
X39464042Y-82214284D02*
X39892614Y-82214284D01*
X39892614Y-82214284D02*
X40035471Y-82285713D01*
X40035471Y-82285713D02*
X40106900Y-82357141D01*
X40106900Y-82357141D02*
X40178328Y-82499998D01*
X40178328Y-82499998D02*
X40178328Y-82785713D01*
X40178328Y-82785713D02*
X40106900Y-82928570D01*
X40106900Y-80999998D02*
X40178328Y-81142855D01*
X40178328Y-81142855D02*
X40178328Y-81428570D01*
X40178328Y-81428570D02*
X40106900Y-81571427D01*
X40106900Y-81571427D02*
X39964042Y-81642855D01*
X39964042Y-81642855D02*
X39392614Y-81642855D01*
X39392614Y-81642855D02*
X39249757Y-81571427D01*
X39249757Y-81571427D02*
X39178328Y-81428570D01*
X39178328Y-81428570D02*
X39178328Y-81142855D01*
X39178328Y-81142855D02*
X39249757Y-80999998D01*
X39249757Y-80999998D02*
X39392614Y-80928570D01*
X39392614Y-80928570D02*
X39535471Y-80928570D01*
X39535471Y-80928570D02*
X39678328Y-81642855D01*
X40178328Y-80285713D02*
X39178328Y-80285713D01*
X39464042Y-80285713D02*
X39321185Y-80214284D01*
X39321185Y-80214284D02*
X39249757Y-80142856D01*
X39249757Y-80142856D02*
X39178328Y-79999998D01*
X39178328Y-79999998D02*
X39178328Y-79857141D01*
X40178328Y-79357142D02*
X39178328Y-79357142D01*
X39321185Y-79357142D02*
X39249757Y-79285713D01*
X39249757Y-79285713D02*
X39178328Y-79142856D01*
X39178328Y-79142856D02*
X39178328Y-78928570D01*
X39178328Y-78928570D02*
X39249757Y-78785713D01*
X39249757Y-78785713D02*
X39392614Y-78714285D01*
X39392614Y-78714285D02*
X40178328Y-78714285D01*
X39392614Y-78714285D02*
X39249757Y-78642856D01*
X39249757Y-78642856D02*
X39178328Y-78499999D01*
X39178328Y-78499999D02*
X39178328Y-78285713D01*
X39178328Y-78285713D02*
X39249757Y-78142856D01*
X39249757Y-78142856D02*
X39392614Y-78071427D01*
X39392614Y-78071427D02*
X40178328Y-78071427D01*
X40178328Y-76714285D02*
X39392614Y-76714285D01*
X39392614Y-76714285D02*
X39249757Y-76785713D01*
X39249757Y-76785713D02*
X39178328Y-76928570D01*
X39178328Y-76928570D02*
X39178328Y-77214285D01*
X39178328Y-77214285D02*
X39249757Y-77357142D01*
X40106900Y-76714285D02*
X40178328Y-76857142D01*
X40178328Y-76857142D02*
X40178328Y-77214285D01*
X40178328Y-77214285D02*
X40106900Y-77357142D01*
X40106900Y-77357142D02*
X39964042Y-77428570D01*
X39964042Y-77428570D02*
X39821185Y-77428570D01*
X39821185Y-77428570D02*
X39678328Y-77357142D01*
X39678328Y-77357142D02*
X39606900Y-77214285D01*
X39606900Y-77214285D02*
X39606900Y-76857142D01*
X39606900Y-76857142D02*
X39535471Y-76714285D01*
X39178328Y-75357142D02*
X40392614Y-75357142D01*
X40392614Y-75357142D02*
X40535471Y-75428570D01*
X40535471Y-75428570D02*
X40606900Y-75499999D01*
X40606900Y-75499999D02*
X40678328Y-75642856D01*
X40678328Y-75642856D02*
X40678328Y-75857142D01*
X40678328Y-75857142D02*
X40606900Y-75999999D01*
X40106900Y-75357142D02*
X40178328Y-75499999D01*
X40178328Y-75499999D02*
X40178328Y-75785713D01*
X40178328Y-75785713D02*
X40106900Y-75928570D01*
X40106900Y-75928570D02*
X40035471Y-75999999D01*
X40035471Y-75999999D02*
X39892614Y-76071427D01*
X39892614Y-76071427D02*
X39464042Y-76071427D01*
X39464042Y-76071427D02*
X39321185Y-75999999D01*
X39321185Y-75999999D02*
X39249757Y-75928570D01*
X39249757Y-75928570D02*
X39178328Y-75785713D01*
X39178328Y-75785713D02*
X39178328Y-75499999D01*
X39178328Y-75499999D02*
X39249757Y-75357142D01*
X39178328Y-74642856D02*
X40178328Y-74642856D01*
X39321185Y-74642856D02*
X39249757Y-74571427D01*
X39249757Y-74571427D02*
X39178328Y-74428570D01*
X39178328Y-74428570D02*
X39178328Y-74214284D01*
X39178328Y-74214284D02*
X39249757Y-74071427D01*
X39249757Y-74071427D02*
X39392614Y-73999999D01*
X39392614Y-73999999D02*
X40178328Y-73999999D01*
X39178328Y-72642856D02*
X40178328Y-72642856D01*
X39178328Y-73285713D02*
X39964042Y-73285713D01*
X39964042Y-73285713D02*
X40106900Y-73214284D01*
X40106900Y-73214284D02*
X40178328Y-73071427D01*
X40178328Y-73071427D02*
X40178328Y-72857141D01*
X40178328Y-72857141D02*
X40106900Y-72714284D01*
X40106900Y-72714284D02*
X40035471Y-72642856D01*
X40178328Y-71928570D02*
X39178328Y-71928570D01*
X39321185Y-71928570D02*
X39249757Y-71857141D01*
X39249757Y-71857141D02*
X39178328Y-71714284D01*
X39178328Y-71714284D02*
X39178328Y-71499998D01*
X39178328Y-71499998D02*
X39249757Y-71357141D01*
X39249757Y-71357141D02*
X39392614Y-71285713D01*
X39392614Y-71285713D02*
X40178328Y-71285713D01*
X39392614Y-71285713D02*
X39249757Y-71214284D01*
X39249757Y-71214284D02*
X39178328Y-71071427D01*
X39178328Y-71071427D02*
X39178328Y-70857141D01*
X39178328Y-70857141D02*
X39249757Y-70714284D01*
X39249757Y-70714284D02*
X39392614Y-70642855D01*
X39392614Y-70642855D02*
X40178328Y-70642855D01*
X38606900Y-68857141D02*
X40535471Y-70142855D01*
X40178328Y-68357141D02*
X38678328Y-68357141D01*
X39392614Y-68357141D02*
X39392614Y-67499998D01*
X40178328Y-67499998D02*
X38678328Y-67499998D01*
X40178328Y-66785712D02*
X39178328Y-66785712D01*
X38678328Y-66785712D02*
X38749757Y-66857140D01*
X38749757Y-66857140D02*
X38821185Y-66785712D01*
X38821185Y-66785712D02*
X38749757Y-66714283D01*
X38749757Y-66714283D02*
X38678328Y-66785712D01*
X38678328Y-66785712D02*
X38821185Y-66785712D01*
X39178328Y-65428569D02*
X40392614Y-65428569D01*
X40392614Y-65428569D02*
X40535471Y-65499997D01*
X40535471Y-65499997D02*
X40606900Y-65571426D01*
X40606900Y-65571426D02*
X40678328Y-65714283D01*
X40678328Y-65714283D02*
X40678328Y-65928569D01*
X40678328Y-65928569D02*
X40606900Y-66071426D01*
X40106900Y-65428569D02*
X40178328Y-65571426D01*
X40178328Y-65571426D02*
X40178328Y-65857140D01*
X40178328Y-65857140D02*
X40106900Y-65999997D01*
X40106900Y-65999997D02*
X40035471Y-66071426D01*
X40035471Y-66071426D02*
X39892614Y-66142854D01*
X39892614Y-66142854D02*
X39464042Y-66142854D01*
X39464042Y-66142854D02*
X39321185Y-66071426D01*
X39321185Y-66071426D02*
X39249757Y-65999997D01*
X39249757Y-65999997D02*
X39178328Y-65857140D01*
X39178328Y-65857140D02*
X39178328Y-65571426D01*
X39178328Y-65571426D02*
X39249757Y-65428569D01*
X40178328Y-64714283D02*
X38678328Y-64714283D01*
X40178328Y-64071426D02*
X39392614Y-64071426D01*
X39392614Y-64071426D02*
X39249757Y-64142854D01*
X39249757Y-64142854D02*
X39178328Y-64285711D01*
X39178328Y-64285711D02*
X39178328Y-64499997D01*
X39178328Y-64499997D02*
X39249757Y-64642854D01*
X39249757Y-64642854D02*
X39321185Y-64714283D01*
X38678328Y-63499997D02*
X38678328Y-62499997D01*
X38678328Y-62499997D02*
X40178328Y-63499997D01*
X40178328Y-63499997D02*
X40178328Y-62499997D01*
X39606900Y-61928569D02*
X39606900Y-60785712D01*
X40106900Y-60142854D02*
X40178328Y-59999997D01*
X40178328Y-59999997D02*
X40178328Y-59714283D01*
X40178328Y-59714283D02*
X40106900Y-59571426D01*
X40106900Y-59571426D02*
X39964042Y-59499997D01*
X39964042Y-59499997D02*
X39892614Y-59499997D01*
X39892614Y-59499997D02*
X39749757Y-59571426D01*
X39749757Y-59571426D02*
X39678328Y-59714283D01*
X39678328Y-59714283D02*
X39678328Y-59928569D01*
X39678328Y-59928569D02*
X39606900Y-60071426D01*
X39606900Y-60071426D02*
X39464042Y-60142854D01*
X39464042Y-60142854D02*
X39392614Y-60142854D01*
X39392614Y-60142854D02*
X39249757Y-60071426D01*
X39249757Y-60071426D02*
X39178328Y-59928569D01*
X39178328Y-59928569D02*
X39178328Y-59714283D01*
X39178328Y-59714283D02*
X39249757Y-59571426D01*
X39178328Y-59071425D02*
X39178328Y-58499997D01*
X38678328Y-58857140D02*
X39964042Y-58857140D01*
X39964042Y-58857140D02*
X40106900Y-58785711D01*
X40106900Y-58785711D02*
X40178328Y-58642854D01*
X40178328Y-58642854D02*
X40178328Y-58499997D01*
X40106900Y-57428568D02*
X40178328Y-57571425D01*
X40178328Y-57571425D02*
X40178328Y-57857140D01*
X40178328Y-57857140D02*
X40106900Y-57999997D01*
X40106900Y-57999997D02*
X39964042Y-58071425D01*
X39964042Y-58071425D02*
X39392614Y-58071425D01*
X39392614Y-58071425D02*
X39249757Y-57999997D01*
X39249757Y-57999997D02*
X39178328Y-57857140D01*
X39178328Y-57857140D02*
X39178328Y-57571425D01*
X39178328Y-57571425D02*
X39249757Y-57428568D01*
X39249757Y-57428568D02*
X39392614Y-57357140D01*
X39392614Y-57357140D02*
X39535471Y-57357140D01*
X39535471Y-57357140D02*
X39678328Y-58071425D01*
X40178328Y-56714283D02*
X39178328Y-56714283D01*
X39464042Y-56714283D02*
X39321185Y-56642854D01*
X39321185Y-56642854D02*
X39249757Y-56571426D01*
X39249757Y-56571426D02*
X39178328Y-56428568D01*
X39178328Y-56428568D02*
X39178328Y-56285711D01*
X40106900Y-55214283D02*
X40178328Y-55357140D01*
X40178328Y-55357140D02*
X40178328Y-55642855D01*
X40178328Y-55642855D02*
X40106900Y-55785712D01*
X40106900Y-55785712D02*
X39964042Y-55857140D01*
X39964042Y-55857140D02*
X39392614Y-55857140D01*
X39392614Y-55857140D02*
X39249757Y-55785712D01*
X39249757Y-55785712D02*
X39178328Y-55642855D01*
X39178328Y-55642855D02*
X39178328Y-55357140D01*
X39178328Y-55357140D02*
X39249757Y-55214283D01*
X39249757Y-55214283D02*
X39392614Y-55142855D01*
X39392614Y-55142855D02*
X39535471Y-55142855D01*
X39535471Y-55142855D02*
X39678328Y-55857140D01*
X40178328Y-54285712D02*
X40106900Y-54428569D01*
X40106900Y-54428569D02*
X40035471Y-54499998D01*
X40035471Y-54499998D02*
X39892614Y-54571426D01*
X39892614Y-54571426D02*
X39464042Y-54571426D01*
X39464042Y-54571426D02*
X39321185Y-54499998D01*
X39321185Y-54499998D02*
X39249757Y-54428569D01*
X39249757Y-54428569D02*
X39178328Y-54285712D01*
X39178328Y-54285712D02*
X39178328Y-54071426D01*
X39178328Y-54071426D02*
X39249757Y-53928569D01*
X39249757Y-53928569D02*
X39321185Y-53857141D01*
X39321185Y-53857141D02*
X39464042Y-53785712D01*
X39464042Y-53785712D02*
X39892614Y-53785712D01*
X39892614Y-53785712D02*
X40035471Y-53857141D01*
X40035471Y-53857141D02*
X40106900Y-53928569D01*
X40106900Y-53928569D02*
X40178328Y-54071426D01*
X40178328Y-54071426D02*
X40178328Y-54285712D01*
D10*
X60119048Y-36788152D02*
X60119048Y-37788152D01*
X60119048Y-36835771D02*
X60214286Y-36788152D01*
X60214286Y-36788152D02*
X60404762Y-36788152D01*
X60404762Y-36788152D02*
X60500000Y-36835771D01*
X60500000Y-36835771D02*
X60547619Y-36883390D01*
X60547619Y-36883390D02*
X60595238Y-36978628D01*
X60595238Y-36978628D02*
X60595238Y-37264342D01*
X60595238Y-37264342D02*
X60547619Y-37359580D01*
X60547619Y-37359580D02*
X60500000Y-37407200D01*
X60500000Y-37407200D02*
X60404762Y-37454819D01*
X60404762Y-37454819D02*
X60214286Y-37454819D01*
X60214286Y-37454819D02*
X60119048Y-37407200D01*
X61023810Y-37454819D02*
X61023810Y-36788152D01*
X61023810Y-36454819D02*
X60976191Y-36502438D01*
X60976191Y-36502438D02*
X61023810Y-36550057D01*
X61023810Y-36550057D02*
X61071429Y-36502438D01*
X61071429Y-36502438D02*
X61023810Y-36454819D01*
X61023810Y-36454819D02*
X61023810Y-36550057D01*
X61500000Y-36788152D02*
X61500000Y-37454819D01*
X61500000Y-36883390D02*
X61547619Y-36835771D01*
X61547619Y-36835771D02*
X61642857Y-36788152D01*
X61642857Y-36788152D02*
X61785714Y-36788152D01*
X61785714Y-36788152D02*
X61880952Y-36835771D01*
X61880952Y-36835771D02*
X61928571Y-36931009D01*
X61928571Y-36931009D02*
X61928571Y-37454819D01*
X62928571Y-37454819D02*
X62357143Y-37454819D01*
X62642857Y-37454819D02*
X62642857Y-36454819D01*
X62642857Y-36454819D02*
X62547619Y-36597676D01*
X62547619Y-36597676D02*
X62452381Y-36692914D01*
X62452381Y-36692914D02*
X62357143Y-36740533D01*
X81119048Y-36788152D02*
X81119048Y-37788152D01*
X81119048Y-36835771D02*
X81214286Y-36788152D01*
X81214286Y-36788152D02*
X81404762Y-36788152D01*
X81404762Y-36788152D02*
X81500000Y-36835771D01*
X81500000Y-36835771D02*
X81547619Y-36883390D01*
X81547619Y-36883390D02*
X81595238Y-36978628D01*
X81595238Y-36978628D02*
X81595238Y-37264342D01*
X81595238Y-37264342D02*
X81547619Y-37359580D01*
X81547619Y-37359580D02*
X81500000Y-37407200D01*
X81500000Y-37407200D02*
X81404762Y-37454819D01*
X81404762Y-37454819D02*
X81214286Y-37454819D01*
X81214286Y-37454819D02*
X81119048Y-37407200D01*
X82023810Y-37454819D02*
X82023810Y-36788152D01*
X82023810Y-36454819D02*
X81976191Y-36502438D01*
X81976191Y-36502438D02*
X82023810Y-36550057D01*
X82023810Y-36550057D02*
X82071429Y-36502438D01*
X82071429Y-36502438D02*
X82023810Y-36454819D01*
X82023810Y-36454819D02*
X82023810Y-36550057D01*
X82500000Y-36788152D02*
X82500000Y-37454819D01*
X82500000Y-36883390D02*
X82547619Y-36835771D01*
X82547619Y-36835771D02*
X82642857Y-36788152D01*
X82642857Y-36788152D02*
X82785714Y-36788152D01*
X82785714Y-36788152D02*
X82880952Y-36835771D01*
X82880952Y-36835771D02*
X82928571Y-36931009D01*
X82928571Y-36931009D02*
X82928571Y-37454819D01*
X83357143Y-36550057D02*
X83404762Y-36502438D01*
X83404762Y-36502438D02*
X83500000Y-36454819D01*
X83500000Y-36454819D02*
X83738095Y-36454819D01*
X83738095Y-36454819D02*
X83833333Y-36502438D01*
X83833333Y-36502438D02*
X83880952Y-36550057D01*
X83880952Y-36550057D02*
X83928571Y-36645295D01*
X83928571Y-36645295D02*
X83928571Y-36740533D01*
X83928571Y-36740533D02*
X83880952Y-36883390D01*
X83880952Y-36883390D02*
X83309524Y-37454819D01*
X83309524Y-37454819D02*
X83928571Y-37454819D01*
X54836779Y-124869819D02*
X54836779Y-123869819D01*
X55312969Y-124869819D02*
X55312969Y-123869819D01*
X55312969Y-123869819D02*
X55884397Y-124869819D01*
X55884397Y-124869819D02*
X55884397Y-123869819D01*
X57074874Y-124584104D02*
X57551064Y-124584104D01*
X56979636Y-124869819D02*
X57312969Y-123869819D01*
X57312969Y-123869819D02*
X57646302Y-124869819D01*
X81527255Y-33369819D02*
X81717731Y-33369819D01*
X81717731Y-33369819D02*
X81812969Y-33417438D01*
X81812969Y-33417438D02*
X81908207Y-33512676D01*
X81908207Y-33512676D02*
X81955826Y-33703152D01*
X81955826Y-33703152D02*
X81955826Y-34036485D01*
X81955826Y-34036485D02*
X81908207Y-34226961D01*
X81908207Y-34226961D02*
X81812969Y-34322200D01*
X81812969Y-34322200D02*
X81717731Y-34369819D01*
X81717731Y-34369819D02*
X81527255Y-34369819D01*
X81527255Y-34369819D02*
X81432017Y-34322200D01*
X81432017Y-34322200D02*
X81336779Y-34226961D01*
X81336779Y-34226961D02*
X81289160Y-34036485D01*
X81289160Y-34036485D02*
X81289160Y-33703152D01*
X81289160Y-33703152D02*
X81336779Y-33512676D01*
X81336779Y-33512676D02*
X81432017Y-33417438D01*
X81432017Y-33417438D02*
X81527255Y-33369819D01*
X82384398Y-33369819D02*
X82384398Y-34179342D01*
X82384398Y-34179342D02*
X82432017Y-34274580D01*
X82432017Y-34274580D02*
X82479636Y-34322200D01*
X82479636Y-34322200D02*
X82574874Y-34369819D01*
X82574874Y-34369819D02*
X82765350Y-34369819D01*
X82765350Y-34369819D02*
X82860588Y-34322200D01*
X82860588Y-34322200D02*
X82908207Y-34274580D01*
X82908207Y-34274580D02*
X82955826Y-34179342D01*
X82955826Y-34179342D02*
X82955826Y-33369819D01*
X83289160Y-33369819D02*
X83860588Y-33369819D01*
X83574874Y-34369819D02*
X83574874Y-33369819D01*
X85289160Y-33846009D02*
X85432017Y-33893628D01*
X85432017Y-33893628D02*
X85479636Y-33941247D01*
X85479636Y-33941247D02*
X85527255Y-34036485D01*
X85527255Y-34036485D02*
X85527255Y-34179342D01*
X85527255Y-34179342D02*
X85479636Y-34274580D01*
X85479636Y-34274580D02*
X85432017Y-34322200D01*
X85432017Y-34322200D02*
X85336779Y-34369819D01*
X85336779Y-34369819D02*
X84955827Y-34369819D01*
X84955827Y-34369819D02*
X84955827Y-33369819D01*
X84955827Y-33369819D02*
X85289160Y-33369819D01*
X85289160Y-33369819D02*
X85384398Y-33417438D01*
X85384398Y-33417438D02*
X85432017Y-33465057D01*
X85432017Y-33465057D02*
X85479636Y-33560295D01*
X85479636Y-33560295D02*
X85479636Y-33655533D01*
X85479636Y-33655533D02*
X85432017Y-33750771D01*
X85432017Y-33750771D02*
X85384398Y-33798390D01*
X85384398Y-33798390D02*
X85289160Y-33846009D01*
X85289160Y-33846009D02*
X84955827Y-33846009D01*
X55190476Y-88894819D02*
X55190476Y-89609104D01*
X55190476Y-89609104D02*
X55142857Y-89751961D01*
X55142857Y-89751961D02*
X55047619Y-89847200D01*
X55047619Y-89847200D02*
X54904762Y-89894819D01*
X54904762Y-89894819D02*
X54809524Y-89894819D01*
X56190476Y-89894819D02*
X55619048Y-89894819D01*
X55904762Y-89894819D02*
X55904762Y-88894819D01*
X55904762Y-88894819D02*
X55809524Y-89037676D01*
X55809524Y-89037676D02*
X55714286Y-89132914D01*
X55714286Y-89132914D02*
X55619048Y-89180533D01*
X57047619Y-89228152D02*
X57047619Y-89894819D01*
X56809524Y-88847200D02*
X56571429Y-89561485D01*
X56571429Y-89561485D02*
X57190476Y-89561485D01*
X88690476Y-88894819D02*
X88690476Y-89609104D01*
X88690476Y-89609104D02*
X88642857Y-89751961D01*
X88642857Y-89751961D02*
X88547619Y-89847200D01*
X88547619Y-89847200D02*
X88404762Y-89894819D01*
X88404762Y-89894819D02*
X88309524Y-89894819D01*
X89690476Y-89894819D02*
X89119048Y-89894819D01*
X89404762Y-89894819D02*
X89404762Y-88894819D01*
X89404762Y-88894819D02*
X89309524Y-89037676D01*
X89309524Y-89037676D02*
X89214286Y-89132914D01*
X89214286Y-89132914D02*
X89119048Y-89180533D01*
X90023810Y-88894819D02*
X90642857Y-88894819D01*
X90642857Y-88894819D02*
X90309524Y-89275771D01*
X90309524Y-89275771D02*
X90452381Y-89275771D01*
X90452381Y-89275771D02*
X90547619Y-89323390D01*
X90547619Y-89323390D02*
X90595238Y-89371009D01*
X90595238Y-89371009D02*
X90642857Y-89466247D01*
X90642857Y-89466247D02*
X90642857Y-89704342D01*
X90642857Y-89704342D02*
X90595238Y-89799580D01*
X90595238Y-89799580D02*
X90547619Y-89847200D01*
X90547619Y-89847200D02*
X90452381Y-89894819D01*
X90452381Y-89894819D02*
X90166667Y-89894819D01*
X90166667Y-89894819D02*
X90071429Y-89847200D01*
X90071429Y-89847200D02*
X90023810Y-89799580D01*
X82357142Y-113359580D02*
X82309523Y-113407200D01*
X82309523Y-113407200D02*
X82166666Y-113454819D01*
X82166666Y-113454819D02*
X82071428Y-113454819D01*
X82071428Y-113454819D02*
X81928571Y-113407200D01*
X81928571Y-113407200D02*
X81833333Y-113311961D01*
X81833333Y-113311961D02*
X81785714Y-113216723D01*
X81785714Y-113216723D02*
X81738095Y-113026247D01*
X81738095Y-113026247D02*
X81738095Y-112883390D01*
X81738095Y-112883390D02*
X81785714Y-112692914D01*
X81785714Y-112692914D02*
X81833333Y-112597676D01*
X81833333Y-112597676D02*
X81928571Y-112502438D01*
X81928571Y-112502438D02*
X82071428Y-112454819D01*
X82071428Y-112454819D02*
X82166666Y-112454819D01*
X82166666Y-112454819D02*
X82309523Y-112502438D01*
X82309523Y-112502438D02*
X82357142Y-112550057D01*
X82738095Y-112550057D02*
X82785714Y-112502438D01*
X82785714Y-112502438D02*
X82880952Y-112454819D01*
X82880952Y-112454819D02*
X83119047Y-112454819D01*
X83119047Y-112454819D02*
X83214285Y-112502438D01*
X83214285Y-112502438D02*
X83261904Y-112550057D01*
X83261904Y-112550057D02*
X83309523Y-112645295D01*
X83309523Y-112645295D02*
X83309523Y-112740533D01*
X83309523Y-112740533D02*
X83261904Y-112883390D01*
X83261904Y-112883390D02*
X82690476Y-113454819D01*
X82690476Y-113454819D02*
X83309523Y-113454819D01*
X83690476Y-112550057D02*
X83738095Y-112502438D01*
X83738095Y-112502438D02*
X83833333Y-112454819D01*
X83833333Y-112454819D02*
X84071428Y-112454819D01*
X84071428Y-112454819D02*
X84166666Y-112502438D01*
X84166666Y-112502438D02*
X84214285Y-112550057D01*
X84214285Y-112550057D02*
X84261904Y-112645295D01*
X84261904Y-112645295D02*
X84261904Y-112740533D01*
X84261904Y-112740533D02*
X84214285Y-112883390D01*
X84214285Y-112883390D02*
X83642857Y-113454819D01*
X83642857Y-113454819D02*
X84261904Y-113454819D01*
X55857142Y-113359580D02*
X55809523Y-113407200D01*
X55809523Y-113407200D02*
X55666666Y-113454819D01*
X55666666Y-113454819D02*
X55571428Y-113454819D01*
X55571428Y-113454819D02*
X55428571Y-113407200D01*
X55428571Y-113407200D02*
X55333333Y-113311961D01*
X55333333Y-113311961D02*
X55285714Y-113216723D01*
X55285714Y-113216723D02*
X55238095Y-113026247D01*
X55238095Y-113026247D02*
X55238095Y-112883390D01*
X55238095Y-112883390D02*
X55285714Y-112692914D01*
X55285714Y-112692914D02*
X55333333Y-112597676D01*
X55333333Y-112597676D02*
X55428571Y-112502438D01*
X55428571Y-112502438D02*
X55571428Y-112454819D01*
X55571428Y-112454819D02*
X55666666Y-112454819D01*
X55666666Y-112454819D02*
X55809523Y-112502438D01*
X55809523Y-112502438D02*
X55857142Y-112550057D01*
X56238095Y-112550057D02*
X56285714Y-112502438D01*
X56285714Y-112502438D02*
X56380952Y-112454819D01*
X56380952Y-112454819D02*
X56619047Y-112454819D01*
X56619047Y-112454819D02*
X56714285Y-112502438D01*
X56714285Y-112502438D02*
X56761904Y-112550057D01*
X56761904Y-112550057D02*
X56809523Y-112645295D01*
X56809523Y-112645295D02*
X56809523Y-112740533D01*
X56809523Y-112740533D02*
X56761904Y-112883390D01*
X56761904Y-112883390D02*
X56190476Y-113454819D01*
X56190476Y-113454819D02*
X56809523Y-113454819D01*
X57761904Y-113454819D02*
X57190476Y-113454819D01*
X57476190Y-113454819D02*
X57476190Y-112454819D01*
X57476190Y-112454819D02*
X57380952Y-112597676D01*
X57380952Y-112597676D02*
X57285714Y-112692914D01*
X57285714Y-112692914D02*
X57190476Y-112740533D01*
X74897142Y-113454819D02*
X74563809Y-112978628D01*
X74325714Y-113454819D02*
X74325714Y-112454819D01*
X74325714Y-112454819D02*
X74706666Y-112454819D01*
X74706666Y-112454819D02*
X74801904Y-112502438D01*
X74801904Y-112502438D02*
X74849523Y-112550057D01*
X74849523Y-112550057D02*
X74897142Y-112645295D01*
X74897142Y-112645295D02*
X74897142Y-112788152D01*
X74897142Y-112788152D02*
X74849523Y-112883390D01*
X74849523Y-112883390D02*
X74801904Y-112931009D01*
X74801904Y-112931009D02*
X74706666Y-112978628D01*
X74706666Y-112978628D02*
X74325714Y-112978628D01*
X75278095Y-112550057D02*
X75325714Y-112502438D01*
X75325714Y-112502438D02*
X75420952Y-112454819D01*
X75420952Y-112454819D02*
X75659047Y-112454819D01*
X75659047Y-112454819D02*
X75754285Y-112502438D01*
X75754285Y-112502438D02*
X75801904Y-112550057D01*
X75801904Y-112550057D02*
X75849523Y-112645295D01*
X75849523Y-112645295D02*
X75849523Y-112740533D01*
X75849523Y-112740533D02*
X75801904Y-112883390D01*
X75801904Y-112883390D02*
X75230476Y-113454819D01*
X75230476Y-113454819D02*
X75849523Y-113454819D01*
X76420952Y-112883390D02*
X76325714Y-112835771D01*
X76325714Y-112835771D02*
X76278095Y-112788152D01*
X76278095Y-112788152D02*
X76230476Y-112692914D01*
X76230476Y-112692914D02*
X76230476Y-112645295D01*
X76230476Y-112645295D02*
X76278095Y-112550057D01*
X76278095Y-112550057D02*
X76325714Y-112502438D01*
X76325714Y-112502438D02*
X76420952Y-112454819D01*
X76420952Y-112454819D02*
X76611428Y-112454819D01*
X76611428Y-112454819D02*
X76706666Y-112502438D01*
X76706666Y-112502438D02*
X76754285Y-112550057D01*
X76754285Y-112550057D02*
X76801904Y-112645295D01*
X76801904Y-112645295D02*
X76801904Y-112692914D01*
X76801904Y-112692914D02*
X76754285Y-112788152D01*
X76754285Y-112788152D02*
X76706666Y-112835771D01*
X76706666Y-112835771D02*
X76611428Y-112883390D01*
X76611428Y-112883390D02*
X76420952Y-112883390D01*
X76420952Y-112883390D02*
X76325714Y-112931009D01*
X76325714Y-112931009D02*
X76278095Y-112978628D01*
X76278095Y-112978628D02*
X76230476Y-113073866D01*
X76230476Y-113073866D02*
X76230476Y-113264342D01*
X76230476Y-113264342D02*
X76278095Y-113359580D01*
X76278095Y-113359580D02*
X76325714Y-113407200D01*
X76325714Y-113407200D02*
X76420952Y-113454819D01*
X76420952Y-113454819D02*
X76611428Y-113454819D01*
X76611428Y-113454819D02*
X76706666Y-113407200D01*
X76706666Y-113407200D02*
X76754285Y-113359580D01*
X76754285Y-113359580D02*
X76801904Y-113264342D01*
X76801904Y-113264342D02*
X76801904Y-113073866D01*
X76801904Y-113073866D02*
X76754285Y-112978628D01*
X76754285Y-112978628D02*
X76706666Y-112931009D01*
X76706666Y-112931009D02*
X76611428Y-112883390D01*
X48397142Y-113454819D02*
X48063809Y-112978628D01*
X47825714Y-113454819D02*
X47825714Y-112454819D01*
X47825714Y-112454819D02*
X48206666Y-112454819D01*
X48206666Y-112454819D02*
X48301904Y-112502438D01*
X48301904Y-112502438D02*
X48349523Y-112550057D01*
X48349523Y-112550057D02*
X48397142Y-112645295D01*
X48397142Y-112645295D02*
X48397142Y-112788152D01*
X48397142Y-112788152D02*
X48349523Y-112883390D01*
X48349523Y-112883390D02*
X48301904Y-112931009D01*
X48301904Y-112931009D02*
X48206666Y-112978628D01*
X48206666Y-112978628D02*
X47825714Y-112978628D01*
X48778095Y-112550057D02*
X48825714Y-112502438D01*
X48825714Y-112502438D02*
X48920952Y-112454819D01*
X48920952Y-112454819D02*
X49159047Y-112454819D01*
X49159047Y-112454819D02*
X49254285Y-112502438D01*
X49254285Y-112502438D02*
X49301904Y-112550057D01*
X49301904Y-112550057D02*
X49349523Y-112645295D01*
X49349523Y-112645295D02*
X49349523Y-112740533D01*
X49349523Y-112740533D02*
X49301904Y-112883390D01*
X49301904Y-112883390D02*
X48730476Y-113454819D01*
X48730476Y-113454819D02*
X49349523Y-113454819D01*
X49682857Y-112454819D02*
X50349523Y-112454819D01*
X50349523Y-112454819D02*
X49920952Y-113454819D01*
X65454819Y-67182857D02*
X64978628Y-67516190D01*
X65454819Y-67754285D02*
X64454819Y-67754285D01*
X64454819Y-67754285D02*
X64454819Y-67373333D01*
X64454819Y-67373333D02*
X64502438Y-67278095D01*
X64502438Y-67278095D02*
X64550057Y-67230476D01*
X64550057Y-67230476D02*
X64645295Y-67182857D01*
X64645295Y-67182857D02*
X64788152Y-67182857D01*
X64788152Y-67182857D02*
X64883390Y-67230476D01*
X64883390Y-67230476D02*
X64931009Y-67278095D01*
X64931009Y-67278095D02*
X64978628Y-67373333D01*
X64978628Y-67373333D02*
X64978628Y-67754285D01*
X64550057Y-66801904D02*
X64502438Y-66754285D01*
X64502438Y-66754285D02*
X64454819Y-66659047D01*
X64454819Y-66659047D02*
X64454819Y-66420952D01*
X64454819Y-66420952D02*
X64502438Y-66325714D01*
X64502438Y-66325714D02*
X64550057Y-66278095D01*
X64550057Y-66278095D02*
X64645295Y-66230476D01*
X64645295Y-66230476D02*
X64740533Y-66230476D01*
X64740533Y-66230476D02*
X64883390Y-66278095D01*
X64883390Y-66278095D02*
X65454819Y-66849523D01*
X65454819Y-66849523D02*
X65454819Y-66230476D01*
X64454819Y-65897142D02*
X64454819Y-65278095D01*
X64454819Y-65278095D02*
X64835771Y-65611428D01*
X64835771Y-65611428D02*
X64835771Y-65468571D01*
X64835771Y-65468571D02*
X64883390Y-65373333D01*
X64883390Y-65373333D02*
X64931009Y-65325714D01*
X64931009Y-65325714D02*
X65026247Y-65278095D01*
X65026247Y-65278095D02*
X65264342Y-65278095D01*
X65264342Y-65278095D02*
X65359580Y-65325714D01*
X65359580Y-65325714D02*
X65407200Y-65373333D01*
X65407200Y-65373333D02*
X65454819Y-65468571D01*
X65454819Y-65468571D02*
X65454819Y-65754285D01*
X65454819Y-65754285D02*
X65407200Y-65849523D01*
X65407200Y-65849523D02*
X65359580Y-65897142D01*
X92954819Y-66666666D02*
X92478628Y-66999999D01*
X92954819Y-67238094D02*
X91954819Y-67238094D01*
X91954819Y-67238094D02*
X91954819Y-66857142D01*
X91954819Y-66857142D02*
X92002438Y-66761904D01*
X92002438Y-66761904D02*
X92050057Y-66714285D01*
X92050057Y-66714285D02*
X92145295Y-66666666D01*
X92145295Y-66666666D02*
X92288152Y-66666666D01*
X92288152Y-66666666D02*
X92383390Y-66714285D01*
X92383390Y-66714285D02*
X92431009Y-66761904D01*
X92431009Y-66761904D02*
X92478628Y-66857142D01*
X92478628Y-66857142D02*
X92478628Y-67238094D01*
X92954819Y-65714285D02*
X92954819Y-66285713D01*
X92954819Y-65999999D02*
X91954819Y-65999999D01*
X91954819Y-65999999D02*
X92097676Y-66095237D01*
X92097676Y-66095237D02*
X92192914Y-66190475D01*
X92192914Y-66190475D02*
X92240533Y-66285713D01*
X55785714Y-52954819D02*
X55785714Y-51954819D01*
X55785714Y-51954819D02*
X56023809Y-51954819D01*
X56023809Y-51954819D02*
X56166666Y-52002438D01*
X56166666Y-52002438D02*
X56261904Y-52097676D01*
X56261904Y-52097676D02*
X56309523Y-52192914D01*
X56309523Y-52192914D02*
X56357142Y-52383390D01*
X56357142Y-52383390D02*
X56357142Y-52526247D01*
X56357142Y-52526247D02*
X56309523Y-52716723D01*
X56309523Y-52716723D02*
X56261904Y-52811961D01*
X56261904Y-52811961D02*
X56166666Y-52907200D01*
X56166666Y-52907200D02*
X56023809Y-52954819D01*
X56023809Y-52954819D02*
X55785714Y-52954819D01*
X57309523Y-52954819D02*
X56738095Y-52954819D01*
X57023809Y-52954819D02*
X57023809Y-51954819D01*
X57023809Y-51954819D02*
X56928571Y-52097676D01*
X56928571Y-52097676D02*
X56833333Y-52192914D01*
X56833333Y-52192914D02*
X56738095Y-52240533D01*
X57928571Y-51954819D02*
X58023809Y-51954819D01*
X58023809Y-51954819D02*
X58119047Y-52002438D01*
X58119047Y-52002438D02*
X58166666Y-52050057D01*
X58166666Y-52050057D02*
X58214285Y-52145295D01*
X58214285Y-52145295D02*
X58261904Y-52335771D01*
X58261904Y-52335771D02*
X58261904Y-52573866D01*
X58261904Y-52573866D02*
X58214285Y-52764342D01*
X58214285Y-52764342D02*
X58166666Y-52859580D01*
X58166666Y-52859580D02*
X58119047Y-52907200D01*
X58119047Y-52907200D02*
X58023809Y-52954819D01*
X58023809Y-52954819D02*
X57928571Y-52954819D01*
X57928571Y-52954819D02*
X57833333Y-52907200D01*
X57833333Y-52907200D02*
X57785714Y-52859580D01*
X57785714Y-52859580D02*
X57738095Y-52764342D01*
X57738095Y-52764342D02*
X57690476Y-52573866D01*
X57690476Y-52573866D02*
X57690476Y-52335771D01*
X57690476Y-52335771D02*
X57738095Y-52145295D01*
X57738095Y-52145295D02*
X57785714Y-52050057D01*
X57785714Y-52050057D02*
X57833333Y-52002438D01*
X57833333Y-52002438D02*
X57928571Y-51954819D01*
X51078095Y-51154819D02*
X51078095Y-50154819D01*
X51649523Y-51154819D02*
X51220952Y-50583390D01*
X51649523Y-50154819D02*
X51078095Y-50726247D01*
X83681905Y-52954819D02*
X83681905Y-51954819D01*
X83681905Y-51954819D02*
X83920000Y-51954819D01*
X83920000Y-51954819D02*
X84062857Y-52002438D01*
X84062857Y-52002438D02*
X84158095Y-52097676D01*
X84158095Y-52097676D02*
X84205714Y-52192914D01*
X84205714Y-52192914D02*
X84253333Y-52383390D01*
X84253333Y-52383390D02*
X84253333Y-52526247D01*
X84253333Y-52526247D02*
X84205714Y-52716723D01*
X84205714Y-52716723D02*
X84158095Y-52811961D01*
X84158095Y-52811961D02*
X84062857Y-52907200D01*
X84062857Y-52907200D02*
X83920000Y-52954819D01*
X83920000Y-52954819D02*
X83681905Y-52954819D01*
X85205714Y-52954819D02*
X84634286Y-52954819D01*
X84920000Y-52954819D02*
X84920000Y-51954819D01*
X84920000Y-51954819D02*
X84824762Y-52097676D01*
X84824762Y-52097676D02*
X84729524Y-52192914D01*
X84729524Y-52192914D02*
X84634286Y-52240533D01*
X79078095Y-51154819D02*
X79078095Y-50154819D01*
X79649523Y-51154819D02*
X79220952Y-50583390D01*
X79649523Y-50154819D02*
X79078095Y-50726247D01*
X61859580Y-62166666D02*
X61907200Y-62214285D01*
X61907200Y-62214285D02*
X61954819Y-62357142D01*
X61954819Y-62357142D02*
X61954819Y-62452380D01*
X61954819Y-62452380D02*
X61907200Y-62595237D01*
X61907200Y-62595237D02*
X61811961Y-62690475D01*
X61811961Y-62690475D02*
X61716723Y-62738094D01*
X61716723Y-62738094D02*
X61526247Y-62785713D01*
X61526247Y-62785713D02*
X61383390Y-62785713D01*
X61383390Y-62785713D02*
X61192914Y-62738094D01*
X61192914Y-62738094D02*
X61097676Y-62690475D01*
X61097676Y-62690475D02*
X61002438Y-62595237D01*
X61002438Y-62595237D02*
X60954819Y-62452380D01*
X60954819Y-62452380D02*
X60954819Y-62357142D01*
X60954819Y-62357142D02*
X61002438Y-62214285D01*
X61002438Y-62214285D02*
X61050057Y-62166666D01*
X61954819Y-61214285D02*
X61954819Y-61785713D01*
X61954819Y-61499999D02*
X60954819Y-61499999D01*
X60954819Y-61499999D02*
X61097676Y-61595237D01*
X61097676Y-61595237D02*
X61192914Y-61690475D01*
X61192914Y-61690475D02*
X61240533Y-61785713D01*
X56859580Y-62166666D02*
X56907200Y-62214285D01*
X56907200Y-62214285D02*
X56954819Y-62357142D01*
X56954819Y-62357142D02*
X56954819Y-62452380D01*
X56954819Y-62452380D02*
X56907200Y-62595237D01*
X56907200Y-62595237D02*
X56811961Y-62690475D01*
X56811961Y-62690475D02*
X56716723Y-62738094D01*
X56716723Y-62738094D02*
X56526247Y-62785713D01*
X56526247Y-62785713D02*
X56383390Y-62785713D01*
X56383390Y-62785713D02*
X56192914Y-62738094D01*
X56192914Y-62738094D02*
X56097676Y-62690475D01*
X56097676Y-62690475D02*
X56002438Y-62595237D01*
X56002438Y-62595237D02*
X55954819Y-62452380D01*
X55954819Y-62452380D02*
X55954819Y-62357142D01*
X55954819Y-62357142D02*
X56002438Y-62214285D01*
X56002438Y-62214285D02*
X56050057Y-62166666D01*
X56050057Y-61785713D02*
X56002438Y-61738094D01*
X56002438Y-61738094D02*
X55954819Y-61642856D01*
X55954819Y-61642856D02*
X55954819Y-61404761D01*
X55954819Y-61404761D02*
X56002438Y-61309523D01*
X56002438Y-61309523D02*
X56050057Y-61261904D01*
X56050057Y-61261904D02*
X56145295Y-61214285D01*
X56145295Y-61214285D02*
X56240533Y-61214285D01*
X56240533Y-61214285D02*
X56383390Y-61261904D01*
X56383390Y-61261904D02*
X56954819Y-61833332D01*
X56954819Y-61833332D02*
X56954819Y-61214285D01*
X51859580Y-62166666D02*
X51907200Y-62214285D01*
X51907200Y-62214285D02*
X51954819Y-62357142D01*
X51954819Y-62357142D02*
X51954819Y-62452380D01*
X51954819Y-62452380D02*
X51907200Y-62595237D01*
X51907200Y-62595237D02*
X51811961Y-62690475D01*
X51811961Y-62690475D02*
X51716723Y-62738094D01*
X51716723Y-62738094D02*
X51526247Y-62785713D01*
X51526247Y-62785713D02*
X51383390Y-62785713D01*
X51383390Y-62785713D02*
X51192914Y-62738094D01*
X51192914Y-62738094D02*
X51097676Y-62690475D01*
X51097676Y-62690475D02*
X51002438Y-62595237D01*
X51002438Y-62595237D02*
X50954819Y-62452380D01*
X50954819Y-62452380D02*
X50954819Y-62357142D01*
X50954819Y-62357142D02*
X51002438Y-62214285D01*
X51002438Y-62214285D02*
X51050057Y-62166666D01*
X50954819Y-61833332D02*
X50954819Y-61214285D01*
X50954819Y-61214285D02*
X51335771Y-61547618D01*
X51335771Y-61547618D02*
X51335771Y-61404761D01*
X51335771Y-61404761D02*
X51383390Y-61309523D01*
X51383390Y-61309523D02*
X51431009Y-61261904D01*
X51431009Y-61261904D02*
X51526247Y-61214285D01*
X51526247Y-61214285D02*
X51764342Y-61214285D01*
X51764342Y-61214285D02*
X51859580Y-61261904D01*
X51859580Y-61261904D02*
X51907200Y-61309523D01*
X51907200Y-61309523D02*
X51954819Y-61404761D01*
X51954819Y-61404761D02*
X51954819Y-61690475D01*
X51954819Y-61690475D02*
X51907200Y-61785713D01*
X51907200Y-61785713D02*
X51859580Y-61833332D01*
X46859580Y-62166666D02*
X46907200Y-62214285D01*
X46907200Y-62214285D02*
X46954819Y-62357142D01*
X46954819Y-62357142D02*
X46954819Y-62452380D01*
X46954819Y-62452380D02*
X46907200Y-62595237D01*
X46907200Y-62595237D02*
X46811961Y-62690475D01*
X46811961Y-62690475D02*
X46716723Y-62738094D01*
X46716723Y-62738094D02*
X46526247Y-62785713D01*
X46526247Y-62785713D02*
X46383390Y-62785713D01*
X46383390Y-62785713D02*
X46192914Y-62738094D01*
X46192914Y-62738094D02*
X46097676Y-62690475D01*
X46097676Y-62690475D02*
X46002438Y-62595237D01*
X46002438Y-62595237D02*
X45954819Y-62452380D01*
X45954819Y-62452380D02*
X45954819Y-62357142D01*
X45954819Y-62357142D02*
X46002438Y-62214285D01*
X46002438Y-62214285D02*
X46050057Y-62166666D01*
X46288152Y-61309523D02*
X46954819Y-61309523D01*
X45907200Y-61547618D02*
X46621485Y-61785713D01*
X46621485Y-61785713D02*
X46621485Y-61166666D01*
X66859580Y-62166666D02*
X66907200Y-62214285D01*
X66907200Y-62214285D02*
X66954819Y-62357142D01*
X66954819Y-62357142D02*
X66954819Y-62452380D01*
X66954819Y-62452380D02*
X66907200Y-62595237D01*
X66907200Y-62595237D02*
X66811961Y-62690475D01*
X66811961Y-62690475D02*
X66716723Y-62738094D01*
X66716723Y-62738094D02*
X66526247Y-62785713D01*
X66526247Y-62785713D02*
X66383390Y-62785713D01*
X66383390Y-62785713D02*
X66192914Y-62738094D01*
X66192914Y-62738094D02*
X66097676Y-62690475D01*
X66097676Y-62690475D02*
X66002438Y-62595237D01*
X66002438Y-62595237D02*
X65954819Y-62452380D01*
X65954819Y-62452380D02*
X65954819Y-62357142D01*
X65954819Y-62357142D02*
X66002438Y-62214285D01*
X66002438Y-62214285D02*
X66050057Y-62166666D01*
X65954819Y-61261904D02*
X65954819Y-61738094D01*
X65954819Y-61738094D02*
X66431009Y-61785713D01*
X66431009Y-61785713D02*
X66383390Y-61738094D01*
X66383390Y-61738094D02*
X66335771Y-61642856D01*
X66335771Y-61642856D02*
X66335771Y-61404761D01*
X66335771Y-61404761D02*
X66383390Y-61309523D01*
X66383390Y-61309523D02*
X66431009Y-61261904D01*
X66431009Y-61261904D02*
X66526247Y-61214285D01*
X66526247Y-61214285D02*
X66764342Y-61214285D01*
X66764342Y-61214285D02*
X66859580Y-61261904D01*
X66859580Y-61261904D02*
X66907200Y-61309523D01*
X66907200Y-61309523D02*
X66954819Y-61404761D01*
X66954819Y-61404761D02*
X66954819Y-61642856D01*
X66954819Y-61642856D02*
X66907200Y-61738094D01*
X66907200Y-61738094D02*
X66859580Y-61785713D01*
X56833333Y-108859580D02*
X56785714Y-108907200D01*
X56785714Y-108907200D02*
X56642857Y-108954819D01*
X56642857Y-108954819D02*
X56547619Y-108954819D01*
X56547619Y-108954819D02*
X56404762Y-108907200D01*
X56404762Y-108907200D02*
X56309524Y-108811961D01*
X56309524Y-108811961D02*
X56261905Y-108716723D01*
X56261905Y-108716723D02*
X56214286Y-108526247D01*
X56214286Y-108526247D02*
X56214286Y-108383390D01*
X56214286Y-108383390D02*
X56261905Y-108192914D01*
X56261905Y-108192914D02*
X56309524Y-108097676D01*
X56309524Y-108097676D02*
X56404762Y-108002438D01*
X56404762Y-108002438D02*
X56547619Y-107954819D01*
X56547619Y-107954819D02*
X56642857Y-107954819D01*
X56642857Y-107954819D02*
X56785714Y-108002438D01*
X56785714Y-108002438D02*
X56833333Y-108050057D01*
X57404762Y-108383390D02*
X57309524Y-108335771D01*
X57309524Y-108335771D02*
X57261905Y-108288152D01*
X57261905Y-108288152D02*
X57214286Y-108192914D01*
X57214286Y-108192914D02*
X57214286Y-108145295D01*
X57214286Y-108145295D02*
X57261905Y-108050057D01*
X57261905Y-108050057D02*
X57309524Y-108002438D01*
X57309524Y-108002438D02*
X57404762Y-107954819D01*
X57404762Y-107954819D02*
X57595238Y-107954819D01*
X57595238Y-107954819D02*
X57690476Y-108002438D01*
X57690476Y-108002438D02*
X57738095Y-108050057D01*
X57738095Y-108050057D02*
X57785714Y-108145295D01*
X57785714Y-108145295D02*
X57785714Y-108192914D01*
X57785714Y-108192914D02*
X57738095Y-108288152D01*
X57738095Y-108288152D02*
X57690476Y-108335771D01*
X57690476Y-108335771D02*
X57595238Y-108383390D01*
X57595238Y-108383390D02*
X57404762Y-108383390D01*
X57404762Y-108383390D02*
X57309524Y-108431009D01*
X57309524Y-108431009D02*
X57261905Y-108478628D01*
X57261905Y-108478628D02*
X57214286Y-108573866D01*
X57214286Y-108573866D02*
X57214286Y-108764342D01*
X57214286Y-108764342D02*
X57261905Y-108859580D01*
X57261905Y-108859580D02*
X57309524Y-108907200D01*
X57309524Y-108907200D02*
X57404762Y-108954819D01*
X57404762Y-108954819D02*
X57595238Y-108954819D01*
X57595238Y-108954819D02*
X57690476Y-108907200D01*
X57690476Y-108907200D02*
X57738095Y-108859580D01*
X57738095Y-108859580D02*
X57785714Y-108764342D01*
X57785714Y-108764342D02*
X57785714Y-108573866D01*
X57785714Y-108573866D02*
X57738095Y-108478628D01*
X57738095Y-108478628D02*
X57690476Y-108431009D01*
X57690476Y-108431009D02*
X57595238Y-108383390D01*
X49761905Y-95454819D02*
X49761905Y-94454819D01*
X49761905Y-94454819D02*
X50000000Y-94454819D01*
X50000000Y-94454819D02*
X50142857Y-94502438D01*
X50142857Y-94502438D02*
X50238095Y-94597676D01*
X50238095Y-94597676D02*
X50285714Y-94692914D01*
X50285714Y-94692914D02*
X50333333Y-94883390D01*
X50333333Y-94883390D02*
X50333333Y-95026247D01*
X50333333Y-95026247D02*
X50285714Y-95216723D01*
X50285714Y-95216723D02*
X50238095Y-95311961D01*
X50238095Y-95311961D02*
X50142857Y-95407200D01*
X50142857Y-95407200D02*
X50000000Y-95454819D01*
X50000000Y-95454819D02*
X49761905Y-95454819D01*
X51190476Y-94788152D02*
X51190476Y-95454819D01*
X50952381Y-94407200D02*
X50714286Y-95121485D01*
X50714286Y-95121485D02*
X51333333Y-95121485D01*
X46118095Y-93654819D02*
X46118095Y-92654819D01*
X46689523Y-93654819D02*
X46260952Y-93083390D01*
X46689523Y-92654819D02*
X46118095Y-93226247D01*
X62261905Y-95454819D02*
X62261905Y-94454819D01*
X62261905Y-94454819D02*
X62500000Y-94454819D01*
X62500000Y-94454819D02*
X62642857Y-94502438D01*
X62642857Y-94502438D02*
X62738095Y-94597676D01*
X62738095Y-94597676D02*
X62785714Y-94692914D01*
X62785714Y-94692914D02*
X62833333Y-94883390D01*
X62833333Y-94883390D02*
X62833333Y-95026247D01*
X62833333Y-95026247D02*
X62785714Y-95216723D01*
X62785714Y-95216723D02*
X62738095Y-95311961D01*
X62738095Y-95311961D02*
X62642857Y-95407200D01*
X62642857Y-95407200D02*
X62500000Y-95454819D01*
X62500000Y-95454819D02*
X62261905Y-95454819D01*
X63738095Y-94454819D02*
X63261905Y-94454819D01*
X63261905Y-94454819D02*
X63214286Y-94931009D01*
X63214286Y-94931009D02*
X63261905Y-94883390D01*
X63261905Y-94883390D02*
X63357143Y-94835771D01*
X63357143Y-94835771D02*
X63595238Y-94835771D01*
X63595238Y-94835771D02*
X63690476Y-94883390D01*
X63690476Y-94883390D02*
X63738095Y-94931009D01*
X63738095Y-94931009D02*
X63785714Y-95026247D01*
X63785714Y-95026247D02*
X63785714Y-95264342D01*
X63785714Y-95264342D02*
X63738095Y-95359580D01*
X63738095Y-95359580D02*
X63690476Y-95407200D01*
X63690476Y-95407200D02*
X63595238Y-95454819D01*
X63595238Y-95454819D02*
X63357143Y-95454819D01*
X63357143Y-95454819D02*
X63261905Y-95407200D01*
X63261905Y-95407200D02*
X63214286Y-95359580D01*
X58738095Y-93654819D02*
X58738095Y-92654819D01*
X59309523Y-93654819D02*
X58880952Y-93083390D01*
X59309523Y-92654819D02*
X58738095Y-93226247D01*
X50204819Y-84312857D02*
X49728628Y-84646190D01*
X50204819Y-84884285D02*
X49204819Y-84884285D01*
X49204819Y-84884285D02*
X49204819Y-84503333D01*
X49204819Y-84503333D02*
X49252438Y-84408095D01*
X49252438Y-84408095D02*
X49300057Y-84360476D01*
X49300057Y-84360476D02*
X49395295Y-84312857D01*
X49395295Y-84312857D02*
X49538152Y-84312857D01*
X49538152Y-84312857D02*
X49633390Y-84360476D01*
X49633390Y-84360476D02*
X49681009Y-84408095D01*
X49681009Y-84408095D02*
X49728628Y-84503333D01*
X49728628Y-84503333D02*
X49728628Y-84884285D01*
X50204819Y-83360476D02*
X50204819Y-83931904D01*
X50204819Y-83646190D02*
X49204819Y-83646190D01*
X49204819Y-83646190D02*
X49347676Y-83741428D01*
X49347676Y-83741428D02*
X49442914Y-83836666D01*
X49442914Y-83836666D02*
X49490533Y-83931904D01*
X50204819Y-82408095D02*
X50204819Y-82979523D01*
X50204819Y-82693809D02*
X49204819Y-82693809D01*
X49204819Y-82693809D02*
X49347676Y-82789047D01*
X49347676Y-82789047D02*
X49442914Y-82884285D01*
X49442914Y-82884285D02*
X49490533Y-82979523D01*
X44454819Y-66666666D02*
X43978628Y-66999999D01*
X44454819Y-67238094D02*
X43454819Y-67238094D01*
X43454819Y-67238094D02*
X43454819Y-66857142D01*
X43454819Y-66857142D02*
X43502438Y-66761904D01*
X43502438Y-66761904D02*
X43550057Y-66714285D01*
X43550057Y-66714285D02*
X43645295Y-66666666D01*
X43645295Y-66666666D02*
X43788152Y-66666666D01*
X43788152Y-66666666D02*
X43883390Y-66714285D01*
X43883390Y-66714285D02*
X43931009Y-66761904D01*
X43931009Y-66761904D02*
X43978628Y-66857142D01*
X43978628Y-66857142D02*
X43978628Y-67238094D01*
X43454819Y-65761904D02*
X43454819Y-66238094D01*
X43454819Y-66238094D02*
X43931009Y-66285713D01*
X43931009Y-66285713D02*
X43883390Y-66238094D01*
X43883390Y-66238094D02*
X43835771Y-66142856D01*
X43835771Y-66142856D02*
X43835771Y-65904761D01*
X43835771Y-65904761D02*
X43883390Y-65809523D01*
X43883390Y-65809523D02*
X43931009Y-65761904D01*
X43931009Y-65761904D02*
X44026247Y-65714285D01*
X44026247Y-65714285D02*
X44264342Y-65714285D01*
X44264342Y-65714285D02*
X44359580Y-65761904D01*
X44359580Y-65761904D02*
X44407200Y-65809523D01*
X44407200Y-65809523D02*
X44454819Y-65904761D01*
X44454819Y-65904761D02*
X44454819Y-66142856D01*
X44454819Y-66142856D02*
X44407200Y-66238094D01*
X44407200Y-66238094D02*
X44359580Y-66285713D01*
X56333333Y-64454819D02*
X56000000Y-63978628D01*
X55761905Y-64454819D02*
X55761905Y-63454819D01*
X55761905Y-63454819D02*
X56142857Y-63454819D01*
X56142857Y-63454819D02*
X56238095Y-63502438D01*
X56238095Y-63502438D02*
X56285714Y-63550057D01*
X56285714Y-63550057D02*
X56333333Y-63645295D01*
X56333333Y-63645295D02*
X56333333Y-63788152D01*
X56333333Y-63788152D02*
X56285714Y-63883390D01*
X56285714Y-63883390D02*
X56238095Y-63931009D01*
X56238095Y-63931009D02*
X56142857Y-63978628D01*
X56142857Y-63978628D02*
X55761905Y-63978628D01*
X57190476Y-63454819D02*
X57000000Y-63454819D01*
X57000000Y-63454819D02*
X56904762Y-63502438D01*
X56904762Y-63502438D02*
X56857143Y-63550057D01*
X56857143Y-63550057D02*
X56761905Y-63692914D01*
X56761905Y-63692914D02*
X56714286Y-63883390D01*
X56714286Y-63883390D02*
X56714286Y-64264342D01*
X56714286Y-64264342D02*
X56761905Y-64359580D01*
X56761905Y-64359580D02*
X56809524Y-64407200D01*
X56809524Y-64407200D02*
X56904762Y-64454819D01*
X56904762Y-64454819D02*
X57095238Y-64454819D01*
X57095238Y-64454819D02*
X57190476Y-64407200D01*
X57190476Y-64407200D02*
X57238095Y-64359580D01*
X57238095Y-64359580D02*
X57285714Y-64264342D01*
X57285714Y-64264342D02*
X57285714Y-64026247D01*
X57285714Y-64026247D02*
X57238095Y-63931009D01*
X57238095Y-63931009D02*
X57190476Y-63883390D01*
X57190476Y-63883390D02*
X57095238Y-63835771D01*
X57095238Y-63835771D02*
X56904762Y-63835771D01*
X56904762Y-63835771D02*
X56809524Y-63883390D01*
X56809524Y-63883390D02*
X56761905Y-63931009D01*
X56761905Y-63931009D02*
X56714286Y-64026247D01*
X48454819Y-66666666D02*
X47978628Y-66999999D01*
X48454819Y-67238094D02*
X47454819Y-67238094D01*
X47454819Y-67238094D02*
X47454819Y-66857142D01*
X47454819Y-66857142D02*
X47502438Y-66761904D01*
X47502438Y-66761904D02*
X47550057Y-66714285D01*
X47550057Y-66714285D02*
X47645295Y-66666666D01*
X47645295Y-66666666D02*
X47788152Y-66666666D01*
X47788152Y-66666666D02*
X47883390Y-66714285D01*
X47883390Y-66714285D02*
X47931009Y-66761904D01*
X47931009Y-66761904D02*
X47978628Y-66857142D01*
X47978628Y-66857142D02*
X47978628Y-67238094D01*
X47454819Y-66333332D02*
X47454819Y-65666666D01*
X47454819Y-65666666D02*
X48454819Y-66095237D01*
X51873333Y-104954819D02*
X51540000Y-104478628D01*
X51301905Y-104954819D02*
X51301905Y-103954819D01*
X51301905Y-103954819D02*
X51682857Y-103954819D01*
X51682857Y-103954819D02*
X51778095Y-104002438D01*
X51778095Y-104002438D02*
X51825714Y-104050057D01*
X51825714Y-104050057D02*
X51873333Y-104145295D01*
X51873333Y-104145295D02*
X51873333Y-104288152D01*
X51873333Y-104288152D02*
X51825714Y-104383390D01*
X51825714Y-104383390D02*
X51778095Y-104431009D01*
X51778095Y-104431009D02*
X51682857Y-104478628D01*
X51682857Y-104478628D02*
X51301905Y-104478628D01*
X52254286Y-104050057D02*
X52301905Y-104002438D01*
X52301905Y-104002438D02*
X52397143Y-103954819D01*
X52397143Y-103954819D02*
X52635238Y-103954819D01*
X52635238Y-103954819D02*
X52730476Y-104002438D01*
X52730476Y-104002438D02*
X52778095Y-104050057D01*
X52778095Y-104050057D02*
X52825714Y-104145295D01*
X52825714Y-104145295D02*
X52825714Y-104240533D01*
X52825714Y-104240533D02*
X52778095Y-104383390D01*
X52778095Y-104383390D02*
X52206667Y-104954819D01*
X52206667Y-104954819D02*
X52825714Y-104954819D01*
X46954819Y-105166666D02*
X46478628Y-105499999D01*
X46954819Y-105738094D02*
X45954819Y-105738094D01*
X45954819Y-105738094D02*
X45954819Y-105357142D01*
X45954819Y-105357142D02*
X46002438Y-105261904D01*
X46002438Y-105261904D02*
X46050057Y-105214285D01*
X46050057Y-105214285D02*
X46145295Y-105166666D01*
X46145295Y-105166666D02*
X46288152Y-105166666D01*
X46288152Y-105166666D02*
X46383390Y-105214285D01*
X46383390Y-105214285D02*
X46431009Y-105261904D01*
X46431009Y-105261904D02*
X46478628Y-105357142D01*
X46478628Y-105357142D02*
X46478628Y-105738094D01*
X46288152Y-104309523D02*
X46954819Y-104309523D01*
X45907200Y-104547618D02*
X46621485Y-104785713D01*
X46621485Y-104785713D02*
X46621485Y-104166666D01*
X69454819Y-66666666D02*
X68978628Y-66999999D01*
X69454819Y-67238094D02*
X68454819Y-67238094D01*
X68454819Y-67238094D02*
X68454819Y-66857142D01*
X68454819Y-66857142D02*
X68502438Y-66761904D01*
X68502438Y-66761904D02*
X68550057Y-66714285D01*
X68550057Y-66714285D02*
X68645295Y-66666666D01*
X68645295Y-66666666D02*
X68788152Y-66666666D01*
X68788152Y-66666666D02*
X68883390Y-66714285D01*
X68883390Y-66714285D02*
X68931009Y-66761904D01*
X68931009Y-66761904D02*
X68978628Y-66857142D01*
X68978628Y-66857142D02*
X68978628Y-67238094D01*
X68883390Y-66095237D02*
X68835771Y-66190475D01*
X68835771Y-66190475D02*
X68788152Y-66238094D01*
X68788152Y-66238094D02*
X68692914Y-66285713D01*
X68692914Y-66285713D02*
X68645295Y-66285713D01*
X68645295Y-66285713D02*
X68550057Y-66238094D01*
X68550057Y-66238094D02*
X68502438Y-66190475D01*
X68502438Y-66190475D02*
X68454819Y-66095237D01*
X68454819Y-66095237D02*
X68454819Y-65904761D01*
X68454819Y-65904761D02*
X68502438Y-65809523D01*
X68502438Y-65809523D02*
X68550057Y-65761904D01*
X68550057Y-65761904D02*
X68645295Y-65714285D01*
X68645295Y-65714285D02*
X68692914Y-65714285D01*
X68692914Y-65714285D02*
X68788152Y-65761904D01*
X68788152Y-65761904D02*
X68835771Y-65809523D01*
X68835771Y-65809523D02*
X68883390Y-65904761D01*
X68883390Y-65904761D02*
X68883390Y-66095237D01*
X68883390Y-66095237D02*
X68931009Y-66190475D01*
X68931009Y-66190475D02*
X68978628Y-66238094D01*
X68978628Y-66238094D02*
X69073866Y-66285713D01*
X69073866Y-66285713D02*
X69264342Y-66285713D01*
X69264342Y-66285713D02*
X69359580Y-66238094D01*
X69359580Y-66238094D02*
X69407200Y-66190475D01*
X69407200Y-66190475D02*
X69454819Y-66095237D01*
X69454819Y-66095237D02*
X69454819Y-65904761D01*
X69454819Y-65904761D02*
X69407200Y-65809523D01*
X69407200Y-65809523D02*
X69359580Y-65761904D01*
X69359580Y-65761904D02*
X69264342Y-65714285D01*
X69264342Y-65714285D02*
X69073866Y-65714285D01*
X69073866Y-65714285D02*
X68978628Y-65761904D01*
X68978628Y-65761904D02*
X68931009Y-65809523D01*
X68931009Y-65809523D02*
X68883390Y-65904761D01*
X46793333Y-91454819D02*
X46460000Y-90978628D01*
X46221905Y-91454819D02*
X46221905Y-90454819D01*
X46221905Y-90454819D02*
X46602857Y-90454819D01*
X46602857Y-90454819D02*
X46698095Y-90502438D01*
X46698095Y-90502438D02*
X46745714Y-90550057D01*
X46745714Y-90550057D02*
X46793333Y-90645295D01*
X46793333Y-90645295D02*
X46793333Y-90788152D01*
X46793333Y-90788152D02*
X46745714Y-90883390D01*
X46745714Y-90883390D02*
X46698095Y-90931009D01*
X46698095Y-90931009D02*
X46602857Y-90978628D01*
X46602857Y-90978628D02*
X46221905Y-90978628D01*
X47269524Y-91454819D02*
X47460000Y-91454819D01*
X47460000Y-91454819D02*
X47555238Y-91407200D01*
X47555238Y-91407200D02*
X47602857Y-91359580D01*
X47602857Y-91359580D02*
X47698095Y-91216723D01*
X47698095Y-91216723D02*
X47745714Y-91026247D01*
X47745714Y-91026247D02*
X47745714Y-90645295D01*
X47745714Y-90645295D02*
X47698095Y-90550057D01*
X47698095Y-90550057D02*
X47650476Y-90502438D01*
X47650476Y-90502438D02*
X47555238Y-90454819D01*
X47555238Y-90454819D02*
X47364762Y-90454819D01*
X47364762Y-90454819D02*
X47269524Y-90502438D01*
X47269524Y-90502438D02*
X47221905Y-90550057D01*
X47221905Y-90550057D02*
X47174286Y-90645295D01*
X47174286Y-90645295D02*
X47174286Y-90883390D01*
X47174286Y-90883390D02*
X47221905Y-90978628D01*
X47221905Y-90978628D02*
X47269524Y-91026247D01*
X47269524Y-91026247D02*
X47364762Y-91073866D01*
X47364762Y-91073866D02*
X47555238Y-91073866D01*
X47555238Y-91073866D02*
X47650476Y-91026247D01*
X47650476Y-91026247D02*
X47698095Y-90978628D01*
X47698095Y-90978628D02*
X47745714Y-90883390D01*
X59437142Y-104954819D02*
X59103809Y-104478628D01*
X58865714Y-104954819D02*
X58865714Y-103954819D01*
X58865714Y-103954819D02*
X59246666Y-103954819D01*
X59246666Y-103954819D02*
X59341904Y-104002438D01*
X59341904Y-104002438D02*
X59389523Y-104050057D01*
X59389523Y-104050057D02*
X59437142Y-104145295D01*
X59437142Y-104145295D02*
X59437142Y-104288152D01*
X59437142Y-104288152D02*
X59389523Y-104383390D01*
X59389523Y-104383390D02*
X59341904Y-104431009D01*
X59341904Y-104431009D02*
X59246666Y-104478628D01*
X59246666Y-104478628D02*
X58865714Y-104478628D01*
X60389523Y-104954819D02*
X59818095Y-104954819D01*
X60103809Y-104954819D02*
X60103809Y-103954819D01*
X60103809Y-103954819D02*
X60008571Y-104097676D01*
X60008571Y-104097676D02*
X59913333Y-104192914D01*
X59913333Y-104192914D02*
X59818095Y-104240533D01*
X61008571Y-103954819D02*
X61103809Y-103954819D01*
X61103809Y-103954819D02*
X61199047Y-104002438D01*
X61199047Y-104002438D02*
X61246666Y-104050057D01*
X61246666Y-104050057D02*
X61294285Y-104145295D01*
X61294285Y-104145295D02*
X61341904Y-104335771D01*
X61341904Y-104335771D02*
X61341904Y-104573866D01*
X61341904Y-104573866D02*
X61294285Y-104764342D01*
X61294285Y-104764342D02*
X61246666Y-104859580D01*
X61246666Y-104859580D02*
X61199047Y-104907200D01*
X61199047Y-104907200D02*
X61103809Y-104954819D01*
X61103809Y-104954819D02*
X61008571Y-104954819D01*
X61008571Y-104954819D02*
X60913333Y-104907200D01*
X60913333Y-104907200D02*
X60865714Y-104859580D01*
X60865714Y-104859580D02*
X60818095Y-104764342D01*
X60818095Y-104764342D02*
X60770476Y-104573866D01*
X60770476Y-104573866D02*
X60770476Y-104335771D01*
X60770476Y-104335771D02*
X60818095Y-104145295D01*
X60818095Y-104145295D02*
X60865714Y-104050057D01*
X60865714Y-104050057D02*
X60913333Y-104002438D01*
X60913333Y-104002438D02*
X61008571Y-103954819D01*
X49571905Y-99454819D02*
X49571905Y-98454819D01*
X49571905Y-98454819D02*
X49810000Y-98454819D01*
X49810000Y-98454819D02*
X49952857Y-98502438D01*
X49952857Y-98502438D02*
X50048095Y-98597676D01*
X50048095Y-98597676D02*
X50095714Y-98692914D01*
X50095714Y-98692914D02*
X50143333Y-98883390D01*
X50143333Y-98883390D02*
X50143333Y-99026247D01*
X50143333Y-99026247D02*
X50095714Y-99216723D01*
X50095714Y-99216723D02*
X50048095Y-99311961D01*
X50048095Y-99311961D02*
X49952857Y-99407200D01*
X49952857Y-99407200D02*
X49810000Y-99454819D01*
X49810000Y-99454819D02*
X49571905Y-99454819D01*
X50524286Y-98550057D02*
X50571905Y-98502438D01*
X50571905Y-98502438D02*
X50667143Y-98454819D01*
X50667143Y-98454819D02*
X50905238Y-98454819D01*
X50905238Y-98454819D02*
X51000476Y-98502438D01*
X51000476Y-98502438D02*
X51048095Y-98550057D01*
X51048095Y-98550057D02*
X51095714Y-98645295D01*
X51095714Y-98645295D02*
X51095714Y-98740533D01*
X51095714Y-98740533D02*
X51048095Y-98883390D01*
X51048095Y-98883390D02*
X50476667Y-99454819D01*
X50476667Y-99454819D02*
X51095714Y-99454819D01*
X46238095Y-97654819D02*
X46238095Y-96654819D01*
X46809523Y-97654819D02*
X46380952Y-97083390D01*
X46809523Y-96654819D02*
X46238095Y-97226247D01*
X62071905Y-99454819D02*
X62071905Y-98454819D01*
X62071905Y-98454819D02*
X62310000Y-98454819D01*
X62310000Y-98454819D02*
X62452857Y-98502438D01*
X62452857Y-98502438D02*
X62548095Y-98597676D01*
X62548095Y-98597676D02*
X62595714Y-98692914D01*
X62595714Y-98692914D02*
X62643333Y-98883390D01*
X62643333Y-98883390D02*
X62643333Y-99026247D01*
X62643333Y-99026247D02*
X62595714Y-99216723D01*
X62595714Y-99216723D02*
X62548095Y-99311961D01*
X62548095Y-99311961D02*
X62452857Y-99407200D01*
X62452857Y-99407200D02*
X62310000Y-99454819D01*
X62310000Y-99454819D02*
X62071905Y-99454819D01*
X62976667Y-98454819D02*
X63595714Y-98454819D01*
X63595714Y-98454819D02*
X63262381Y-98835771D01*
X63262381Y-98835771D02*
X63405238Y-98835771D01*
X63405238Y-98835771D02*
X63500476Y-98883390D01*
X63500476Y-98883390D02*
X63548095Y-98931009D01*
X63548095Y-98931009D02*
X63595714Y-99026247D01*
X63595714Y-99026247D02*
X63595714Y-99264342D01*
X63595714Y-99264342D02*
X63548095Y-99359580D01*
X63548095Y-99359580D02*
X63500476Y-99407200D01*
X63500476Y-99407200D02*
X63405238Y-99454819D01*
X63405238Y-99454819D02*
X63119524Y-99454819D01*
X63119524Y-99454819D02*
X63024286Y-99407200D01*
X63024286Y-99407200D02*
X62976667Y-99359580D01*
X58738095Y-97654819D02*
X58738095Y-96654819D01*
X59309523Y-97654819D02*
X58880952Y-97083390D01*
X59309523Y-96654819D02*
X58738095Y-97226247D01*
X66954819Y-105166666D02*
X66478628Y-105499999D01*
X66954819Y-105738094D02*
X65954819Y-105738094D01*
X65954819Y-105738094D02*
X65954819Y-105357142D01*
X65954819Y-105357142D02*
X66002438Y-105261904D01*
X66002438Y-105261904D02*
X66050057Y-105214285D01*
X66050057Y-105214285D02*
X66145295Y-105166666D01*
X66145295Y-105166666D02*
X66288152Y-105166666D01*
X66288152Y-105166666D02*
X66383390Y-105214285D01*
X66383390Y-105214285D02*
X66431009Y-105261904D01*
X66431009Y-105261904D02*
X66478628Y-105357142D01*
X66478628Y-105357142D02*
X66478628Y-105738094D01*
X65954819Y-104833332D02*
X65954819Y-104214285D01*
X65954819Y-104214285D02*
X66335771Y-104547618D01*
X66335771Y-104547618D02*
X66335771Y-104404761D01*
X66335771Y-104404761D02*
X66383390Y-104309523D01*
X66383390Y-104309523D02*
X66431009Y-104261904D01*
X66431009Y-104261904D02*
X66526247Y-104214285D01*
X66526247Y-104214285D02*
X66764342Y-104214285D01*
X66764342Y-104214285D02*
X66859580Y-104261904D01*
X66859580Y-104261904D02*
X66907200Y-104309523D01*
X66907200Y-104309523D02*
X66954819Y-104404761D01*
X66954819Y-104404761D02*
X66954819Y-104690475D01*
X66954819Y-104690475D02*
X66907200Y-104785713D01*
X66907200Y-104785713D02*
X66859580Y-104833332D01*
X64897142Y-91454819D02*
X64563809Y-90978628D01*
X64325714Y-91454819D02*
X64325714Y-90454819D01*
X64325714Y-90454819D02*
X64706666Y-90454819D01*
X64706666Y-90454819D02*
X64801904Y-90502438D01*
X64801904Y-90502438D02*
X64849523Y-90550057D01*
X64849523Y-90550057D02*
X64897142Y-90645295D01*
X64897142Y-90645295D02*
X64897142Y-90788152D01*
X64897142Y-90788152D02*
X64849523Y-90883390D01*
X64849523Y-90883390D02*
X64801904Y-90931009D01*
X64801904Y-90931009D02*
X64706666Y-90978628D01*
X64706666Y-90978628D02*
X64325714Y-90978628D01*
X65849523Y-91454819D02*
X65278095Y-91454819D01*
X65563809Y-91454819D02*
X65563809Y-90454819D01*
X65563809Y-90454819D02*
X65468571Y-90597676D01*
X65468571Y-90597676D02*
X65373333Y-90692914D01*
X65373333Y-90692914D02*
X65278095Y-90740533D01*
X66230476Y-90550057D02*
X66278095Y-90502438D01*
X66278095Y-90502438D02*
X66373333Y-90454819D01*
X66373333Y-90454819D02*
X66611428Y-90454819D01*
X66611428Y-90454819D02*
X66706666Y-90502438D01*
X66706666Y-90502438D02*
X66754285Y-90550057D01*
X66754285Y-90550057D02*
X66801904Y-90645295D01*
X66801904Y-90645295D02*
X66801904Y-90740533D01*
X66801904Y-90740533D02*
X66754285Y-90883390D01*
X66754285Y-90883390D02*
X66182857Y-91454819D01*
X66182857Y-91454819D02*
X66801904Y-91454819D01*
X55954819Y-84102857D02*
X55478628Y-84436190D01*
X55954819Y-84674285D02*
X54954819Y-84674285D01*
X54954819Y-84674285D02*
X54954819Y-84293333D01*
X54954819Y-84293333D02*
X55002438Y-84198095D01*
X55002438Y-84198095D02*
X55050057Y-84150476D01*
X55050057Y-84150476D02*
X55145295Y-84102857D01*
X55145295Y-84102857D02*
X55288152Y-84102857D01*
X55288152Y-84102857D02*
X55383390Y-84150476D01*
X55383390Y-84150476D02*
X55431009Y-84198095D01*
X55431009Y-84198095D02*
X55478628Y-84293333D01*
X55478628Y-84293333D02*
X55478628Y-84674285D01*
X55954819Y-83150476D02*
X55954819Y-83721904D01*
X55954819Y-83436190D02*
X54954819Y-83436190D01*
X54954819Y-83436190D02*
X55097676Y-83531428D01*
X55097676Y-83531428D02*
X55192914Y-83626666D01*
X55192914Y-83626666D02*
X55240533Y-83721904D01*
X54954819Y-82817142D02*
X54954819Y-82198095D01*
X54954819Y-82198095D02*
X55335771Y-82531428D01*
X55335771Y-82531428D02*
X55335771Y-82388571D01*
X55335771Y-82388571D02*
X55383390Y-82293333D01*
X55383390Y-82293333D02*
X55431009Y-82245714D01*
X55431009Y-82245714D02*
X55526247Y-82198095D01*
X55526247Y-82198095D02*
X55764342Y-82198095D01*
X55764342Y-82198095D02*
X55859580Y-82245714D01*
X55859580Y-82245714D02*
X55907200Y-82293333D01*
X55907200Y-82293333D02*
X55954819Y-82388571D01*
X55954819Y-82388571D02*
X55954819Y-82674285D01*
X55954819Y-82674285D02*
X55907200Y-82769523D01*
X55907200Y-82769523D02*
X55859580Y-82817142D01*
X43359580Y-83416666D02*
X43407200Y-83464285D01*
X43407200Y-83464285D02*
X43454819Y-83607142D01*
X43454819Y-83607142D02*
X43454819Y-83702380D01*
X43454819Y-83702380D02*
X43407200Y-83845237D01*
X43407200Y-83845237D02*
X43311961Y-83940475D01*
X43311961Y-83940475D02*
X43216723Y-83988094D01*
X43216723Y-83988094D02*
X43026247Y-84035713D01*
X43026247Y-84035713D02*
X42883390Y-84035713D01*
X42883390Y-84035713D02*
X42692914Y-83988094D01*
X42692914Y-83988094D02*
X42597676Y-83940475D01*
X42597676Y-83940475D02*
X42502438Y-83845237D01*
X42502438Y-83845237D02*
X42454819Y-83702380D01*
X42454819Y-83702380D02*
X42454819Y-83607142D01*
X42454819Y-83607142D02*
X42502438Y-83464285D01*
X42502438Y-83464285D02*
X42550057Y-83416666D01*
X42454819Y-82559523D02*
X42454819Y-82749999D01*
X42454819Y-82749999D02*
X42502438Y-82845237D01*
X42502438Y-82845237D02*
X42550057Y-82892856D01*
X42550057Y-82892856D02*
X42692914Y-82988094D01*
X42692914Y-82988094D02*
X42883390Y-83035713D01*
X42883390Y-83035713D02*
X43264342Y-83035713D01*
X43264342Y-83035713D02*
X43359580Y-82988094D01*
X43359580Y-82988094D02*
X43407200Y-82940475D01*
X43407200Y-82940475D02*
X43454819Y-82845237D01*
X43454819Y-82845237D02*
X43454819Y-82654761D01*
X43454819Y-82654761D02*
X43407200Y-82559523D01*
X43407200Y-82559523D02*
X43359580Y-82511904D01*
X43359580Y-82511904D02*
X43264342Y-82464285D01*
X43264342Y-82464285D02*
X43026247Y-82464285D01*
X43026247Y-82464285D02*
X42931009Y-82511904D01*
X42931009Y-82511904D02*
X42883390Y-82559523D01*
X42883390Y-82559523D02*
X42835771Y-82654761D01*
X42835771Y-82654761D02*
X42835771Y-82845237D01*
X42835771Y-82845237D02*
X42883390Y-82940475D01*
X42883390Y-82940475D02*
X42931009Y-82988094D01*
X42931009Y-82988094D02*
X43026247Y-83035713D01*
X62609580Y-83416666D02*
X62657200Y-83464285D01*
X62657200Y-83464285D02*
X62704819Y-83607142D01*
X62704819Y-83607142D02*
X62704819Y-83702380D01*
X62704819Y-83702380D02*
X62657200Y-83845237D01*
X62657200Y-83845237D02*
X62561961Y-83940475D01*
X62561961Y-83940475D02*
X62466723Y-83988094D01*
X62466723Y-83988094D02*
X62276247Y-84035713D01*
X62276247Y-84035713D02*
X62133390Y-84035713D01*
X62133390Y-84035713D02*
X61942914Y-83988094D01*
X61942914Y-83988094D02*
X61847676Y-83940475D01*
X61847676Y-83940475D02*
X61752438Y-83845237D01*
X61752438Y-83845237D02*
X61704819Y-83702380D01*
X61704819Y-83702380D02*
X61704819Y-83607142D01*
X61704819Y-83607142D02*
X61752438Y-83464285D01*
X61752438Y-83464285D02*
X61800057Y-83416666D01*
X62704819Y-82940475D02*
X62704819Y-82749999D01*
X62704819Y-82749999D02*
X62657200Y-82654761D01*
X62657200Y-82654761D02*
X62609580Y-82607142D01*
X62609580Y-82607142D02*
X62466723Y-82511904D01*
X62466723Y-82511904D02*
X62276247Y-82464285D01*
X62276247Y-82464285D02*
X61895295Y-82464285D01*
X61895295Y-82464285D02*
X61800057Y-82511904D01*
X61800057Y-82511904D02*
X61752438Y-82559523D01*
X61752438Y-82559523D02*
X61704819Y-82654761D01*
X61704819Y-82654761D02*
X61704819Y-82845237D01*
X61704819Y-82845237D02*
X61752438Y-82940475D01*
X61752438Y-82940475D02*
X61800057Y-82988094D01*
X61800057Y-82988094D02*
X61895295Y-83035713D01*
X61895295Y-83035713D02*
X62133390Y-83035713D01*
X62133390Y-83035713D02*
X62228628Y-82988094D01*
X62228628Y-82988094D02*
X62276247Y-82940475D01*
X62276247Y-82940475D02*
X62323866Y-82845237D01*
X62323866Y-82845237D02*
X62323866Y-82654761D01*
X62323866Y-82654761D02*
X62276247Y-82559523D01*
X62276247Y-82559523D02*
X62228628Y-82511904D01*
X62228628Y-82511904D02*
X62133390Y-82464285D01*
X45333333Y-72859580D02*
X45285714Y-72907200D01*
X45285714Y-72907200D02*
X45142857Y-72954819D01*
X45142857Y-72954819D02*
X45047619Y-72954819D01*
X45047619Y-72954819D02*
X44904762Y-72907200D01*
X44904762Y-72907200D02*
X44809524Y-72811961D01*
X44809524Y-72811961D02*
X44761905Y-72716723D01*
X44761905Y-72716723D02*
X44714286Y-72526247D01*
X44714286Y-72526247D02*
X44714286Y-72383390D01*
X44714286Y-72383390D02*
X44761905Y-72192914D01*
X44761905Y-72192914D02*
X44809524Y-72097676D01*
X44809524Y-72097676D02*
X44904762Y-72002438D01*
X44904762Y-72002438D02*
X45047619Y-71954819D01*
X45047619Y-71954819D02*
X45142857Y-71954819D01*
X45142857Y-71954819D02*
X45285714Y-72002438D01*
X45285714Y-72002438D02*
X45333333Y-72050057D01*
X45666667Y-71954819D02*
X46333333Y-71954819D01*
X46333333Y-71954819D02*
X45904762Y-72954819D01*
X55357142Y-72859580D02*
X55309523Y-72907200D01*
X55309523Y-72907200D02*
X55166666Y-72954819D01*
X55166666Y-72954819D02*
X55071428Y-72954819D01*
X55071428Y-72954819D02*
X54928571Y-72907200D01*
X54928571Y-72907200D02*
X54833333Y-72811961D01*
X54833333Y-72811961D02*
X54785714Y-72716723D01*
X54785714Y-72716723D02*
X54738095Y-72526247D01*
X54738095Y-72526247D02*
X54738095Y-72383390D01*
X54738095Y-72383390D02*
X54785714Y-72192914D01*
X54785714Y-72192914D02*
X54833333Y-72097676D01*
X54833333Y-72097676D02*
X54928571Y-72002438D01*
X54928571Y-72002438D02*
X55071428Y-71954819D01*
X55071428Y-71954819D02*
X55166666Y-71954819D01*
X55166666Y-71954819D02*
X55309523Y-72002438D01*
X55309523Y-72002438D02*
X55357142Y-72050057D01*
X56309523Y-72954819D02*
X55738095Y-72954819D01*
X56023809Y-72954819D02*
X56023809Y-71954819D01*
X56023809Y-71954819D02*
X55928571Y-72097676D01*
X55928571Y-72097676D02*
X55833333Y-72192914D01*
X55833333Y-72192914D02*
X55738095Y-72240533D01*
X56928571Y-71954819D02*
X57023809Y-71954819D01*
X57023809Y-71954819D02*
X57119047Y-72002438D01*
X57119047Y-72002438D02*
X57166666Y-72050057D01*
X57166666Y-72050057D02*
X57214285Y-72145295D01*
X57214285Y-72145295D02*
X57261904Y-72335771D01*
X57261904Y-72335771D02*
X57261904Y-72573866D01*
X57261904Y-72573866D02*
X57214285Y-72764342D01*
X57214285Y-72764342D02*
X57166666Y-72859580D01*
X57166666Y-72859580D02*
X57119047Y-72907200D01*
X57119047Y-72907200D02*
X57023809Y-72954819D01*
X57023809Y-72954819D02*
X56928571Y-72954819D01*
X56928571Y-72954819D02*
X56833333Y-72907200D01*
X56833333Y-72907200D02*
X56785714Y-72859580D01*
X56785714Y-72859580D02*
X56738095Y-72764342D01*
X56738095Y-72764342D02*
X56690476Y-72573866D01*
X56690476Y-72573866D02*
X56690476Y-72335771D01*
X56690476Y-72335771D02*
X56738095Y-72145295D01*
X56738095Y-72145295D02*
X56785714Y-72050057D01*
X56785714Y-72050057D02*
X56833333Y-72002438D01*
X56833333Y-72002438D02*
X56928571Y-71954819D01*
X53166666Y-88894819D02*
X53166666Y-89609104D01*
X53166666Y-89609104D02*
X53119047Y-89751961D01*
X53119047Y-89751961D02*
X53023809Y-89847200D01*
X53023809Y-89847200D02*
X52880952Y-89894819D01*
X52880952Y-89894819D02*
X52785714Y-89894819D01*
X53547619Y-88894819D02*
X54166666Y-88894819D01*
X54166666Y-88894819D02*
X53833333Y-89275771D01*
X53833333Y-89275771D02*
X53976190Y-89275771D01*
X53976190Y-89275771D02*
X54071428Y-89323390D01*
X54071428Y-89323390D02*
X54119047Y-89371009D01*
X54119047Y-89371009D02*
X54166666Y-89466247D01*
X54166666Y-89466247D02*
X54166666Y-89704342D01*
X54166666Y-89704342D02*
X54119047Y-89799580D01*
X54119047Y-89799580D02*
X54071428Y-89847200D01*
X54071428Y-89847200D02*
X53976190Y-89894819D01*
X53976190Y-89894819D02*
X53690476Y-89894819D01*
X53690476Y-89894819D02*
X53595238Y-89847200D01*
X53595238Y-89847200D02*
X53547619Y-89799580D01*
X86666666Y-88894819D02*
X86666666Y-89609104D01*
X86666666Y-89609104D02*
X86619047Y-89751961D01*
X86619047Y-89751961D02*
X86523809Y-89847200D01*
X86523809Y-89847200D02*
X86380952Y-89894819D01*
X86380952Y-89894819D02*
X86285714Y-89894819D01*
X87571428Y-88894819D02*
X87380952Y-88894819D01*
X87380952Y-88894819D02*
X87285714Y-88942438D01*
X87285714Y-88942438D02*
X87238095Y-88990057D01*
X87238095Y-88990057D02*
X87142857Y-89132914D01*
X87142857Y-89132914D02*
X87095238Y-89323390D01*
X87095238Y-89323390D02*
X87095238Y-89704342D01*
X87095238Y-89704342D02*
X87142857Y-89799580D01*
X87142857Y-89799580D02*
X87190476Y-89847200D01*
X87190476Y-89847200D02*
X87285714Y-89894819D01*
X87285714Y-89894819D02*
X87476190Y-89894819D01*
X87476190Y-89894819D02*
X87571428Y-89847200D01*
X87571428Y-89847200D02*
X87619047Y-89799580D01*
X87619047Y-89799580D02*
X87666666Y-89704342D01*
X87666666Y-89704342D02*
X87666666Y-89466247D01*
X87666666Y-89466247D02*
X87619047Y-89371009D01*
X87619047Y-89371009D02*
X87571428Y-89323390D01*
X87571428Y-89323390D02*
X87476190Y-89275771D01*
X87476190Y-89275771D02*
X87285714Y-89275771D01*
X87285714Y-89275771D02*
X87190476Y-89323390D01*
X87190476Y-89323390D02*
X87142857Y-89371009D01*
X87142857Y-89371009D02*
X87095238Y-89466247D01*
X93454819Y-104602857D02*
X92978628Y-104936190D01*
X93454819Y-105174285D02*
X92454819Y-105174285D01*
X92454819Y-105174285D02*
X92454819Y-104793333D01*
X92454819Y-104793333D02*
X92502438Y-104698095D01*
X92502438Y-104698095D02*
X92550057Y-104650476D01*
X92550057Y-104650476D02*
X92645295Y-104602857D01*
X92645295Y-104602857D02*
X92788152Y-104602857D01*
X92788152Y-104602857D02*
X92883390Y-104650476D01*
X92883390Y-104650476D02*
X92931009Y-104698095D01*
X92931009Y-104698095D02*
X92978628Y-104793333D01*
X92978628Y-104793333D02*
X92978628Y-105174285D01*
X93454819Y-103650476D02*
X93454819Y-104221904D01*
X93454819Y-103936190D02*
X92454819Y-103936190D01*
X92454819Y-103936190D02*
X92597676Y-104031428D01*
X92597676Y-104031428D02*
X92692914Y-104126666D01*
X92692914Y-104126666D02*
X92740533Y-104221904D01*
X92788152Y-102793333D02*
X93454819Y-102793333D01*
X92407200Y-103031428D02*
X93121485Y-103269523D01*
X93121485Y-103269523D02*
X93121485Y-102650476D01*
X72359580Y-58892857D02*
X72407200Y-58940476D01*
X72407200Y-58940476D02*
X72454819Y-59083333D01*
X72454819Y-59083333D02*
X72454819Y-59178571D01*
X72454819Y-59178571D02*
X72407200Y-59321428D01*
X72407200Y-59321428D02*
X72311961Y-59416666D01*
X72311961Y-59416666D02*
X72216723Y-59464285D01*
X72216723Y-59464285D02*
X72026247Y-59511904D01*
X72026247Y-59511904D02*
X71883390Y-59511904D01*
X71883390Y-59511904D02*
X71692914Y-59464285D01*
X71692914Y-59464285D02*
X71597676Y-59416666D01*
X71597676Y-59416666D02*
X71502438Y-59321428D01*
X71502438Y-59321428D02*
X71454819Y-59178571D01*
X71454819Y-59178571D02*
X71454819Y-59083333D01*
X71454819Y-59083333D02*
X71502438Y-58940476D01*
X71502438Y-58940476D02*
X71550057Y-58892857D01*
X72454819Y-57940476D02*
X72454819Y-58511904D01*
X72454819Y-58226190D02*
X71454819Y-58226190D01*
X71454819Y-58226190D02*
X71597676Y-58321428D01*
X71597676Y-58321428D02*
X71692914Y-58416666D01*
X71692914Y-58416666D02*
X71740533Y-58511904D01*
X72454819Y-57464285D02*
X72454819Y-57273809D01*
X72454819Y-57273809D02*
X72407200Y-57178571D01*
X72407200Y-57178571D02*
X72359580Y-57130952D01*
X72359580Y-57130952D02*
X72216723Y-57035714D01*
X72216723Y-57035714D02*
X72026247Y-56988095D01*
X72026247Y-56988095D02*
X71645295Y-56988095D01*
X71645295Y-56988095D02*
X71550057Y-57035714D01*
X71550057Y-57035714D02*
X71502438Y-57083333D01*
X71502438Y-57083333D02*
X71454819Y-57178571D01*
X71454819Y-57178571D02*
X71454819Y-57369047D01*
X71454819Y-57369047D02*
X71502438Y-57464285D01*
X71502438Y-57464285D02*
X71550057Y-57511904D01*
X71550057Y-57511904D02*
X71645295Y-57559523D01*
X71645295Y-57559523D02*
X71883390Y-57559523D01*
X71883390Y-57559523D02*
X71978628Y-57511904D01*
X71978628Y-57511904D02*
X72026247Y-57464285D01*
X72026247Y-57464285D02*
X72073866Y-57369047D01*
X72073866Y-57369047D02*
X72073866Y-57178571D01*
X72073866Y-57178571D02*
X72026247Y-57083333D01*
X72026247Y-57083333D02*
X71978628Y-57035714D01*
X71978628Y-57035714D02*
X71883390Y-56988095D01*
X72690476Y-115704819D02*
X72690476Y-116419104D01*
X72690476Y-116419104D02*
X72642857Y-116561961D01*
X72642857Y-116561961D02*
X72547619Y-116657200D01*
X72547619Y-116657200D02*
X72404762Y-116704819D01*
X72404762Y-116704819D02*
X72309524Y-116704819D01*
X73690476Y-116704819D02*
X73119048Y-116704819D01*
X73404762Y-116704819D02*
X73404762Y-115704819D01*
X73404762Y-115704819D02*
X73309524Y-115847676D01*
X73309524Y-115847676D02*
X73214286Y-115942914D01*
X73214286Y-115942914D02*
X73119048Y-115990533D01*
X74023810Y-115704819D02*
X74690476Y-115704819D01*
X74690476Y-115704819D02*
X74261905Y-116704819D01*
X93857142Y-91454819D02*
X93523809Y-90978628D01*
X93285714Y-91454819D02*
X93285714Y-90454819D01*
X93285714Y-90454819D02*
X93666666Y-90454819D01*
X93666666Y-90454819D02*
X93761904Y-90502438D01*
X93761904Y-90502438D02*
X93809523Y-90550057D01*
X93809523Y-90550057D02*
X93857142Y-90645295D01*
X93857142Y-90645295D02*
X93857142Y-90788152D01*
X93857142Y-90788152D02*
X93809523Y-90883390D01*
X93809523Y-90883390D02*
X93761904Y-90931009D01*
X93761904Y-90931009D02*
X93666666Y-90978628D01*
X93666666Y-90978628D02*
X93285714Y-90978628D01*
X94238095Y-90550057D02*
X94285714Y-90502438D01*
X94285714Y-90502438D02*
X94380952Y-90454819D01*
X94380952Y-90454819D02*
X94619047Y-90454819D01*
X94619047Y-90454819D02*
X94714285Y-90502438D01*
X94714285Y-90502438D02*
X94761904Y-90550057D01*
X94761904Y-90550057D02*
X94809523Y-90645295D01*
X94809523Y-90645295D02*
X94809523Y-90740533D01*
X94809523Y-90740533D02*
X94761904Y-90883390D01*
X94761904Y-90883390D02*
X94190476Y-91454819D01*
X94190476Y-91454819D02*
X94809523Y-91454819D01*
X95428571Y-90454819D02*
X95523809Y-90454819D01*
X95523809Y-90454819D02*
X95619047Y-90502438D01*
X95619047Y-90502438D02*
X95666666Y-90550057D01*
X95666666Y-90550057D02*
X95714285Y-90645295D01*
X95714285Y-90645295D02*
X95761904Y-90835771D01*
X95761904Y-90835771D02*
X95761904Y-91073866D01*
X95761904Y-91073866D02*
X95714285Y-91264342D01*
X95714285Y-91264342D02*
X95666666Y-91359580D01*
X95666666Y-91359580D02*
X95619047Y-91407200D01*
X95619047Y-91407200D02*
X95523809Y-91454819D01*
X95523809Y-91454819D02*
X95428571Y-91454819D01*
X95428571Y-91454819D02*
X95333333Y-91407200D01*
X95333333Y-91407200D02*
X95285714Y-91359580D01*
X95285714Y-91359580D02*
X95238095Y-91264342D01*
X95238095Y-91264342D02*
X95190476Y-91073866D01*
X95190476Y-91073866D02*
X95190476Y-90835771D01*
X95190476Y-90835771D02*
X95238095Y-90645295D01*
X95238095Y-90645295D02*
X95285714Y-90550057D01*
X95285714Y-90550057D02*
X95333333Y-90502438D01*
X95333333Y-90502438D02*
X95428571Y-90454819D01*
X70713095Y-71944819D02*
X70713095Y-72754342D01*
X70713095Y-72754342D02*
X70760714Y-72849580D01*
X70760714Y-72849580D02*
X70808333Y-72897200D01*
X70808333Y-72897200D02*
X70903571Y-72944819D01*
X70903571Y-72944819D02*
X71094047Y-72944819D01*
X71094047Y-72944819D02*
X71189285Y-72897200D01*
X71189285Y-72897200D02*
X71236904Y-72849580D01*
X71236904Y-72849580D02*
X71284523Y-72754342D01*
X71284523Y-72754342D02*
X71284523Y-71944819D01*
X71713095Y-72040057D02*
X71760714Y-71992438D01*
X71760714Y-71992438D02*
X71855952Y-71944819D01*
X71855952Y-71944819D02*
X72094047Y-71944819D01*
X72094047Y-71944819D02*
X72189285Y-71992438D01*
X72189285Y-71992438D02*
X72236904Y-72040057D01*
X72236904Y-72040057D02*
X72284523Y-72135295D01*
X72284523Y-72135295D02*
X72284523Y-72230533D01*
X72284523Y-72230533D02*
X72236904Y-72373390D01*
X72236904Y-72373390D02*
X71665476Y-72944819D01*
X71665476Y-72944819D02*
X72284523Y-72944819D01*
X88261905Y-95454819D02*
X88261905Y-94454819D01*
X88261905Y-94454819D02*
X88500000Y-94454819D01*
X88500000Y-94454819D02*
X88642857Y-94502438D01*
X88642857Y-94502438D02*
X88738095Y-94597676D01*
X88738095Y-94597676D02*
X88785714Y-94692914D01*
X88785714Y-94692914D02*
X88833333Y-94883390D01*
X88833333Y-94883390D02*
X88833333Y-95026247D01*
X88833333Y-95026247D02*
X88785714Y-95216723D01*
X88785714Y-95216723D02*
X88738095Y-95311961D01*
X88738095Y-95311961D02*
X88642857Y-95407200D01*
X88642857Y-95407200D02*
X88500000Y-95454819D01*
X88500000Y-95454819D02*
X88261905Y-95454819D01*
X89309524Y-95454819D02*
X89500000Y-95454819D01*
X89500000Y-95454819D02*
X89595238Y-95407200D01*
X89595238Y-95407200D02*
X89642857Y-95359580D01*
X89642857Y-95359580D02*
X89738095Y-95216723D01*
X89738095Y-95216723D02*
X89785714Y-95026247D01*
X89785714Y-95026247D02*
X89785714Y-94645295D01*
X89785714Y-94645295D02*
X89738095Y-94550057D01*
X89738095Y-94550057D02*
X89690476Y-94502438D01*
X89690476Y-94502438D02*
X89595238Y-94454819D01*
X89595238Y-94454819D02*
X89404762Y-94454819D01*
X89404762Y-94454819D02*
X89309524Y-94502438D01*
X89309524Y-94502438D02*
X89261905Y-94550057D01*
X89261905Y-94550057D02*
X89214286Y-94645295D01*
X89214286Y-94645295D02*
X89214286Y-94883390D01*
X89214286Y-94883390D02*
X89261905Y-94978628D01*
X89261905Y-94978628D02*
X89309524Y-95026247D01*
X89309524Y-95026247D02*
X89404762Y-95073866D01*
X89404762Y-95073866D02*
X89595238Y-95073866D01*
X89595238Y-95073866D02*
X89690476Y-95026247D01*
X89690476Y-95026247D02*
X89738095Y-94978628D01*
X89738095Y-94978628D02*
X89785714Y-94883390D01*
X84618095Y-93614819D02*
X84618095Y-92614819D01*
X85189523Y-93614819D02*
X84760952Y-93043390D01*
X85189523Y-92614819D02*
X84618095Y-93186247D01*
X74454819Y-67102857D02*
X73978628Y-67436190D01*
X74454819Y-67674285D02*
X73454819Y-67674285D01*
X73454819Y-67674285D02*
X73454819Y-67293333D01*
X73454819Y-67293333D02*
X73502438Y-67198095D01*
X73502438Y-67198095D02*
X73550057Y-67150476D01*
X73550057Y-67150476D02*
X73645295Y-67102857D01*
X73645295Y-67102857D02*
X73788152Y-67102857D01*
X73788152Y-67102857D02*
X73883390Y-67150476D01*
X73883390Y-67150476D02*
X73931009Y-67198095D01*
X73931009Y-67198095D02*
X73978628Y-67293333D01*
X73978628Y-67293333D02*
X73978628Y-67674285D01*
X73550057Y-66721904D02*
X73502438Y-66674285D01*
X73502438Y-66674285D02*
X73454819Y-66579047D01*
X73454819Y-66579047D02*
X73454819Y-66340952D01*
X73454819Y-66340952D02*
X73502438Y-66245714D01*
X73502438Y-66245714D02*
X73550057Y-66198095D01*
X73550057Y-66198095D02*
X73645295Y-66150476D01*
X73645295Y-66150476D02*
X73740533Y-66150476D01*
X73740533Y-66150476D02*
X73883390Y-66198095D01*
X73883390Y-66198095D02*
X74454819Y-66769523D01*
X74454819Y-66769523D02*
X74454819Y-66150476D01*
X73454819Y-65245714D02*
X73454819Y-65721904D01*
X73454819Y-65721904D02*
X73931009Y-65769523D01*
X73931009Y-65769523D02*
X73883390Y-65721904D01*
X73883390Y-65721904D02*
X73835771Y-65626666D01*
X73835771Y-65626666D02*
X73835771Y-65388571D01*
X73835771Y-65388571D02*
X73883390Y-65293333D01*
X73883390Y-65293333D02*
X73931009Y-65245714D01*
X73931009Y-65245714D02*
X74026247Y-65198095D01*
X74026247Y-65198095D02*
X74264342Y-65198095D01*
X74264342Y-65198095D02*
X74359580Y-65245714D01*
X74359580Y-65245714D02*
X74407200Y-65293333D01*
X74407200Y-65293333D02*
X74454819Y-65388571D01*
X74454819Y-65388571D02*
X74454819Y-65626666D01*
X74454819Y-65626666D02*
X74407200Y-65721904D01*
X74407200Y-65721904D02*
X74359580Y-65769523D01*
X94690476Y-33704819D02*
X94690476Y-34419104D01*
X94690476Y-34419104D02*
X94642857Y-34561961D01*
X94642857Y-34561961D02*
X94547619Y-34657200D01*
X94547619Y-34657200D02*
X94404762Y-34704819D01*
X94404762Y-34704819D02*
X94309524Y-34704819D01*
X95690476Y-34704819D02*
X95119048Y-34704819D01*
X95404762Y-34704819D02*
X95404762Y-33704819D01*
X95404762Y-33704819D02*
X95309524Y-33847676D01*
X95309524Y-33847676D02*
X95214286Y-33942914D01*
X95214286Y-33942914D02*
X95119048Y-33990533D01*
X96071429Y-33800057D02*
X96119048Y-33752438D01*
X96119048Y-33752438D02*
X96214286Y-33704819D01*
X96214286Y-33704819D02*
X96452381Y-33704819D01*
X96452381Y-33704819D02*
X96547619Y-33752438D01*
X96547619Y-33752438D02*
X96595238Y-33800057D01*
X96595238Y-33800057D02*
X96642857Y-33895295D01*
X96642857Y-33895295D02*
X96642857Y-33990533D01*
X96642857Y-33990533D02*
X96595238Y-34133390D01*
X96595238Y-34133390D02*
X96023810Y-34704819D01*
X96023810Y-34704819D02*
X96642857Y-34704819D01*
X76261905Y-95494819D02*
X76261905Y-94494819D01*
X76261905Y-94494819D02*
X76500000Y-94494819D01*
X76500000Y-94494819D02*
X76642857Y-94542438D01*
X76642857Y-94542438D02*
X76738095Y-94637676D01*
X76738095Y-94637676D02*
X76785714Y-94732914D01*
X76785714Y-94732914D02*
X76833333Y-94923390D01*
X76833333Y-94923390D02*
X76833333Y-95066247D01*
X76833333Y-95066247D02*
X76785714Y-95256723D01*
X76785714Y-95256723D02*
X76738095Y-95351961D01*
X76738095Y-95351961D02*
X76642857Y-95447200D01*
X76642857Y-95447200D02*
X76500000Y-95494819D01*
X76500000Y-95494819D02*
X76261905Y-95494819D01*
X77404762Y-94923390D02*
X77309524Y-94875771D01*
X77309524Y-94875771D02*
X77261905Y-94828152D01*
X77261905Y-94828152D02*
X77214286Y-94732914D01*
X77214286Y-94732914D02*
X77214286Y-94685295D01*
X77214286Y-94685295D02*
X77261905Y-94590057D01*
X77261905Y-94590057D02*
X77309524Y-94542438D01*
X77309524Y-94542438D02*
X77404762Y-94494819D01*
X77404762Y-94494819D02*
X77595238Y-94494819D01*
X77595238Y-94494819D02*
X77690476Y-94542438D01*
X77690476Y-94542438D02*
X77738095Y-94590057D01*
X77738095Y-94590057D02*
X77785714Y-94685295D01*
X77785714Y-94685295D02*
X77785714Y-94732914D01*
X77785714Y-94732914D02*
X77738095Y-94828152D01*
X77738095Y-94828152D02*
X77690476Y-94875771D01*
X77690476Y-94875771D02*
X77595238Y-94923390D01*
X77595238Y-94923390D02*
X77404762Y-94923390D01*
X77404762Y-94923390D02*
X77309524Y-94971009D01*
X77309524Y-94971009D02*
X77261905Y-95018628D01*
X77261905Y-95018628D02*
X77214286Y-95113866D01*
X77214286Y-95113866D02*
X77214286Y-95304342D01*
X77214286Y-95304342D02*
X77261905Y-95399580D01*
X77261905Y-95399580D02*
X77309524Y-95447200D01*
X77309524Y-95447200D02*
X77404762Y-95494819D01*
X77404762Y-95494819D02*
X77595238Y-95494819D01*
X77595238Y-95494819D02*
X77690476Y-95447200D01*
X77690476Y-95447200D02*
X77738095Y-95399580D01*
X77738095Y-95399580D02*
X77785714Y-95304342D01*
X77785714Y-95304342D02*
X77785714Y-95113866D01*
X77785714Y-95113866D02*
X77738095Y-95018628D01*
X77738095Y-95018628D02*
X77690476Y-94971009D01*
X77690476Y-94971009D02*
X77595238Y-94923390D01*
X72928095Y-93694819D02*
X72928095Y-92694819D01*
X73499523Y-93694819D02*
X73070952Y-93123390D01*
X73499523Y-92694819D02*
X72928095Y-93266247D01*
X77359580Y-58892857D02*
X77407200Y-58940476D01*
X77407200Y-58940476D02*
X77454819Y-59083333D01*
X77454819Y-59083333D02*
X77454819Y-59178571D01*
X77454819Y-59178571D02*
X77407200Y-59321428D01*
X77407200Y-59321428D02*
X77311961Y-59416666D01*
X77311961Y-59416666D02*
X77216723Y-59464285D01*
X77216723Y-59464285D02*
X77026247Y-59511904D01*
X77026247Y-59511904D02*
X76883390Y-59511904D01*
X76883390Y-59511904D02*
X76692914Y-59464285D01*
X76692914Y-59464285D02*
X76597676Y-59416666D01*
X76597676Y-59416666D02*
X76502438Y-59321428D01*
X76502438Y-59321428D02*
X76454819Y-59178571D01*
X76454819Y-59178571D02*
X76454819Y-59083333D01*
X76454819Y-59083333D02*
X76502438Y-58940476D01*
X76502438Y-58940476D02*
X76550057Y-58892857D01*
X77454819Y-57940476D02*
X77454819Y-58511904D01*
X77454819Y-58226190D02*
X76454819Y-58226190D01*
X76454819Y-58226190D02*
X76597676Y-58321428D01*
X76597676Y-58321428D02*
X76692914Y-58416666D01*
X76692914Y-58416666D02*
X76740533Y-58511904D01*
X76883390Y-57369047D02*
X76835771Y-57464285D01*
X76835771Y-57464285D02*
X76788152Y-57511904D01*
X76788152Y-57511904D02*
X76692914Y-57559523D01*
X76692914Y-57559523D02*
X76645295Y-57559523D01*
X76645295Y-57559523D02*
X76550057Y-57511904D01*
X76550057Y-57511904D02*
X76502438Y-57464285D01*
X76502438Y-57464285D02*
X76454819Y-57369047D01*
X76454819Y-57369047D02*
X76454819Y-57178571D01*
X76454819Y-57178571D02*
X76502438Y-57083333D01*
X76502438Y-57083333D02*
X76550057Y-57035714D01*
X76550057Y-57035714D02*
X76645295Y-56988095D01*
X76645295Y-56988095D02*
X76692914Y-56988095D01*
X76692914Y-56988095D02*
X76788152Y-57035714D01*
X76788152Y-57035714D02*
X76835771Y-57083333D01*
X76835771Y-57083333D02*
X76883390Y-57178571D01*
X76883390Y-57178571D02*
X76883390Y-57369047D01*
X76883390Y-57369047D02*
X76931009Y-57464285D01*
X76931009Y-57464285D02*
X76978628Y-57511904D01*
X76978628Y-57511904D02*
X77073866Y-57559523D01*
X77073866Y-57559523D02*
X77264342Y-57559523D01*
X77264342Y-57559523D02*
X77359580Y-57511904D01*
X77359580Y-57511904D02*
X77407200Y-57464285D01*
X77407200Y-57464285D02*
X77454819Y-57369047D01*
X77454819Y-57369047D02*
X77454819Y-57178571D01*
X77454819Y-57178571D02*
X77407200Y-57083333D01*
X77407200Y-57083333D02*
X77359580Y-57035714D01*
X77359580Y-57035714D02*
X77264342Y-56988095D01*
X77264342Y-56988095D02*
X77073866Y-56988095D01*
X77073866Y-56988095D02*
X76978628Y-57035714D01*
X76978628Y-57035714D02*
X76931009Y-57083333D01*
X76931009Y-57083333D02*
X76883390Y-57178571D01*
X81690476Y-115704819D02*
X81690476Y-116419104D01*
X81690476Y-116419104D02*
X81642857Y-116561961D01*
X81642857Y-116561961D02*
X81547619Y-116657200D01*
X81547619Y-116657200D02*
X81404762Y-116704819D01*
X81404762Y-116704819D02*
X81309524Y-116704819D01*
X82690476Y-116704819D02*
X82119048Y-116704819D01*
X82404762Y-116704819D02*
X82404762Y-115704819D01*
X82404762Y-115704819D02*
X82309524Y-115847676D01*
X82309524Y-115847676D02*
X82214286Y-115942914D01*
X82214286Y-115942914D02*
X82119048Y-115990533D01*
X83547619Y-115704819D02*
X83357143Y-115704819D01*
X83357143Y-115704819D02*
X83261905Y-115752438D01*
X83261905Y-115752438D02*
X83214286Y-115800057D01*
X83214286Y-115800057D02*
X83119048Y-115942914D01*
X83119048Y-115942914D02*
X83071429Y-116133390D01*
X83071429Y-116133390D02*
X83071429Y-116514342D01*
X83071429Y-116514342D02*
X83119048Y-116609580D01*
X83119048Y-116609580D02*
X83166667Y-116657200D01*
X83166667Y-116657200D02*
X83261905Y-116704819D01*
X83261905Y-116704819D02*
X83452381Y-116704819D01*
X83452381Y-116704819D02*
X83547619Y-116657200D01*
X83547619Y-116657200D02*
X83595238Y-116609580D01*
X83595238Y-116609580D02*
X83642857Y-116514342D01*
X83642857Y-116514342D02*
X83642857Y-116276247D01*
X83642857Y-116276247D02*
X83595238Y-116181009D01*
X83595238Y-116181009D02*
X83547619Y-116133390D01*
X83547619Y-116133390D02*
X83452381Y-116085771D01*
X83452381Y-116085771D02*
X83261905Y-116085771D01*
X83261905Y-116085771D02*
X83166667Y-116133390D01*
X83166667Y-116133390D02*
X83119048Y-116181009D01*
X83119048Y-116181009D02*
X83071429Y-116276247D01*
X84857142Y-64454819D02*
X84523809Y-63978628D01*
X84285714Y-64454819D02*
X84285714Y-63454819D01*
X84285714Y-63454819D02*
X84666666Y-63454819D01*
X84666666Y-63454819D02*
X84761904Y-63502438D01*
X84761904Y-63502438D02*
X84809523Y-63550057D01*
X84809523Y-63550057D02*
X84857142Y-63645295D01*
X84857142Y-63645295D02*
X84857142Y-63788152D01*
X84857142Y-63788152D02*
X84809523Y-63883390D01*
X84809523Y-63883390D02*
X84761904Y-63931009D01*
X84761904Y-63931009D02*
X84666666Y-63978628D01*
X84666666Y-63978628D02*
X84285714Y-63978628D01*
X85238095Y-63550057D02*
X85285714Y-63502438D01*
X85285714Y-63502438D02*
X85380952Y-63454819D01*
X85380952Y-63454819D02*
X85619047Y-63454819D01*
X85619047Y-63454819D02*
X85714285Y-63502438D01*
X85714285Y-63502438D02*
X85761904Y-63550057D01*
X85761904Y-63550057D02*
X85809523Y-63645295D01*
X85809523Y-63645295D02*
X85809523Y-63740533D01*
X85809523Y-63740533D02*
X85761904Y-63883390D01*
X85761904Y-63883390D02*
X85190476Y-64454819D01*
X85190476Y-64454819D02*
X85809523Y-64454819D01*
X86666666Y-63454819D02*
X86476190Y-63454819D01*
X86476190Y-63454819D02*
X86380952Y-63502438D01*
X86380952Y-63502438D02*
X86333333Y-63550057D01*
X86333333Y-63550057D02*
X86238095Y-63692914D01*
X86238095Y-63692914D02*
X86190476Y-63883390D01*
X86190476Y-63883390D02*
X86190476Y-64264342D01*
X86190476Y-64264342D02*
X86238095Y-64359580D01*
X86238095Y-64359580D02*
X86285714Y-64407200D01*
X86285714Y-64407200D02*
X86380952Y-64454819D01*
X86380952Y-64454819D02*
X86571428Y-64454819D01*
X86571428Y-64454819D02*
X86666666Y-64407200D01*
X86666666Y-64407200D02*
X86714285Y-64359580D01*
X86714285Y-64359580D02*
X86761904Y-64264342D01*
X86761904Y-64264342D02*
X86761904Y-64026247D01*
X86761904Y-64026247D02*
X86714285Y-63931009D01*
X86714285Y-63931009D02*
X86666666Y-63883390D01*
X86666666Y-63883390D02*
X86571428Y-63835771D01*
X86571428Y-63835771D02*
X86380952Y-63835771D01*
X86380952Y-63835771D02*
X86285714Y-63883390D01*
X86285714Y-63883390D02*
X86238095Y-63931009D01*
X86238095Y-63931009D02*
X86190476Y-64026247D01*
X81857142Y-73359580D02*
X81809523Y-73407200D01*
X81809523Y-73407200D02*
X81666666Y-73454819D01*
X81666666Y-73454819D02*
X81571428Y-73454819D01*
X81571428Y-73454819D02*
X81428571Y-73407200D01*
X81428571Y-73407200D02*
X81333333Y-73311961D01*
X81333333Y-73311961D02*
X81285714Y-73216723D01*
X81285714Y-73216723D02*
X81238095Y-73026247D01*
X81238095Y-73026247D02*
X81238095Y-72883390D01*
X81238095Y-72883390D02*
X81285714Y-72692914D01*
X81285714Y-72692914D02*
X81333333Y-72597676D01*
X81333333Y-72597676D02*
X81428571Y-72502438D01*
X81428571Y-72502438D02*
X81571428Y-72454819D01*
X81571428Y-72454819D02*
X81666666Y-72454819D01*
X81666666Y-72454819D02*
X81809523Y-72502438D01*
X81809523Y-72502438D02*
X81857142Y-72550057D01*
X82809523Y-73454819D02*
X82238095Y-73454819D01*
X82523809Y-73454819D02*
X82523809Y-72454819D01*
X82523809Y-72454819D02*
X82428571Y-72597676D01*
X82428571Y-72597676D02*
X82333333Y-72692914D01*
X82333333Y-72692914D02*
X82238095Y-72740533D01*
X83190476Y-72550057D02*
X83238095Y-72502438D01*
X83238095Y-72502438D02*
X83333333Y-72454819D01*
X83333333Y-72454819D02*
X83571428Y-72454819D01*
X83571428Y-72454819D02*
X83666666Y-72502438D01*
X83666666Y-72502438D02*
X83714285Y-72550057D01*
X83714285Y-72550057D02*
X83761904Y-72645295D01*
X83761904Y-72645295D02*
X83761904Y-72740533D01*
X83761904Y-72740533D02*
X83714285Y-72883390D01*
X83714285Y-72883390D02*
X83142857Y-73454819D01*
X83142857Y-73454819D02*
X83761904Y-73454819D01*
X94359580Y-58642857D02*
X94407200Y-58690476D01*
X94407200Y-58690476D02*
X94454819Y-58833333D01*
X94454819Y-58833333D02*
X94454819Y-58928571D01*
X94454819Y-58928571D02*
X94407200Y-59071428D01*
X94407200Y-59071428D02*
X94311961Y-59166666D01*
X94311961Y-59166666D02*
X94216723Y-59214285D01*
X94216723Y-59214285D02*
X94026247Y-59261904D01*
X94026247Y-59261904D02*
X93883390Y-59261904D01*
X93883390Y-59261904D02*
X93692914Y-59214285D01*
X93692914Y-59214285D02*
X93597676Y-59166666D01*
X93597676Y-59166666D02*
X93502438Y-59071428D01*
X93502438Y-59071428D02*
X93454819Y-58928571D01*
X93454819Y-58928571D02*
X93454819Y-58833333D01*
X93454819Y-58833333D02*
X93502438Y-58690476D01*
X93502438Y-58690476D02*
X93550057Y-58642857D01*
X93550057Y-58261904D02*
X93502438Y-58214285D01*
X93502438Y-58214285D02*
X93454819Y-58119047D01*
X93454819Y-58119047D02*
X93454819Y-57880952D01*
X93454819Y-57880952D02*
X93502438Y-57785714D01*
X93502438Y-57785714D02*
X93550057Y-57738095D01*
X93550057Y-57738095D02*
X93645295Y-57690476D01*
X93645295Y-57690476D02*
X93740533Y-57690476D01*
X93740533Y-57690476D02*
X93883390Y-57738095D01*
X93883390Y-57738095D02*
X94454819Y-58309523D01*
X94454819Y-58309523D02*
X94454819Y-57690476D01*
X93454819Y-57071428D02*
X93454819Y-56976190D01*
X93454819Y-56976190D02*
X93502438Y-56880952D01*
X93502438Y-56880952D02*
X93550057Y-56833333D01*
X93550057Y-56833333D02*
X93645295Y-56785714D01*
X93645295Y-56785714D02*
X93835771Y-56738095D01*
X93835771Y-56738095D02*
X94073866Y-56738095D01*
X94073866Y-56738095D02*
X94264342Y-56785714D01*
X94264342Y-56785714D02*
X94359580Y-56833333D01*
X94359580Y-56833333D02*
X94407200Y-56880952D01*
X94407200Y-56880952D02*
X94454819Y-56976190D01*
X94454819Y-56976190D02*
X94454819Y-57071428D01*
X94454819Y-57071428D02*
X94407200Y-57166666D01*
X94407200Y-57166666D02*
X94359580Y-57214285D01*
X94359580Y-57214285D02*
X94264342Y-57261904D01*
X94264342Y-57261904D02*
X94073866Y-57309523D01*
X94073866Y-57309523D02*
X93835771Y-57309523D01*
X93835771Y-57309523D02*
X93645295Y-57261904D01*
X93645295Y-57261904D02*
X93550057Y-57214285D01*
X93550057Y-57214285D02*
X93502438Y-57166666D01*
X93502438Y-57166666D02*
X93454819Y-57071428D01*
X92357142Y-73359580D02*
X92309523Y-73407200D01*
X92309523Y-73407200D02*
X92166666Y-73454819D01*
X92166666Y-73454819D02*
X92071428Y-73454819D01*
X92071428Y-73454819D02*
X91928571Y-73407200D01*
X91928571Y-73407200D02*
X91833333Y-73311961D01*
X91833333Y-73311961D02*
X91785714Y-73216723D01*
X91785714Y-73216723D02*
X91738095Y-73026247D01*
X91738095Y-73026247D02*
X91738095Y-72883390D01*
X91738095Y-72883390D02*
X91785714Y-72692914D01*
X91785714Y-72692914D02*
X91833333Y-72597676D01*
X91833333Y-72597676D02*
X91928571Y-72502438D01*
X91928571Y-72502438D02*
X92071428Y-72454819D01*
X92071428Y-72454819D02*
X92166666Y-72454819D01*
X92166666Y-72454819D02*
X92309523Y-72502438D01*
X92309523Y-72502438D02*
X92357142Y-72550057D01*
X93309523Y-73454819D02*
X92738095Y-73454819D01*
X93023809Y-73454819D02*
X93023809Y-72454819D01*
X93023809Y-72454819D02*
X92928571Y-72597676D01*
X92928571Y-72597676D02*
X92833333Y-72692914D01*
X92833333Y-72692914D02*
X92738095Y-72740533D01*
X94214285Y-72454819D02*
X93738095Y-72454819D01*
X93738095Y-72454819D02*
X93690476Y-72931009D01*
X93690476Y-72931009D02*
X93738095Y-72883390D01*
X93738095Y-72883390D02*
X93833333Y-72835771D01*
X93833333Y-72835771D02*
X94071428Y-72835771D01*
X94071428Y-72835771D02*
X94166666Y-72883390D01*
X94166666Y-72883390D02*
X94214285Y-72931009D01*
X94214285Y-72931009D02*
X94261904Y-73026247D01*
X94261904Y-73026247D02*
X94261904Y-73264342D01*
X94261904Y-73264342D02*
X94214285Y-73359580D01*
X94214285Y-73359580D02*
X94166666Y-73407200D01*
X94166666Y-73407200D02*
X94071428Y-73454819D01*
X94071428Y-73454819D02*
X93833333Y-73454819D01*
X93833333Y-73454819D02*
X93738095Y-73407200D01*
X93738095Y-73407200D02*
X93690476Y-73359580D01*
X86397142Y-105454819D02*
X86063809Y-104978628D01*
X85825714Y-105454819D02*
X85825714Y-104454819D01*
X85825714Y-104454819D02*
X86206666Y-104454819D01*
X86206666Y-104454819D02*
X86301904Y-104502438D01*
X86301904Y-104502438D02*
X86349523Y-104550057D01*
X86349523Y-104550057D02*
X86397142Y-104645295D01*
X86397142Y-104645295D02*
X86397142Y-104788152D01*
X86397142Y-104788152D02*
X86349523Y-104883390D01*
X86349523Y-104883390D02*
X86301904Y-104931009D01*
X86301904Y-104931009D02*
X86206666Y-104978628D01*
X86206666Y-104978628D02*
X85825714Y-104978628D01*
X87349523Y-105454819D02*
X86778095Y-105454819D01*
X87063809Y-105454819D02*
X87063809Y-104454819D01*
X87063809Y-104454819D02*
X86968571Y-104597676D01*
X86968571Y-104597676D02*
X86873333Y-104692914D01*
X86873333Y-104692914D02*
X86778095Y-104740533D01*
X88206666Y-104454819D02*
X88016190Y-104454819D01*
X88016190Y-104454819D02*
X87920952Y-104502438D01*
X87920952Y-104502438D02*
X87873333Y-104550057D01*
X87873333Y-104550057D02*
X87778095Y-104692914D01*
X87778095Y-104692914D02*
X87730476Y-104883390D01*
X87730476Y-104883390D02*
X87730476Y-105264342D01*
X87730476Y-105264342D02*
X87778095Y-105359580D01*
X87778095Y-105359580D02*
X87825714Y-105407200D01*
X87825714Y-105407200D02*
X87920952Y-105454819D01*
X87920952Y-105454819D02*
X88111428Y-105454819D01*
X88111428Y-105454819D02*
X88206666Y-105407200D01*
X88206666Y-105407200D02*
X88254285Y-105359580D01*
X88254285Y-105359580D02*
X88301904Y-105264342D01*
X88301904Y-105264342D02*
X88301904Y-105026247D01*
X88301904Y-105026247D02*
X88254285Y-104931009D01*
X88254285Y-104931009D02*
X88206666Y-104883390D01*
X88206666Y-104883390D02*
X88111428Y-104835771D01*
X88111428Y-104835771D02*
X87920952Y-104835771D01*
X87920952Y-104835771D02*
X87825714Y-104883390D01*
X87825714Y-104883390D02*
X87778095Y-104931009D01*
X87778095Y-104931009D02*
X87730476Y-105026247D01*
X73454819Y-105142857D02*
X72978628Y-105476190D01*
X73454819Y-105714285D02*
X72454819Y-105714285D01*
X72454819Y-105714285D02*
X72454819Y-105333333D01*
X72454819Y-105333333D02*
X72502438Y-105238095D01*
X72502438Y-105238095D02*
X72550057Y-105190476D01*
X72550057Y-105190476D02*
X72645295Y-105142857D01*
X72645295Y-105142857D02*
X72788152Y-105142857D01*
X72788152Y-105142857D02*
X72883390Y-105190476D01*
X72883390Y-105190476D02*
X72931009Y-105238095D01*
X72931009Y-105238095D02*
X72978628Y-105333333D01*
X72978628Y-105333333D02*
X72978628Y-105714285D01*
X73454819Y-104190476D02*
X73454819Y-104761904D01*
X73454819Y-104476190D02*
X72454819Y-104476190D01*
X72454819Y-104476190D02*
X72597676Y-104571428D01*
X72597676Y-104571428D02*
X72692914Y-104666666D01*
X72692914Y-104666666D02*
X72740533Y-104761904D01*
X72454819Y-103285714D02*
X72454819Y-103761904D01*
X72454819Y-103761904D02*
X72931009Y-103809523D01*
X72931009Y-103809523D02*
X72883390Y-103761904D01*
X72883390Y-103761904D02*
X72835771Y-103666666D01*
X72835771Y-103666666D02*
X72835771Y-103428571D01*
X72835771Y-103428571D02*
X72883390Y-103333333D01*
X72883390Y-103333333D02*
X72931009Y-103285714D01*
X72931009Y-103285714D02*
X73026247Y-103238095D01*
X73026247Y-103238095D02*
X73264342Y-103238095D01*
X73264342Y-103238095D02*
X73359580Y-103285714D01*
X73359580Y-103285714D02*
X73407200Y-103333333D01*
X73407200Y-103333333D02*
X73454819Y-103428571D01*
X73454819Y-103428571D02*
X73454819Y-103666666D01*
X73454819Y-103666666D02*
X73407200Y-103761904D01*
X73407200Y-103761904D02*
X73359580Y-103809523D01*
X77954819Y-67102857D02*
X77478628Y-67436190D01*
X77954819Y-67674285D02*
X76954819Y-67674285D01*
X76954819Y-67674285D02*
X76954819Y-67293333D01*
X76954819Y-67293333D02*
X77002438Y-67198095D01*
X77002438Y-67198095D02*
X77050057Y-67150476D01*
X77050057Y-67150476D02*
X77145295Y-67102857D01*
X77145295Y-67102857D02*
X77288152Y-67102857D01*
X77288152Y-67102857D02*
X77383390Y-67150476D01*
X77383390Y-67150476D02*
X77431009Y-67198095D01*
X77431009Y-67198095D02*
X77478628Y-67293333D01*
X77478628Y-67293333D02*
X77478628Y-67674285D01*
X77050057Y-66721904D02*
X77002438Y-66674285D01*
X77002438Y-66674285D02*
X76954819Y-66579047D01*
X76954819Y-66579047D02*
X76954819Y-66340952D01*
X76954819Y-66340952D02*
X77002438Y-66245714D01*
X77002438Y-66245714D02*
X77050057Y-66198095D01*
X77050057Y-66198095D02*
X77145295Y-66150476D01*
X77145295Y-66150476D02*
X77240533Y-66150476D01*
X77240533Y-66150476D02*
X77383390Y-66198095D01*
X77383390Y-66198095D02*
X77954819Y-66769523D01*
X77954819Y-66769523D02*
X77954819Y-66150476D01*
X77050057Y-65769523D02*
X77002438Y-65721904D01*
X77002438Y-65721904D02*
X76954819Y-65626666D01*
X76954819Y-65626666D02*
X76954819Y-65388571D01*
X76954819Y-65388571D02*
X77002438Y-65293333D01*
X77002438Y-65293333D02*
X77050057Y-65245714D01*
X77050057Y-65245714D02*
X77145295Y-65198095D01*
X77145295Y-65198095D02*
X77240533Y-65198095D01*
X77240533Y-65198095D02*
X77383390Y-65245714D01*
X77383390Y-65245714D02*
X77954819Y-65817142D01*
X77954819Y-65817142D02*
X77954819Y-65198095D01*
X97357519Y-67102857D02*
X96881328Y-67436190D01*
X97357519Y-67674285D02*
X96357519Y-67674285D01*
X96357519Y-67674285D02*
X96357519Y-67293333D01*
X96357519Y-67293333D02*
X96405138Y-67198095D01*
X96405138Y-67198095D02*
X96452757Y-67150476D01*
X96452757Y-67150476D02*
X96547995Y-67102857D01*
X96547995Y-67102857D02*
X96690852Y-67102857D01*
X96690852Y-67102857D02*
X96786090Y-67150476D01*
X96786090Y-67150476D02*
X96833709Y-67198095D01*
X96833709Y-67198095D02*
X96881328Y-67293333D01*
X96881328Y-67293333D02*
X96881328Y-67674285D01*
X96452757Y-66721904D02*
X96405138Y-66674285D01*
X96405138Y-66674285D02*
X96357519Y-66579047D01*
X96357519Y-66579047D02*
X96357519Y-66340952D01*
X96357519Y-66340952D02*
X96405138Y-66245714D01*
X96405138Y-66245714D02*
X96452757Y-66198095D01*
X96452757Y-66198095D02*
X96547995Y-66150476D01*
X96547995Y-66150476D02*
X96643233Y-66150476D01*
X96643233Y-66150476D02*
X96786090Y-66198095D01*
X96786090Y-66198095D02*
X97357519Y-66769523D01*
X97357519Y-66769523D02*
X97357519Y-66150476D01*
X96690852Y-65293333D02*
X97357519Y-65293333D01*
X96309900Y-65531428D02*
X97024185Y-65769523D01*
X97024185Y-65769523D02*
X97024185Y-65150476D01*
X84954819Y-84682857D02*
X84478628Y-85016190D01*
X84954819Y-85254285D02*
X83954819Y-85254285D01*
X83954819Y-85254285D02*
X83954819Y-84873333D01*
X83954819Y-84873333D02*
X84002438Y-84778095D01*
X84002438Y-84778095D02*
X84050057Y-84730476D01*
X84050057Y-84730476D02*
X84145295Y-84682857D01*
X84145295Y-84682857D02*
X84288152Y-84682857D01*
X84288152Y-84682857D02*
X84383390Y-84730476D01*
X84383390Y-84730476D02*
X84431009Y-84778095D01*
X84431009Y-84778095D02*
X84478628Y-84873333D01*
X84478628Y-84873333D02*
X84478628Y-85254285D01*
X84954819Y-83730476D02*
X84954819Y-84301904D01*
X84954819Y-84016190D02*
X83954819Y-84016190D01*
X83954819Y-84016190D02*
X84097676Y-84111428D01*
X84097676Y-84111428D02*
X84192914Y-84206666D01*
X84192914Y-84206666D02*
X84240533Y-84301904D01*
X84954819Y-83254285D02*
X84954819Y-83063809D01*
X84954819Y-83063809D02*
X84907200Y-82968571D01*
X84907200Y-82968571D02*
X84859580Y-82920952D01*
X84859580Y-82920952D02*
X84716723Y-82825714D01*
X84716723Y-82825714D02*
X84526247Y-82778095D01*
X84526247Y-82778095D02*
X84145295Y-82778095D01*
X84145295Y-82778095D02*
X84050057Y-82825714D01*
X84050057Y-82825714D02*
X84002438Y-82873333D01*
X84002438Y-82873333D02*
X83954819Y-82968571D01*
X83954819Y-82968571D02*
X83954819Y-83159047D01*
X83954819Y-83159047D02*
X84002438Y-83254285D01*
X84002438Y-83254285D02*
X84050057Y-83301904D01*
X84050057Y-83301904D02*
X84145295Y-83349523D01*
X84145295Y-83349523D02*
X84383390Y-83349523D01*
X84383390Y-83349523D02*
X84478628Y-83301904D01*
X84478628Y-83301904D02*
X84526247Y-83254285D01*
X84526247Y-83254285D02*
X84573866Y-83159047D01*
X84573866Y-83159047D02*
X84573866Y-82968571D01*
X84573866Y-82968571D02*
X84526247Y-82873333D01*
X84526247Y-82873333D02*
X84478628Y-82825714D01*
X84478628Y-82825714D02*
X84383390Y-82778095D01*
X82857142Y-108359580D02*
X82809523Y-108407200D01*
X82809523Y-108407200D02*
X82666666Y-108454819D01*
X82666666Y-108454819D02*
X82571428Y-108454819D01*
X82571428Y-108454819D02*
X82428571Y-108407200D01*
X82428571Y-108407200D02*
X82333333Y-108311961D01*
X82333333Y-108311961D02*
X82285714Y-108216723D01*
X82285714Y-108216723D02*
X82238095Y-108026247D01*
X82238095Y-108026247D02*
X82238095Y-107883390D01*
X82238095Y-107883390D02*
X82285714Y-107692914D01*
X82285714Y-107692914D02*
X82333333Y-107597676D01*
X82333333Y-107597676D02*
X82428571Y-107502438D01*
X82428571Y-107502438D02*
X82571428Y-107454819D01*
X82571428Y-107454819D02*
X82666666Y-107454819D01*
X82666666Y-107454819D02*
X82809523Y-107502438D01*
X82809523Y-107502438D02*
X82857142Y-107550057D01*
X83809523Y-108454819D02*
X83238095Y-108454819D01*
X83523809Y-108454819D02*
X83523809Y-107454819D01*
X83523809Y-107454819D02*
X83428571Y-107597676D01*
X83428571Y-107597676D02*
X83333333Y-107692914D01*
X83333333Y-107692914D02*
X83238095Y-107740533D01*
X84761904Y-108454819D02*
X84190476Y-108454819D01*
X84476190Y-108454819D02*
X84476190Y-107454819D01*
X84476190Y-107454819D02*
X84380952Y-107597676D01*
X84380952Y-107597676D02*
X84285714Y-107692914D01*
X84285714Y-107692914D02*
X84190476Y-107740533D01*
X73897142Y-91454819D02*
X73563809Y-90978628D01*
X73325714Y-91454819D02*
X73325714Y-90454819D01*
X73325714Y-90454819D02*
X73706666Y-90454819D01*
X73706666Y-90454819D02*
X73801904Y-90502438D01*
X73801904Y-90502438D02*
X73849523Y-90550057D01*
X73849523Y-90550057D02*
X73897142Y-90645295D01*
X73897142Y-90645295D02*
X73897142Y-90788152D01*
X73897142Y-90788152D02*
X73849523Y-90883390D01*
X73849523Y-90883390D02*
X73801904Y-90931009D01*
X73801904Y-90931009D02*
X73706666Y-90978628D01*
X73706666Y-90978628D02*
X73325714Y-90978628D01*
X74849523Y-91454819D02*
X74278095Y-91454819D01*
X74563809Y-91454819D02*
X74563809Y-90454819D01*
X74563809Y-90454819D02*
X74468571Y-90597676D01*
X74468571Y-90597676D02*
X74373333Y-90692914D01*
X74373333Y-90692914D02*
X74278095Y-90740533D01*
X75420952Y-90883390D02*
X75325714Y-90835771D01*
X75325714Y-90835771D02*
X75278095Y-90788152D01*
X75278095Y-90788152D02*
X75230476Y-90692914D01*
X75230476Y-90692914D02*
X75230476Y-90645295D01*
X75230476Y-90645295D02*
X75278095Y-90550057D01*
X75278095Y-90550057D02*
X75325714Y-90502438D01*
X75325714Y-90502438D02*
X75420952Y-90454819D01*
X75420952Y-90454819D02*
X75611428Y-90454819D01*
X75611428Y-90454819D02*
X75706666Y-90502438D01*
X75706666Y-90502438D02*
X75754285Y-90550057D01*
X75754285Y-90550057D02*
X75801904Y-90645295D01*
X75801904Y-90645295D02*
X75801904Y-90692914D01*
X75801904Y-90692914D02*
X75754285Y-90788152D01*
X75754285Y-90788152D02*
X75706666Y-90835771D01*
X75706666Y-90835771D02*
X75611428Y-90883390D01*
X75611428Y-90883390D02*
X75420952Y-90883390D01*
X75420952Y-90883390D02*
X75325714Y-90931009D01*
X75325714Y-90931009D02*
X75278095Y-90978628D01*
X75278095Y-90978628D02*
X75230476Y-91073866D01*
X75230476Y-91073866D02*
X75230476Y-91264342D01*
X75230476Y-91264342D02*
X75278095Y-91359580D01*
X75278095Y-91359580D02*
X75325714Y-91407200D01*
X75325714Y-91407200D02*
X75420952Y-91454819D01*
X75420952Y-91454819D02*
X75611428Y-91454819D01*
X75611428Y-91454819D02*
X75706666Y-91407200D01*
X75706666Y-91407200D02*
X75754285Y-91359580D01*
X75754285Y-91359580D02*
X75801904Y-91264342D01*
X75801904Y-91264342D02*
X75801904Y-91073866D01*
X75801904Y-91073866D02*
X75754285Y-90978628D01*
X75754285Y-90978628D02*
X75706666Y-90931009D01*
X75706666Y-90931009D02*
X75611428Y-90883390D01*
X82859580Y-59392857D02*
X82907200Y-59440476D01*
X82907200Y-59440476D02*
X82954819Y-59583333D01*
X82954819Y-59583333D02*
X82954819Y-59678571D01*
X82954819Y-59678571D02*
X82907200Y-59821428D01*
X82907200Y-59821428D02*
X82811961Y-59916666D01*
X82811961Y-59916666D02*
X82716723Y-59964285D01*
X82716723Y-59964285D02*
X82526247Y-60011904D01*
X82526247Y-60011904D02*
X82383390Y-60011904D01*
X82383390Y-60011904D02*
X82192914Y-59964285D01*
X82192914Y-59964285D02*
X82097676Y-59916666D01*
X82097676Y-59916666D02*
X82002438Y-59821428D01*
X82002438Y-59821428D02*
X81954819Y-59678571D01*
X81954819Y-59678571D02*
X81954819Y-59583333D01*
X81954819Y-59583333D02*
X82002438Y-59440476D01*
X82002438Y-59440476D02*
X82050057Y-59392857D01*
X82954819Y-58440476D02*
X82954819Y-59011904D01*
X82954819Y-58726190D02*
X81954819Y-58726190D01*
X81954819Y-58726190D02*
X82097676Y-58821428D01*
X82097676Y-58821428D02*
X82192914Y-58916666D01*
X82192914Y-58916666D02*
X82240533Y-59011904D01*
X81954819Y-57583333D02*
X81954819Y-57773809D01*
X81954819Y-57773809D02*
X82002438Y-57869047D01*
X82002438Y-57869047D02*
X82050057Y-57916666D01*
X82050057Y-57916666D02*
X82192914Y-58011904D01*
X82192914Y-58011904D02*
X82383390Y-58059523D01*
X82383390Y-58059523D02*
X82764342Y-58059523D01*
X82764342Y-58059523D02*
X82859580Y-58011904D01*
X82859580Y-58011904D02*
X82907200Y-57964285D01*
X82907200Y-57964285D02*
X82954819Y-57869047D01*
X82954819Y-57869047D02*
X82954819Y-57678571D01*
X82954819Y-57678571D02*
X82907200Y-57583333D01*
X82907200Y-57583333D02*
X82859580Y-57535714D01*
X82859580Y-57535714D02*
X82764342Y-57488095D01*
X82764342Y-57488095D02*
X82526247Y-57488095D01*
X82526247Y-57488095D02*
X82431009Y-57535714D01*
X82431009Y-57535714D02*
X82383390Y-57583333D01*
X82383390Y-57583333D02*
X82335771Y-57678571D01*
X82335771Y-57678571D02*
X82335771Y-57869047D01*
X82335771Y-57869047D02*
X82383390Y-57964285D01*
X82383390Y-57964285D02*
X82431009Y-58011904D01*
X82431009Y-58011904D02*
X82526247Y-58059523D01*
X78359580Y-84392857D02*
X78407200Y-84440476D01*
X78407200Y-84440476D02*
X78454819Y-84583333D01*
X78454819Y-84583333D02*
X78454819Y-84678571D01*
X78454819Y-84678571D02*
X78407200Y-84821428D01*
X78407200Y-84821428D02*
X78311961Y-84916666D01*
X78311961Y-84916666D02*
X78216723Y-84964285D01*
X78216723Y-84964285D02*
X78026247Y-85011904D01*
X78026247Y-85011904D02*
X77883390Y-85011904D01*
X77883390Y-85011904D02*
X77692914Y-84964285D01*
X77692914Y-84964285D02*
X77597676Y-84916666D01*
X77597676Y-84916666D02*
X77502438Y-84821428D01*
X77502438Y-84821428D02*
X77454819Y-84678571D01*
X77454819Y-84678571D02*
X77454819Y-84583333D01*
X77454819Y-84583333D02*
X77502438Y-84440476D01*
X77502438Y-84440476D02*
X77550057Y-84392857D01*
X78454819Y-83440476D02*
X78454819Y-84011904D01*
X78454819Y-83726190D02*
X77454819Y-83726190D01*
X77454819Y-83726190D02*
X77597676Y-83821428D01*
X77597676Y-83821428D02*
X77692914Y-83916666D01*
X77692914Y-83916666D02*
X77740533Y-84011904D01*
X77788152Y-82583333D02*
X78454819Y-82583333D01*
X77407200Y-82821428D02*
X78121485Y-83059523D01*
X78121485Y-83059523D02*
X78121485Y-82440476D01*
X91690476Y-115704819D02*
X91690476Y-116419104D01*
X91690476Y-116419104D02*
X91642857Y-116561961D01*
X91642857Y-116561961D02*
X91547619Y-116657200D01*
X91547619Y-116657200D02*
X91404762Y-116704819D01*
X91404762Y-116704819D02*
X91309524Y-116704819D01*
X92690476Y-116704819D02*
X92119048Y-116704819D01*
X92404762Y-116704819D02*
X92404762Y-115704819D01*
X92404762Y-115704819D02*
X92309524Y-115847676D01*
X92309524Y-115847676D02*
X92214286Y-115942914D01*
X92214286Y-115942914D02*
X92119048Y-115990533D01*
X93642857Y-116704819D02*
X93071429Y-116704819D01*
X93357143Y-116704819D02*
X93357143Y-115704819D01*
X93357143Y-115704819D02*
X93261905Y-115847676D01*
X93261905Y-115847676D02*
X93166667Y-115942914D01*
X93166667Y-115942914D02*
X93071429Y-115990533D01*
X94359580Y-84892857D02*
X94407200Y-84940476D01*
X94407200Y-84940476D02*
X94454819Y-85083333D01*
X94454819Y-85083333D02*
X94454819Y-85178571D01*
X94454819Y-85178571D02*
X94407200Y-85321428D01*
X94407200Y-85321428D02*
X94311961Y-85416666D01*
X94311961Y-85416666D02*
X94216723Y-85464285D01*
X94216723Y-85464285D02*
X94026247Y-85511904D01*
X94026247Y-85511904D02*
X93883390Y-85511904D01*
X93883390Y-85511904D02*
X93692914Y-85464285D01*
X93692914Y-85464285D02*
X93597676Y-85416666D01*
X93597676Y-85416666D02*
X93502438Y-85321428D01*
X93502438Y-85321428D02*
X93454819Y-85178571D01*
X93454819Y-85178571D02*
X93454819Y-85083333D01*
X93454819Y-85083333D02*
X93502438Y-84940476D01*
X93502438Y-84940476D02*
X93550057Y-84892857D01*
X94454819Y-83940476D02*
X94454819Y-84511904D01*
X94454819Y-84226190D02*
X93454819Y-84226190D01*
X93454819Y-84226190D02*
X93597676Y-84321428D01*
X93597676Y-84321428D02*
X93692914Y-84416666D01*
X93692914Y-84416666D02*
X93740533Y-84511904D01*
X93454819Y-83607142D02*
X93454819Y-82940476D01*
X93454819Y-82940476D02*
X94454819Y-83369047D01*
X88261905Y-98954819D02*
X88261905Y-97954819D01*
X88261905Y-97954819D02*
X88500000Y-97954819D01*
X88500000Y-97954819D02*
X88642857Y-98002438D01*
X88642857Y-98002438D02*
X88738095Y-98097676D01*
X88738095Y-98097676D02*
X88785714Y-98192914D01*
X88785714Y-98192914D02*
X88833333Y-98383390D01*
X88833333Y-98383390D02*
X88833333Y-98526247D01*
X88833333Y-98526247D02*
X88785714Y-98716723D01*
X88785714Y-98716723D02*
X88738095Y-98811961D01*
X88738095Y-98811961D02*
X88642857Y-98907200D01*
X88642857Y-98907200D02*
X88500000Y-98954819D01*
X88500000Y-98954819D02*
X88261905Y-98954819D01*
X89166667Y-97954819D02*
X89833333Y-97954819D01*
X89833333Y-97954819D02*
X89404762Y-98954819D01*
X84618095Y-97114819D02*
X84618095Y-96114819D01*
X85189523Y-97114819D02*
X84760952Y-96543390D01*
X85189523Y-96114819D02*
X84618095Y-96686247D01*
X76261905Y-98994819D02*
X76261905Y-97994819D01*
X76261905Y-97994819D02*
X76500000Y-97994819D01*
X76500000Y-97994819D02*
X76642857Y-98042438D01*
X76642857Y-98042438D02*
X76738095Y-98137676D01*
X76738095Y-98137676D02*
X76785714Y-98232914D01*
X76785714Y-98232914D02*
X76833333Y-98423390D01*
X76833333Y-98423390D02*
X76833333Y-98566247D01*
X76833333Y-98566247D02*
X76785714Y-98756723D01*
X76785714Y-98756723D02*
X76738095Y-98851961D01*
X76738095Y-98851961D02*
X76642857Y-98947200D01*
X76642857Y-98947200D02*
X76500000Y-98994819D01*
X76500000Y-98994819D02*
X76261905Y-98994819D01*
X77690476Y-97994819D02*
X77500000Y-97994819D01*
X77500000Y-97994819D02*
X77404762Y-98042438D01*
X77404762Y-98042438D02*
X77357143Y-98090057D01*
X77357143Y-98090057D02*
X77261905Y-98232914D01*
X77261905Y-98232914D02*
X77214286Y-98423390D01*
X77214286Y-98423390D02*
X77214286Y-98804342D01*
X77214286Y-98804342D02*
X77261905Y-98899580D01*
X77261905Y-98899580D02*
X77309524Y-98947200D01*
X77309524Y-98947200D02*
X77404762Y-98994819D01*
X77404762Y-98994819D02*
X77595238Y-98994819D01*
X77595238Y-98994819D02*
X77690476Y-98947200D01*
X77690476Y-98947200D02*
X77738095Y-98899580D01*
X77738095Y-98899580D02*
X77785714Y-98804342D01*
X77785714Y-98804342D02*
X77785714Y-98566247D01*
X77785714Y-98566247D02*
X77738095Y-98471009D01*
X77738095Y-98471009D02*
X77690476Y-98423390D01*
X77690476Y-98423390D02*
X77595238Y-98375771D01*
X77595238Y-98375771D02*
X77404762Y-98375771D01*
X77404762Y-98375771D02*
X77309524Y-98423390D01*
X77309524Y-98423390D02*
X77261905Y-98471009D01*
X77261905Y-98471009D02*
X77214286Y-98566247D01*
X72928095Y-97194819D02*
X72928095Y-96194819D01*
X73499523Y-97194819D02*
X73070952Y-96623390D01*
X73499523Y-96194819D02*
X72928095Y-96766247D01*
X92454819Y-84642857D02*
X91978628Y-84976190D01*
X92454819Y-85214285D02*
X91454819Y-85214285D01*
X91454819Y-85214285D02*
X91454819Y-84833333D01*
X91454819Y-84833333D02*
X91502438Y-84738095D01*
X91502438Y-84738095D02*
X91550057Y-84690476D01*
X91550057Y-84690476D02*
X91645295Y-84642857D01*
X91645295Y-84642857D02*
X91788152Y-84642857D01*
X91788152Y-84642857D02*
X91883390Y-84690476D01*
X91883390Y-84690476D02*
X91931009Y-84738095D01*
X91931009Y-84738095D02*
X91978628Y-84833333D01*
X91978628Y-84833333D02*
X91978628Y-85214285D01*
X91550057Y-84261904D02*
X91502438Y-84214285D01*
X91502438Y-84214285D02*
X91454819Y-84119047D01*
X91454819Y-84119047D02*
X91454819Y-83880952D01*
X91454819Y-83880952D02*
X91502438Y-83785714D01*
X91502438Y-83785714D02*
X91550057Y-83738095D01*
X91550057Y-83738095D02*
X91645295Y-83690476D01*
X91645295Y-83690476D02*
X91740533Y-83690476D01*
X91740533Y-83690476D02*
X91883390Y-83738095D01*
X91883390Y-83738095D02*
X92454819Y-84309523D01*
X92454819Y-84309523D02*
X92454819Y-83690476D01*
X92454819Y-82738095D02*
X92454819Y-83309523D01*
X92454819Y-83023809D02*
X91454819Y-83023809D01*
X91454819Y-83023809D02*
X91597676Y-83119047D01*
X91597676Y-83119047D02*
X91692914Y-83214285D01*
X91692914Y-83214285D02*
X91740533Y-83309523D01*
X95166666Y-121704819D02*
X95166666Y-122419104D01*
X95166666Y-122419104D02*
X95119047Y-122561961D01*
X95119047Y-122561961D02*
X95023809Y-122657200D01*
X95023809Y-122657200D02*
X94880952Y-122704819D01*
X94880952Y-122704819D02*
X94785714Y-122704819D01*
X96166666Y-122704819D02*
X95595238Y-122704819D01*
X95880952Y-122704819D02*
X95880952Y-121704819D01*
X95880952Y-121704819D02*
X95785714Y-121847676D01*
X95785714Y-121847676D02*
X95690476Y-121942914D01*
X95690476Y-121942914D02*
X95595238Y-121990533D01*
X87859580Y-58642857D02*
X87907200Y-58690476D01*
X87907200Y-58690476D02*
X87954819Y-58833333D01*
X87954819Y-58833333D02*
X87954819Y-58928571D01*
X87954819Y-58928571D02*
X87907200Y-59071428D01*
X87907200Y-59071428D02*
X87811961Y-59166666D01*
X87811961Y-59166666D02*
X87716723Y-59214285D01*
X87716723Y-59214285D02*
X87526247Y-59261904D01*
X87526247Y-59261904D02*
X87383390Y-59261904D01*
X87383390Y-59261904D02*
X87192914Y-59214285D01*
X87192914Y-59214285D02*
X87097676Y-59166666D01*
X87097676Y-59166666D02*
X87002438Y-59071428D01*
X87002438Y-59071428D02*
X86954819Y-58928571D01*
X86954819Y-58928571D02*
X86954819Y-58833333D01*
X86954819Y-58833333D02*
X87002438Y-58690476D01*
X87002438Y-58690476D02*
X87050057Y-58642857D01*
X87954819Y-57690476D02*
X87954819Y-58261904D01*
X87954819Y-57976190D02*
X86954819Y-57976190D01*
X86954819Y-57976190D02*
X87097676Y-58071428D01*
X87097676Y-58071428D02*
X87192914Y-58166666D01*
X87192914Y-58166666D02*
X87240533Y-58261904D01*
X86954819Y-57357142D02*
X86954819Y-56738095D01*
X86954819Y-56738095D02*
X87335771Y-57071428D01*
X87335771Y-57071428D02*
X87335771Y-56928571D01*
X87335771Y-56928571D02*
X87383390Y-56833333D01*
X87383390Y-56833333D02*
X87431009Y-56785714D01*
X87431009Y-56785714D02*
X87526247Y-56738095D01*
X87526247Y-56738095D02*
X87764342Y-56738095D01*
X87764342Y-56738095D02*
X87859580Y-56785714D01*
X87859580Y-56785714D02*
X87907200Y-56833333D01*
X87907200Y-56833333D02*
X87954819Y-56928571D01*
X87954819Y-56928571D02*
X87954819Y-57214285D01*
X87954819Y-57214285D02*
X87907200Y-57309523D01*
X87907200Y-57309523D02*
X87859580Y-57357142D01*
X78317142Y-105454819D02*
X77983809Y-104978628D01*
X77745714Y-105454819D02*
X77745714Y-104454819D01*
X77745714Y-104454819D02*
X78126666Y-104454819D01*
X78126666Y-104454819D02*
X78221904Y-104502438D01*
X78221904Y-104502438D02*
X78269523Y-104550057D01*
X78269523Y-104550057D02*
X78317142Y-104645295D01*
X78317142Y-104645295D02*
X78317142Y-104788152D01*
X78317142Y-104788152D02*
X78269523Y-104883390D01*
X78269523Y-104883390D02*
X78221904Y-104931009D01*
X78221904Y-104931009D02*
X78126666Y-104978628D01*
X78126666Y-104978628D02*
X77745714Y-104978628D01*
X79269523Y-105454819D02*
X78698095Y-105454819D01*
X78983809Y-105454819D02*
X78983809Y-104454819D01*
X78983809Y-104454819D02*
X78888571Y-104597676D01*
X78888571Y-104597676D02*
X78793333Y-104692914D01*
X78793333Y-104692914D02*
X78698095Y-104740533D01*
X79602857Y-104454819D02*
X80269523Y-104454819D01*
X80269523Y-104454819D02*
X79840952Y-105454819D01*
D12*
%TO.C,J14*%
X55305000Y-90315000D02*
X56000000Y-90315000D01*
X55305000Y-91000000D02*
X55305000Y-90315000D01*
X55305000Y-91685000D02*
X55305000Y-91560000D01*
X55305000Y-91685000D02*
X55391724Y-91685000D01*
X55305000Y-91685000D02*
X56695000Y-91685000D01*
X56608276Y-91685000D02*
X56695000Y-91685000D01*
X56695000Y-91685000D02*
X56695000Y-91560000D01*
%TO.C,J13*%
X88805000Y-90315000D02*
X89500000Y-90315000D01*
X88805000Y-91000000D02*
X88805000Y-90315000D01*
X88805000Y-91685000D02*
X88805000Y-91560000D01*
X88805000Y-91685000D02*
X88891724Y-91685000D01*
X88805000Y-91685000D02*
X90195000Y-91685000D01*
X90108276Y-91685000D02*
X90195000Y-91685000D01*
X90195000Y-91685000D02*
X90195000Y-91560000D01*
%TO.C,C22*%
X84630000Y-111630000D02*
X84630000Y-114370000D01*
X84630000Y-111630000D02*
X89870000Y-111630000D01*
X84630000Y-114370000D02*
X89870000Y-114370000D01*
X89870000Y-111630000D02*
X89870000Y-114370000D01*
%TO.C,C21*%
X58380000Y-111630000D02*
X58380000Y-114370000D01*
X58380000Y-111630000D02*
X63620000Y-111630000D01*
X58380000Y-114370000D02*
X63620000Y-114370000D01*
X63620000Y-111630000D02*
X63620000Y-114370000D01*
%TO.C,R28*%
X73620000Y-112080000D02*
X77460000Y-112080000D01*
X73620000Y-113920000D02*
X77460000Y-113920000D01*
%TO.C,R27*%
X50960000Y-113920000D02*
X47120000Y-113920000D01*
X50960000Y-112080000D02*
X47120000Y-112080000D01*
%TO.C,R23*%
X65920000Y-64620000D02*
X65920000Y-68460000D01*
X64080000Y-64620000D02*
X64080000Y-68460000D01*
%TO.C,R1*%
X93420000Y-64580000D02*
X93420000Y-68420000D01*
X91580000Y-64580000D02*
X91580000Y-68420000D01*
%TO.C,D10*%
X52380000Y-52500000D02*
X54300000Y-52500000D01*
X54300000Y-51380000D02*
X54300000Y-53620000D01*
X54300000Y-53620000D02*
X58540000Y-53620000D01*
X54900000Y-51380000D02*
X54900000Y-53620000D01*
X55020000Y-51380000D02*
X55020000Y-53620000D01*
X55140000Y-51380000D02*
X55140000Y-53620000D01*
X58540000Y-51380000D02*
X54300000Y-51380000D01*
X58540000Y-53620000D02*
X58540000Y-51380000D01*
X60460000Y-52500000D02*
X58540000Y-52500000D01*
%TO.C,D1*%
X80380000Y-52500000D02*
X82300000Y-52500000D01*
X82300000Y-51380000D02*
X82300000Y-53620000D01*
X82300000Y-53620000D02*
X86540000Y-53620000D01*
X82900000Y-51380000D02*
X82900000Y-53620000D01*
X83020000Y-51380000D02*
X83020000Y-53620000D01*
X83140000Y-51380000D02*
X83140000Y-53620000D01*
X86540000Y-51380000D02*
X82300000Y-51380000D01*
X86540000Y-53620000D02*
X86540000Y-51380000D01*
X88460000Y-52500000D02*
X86540000Y-52500000D01*
%TO.C,C1*%
X60130000Y-55630000D02*
X62870000Y-55630000D01*
X60130000Y-60870000D02*
X60130000Y-55630000D01*
X60130000Y-60870000D02*
X62870000Y-60870000D01*
X62870000Y-60870000D02*
X62870000Y-55630000D01*
%TO.C,C2*%
X55130000Y-55630000D02*
X57870000Y-55630000D01*
X55130000Y-60870000D02*
X55130000Y-55630000D01*
X55130000Y-60870000D02*
X57870000Y-60870000D01*
X57870000Y-60870000D02*
X57870000Y-55630000D01*
%TO.C,C3*%
X50130000Y-55630000D02*
X52870000Y-55630000D01*
X50130000Y-60870000D02*
X50130000Y-55630000D01*
X50130000Y-60870000D02*
X52870000Y-60870000D01*
X52870000Y-60870000D02*
X52870000Y-55630000D01*
%TO.C,C4*%
X45130000Y-55630000D02*
X47870000Y-55630000D01*
X45130000Y-60870000D02*
X45130000Y-55630000D01*
X45130000Y-60870000D02*
X47870000Y-60870000D01*
X47870000Y-60870000D02*
X47870000Y-55630000D01*
%TO.C,C5*%
X65130000Y-55630000D02*
X67870000Y-55630000D01*
X65130000Y-60870000D02*
X65130000Y-55630000D01*
X65130000Y-60870000D02*
X67870000Y-60870000D01*
X67870000Y-60870000D02*
X67870000Y-55630000D01*
%TO.C,C8*%
X58130000Y-109870000D02*
X58130000Y-107130000D01*
X63370000Y-107130000D02*
X58130000Y-107130000D01*
X63370000Y-109870000D02*
X58130000Y-109870000D01*
X63370000Y-109870000D02*
X63370000Y-107130000D01*
%TO.C,D4*%
X47420000Y-95000000D02*
X48070000Y-95000000D01*
X48070000Y-93880000D02*
X48070000Y-96120000D01*
X48070000Y-96120000D02*
X52310000Y-96120000D01*
X48670000Y-93880000D02*
X48670000Y-96120000D01*
X48790000Y-93880000D02*
X48790000Y-96120000D01*
X48910000Y-93880000D02*
X48910000Y-96120000D01*
X52310000Y-93880000D02*
X48070000Y-93880000D01*
X52310000Y-96120000D02*
X52310000Y-93880000D01*
X52960000Y-95000000D02*
X52310000Y-95000000D01*
%TO.C,D5*%
X60040000Y-95000000D02*
X60690000Y-95000000D01*
X60690000Y-93880000D02*
X60690000Y-96120000D01*
X60690000Y-96120000D02*
X64930000Y-96120000D01*
X61290000Y-93880000D02*
X61290000Y-96120000D01*
X61410000Y-93880000D02*
X61410000Y-96120000D01*
X61530000Y-93880000D02*
X61530000Y-96120000D01*
X64930000Y-93880000D02*
X60690000Y-93880000D01*
X64930000Y-96120000D02*
X64930000Y-93880000D01*
X65580000Y-95000000D02*
X64930000Y-95000000D01*
%TO.C,R11*%
X48830000Y-81790000D02*
X48830000Y-85630000D01*
X50670000Y-81790000D02*
X50670000Y-85630000D01*
%TO.C,R5*%
X43080000Y-68380000D02*
X43080000Y-64540000D01*
X44920000Y-68380000D02*
X44920000Y-64540000D01*
%TO.C,R6*%
X58380000Y-63080000D02*
X54540000Y-63080000D01*
X58380000Y-64920000D02*
X54540000Y-64920000D01*
%TO.C,R7*%
X47080000Y-64620000D02*
X47080000Y-68460000D01*
X48920000Y-64620000D02*
X48920000Y-68460000D01*
%TO.C,R2*%
X50080000Y-103580000D02*
X53920000Y-103580000D01*
X50080000Y-105420000D02*
X53920000Y-105420000D01*
%TO.C,R4*%
X45580000Y-103080000D02*
X45580000Y-106920000D01*
X47420000Y-103080000D02*
X47420000Y-106920000D01*
%TO.C,R8*%
X68080000Y-64620000D02*
X68080000Y-68460000D01*
X69920000Y-64620000D02*
X69920000Y-68460000D01*
%TO.C,R9*%
X45040000Y-90080000D02*
X48880000Y-90080000D01*
X45040000Y-91920000D02*
X48880000Y-91920000D01*
%TO.C,R10*%
X62000000Y-103580000D02*
X58160000Y-103580000D01*
X62000000Y-105420000D02*
X58160000Y-105420000D01*
%TO.C,D2*%
X47540000Y-99000000D02*
X48190000Y-99000000D01*
X48190000Y-97880000D02*
X48190000Y-100120000D01*
X48190000Y-100120000D02*
X52430000Y-100120000D01*
X48790000Y-97880000D02*
X48790000Y-100120000D01*
X48910000Y-97880000D02*
X48910000Y-100120000D01*
X49030000Y-97880000D02*
X49030000Y-100120000D01*
X52430000Y-97880000D02*
X48190000Y-97880000D01*
X52430000Y-100120000D02*
X52430000Y-97880000D01*
X53080000Y-99000000D02*
X52430000Y-99000000D01*
%TO.C,D3*%
X60040000Y-99000000D02*
X60690000Y-99000000D01*
X60690000Y-97880000D02*
X60690000Y-100120000D01*
X60690000Y-100120000D02*
X64930000Y-100120000D01*
X61290000Y-97880000D02*
X61290000Y-100120000D01*
X61410000Y-97880000D02*
X61410000Y-100120000D01*
X61530000Y-97880000D02*
X61530000Y-100120000D01*
X64930000Y-97880000D02*
X60690000Y-97880000D01*
X64930000Y-100120000D02*
X64930000Y-97880000D01*
X65580000Y-99000000D02*
X64930000Y-99000000D01*
%TO.C,R3*%
X65580000Y-102580000D02*
X65580000Y-106420000D01*
X67420000Y-102580000D02*
X67420000Y-106420000D01*
%TO.C,R12*%
X63620000Y-90080000D02*
X67460000Y-90080000D01*
X63620000Y-91920000D02*
X67460000Y-91920000D01*
%TO.C,R13*%
X54580000Y-81540000D02*
X54580000Y-85380000D01*
X56420000Y-81540000D02*
X56420000Y-85380000D01*
%TO.C,C6*%
X44130000Y-80630000D02*
X46870000Y-80630000D01*
X44130000Y-85870000D02*
X44130000Y-80630000D01*
X44130000Y-85870000D02*
X46870000Y-85870000D01*
X46870000Y-85870000D02*
X46870000Y-80630000D01*
%TO.C,C9*%
X58380000Y-80630000D02*
X61120000Y-80630000D01*
X58380000Y-85870000D02*
X58380000Y-80630000D01*
X58380000Y-85870000D02*
X61120000Y-85870000D01*
X61120000Y-85870000D02*
X61120000Y-80630000D01*
%TO.C,C7*%
X42840302Y-72185000D02*
X43640302Y-72185000D01*
X43240302Y-71785000D02*
X43240302Y-72585000D01*
X47250000Y-70420000D02*
X47250000Y-78580000D01*
X47290000Y-70420000D02*
X47290000Y-78580000D01*
X47330000Y-70420000D02*
X47330000Y-78580000D01*
X47370000Y-70421000D02*
X47370000Y-78579000D01*
X47410000Y-70423000D02*
X47410000Y-78577000D01*
X47450000Y-70424000D02*
X47450000Y-78576000D01*
X47490000Y-70426000D02*
X47490000Y-78574000D01*
X47530000Y-70429000D02*
X47530000Y-78571000D01*
X47570000Y-70432000D02*
X47570000Y-78568000D01*
X47610000Y-70435000D02*
X47610000Y-78565000D01*
X47650000Y-70439000D02*
X47650000Y-78561000D01*
X47690000Y-70443000D02*
X47690000Y-78557000D01*
X47730000Y-70448000D02*
X47730000Y-78552000D01*
X47770000Y-70452000D02*
X47770000Y-78548000D01*
X47810000Y-70458000D02*
X47810000Y-78542000D01*
X47850000Y-70463000D02*
X47850000Y-78537000D01*
X47890000Y-70470000D02*
X47890000Y-78530000D01*
X47930000Y-70476000D02*
X47930000Y-78524000D01*
X47971000Y-70483000D02*
X47971000Y-73460000D01*
X47971000Y-75540000D02*
X47971000Y-78517000D01*
X48011000Y-70490000D02*
X48011000Y-73460000D01*
X48011000Y-75540000D02*
X48011000Y-78510000D01*
X48051000Y-70498000D02*
X48051000Y-73460000D01*
X48051000Y-75540000D02*
X48051000Y-78502000D01*
X48091000Y-70506000D02*
X48091000Y-73460000D01*
X48091000Y-75540000D02*
X48091000Y-78494000D01*
X48131000Y-70515000D02*
X48131000Y-73460000D01*
X48131000Y-75540000D02*
X48131000Y-78485000D01*
X48171000Y-70524000D02*
X48171000Y-73460000D01*
X48171000Y-75540000D02*
X48171000Y-78476000D01*
X48211000Y-70533000D02*
X48211000Y-73460000D01*
X48211000Y-75540000D02*
X48211000Y-78467000D01*
X48251000Y-70543000D02*
X48251000Y-73460000D01*
X48251000Y-75540000D02*
X48251000Y-78457000D01*
X48291000Y-70553000D02*
X48291000Y-73460000D01*
X48291000Y-75540000D02*
X48291000Y-78447000D01*
X48331000Y-70564000D02*
X48331000Y-73460000D01*
X48331000Y-75540000D02*
X48331000Y-78436000D01*
X48371000Y-70575000D02*
X48371000Y-73460000D01*
X48371000Y-75540000D02*
X48371000Y-78425000D01*
X48411000Y-70586000D02*
X48411000Y-73460000D01*
X48411000Y-75540000D02*
X48411000Y-78414000D01*
X48451000Y-70598000D02*
X48451000Y-73460000D01*
X48451000Y-75540000D02*
X48451000Y-78402000D01*
X48491000Y-70611000D02*
X48491000Y-73460000D01*
X48491000Y-75540000D02*
X48491000Y-78389000D01*
X48531000Y-70623000D02*
X48531000Y-73460000D01*
X48531000Y-75540000D02*
X48531000Y-78377000D01*
X48571000Y-70637000D02*
X48571000Y-73460000D01*
X48571000Y-75540000D02*
X48571000Y-78363000D01*
X48611000Y-70650000D02*
X48611000Y-73460000D01*
X48611000Y-75540000D02*
X48611000Y-78350000D01*
X48651000Y-70665000D02*
X48651000Y-73460000D01*
X48651000Y-75540000D02*
X48651000Y-78335000D01*
X48691000Y-70679000D02*
X48691000Y-73460000D01*
X48691000Y-75540000D02*
X48691000Y-78321000D01*
X48731000Y-70695000D02*
X48731000Y-73460000D01*
X48731000Y-75540000D02*
X48731000Y-78305000D01*
X48771000Y-70710000D02*
X48771000Y-73460000D01*
X48771000Y-75540000D02*
X48771000Y-78290000D01*
X48811000Y-70726000D02*
X48811000Y-73460000D01*
X48811000Y-75540000D02*
X48811000Y-78274000D01*
X48851000Y-70743000D02*
X48851000Y-73460000D01*
X48851000Y-75540000D02*
X48851000Y-78257000D01*
X48891000Y-70760000D02*
X48891000Y-73460000D01*
X48891000Y-75540000D02*
X48891000Y-78240000D01*
X48931000Y-70778000D02*
X48931000Y-73460000D01*
X48931000Y-75540000D02*
X48931000Y-78222000D01*
X48971000Y-70796000D02*
X48971000Y-73460000D01*
X48971000Y-75540000D02*
X48971000Y-78204000D01*
X49011000Y-70814000D02*
X49011000Y-73460000D01*
X49011000Y-75540000D02*
X49011000Y-78186000D01*
X49051000Y-70834000D02*
X49051000Y-73460000D01*
X49051000Y-75540000D02*
X49051000Y-78166000D01*
X49091000Y-70853000D02*
X49091000Y-73460000D01*
X49091000Y-75540000D02*
X49091000Y-78147000D01*
X49131000Y-70873000D02*
X49131000Y-73460000D01*
X49131000Y-75540000D02*
X49131000Y-78127000D01*
X49171000Y-70894000D02*
X49171000Y-73460000D01*
X49171000Y-75540000D02*
X49171000Y-78106000D01*
X49211000Y-70916000D02*
X49211000Y-73460000D01*
X49211000Y-75540000D02*
X49211000Y-78084000D01*
X49251000Y-70938000D02*
X49251000Y-73460000D01*
X49251000Y-75540000D02*
X49251000Y-78062000D01*
X49291000Y-70960000D02*
X49291000Y-73460000D01*
X49291000Y-75540000D02*
X49291000Y-78040000D01*
X49331000Y-70983000D02*
X49331000Y-73460000D01*
X49331000Y-75540000D02*
X49331000Y-78017000D01*
X49371000Y-71007000D02*
X49371000Y-73460000D01*
X49371000Y-75540000D02*
X49371000Y-77993000D01*
X49411000Y-71031000D02*
X49411000Y-73460000D01*
X49411000Y-75540000D02*
X49411000Y-77969000D01*
X49451000Y-71056000D02*
X49451000Y-73460000D01*
X49451000Y-75540000D02*
X49451000Y-77944000D01*
X49491000Y-71082000D02*
X49491000Y-73460000D01*
X49491000Y-75540000D02*
X49491000Y-77918000D01*
X49531000Y-71108000D02*
X49531000Y-73460000D01*
X49531000Y-75540000D02*
X49531000Y-77892000D01*
X49571000Y-71135000D02*
X49571000Y-73460000D01*
X49571000Y-75540000D02*
X49571000Y-77865000D01*
X49611000Y-71162000D02*
X49611000Y-73460000D01*
X49611000Y-75540000D02*
X49611000Y-77838000D01*
X49651000Y-71191000D02*
X49651000Y-73460000D01*
X49651000Y-75540000D02*
X49651000Y-77809000D01*
X49691000Y-71220000D02*
X49691000Y-73460000D01*
X49691000Y-75540000D02*
X49691000Y-77780000D01*
X49731000Y-71250000D02*
X49731000Y-73460000D01*
X49731000Y-75540000D02*
X49731000Y-77750000D01*
X49771000Y-71280000D02*
X49771000Y-73460000D01*
X49771000Y-75540000D02*
X49771000Y-77720000D01*
X49811000Y-71311000D02*
X49811000Y-73460000D01*
X49811000Y-75540000D02*
X49811000Y-77689000D01*
X49851000Y-71344000D02*
X49851000Y-73460000D01*
X49851000Y-75540000D02*
X49851000Y-77656000D01*
X49891000Y-71376000D02*
X49891000Y-73460000D01*
X49891000Y-75540000D02*
X49891000Y-77624000D01*
X49931000Y-71410000D02*
X49931000Y-73460000D01*
X49931000Y-75540000D02*
X49931000Y-77590000D01*
X49971000Y-71445000D02*
X49971000Y-73460000D01*
X49971000Y-75540000D02*
X49971000Y-77555000D01*
X50011000Y-71481000D02*
X50011000Y-73460000D01*
X50011000Y-75540000D02*
X50011000Y-77519000D01*
X50051000Y-71517000D02*
X50051000Y-77483000D01*
X50091000Y-71555000D02*
X50091000Y-77445000D01*
X50131000Y-71593000D02*
X50131000Y-77407000D01*
X50171000Y-71633000D02*
X50171000Y-77367000D01*
X50211000Y-71674000D02*
X50211000Y-77326000D01*
X50251000Y-71716000D02*
X50251000Y-77284000D01*
X50291000Y-71759000D02*
X50291000Y-77241000D01*
X50331000Y-71803000D02*
X50331000Y-77197000D01*
X50371000Y-71849000D02*
X50371000Y-77151000D01*
X50411000Y-71896000D02*
X50411000Y-77104000D01*
X50451000Y-71944000D02*
X50451000Y-77056000D01*
X50491000Y-71995000D02*
X50491000Y-77005000D01*
X50531000Y-72046000D02*
X50531000Y-76954000D01*
X50571000Y-72100000D02*
X50571000Y-76900000D01*
X50611000Y-72155000D02*
X50611000Y-76845000D01*
X50651000Y-72213000D02*
X50651000Y-76787000D01*
X50691000Y-72272000D02*
X50691000Y-76728000D01*
X50731000Y-72334000D02*
X50731000Y-76666000D01*
X50771000Y-72398000D02*
X50771000Y-76602000D01*
X50811000Y-72466000D02*
X50811000Y-76534000D01*
X50851000Y-72536000D02*
X50851000Y-76464000D01*
X50891000Y-72610000D02*
X50891000Y-76390000D01*
X50931000Y-72687000D02*
X50931000Y-76313000D01*
X50971000Y-72769000D02*
X50971000Y-76231000D01*
X51011000Y-72855000D02*
X51011000Y-76145000D01*
X51051000Y-72948000D02*
X51051000Y-76052000D01*
X51091000Y-73047000D02*
X51091000Y-75953000D01*
X51131000Y-73154000D02*
X51131000Y-75846000D01*
X51171000Y-73271000D02*
X51171000Y-75729000D01*
X51211000Y-73402000D02*
X51211000Y-75598000D01*
X51251000Y-73552000D02*
X51251000Y-75448000D01*
X51291000Y-73732000D02*
X51291000Y-75268000D01*
X51331000Y-73967000D02*
X51331000Y-75033000D01*
X51370000Y-74500000D02*
G75*
G02*
X43130000Y-74500000I-4120000J0D01*
G01*
X43130000Y-74500000D02*
G75*
G02*
X51370000Y-74500000I4120000J0D01*
G01*
%TO.C,C10*%
X53340302Y-72185000D02*
X54140302Y-72185000D01*
X53740302Y-71785000D02*
X53740302Y-72585000D01*
X57750000Y-70420000D02*
X57750000Y-78580000D01*
X57790000Y-70420000D02*
X57790000Y-78580000D01*
X57830000Y-70420000D02*
X57830000Y-78580000D01*
X57870000Y-70421000D02*
X57870000Y-78579000D01*
X57910000Y-70423000D02*
X57910000Y-78577000D01*
X57950000Y-70424000D02*
X57950000Y-78576000D01*
X57990000Y-70426000D02*
X57990000Y-78574000D01*
X58030000Y-70429000D02*
X58030000Y-78571000D01*
X58070000Y-70432000D02*
X58070000Y-78568000D01*
X58110000Y-70435000D02*
X58110000Y-78565000D01*
X58150000Y-70439000D02*
X58150000Y-78561000D01*
X58190000Y-70443000D02*
X58190000Y-78557000D01*
X58230000Y-70448000D02*
X58230000Y-78552000D01*
X58270000Y-70452000D02*
X58270000Y-78548000D01*
X58310000Y-70458000D02*
X58310000Y-78542000D01*
X58350000Y-70463000D02*
X58350000Y-78537000D01*
X58390000Y-70470000D02*
X58390000Y-78530000D01*
X58430000Y-70476000D02*
X58430000Y-78524000D01*
X58471000Y-70483000D02*
X58471000Y-73460000D01*
X58471000Y-75540000D02*
X58471000Y-78517000D01*
X58511000Y-70490000D02*
X58511000Y-73460000D01*
X58511000Y-75540000D02*
X58511000Y-78510000D01*
X58551000Y-70498000D02*
X58551000Y-73460000D01*
X58551000Y-75540000D02*
X58551000Y-78502000D01*
X58591000Y-70506000D02*
X58591000Y-73460000D01*
X58591000Y-75540000D02*
X58591000Y-78494000D01*
X58631000Y-70515000D02*
X58631000Y-73460000D01*
X58631000Y-75540000D02*
X58631000Y-78485000D01*
X58671000Y-70524000D02*
X58671000Y-73460000D01*
X58671000Y-75540000D02*
X58671000Y-78476000D01*
X58711000Y-70533000D02*
X58711000Y-73460000D01*
X58711000Y-75540000D02*
X58711000Y-78467000D01*
X58751000Y-70543000D02*
X58751000Y-73460000D01*
X58751000Y-75540000D02*
X58751000Y-78457000D01*
X58791000Y-70553000D02*
X58791000Y-73460000D01*
X58791000Y-75540000D02*
X58791000Y-78447000D01*
X58831000Y-70564000D02*
X58831000Y-73460000D01*
X58831000Y-75540000D02*
X58831000Y-78436000D01*
X58871000Y-70575000D02*
X58871000Y-73460000D01*
X58871000Y-75540000D02*
X58871000Y-78425000D01*
X58911000Y-70586000D02*
X58911000Y-73460000D01*
X58911000Y-75540000D02*
X58911000Y-78414000D01*
X58951000Y-70598000D02*
X58951000Y-73460000D01*
X58951000Y-75540000D02*
X58951000Y-78402000D01*
X58991000Y-70611000D02*
X58991000Y-73460000D01*
X58991000Y-75540000D02*
X58991000Y-78389000D01*
X59031000Y-70623000D02*
X59031000Y-73460000D01*
X59031000Y-75540000D02*
X59031000Y-78377000D01*
X59071000Y-70637000D02*
X59071000Y-73460000D01*
X59071000Y-75540000D02*
X59071000Y-78363000D01*
X59111000Y-70650000D02*
X59111000Y-73460000D01*
X59111000Y-75540000D02*
X59111000Y-78350000D01*
X59151000Y-70665000D02*
X59151000Y-73460000D01*
X59151000Y-75540000D02*
X59151000Y-78335000D01*
X59191000Y-70679000D02*
X59191000Y-73460000D01*
X59191000Y-75540000D02*
X59191000Y-78321000D01*
X59231000Y-70695000D02*
X59231000Y-73460000D01*
X59231000Y-75540000D02*
X59231000Y-78305000D01*
X59271000Y-70710000D02*
X59271000Y-73460000D01*
X59271000Y-75540000D02*
X59271000Y-78290000D01*
X59311000Y-70726000D02*
X59311000Y-73460000D01*
X59311000Y-75540000D02*
X59311000Y-78274000D01*
X59351000Y-70743000D02*
X59351000Y-73460000D01*
X59351000Y-75540000D02*
X59351000Y-78257000D01*
X59391000Y-70760000D02*
X59391000Y-73460000D01*
X59391000Y-75540000D02*
X59391000Y-78240000D01*
X59431000Y-70778000D02*
X59431000Y-73460000D01*
X59431000Y-75540000D02*
X59431000Y-78222000D01*
X59471000Y-70796000D02*
X59471000Y-73460000D01*
X59471000Y-75540000D02*
X59471000Y-78204000D01*
X59511000Y-70814000D02*
X59511000Y-73460000D01*
X59511000Y-75540000D02*
X59511000Y-78186000D01*
X59551000Y-70834000D02*
X59551000Y-73460000D01*
X59551000Y-75540000D02*
X59551000Y-78166000D01*
X59591000Y-70853000D02*
X59591000Y-73460000D01*
X59591000Y-75540000D02*
X59591000Y-78147000D01*
X59631000Y-70873000D02*
X59631000Y-73460000D01*
X59631000Y-75540000D02*
X59631000Y-78127000D01*
X59671000Y-70894000D02*
X59671000Y-73460000D01*
X59671000Y-75540000D02*
X59671000Y-78106000D01*
X59711000Y-70916000D02*
X59711000Y-73460000D01*
X59711000Y-75540000D02*
X59711000Y-78084000D01*
X59751000Y-70938000D02*
X59751000Y-73460000D01*
X59751000Y-75540000D02*
X59751000Y-78062000D01*
X59791000Y-70960000D02*
X59791000Y-73460000D01*
X59791000Y-75540000D02*
X59791000Y-78040000D01*
X59831000Y-70983000D02*
X59831000Y-73460000D01*
X59831000Y-75540000D02*
X59831000Y-78017000D01*
X59871000Y-71007000D02*
X59871000Y-73460000D01*
X59871000Y-75540000D02*
X59871000Y-77993000D01*
X59911000Y-71031000D02*
X59911000Y-73460000D01*
X59911000Y-75540000D02*
X59911000Y-77969000D01*
X59951000Y-71056000D02*
X59951000Y-73460000D01*
X59951000Y-75540000D02*
X59951000Y-77944000D01*
X59991000Y-71082000D02*
X59991000Y-73460000D01*
X59991000Y-75540000D02*
X59991000Y-77918000D01*
X60031000Y-71108000D02*
X60031000Y-73460000D01*
X60031000Y-75540000D02*
X60031000Y-77892000D01*
X60071000Y-71135000D02*
X60071000Y-73460000D01*
X60071000Y-75540000D02*
X60071000Y-77865000D01*
X60111000Y-71162000D02*
X60111000Y-73460000D01*
X60111000Y-75540000D02*
X60111000Y-77838000D01*
X60151000Y-71191000D02*
X60151000Y-73460000D01*
X60151000Y-75540000D02*
X60151000Y-77809000D01*
X60191000Y-71220000D02*
X60191000Y-73460000D01*
X60191000Y-75540000D02*
X60191000Y-77780000D01*
X60231000Y-71250000D02*
X60231000Y-73460000D01*
X60231000Y-75540000D02*
X60231000Y-77750000D01*
X60271000Y-71280000D02*
X60271000Y-73460000D01*
X60271000Y-75540000D02*
X60271000Y-77720000D01*
X60311000Y-71311000D02*
X60311000Y-73460000D01*
X60311000Y-75540000D02*
X60311000Y-77689000D01*
X60351000Y-71344000D02*
X60351000Y-73460000D01*
X60351000Y-75540000D02*
X60351000Y-77656000D01*
X60391000Y-71376000D02*
X60391000Y-73460000D01*
X60391000Y-75540000D02*
X60391000Y-77624000D01*
X60431000Y-71410000D02*
X60431000Y-73460000D01*
X60431000Y-75540000D02*
X60431000Y-77590000D01*
X60471000Y-71445000D02*
X60471000Y-73460000D01*
X60471000Y-75540000D02*
X60471000Y-77555000D01*
X60511000Y-71481000D02*
X60511000Y-73460000D01*
X60511000Y-75540000D02*
X60511000Y-77519000D01*
X60551000Y-71517000D02*
X60551000Y-77483000D01*
X60591000Y-71555000D02*
X60591000Y-77445000D01*
X60631000Y-71593000D02*
X60631000Y-77407000D01*
X60671000Y-71633000D02*
X60671000Y-77367000D01*
X60711000Y-71674000D02*
X60711000Y-77326000D01*
X60751000Y-71716000D02*
X60751000Y-77284000D01*
X60791000Y-71759000D02*
X60791000Y-77241000D01*
X60831000Y-71803000D02*
X60831000Y-77197000D01*
X60871000Y-71849000D02*
X60871000Y-77151000D01*
X60911000Y-71896000D02*
X60911000Y-77104000D01*
X60951000Y-71944000D02*
X60951000Y-77056000D01*
X60991000Y-71995000D02*
X60991000Y-77005000D01*
X61031000Y-72046000D02*
X61031000Y-76954000D01*
X61071000Y-72100000D02*
X61071000Y-76900000D01*
X61111000Y-72155000D02*
X61111000Y-76845000D01*
X61151000Y-72213000D02*
X61151000Y-76787000D01*
X61191000Y-72272000D02*
X61191000Y-76728000D01*
X61231000Y-72334000D02*
X61231000Y-76666000D01*
X61271000Y-72398000D02*
X61271000Y-76602000D01*
X61311000Y-72466000D02*
X61311000Y-76534000D01*
X61351000Y-72536000D02*
X61351000Y-76464000D01*
X61391000Y-72610000D02*
X61391000Y-76390000D01*
X61431000Y-72687000D02*
X61431000Y-76313000D01*
X61471000Y-72769000D02*
X61471000Y-76231000D01*
X61511000Y-72855000D02*
X61511000Y-76145000D01*
X61551000Y-72948000D02*
X61551000Y-76052000D01*
X61591000Y-73047000D02*
X61591000Y-75953000D01*
X61631000Y-73154000D02*
X61631000Y-75846000D01*
X61671000Y-73271000D02*
X61671000Y-75729000D01*
X61711000Y-73402000D02*
X61711000Y-75598000D01*
X61751000Y-73552000D02*
X61751000Y-75448000D01*
X61791000Y-73732000D02*
X61791000Y-75268000D01*
X61831000Y-73967000D02*
X61831000Y-75033000D01*
X61870000Y-74500000D02*
G75*
G02*
X53630000Y-74500000I-4120000J0D01*
G01*
X53630000Y-74500000D02*
G75*
G02*
X61870000Y-74500000I4120000J0D01*
G01*
%TO.C,J3*%
X52805000Y-90315000D02*
X53500000Y-90315000D01*
X52805000Y-91000000D02*
X52805000Y-90315000D01*
X52805000Y-91685000D02*
X52805000Y-91560000D01*
X52805000Y-91685000D02*
X52891724Y-91685000D01*
X52805000Y-91685000D02*
X54195000Y-91685000D01*
X54108276Y-91685000D02*
X54195000Y-91685000D01*
X54195000Y-91685000D02*
X54195000Y-91560000D01*
%TO.C,J6*%
X86305000Y-90315000D02*
X87000000Y-90315000D01*
X86305000Y-91000000D02*
X86305000Y-90315000D01*
X86305000Y-91685000D02*
X86305000Y-91560000D01*
X86305000Y-91685000D02*
X86391724Y-91685000D01*
X86305000Y-91685000D02*
X87695000Y-91685000D01*
X87608276Y-91685000D02*
X87695000Y-91685000D01*
X87695000Y-91685000D02*
X87695000Y-91560000D01*
%TO.C,R14*%
X92080000Y-102040000D02*
X92080000Y-105880000D01*
X93920000Y-102040000D02*
X93920000Y-105880000D01*
%TO.C,C19*%
X73130000Y-55630000D02*
X75870000Y-55630000D01*
X73130000Y-60870000D02*
X73130000Y-55630000D01*
X73130000Y-60870000D02*
X75870000Y-60870000D01*
X75870000Y-60870000D02*
X75870000Y-55630000D01*
%TO.C,R20*%
X92580000Y-90080000D02*
X96420000Y-90080000D01*
X92580000Y-91920000D02*
X96420000Y-91920000D01*
%TO.C,U2*%
X71475000Y-73335000D02*
X69525000Y-73335000D01*
X71475000Y-73335000D02*
X73425000Y-73335000D01*
X71475000Y-82205000D02*
X69525000Y-82205000D01*
X71475000Y-82205000D02*
X73425000Y-82205000D01*
X68775000Y-73400000D02*
X68535000Y-73070000D01*
X69015000Y-73070000D01*
X68775000Y-73400000D01*
G36*
X68775000Y-73400000D02*
G01*
X68535000Y-73070000D01*
X69015000Y-73070000D01*
X68775000Y-73400000D01*
G37*
%TO.C,D9*%
X85920000Y-94960000D02*
X86570000Y-94960000D01*
X86570000Y-93840000D02*
X86570000Y-96080000D01*
X86570000Y-96080000D02*
X90810000Y-96080000D01*
X87170000Y-93840000D02*
X87170000Y-96080000D01*
X87290000Y-93840000D02*
X87290000Y-96080000D01*
X87410000Y-93840000D02*
X87410000Y-96080000D01*
X90810000Y-93840000D02*
X86570000Y-93840000D01*
X90810000Y-96080000D02*
X90810000Y-93840000D01*
X91460000Y-94960000D02*
X90810000Y-94960000D01*
%TO.C,R25*%
X73080000Y-68380000D02*
X73080000Y-64540000D01*
X74920000Y-68380000D02*
X74920000Y-64540000D01*
%TO.C,D8*%
X74230000Y-95040000D02*
X74880000Y-95040000D01*
X74880000Y-93920000D02*
X74880000Y-96160000D01*
X74880000Y-96160000D02*
X79120000Y-96160000D01*
X75480000Y-93920000D02*
X75480000Y-96160000D01*
X75600000Y-93920000D02*
X75600000Y-96160000D01*
X75720000Y-93920000D02*
X75720000Y-96160000D01*
X79120000Y-93920000D02*
X74880000Y-93920000D01*
X79120000Y-96160000D02*
X79120000Y-93920000D01*
X79770000Y-95040000D02*
X79120000Y-95040000D01*
%TO.C,C18*%
X78130000Y-55630000D02*
X80870000Y-55630000D01*
X78130000Y-60870000D02*
X78130000Y-55630000D01*
X78130000Y-60870000D02*
X80870000Y-60870000D01*
X80870000Y-60870000D02*
X80870000Y-55630000D01*
%TO.C,R26*%
X83580000Y-63080000D02*
X87420000Y-63080000D01*
X83580000Y-64920000D02*
X87420000Y-64920000D01*
%TO.C,C12*%
X79840302Y-72685000D02*
X80640302Y-72685000D01*
X80240302Y-72285000D02*
X80240302Y-73085000D01*
X84250000Y-70920000D02*
X84250000Y-79080000D01*
X84290000Y-70920000D02*
X84290000Y-79080000D01*
X84330000Y-70920000D02*
X84330000Y-79080000D01*
X84370000Y-70921000D02*
X84370000Y-79079000D01*
X84410000Y-70923000D02*
X84410000Y-79077000D01*
X84450000Y-70924000D02*
X84450000Y-79076000D01*
X84490000Y-70926000D02*
X84490000Y-79074000D01*
X84530000Y-70929000D02*
X84530000Y-79071000D01*
X84570000Y-70932000D02*
X84570000Y-79068000D01*
X84610000Y-70935000D02*
X84610000Y-79065000D01*
X84650000Y-70939000D02*
X84650000Y-79061000D01*
X84690000Y-70943000D02*
X84690000Y-79057000D01*
X84730000Y-70948000D02*
X84730000Y-79052000D01*
X84770000Y-70952000D02*
X84770000Y-79048000D01*
X84810000Y-70958000D02*
X84810000Y-79042000D01*
X84850000Y-70963000D02*
X84850000Y-79037000D01*
X84890000Y-70970000D02*
X84890000Y-79030000D01*
X84930000Y-70976000D02*
X84930000Y-79024000D01*
X84971000Y-70983000D02*
X84971000Y-73960000D01*
X84971000Y-76040000D02*
X84971000Y-79017000D01*
X85011000Y-70990000D02*
X85011000Y-73960000D01*
X85011000Y-76040000D02*
X85011000Y-79010000D01*
X85051000Y-70998000D02*
X85051000Y-73960000D01*
X85051000Y-76040000D02*
X85051000Y-79002000D01*
X85091000Y-71006000D02*
X85091000Y-73960000D01*
X85091000Y-76040000D02*
X85091000Y-78994000D01*
X85131000Y-71015000D02*
X85131000Y-73960000D01*
X85131000Y-76040000D02*
X85131000Y-78985000D01*
X85171000Y-71024000D02*
X85171000Y-73960000D01*
X85171000Y-76040000D02*
X85171000Y-78976000D01*
X85211000Y-71033000D02*
X85211000Y-73960000D01*
X85211000Y-76040000D02*
X85211000Y-78967000D01*
X85251000Y-71043000D02*
X85251000Y-73960000D01*
X85251000Y-76040000D02*
X85251000Y-78957000D01*
X85291000Y-71053000D02*
X85291000Y-73960000D01*
X85291000Y-76040000D02*
X85291000Y-78947000D01*
X85331000Y-71064000D02*
X85331000Y-73960000D01*
X85331000Y-76040000D02*
X85331000Y-78936000D01*
X85371000Y-71075000D02*
X85371000Y-73960000D01*
X85371000Y-76040000D02*
X85371000Y-78925000D01*
X85411000Y-71086000D02*
X85411000Y-73960000D01*
X85411000Y-76040000D02*
X85411000Y-78914000D01*
X85451000Y-71098000D02*
X85451000Y-73960000D01*
X85451000Y-76040000D02*
X85451000Y-78902000D01*
X85491000Y-71111000D02*
X85491000Y-73960000D01*
X85491000Y-76040000D02*
X85491000Y-78889000D01*
X85531000Y-71123000D02*
X85531000Y-73960000D01*
X85531000Y-76040000D02*
X85531000Y-78877000D01*
X85571000Y-71137000D02*
X85571000Y-73960000D01*
X85571000Y-76040000D02*
X85571000Y-78863000D01*
X85611000Y-71150000D02*
X85611000Y-73960000D01*
X85611000Y-76040000D02*
X85611000Y-78850000D01*
X85651000Y-71165000D02*
X85651000Y-73960000D01*
X85651000Y-76040000D02*
X85651000Y-78835000D01*
X85691000Y-71179000D02*
X85691000Y-73960000D01*
X85691000Y-76040000D02*
X85691000Y-78821000D01*
X85731000Y-71195000D02*
X85731000Y-73960000D01*
X85731000Y-76040000D02*
X85731000Y-78805000D01*
X85771000Y-71210000D02*
X85771000Y-73960000D01*
X85771000Y-76040000D02*
X85771000Y-78790000D01*
X85811000Y-71226000D02*
X85811000Y-73960000D01*
X85811000Y-76040000D02*
X85811000Y-78774000D01*
X85851000Y-71243000D02*
X85851000Y-73960000D01*
X85851000Y-76040000D02*
X85851000Y-78757000D01*
X85891000Y-71260000D02*
X85891000Y-73960000D01*
X85891000Y-76040000D02*
X85891000Y-78740000D01*
X85931000Y-71278000D02*
X85931000Y-73960000D01*
X85931000Y-76040000D02*
X85931000Y-78722000D01*
X85971000Y-71296000D02*
X85971000Y-73960000D01*
X85971000Y-76040000D02*
X85971000Y-78704000D01*
X86011000Y-71314000D02*
X86011000Y-73960000D01*
X86011000Y-76040000D02*
X86011000Y-78686000D01*
X86051000Y-71334000D02*
X86051000Y-73960000D01*
X86051000Y-76040000D02*
X86051000Y-78666000D01*
X86091000Y-71353000D02*
X86091000Y-73960000D01*
X86091000Y-76040000D02*
X86091000Y-78647000D01*
X86131000Y-71373000D02*
X86131000Y-73960000D01*
X86131000Y-76040000D02*
X86131000Y-78627000D01*
X86171000Y-71394000D02*
X86171000Y-73960000D01*
X86171000Y-76040000D02*
X86171000Y-78606000D01*
X86211000Y-71416000D02*
X86211000Y-73960000D01*
X86211000Y-76040000D02*
X86211000Y-78584000D01*
X86251000Y-71438000D02*
X86251000Y-73960000D01*
X86251000Y-76040000D02*
X86251000Y-78562000D01*
X86291000Y-71460000D02*
X86291000Y-73960000D01*
X86291000Y-76040000D02*
X86291000Y-78540000D01*
X86331000Y-71483000D02*
X86331000Y-73960000D01*
X86331000Y-76040000D02*
X86331000Y-78517000D01*
X86371000Y-71507000D02*
X86371000Y-73960000D01*
X86371000Y-76040000D02*
X86371000Y-78493000D01*
X86411000Y-71531000D02*
X86411000Y-73960000D01*
X86411000Y-76040000D02*
X86411000Y-78469000D01*
X86451000Y-71556000D02*
X86451000Y-73960000D01*
X86451000Y-76040000D02*
X86451000Y-78444000D01*
X86491000Y-71582000D02*
X86491000Y-73960000D01*
X86491000Y-76040000D02*
X86491000Y-78418000D01*
X86531000Y-71608000D02*
X86531000Y-73960000D01*
X86531000Y-76040000D02*
X86531000Y-78392000D01*
X86571000Y-71635000D02*
X86571000Y-73960000D01*
X86571000Y-76040000D02*
X86571000Y-78365000D01*
X86611000Y-71662000D02*
X86611000Y-73960000D01*
X86611000Y-76040000D02*
X86611000Y-78338000D01*
X86651000Y-71691000D02*
X86651000Y-73960000D01*
X86651000Y-76040000D02*
X86651000Y-78309000D01*
X86691000Y-71720000D02*
X86691000Y-73960000D01*
X86691000Y-76040000D02*
X86691000Y-78280000D01*
X86731000Y-71750000D02*
X86731000Y-73960000D01*
X86731000Y-76040000D02*
X86731000Y-78250000D01*
X86771000Y-71780000D02*
X86771000Y-73960000D01*
X86771000Y-76040000D02*
X86771000Y-78220000D01*
X86811000Y-71811000D02*
X86811000Y-73960000D01*
X86811000Y-76040000D02*
X86811000Y-78189000D01*
X86851000Y-71844000D02*
X86851000Y-73960000D01*
X86851000Y-76040000D02*
X86851000Y-78156000D01*
X86891000Y-71876000D02*
X86891000Y-73960000D01*
X86891000Y-76040000D02*
X86891000Y-78124000D01*
X86931000Y-71910000D02*
X86931000Y-73960000D01*
X86931000Y-76040000D02*
X86931000Y-78090000D01*
X86971000Y-71945000D02*
X86971000Y-73960000D01*
X86971000Y-76040000D02*
X86971000Y-78055000D01*
X87011000Y-71981000D02*
X87011000Y-73960000D01*
X87011000Y-76040000D02*
X87011000Y-78019000D01*
X87051000Y-72017000D02*
X87051000Y-77983000D01*
X87091000Y-72055000D02*
X87091000Y-77945000D01*
X87131000Y-72093000D02*
X87131000Y-77907000D01*
X87171000Y-72133000D02*
X87171000Y-77867000D01*
X87211000Y-72174000D02*
X87211000Y-77826000D01*
X87251000Y-72216000D02*
X87251000Y-77784000D01*
X87291000Y-72259000D02*
X87291000Y-77741000D01*
X87331000Y-72303000D02*
X87331000Y-77697000D01*
X87371000Y-72349000D02*
X87371000Y-77651000D01*
X87411000Y-72396000D02*
X87411000Y-77604000D01*
X87451000Y-72444000D02*
X87451000Y-77556000D01*
X87491000Y-72495000D02*
X87491000Y-77505000D01*
X87531000Y-72546000D02*
X87531000Y-77454000D01*
X87571000Y-72600000D02*
X87571000Y-77400000D01*
X87611000Y-72655000D02*
X87611000Y-77345000D01*
X87651000Y-72713000D02*
X87651000Y-77287000D01*
X87691000Y-72772000D02*
X87691000Y-77228000D01*
X87731000Y-72834000D02*
X87731000Y-77166000D01*
X87771000Y-72898000D02*
X87771000Y-77102000D01*
X87811000Y-72966000D02*
X87811000Y-77034000D01*
X87851000Y-73036000D02*
X87851000Y-76964000D01*
X87891000Y-73110000D02*
X87891000Y-76890000D01*
X87931000Y-73187000D02*
X87931000Y-76813000D01*
X87971000Y-73269000D02*
X87971000Y-76731000D01*
X88011000Y-73355000D02*
X88011000Y-76645000D01*
X88051000Y-73448000D02*
X88051000Y-76552000D01*
X88091000Y-73547000D02*
X88091000Y-76453000D01*
X88131000Y-73654000D02*
X88131000Y-76346000D01*
X88171000Y-73771000D02*
X88171000Y-76229000D01*
X88211000Y-73902000D02*
X88211000Y-76098000D01*
X88251000Y-74052000D02*
X88251000Y-75948000D01*
X88291000Y-74232000D02*
X88291000Y-75768000D01*
X88331000Y-74467000D02*
X88331000Y-75533000D01*
X88370000Y-75000000D02*
G75*
G02*
X80130000Y-75000000I-4120000J0D01*
G01*
X80130000Y-75000000D02*
G75*
G02*
X88370000Y-75000000I4120000J0D01*
G01*
%TO.C,C20*%
X95130000Y-55380000D02*
X95130000Y-60620000D01*
X97870000Y-55380000D02*
X95130000Y-55380000D01*
X97870000Y-55380000D02*
X97870000Y-60620000D01*
X97870000Y-60620000D02*
X95130000Y-60620000D01*
%TO.C,C15*%
X90187602Y-72685000D02*
X90987602Y-72685000D01*
X90587602Y-72285000D02*
X90587602Y-73085000D01*
X94597300Y-70920000D02*
X94597300Y-79080000D01*
X94637300Y-70920000D02*
X94637300Y-79080000D01*
X94677300Y-70920000D02*
X94677300Y-79080000D01*
X94717300Y-70921000D02*
X94717300Y-79079000D01*
X94757300Y-70923000D02*
X94757300Y-79077000D01*
X94797300Y-70924000D02*
X94797300Y-79076000D01*
X94837300Y-70926000D02*
X94837300Y-79074000D01*
X94877300Y-70929000D02*
X94877300Y-79071000D01*
X94917300Y-70932000D02*
X94917300Y-79068000D01*
X94957300Y-70935000D02*
X94957300Y-79065000D01*
X94997300Y-70939000D02*
X94997300Y-79061000D01*
X95037300Y-70943000D02*
X95037300Y-79057000D01*
X95077300Y-70948000D02*
X95077300Y-79052000D01*
X95117300Y-70952000D02*
X95117300Y-79048000D01*
X95157300Y-70958000D02*
X95157300Y-79042000D01*
X95197300Y-70963000D02*
X95197300Y-79037000D01*
X95237300Y-70970000D02*
X95237300Y-79030000D01*
X95277300Y-70976000D02*
X95277300Y-79024000D01*
X95318300Y-70983000D02*
X95318300Y-73960000D01*
X95318300Y-76040000D02*
X95318300Y-79017000D01*
X95358300Y-70990000D02*
X95358300Y-73960000D01*
X95358300Y-76040000D02*
X95358300Y-79010000D01*
X95398300Y-70998000D02*
X95398300Y-73960000D01*
X95398300Y-76040000D02*
X95398300Y-79002000D01*
X95438300Y-71006000D02*
X95438300Y-73960000D01*
X95438300Y-76040000D02*
X95438300Y-78994000D01*
X95478300Y-71015000D02*
X95478300Y-73960000D01*
X95478300Y-76040000D02*
X95478300Y-78985000D01*
X95518300Y-71024000D02*
X95518300Y-73960000D01*
X95518300Y-76040000D02*
X95518300Y-78976000D01*
X95558300Y-71033000D02*
X95558300Y-73960000D01*
X95558300Y-76040000D02*
X95558300Y-78967000D01*
X95598300Y-71043000D02*
X95598300Y-73960000D01*
X95598300Y-76040000D02*
X95598300Y-78957000D01*
X95638300Y-71053000D02*
X95638300Y-73960000D01*
X95638300Y-76040000D02*
X95638300Y-78947000D01*
X95678300Y-71064000D02*
X95678300Y-73960000D01*
X95678300Y-76040000D02*
X95678300Y-78936000D01*
X95718300Y-71075000D02*
X95718300Y-73960000D01*
X95718300Y-76040000D02*
X95718300Y-78925000D01*
X95758300Y-71086000D02*
X95758300Y-73960000D01*
X95758300Y-76040000D02*
X95758300Y-78914000D01*
X95798300Y-71098000D02*
X95798300Y-73960000D01*
X95798300Y-76040000D02*
X95798300Y-78902000D01*
X95838300Y-71111000D02*
X95838300Y-73960000D01*
X95838300Y-76040000D02*
X95838300Y-78889000D01*
X95878300Y-71123000D02*
X95878300Y-73960000D01*
X95878300Y-76040000D02*
X95878300Y-78877000D01*
X95918300Y-71137000D02*
X95918300Y-73960000D01*
X95918300Y-76040000D02*
X95918300Y-78863000D01*
X95958300Y-71150000D02*
X95958300Y-73960000D01*
X95958300Y-76040000D02*
X95958300Y-78850000D01*
X95998300Y-71165000D02*
X95998300Y-73960000D01*
X95998300Y-76040000D02*
X95998300Y-78835000D01*
X96038300Y-71179000D02*
X96038300Y-73960000D01*
X96038300Y-76040000D02*
X96038300Y-78821000D01*
X96078300Y-71195000D02*
X96078300Y-73960000D01*
X96078300Y-76040000D02*
X96078300Y-78805000D01*
X96118300Y-71210000D02*
X96118300Y-73960000D01*
X96118300Y-76040000D02*
X96118300Y-78790000D01*
X96158300Y-71226000D02*
X96158300Y-73960000D01*
X96158300Y-76040000D02*
X96158300Y-78774000D01*
X96198300Y-71243000D02*
X96198300Y-73960000D01*
X96198300Y-76040000D02*
X96198300Y-78757000D01*
X96238300Y-71260000D02*
X96238300Y-73960000D01*
X96238300Y-76040000D02*
X96238300Y-78740000D01*
X96278300Y-71278000D02*
X96278300Y-73960000D01*
X96278300Y-76040000D02*
X96278300Y-78722000D01*
X96318300Y-71296000D02*
X96318300Y-73960000D01*
X96318300Y-76040000D02*
X96318300Y-78704000D01*
X96358300Y-71314000D02*
X96358300Y-73960000D01*
X96358300Y-76040000D02*
X96358300Y-78686000D01*
X96398300Y-71334000D02*
X96398300Y-73960000D01*
X96398300Y-76040000D02*
X96398300Y-78666000D01*
X96438300Y-71353000D02*
X96438300Y-73960000D01*
X96438300Y-76040000D02*
X96438300Y-78647000D01*
X96478300Y-71373000D02*
X96478300Y-73960000D01*
X96478300Y-76040000D02*
X96478300Y-78627000D01*
X96518300Y-71394000D02*
X96518300Y-73960000D01*
X96518300Y-76040000D02*
X96518300Y-78606000D01*
X96558300Y-71416000D02*
X96558300Y-73960000D01*
X96558300Y-76040000D02*
X96558300Y-78584000D01*
X96598300Y-71438000D02*
X96598300Y-73960000D01*
X96598300Y-76040000D02*
X96598300Y-78562000D01*
X96638300Y-71460000D02*
X96638300Y-73960000D01*
X96638300Y-76040000D02*
X96638300Y-78540000D01*
X96678300Y-71483000D02*
X96678300Y-73960000D01*
X96678300Y-76040000D02*
X96678300Y-78517000D01*
X96718300Y-71507000D02*
X96718300Y-73960000D01*
X96718300Y-76040000D02*
X96718300Y-78493000D01*
X96758300Y-71531000D02*
X96758300Y-73960000D01*
X96758300Y-76040000D02*
X96758300Y-78469000D01*
X96798300Y-71556000D02*
X96798300Y-73960000D01*
X96798300Y-76040000D02*
X96798300Y-78444000D01*
X96838300Y-71582000D02*
X96838300Y-73960000D01*
X96838300Y-76040000D02*
X96838300Y-78418000D01*
X96878300Y-71608000D02*
X96878300Y-73960000D01*
X96878300Y-76040000D02*
X96878300Y-78392000D01*
X96918300Y-71635000D02*
X96918300Y-73960000D01*
X96918300Y-76040000D02*
X96918300Y-78365000D01*
X96958300Y-71662000D02*
X96958300Y-73960000D01*
X96958300Y-76040000D02*
X96958300Y-78338000D01*
X96998300Y-71691000D02*
X96998300Y-73960000D01*
X96998300Y-76040000D02*
X96998300Y-78309000D01*
X97038300Y-71720000D02*
X97038300Y-73960000D01*
X97038300Y-76040000D02*
X97038300Y-78280000D01*
X97078300Y-71750000D02*
X97078300Y-73960000D01*
X97078300Y-76040000D02*
X97078300Y-78250000D01*
X97118300Y-71780000D02*
X97118300Y-73960000D01*
X97118300Y-76040000D02*
X97118300Y-78220000D01*
X97158300Y-71811000D02*
X97158300Y-73960000D01*
X97158300Y-76040000D02*
X97158300Y-78189000D01*
X97198300Y-71844000D02*
X97198300Y-73960000D01*
X97198300Y-76040000D02*
X97198300Y-78156000D01*
X97238300Y-71876000D02*
X97238300Y-73960000D01*
X97238300Y-76040000D02*
X97238300Y-78124000D01*
X97278300Y-71910000D02*
X97278300Y-73960000D01*
X97278300Y-76040000D02*
X97278300Y-78090000D01*
X97318300Y-71945000D02*
X97318300Y-73960000D01*
X97318300Y-76040000D02*
X97318300Y-78055000D01*
X97358300Y-71981000D02*
X97358300Y-73960000D01*
X97358300Y-76040000D02*
X97358300Y-78019000D01*
X97398300Y-72017000D02*
X97398300Y-77983000D01*
X97438300Y-72055000D02*
X97438300Y-77945000D01*
X97478300Y-72093000D02*
X97478300Y-77907000D01*
X97518300Y-72133000D02*
X97518300Y-77867000D01*
X97558300Y-72174000D02*
X97558300Y-77826000D01*
X97598300Y-72216000D02*
X97598300Y-77784000D01*
X97638300Y-72259000D02*
X97638300Y-77741000D01*
X97678300Y-72303000D02*
X97678300Y-77697000D01*
X97718300Y-72349000D02*
X97718300Y-77651000D01*
X97758300Y-72396000D02*
X97758300Y-77604000D01*
X97798300Y-72444000D02*
X97798300Y-77556000D01*
X97838300Y-72495000D02*
X97838300Y-77505000D01*
X97878300Y-72546000D02*
X97878300Y-77454000D01*
X97918300Y-72600000D02*
X97918300Y-77400000D01*
X97958300Y-72655000D02*
X97958300Y-77345000D01*
X97998300Y-72713000D02*
X97998300Y-77287000D01*
X98038300Y-72772000D02*
X98038300Y-77228000D01*
X98078300Y-72834000D02*
X98078300Y-77166000D01*
X98118300Y-72898000D02*
X98118300Y-77102000D01*
X98158300Y-72966000D02*
X98158300Y-77034000D01*
X98198300Y-73036000D02*
X98198300Y-76964000D01*
X98238300Y-73110000D02*
X98238300Y-76890000D01*
X98278300Y-73187000D02*
X98278300Y-76813000D01*
X98318300Y-73269000D02*
X98318300Y-76731000D01*
X98358300Y-73355000D02*
X98358300Y-76645000D01*
X98398300Y-73448000D02*
X98398300Y-76552000D01*
X98438300Y-73547000D02*
X98438300Y-76453000D01*
X98478300Y-73654000D02*
X98478300Y-76346000D01*
X98518300Y-73771000D02*
X98518300Y-76229000D01*
X98558300Y-73902000D02*
X98558300Y-76098000D01*
X98598300Y-74052000D02*
X98598300Y-75948000D01*
X98638300Y-74232000D02*
X98638300Y-75768000D01*
X98678300Y-74467000D02*
X98678300Y-75533000D01*
X98717300Y-75000000D02*
G75*
G02*
X90477300Y-75000000I-4120000J0D01*
G01*
X90477300Y-75000000D02*
G75*
G02*
X98717300Y-75000000I4120000J0D01*
G01*
%TO.C,R16*%
X88960000Y-104080000D02*
X85120000Y-104080000D01*
X88960000Y-105920000D02*
X85120000Y-105920000D01*
%TO.C,R15*%
X72080000Y-102580000D02*
X72080000Y-106420000D01*
X73920000Y-102580000D02*
X73920000Y-106420000D01*
%TO.C,R22*%
X76580000Y-68380000D02*
X76580000Y-64540000D01*
X78420000Y-68380000D02*
X78420000Y-64540000D01*
%TO.C,R24*%
X95982700Y-68380000D02*
X95982700Y-64540000D01*
X97822700Y-68380000D02*
X97822700Y-64540000D01*
%TO.C,R19*%
X83580000Y-82120000D02*
X83580000Y-85960000D01*
X85420000Y-82120000D02*
X85420000Y-85960000D01*
%TO.C,C11*%
X85130000Y-106630000D02*
X85130000Y-109370000D01*
X85130000Y-106630000D02*
X90370000Y-106630000D01*
X85130000Y-109370000D02*
X90370000Y-109370000D01*
X90370000Y-106630000D02*
X90370000Y-109370000D01*
%TO.C,R18*%
X72620000Y-90080000D02*
X76460000Y-90080000D01*
X72620000Y-91920000D02*
X76460000Y-91920000D01*
%TO.C,C16*%
X83630000Y-55630000D02*
X86370000Y-55630000D01*
X83630000Y-60870000D02*
X83630000Y-55630000D01*
X83630000Y-60870000D02*
X86370000Y-60870000D01*
X86370000Y-60870000D02*
X86370000Y-55630000D01*
%TO.C,C14*%
X79130000Y-81130000D02*
X81870000Y-81130000D01*
X79130000Y-86370000D02*
X79130000Y-81130000D01*
X79130000Y-86370000D02*
X81870000Y-86370000D01*
X81870000Y-86370000D02*
X81870000Y-81130000D01*
%TO.C,C17*%
X95130000Y-81630000D02*
X97870000Y-81630000D01*
X95130000Y-86870000D02*
X95130000Y-81630000D01*
X95130000Y-86870000D02*
X97870000Y-86870000D01*
X97870000Y-86870000D02*
X97870000Y-81630000D01*
%TO.C,D7*%
X85920000Y-98460000D02*
X86570000Y-98460000D01*
X86570000Y-97340000D02*
X86570000Y-99580000D01*
X86570000Y-99580000D02*
X90810000Y-99580000D01*
X87170000Y-97340000D02*
X87170000Y-99580000D01*
X87290000Y-97340000D02*
X87290000Y-99580000D01*
X87410000Y-97340000D02*
X87410000Y-99580000D01*
X90810000Y-97340000D02*
X86570000Y-97340000D01*
X90810000Y-99580000D02*
X90810000Y-97340000D01*
X91460000Y-98460000D02*
X90810000Y-98460000D01*
%TO.C,D6*%
X74230000Y-98540000D02*
X74880000Y-98540000D01*
X74880000Y-97420000D02*
X74880000Y-99660000D01*
X74880000Y-99660000D02*
X79120000Y-99660000D01*
X75480000Y-97420000D02*
X75480000Y-99660000D01*
X75600000Y-97420000D02*
X75600000Y-99660000D01*
X75720000Y-97420000D02*
X75720000Y-99660000D01*
X79120000Y-97420000D02*
X74880000Y-97420000D01*
X79120000Y-99660000D02*
X79120000Y-97420000D01*
X79770000Y-98540000D02*
X79120000Y-98540000D01*
%TO.C,R21*%
X91080000Y-85920000D02*
X91080000Y-82080000D01*
X92920000Y-85920000D02*
X92920000Y-82080000D01*
%TO.C,C13*%
X88630000Y-55380000D02*
X91370000Y-55380000D01*
X88630000Y-60620000D02*
X88630000Y-55380000D01*
X88630000Y-60620000D02*
X91370000Y-60620000D01*
X91370000Y-60620000D02*
X91370000Y-55380000D01*
%TO.C,R17*%
X80880000Y-104080000D02*
X77040000Y-104080000D01*
X80880000Y-105920000D02*
X77040000Y-105920000D01*
%TD*%
M02*
