%TF.GenerationSoftware,KiCad,Pcbnew,8.0.5-8.0.5-0~ubuntu24.04.1*%
%TF.CreationDate,2024-09-28T01:01:33+02:00*%
%TF.ProjectId,Highz-stereo,48696768-7a2d-4737-9465-72656f2e6b69,rev?*%
%TF.SameCoordinates,Original*%
%TF.FileFunction,Other,User*%
%FSLAX46Y46*%
G04 Gerber Fmt 4.6, Leading zero omitted, Abs format (unit mm)*
G04 Created by KiCad (PCBNEW 8.0.5-8.0.5-0~ubuntu24.04.1) date 2024-09-28 01:01:33*
%MOMM*%
%LPD*%
G01*
G04 APERTURE LIST*
%ADD10C,0.050000*%
G04 APERTURE END LIST*
D10*
%TO.C,C1*%
X60000000Y-55500000D02*
X60000000Y-61000000D01*
X60000000Y-61000000D02*
X63000000Y-61000000D01*
X63000000Y-55500000D02*
X60000000Y-55500000D01*
X63000000Y-61000000D02*
X63000000Y-55500000D01*
%TO.C,C2*%
X55000000Y-55500000D02*
X55000000Y-61000000D01*
X55000000Y-61000000D02*
X58000000Y-61000000D01*
X58000000Y-55500000D02*
X55000000Y-55500000D01*
X58000000Y-61000000D02*
X58000000Y-55500000D01*
%TO.C,C3*%
X50000000Y-55500000D02*
X50000000Y-61000000D01*
X50000000Y-61000000D02*
X53000000Y-61000000D01*
X53000000Y-55500000D02*
X50000000Y-55500000D01*
X53000000Y-61000000D02*
X53000000Y-55500000D01*
%TO.C,C4*%
X45000000Y-55500000D02*
X45000000Y-61000000D01*
X45000000Y-61000000D02*
X48000000Y-61000000D01*
X48000000Y-55500000D02*
X45000000Y-55500000D01*
X48000000Y-61000000D02*
X48000000Y-55500000D01*
%TO.C,C5*%
X65000000Y-55500000D02*
X65000000Y-61000000D01*
X65000000Y-61000000D02*
X68000000Y-61000000D01*
X68000000Y-55500000D02*
X65000000Y-55500000D01*
X68000000Y-61000000D02*
X68000000Y-55500000D01*
%TO.C,C8*%
X53500000Y-111500000D02*
X53500000Y-114500000D01*
X53500000Y-114500000D02*
X59000000Y-114500000D01*
X59000000Y-111500000D02*
X53500000Y-111500000D01*
X59000000Y-114500000D02*
X59000000Y-111500000D01*
%TO.C,D4*%
X45330000Y-96750000D02*
X45330000Y-99250000D01*
X45330000Y-99250000D02*
X55050000Y-99250000D01*
X55050000Y-96750000D02*
X45330000Y-96750000D01*
X55050000Y-99250000D02*
X55050000Y-96750000D01*
%TO.C,D5*%
X57950000Y-96750000D02*
X57950000Y-99250000D01*
X57950000Y-99250000D02*
X67670000Y-99250000D01*
X67670000Y-96750000D02*
X57950000Y-96750000D01*
X67670000Y-99250000D02*
X67670000Y-96750000D01*
%TO.C,J7*%
X44500000Y-125000000D02*
G75*
G02*
X40500000Y-125000000I-2000000J0D01*
G01*
X40500000Y-125000000D02*
G75*
G02*
X44500000Y-125000000I2000000J0D01*
G01*
%TO.C,J8*%
X72000000Y-37500000D02*
G75*
G02*
X68000000Y-37500000I-2000000J0D01*
G01*
X68000000Y-37500000D02*
G75*
G02*
X72000000Y-37500000I2000000J0D01*
G01*
%TO.C,J9*%
X44500000Y-37500000D02*
G75*
G02*
X40500000Y-37500000I-2000000J0D01*
G01*
X40500000Y-37500000D02*
G75*
G02*
X44500000Y-37500000I2000000J0D01*
G01*
%TO.C,J10*%
X72000000Y-125000000D02*
G75*
G02*
X68000000Y-125000000I-2000000J0D01*
G01*
X68000000Y-125000000D02*
G75*
G02*
X72000000Y-125000000I2000000J0D01*
G01*
%TO.C,R11*%
X48700000Y-80220000D02*
X48700000Y-87200000D01*
X48700000Y-87200000D02*
X50800000Y-87200000D01*
X50800000Y-80220000D02*
X48700000Y-80220000D01*
X50800000Y-87200000D02*
X50800000Y-80220000D01*
%TO.C,R5*%
X42950000Y-62970000D02*
X42950000Y-69950000D01*
X42950000Y-69950000D02*
X45050000Y-69950000D01*
X45050000Y-62970000D02*
X42950000Y-62970000D01*
X45050000Y-69950000D02*
X45050000Y-62970000D01*
%TO.C,R6*%
X52970000Y-62950000D02*
X52970000Y-65050000D01*
X52970000Y-65050000D02*
X59950000Y-65050000D01*
X59950000Y-62950000D02*
X52970000Y-62950000D01*
X59950000Y-65050000D02*
X59950000Y-62950000D01*
%TO.C,R7*%
X46950000Y-63050000D02*
X46950000Y-70030000D01*
X46950000Y-70030000D02*
X49050000Y-70030000D01*
X49050000Y-63050000D02*
X46950000Y-63050000D01*
X49050000Y-70030000D02*
X49050000Y-63050000D01*
%TO.C,R2*%
X48470000Y-106950000D02*
X48470000Y-109050000D01*
X48470000Y-109050000D02*
X55450000Y-109050000D01*
X55450000Y-106950000D02*
X48470000Y-106950000D01*
X55450000Y-109050000D02*
X55450000Y-106950000D01*
%TO.C,R4*%
X45450000Y-104050000D02*
X45450000Y-111030000D01*
X45450000Y-111030000D02*
X47550000Y-111030000D01*
X47550000Y-104050000D02*
X45450000Y-104050000D01*
X47550000Y-111030000D02*
X47550000Y-104050000D01*
%TO.C,R8*%
X67950000Y-63050000D02*
X67950000Y-70030000D01*
X67950000Y-70030000D02*
X70050000Y-70030000D01*
X70050000Y-63050000D02*
X67950000Y-63050000D01*
X70050000Y-70030000D02*
X70050000Y-63050000D01*
%TO.C,R9*%
X43470000Y-89950000D02*
X43470000Y-92050000D01*
X43470000Y-92050000D02*
X50450000Y-92050000D01*
X50450000Y-89950000D02*
X43470000Y-89950000D01*
X50450000Y-92050000D02*
X50450000Y-89950000D01*
%TO.C,R10*%
X56550000Y-106950000D02*
X56550000Y-109050000D01*
X56550000Y-109050000D02*
X63530000Y-109050000D01*
X63530000Y-106950000D02*
X56550000Y-106950000D01*
X63530000Y-109050000D02*
X63530000Y-106950000D01*
%TO.C,D2*%
X45450000Y-100750000D02*
X45450000Y-103250000D01*
X45450000Y-103250000D02*
X55170000Y-103250000D01*
X55170000Y-100750000D02*
X45450000Y-100750000D01*
X55170000Y-103250000D02*
X55170000Y-100750000D01*
%TO.C,D3*%
X57950000Y-100750000D02*
X57950000Y-103250000D01*
X57950000Y-103250000D02*
X67670000Y-103250000D01*
X67670000Y-100750000D02*
X57950000Y-100750000D01*
X67670000Y-103250000D02*
X67670000Y-100750000D01*
%TO.C,R3*%
X65450000Y-103550000D02*
X65450000Y-110530000D01*
X65450000Y-110530000D02*
X67550000Y-110530000D01*
X67550000Y-103550000D02*
X65450000Y-103550000D01*
X67550000Y-110530000D02*
X67550000Y-103550000D01*
%TO.C,R12*%
X62050000Y-89950000D02*
X62050000Y-92050000D01*
X62050000Y-92050000D02*
X69030000Y-92050000D01*
X69030000Y-89950000D02*
X62050000Y-89950000D01*
X69030000Y-92050000D02*
X69030000Y-89950000D01*
%TO.C,R13*%
X54450000Y-79970000D02*
X54450000Y-86950000D01*
X54450000Y-86950000D02*
X56550000Y-86950000D01*
X56550000Y-79970000D02*
X54450000Y-79970000D01*
X56550000Y-86950000D02*
X56550000Y-79970000D01*
%TO.C,C6*%
X44000000Y-80500000D02*
X44000000Y-86000000D01*
X44000000Y-86000000D02*
X47000000Y-86000000D01*
X47000000Y-80500000D02*
X44000000Y-80500000D01*
X47000000Y-86000000D02*
X47000000Y-80500000D01*
%TO.C,C9*%
X58250000Y-80500000D02*
X58250000Y-86000000D01*
X58250000Y-86000000D02*
X61250000Y-86000000D01*
X61250000Y-80500000D02*
X58250000Y-80500000D01*
X61250000Y-86000000D02*
X61250000Y-80500000D01*
%TO.C,C7*%
X51500000Y-74500000D02*
G75*
G02*
X43000000Y-74500000I-4250000J0D01*
G01*
X43000000Y-74500000D02*
G75*
G02*
X51500000Y-74500000I4250000J0D01*
G01*
%TO.C,C10*%
X62000000Y-74500000D02*
G75*
G02*
X53500000Y-74500000I-4250000J0D01*
G01*
X53500000Y-74500000D02*
G75*
G02*
X62000000Y-74500000I4250000J0D01*
G01*
%TO.C,J2*%
X68000000Y-118750000D02*
G75*
G02*
X64000000Y-118750000I-2000000J0D01*
G01*
X64000000Y-118750000D02*
G75*
G02*
X68000000Y-118750000I2000000J0D01*
G01*
%TO.C,J3*%
X52350000Y-90000000D02*
X52350000Y-92000000D01*
X52350000Y-92000000D02*
X54650000Y-92000000D01*
X54650000Y-90000000D02*
X52350000Y-90000000D01*
X54650000Y-92000000D02*
X54650000Y-90000000D01*
%TO.C,J4*%
X57750000Y-118750000D02*
G75*
G02*
X53750000Y-118750000I-2000000J0D01*
G01*
X53750000Y-118750000D02*
G75*
G02*
X57750000Y-118750000I2000000J0D01*
G01*
%TO.C,J5*%
X48000000Y-118750000D02*
G75*
G02*
X44000000Y-118750000I-2000000J0D01*
G01*
X44000000Y-118750000D02*
G75*
G02*
X48000000Y-118750000I2000000J0D01*
G01*
%TO.C,J6*%
X85850000Y-89000000D02*
X85850000Y-91000000D01*
X85850000Y-91000000D02*
X88150000Y-91000000D01*
X88150000Y-89000000D02*
X85850000Y-89000000D01*
X88150000Y-91000000D02*
X88150000Y-89000000D01*
%TO.C,R14*%
X91950000Y-102970000D02*
X91950000Y-109950000D01*
X91950000Y-109950000D02*
X94050000Y-109950000D01*
X94050000Y-102970000D02*
X91950000Y-102970000D01*
X94050000Y-109950000D02*
X94050000Y-102970000D01*
%TO.C,C19*%
X73000000Y-55500000D02*
X73000000Y-61000000D01*
X73000000Y-61000000D02*
X76000000Y-61000000D01*
X76000000Y-55500000D02*
X73000000Y-55500000D01*
X76000000Y-61000000D02*
X76000000Y-55500000D01*
%TO.C,J17*%
X75500000Y-119000000D02*
G75*
G02*
X71500000Y-119000000I-2000000J0D01*
G01*
X71500000Y-119000000D02*
G75*
G02*
X75500000Y-119000000I2000000J0D01*
G01*
%TO.C,R20*%
X91010000Y-89950000D02*
X91010000Y-92050000D01*
X91010000Y-92050000D02*
X97990000Y-92050000D01*
X97990000Y-89950000D02*
X91010000Y-89950000D01*
X97990000Y-92050000D02*
X97990000Y-89950000D01*
%TO.C,U2*%
X67775000Y-73190000D02*
X67775000Y-82350000D01*
X67775000Y-82350000D02*
X75175000Y-82350000D01*
X75175000Y-73190000D02*
X67775000Y-73190000D01*
X75175000Y-82350000D02*
X75175000Y-73190000D01*
%TO.C,D9*%
X83830000Y-96710000D02*
X83830000Y-99210000D01*
X83830000Y-99210000D02*
X93550000Y-99210000D01*
X93550000Y-96710000D02*
X83830000Y-96710000D01*
X93550000Y-99210000D02*
X93550000Y-96710000D01*
%TO.C,R25*%
X72950000Y-62970000D02*
X72950000Y-69950000D01*
X72950000Y-69950000D02*
X75050000Y-69950000D01*
X75050000Y-62970000D02*
X72950000Y-62970000D01*
X75050000Y-69950000D02*
X75050000Y-62970000D01*
%TO.C,U1*%
X51210000Y-47490000D02*
X51210000Y-52400000D01*
X51210000Y-52400000D02*
X61710000Y-52400000D01*
X61710000Y-47490000D02*
X51210000Y-47490000D01*
X61710000Y-52400000D02*
X61710000Y-47490000D01*
%TO.C,U3*%
X78750000Y-47545000D02*
X78750000Y-52455000D01*
X78750000Y-52455000D02*
X89250000Y-52455000D01*
X89250000Y-47545000D02*
X78750000Y-47545000D01*
X89250000Y-52455000D02*
X89250000Y-47545000D01*
%TO.C,J12*%
X97500000Y-37000000D02*
G75*
G02*
X93500000Y-37000000I-2000000J0D01*
G01*
X93500000Y-37000000D02*
G75*
G02*
X97500000Y-37000000I2000000J0D01*
G01*
%TO.C,D8*%
X72140000Y-96790000D02*
X72140000Y-99290000D01*
X72140000Y-99290000D02*
X81860000Y-99290000D01*
X81860000Y-96790000D02*
X72140000Y-96790000D01*
X81860000Y-99290000D02*
X81860000Y-96790000D01*
%TO.C,C22*%
X82000000Y-52500000D02*
X82000000Y-55500000D01*
X82000000Y-55500000D02*
X87500000Y-55500000D01*
X87500000Y-52500000D02*
X82000000Y-52500000D01*
X87500000Y-55500000D02*
X87500000Y-52500000D01*
%TO.C,J19*%
X84500000Y-40000000D02*
G75*
G02*
X80500000Y-40000000I-2000000J0D01*
G01*
X80500000Y-40000000D02*
G75*
G02*
X84500000Y-40000000I2000000J0D01*
G01*
%TO.C,C18*%
X78000000Y-55500000D02*
X78000000Y-61000000D01*
X78000000Y-61000000D02*
X81000000Y-61000000D01*
X81000000Y-55500000D02*
X78000000Y-55500000D01*
X81000000Y-61000000D02*
X81000000Y-55500000D01*
%TO.C,J16*%
X84500000Y-119000000D02*
G75*
G02*
X80500000Y-119000000I-2000000J0D01*
G01*
X80500000Y-119000000D02*
G75*
G02*
X84500000Y-119000000I2000000J0D01*
G01*
%TO.C,R26*%
X82010000Y-62950000D02*
X82010000Y-65050000D01*
X82010000Y-65050000D02*
X88990000Y-65050000D01*
X88990000Y-62950000D02*
X82010000Y-62950000D01*
X88990000Y-65050000D02*
X88990000Y-62950000D01*
%TO.C,C12*%
X88500000Y-75000000D02*
G75*
G02*
X80000000Y-75000000I-4250000J0D01*
G01*
X80000000Y-75000000D02*
G75*
G02*
X88500000Y-75000000I4250000J0D01*
G01*
%TO.C,C20*%
X95000000Y-55250000D02*
X95000000Y-60750000D01*
X95000000Y-60750000D02*
X98000000Y-60750000D01*
X98000000Y-55250000D02*
X95000000Y-55250000D01*
X98000000Y-60750000D02*
X98000000Y-55250000D01*
%TO.C,J20*%
X90500000Y-40000000D02*
G75*
G02*
X86500000Y-40000000I-2000000J0D01*
G01*
X86500000Y-40000000D02*
G75*
G02*
X90500000Y-40000000I2000000J0D01*
G01*
%TO.C,J18*%
X79000000Y-40000000D02*
G75*
G02*
X75000000Y-40000000I-2000000J0D01*
G01*
X75000000Y-40000000D02*
G75*
G02*
X79000000Y-40000000I2000000J0D01*
G01*
%TO.C,C15*%
X98847300Y-75000000D02*
G75*
G02*
X90347300Y-75000000I-4250000J0D01*
G01*
X90347300Y-75000000D02*
G75*
G02*
X98847300Y-75000000I4250000J0D01*
G01*
%TO.C,R16*%
X83550000Y-106450000D02*
X83550000Y-108550000D01*
X83550000Y-108550000D02*
X90530000Y-108550000D01*
X90530000Y-106450000D02*
X83550000Y-106450000D01*
X90530000Y-108550000D02*
X90530000Y-106450000D01*
%TO.C,R15*%
X71950000Y-103510000D02*
X71950000Y-110490000D01*
X71950000Y-110490000D02*
X74050000Y-110490000D01*
X74050000Y-103510000D02*
X71950000Y-103510000D01*
X74050000Y-110490000D02*
X74050000Y-103510000D01*
%TO.C,R22*%
X76450000Y-62970000D02*
X76450000Y-69950000D01*
X76450000Y-69950000D02*
X78550000Y-69950000D01*
X78550000Y-62970000D02*
X76450000Y-62970000D01*
X78550000Y-69950000D02*
X78550000Y-62970000D01*
%TO.C,R24*%
X95852700Y-62970000D02*
X95852700Y-69950000D01*
X95852700Y-69950000D02*
X97952700Y-69950000D01*
X97952700Y-62970000D02*
X95852700Y-62970000D01*
X97952700Y-69950000D02*
X97952700Y-62970000D01*
%TO.C,R19*%
X83450000Y-80550000D02*
X83450000Y-87530000D01*
X83450000Y-87530000D02*
X85550000Y-87530000D01*
X85550000Y-80550000D02*
X83450000Y-80550000D01*
X85550000Y-87530000D02*
X85550000Y-80550000D01*
%TO.C,C11*%
X80500000Y-111000000D02*
X80500000Y-114000000D01*
X80500000Y-114000000D02*
X86000000Y-114000000D01*
X86000000Y-111000000D02*
X80500000Y-111000000D01*
X86000000Y-114000000D02*
X86000000Y-111000000D01*
%TO.C,R18*%
X71050000Y-89950000D02*
X71050000Y-92050000D01*
X71050000Y-92050000D02*
X78030000Y-92050000D01*
X78030000Y-89950000D02*
X71050000Y-89950000D01*
X78030000Y-92050000D02*
X78030000Y-89950000D01*
%TO.C,C21*%
X54000000Y-52500000D02*
X54000000Y-55500000D01*
X54000000Y-55500000D02*
X59500000Y-55500000D01*
X59500000Y-52500000D02*
X54000000Y-52500000D01*
X59500000Y-55500000D02*
X59500000Y-52500000D01*
%TO.C,J1A1*%
X58000000Y-40000000D02*
G75*
G02*
X54000000Y-40000000I-2000000J0D01*
G01*
X54000000Y-40000000D02*
G75*
G02*
X58000000Y-40000000I2000000J0D01*
G01*
%TO.C,C16*%
X83500000Y-55500000D02*
X83500000Y-61000000D01*
X83500000Y-61000000D02*
X86500000Y-61000000D01*
X86500000Y-55500000D02*
X83500000Y-55500000D01*
X86500000Y-61000000D02*
X86500000Y-55500000D01*
%TO.C,J6A1*%
X63500000Y-40000000D02*
G75*
G02*
X59500000Y-40000000I-2000000J0D01*
G01*
X59500000Y-40000000D02*
G75*
G02*
X63500000Y-40000000I2000000J0D01*
G01*
%TO.C,C14*%
X79000000Y-81000000D02*
X79000000Y-86500000D01*
X79000000Y-86500000D02*
X82000000Y-86500000D01*
X82000000Y-81000000D02*
X79000000Y-81000000D01*
X82000000Y-86500000D02*
X82000000Y-81000000D01*
%TO.C,J14*%
X83350000Y-89000000D02*
X83350000Y-91000000D01*
X83350000Y-91000000D02*
X85650000Y-91000000D01*
X85650000Y-89000000D02*
X83350000Y-89000000D01*
X85650000Y-91000000D02*
X85650000Y-89000000D01*
%TO.C,J3A1*%
X53000000Y-40000000D02*
G75*
G02*
X49000000Y-40000000I-2000000J0D01*
G01*
X49000000Y-40000000D02*
G75*
G02*
X53000000Y-40000000I2000000J0D01*
G01*
%TO.C,J11*%
X94500000Y-119000000D02*
G75*
G02*
X90500000Y-119000000I-2000000J0D01*
G01*
X90500000Y-119000000D02*
G75*
G02*
X94500000Y-119000000I2000000J0D01*
G01*
%TO.C,C17*%
X95000000Y-81500000D02*
X95000000Y-87000000D01*
X95000000Y-87000000D02*
X98000000Y-87000000D01*
X98000000Y-81500000D02*
X95000000Y-81500000D01*
X98000000Y-87000000D02*
X98000000Y-81500000D01*
%TO.C,D7*%
X83830000Y-100210000D02*
X83830000Y-102710000D01*
X83830000Y-102710000D02*
X93550000Y-102710000D01*
X93550000Y-100210000D02*
X83830000Y-100210000D01*
X93550000Y-102710000D02*
X93550000Y-100210000D01*
%TO.C,D6*%
X72140000Y-100290000D02*
X72140000Y-102790000D01*
X72140000Y-102790000D02*
X81860000Y-102790000D01*
X81860000Y-100290000D02*
X72140000Y-100290000D01*
X81860000Y-102790000D02*
X81860000Y-100290000D01*
%TO.C,R21*%
X90950000Y-80510000D02*
X90950000Y-87490000D01*
X90950000Y-87490000D02*
X93050000Y-87490000D01*
X93050000Y-80510000D02*
X90950000Y-80510000D01*
X93050000Y-87490000D02*
X93050000Y-80510000D01*
%TO.C,J1*%
X97500000Y-125000000D02*
G75*
G02*
X93500000Y-125000000I-2000000J0D01*
G01*
X93500000Y-125000000D02*
G75*
G02*
X97500000Y-125000000I2000000J0D01*
G01*
%TO.C,C13*%
X88500000Y-55250000D02*
X88500000Y-60750000D01*
X88500000Y-60750000D02*
X91500000Y-60750000D01*
X91500000Y-55250000D02*
X88500000Y-55250000D01*
X91500000Y-60750000D02*
X91500000Y-55250000D01*
%TO.C,R17*%
X75470000Y-106450000D02*
X75470000Y-108550000D01*
X75470000Y-108550000D02*
X82450000Y-108550000D01*
X82450000Y-106450000D02*
X75470000Y-106450000D01*
X82450000Y-108550000D02*
X82450000Y-106450000D01*
%TO.C,J13*%
X54850000Y-90000000D02*
X54850000Y-92000000D01*
X54850000Y-92000000D02*
X57150000Y-92000000D01*
X57150000Y-90000000D02*
X54850000Y-90000000D01*
X57150000Y-92000000D02*
X57150000Y-90000000D01*
%TD*%
M02*
