%TF.GenerationSoftware,KiCad,Pcbnew,8.0.5-8.0.5-0~ubuntu24.04.1*%
%TF.CreationDate,2024-09-28T13:56:42+02:00*%
%TF.ProjectId,Highz-stereo,48696768-7a2d-4737-9465-72656f2e6b69,rev?*%
%TF.SameCoordinates,Original*%
%TF.FileFunction,Drillmap*%
%TF.FilePolarity,Positive*%
%FSLAX45Y45*%
G04 Gerber Fmt 4.5, Leading zero omitted, Abs format (unit mm)*
G04 Created by KiCad (PCBNEW 8.0.5-8.0.5-0~ubuntu24.04.1) date 2024-09-28 13:56:42*
%MOMM*%
%LPD*%
G01*
G04 APERTURE LIST*
%ADD10C,0.100000*%
%ADD11C,0.200000*%
%ADD12C,0.120000*%
%ADD13C,0.220000*%
G04 APERTURE END LIST*
D10*
X3750000Y-3250000D02*
X10000000Y-3250000D01*
X10000000Y-13000000D01*
X3750000Y-13000000D01*
X3750000Y-3250000D01*
D11*
D10*
X4130000Y-6180000D02*
X4170000Y-6220000D01*
X4170000Y-6180000D02*
X4130000Y-6220000D01*
X4580000Y-8530000D02*
X4620000Y-8570000D01*
X4620000Y-8530000D02*
X4580000Y-8570000D01*
X4930000Y-7680000D02*
X4970000Y-7720000D01*
X4970000Y-7680000D02*
X4930000Y-7720000D01*
X4980000Y-8030000D02*
X5020000Y-8070000D01*
X5020000Y-8030000D02*
X4980000Y-8070000D01*
X5080000Y-9080000D02*
X5120000Y-9120000D01*
X5120000Y-9080000D02*
X5080000Y-9120000D01*
X5080000Y-10030000D02*
X5120000Y-10070000D01*
X5120000Y-10030000D02*
X5080000Y-10070000D01*
X5280000Y-6880000D02*
X5320000Y-6920000D01*
X5320000Y-6880000D02*
X5280000Y-6920000D01*
X5280000Y-10830000D02*
X5320000Y-10870000D01*
X5320000Y-10830000D02*
X5280000Y-10870000D01*
X5330000Y-8530000D02*
X5370000Y-8570000D01*
X5370000Y-8530000D02*
X5330000Y-8570000D01*
X5580000Y-9680000D02*
X5620000Y-9720000D01*
X5620000Y-9680000D02*
X5580000Y-9720000D01*
X5730000Y-7880000D02*
X5770000Y-7920000D01*
X5770000Y-7880000D02*
X5730000Y-7920000D01*
X5780000Y-8580000D02*
X5820000Y-8620000D01*
X5820000Y-8580000D02*
X5780000Y-8620000D01*
X5878300Y-8001850D02*
X5918300Y-8041850D01*
X5918300Y-8001850D02*
X5878300Y-8041850D01*
X5880000Y-9080000D02*
X5920000Y-9120000D01*
X5920000Y-9080000D02*
X5880000Y-9120000D01*
X5980000Y-7630000D02*
X6020000Y-7670000D01*
X6020000Y-7630000D02*
X5980000Y-7670000D01*
X6180000Y-6330000D02*
X6220000Y-6370000D01*
X6220000Y-6330000D02*
X6180000Y-6370000D01*
X6430000Y-7080000D02*
X6470000Y-7120000D01*
X6470000Y-7080000D02*
X6430000Y-7120000D01*
X6480000Y-8280000D02*
X6520000Y-8320000D01*
X6520000Y-8280000D02*
X6480000Y-8320000D01*
X6680000Y-8530000D02*
X6720000Y-8570000D01*
X6720000Y-8530000D02*
X6680000Y-8570000D01*
X6780000Y-7030000D02*
X6820000Y-7070000D01*
X6820000Y-7030000D02*
X6780000Y-7070000D01*
X6827680Y-7692190D02*
X6867680Y-7732190D01*
X6867680Y-7692190D02*
X6827680Y-7732190D01*
X6980000Y-7930000D02*
X7020000Y-7970000D01*
X7020000Y-7930000D02*
X6980000Y-7970000D01*
X7335210Y-7641940D02*
X7375210Y-7681940D01*
X7375210Y-7641940D02*
X7335210Y-7681940D01*
X7378590Y-7961080D02*
X7418590Y-8001080D01*
X7418590Y-7961080D02*
X7378590Y-8001080D01*
X7453450Y-5758620D02*
X7493450Y-5798620D01*
X7493450Y-5758620D02*
X7453450Y-5798620D01*
X7480000Y-8180000D02*
X7520000Y-8220000D01*
X7520000Y-8180000D02*
X7480000Y-8220000D01*
X7580000Y-6330000D02*
X7620000Y-6370000D01*
X7620000Y-6330000D02*
X7580000Y-6370000D01*
X7830000Y-8830000D02*
X7870000Y-8870000D01*
X7870000Y-8830000D02*
X7830000Y-8870000D01*
X7930000Y-7080000D02*
X7970000Y-7120000D01*
X7970000Y-7080000D02*
X7930000Y-7120000D01*
X7980000Y-7880000D02*
X8020000Y-7920000D01*
X8020000Y-7880000D02*
X7980000Y-7920000D01*
X8130000Y-4480000D02*
X8170000Y-4520000D01*
X8170000Y-4480000D02*
X8130000Y-4520000D01*
X8230000Y-5980000D02*
X8270000Y-6020000D01*
X8270000Y-5980000D02*
X8230000Y-6020000D01*
X8330000Y-11080000D02*
X8370000Y-11120000D01*
X8370000Y-11080000D02*
X8330000Y-11120000D01*
X8380000Y-4880000D02*
X8420000Y-4920000D01*
X8420000Y-4880000D02*
X8380000Y-4920000D01*
X8380000Y-8030000D02*
X8420000Y-8070000D01*
X8420000Y-8030000D02*
X8380000Y-8070000D01*
X9180000Y-6530000D02*
X9220000Y-6570000D01*
X9220000Y-6530000D02*
X9180000Y-6570000D01*
X9230000Y-5830000D02*
X9270000Y-5870000D01*
X9270000Y-5830000D02*
X9230000Y-5870000D01*
X9280000Y-7230000D02*
X9320000Y-7270000D01*
X9320000Y-7230000D02*
X9280000Y-7270000D01*
X9280000Y-8030000D02*
X9320000Y-8070000D01*
X9320000Y-8030000D02*
X9280000Y-8070000D01*
X5375000Y-9150000D02*
G75*
G02*
X5325000Y-9150000I-25000J0D01*
G01*
X5325000Y-9150000D02*
G75*
G02*
X5375000Y-9150000I25000J0D01*
G01*
X5625000Y-9150000D02*
G75*
G02*
X5575000Y-9150000I-25000J0D01*
G01*
X5575000Y-9150000D02*
G75*
G02*
X5625000Y-9150000I25000J0D01*
G01*
X8225000Y-9150000D02*
G75*
G02*
X8175000Y-9150000I-25000J0D01*
G01*
X8175000Y-9150000D02*
G75*
G02*
X8225000Y-9150000I25000J0D01*
G01*
X8475000Y-9150000D02*
G75*
G02*
X8425000Y-9150000I-25000J0D01*
G01*
X8425000Y-9150000D02*
G75*
G02*
X8475000Y-9150000I25000J0D01*
G01*
X4100000Y-6357000D02*
X4100000Y-6427000D01*
X4065000Y-6392000D02*
X4135000Y-6392000D01*
X4100000Y-6865000D02*
X4100000Y-6935000D01*
X4065000Y-6900000D02*
X4135000Y-6900000D01*
X4346000Y-9115000D02*
X4346000Y-9185000D01*
X4311000Y-9150000D02*
X4381000Y-9150000D01*
X4350000Y-9415000D02*
X4350000Y-9485000D01*
X4315000Y-9450000D02*
X4385000Y-9450000D01*
X4350000Y-9923000D02*
X4350000Y-9993000D01*
X4315000Y-9958000D02*
X4385000Y-9958000D01*
X4400000Y-6365000D02*
X4400000Y-6435000D01*
X4365000Y-6400000D02*
X4435000Y-6400000D01*
X4400000Y-6873000D02*
X4400000Y-6943000D01*
X4365000Y-6908000D02*
X4435000Y-6908000D01*
X4692000Y-6365000D02*
X4692000Y-6435000D01*
X4657000Y-6400000D02*
X4727000Y-6400000D01*
X4854000Y-9115000D02*
X4854000Y-9185000D01*
X4819000Y-9150000D02*
X4889000Y-9150000D01*
X4892000Y-10165000D02*
X4892000Y-10235000D01*
X4857000Y-10200000D02*
X4927000Y-10200000D01*
X4950000Y-8261000D02*
X4950000Y-8331000D01*
X4915000Y-8296000D02*
X4985000Y-8296000D01*
X4950000Y-8769000D02*
X4950000Y-8839000D01*
X4915000Y-8804000D02*
X4985000Y-8804000D01*
X5200000Y-6365000D02*
X5200000Y-6435000D01*
X5165000Y-6400000D02*
X5235000Y-6400000D01*
X5200000Y-8257000D02*
X5200000Y-8327000D01*
X5165000Y-8292000D02*
X5235000Y-8292000D01*
X5200000Y-8765000D02*
X5200000Y-8835000D01*
X5165000Y-8800000D02*
X5235000Y-8800000D01*
X5400000Y-10165000D02*
X5400000Y-10235000D01*
X5365000Y-10200000D02*
X5435000Y-10200000D01*
X5550000Y-6361000D02*
X5550000Y-6431000D01*
X5515000Y-6396000D02*
X5585000Y-6396000D01*
X5550000Y-6869000D02*
X5550000Y-6939000D01*
X5515000Y-6904000D02*
X5585000Y-6904000D01*
X5850000Y-6361000D02*
X5850000Y-6431000D01*
X5815000Y-6396000D02*
X5885000Y-6396000D01*
X5850000Y-6869000D02*
X5850000Y-6939000D01*
X5815000Y-6904000D02*
X5885000Y-6904000D01*
X5892000Y-10165000D02*
X5892000Y-10235000D01*
X5857000Y-10200000D02*
X5927000Y-10200000D01*
X6146000Y-9115000D02*
X6146000Y-9185000D01*
X6111000Y-9150000D02*
X6181000Y-9150000D01*
X6400000Y-10165000D02*
X6400000Y-10235000D01*
X6365000Y-10200000D02*
X6435000Y-10200000D01*
X6650000Y-10161000D02*
X6650000Y-10231000D01*
X6615000Y-10196000D02*
X6685000Y-10196000D01*
X6650000Y-10669000D02*
X6650000Y-10739000D01*
X6615000Y-10704000D02*
X6685000Y-10704000D01*
X6650000Y-10915000D02*
X6650000Y-10985000D01*
X6615000Y-10950000D02*
X6685000Y-10950000D01*
X6650000Y-11423000D02*
X6650000Y-11493000D01*
X6615000Y-11458000D02*
X6685000Y-11458000D01*
X6654000Y-9115000D02*
X6654000Y-9185000D01*
X6619000Y-9150000D02*
X6689000Y-9150000D01*
X7300000Y-10161000D02*
X7300000Y-10231000D01*
X7265000Y-10196000D02*
X7335000Y-10196000D01*
X7300000Y-10669000D02*
X7300000Y-10739000D01*
X7265000Y-10704000D02*
X7335000Y-10704000D01*
X7300000Y-10915000D02*
X7300000Y-10985000D01*
X7265000Y-10950000D02*
X7335000Y-10950000D01*
X7300000Y-11423000D02*
X7300000Y-11493000D01*
X7265000Y-11458000D02*
X7335000Y-11458000D01*
X7346000Y-9115000D02*
X7346000Y-9185000D01*
X7311000Y-9150000D02*
X7381000Y-9150000D01*
X7546000Y-10165000D02*
X7546000Y-10235000D01*
X7511000Y-10200000D02*
X7581000Y-10200000D01*
X7854000Y-9115000D02*
X7854000Y-9185000D01*
X7819000Y-9150000D02*
X7889000Y-9150000D01*
X7900000Y-6365000D02*
X7900000Y-6435000D01*
X7865000Y-6400000D02*
X7935000Y-6400000D01*
X7900000Y-6873000D02*
X7900000Y-6943000D01*
X7865000Y-6908000D02*
X7935000Y-6908000D01*
X8054000Y-10165000D02*
X8054000Y-10235000D01*
X8019000Y-10200000D02*
X8089000Y-10200000D01*
X8250000Y-6365000D02*
X8250000Y-6435000D01*
X8215000Y-6400000D02*
X8285000Y-6400000D01*
X8250000Y-6873000D02*
X8250000Y-6943000D01*
X8215000Y-6908000D02*
X8285000Y-6908000D01*
X8496000Y-10165000D02*
X8496000Y-10235000D01*
X8461000Y-10200000D02*
X8531000Y-10200000D01*
X8592000Y-6365000D02*
X8592000Y-6435000D01*
X8557000Y-6400000D02*
X8627000Y-6400000D01*
X8600000Y-8211000D02*
X8600000Y-8281000D01*
X8565000Y-8246000D02*
X8635000Y-8246000D01*
X8600000Y-8719000D02*
X8600000Y-8789000D01*
X8565000Y-8754000D02*
X8635000Y-8754000D01*
X8850000Y-8211000D02*
X8850000Y-8281000D01*
X8815000Y-8246000D02*
X8885000Y-8246000D01*
X8850000Y-8719000D02*
X8850000Y-8789000D01*
X8815000Y-8754000D02*
X8885000Y-8754000D01*
X9004000Y-10165000D02*
X9004000Y-10235000D01*
X8969000Y-10200000D02*
X9039000Y-10200000D01*
X9046000Y-9115000D02*
X9046000Y-9185000D01*
X9011000Y-9150000D02*
X9081000Y-9150000D01*
X9100000Y-6365000D02*
X9100000Y-6435000D01*
X9065000Y-6400000D02*
X9135000Y-6400000D01*
X9400000Y-6361000D02*
X9400000Y-6431000D01*
X9365000Y-6396000D02*
X9435000Y-6396000D01*
X9400000Y-6869000D02*
X9400000Y-6939000D01*
X9365000Y-6904000D02*
X9435000Y-6904000D01*
X9550000Y-9415000D02*
X9550000Y-9485000D01*
X9515000Y-9450000D02*
X9585000Y-9450000D01*
X9550000Y-9923000D02*
X9550000Y-9993000D01*
X9515000Y-9958000D02*
X9585000Y-9958000D01*
X9554000Y-9115000D02*
X9554000Y-9185000D01*
X9519000Y-9150000D02*
X9589000Y-9150000D01*
X9690270Y-6357000D02*
X9690270Y-6427000D01*
X9655270Y-6392000D02*
X9725270Y-6392000D01*
X9690270Y-6865000D02*
X9690270Y-6935000D01*
X9655270Y-6900000D02*
X9725270Y-6900000D01*
X4378285Y-7478284D02*
X4378285Y-7421715D01*
X4321716Y-7421715D01*
X4321716Y-7478284D01*
X4378285Y-7478284D01*
X4378285Y-10628285D02*
X4378285Y-10571716D01*
X4321716Y-10571716D01*
X4321716Y-10628285D01*
X4378285Y-10628285D01*
X4378285Y-11128285D02*
X4378285Y-11071716D01*
X4321716Y-11071716D01*
X4321716Y-11128285D01*
X4378285Y-11128285D01*
X4528285Y-8328284D02*
X4528285Y-8271715D01*
X4471716Y-8271715D01*
X4471716Y-8328284D01*
X4528285Y-8328284D01*
X4528285Y-8828285D02*
X4528285Y-8771716D01*
X4471716Y-8771716D01*
X4471716Y-8828285D01*
X4528285Y-8828285D01*
X4666285Y-9528285D02*
X4666285Y-9471716D01*
X4609716Y-9471716D01*
X4609716Y-9528285D01*
X4666285Y-9528285D01*
X4678285Y-9928285D02*
X4678285Y-9871716D01*
X4621716Y-9871716D01*
X4621716Y-9928285D01*
X4678285Y-9928285D01*
X4728285Y-7478284D02*
X4728285Y-7421715D01*
X4671716Y-7421715D01*
X4671716Y-7478284D01*
X4728285Y-7478284D01*
X4878285Y-6728284D02*
X4878285Y-6671715D01*
X4821716Y-6671715D01*
X4821716Y-6728284D01*
X4878285Y-6728284D01*
X5128285Y-6728284D02*
X5128285Y-6671715D01*
X5071716Y-6671715D01*
X5071716Y-6728284D01*
X5128285Y-6728284D01*
X5278285Y-7478284D02*
X5278285Y-7421715D01*
X5221716Y-7421715D01*
X5221716Y-7478284D01*
X5278285Y-7478284D01*
X5428285Y-9528285D02*
X5428285Y-9471716D01*
X5371716Y-9471716D01*
X5371716Y-9528285D01*
X5428285Y-9528285D01*
X5440285Y-9928285D02*
X5440285Y-9871716D01*
X5383716Y-9871716D01*
X5383716Y-9928285D01*
X5440285Y-9928285D01*
X5628284Y-7478284D02*
X5628284Y-7421715D01*
X5571716Y-7421715D01*
X5571716Y-7478284D01*
X5628284Y-7478284D01*
X5678284Y-8328284D02*
X5678284Y-8271715D01*
X5621715Y-8271715D01*
X5621715Y-8328284D01*
X5678284Y-8328284D01*
X5678284Y-8828285D02*
X5678284Y-8771716D01*
X5621715Y-8771716D01*
X5621715Y-8828285D01*
X5678284Y-8828285D01*
X5928284Y-9528285D02*
X5928284Y-9471716D01*
X5871715Y-9471716D01*
X5871715Y-9528285D01*
X5928284Y-9528285D01*
X5928284Y-9928285D02*
X5928284Y-9871716D01*
X5871715Y-9871716D01*
X5871715Y-9928285D01*
X5928284Y-9928285D01*
X6178284Y-8628285D02*
X6178284Y-8571716D01*
X6121715Y-8571716D01*
X6121715Y-8628285D01*
X6178284Y-8628285D01*
X6228284Y-7020284D02*
X6228284Y-6963715D01*
X6171715Y-6963715D01*
X6171715Y-7020284D01*
X6228284Y-7020284D01*
X6228284Y-8036284D02*
X6228284Y-7979715D01*
X6171715Y-7979715D01*
X6171715Y-8036284D01*
X6228284Y-8036284D01*
X6378284Y-8628285D02*
X6378284Y-8571716D01*
X6321715Y-8571716D01*
X6321715Y-8628285D01*
X6378284Y-8628285D01*
X6690284Y-9528285D02*
X6690284Y-9471716D01*
X6633715Y-9471716D01*
X6633715Y-9528285D01*
X6690284Y-9528285D01*
X6690284Y-9928285D02*
X6690284Y-9871716D01*
X6633715Y-9871716D01*
X6633715Y-9928285D01*
X6690284Y-9928285D01*
X7347284Y-9532285D02*
X7347284Y-9475716D01*
X7290715Y-9475716D01*
X7290715Y-9532285D01*
X7347284Y-9532285D01*
X7347284Y-9882285D02*
X7347284Y-9825716D01*
X7290715Y-9825716D01*
X7290715Y-9882285D01*
X7347284Y-9882285D01*
X7528284Y-8628285D02*
X7528284Y-8571716D01*
X7471715Y-8571716D01*
X7471715Y-8628285D01*
X7528284Y-8628285D01*
X7578284Y-7028284D02*
X7578284Y-6971715D01*
X7521715Y-6971715D01*
X7521715Y-7028284D01*
X7578284Y-7028284D01*
X7578284Y-8044284D02*
X7578284Y-7987715D01*
X7521715Y-7987715D01*
X7521715Y-8044284D01*
X7578284Y-8044284D01*
X7728284Y-8628285D02*
X7728284Y-8571716D01*
X7671715Y-8571716D01*
X7671715Y-8628285D01*
X7728284Y-8628285D01*
X8109284Y-9532285D02*
X8109284Y-9475716D01*
X8052715Y-9475716D01*
X8052715Y-9532285D01*
X8109284Y-9532285D01*
X8109284Y-9882285D02*
X8109284Y-9825716D01*
X8052715Y-9825716D01*
X8052715Y-9882285D01*
X8109284Y-9882285D01*
X8143554Y-7528284D02*
X8143554Y-7471715D01*
X8086985Y-7471715D01*
X8086985Y-7528284D01*
X8143554Y-7528284D01*
X8228284Y-8328284D02*
X8228284Y-8271715D01*
X8171715Y-8271715D01*
X8171715Y-8328284D01*
X8228284Y-8328284D01*
X8228284Y-8828285D02*
X8228284Y-8771716D01*
X8171715Y-8771716D01*
X8171715Y-8828285D01*
X8228284Y-8828285D01*
X8493555Y-7528284D02*
X8493555Y-7471715D01*
X8436986Y-7471715D01*
X8436986Y-7528284D01*
X8493555Y-7528284D01*
X8516285Y-9524285D02*
X8516285Y-9467716D01*
X8459716Y-9467716D01*
X8459716Y-9524285D01*
X8516285Y-9524285D01*
X8516285Y-9874285D02*
X8516285Y-9817716D01*
X8459716Y-9817716D01*
X8459716Y-9874285D01*
X8516285Y-9874285D01*
X8724285Y-6728284D02*
X8724285Y-6671715D01*
X8667716Y-6671715D01*
X8667716Y-6728284D01*
X8724285Y-6728284D01*
X8974285Y-6728284D02*
X8974285Y-6671715D01*
X8917716Y-6671715D01*
X8917716Y-6728284D01*
X8974285Y-6728284D01*
X9043555Y-7528284D02*
X9043555Y-7471715D01*
X8986986Y-7471715D01*
X8986986Y-7528284D01*
X9043555Y-7528284D01*
X9278285Y-9524285D02*
X9278285Y-9467716D01*
X9221716Y-9467716D01*
X9221716Y-9524285D01*
X9278285Y-9524285D01*
X9278285Y-9874285D02*
X9278285Y-9817716D01*
X9221716Y-9817716D01*
X9221716Y-9874285D01*
X9278285Y-9874285D01*
X9328285Y-8328284D02*
X9328285Y-8271715D01*
X9271716Y-8271715D01*
X9271716Y-8328284D01*
X9328285Y-8328284D01*
X9328285Y-8828285D02*
X9328285Y-8771716D01*
X9271716Y-8771716D01*
X9271716Y-8828285D01*
X9328285Y-8828285D01*
X9393555Y-7528284D02*
X9393555Y-7471715D01*
X9336986Y-7471715D01*
X9336986Y-7528284D01*
X9393555Y-7528284D01*
X9678285Y-10728285D02*
X9678285Y-10671716D01*
X9621716Y-10671716D01*
X9621716Y-10728285D01*
X9678285Y-10728285D01*
X9678285Y-11228284D02*
X9678285Y-11171716D01*
X9621716Y-11171716D01*
X9621716Y-11228284D01*
X9678285Y-11228284D01*
D12*
X4300000Y-4560000D02*
X4360000Y-4500000D01*
X4300000Y-4440000D01*
X4240000Y-4500000D01*
X4300000Y-4560000D01*
X4300000Y-6060000D02*
X4360000Y-6000000D01*
X4300000Y-5940000D01*
X4240000Y-6000000D01*
X4300000Y-6060000D01*
X4800000Y-10910000D02*
X4860000Y-10850000D01*
X4800000Y-10790000D01*
X4740000Y-10850000D01*
X4800000Y-10910000D01*
X5300000Y-4560000D02*
X5360000Y-4500000D01*
X5300000Y-4440000D01*
X5240000Y-4500000D01*
X5300000Y-4560000D01*
X5300000Y-6060000D02*
X5360000Y-6000000D01*
X5300000Y-5940000D01*
X5240000Y-6000000D01*
X5300000Y-6060000D01*
X6300000Y-4560000D02*
X6360000Y-4500000D01*
X6300000Y-4440000D01*
X6240000Y-4500000D01*
X6300000Y-4560000D01*
X6300000Y-6060000D02*
X6360000Y-6000000D01*
X6300000Y-5940000D01*
X6240000Y-6000000D01*
X6300000Y-6060000D01*
X6300000Y-10910000D02*
X6360000Y-10850000D01*
X6300000Y-10790000D01*
X6240000Y-10850000D01*
X6300000Y-10910000D01*
X7450000Y-4560000D02*
X7510000Y-4500000D01*
X7450000Y-4440000D01*
X7390000Y-4500000D01*
X7450000Y-4560000D01*
X7450000Y-6060000D02*
X7510000Y-6000000D01*
X7450000Y-5940000D01*
X7390000Y-6000000D01*
X7450000Y-6060000D01*
X7650000Y-10910000D02*
X7710000Y-10850000D01*
X7650000Y-10790000D01*
X7590000Y-10850000D01*
X7650000Y-10910000D01*
X8450000Y-4560000D02*
X8510000Y-4500000D01*
X8450000Y-4440000D01*
X8390000Y-4500000D01*
X8450000Y-4560000D01*
X8450000Y-6060000D02*
X8510000Y-6000000D01*
X8450000Y-5940000D01*
X8390000Y-6000000D01*
X8450000Y-6060000D01*
X9150000Y-10910000D02*
X9210000Y-10850000D01*
X9150000Y-10790000D01*
X9090000Y-10850000D01*
X9150000Y-10910000D01*
X9450000Y-4560000D02*
X9510000Y-4500000D01*
X9450000Y-4440000D01*
X9390000Y-4500000D01*
X9450000Y-4560000D01*
X9450000Y-6060000D02*
X9510000Y-6000000D01*
X9450000Y-5940000D01*
X9390000Y-6000000D01*
X9450000Y-6060000D01*
D13*
X4140000Y-3640000D02*
X4360000Y-3860000D01*
X4360000Y-3640000D02*
X4140000Y-3860000D01*
X4360000Y-3750000D02*
G75*
G02*
X4140000Y-3750000I-110000J0D01*
G01*
X4140000Y-3750000D02*
G75*
G02*
X4360000Y-3750000I110000J0D01*
G01*
X4140000Y-12390000D02*
X4360000Y-12610000D01*
X4360000Y-12390000D02*
X4140000Y-12610000D01*
X4360000Y-12500000D02*
G75*
G02*
X4140000Y-12500000I-110000J0D01*
G01*
X4140000Y-12500000D02*
G75*
G02*
X4360000Y-12500000I110000J0D01*
G01*
X4490000Y-11765000D02*
X4710000Y-11985000D01*
X4710000Y-11765000D02*
X4490000Y-11985000D01*
X4710000Y-11875000D02*
G75*
G02*
X4490000Y-11875000I-110000J0D01*
G01*
X4490000Y-11875000D02*
G75*
G02*
X4710000Y-11875000I110000J0D01*
G01*
X4990000Y-3890000D02*
X5210000Y-4110000D01*
X5210000Y-3890000D02*
X4990000Y-4110000D01*
X5210000Y-4000000D02*
G75*
G02*
X4990000Y-4000000I-110000J0D01*
G01*
X4990000Y-4000000D02*
G75*
G02*
X5210000Y-4000000I110000J0D01*
G01*
X5465000Y-11765000D02*
X5685000Y-11985000D01*
X5685000Y-11765000D02*
X5465000Y-11985000D01*
X5685000Y-11875000D02*
G75*
G02*
X5465000Y-11875000I-110000J0D01*
G01*
X5465000Y-11875000D02*
G75*
G02*
X5685000Y-11875000I110000J0D01*
G01*
X5490000Y-3890000D02*
X5710000Y-4110000D01*
X5710000Y-3890000D02*
X5490000Y-4110000D01*
X5710000Y-4000000D02*
G75*
G02*
X5490000Y-4000000I-110000J0D01*
G01*
X5490000Y-4000000D02*
G75*
G02*
X5710000Y-4000000I110000J0D01*
G01*
X6040000Y-3890000D02*
X6260000Y-4110000D01*
X6260000Y-3890000D02*
X6040000Y-4110000D01*
X6260000Y-4000000D02*
G75*
G02*
X6040000Y-4000000I-110000J0D01*
G01*
X6040000Y-4000000D02*
G75*
G02*
X6260000Y-4000000I110000J0D01*
G01*
X6490000Y-11765000D02*
X6710000Y-11985000D01*
X6710000Y-11765000D02*
X6490000Y-11985000D01*
X6710000Y-11875000D02*
G75*
G02*
X6490000Y-11875000I-110000J0D01*
G01*
X6490000Y-11875000D02*
G75*
G02*
X6710000Y-11875000I110000J0D01*
G01*
X6740000Y-3640000D02*
X6960000Y-3860000D01*
X6960000Y-3640000D02*
X6740000Y-3860000D01*
X6960000Y-3750000D02*
G75*
G02*
X6740000Y-3750000I-110000J0D01*
G01*
X6740000Y-3750000D02*
G75*
G02*
X6960000Y-3750000I110000J0D01*
G01*
X6840000Y-12390000D02*
X7060000Y-12610000D01*
X7060000Y-12390000D02*
X6840000Y-12610000D01*
X7060000Y-12500000D02*
G75*
G02*
X6840000Y-12500000I-110000J0D01*
G01*
X6840000Y-12500000D02*
G75*
G02*
X7060000Y-12500000I110000J0D01*
G01*
X7240000Y-11790000D02*
X7460000Y-12010000D01*
X7460000Y-11790000D02*
X7240000Y-12010000D01*
X7460000Y-11900000D02*
G75*
G02*
X7240000Y-11900000I-110000J0D01*
G01*
X7240000Y-11900000D02*
G75*
G02*
X7460000Y-11900000I110000J0D01*
G01*
X7590000Y-3890000D02*
X7810000Y-4110000D01*
X7810000Y-3890000D02*
X7590000Y-4110000D01*
X7810000Y-4000000D02*
G75*
G02*
X7590000Y-4000000I-110000J0D01*
G01*
X7590000Y-4000000D02*
G75*
G02*
X7810000Y-4000000I110000J0D01*
G01*
X8140000Y-3890000D02*
X8360000Y-4110000D01*
X8360000Y-3890000D02*
X8140000Y-4110000D01*
X8360000Y-4000000D02*
G75*
G02*
X8140000Y-4000000I-110000J0D01*
G01*
X8140000Y-4000000D02*
G75*
G02*
X8360000Y-4000000I110000J0D01*
G01*
X8140000Y-11790000D02*
X8360000Y-12010000D01*
X8360000Y-11790000D02*
X8140000Y-12010000D01*
X8360000Y-11900000D02*
G75*
G02*
X8140000Y-11900000I-110000J0D01*
G01*
X8140000Y-11900000D02*
G75*
G02*
X8360000Y-11900000I110000J0D01*
G01*
X8740000Y-3890000D02*
X8960000Y-4110000D01*
X8960000Y-3890000D02*
X8740000Y-4110000D01*
X8960000Y-4000000D02*
G75*
G02*
X8740000Y-4000000I-110000J0D01*
G01*
X8740000Y-4000000D02*
G75*
G02*
X8960000Y-4000000I110000J0D01*
G01*
X9140000Y-11790000D02*
X9360000Y-12010000D01*
X9360000Y-11790000D02*
X9140000Y-12010000D01*
X9360000Y-11900000D02*
G75*
G02*
X9140000Y-11900000I-110000J0D01*
G01*
X9140000Y-11900000D02*
G75*
G02*
X9360000Y-11900000I110000J0D01*
G01*
X9440000Y-3590000D02*
X9660000Y-3810000D01*
X9660000Y-3590000D02*
X9440000Y-3810000D01*
X9660000Y-3700000D02*
G75*
G02*
X9440000Y-3700000I-110000J0D01*
G01*
X9440000Y-3700000D02*
G75*
G02*
X9660000Y-3700000I110000J0D01*
G01*
X9440000Y-12390000D02*
X9660000Y-12610000D01*
X9660000Y-12390000D02*
X9440000Y-12610000D01*
X9660000Y-12500000D02*
G75*
G02*
X9440000Y-12500000I-110000J0D01*
G01*
X9440000Y-12500000D02*
G75*
G02*
X9660000Y-12500000I110000J0D01*
G01*
D11*
X4005777Y-13316484D02*
X4005777Y-13116484D01*
X4005777Y-13116484D02*
X4053396Y-13116484D01*
X4053396Y-13116484D02*
X4081967Y-13126008D01*
X4081967Y-13126008D02*
X4101015Y-13145055D01*
X4101015Y-13145055D02*
X4110539Y-13164103D01*
X4110539Y-13164103D02*
X4120062Y-13202198D01*
X4120062Y-13202198D02*
X4120062Y-13230769D01*
X4120062Y-13230769D02*
X4110539Y-13268865D01*
X4110539Y-13268865D02*
X4101015Y-13287912D01*
X4101015Y-13287912D02*
X4081967Y-13306960D01*
X4081967Y-13306960D02*
X4053396Y-13316484D01*
X4053396Y-13316484D02*
X4005777Y-13316484D01*
X4205777Y-13316484D02*
X4205777Y-13183150D01*
X4205777Y-13221246D02*
X4215301Y-13202198D01*
X4215301Y-13202198D02*
X4224824Y-13192674D01*
X4224824Y-13192674D02*
X4243872Y-13183150D01*
X4243872Y-13183150D02*
X4262920Y-13183150D01*
X4329586Y-13316484D02*
X4329586Y-13183150D01*
X4329586Y-13116484D02*
X4320063Y-13126008D01*
X4320063Y-13126008D02*
X4329586Y-13135531D01*
X4329586Y-13135531D02*
X4339110Y-13126008D01*
X4339110Y-13126008D02*
X4329586Y-13116484D01*
X4329586Y-13116484D02*
X4329586Y-13135531D01*
X4453396Y-13316484D02*
X4434348Y-13306960D01*
X4434348Y-13306960D02*
X4424824Y-13287912D01*
X4424824Y-13287912D02*
X4424824Y-13116484D01*
X4558158Y-13316484D02*
X4539110Y-13306960D01*
X4539110Y-13306960D02*
X4529586Y-13287912D01*
X4529586Y-13287912D02*
X4529586Y-13116484D01*
X4786729Y-13316484D02*
X4786729Y-13116484D01*
X4786729Y-13116484D02*
X4853396Y-13259341D01*
X4853396Y-13259341D02*
X4920063Y-13116484D01*
X4920063Y-13116484D02*
X4920063Y-13316484D01*
X5101015Y-13316484D02*
X5101015Y-13211722D01*
X5101015Y-13211722D02*
X5091491Y-13192674D01*
X5091491Y-13192674D02*
X5072444Y-13183150D01*
X5072444Y-13183150D02*
X5034348Y-13183150D01*
X5034348Y-13183150D02*
X5015301Y-13192674D01*
X5101015Y-13306960D02*
X5081967Y-13316484D01*
X5081967Y-13316484D02*
X5034348Y-13316484D01*
X5034348Y-13316484D02*
X5015301Y-13306960D01*
X5015301Y-13306960D02*
X5005777Y-13287912D01*
X5005777Y-13287912D02*
X5005777Y-13268865D01*
X5005777Y-13268865D02*
X5015301Y-13249817D01*
X5015301Y-13249817D02*
X5034348Y-13240293D01*
X5034348Y-13240293D02*
X5081967Y-13240293D01*
X5081967Y-13240293D02*
X5101015Y-13230769D01*
X5196253Y-13183150D02*
X5196253Y-13383150D01*
X5196253Y-13192674D02*
X5215301Y-13183150D01*
X5215301Y-13183150D02*
X5253396Y-13183150D01*
X5253396Y-13183150D02*
X5272444Y-13192674D01*
X5272444Y-13192674D02*
X5281967Y-13202198D01*
X5281967Y-13202198D02*
X5291491Y-13221246D01*
X5291491Y-13221246D02*
X5291491Y-13278388D01*
X5291491Y-13278388D02*
X5281967Y-13297436D01*
X5281967Y-13297436D02*
X5272444Y-13306960D01*
X5272444Y-13306960D02*
X5253396Y-13316484D01*
X5253396Y-13316484D02*
X5215301Y-13316484D01*
X5215301Y-13316484D02*
X5196253Y-13306960D01*
X5377205Y-13297436D02*
X5386729Y-13306960D01*
X5386729Y-13306960D02*
X5377205Y-13316484D01*
X5377205Y-13316484D02*
X5367682Y-13306960D01*
X5367682Y-13306960D02*
X5377205Y-13297436D01*
X5377205Y-13297436D02*
X5377205Y-13316484D01*
X5377205Y-13192674D02*
X5386729Y-13202198D01*
X5386729Y-13202198D02*
X5377205Y-13211722D01*
X5377205Y-13211722D02*
X5367682Y-13202198D01*
X5367682Y-13202198D02*
X5377205Y-13192674D01*
X5377205Y-13192674D02*
X5377205Y-13211722D01*
D10*
X3705000Y-13625000D02*
X3745000Y-13665000D01*
X3745000Y-13625000D02*
X3705000Y-13665000D01*
D11*
X4043872Y-13536484D02*
X4062920Y-13536484D01*
X4062920Y-13536484D02*
X4081967Y-13546008D01*
X4081967Y-13546008D02*
X4091491Y-13555531D01*
X4091491Y-13555531D02*
X4101015Y-13574579D01*
X4101015Y-13574579D02*
X4110539Y-13612674D01*
X4110539Y-13612674D02*
X4110539Y-13660293D01*
X4110539Y-13660293D02*
X4101015Y-13698388D01*
X4101015Y-13698388D02*
X4091491Y-13717436D01*
X4091491Y-13717436D02*
X4081967Y-13726960D01*
X4081967Y-13726960D02*
X4062920Y-13736484D01*
X4062920Y-13736484D02*
X4043872Y-13736484D01*
X4043872Y-13736484D02*
X4024824Y-13726960D01*
X4024824Y-13726960D02*
X4015301Y-13717436D01*
X4015301Y-13717436D02*
X4005777Y-13698388D01*
X4005777Y-13698388D02*
X3996253Y-13660293D01*
X3996253Y-13660293D02*
X3996253Y-13612674D01*
X3996253Y-13612674D02*
X4005777Y-13574579D01*
X4005777Y-13574579D02*
X4015301Y-13555531D01*
X4015301Y-13555531D02*
X4024824Y-13546008D01*
X4024824Y-13546008D02*
X4043872Y-13536484D01*
X4196253Y-13717436D02*
X4205777Y-13726960D01*
X4205777Y-13726960D02*
X4196253Y-13736484D01*
X4196253Y-13736484D02*
X4186729Y-13726960D01*
X4186729Y-13726960D02*
X4196253Y-13717436D01*
X4196253Y-13717436D02*
X4196253Y-13736484D01*
X4377205Y-13603150D02*
X4377205Y-13736484D01*
X4329586Y-13526960D02*
X4281967Y-13669817D01*
X4281967Y-13669817D02*
X4405777Y-13669817D01*
X4520063Y-13536484D02*
X4539110Y-13536484D01*
X4539110Y-13536484D02*
X4558158Y-13546008D01*
X4558158Y-13546008D02*
X4567682Y-13555531D01*
X4567682Y-13555531D02*
X4577205Y-13574579D01*
X4577205Y-13574579D02*
X4586729Y-13612674D01*
X4586729Y-13612674D02*
X4586729Y-13660293D01*
X4586729Y-13660293D02*
X4577205Y-13698388D01*
X4577205Y-13698388D02*
X4567682Y-13717436D01*
X4567682Y-13717436D02*
X4558158Y-13726960D01*
X4558158Y-13726960D02*
X4539110Y-13736484D01*
X4539110Y-13736484D02*
X4520063Y-13736484D01*
X4520063Y-13736484D02*
X4501015Y-13726960D01*
X4501015Y-13726960D02*
X4491491Y-13717436D01*
X4491491Y-13717436D02*
X4481967Y-13698388D01*
X4481967Y-13698388D02*
X4472444Y-13660293D01*
X4472444Y-13660293D02*
X4472444Y-13612674D01*
X4472444Y-13612674D02*
X4481967Y-13574579D01*
X4481967Y-13574579D02*
X4491491Y-13555531D01*
X4491491Y-13555531D02*
X4501015Y-13546008D01*
X4501015Y-13546008D02*
X4520063Y-13536484D01*
X4710539Y-13536484D02*
X4729586Y-13536484D01*
X4729586Y-13536484D02*
X4748634Y-13546008D01*
X4748634Y-13546008D02*
X4758158Y-13555531D01*
X4758158Y-13555531D02*
X4767682Y-13574579D01*
X4767682Y-13574579D02*
X4777205Y-13612674D01*
X4777205Y-13612674D02*
X4777205Y-13660293D01*
X4777205Y-13660293D02*
X4767682Y-13698388D01*
X4767682Y-13698388D02*
X4758158Y-13717436D01*
X4758158Y-13717436D02*
X4748634Y-13726960D01*
X4748634Y-13726960D02*
X4729586Y-13736484D01*
X4729586Y-13736484D02*
X4710539Y-13736484D01*
X4710539Y-13736484D02*
X4691491Y-13726960D01*
X4691491Y-13726960D02*
X4681967Y-13717436D01*
X4681967Y-13717436D02*
X4672444Y-13698388D01*
X4672444Y-13698388D02*
X4662920Y-13660293D01*
X4662920Y-13660293D02*
X4662920Y-13612674D01*
X4662920Y-13612674D02*
X4672444Y-13574579D01*
X4672444Y-13574579D02*
X4681967Y-13555531D01*
X4681967Y-13555531D02*
X4691491Y-13546008D01*
X4691491Y-13546008D02*
X4710539Y-13536484D01*
X4862920Y-13736484D02*
X4862920Y-13603150D01*
X4862920Y-13622198D02*
X4872444Y-13612674D01*
X4872444Y-13612674D02*
X4891491Y-13603150D01*
X4891491Y-13603150D02*
X4920063Y-13603150D01*
X4920063Y-13603150D02*
X4939110Y-13612674D01*
X4939110Y-13612674D02*
X4948634Y-13631722D01*
X4948634Y-13631722D02*
X4948634Y-13736484D01*
X4948634Y-13631722D02*
X4958158Y-13612674D01*
X4958158Y-13612674D02*
X4977205Y-13603150D01*
X4977205Y-13603150D02*
X5005777Y-13603150D01*
X5005777Y-13603150D02*
X5024825Y-13612674D01*
X5024825Y-13612674D02*
X5034348Y-13631722D01*
X5034348Y-13631722D02*
X5034348Y-13736484D01*
X5129586Y-13736484D02*
X5129586Y-13603150D01*
X5129586Y-13622198D02*
X5139110Y-13612674D01*
X5139110Y-13612674D02*
X5158158Y-13603150D01*
X5158158Y-13603150D02*
X5186729Y-13603150D01*
X5186729Y-13603150D02*
X5205777Y-13612674D01*
X5205777Y-13612674D02*
X5215301Y-13631722D01*
X5215301Y-13631722D02*
X5215301Y-13736484D01*
X5215301Y-13631722D02*
X5224825Y-13612674D01*
X5224825Y-13612674D02*
X5243872Y-13603150D01*
X5243872Y-13603150D02*
X5272444Y-13603150D01*
X5272444Y-13603150D02*
X5291491Y-13612674D01*
X5291491Y-13612674D02*
X5301015Y-13631722D01*
X5301015Y-13631722D02*
X5301015Y-13736484D01*
X5691491Y-13526960D02*
X5520063Y-13784103D01*
X5948634Y-13536484D02*
X5967682Y-13536484D01*
X5967682Y-13536484D02*
X5986729Y-13546008D01*
X5986729Y-13546008D02*
X5996253Y-13555531D01*
X5996253Y-13555531D02*
X6005777Y-13574579D01*
X6005777Y-13574579D02*
X6015301Y-13612674D01*
X6015301Y-13612674D02*
X6015301Y-13660293D01*
X6015301Y-13660293D02*
X6005777Y-13698388D01*
X6005777Y-13698388D02*
X5996253Y-13717436D01*
X5996253Y-13717436D02*
X5986729Y-13726960D01*
X5986729Y-13726960D02*
X5967682Y-13736484D01*
X5967682Y-13736484D02*
X5948634Y-13736484D01*
X5948634Y-13736484D02*
X5929586Y-13726960D01*
X5929586Y-13726960D02*
X5920063Y-13717436D01*
X5920063Y-13717436D02*
X5910539Y-13698388D01*
X5910539Y-13698388D02*
X5901015Y-13660293D01*
X5901015Y-13660293D02*
X5901015Y-13612674D01*
X5901015Y-13612674D02*
X5910539Y-13574579D01*
X5910539Y-13574579D02*
X5920063Y-13555531D01*
X5920063Y-13555531D02*
X5929586Y-13546008D01*
X5929586Y-13546008D02*
X5948634Y-13536484D01*
X6101015Y-13717436D02*
X6110539Y-13726960D01*
X6110539Y-13726960D02*
X6101015Y-13736484D01*
X6101015Y-13736484D02*
X6091491Y-13726960D01*
X6091491Y-13726960D02*
X6101015Y-13717436D01*
X6101015Y-13717436D02*
X6101015Y-13736484D01*
X6234348Y-13536484D02*
X6253396Y-13536484D01*
X6253396Y-13536484D02*
X6272444Y-13546008D01*
X6272444Y-13546008D02*
X6281967Y-13555531D01*
X6281967Y-13555531D02*
X6291491Y-13574579D01*
X6291491Y-13574579D02*
X6301015Y-13612674D01*
X6301015Y-13612674D02*
X6301015Y-13660293D01*
X6301015Y-13660293D02*
X6291491Y-13698388D01*
X6291491Y-13698388D02*
X6281967Y-13717436D01*
X6281967Y-13717436D02*
X6272444Y-13726960D01*
X6272444Y-13726960D02*
X6253396Y-13736484D01*
X6253396Y-13736484D02*
X6234348Y-13736484D01*
X6234348Y-13736484D02*
X6215301Y-13726960D01*
X6215301Y-13726960D02*
X6205777Y-13717436D01*
X6205777Y-13717436D02*
X6196253Y-13698388D01*
X6196253Y-13698388D02*
X6186729Y-13660293D01*
X6186729Y-13660293D02*
X6186729Y-13612674D01*
X6186729Y-13612674D02*
X6196253Y-13574579D01*
X6196253Y-13574579D02*
X6205777Y-13555531D01*
X6205777Y-13555531D02*
X6215301Y-13546008D01*
X6215301Y-13546008D02*
X6234348Y-13536484D01*
X6491491Y-13736484D02*
X6377206Y-13736484D01*
X6434348Y-13736484D02*
X6434348Y-13536484D01*
X6434348Y-13536484D02*
X6415301Y-13565055D01*
X6415301Y-13565055D02*
X6396253Y-13584103D01*
X6396253Y-13584103D02*
X6377206Y-13593627D01*
X6672444Y-13536484D02*
X6577206Y-13536484D01*
X6577206Y-13536484D02*
X6567682Y-13631722D01*
X6567682Y-13631722D02*
X6577206Y-13622198D01*
X6577206Y-13622198D02*
X6596253Y-13612674D01*
X6596253Y-13612674D02*
X6643872Y-13612674D01*
X6643872Y-13612674D02*
X6662920Y-13622198D01*
X6662920Y-13622198D02*
X6672444Y-13631722D01*
X6672444Y-13631722D02*
X6681967Y-13650769D01*
X6681967Y-13650769D02*
X6681967Y-13698388D01*
X6681967Y-13698388D02*
X6672444Y-13717436D01*
X6672444Y-13717436D02*
X6662920Y-13726960D01*
X6662920Y-13726960D02*
X6643872Y-13736484D01*
X6643872Y-13736484D02*
X6596253Y-13736484D01*
X6596253Y-13736484D02*
X6577206Y-13726960D01*
X6577206Y-13726960D02*
X6567682Y-13717436D01*
X6748634Y-13536484D02*
X6881967Y-13536484D01*
X6881967Y-13536484D02*
X6796253Y-13736484D01*
X6948634Y-13536484D02*
X6948634Y-13574579D01*
X7024825Y-13536484D02*
X7024825Y-13574579D01*
X7320063Y-13812674D02*
X7310539Y-13803150D01*
X7310539Y-13803150D02*
X7291491Y-13774579D01*
X7291491Y-13774579D02*
X7281968Y-13755531D01*
X7281968Y-13755531D02*
X7272444Y-13726960D01*
X7272444Y-13726960D02*
X7262920Y-13679341D01*
X7262920Y-13679341D02*
X7262920Y-13641246D01*
X7262920Y-13641246D02*
X7272444Y-13593627D01*
X7272444Y-13593627D02*
X7281968Y-13565055D01*
X7281968Y-13565055D02*
X7291491Y-13546008D01*
X7291491Y-13546008D02*
X7310539Y-13517436D01*
X7310539Y-13517436D02*
X7320063Y-13507912D01*
X7377206Y-13536484D02*
X7501015Y-13536484D01*
X7501015Y-13536484D02*
X7434348Y-13612674D01*
X7434348Y-13612674D02*
X7462920Y-13612674D01*
X7462920Y-13612674D02*
X7481968Y-13622198D01*
X7481968Y-13622198D02*
X7491491Y-13631722D01*
X7491491Y-13631722D02*
X7501015Y-13650769D01*
X7501015Y-13650769D02*
X7501015Y-13698388D01*
X7501015Y-13698388D02*
X7491491Y-13717436D01*
X7491491Y-13717436D02*
X7481968Y-13726960D01*
X7481968Y-13726960D02*
X7462920Y-13736484D01*
X7462920Y-13736484D02*
X7405777Y-13736484D01*
X7405777Y-13736484D02*
X7386729Y-13726960D01*
X7386729Y-13726960D02*
X7377206Y-13717436D01*
X7596253Y-13736484D02*
X7634348Y-13736484D01*
X7634348Y-13736484D02*
X7653396Y-13726960D01*
X7653396Y-13726960D02*
X7662920Y-13717436D01*
X7662920Y-13717436D02*
X7681968Y-13688865D01*
X7681968Y-13688865D02*
X7691491Y-13650769D01*
X7691491Y-13650769D02*
X7691491Y-13574579D01*
X7691491Y-13574579D02*
X7681968Y-13555531D01*
X7681968Y-13555531D02*
X7672444Y-13546008D01*
X7672444Y-13546008D02*
X7653396Y-13536484D01*
X7653396Y-13536484D02*
X7615301Y-13536484D01*
X7615301Y-13536484D02*
X7596253Y-13546008D01*
X7596253Y-13546008D02*
X7586729Y-13555531D01*
X7586729Y-13555531D02*
X7577206Y-13574579D01*
X7577206Y-13574579D02*
X7577206Y-13622198D01*
X7577206Y-13622198D02*
X7586729Y-13641246D01*
X7586729Y-13641246D02*
X7596253Y-13650769D01*
X7596253Y-13650769D02*
X7615301Y-13660293D01*
X7615301Y-13660293D02*
X7653396Y-13660293D01*
X7653396Y-13660293D02*
X7672444Y-13650769D01*
X7672444Y-13650769D02*
X7681968Y-13641246D01*
X7681968Y-13641246D02*
X7691491Y-13622198D01*
X7929587Y-13736484D02*
X7929587Y-13536484D01*
X8015301Y-13736484D02*
X8015301Y-13631722D01*
X8015301Y-13631722D02*
X8005777Y-13612674D01*
X8005777Y-13612674D02*
X7986730Y-13603150D01*
X7986730Y-13603150D02*
X7958158Y-13603150D01*
X7958158Y-13603150D02*
X7939110Y-13612674D01*
X7939110Y-13612674D02*
X7929587Y-13622198D01*
X8139110Y-13736484D02*
X8120063Y-13726960D01*
X8120063Y-13726960D02*
X8110539Y-13717436D01*
X8110539Y-13717436D02*
X8101015Y-13698388D01*
X8101015Y-13698388D02*
X8101015Y-13641246D01*
X8101015Y-13641246D02*
X8110539Y-13622198D01*
X8110539Y-13622198D02*
X8120063Y-13612674D01*
X8120063Y-13612674D02*
X8139110Y-13603150D01*
X8139110Y-13603150D02*
X8167682Y-13603150D01*
X8167682Y-13603150D02*
X8186730Y-13612674D01*
X8186730Y-13612674D02*
X8196253Y-13622198D01*
X8196253Y-13622198D02*
X8205777Y-13641246D01*
X8205777Y-13641246D02*
X8205777Y-13698388D01*
X8205777Y-13698388D02*
X8196253Y-13717436D01*
X8196253Y-13717436D02*
X8186730Y-13726960D01*
X8186730Y-13726960D02*
X8167682Y-13736484D01*
X8167682Y-13736484D02*
X8139110Y-13736484D01*
X8320063Y-13736484D02*
X8301015Y-13726960D01*
X8301015Y-13726960D02*
X8291491Y-13707912D01*
X8291491Y-13707912D02*
X8291491Y-13536484D01*
X8472444Y-13726960D02*
X8453396Y-13736484D01*
X8453396Y-13736484D02*
X8415301Y-13736484D01*
X8415301Y-13736484D02*
X8396253Y-13726960D01*
X8396253Y-13726960D02*
X8386730Y-13707912D01*
X8386730Y-13707912D02*
X8386730Y-13631722D01*
X8386730Y-13631722D02*
X8396253Y-13612674D01*
X8396253Y-13612674D02*
X8415301Y-13603150D01*
X8415301Y-13603150D02*
X8453396Y-13603150D01*
X8453396Y-13603150D02*
X8472444Y-13612674D01*
X8472444Y-13612674D02*
X8481968Y-13631722D01*
X8481968Y-13631722D02*
X8481968Y-13650769D01*
X8481968Y-13650769D02*
X8386730Y-13669817D01*
X8558158Y-13726960D02*
X8577206Y-13736484D01*
X8577206Y-13736484D02*
X8615301Y-13736484D01*
X8615301Y-13736484D02*
X8634349Y-13726960D01*
X8634349Y-13726960D02*
X8643873Y-13707912D01*
X8643873Y-13707912D02*
X8643873Y-13698388D01*
X8643873Y-13698388D02*
X8634349Y-13679341D01*
X8634349Y-13679341D02*
X8615301Y-13669817D01*
X8615301Y-13669817D02*
X8586730Y-13669817D01*
X8586730Y-13669817D02*
X8567682Y-13660293D01*
X8567682Y-13660293D02*
X8558158Y-13641246D01*
X8558158Y-13641246D02*
X8558158Y-13631722D01*
X8558158Y-13631722D02*
X8567682Y-13612674D01*
X8567682Y-13612674D02*
X8586730Y-13603150D01*
X8586730Y-13603150D02*
X8615301Y-13603150D01*
X8615301Y-13603150D02*
X8634349Y-13612674D01*
X8710539Y-13812674D02*
X8720063Y-13803150D01*
X8720063Y-13803150D02*
X8739111Y-13774579D01*
X8739111Y-13774579D02*
X8748634Y-13755531D01*
X8748634Y-13755531D02*
X8758158Y-13726960D01*
X8758158Y-13726960D02*
X8767682Y-13679341D01*
X8767682Y-13679341D02*
X8767682Y-13641246D01*
X8767682Y-13641246D02*
X8758158Y-13593627D01*
X8758158Y-13593627D02*
X8748634Y-13565055D01*
X8748634Y-13565055D02*
X8739111Y-13546008D01*
X8739111Y-13546008D02*
X8720063Y-13517436D01*
X8720063Y-13517436D02*
X8710539Y-13507912D01*
D10*
X3745000Y-13909000D02*
G75*
G02*
X3695000Y-13909000I-25000J0D01*
G01*
X3695000Y-13909000D02*
G75*
G02*
X3745000Y-13909000I25000J0D01*
G01*
D11*
X4043872Y-13800484D02*
X4062920Y-13800484D01*
X4062920Y-13800484D02*
X4081967Y-13810008D01*
X4081967Y-13810008D02*
X4091491Y-13819531D01*
X4091491Y-13819531D02*
X4101015Y-13838579D01*
X4101015Y-13838579D02*
X4110539Y-13876674D01*
X4110539Y-13876674D02*
X4110539Y-13924293D01*
X4110539Y-13924293D02*
X4101015Y-13962388D01*
X4101015Y-13962388D02*
X4091491Y-13981436D01*
X4091491Y-13981436D02*
X4081967Y-13990960D01*
X4081967Y-13990960D02*
X4062920Y-14000484D01*
X4062920Y-14000484D02*
X4043872Y-14000484D01*
X4043872Y-14000484D02*
X4024824Y-13990960D01*
X4024824Y-13990960D02*
X4015301Y-13981436D01*
X4015301Y-13981436D02*
X4005777Y-13962388D01*
X4005777Y-13962388D02*
X3996253Y-13924293D01*
X3996253Y-13924293D02*
X3996253Y-13876674D01*
X3996253Y-13876674D02*
X4005777Y-13838579D01*
X4005777Y-13838579D02*
X4015301Y-13819531D01*
X4015301Y-13819531D02*
X4024824Y-13810008D01*
X4024824Y-13810008D02*
X4043872Y-13800484D01*
X4196253Y-13981436D02*
X4205777Y-13990960D01*
X4205777Y-13990960D02*
X4196253Y-14000484D01*
X4196253Y-14000484D02*
X4186729Y-13990960D01*
X4186729Y-13990960D02*
X4196253Y-13981436D01*
X4196253Y-13981436D02*
X4196253Y-14000484D01*
X4386729Y-13800484D02*
X4291491Y-13800484D01*
X4291491Y-13800484D02*
X4281967Y-13895722D01*
X4281967Y-13895722D02*
X4291491Y-13886198D01*
X4291491Y-13886198D02*
X4310539Y-13876674D01*
X4310539Y-13876674D02*
X4358158Y-13876674D01*
X4358158Y-13876674D02*
X4377205Y-13886198D01*
X4377205Y-13886198D02*
X4386729Y-13895722D01*
X4386729Y-13895722D02*
X4396253Y-13914769D01*
X4396253Y-13914769D02*
X4396253Y-13962388D01*
X4396253Y-13962388D02*
X4386729Y-13981436D01*
X4386729Y-13981436D02*
X4377205Y-13990960D01*
X4377205Y-13990960D02*
X4358158Y-14000484D01*
X4358158Y-14000484D02*
X4310539Y-14000484D01*
X4310539Y-14000484D02*
X4291491Y-13990960D01*
X4291491Y-13990960D02*
X4281967Y-13981436D01*
X4520063Y-13800484D02*
X4539110Y-13800484D01*
X4539110Y-13800484D02*
X4558158Y-13810008D01*
X4558158Y-13810008D02*
X4567682Y-13819531D01*
X4567682Y-13819531D02*
X4577205Y-13838579D01*
X4577205Y-13838579D02*
X4586729Y-13876674D01*
X4586729Y-13876674D02*
X4586729Y-13924293D01*
X4586729Y-13924293D02*
X4577205Y-13962388D01*
X4577205Y-13962388D02*
X4567682Y-13981436D01*
X4567682Y-13981436D02*
X4558158Y-13990960D01*
X4558158Y-13990960D02*
X4539110Y-14000484D01*
X4539110Y-14000484D02*
X4520063Y-14000484D01*
X4520063Y-14000484D02*
X4501015Y-13990960D01*
X4501015Y-13990960D02*
X4491491Y-13981436D01*
X4491491Y-13981436D02*
X4481967Y-13962388D01*
X4481967Y-13962388D02*
X4472444Y-13924293D01*
X4472444Y-13924293D02*
X4472444Y-13876674D01*
X4472444Y-13876674D02*
X4481967Y-13838579D01*
X4481967Y-13838579D02*
X4491491Y-13819531D01*
X4491491Y-13819531D02*
X4501015Y-13810008D01*
X4501015Y-13810008D02*
X4520063Y-13800484D01*
X4710539Y-13800484D02*
X4729586Y-13800484D01*
X4729586Y-13800484D02*
X4748634Y-13810008D01*
X4748634Y-13810008D02*
X4758158Y-13819531D01*
X4758158Y-13819531D02*
X4767682Y-13838579D01*
X4767682Y-13838579D02*
X4777205Y-13876674D01*
X4777205Y-13876674D02*
X4777205Y-13924293D01*
X4777205Y-13924293D02*
X4767682Y-13962388D01*
X4767682Y-13962388D02*
X4758158Y-13981436D01*
X4758158Y-13981436D02*
X4748634Y-13990960D01*
X4748634Y-13990960D02*
X4729586Y-14000484D01*
X4729586Y-14000484D02*
X4710539Y-14000484D01*
X4710539Y-14000484D02*
X4691491Y-13990960D01*
X4691491Y-13990960D02*
X4681967Y-13981436D01*
X4681967Y-13981436D02*
X4672444Y-13962388D01*
X4672444Y-13962388D02*
X4662920Y-13924293D01*
X4662920Y-13924293D02*
X4662920Y-13876674D01*
X4662920Y-13876674D02*
X4672444Y-13838579D01*
X4672444Y-13838579D02*
X4681967Y-13819531D01*
X4681967Y-13819531D02*
X4691491Y-13810008D01*
X4691491Y-13810008D02*
X4710539Y-13800484D01*
X4862920Y-14000484D02*
X4862920Y-13867150D01*
X4862920Y-13886198D02*
X4872444Y-13876674D01*
X4872444Y-13876674D02*
X4891491Y-13867150D01*
X4891491Y-13867150D02*
X4920063Y-13867150D01*
X4920063Y-13867150D02*
X4939110Y-13876674D01*
X4939110Y-13876674D02*
X4948634Y-13895722D01*
X4948634Y-13895722D02*
X4948634Y-14000484D01*
X4948634Y-13895722D02*
X4958158Y-13876674D01*
X4958158Y-13876674D02*
X4977205Y-13867150D01*
X4977205Y-13867150D02*
X5005777Y-13867150D01*
X5005777Y-13867150D02*
X5024825Y-13876674D01*
X5024825Y-13876674D02*
X5034348Y-13895722D01*
X5034348Y-13895722D02*
X5034348Y-14000484D01*
X5129586Y-14000484D02*
X5129586Y-13867150D01*
X5129586Y-13886198D02*
X5139110Y-13876674D01*
X5139110Y-13876674D02*
X5158158Y-13867150D01*
X5158158Y-13867150D02*
X5186729Y-13867150D01*
X5186729Y-13867150D02*
X5205777Y-13876674D01*
X5205777Y-13876674D02*
X5215301Y-13895722D01*
X5215301Y-13895722D02*
X5215301Y-14000484D01*
X5215301Y-13895722D02*
X5224825Y-13876674D01*
X5224825Y-13876674D02*
X5243872Y-13867150D01*
X5243872Y-13867150D02*
X5272444Y-13867150D01*
X5272444Y-13867150D02*
X5291491Y-13876674D01*
X5291491Y-13876674D02*
X5301015Y-13895722D01*
X5301015Y-13895722D02*
X5301015Y-14000484D01*
X5691491Y-13790960D02*
X5520063Y-14048103D01*
X5948634Y-13800484D02*
X5967682Y-13800484D01*
X5967682Y-13800484D02*
X5986729Y-13810008D01*
X5986729Y-13810008D02*
X5996253Y-13819531D01*
X5996253Y-13819531D02*
X6005777Y-13838579D01*
X6005777Y-13838579D02*
X6015301Y-13876674D01*
X6015301Y-13876674D02*
X6015301Y-13924293D01*
X6015301Y-13924293D02*
X6005777Y-13962388D01*
X6005777Y-13962388D02*
X5996253Y-13981436D01*
X5996253Y-13981436D02*
X5986729Y-13990960D01*
X5986729Y-13990960D02*
X5967682Y-14000484D01*
X5967682Y-14000484D02*
X5948634Y-14000484D01*
X5948634Y-14000484D02*
X5929586Y-13990960D01*
X5929586Y-13990960D02*
X5920063Y-13981436D01*
X5920063Y-13981436D02*
X5910539Y-13962388D01*
X5910539Y-13962388D02*
X5901015Y-13924293D01*
X5901015Y-13924293D02*
X5901015Y-13876674D01*
X5901015Y-13876674D02*
X5910539Y-13838579D01*
X5910539Y-13838579D02*
X5920063Y-13819531D01*
X5920063Y-13819531D02*
X5929586Y-13810008D01*
X5929586Y-13810008D02*
X5948634Y-13800484D01*
X6101015Y-13981436D02*
X6110539Y-13990960D01*
X6110539Y-13990960D02*
X6101015Y-14000484D01*
X6101015Y-14000484D02*
X6091491Y-13990960D01*
X6091491Y-13990960D02*
X6101015Y-13981436D01*
X6101015Y-13981436D02*
X6101015Y-14000484D01*
X6234348Y-13800484D02*
X6253396Y-13800484D01*
X6253396Y-13800484D02*
X6272444Y-13810008D01*
X6272444Y-13810008D02*
X6281967Y-13819531D01*
X6281967Y-13819531D02*
X6291491Y-13838579D01*
X6291491Y-13838579D02*
X6301015Y-13876674D01*
X6301015Y-13876674D02*
X6301015Y-13924293D01*
X6301015Y-13924293D02*
X6291491Y-13962388D01*
X6291491Y-13962388D02*
X6281967Y-13981436D01*
X6281967Y-13981436D02*
X6272444Y-13990960D01*
X6272444Y-13990960D02*
X6253396Y-14000484D01*
X6253396Y-14000484D02*
X6234348Y-14000484D01*
X6234348Y-14000484D02*
X6215301Y-13990960D01*
X6215301Y-13990960D02*
X6205777Y-13981436D01*
X6205777Y-13981436D02*
X6196253Y-13962388D01*
X6196253Y-13962388D02*
X6186729Y-13924293D01*
X6186729Y-13924293D02*
X6186729Y-13876674D01*
X6186729Y-13876674D02*
X6196253Y-13838579D01*
X6196253Y-13838579D02*
X6205777Y-13819531D01*
X6205777Y-13819531D02*
X6215301Y-13810008D01*
X6215301Y-13810008D02*
X6234348Y-13800484D01*
X6491491Y-14000484D02*
X6377206Y-14000484D01*
X6434348Y-14000484D02*
X6434348Y-13800484D01*
X6434348Y-13800484D02*
X6415301Y-13829055D01*
X6415301Y-13829055D02*
X6396253Y-13848103D01*
X6396253Y-13848103D02*
X6377206Y-13857627D01*
X6586729Y-14000484D02*
X6624825Y-14000484D01*
X6624825Y-14000484D02*
X6643872Y-13990960D01*
X6643872Y-13990960D02*
X6653396Y-13981436D01*
X6653396Y-13981436D02*
X6672444Y-13952865D01*
X6672444Y-13952865D02*
X6681967Y-13914769D01*
X6681967Y-13914769D02*
X6681967Y-13838579D01*
X6681967Y-13838579D02*
X6672444Y-13819531D01*
X6672444Y-13819531D02*
X6662920Y-13810008D01*
X6662920Y-13810008D02*
X6643872Y-13800484D01*
X6643872Y-13800484D02*
X6605777Y-13800484D01*
X6605777Y-13800484D02*
X6586729Y-13810008D01*
X6586729Y-13810008D02*
X6577206Y-13819531D01*
X6577206Y-13819531D02*
X6567682Y-13838579D01*
X6567682Y-13838579D02*
X6567682Y-13886198D01*
X6567682Y-13886198D02*
X6577206Y-13905246D01*
X6577206Y-13905246D02*
X6586729Y-13914769D01*
X6586729Y-13914769D02*
X6605777Y-13924293D01*
X6605777Y-13924293D02*
X6643872Y-13924293D01*
X6643872Y-13924293D02*
X6662920Y-13914769D01*
X6662920Y-13914769D02*
X6672444Y-13905246D01*
X6672444Y-13905246D02*
X6681967Y-13886198D01*
X6748634Y-13800484D02*
X6881967Y-13800484D01*
X6881967Y-13800484D02*
X6796253Y-14000484D01*
X6948634Y-13800484D02*
X6948634Y-13838579D01*
X7024825Y-13800484D02*
X7024825Y-13838579D01*
X7320063Y-14076674D02*
X7310539Y-14067150D01*
X7310539Y-14067150D02*
X7291491Y-14038579D01*
X7291491Y-14038579D02*
X7281968Y-14019531D01*
X7281968Y-14019531D02*
X7272444Y-13990960D01*
X7272444Y-13990960D02*
X7262920Y-13943341D01*
X7262920Y-13943341D02*
X7262920Y-13905246D01*
X7262920Y-13905246D02*
X7272444Y-13857627D01*
X7272444Y-13857627D02*
X7281968Y-13829055D01*
X7281968Y-13829055D02*
X7291491Y-13810008D01*
X7291491Y-13810008D02*
X7310539Y-13781436D01*
X7310539Y-13781436D02*
X7320063Y-13771912D01*
X7481968Y-13867150D02*
X7481968Y-14000484D01*
X7434348Y-13790960D02*
X7386729Y-13933817D01*
X7386729Y-13933817D02*
X7510539Y-13933817D01*
X7739110Y-14000484D02*
X7739110Y-13800484D01*
X7824825Y-14000484D02*
X7824825Y-13895722D01*
X7824825Y-13895722D02*
X7815301Y-13876674D01*
X7815301Y-13876674D02*
X7796253Y-13867150D01*
X7796253Y-13867150D02*
X7767682Y-13867150D01*
X7767682Y-13867150D02*
X7748634Y-13876674D01*
X7748634Y-13876674D02*
X7739110Y-13886198D01*
X7948634Y-14000484D02*
X7929587Y-13990960D01*
X7929587Y-13990960D02*
X7920063Y-13981436D01*
X7920063Y-13981436D02*
X7910539Y-13962388D01*
X7910539Y-13962388D02*
X7910539Y-13905246D01*
X7910539Y-13905246D02*
X7920063Y-13886198D01*
X7920063Y-13886198D02*
X7929587Y-13876674D01*
X7929587Y-13876674D02*
X7948634Y-13867150D01*
X7948634Y-13867150D02*
X7977206Y-13867150D01*
X7977206Y-13867150D02*
X7996253Y-13876674D01*
X7996253Y-13876674D02*
X8005777Y-13886198D01*
X8005777Y-13886198D02*
X8015301Y-13905246D01*
X8015301Y-13905246D02*
X8015301Y-13962388D01*
X8015301Y-13962388D02*
X8005777Y-13981436D01*
X8005777Y-13981436D02*
X7996253Y-13990960D01*
X7996253Y-13990960D02*
X7977206Y-14000484D01*
X7977206Y-14000484D02*
X7948634Y-14000484D01*
X8129587Y-14000484D02*
X8110539Y-13990960D01*
X8110539Y-13990960D02*
X8101015Y-13971912D01*
X8101015Y-13971912D02*
X8101015Y-13800484D01*
X8281968Y-13990960D02*
X8262920Y-14000484D01*
X8262920Y-14000484D02*
X8224825Y-14000484D01*
X8224825Y-14000484D02*
X8205777Y-13990960D01*
X8205777Y-13990960D02*
X8196253Y-13971912D01*
X8196253Y-13971912D02*
X8196253Y-13895722D01*
X8196253Y-13895722D02*
X8205777Y-13876674D01*
X8205777Y-13876674D02*
X8224825Y-13867150D01*
X8224825Y-13867150D02*
X8262920Y-13867150D01*
X8262920Y-13867150D02*
X8281968Y-13876674D01*
X8281968Y-13876674D02*
X8291491Y-13895722D01*
X8291491Y-13895722D02*
X8291491Y-13914769D01*
X8291491Y-13914769D02*
X8196253Y-13933817D01*
X8367682Y-13990960D02*
X8386730Y-14000484D01*
X8386730Y-14000484D02*
X8424825Y-14000484D01*
X8424825Y-14000484D02*
X8443873Y-13990960D01*
X8443873Y-13990960D02*
X8453396Y-13971912D01*
X8453396Y-13971912D02*
X8453396Y-13962388D01*
X8453396Y-13962388D02*
X8443873Y-13943341D01*
X8443873Y-13943341D02*
X8424825Y-13933817D01*
X8424825Y-13933817D02*
X8396253Y-13933817D01*
X8396253Y-13933817D02*
X8377206Y-13924293D01*
X8377206Y-13924293D02*
X8367682Y-13905246D01*
X8367682Y-13905246D02*
X8367682Y-13895722D01*
X8367682Y-13895722D02*
X8377206Y-13876674D01*
X8377206Y-13876674D02*
X8396253Y-13867150D01*
X8396253Y-13867150D02*
X8424825Y-13867150D01*
X8424825Y-13867150D02*
X8443873Y-13876674D01*
X8520063Y-14076674D02*
X8529587Y-14067150D01*
X8529587Y-14067150D02*
X8548634Y-14038579D01*
X8548634Y-14038579D02*
X8558158Y-14019531D01*
X8558158Y-14019531D02*
X8567682Y-13990960D01*
X8567682Y-13990960D02*
X8577206Y-13943341D01*
X8577206Y-13943341D02*
X8577206Y-13905246D01*
X8577206Y-13905246D02*
X8567682Y-13857627D01*
X8567682Y-13857627D02*
X8558158Y-13829055D01*
X8558158Y-13829055D02*
X8548634Y-13810008D01*
X8548634Y-13810008D02*
X8529587Y-13781436D01*
X8529587Y-13781436D02*
X8520063Y-13771912D01*
D10*
X3710000Y-14138000D02*
X3710000Y-14208000D01*
X3675000Y-14173000D02*
X3745000Y-14173000D01*
D11*
X4043872Y-14064484D02*
X4062920Y-14064484D01*
X4062920Y-14064484D02*
X4081967Y-14074008D01*
X4081967Y-14074008D02*
X4091491Y-14083531D01*
X4091491Y-14083531D02*
X4101015Y-14102579D01*
X4101015Y-14102579D02*
X4110539Y-14140674D01*
X4110539Y-14140674D02*
X4110539Y-14188293D01*
X4110539Y-14188293D02*
X4101015Y-14226388D01*
X4101015Y-14226388D02*
X4091491Y-14245436D01*
X4091491Y-14245436D02*
X4081967Y-14254960D01*
X4081967Y-14254960D02*
X4062920Y-14264484D01*
X4062920Y-14264484D02*
X4043872Y-14264484D01*
X4043872Y-14264484D02*
X4024824Y-14254960D01*
X4024824Y-14254960D02*
X4015301Y-14245436D01*
X4015301Y-14245436D02*
X4005777Y-14226388D01*
X4005777Y-14226388D02*
X3996253Y-14188293D01*
X3996253Y-14188293D02*
X3996253Y-14140674D01*
X3996253Y-14140674D02*
X4005777Y-14102579D01*
X4005777Y-14102579D02*
X4015301Y-14083531D01*
X4015301Y-14083531D02*
X4024824Y-14074008D01*
X4024824Y-14074008D02*
X4043872Y-14064484D01*
X4196253Y-14245436D02*
X4205777Y-14254960D01*
X4205777Y-14254960D02*
X4196253Y-14264484D01*
X4196253Y-14264484D02*
X4186729Y-14254960D01*
X4186729Y-14254960D02*
X4196253Y-14245436D01*
X4196253Y-14245436D02*
X4196253Y-14264484D01*
X4272444Y-14064484D02*
X4405777Y-14064484D01*
X4405777Y-14064484D02*
X4320063Y-14264484D01*
X4520063Y-14064484D02*
X4539110Y-14064484D01*
X4539110Y-14064484D02*
X4558158Y-14074008D01*
X4558158Y-14074008D02*
X4567682Y-14083531D01*
X4567682Y-14083531D02*
X4577205Y-14102579D01*
X4577205Y-14102579D02*
X4586729Y-14140674D01*
X4586729Y-14140674D02*
X4586729Y-14188293D01*
X4586729Y-14188293D02*
X4577205Y-14226388D01*
X4577205Y-14226388D02*
X4567682Y-14245436D01*
X4567682Y-14245436D02*
X4558158Y-14254960D01*
X4558158Y-14254960D02*
X4539110Y-14264484D01*
X4539110Y-14264484D02*
X4520063Y-14264484D01*
X4520063Y-14264484D02*
X4501015Y-14254960D01*
X4501015Y-14254960D02*
X4491491Y-14245436D01*
X4491491Y-14245436D02*
X4481967Y-14226388D01*
X4481967Y-14226388D02*
X4472444Y-14188293D01*
X4472444Y-14188293D02*
X4472444Y-14140674D01*
X4472444Y-14140674D02*
X4481967Y-14102579D01*
X4481967Y-14102579D02*
X4491491Y-14083531D01*
X4491491Y-14083531D02*
X4501015Y-14074008D01*
X4501015Y-14074008D02*
X4520063Y-14064484D01*
X4710539Y-14064484D02*
X4729586Y-14064484D01*
X4729586Y-14064484D02*
X4748634Y-14074008D01*
X4748634Y-14074008D02*
X4758158Y-14083531D01*
X4758158Y-14083531D02*
X4767682Y-14102579D01*
X4767682Y-14102579D02*
X4777205Y-14140674D01*
X4777205Y-14140674D02*
X4777205Y-14188293D01*
X4777205Y-14188293D02*
X4767682Y-14226388D01*
X4767682Y-14226388D02*
X4758158Y-14245436D01*
X4758158Y-14245436D02*
X4748634Y-14254960D01*
X4748634Y-14254960D02*
X4729586Y-14264484D01*
X4729586Y-14264484D02*
X4710539Y-14264484D01*
X4710539Y-14264484D02*
X4691491Y-14254960D01*
X4691491Y-14254960D02*
X4681967Y-14245436D01*
X4681967Y-14245436D02*
X4672444Y-14226388D01*
X4672444Y-14226388D02*
X4662920Y-14188293D01*
X4662920Y-14188293D02*
X4662920Y-14140674D01*
X4662920Y-14140674D02*
X4672444Y-14102579D01*
X4672444Y-14102579D02*
X4681967Y-14083531D01*
X4681967Y-14083531D02*
X4691491Y-14074008D01*
X4691491Y-14074008D02*
X4710539Y-14064484D01*
X4862920Y-14264484D02*
X4862920Y-14131150D01*
X4862920Y-14150198D02*
X4872444Y-14140674D01*
X4872444Y-14140674D02*
X4891491Y-14131150D01*
X4891491Y-14131150D02*
X4920063Y-14131150D01*
X4920063Y-14131150D02*
X4939110Y-14140674D01*
X4939110Y-14140674D02*
X4948634Y-14159722D01*
X4948634Y-14159722D02*
X4948634Y-14264484D01*
X4948634Y-14159722D02*
X4958158Y-14140674D01*
X4958158Y-14140674D02*
X4977205Y-14131150D01*
X4977205Y-14131150D02*
X5005777Y-14131150D01*
X5005777Y-14131150D02*
X5024825Y-14140674D01*
X5024825Y-14140674D02*
X5034348Y-14159722D01*
X5034348Y-14159722D02*
X5034348Y-14264484D01*
X5129586Y-14264484D02*
X5129586Y-14131150D01*
X5129586Y-14150198D02*
X5139110Y-14140674D01*
X5139110Y-14140674D02*
X5158158Y-14131150D01*
X5158158Y-14131150D02*
X5186729Y-14131150D01*
X5186729Y-14131150D02*
X5205777Y-14140674D01*
X5205777Y-14140674D02*
X5215301Y-14159722D01*
X5215301Y-14159722D02*
X5215301Y-14264484D01*
X5215301Y-14159722D02*
X5224825Y-14140674D01*
X5224825Y-14140674D02*
X5243872Y-14131150D01*
X5243872Y-14131150D02*
X5272444Y-14131150D01*
X5272444Y-14131150D02*
X5291491Y-14140674D01*
X5291491Y-14140674D02*
X5301015Y-14159722D01*
X5301015Y-14159722D02*
X5301015Y-14264484D01*
X5691491Y-14054960D02*
X5520063Y-14312103D01*
X5948634Y-14064484D02*
X5967682Y-14064484D01*
X5967682Y-14064484D02*
X5986729Y-14074008D01*
X5986729Y-14074008D02*
X5996253Y-14083531D01*
X5996253Y-14083531D02*
X6005777Y-14102579D01*
X6005777Y-14102579D02*
X6015301Y-14140674D01*
X6015301Y-14140674D02*
X6015301Y-14188293D01*
X6015301Y-14188293D02*
X6005777Y-14226388D01*
X6005777Y-14226388D02*
X5996253Y-14245436D01*
X5996253Y-14245436D02*
X5986729Y-14254960D01*
X5986729Y-14254960D02*
X5967682Y-14264484D01*
X5967682Y-14264484D02*
X5948634Y-14264484D01*
X5948634Y-14264484D02*
X5929586Y-14254960D01*
X5929586Y-14254960D02*
X5920063Y-14245436D01*
X5920063Y-14245436D02*
X5910539Y-14226388D01*
X5910539Y-14226388D02*
X5901015Y-14188293D01*
X5901015Y-14188293D02*
X5901015Y-14140674D01*
X5901015Y-14140674D02*
X5910539Y-14102579D01*
X5910539Y-14102579D02*
X5920063Y-14083531D01*
X5920063Y-14083531D02*
X5929586Y-14074008D01*
X5929586Y-14074008D02*
X5948634Y-14064484D01*
X6101015Y-14245436D02*
X6110539Y-14254960D01*
X6110539Y-14254960D02*
X6101015Y-14264484D01*
X6101015Y-14264484D02*
X6091491Y-14254960D01*
X6091491Y-14254960D02*
X6101015Y-14245436D01*
X6101015Y-14245436D02*
X6101015Y-14264484D01*
X6234348Y-14064484D02*
X6253396Y-14064484D01*
X6253396Y-14064484D02*
X6272444Y-14074008D01*
X6272444Y-14074008D02*
X6281967Y-14083531D01*
X6281967Y-14083531D02*
X6291491Y-14102579D01*
X6291491Y-14102579D02*
X6301015Y-14140674D01*
X6301015Y-14140674D02*
X6301015Y-14188293D01*
X6301015Y-14188293D02*
X6291491Y-14226388D01*
X6291491Y-14226388D02*
X6281967Y-14245436D01*
X6281967Y-14245436D02*
X6272444Y-14254960D01*
X6272444Y-14254960D02*
X6253396Y-14264484D01*
X6253396Y-14264484D02*
X6234348Y-14264484D01*
X6234348Y-14264484D02*
X6215301Y-14254960D01*
X6215301Y-14254960D02*
X6205777Y-14245436D01*
X6205777Y-14245436D02*
X6196253Y-14226388D01*
X6196253Y-14226388D02*
X6186729Y-14188293D01*
X6186729Y-14188293D02*
X6186729Y-14140674D01*
X6186729Y-14140674D02*
X6196253Y-14102579D01*
X6196253Y-14102579D02*
X6205777Y-14083531D01*
X6205777Y-14083531D02*
X6215301Y-14074008D01*
X6215301Y-14074008D02*
X6234348Y-14064484D01*
X6377206Y-14083531D02*
X6386729Y-14074008D01*
X6386729Y-14074008D02*
X6405777Y-14064484D01*
X6405777Y-14064484D02*
X6453396Y-14064484D01*
X6453396Y-14064484D02*
X6472444Y-14074008D01*
X6472444Y-14074008D02*
X6481967Y-14083531D01*
X6481967Y-14083531D02*
X6491491Y-14102579D01*
X6491491Y-14102579D02*
X6491491Y-14121627D01*
X6491491Y-14121627D02*
X6481967Y-14150198D01*
X6481967Y-14150198D02*
X6367682Y-14264484D01*
X6367682Y-14264484D02*
X6491491Y-14264484D01*
X6558158Y-14064484D02*
X6691491Y-14064484D01*
X6691491Y-14064484D02*
X6605777Y-14264484D01*
X6853396Y-14064484D02*
X6815301Y-14064484D01*
X6815301Y-14064484D02*
X6796253Y-14074008D01*
X6796253Y-14074008D02*
X6786729Y-14083531D01*
X6786729Y-14083531D02*
X6767682Y-14112103D01*
X6767682Y-14112103D02*
X6758158Y-14150198D01*
X6758158Y-14150198D02*
X6758158Y-14226388D01*
X6758158Y-14226388D02*
X6767682Y-14245436D01*
X6767682Y-14245436D02*
X6777206Y-14254960D01*
X6777206Y-14254960D02*
X6796253Y-14264484D01*
X6796253Y-14264484D02*
X6834348Y-14264484D01*
X6834348Y-14264484D02*
X6853396Y-14254960D01*
X6853396Y-14254960D02*
X6862920Y-14245436D01*
X6862920Y-14245436D02*
X6872444Y-14226388D01*
X6872444Y-14226388D02*
X6872444Y-14178769D01*
X6872444Y-14178769D02*
X6862920Y-14159722D01*
X6862920Y-14159722D02*
X6853396Y-14150198D01*
X6853396Y-14150198D02*
X6834348Y-14140674D01*
X6834348Y-14140674D02*
X6796253Y-14140674D01*
X6796253Y-14140674D02*
X6777206Y-14150198D01*
X6777206Y-14150198D02*
X6767682Y-14159722D01*
X6767682Y-14159722D02*
X6758158Y-14178769D01*
X6948634Y-14064484D02*
X6948634Y-14102579D01*
X7024825Y-14064484D02*
X7024825Y-14102579D01*
X7320063Y-14340674D02*
X7310539Y-14331150D01*
X7310539Y-14331150D02*
X7291491Y-14302579D01*
X7291491Y-14302579D02*
X7281968Y-14283531D01*
X7281968Y-14283531D02*
X7272444Y-14254960D01*
X7272444Y-14254960D02*
X7262920Y-14207341D01*
X7262920Y-14207341D02*
X7262920Y-14169246D01*
X7262920Y-14169246D02*
X7272444Y-14121627D01*
X7272444Y-14121627D02*
X7281968Y-14093055D01*
X7281968Y-14093055D02*
X7291491Y-14074008D01*
X7291491Y-14074008D02*
X7310539Y-14045436D01*
X7310539Y-14045436D02*
X7320063Y-14035912D01*
X7491491Y-14064484D02*
X7396253Y-14064484D01*
X7396253Y-14064484D02*
X7386729Y-14159722D01*
X7386729Y-14159722D02*
X7396253Y-14150198D01*
X7396253Y-14150198D02*
X7415301Y-14140674D01*
X7415301Y-14140674D02*
X7462920Y-14140674D01*
X7462920Y-14140674D02*
X7481968Y-14150198D01*
X7481968Y-14150198D02*
X7491491Y-14159722D01*
X7491491Y-14159722D02*
X7501015Y-14178769D01*
X7501015Y-14178769D02*
X7501015Y-14226388D01*
X7501015Y-14226388D02*
X7491491Y-14245436D01*
X7491491Y-14245436D02*
X7481968Y-14254960D01*
X7481968Y-14254960D02*
X7462920Y-14264484D01*
X7462920Y-14264484D02*
X7415301Y-14264484D01*
X7415301Y-14264484D02*
X7396253Y-14254960D01*
X7396253Y-14254960D02*
X7386729Y-14245436D01*
X7672444Y-14064484D02*
X7634348Y-14064484D01*
X7634348Y-14064484D02*
X7615301Y-14074008D01*
X7615301Y-14074008D02*
X7605777Y-14083531D01*
X7605777Y-14083531D02*
X7586729Y-14112103D01*
X7586729Y-14112103D02*
X7577206Y-14150198D01*
X7577206Y-14150198D02*
X7577206Y-14226388D01*
X7577206Y-14226388D02*
X7586729Y-14245436D01*
X7586729Y-14245436D02*
X7596253Y-14254960D01*
X7596253Y-14254960D02*
X7615301Y-14264484D01*
X7615301Y-14264484D02*
X7653396Y-14264484D01*
X7653396Y-14264484D02*
X7672444Y-14254960D01*
X7672444Y-14254960D02*
X7681968Y-14245436D01*
X7681968Y-14245436D02*
X7691491Y-14226388D01*
X7691491Y-14226388D02*
X7691491Y-14178769D01*
X7691491Y-14178769D02*
X7681968Y-14159722D01*
X7681968Y-14159722D02*
X7672444Y-14150198D01*
X7672444Y-14150198D02*
X7653396Y-14140674D01*
X7653396Y-14140674D02*
X7615301Y-14140674D01*
X7615301Y-14140674D02*
X7596253Y-14150198D01*
X7596253Y-14150198D02*
X7586729Y-14159722D01*
X7586729Y-14159722D02*
X7577206Y-14178769D01*
X7929587Y-14264484D02*
X7929587Y-14064484D01*
X8015301Y-14264484D02*
X8015301Y-14159722D01*
X8015301Y-14159722D02*
X8005777Y-14140674D01*
X8005777Y-14140674D02*
X7986730Y-14131150D01*
X7986730Y-14131150D02*
X7958158Y-14131150D01*
X7958158Y-14131150D02*
X7939110Y-14140674D01*
X7939110Y-14140674D02*
X7929587Y-14150198D01*
X8139110Y-14264484D02*
X8120063Y-14254960D01*
X8120063Y-14254960D02*
X8110539Y-14245436D01*
X8110539Y-14245436D02*
X8101015Y-14226388D01*
X8101015Y-14226388D02*
X8101015Y-14169246D01*
X8101015Y-14169246D02*
X8110539Y-14150198D01*
X8110539Y-14150198D02*
X8120063Y-14140674D01*
X8120063Y-14140674D02*
X8139110Y-14131150D01*
X8139110Y-14131150D02*
X8167682Y-14131150D01*
X8167682Y-14131150D02*
X8186730Y-14140674D01*
X8186730Y-14140674D02*
X8196253Y-14150198D01*
X8196253Y-14150198D02*
X8205777Y-14169246D01*
X8205777Y-14169246D02*
X8205777Y-14226388D01*
X8205777Y-14226388D02*
X8196253Y-14245436D01*
X8196253Y-14245436D02*
X8186730Y-14254960D01*
X8186730Y-14254960D02*
X8167682Y-14264484D01*
X8167682Y-14264484D02*
X8139110Y-14264484D01*
X8320063Y-14264484D02*
X8301015Y-14254960D01*
X8301015Y-14254960D02*
X8291491Y-14235912D01*
X8291491Y-14235912D02*
X8291491Y-14064484D01*
X8472444Y-14254960D02*
X8453396Y-14264484D01*
X8453396Y-14264484D02*
X8415301Y-14264484D01*
X8415301Y-14264484D02*
X8396253Y-14254960D01*
X8396253Y-14254960D02*
X8386730Y-14235912D01*
X8386730Y-14235912D02*
X8386730Y-14159722D01*
X8386730Y-14159722D02*
X8396253Y-14140674D01*
X8396253Y-14140674D02*
X8415301Y-14131150D01*
X8415301Y-14131150D02*
X8453396Y-14131150D01*
X8453396Y-14131150D02*
X8472444Y-14140674D01*
X8472444Y-14140674D02*
X8481968Y-14159722D01*
X8481968Y-14159722D02*
X8481968Y-14178769D01*
X8481968Y-14178769D02*
X8386730Y-14197817D01*
X8558158Y-14254960D02*
X8577206Y-14264484D01*
X8577206Y-14264484D02*
X8615301Y-14264484D01*
X8615301Y-14264484D02*
X8634349Y-14254960D01*
X8634349Y-14254960D02*
X8643873Y-14235912D01*
X8643873Y-14235912D02*
X8643873Y-14226388D01*
X8643873Y-14226388D02*
X8634349Y-14207341D01*
X8634349Y-14207341D02*
X8615301Y-14197817D01*
X8615301Y-14197817D02*
X8586730Y-14197817D01*
X8586730Y-14197817D02*
X8567682Y-14188293D01*
X8567682Y-14188293D02*
X8558158Y-14169246D01*
X8558158Y-14169246D02*
X8558158Y-14159722D01*
X8558158Y-14159722D02*
X8567682Y-14140674D01*
X8567682Y-14140674D02*
X8586730Y-14131150D01*
X8586730Y-14131150D02*
X8615301Y-14131150D01*
X8615301Y-14131150D02*
X8634349Y-14140674D01*
X8710539Y-14340674D02*
X8720063Y-14331150D01*
X8720063Y-14331150D02*
X8739111Y-14302579D01*
X8739111Y-14302579D02*
X8748634Y-14283531D01*
X8748634Y-14283531D02*
X8758158Y-14254960D01*
X8758158Y-14254960D02*
X8767682Y-14207341D01*
X8767682Y-14207341D02*
X8767682Y-14169246D01*
X8767682Y-14169246D02*
X8758158Y-14121627D01*
X8758158Y-14121627D02*
X8748634Y-14093055D01*
X8748634Y-14093055D02*
X8739111Y-14074008D01*
X8739111Y-14074008D02*
X8720063Y-14045436D01*
X8720063Y-14045436D02*
X8710539Y-14035912D01*
D10*
X3733284Y-14465284D02*
X3733284Y-14408715D01*
X3676715Y-14408715D01*
X3676715Y-14465284D01*
X3733284Y-14465284D01*
D11*
X4043872Y-14328484D02*
X4062920Y-14328484D01*
X4062920Y-14328484D02*
X4081967Y-14338008D01*
X4081967Y-14338008D02*
X4091491Y-14347531D01*
X4091491Y-14347531D02*
X4101015Y-14366579D01*
X4101015Y-14366579D02*
X4110539Y-14404674D01*
X4110539Y-14404674D02*
X4110539Y-14452293D01*
X4110539Y-14452293D02*
X4101015Y-14490388D01*
X4101015Y-14490388D02*
X4091491Y-14509436D01*
X4091491Y-14509436D02*
X4081967Y-14518960D01*
X4081967Y-14518960D02*
X4062920Y-14528484D01*
X4062920Y-14528484D02*
X4043872Y-14528484D01*
X4043872Y-14528484D02*
X4024824Y-14518960D01*
X4024824Y-14518960D02*
X4015301Y-14509436D01*
X4015301Y-14509436D02*
X4005777Y-14490388D01*
X4005777Y-14490388D02*
X3996253Y-14452293D01*
X3996253Y-14452293D02*
X3996253Y-14404674D01*
X3996253Y-14404674D02*
X4005777Y-14366579D01*
X4005777Y-14366579D02*
X4015301Y-14347531D01*
X4015301Y-14347531D02*
X4024824Y-14338008D01*
X4024824Y-14338008D02*
X4043872Y-14328484D01*
X4196253Y-14509436D02*
X4205777Y-14518960D01*
X4205777Y-14518960D02*
X4196253Y-14528484D01*
X4196253Y-14528484D02*
X4186729Y-14518960D01*
X4186729Y-14518960D02*
X4196253Y-14509436D01*
X4196253Y-14509436D02*
X4196253Y-14528484D01*
X4320063Y-14414198D02*
X4301015Y-14404674D01*
X4301015Y-14404674D02*
X4291491Y-14395150D01*
X4291491Y-14395150D02*
X4281967Y-14376103D01*
X4281967Y-14376103D02*
X4281967Y-14366579D01*
X4281967Y-14366579D02*
X4291491Y-14347531D01*
X4291491Y-14347531D02*
X4301015Y-14338008D01*
X4301015Y-14338008D02*
X4320063Y-14328484D01*
X4320063Y-14328484D02*
X4358158Y-14328484D01*
X4358158Y-14328484D02*
X4377205Y-14338008D01*
X4377205Y-14338008D02*
X4386729Y-14347531D01*
X4386729Y-14347531D02*
X4396253Y-14366579D01*
X4396253Y-14366579D02*
X4396253Y-14376103D01*
X4396253Y-14376103D02*
X4386729Y-14395150D01*
X4386729Y-14395150D02*
X4377205Y-14404674D01*
X4377205Y-14404674D02*
X4358158Y-14414198D01*
X4358158Y-14414198D02*
X4320063Y-14414198D01*
X4320063Y-14414198D02*
X4301015Y-14423722D01*
X4301015Y-14423722D02*
X4291491Y-14433246D01*
X4291491Y-14433246D02*
X4281967Y-14452293D01*
X4281967Y-14452293D02*
X4281967Y-14490388D01*
X4281967Y-14490388D02*
X4291491Y-14509436D01*
X4291491Y-14509436D02*
X4301015Y-14518960D01*
X4301015Y-14518960D02*
X4320063Y-14528484D01*
X4320063Y-14528484D02*
X4358158Y-14528484D01*
X4358158Y-14528484D02*
X4377205Y-14518960D01*
X4377205Y-14518960D02*
X4386729Y-14509436D01*
X4386729Y-14509436D02*
X4396253Y-14490388D01*
X4396253Y-14490388D02*
X4396253Y-14452293D01*
X4396253Y-14452293D02*
X4386729Y-14433246D01*
X4386729Y-14433246D02*
X4377205Y-14423722D01*
X4377205Y-14423722D02*
X4358158Y-14414198D01*
X4520063Y-14328484D02*
X4539110Y-14328484D01*
X4539110Y-14328484D02*
X4558158Y-14338008D01*
X4558158Y-14338008D02*
X4567682Y-14347531D01*
X4567682Y-14347531D02*
X4577205Y-14366579D01*
X4577205Y-14366579D02*
X4586729Y-14404674D01*
X4586729Y-14404674D02*
X4586729Y-14452293D01*
X4586729Y-14452293D02*
X4577205Y-14490388D01*
X4577205Y-14490388D02*
X4567682Y-14509436D01*
X4567682Y-14509436D02*
X4558158Y-14518960D01*
X4558158Y-14518960D02*
X4539110Y-14528484D01*
X4539110Y-14528484D02*
X4520063Y-14528484D01*
X4520063Y-14528484D02*
X4501015Y-14518960D01*
X4501015Y-14518960D02*
X4491491Y-14509436D01*
X4491491Y-14509436D02*
X4481967Y-14490388D01*
X4481967Y-14490388D02*
X4472444Y-14452293D01*
X4472444Y-14452293D02*
X4472444Y-14404674D01*
X4472444Y-14404674D02*
X4481967Y-14366579D01*
X4481967Y-14366579D02*
X4491491Y-14347531D01*
X4491491Y-14347531D02*
X4501015Y-14338008D01*
X4501015Y-14338008D02*
X4520063Y-14328484D01*
X4710539Y-14328484D02*
X4729586Y-14328484D01*
X4729586Y-14328484D02*
X4748634Y-14338008D01*
X4748634Y-14338008D02*
X4758158Y-14347531D01*
X4758158Y-14347531D02*
X4767682Y-14366579D01*
X4767682Y-14366579D02*
X4777205Y-14404674D01*
X4777205Y-14404674D02*
X4777205Y-14452293D01*
X4777205Y-14452293D02*
X4767682Y-14490388D01*
X4767682Y-14490388D02*
X4758158Y-14509436D01*
X4758158Y-14509436D02*
X4748634Y-14518960D01*
X4748634Y-14518960D02*
X4729586Y-14528484D01*
X4729586Y-14528484D02*
X4710539Y-14528484D01*
X4710539Y-14528484D02*
X4691491Y-14518960D01*
X4691491Y-14518960D02*
X4681967Y-14509436D01*
X4681967Y-14509436D02*
X4672444Y-14490388D01*
X4672444Y-14490388D02*
X4662920Y-14452293D01*
X4662920Y-14452293D02*
X4662920Y-14404674D01*
X4662920Y-14404674D02*
X4672444Y-14366579D01*
X4672444Y-14366579D02*
X4681967Y-14347531D01*
X4681967Y-14347531D02*
X4691491Y-14338008D01*
X4691491Y-14338008D02*
X4710539Y-14328484D01*
X4862920Y-14528484D02*
X4862920Y-14395150D01*
X4862920Y-14414198D02*
X4872444Y-14404674D01*
X4872444Y-14404674D02*
X4891491Y-14395150D01*
X4891491Y-14395150D02*
X4920063Y-14395150D01*
X4920063Y-14395150D02*
X4939110Y-14404674D01*
X4939110Y-14404674D02*
X4948634Y-14423722D01*
X4948634Y-14423722D02*
X4948634Y-14528484D01*
X4948634Y-14423722D02*
X4958158Y-14404674D01*
X4958158Y-14404674D02*
X4977205Y-14395150D01*
X4977205Y-14395150D02*
X5005777Y-14395150D01*
X5005777Y-14395150D02*
X5024825Y-14404674D01*
X5024825Y-14404674D02*
X5034348Y-14423722D01*
X5034348Y-14423722D02*
X5034348Y-14528484D01*
X5129586Y-14528484D02*
X5129586Y-14395150D01*
X5129586Y-14414198D02*
X5139110Y-14404674D01*
X5139110Y-14404674D02*
X5158158Y-14395150D01*
X5158158Y-14395150D02*
X5186729Y-14395150D01*
X5186729Y-14395150D02*
X5205777Y-14404674D01*
X5205777Y-14404674D02*
X5215301Y-14423722D01*
X5215301Y-14423722D02*
X5215301Y-14528484D01*
X5215301Y-14423722D02*
X5224825Y-14404674D01*
X5224825Y-14404674D02*
X5243872Y-14395150D01*
X5243872Y-14395150D02*
X5272444Y-14395150D01*
X5272444Y-14395150D02*
X5291491Y-14404674D01*
X5291491Y-14404674D02*
X5301015Y-14423722D01*
X5301015Y-14423722D02*
X5301015Y-14528484D01*
X5691491Y-14318960D02*
X5520063Y-14576103D01*
X5948634Y-14328484D02*
X5967682Y-14328484D01*
X5967682Y-14328484D02*
X5986729Y-14338008D01*
X5986729Y-14338008D02*
X5996253Y-14347531D01*
X5996253Y-14347531D02*
X6005777Y-14366579D01*
X6005777Y-14366579D02*
X6015301Y-14404674D01*
X6015301Y-14404674D02*
X6015301Y-14452293D01*
X6015301Y-14452293D02*
X6005777Y-14490388D01*
X6005777Y-14490388D02*
X5996253Y-14509436D01*
X5996253Y-14509436D02*
X5986729Y-14518960D01*
X5986729Y-14518960D02*
X5967682Y-14528484D01*
X5967682Y-14528484D02*
X5948634Y-14528484D01*
X5948634Y-14528484D02*
X5929586Y-14518960D01*
X5929586Y-14518960D02*
X5920063Y-14509436D01*
X5920063Y-14509436D02*
X5910539Y-14490388D01*
X5910539Y-14490388D02*
X5901015Y-14452293D01*
X5901015Y-14452293D02*
X5901015Y-14404674D01*
X5901015Y-14404674D02*
X5910539Y-14366579D01*
X5910539Y-14366579D02*
X5920063Y-14347531D01*
X5920063Y-14347531D02*
X5929586Y-14338008D01*
X5929586Y-14338008D02*
X5948634Y-14328484D01*
X6101015Y-14509436D02*
X6110539Y-14518960D01*
X6110539Y-14518960D02*
X6101015Y-14528484D01*
X6101015Y-14528484D02*
X6091491Y-14518960D01*
X6091491Y-14518960D02*
X6101015Y-14509436D01*
X6101015Y-14509436D02*
X6101015Y-14528484D01*
X6234348Y-14328484D02*
X6253396Y-14328484D01*
X6253396Y-14328484D02*
X6272444Y-14338008D01*
X6272444Y-14338008D02*
X6281967Y-14347531D01*
X6281967Y-14347531D02*
X6291491Y-14366579D01*
X6291491Y-14366579D02*
X6301015Y-14404674D01*
X6301015Y-14404674D02*
X6301015Y-14452293D01*
X6301015Y-14452293D02*
X6291491Y-14490388D01*
X6291491Y-14490388D02*
X6281967Y-14509436D01*
X6281967Y-14509436D02*
X6272444Y-14518960D01*
X6272444Y-14518960D02*
X6253396Y-14528484D01*
X6253396Y-14528484D02*
X6234348Y-14528484D01*
X6234348Y-14528484D02*
X6215301Y-14518960D01*
X6215301Y-14518960D02*
X6205777Y-14509436D01*
X6205777Y-14509436D02*
X6196253Y-14490388D01*
X6196253Y-14490388D02*
X6186729Y-14452293D01*
X6186729Y-14452293D02*
X6186729Y-14404674D01*
X6186729Y-14404674D02*
X6196253Y-14366579D01*
X6196253Y-14366579D02*
X6205777Y-14347531D01*
X6205777Y-14347531D02*
X6215301Y-14338008D01*
X6215301Y-14338008D02*
X6234348Y-14328484D01*
X6367682Y-14328484D02*
X6491491Y-14328484D01*
X6491491Y-14328484D02*
X6424825Y-14404674D01*
X6424825Y-14404674D02*
X6453396Y-14404674D01*
X6453396Y-14404674D02*
X6472444Y-14414198D01*
X6472444Y-14414198D02*
X6481967Y-14423722D01*
X6481967Y-14423722D02*
X6491491Y-14442769D01*
X6491491Y-14442769D02*
X6491491Y-14490388D01*
X6491491Y-14490388D02*
X6481967Y-14509436D01*
X6481967Y-14509436D02*
X6472444Y-14518960D01*
X6472444Y-14518960D02*
X6453396Y-14528484D01*
X6453396Y-14528484D02*
X6396253Y-14528484D01*
X6396253Y-14528484D02*
X6377206Y-14518960D01*
X6377206Y-14518960D02*
X6367682Y-14509436D01*
X6681967Y-14528484D02*
X6567682Y-14528484D01*
X6624825Y-14528484D02*
X6624825Y-14328484D01*
X6624825Y-14328484D02*
X6605777Y-14357055D01*
X6605777Y-14357055D02*
X6586729Y-14376103D01*
X6586729Y-14376103D02*
X6567682Y-14385627D01*
X6862920Y-14328484D02*
X6767682Y-14328484D01*
X6767682Y-14328484D02*
X6758158Y-14423722D01*
X6758158Y-14423722D02*
X6767682Y-14414198D01*
X6767682Y-14414198D02*
X6786729Y-14404674D01*
X6786729Y-14404674D02*
X6834348Y-14404674D01*
X6834348Y-14404674D02*
X6853396Y-14414198D01*
X6853396Y-14414198D02*
X6862920Y-14423722D01*
X6862920Y-14423722D02*
X6872444Y-14442769D01*
X6872444Y-14442769D02*
X6872444Y-14490388D01*
X6872444Y-14490388D02*
X6862920Y-14509436D01*
X6862920Y-14509436D02*
X6853396Y-14518960D01*
X6853396Y-14518960D02*
X6834348Y-14528484D01*
X6834348Y-14528484D02*
X6786729Y-14528484D01*
X6786729Y-14528484D02*
X6767682Y-14518960D01*
X6767682Y-14518960D02*
X6758158Y-14509436D01*
X6948634Y-14328484D02*
X6948634Y-14366579D01*
X7024825Y-14328484D02*
X7024825Y-14366579D01*
X7320063Y-14604674D02*
X7310539Y-14595150D01*
X7310539Y-14595150D02*
X7291491Y-14566579D01*
X7291491Y-14566579D02*
X7281968Y-14547531D01*
X7281968Y-14547531D02*
X7272444Y-14518960D01*
X7272444Y-14518960D02*
X7262920Y-14471341D01*
X7262920Y-14471341D02*
X7262920Y-14433246D01*
X7262920Y-14433246D02*
X7272444Y-14385627D01*
X7272444Y-14385627D02*
X7281968Y-14357055D01*
X7281968Y-14357055D02*
X7291491Y-14338008D01*
X7291491Y-14338008D02*
X7310539Y-14309436D01*
X7310539Y-14309436D02*
X7320063Y-14299912D01*
X7481968Y-14395150D02*
X7481968Y-14528484D01*
X7434348Y-14318960D02*
X7386729Y-14461817D01*
X7386729Y-14461817D02*
X7510539Y-14461817D01*
X7615301Y-14414198D02*
X7596253Y-14404674D01*
X7596253Y-14404674D02*
X7586729Y-14395150D01*
X7586729Y-14395150D02*
X7577206Y-14376103D01*
X7577206Y-14376103D02*
X7577206Y-14366579D01*
X7577206Y-14366579D02*
X7586729Y-14347531D01*
X7586729Y-14347531D02*
X7596253Y-14338008D01*
X7596253Y-14338008D02*
X7615301Y-14328484D01*
X7615301Y-14328484D02*
X7653396Y-14328484D01*
X7653396Y-14328484D02*
X7672444Y-14338008D01*
X7672444Y-14338008D02*
X7681968Y-14347531D01*
X7681968Y-14347531D02*
X7691491Y-14366579D01*
X7691491Y-14366579D02*
X7691491Y-14376103D01*
X7691491Y-14376103D02*
X7681968Y-14395150D01*
X7681968Y-14395150D02*
X7672444Y-14404674D01*
X7672444Y-14404674D02*
X7653396Y-14414198D01*
X7653396Y-14414198D02*
X7615301Y-14414198D01*
X7615301Y-14414198D02*
X7596253Y-14423722D01*
X7596253Y-14423722D02*
X7586729Y-14433246D01*
X7586729Y-14433246D02*
X7577206Y-14452293D01*
X7577206Y-14452293D02*
X7577206Y-14490388D01*
X7577206Y-14490388D02*
X7586729Y-14509436D01*
X7586729Y-14509436D02*
X7596253Y-14518960D01*
X7596253Y-14518960D02*
X7615301Y-14528484D01*
X7615301Y-14528484D02*
X7653396Y-14528484D01*
X7653396Y-14528484D02*
X7672444Y-14518960D01*
X7672444Y-14518960D02*
X7681968Y-14509436D01*
X7681968Y-14509436D02*
X7691491Y-14490388D01*
X7691491Y-14490388D02*
X7691491Y-14452293D01*
X7691491Y-14452293D02*
X7681968Y-14433246D01*
X7681968Y-14433246D02*
X7672444Y-14423722D01*
X7672444Y-14423722D02*
X7653396Y-14414198D01*
X7929587Y-14528484D02*
X7929587Y-14328484D01*
X8015301Y-14528484D02*
X8015301Y-14423722D01*
X8015301Y-14423722D02*
X8005777Y-14404674D01*
X8005777Y-14404674D02*
X7986730Y-14395150D01*
X7986730Y-14395150D02*
X7958158Y-14395150D01*
X7958158Y-14395150D02*
X7939110Y-14404674D01*
X7939110Y-14404674D02*
X7929587Y-14414198D01*
X8139110Y-14528484D02*
X8120063Y-14518960D01*
X8120063Y-14518960D02*
X8110539Y-14509436D01*
X8110539Y-14509436D02*
X8101015Y-14490388D01*
X8101015Y-14490388D02*
X8101015Y-14433246D01*
X8101015Y-14433246D02*
X8110539Y-14414198D01*
X8110539Y-14414198D02*
X8120063Y-14404674D01*
X8120063Y-14404674D02*
X8139110Y-14395150D01*
X8139110Y-14395150D02*
X8167682Y-14395150D01*
X8167682Y-14395150D02*
X8186730Y-14404674D01*
X8186730Y-14404674D02*
X8196253Y-14414198D01*
X8196253Y-14414198D02*
X8205777Y-14433246D01*
X8205777Y-14433246D02*
X8205777Y-14490388D01*
X8205777Y-14490388D02*
X8196253Y-14509436D01*
X8196253Y-14509436D02*
X8186730Y-14518960D01*
X8186730Y-14518960D02*
X8167682Y-14528484D01*
X8167682Y-14528484D02*
X8139110Y-14528484D01*
X8320063Y-14528484D02*
X8301015Y-14518960D01*
X8301015Y-14518960D02*
X8291491Y-14499912D01*
X8291491Y-14499912D02*
X8291491Y-14328484D01*
X8472444Y-14518960D02*
X8453396Y-14528484D01*
X8453396Y-14528484D02*
X8415301Y-14528484D01*
X8415301Y-14528484D02*
X8396253Y-14518960D01*
X8396253Y-14518960D02*
X8386730Y-14499912D01*
X8386730Y-14499912D02*
X8386730Y-14423722D01*
X8386730Y-14423722D02*
X8396253Y-14404674D01*
X8396253Y-14404674D02*
X8415301Y-14395150D01*
X8415301Y-14395150D02*
X8453396Y-14395150D01*
X8453396Y-14395150D02*
X8472444Y-14404674D01*
X8472444Y-14404674D02*
X8481968Y-14423722D01*
X8481968Y-14423722D02*
X8481968Y-14442769D01*
X8481968Y-14442769D02*
X8386730Y-14461817D01*
X8558158Y-14518960D02*
X8577206Y-14528484D01*
X8577206Y-14528484D02*
X8615301Y-14528484D01*
X8615301Y-14528484D02*
X8634349Y-14518960D01*
X8634349Y-14518960D02*
X8643873Y-14499912D01*
X8643873Y-14499912D02*
X8643873Y-14490388D01*
X8643873Y-14490388D02*
X8634349Y-14471341D01*
X8634349Y-14471341D02*
X8615301Y-14461817D01*
X8615301Y-14461817D02*
X8586730Y-14461817D01*
X8586730Y-14461817D02*
X8567682Y-14452293D01*
X8567682Y-14452293D02*
X8558158Y-14433246D01*
X8558158Y-14433246D02*
X8558158Y-14423722D01*
X8558158Y-14423722D02*
X8567682Y-14404674D01*
X8567682Y-14404674D02*
X8586730Y-14395150D01*
X8586730Y-14395150D02*
X8615301Y-14395150D01*
X8615301Y-14395150D02*
X8634349Y-14404674D01*
X8710539Y-14604674D02*
X8720063Y-14595150D01*
X8720063Y-14595150D02*
X8739111Y-14566579D01*
X8739111Y-14566579D02*
X8748634Y-14547531D01*
X8748634Y-14547531D02*
X8758158Y-14518960D01*
X8758158Y-14518960D02*
X8767682Y-14471341D01*
X8767682Y-14471341D02*
X8767682Y-14433246D01*
X8767682Y-14433246D02*
X8758158Y-14385627D01*
X8758158Y-14385627D02*
X8748634Y-14357055D01*
X8748634Y-14357055D02*
X8739111Y-14338008D01*
X8739111Y-14338008D02*
X8720063Y-14309436D01*
X8720063Y-14309436D02*
X8710539Y-14299912D01*
D12*
X3685000Y-14761000D02*
X3745000Y-14701000D01*
X3685000Y-14641000D01*
X3625000Y-14701000D01*
X3685000Y-14761000D01*
D11*
X4110539Y-14792484D02*
X3996253Y-14792484D01*
X4053396Y-14792484D02*
X4053396Y-14592484D01*
X4053396Y-14592484D02*
X4034348Y-14621055D01*
X4034348Y-14621055D02*
X4015301Y-14640103D01*
X4015301Y-14640103D02*
X3996253Y-14649627D01*
X4196253Y-14773436D02*
X4205777Y-14782960D01*
X4205777Y-14782960D02*
X4196253Y-14792484D01*
X4196253Y-14792484D02*
X4186729Y-14782960D01*
X4186729Y-14782960D02*
X4196253Y-14773436D01*
X4196253Y-14773436D02*
X4196253Y-14792484D01*
X4281967Y-14611531D02*
X4291491Y-14602008D01*
X4291491Y-14602008D02*
X4310539Y-14592484D01*
X4310539Y-14592484D02*
X4358158Y-14592484D01*
X4358158Y-14592484D02*
X4377205Y-14602008D01*
X4377205Y-14602008D02*
X4386729Y-14611531D01*
X4386729Y-14611531D02*
X4396253Y-14630579D01*
X4396253Y-14630579D02*
X4396253Y-14649627D01*
X4396253Y-14649627D02*
X4386729Y-14678198D01*
X4386729Y-14678198D02*
X4272444Y-14792484D01*
X4272444Y-14792484D02*
X4396253Y-14792484D01*
X4520063Y-14592484D02*
X4539110Y-14592484D01*
X4539110Y-14592484D02*
X4558158Y-14602008D01*
X4558158Y-14602008D02*
X4567682Y-14611531D01*
X4567682Y-14611531D02*
X4577205Y-14630579D01*
X4577205Y-14630579D02*
X4586729Y-14668674D01*
X4586729Y-14668674D02*
X4586729Y-14716293D01*
X4586729Y-14716293D02*
X4577205Y-14754388D01*
X4577205Y-14754388D02*
X4567682Y-14773436D01*
X4567682Y-14773436D02*
X4558158Y-14782960D01*
X4558158Y-14782960D02*
X4539110Y-14792484D01*
X4539110Y-14792484D02*
X4520063Y-14792484D01*
X4520063Y-14792484D02*
X4501015Y-14782960D01*
X4501015Y-14782960D02*
X4491491Y-14773436D01*
X4491491Y-14773436D02*
X4481967Y-14754388D01*
X4481967Y-14754388D02*
X4472444Y-14716293D01*
X4472444Y-14716293D02*
X4472444Y-14668674D01*
X4472444Y-14668674D02*
X4481967Y-14630579D01*
X4481967Y-14630579D02*
X4491491Y-14611531D01*
X4491491Y-14611531D02*
X4501015Y-14602008D01*
X4501015Y-14602008D02*
X4520063Y-14592484D01*
X4710539Y-14592484D02*
X4729586Y-14592484D01*
X4729586Y-14592484D02*
X4748634Y-14602008D01*
X4748634Y-14602008D02*
X4758158Y-14611531D01*
X4758158Y-14611531D02*
X4767682Y-14630579D01*
X4767682Y-14630579D02*
X4777205Y-14668674D01*
X4777205Y-14668674D02*
X4777205Y-14716293D01*
X4777205Y-14716293D02*
X4767682Y-14754388D01*
X4767682Y-14754388D02*
X4758158Y-14773436D01*
X4758158Y-14773436D02*
X4748634Y-14782960D01*
X4748634Y-14782960D02*
X4729586Y-14792484D01*
X4729586Y-14792484D02*
X4710539Y-14792484D01*
X4710539Y-14792484D02*
X4691491Y-14782960D01*
X4691491Y-14782960D02*
X4681967Y-14773436D01*
X4681967Y-14773436D02*
X4672444Y-14754388D01*
X4672444Y-14754388D02*
X4662920Y-14716293D01*
X4662920Y-14716293D02*
X4662920Y-14668674D01*
X4662920Y-14668674D02*
X4672444Y-14630579D01*
X4672444Y-14630579D02*
X4681967Y-14611531D01*
X4681967Y-14611531D02*
X4691491Y-14602008D01*
X4691491Y-14602008D02*
X4710539Y-14592484D01*
X4862920Y-14792484D02*
X4862920Y-14659150D01*
X4862920Y-14678198D02*
X4872444Y-14668674D01*
X4872444Y-14668674D02*
X4891491Y-14659150D01*
X4891491Y-14659150D02*
X4920063Y-14659150D01*
X4920063Y-14659150D02*
X4939110Y-14668674D01*
X4939110Y-14668674D02*
X4948634Y-14687722D01*
X4948634Y-14687722D02*
X4948634Y-14792484D01*
X4948634Y-14687722D02*
X4958158Y-14668674D01*
X4958158Y-14668674D02*
X4977205Y-14659150D01*
X4977205Y-14659150D02*
X5005777Y-14659150D01*
X5005777Y-14659150D02*
X5024825Y-14668674D01*
X5024825Y-14668674D02*
X5034348Y-14687722D01*
X5034348Y-14687722D02*
X5034348Y-14792484D01*
X5129586Y-14792484D02*
X5129586Y-14659150D01*
X5129586Y-14678198D02*
X5139110Y-14668674D01*
X5139110Y-14668674D02*
X5158158Y-14659150D01*
X5158158Y-14659150D02*
X5186729Y-14659150D01*
X5186729Y-14659150D02*
X5205777Y-14668674D01*
X5205777Y-14668674D02*
X5215301Y-14687722D01*
X5215301Y-14687722D02*
X5215301Y-14792484D01*
X5215301Y-14687722D02*
X5224825Y-14668674D01*
X5224825Y-14668674D02*
X5243872Y-14659150D01*
X5243872Y-14659150D02*
X5272444Y-14659150D01*
X5272444Y-14659150D02*
X5291491Y-14668674D01*
X5291491Y-14668674D02*
X5301015Y-14687722D01*
X5301015Y-14687722D02*
X5301015Y-14792484D01*
X5691491Y-14582960D02*
X5520063Y-14840103D01*
X5948634Y-14592484D02*
X5967682Y-14592484D01*
X5967682Y-14592484D02*
X5986729Y-14602008D01*
X5986729Y-14602008D02*
X5996253Y-14611531D01*
X5996253Y-14611531D02*
X6005777Y-14630579D01*
X6005777Y-14630579D02*
X6015301Y-14668674D01*
X6015301Y-14668674D02*
X6015301Y-14716293D01*
X6015301Y-14716293D02*
X6005777Y-14754388D01*
X6005777Y-14754388D02*
X5996253Y-14773436D01*
X5996253Y-14773436D02*
X5986729Y-14782960D01*
X5986729Y-14782960D02*
X5967682Y-14792484D01*
X5967682Y-14792484D02*
X5948634Y-14792484D01*
X5948634Y-14792484D02*
X5929586Y-14782960D01*
X5929586Y-14782960D02*
X5920063Y-14773436D01*
X5920063Y-14773436D02*
X5910539Y-14754388D01*
X5910539Y-14754388D02*
X5901015Y-14716293D01*
X5901015Y-14716293D02*
X5901015Y-14668674D01*
X5901015Y-14668674D02*
X5910539Y-14630579D01*
X5910539Y-14630579D02*
X5920063Y-14611531D01*
X5920063Y-14611531D02*
X5929586Y-14602008D01*
X5929586Y-14602008D02*
X5948634Y-14592484D01*
X6101015Y-14773436D02*
X6110539Y-14782960D01*
X6110539Y-14782960D02*
X6101015Y-14792484D01*
X6101015Y-14792484D02*
X6091491Y-14782960D01*
X6091491Y-14782960D02*
X6101015Y-14773436D01*
X6101015Y-14773436D02*
X6101015Y-14792484D01*
X6234348Y-14592484D02*
X6253396Y-14592484D01*
X6253396Y-14592484D02*
X6272444Y-14602008D01*
X6272444Y-14602008D02*
X6281967Y-14611531D01*
X6281967Y-14611531D02*
X6291491Y-14630579D01*
X6291491Y-14630579D02*
X6301015Y-14668674D01*
X6301015Y-14668674D02*
X6301015Y-14716293D01*
X6301015Y-14716293D02*
X6291491Y-14754388D01*
X6291491Y-14754388D02*
X6281967Y-14773436D01*
X6281967Y-14773436D02*
X6272444Y-14782960D01*
X6272444Y-14782960D02*
X6253396Y-14792484D01*
X6253396Y-14792484D02*
X6234348Y-14792484D01*
X6234348Y-14792484D02*
X6215301Y-14782960D01*
X6215301Y-14782960D02*
X6205777Y-14773436D01*
X6205777Y-14773436D02*
X6196253Y-14754388D01*
X6196253Y-14754388D02*
X6186729Y-14716293D01*
X6186729Y-14716293D02*
X6186729Y-14668674D01*
X6186729Y-14668674D02*
X6196253Y-14630579D01*
X6196253Y-14630579D02*
X6205777Y-14611531D01*
X6205777Y-14611531D02*
X6215301Y-14602008D01*
X6215301Y-14602008D02*
X6234348Y-14592484D01*
X6472444Y-14659150D02*
X6472444Y-14792484D01*
X6424825Y-14582960D02*
X6377206Y-14725817D01*
X6377206Y-14725817D02*
X6501015Y-14725817D01*
X6558158Y-14592484D02*
X6691491Y-14592484D01*
X6691491Y-14592484D02*
X6605777Y-14792484D01*
X6758158Y-14611531D02*
X6767682Y-14602008D01*
X6767682Y-14602008D02*
X6786729Y-14592484D01*
X6786729Y-14592484D02*
X6834348Y-14592484D01*
X6834348Y-14592484D02*
X6853396Y-14602008D01*
X6853396Y-14602008D02*
X6862920Y-14611531D01*
X6862920Y-14611531D02*
X6872444Y-14630579D01*
X6872444Y-14630579D02*
X6872444Y-14649627D01*
X6872444Y-14649627D02*
X6862920Y-14678198D01*
X6862920Y-14678198D02*
X6748634Y-14792484D01*
X6748634Y-14792484D02*
X6872444Y-14792484D01*
X6948634Y-14592484D02*
X6948634Y-14630579D01*
X7024825Y-14592484D02*
X7024825Y-14630579D01*
X7320063Y-14868674D02*
X7310539Y-14859150D01*
X7310539Y-14859150D02*
X7291491Y-14830579D01*
X7291491Y-14830579D02*
X7281968Y-14811531D01*
X7281968Y-14811531D02*
X7272444Y-14782960D01*
X7272444Y-14782960D02*
X7262920Y-14735341D01*
X7262920Y-14735341D02*
X7262920Y-14697246D01*
X7262920Y-14697246D02*
X7272444Y-14649627D01*
X7272444Y-14649627D02*
X7281968Y-14621055D01*
X7281968Y-14621055D02*
X7291491Y-14602008D01*
X7291491Y-14602008D02*
X7310539Y-14573436D01*
X7310539Y-14573436D02*
X7320063Y-14563912D01*
X7501015Y-14792484D02*
X7386729Y-14792484D01*
X7443872Y-14792484D02*
X7443872Y-14592484D01*
X7443872Y-14592484D02*
X7424825Y-14621055D01*
X7424825Y-14621055D02*
X7405777Y-14640103D01*
X7405777Y-14640103D02*
X7386729Y-14649627D01*
X7672444Y-14592484D02*
X7634348Y-14592484D01*
X7634348Y-14592484D02*
X7615301Y-14602008D01*
X7615301Y-14602008D02*
X7605777Y-14611531D01*
X7605777Y-14611531D02*
X7586729Y-14640103D01*
X7586729Y-14640103D02*
X7577206Y-14678198D01*
X7577206Y-14678198D02*
X7577206Y-14754388D01*
X7577206Y-14754388D02*
X7586729Y-14773436D01*
X7586729Y-14773436D02*
X7596253Y-14782960D01*
X7596253Y-14782960D02*
X7615301Y-14792484D01*
X7615301Y-14792484D02*
X7653396Y-14792484D01*
X7653396Y-14792484D02*
X7672444Y-14782960D01*
X7672444Y-14782960D02*
X7681968Y-14773436D01*
X7681968Y-14773436D02*
X7691491Y-14754388D01*
X7691491Y-14754388D02*
X7691491Y-14706769D01*
X7691491Y-14706769D02*
X7681968Y-14687722D01*
X7681968Y-14687722D02*
X7672444Y-14678198D01*
X7672444Y-14678198D02*
X7653396Y-14668674D01*
X7653396Y-14668674D02*
X7615301Y-14668674D01*
X7615301Y-14668674D02*
X7596253Y-14678198D01*
X7596253Y-14678198D02*
X7586729Y-14687722D01*
X7586729Y-14687722D02*
X7577206Y-14706769D01*
X7929587Y-14792484D02*
X7929587Y-14592484D01*
X8015301Y-14792484D02*
X8015301Y-14687722D01*
X8015301Y-14687722D02*
X8005777Y-14668674D01*
X8005777Y-14668674D02*
X7986730Y-14659150D01*
X7986730Y-14659150D02*
X7958158Y-14659150D01*
X7958158Y-14659150D02*
X7939110Y-14668674D01*
X7939110Y-14668674D02*
X7929587Y-14678198D01*
X8139110Y-14792484D02*
X8120063Y-14782960D01*
X8120063Y-14782960D02*
X8110539Y-14773436D01*
X8110539Y-14773436D02*
X8101015Y-14754388D01*
X8101015Y-14754388D02*
X8101015Y-14697246D01*
X8101015Y-14697246D02*
X8110539Y-14678198D01*
X8110539Y-14678198D02*
X8120063Y-14668674D01*
X8120063Y-14668674D02*
X8139110Y-14659150D01*
X8139110Y-14659150D02*
X8167682Y-14659150D01*
X8167682Y-14659150D02*
X8186730Y-14668674D01*
X8186730Y-14668674D02*
X8196253Y-14678198D01*
X8196253Y-14678198D02*
X8205777Y-14697246D01*
X8205777Y-14697246D02*
X8205777Y-14754388D01*
X8205777Y-14754388D02*
X8196253Y-14773436D01*
X8196253Y-14773436D02*
X8186730Y-14782960D01*
X8186730Y-14782960D02*
X8167682Y-14792484D01*
X8167682Y-14792484D02*
X8139110Y-14792484D01*
X8320063Y-14792484D02*
X8301015Y-14782960D01*
X8301015Y-14782960D02*
X8291491Y-14763912D01*
X8291491Y-14763912D02*
X8291491Y-14592484D01*
X8472444Y-14782960D02*
X8453396Y-14792484D01*
X8453396Y-14792484D02*
X8415301Y-14792484D01*
X8415301Y-14792484D02*
X8396253Y-14782960D01*
X8396253Y-14782960D02*
X8386730Y-14763912D01*
X8386730Y-14763912D02*
X8386730Y-14687722D01*
X8386730Y-14687722D02*
X8396253Y-14668674D01*
X8396253Y-14668674D02*
X8415301Y-14659150D01*
X8415301Y-14659150D02*
X8453396Y-14659150D01*
X8453396Y-14659150D02*
X8472444Y-14668674D01*
X8472444Y-14668674D02*
X8481968Y-14687722D01*
X8481968Y-14687722D02*
X8481968Y-14706769D01*
X8481968Y-14706769D02*
X8386730Y-14725817D01*
X8558158Y-14782960D02*
X8577206Y-14792484D01*
X8577206Y-14792484D02*
X8615301Y-14792484D01*
X8615301Y-14792484D02*
X8634349Y-14782960D01*
X8634349Y-14782960D02*
X8643873Y-14763912D01*
X8643873Y-14763912D02*
X8643873Y-14754388D01*
X8643873Y-14754388D02*
X8634349Y-14735341D01*
X8634349Y-14735341D02*
X8615301Y-14725817D01*
X8615301Y-14725817D02*
X8586730Y-14725817D01*
X8586730Y-14725817D02*
X8567682Y-14716293D01*
X8567682Y-14716293D02*
X8558158Y-14697246D01*
X8558158Y-14697246D02*
X8558158Y-14687722D01*
X8558158Y-14687722D02*
X8567682Y-14668674D01*
X8567682Y-14668674D02*
X8586730Y-14659150D01*
X8586730Y-14659150D02*
X8615301Y-14659150D01*
X8615301Y-14659150D02*
X8634349Y-14668674D01*
X8710539Y-14868674D02*
X8720063Y-14859150D01*
X8720063Y-14859150D02*
X8739111Y-14830579D01*
X8739111Y-14830579D02*
X8748634Y-14811531D01*
X8748634Y-14811531D02*
X8758158Y-14782960D01*
X8758158Y-14782960D02*
X8767682Y-14735341D01*
X8767682Y-14735341D02*
X8767682Y-14697246D01*
X8767682Y-14697246D02*
X8758158Y-14649627D01*
X8758158Y-14649627D02*
X8748634Y-14621055D01*
X8748634Y-14621055D02*
X8739111Y-14602008D01*
X8739111Y-14602008D02*
X8720063Y-14573436D01*
X8720063Y-14573436D02*
X8710539Y-14563912D01*
X3545000Y-14865000D02*
X3745000Y-15065000D01*
X3745000Y-14865000D02*
X3545000Y-15065000D01*
X3745000Y-14965000D02*
G75*
G02*
X3545000Y-14965000I-100000J0D01*
G01*
X3545000Y-14965000D02*
G75*
G02*
X3745000Y-14965000I100000J0D01*
G01*
X3996253Y-14875531D02*
X4005777Y-14866008D01*
X4005777Y-14866008D02*
X4024824Y-14856484D01*
X4024824Y-14856484D02*
X4072443Y-14856484D01*
X4072443Y-14856484D02*
X4091491Y-14866008D01*
X4091491Y-14866008D02*
X4101015Y-14875531D01*
X4101015Y-14875531D02*
X4110539Y-14894579D01*
X4110539Y-14894579D02*
X4110539Y-14913627D01*
X4110539Y-14913627D02*
X4101015Y-14942198D01*
X4101015Y-14942198D02*
X3986729Y-15056484D01*
X3986729Y-15056484D02*
X4110539Y-15056484D01*
X4196253Y-15037436D02*
X4205777Y-15046960D01*
X4205777Y-15046960D02*
X4196253Y-15056484D01*
X4196253Y-15056484D02*
X4186729Y-15046960D01*
X4186729Y-15046960D02*
X4196253Y-15037436D01*
X4196253Y-15037436D02*
X4196253Y-15056484D01*
X4281967Y-14875531D02*
X4291491Y-14866008D01*
X4291491Y-14866008D02*
X4310539Y-14856484D01*
X4310539Y-14856484D02*
X4358158Y-14856484D01*
X4358158Y-14856484D02*
X4377205Y-14866008D01*
X4377205Y-14866008D02*
X4386729Y-14875531D01*
X4386729Y-14875531D02*
X4396253Y-14894579D01*
X4396253Y-14894579D02*
X4396253Y-14913627D01*
X4396253Y-14913627D02*
X4386729Y-14942198D01*
X4386729Y-14942198D02*
X4272444Y-15056484D01*
X4272444Y-15056484D02*
X4396253Y-15056484D01*
X4520063Y-14856484D02*
X4539110Y-14856484D01*
X4539110Y-14856484D02*
X4558158Y-14866008D01*
X4558158Y-14866008D02*
X4567682Y-14875531D01*
X4567682Y-14875531D02*
X4577205Y-14894579D01*
X4577205Y-14894579D02*
X4586729Y-14932674D01*
X4586729Y-14932674D02*
X4586729Y-14980293D01*
X4586729Y-14980293D02*
X4577205Y-15018388D01*
X4577205Y-15018388D02*
X4567682Y-15037436D01*
X4567682Y-15037436D02*
X4558158Y-15046960D01*
X4558158Y-15046960D02*
X4539110Y-15056484D01*
X4539110Y-15056484D02*
X4520063Y-15056484D01*
X4520063Y-15056484D02*
X4501015Y-15046960D01*
X4501015Y-15046960D02*
X4491491Y-15037436D01*
X4491491Y-15037436D02*
X4481967Y-15018388D01*
X4481967Y-15018388D02*
X4472444Y-14980293D01*
X4472444Y-14980293D02*
X4472444Y-14932674D01*
X4472444Y-14932674D02*
X4481967Y-14894579D01*
X4481967Y-14894579D02*
X4491491Y-14875531D01*
X4491491Y-14875531D02*
X4501015Y-14866008D01*
X4501015Y-14866008D02*
X4520063Y-14856484D01*
X4710539Y-14856484D02*
X4729586Y-14856484D01*
X4729586Y-14856484D02*
X4748634Y-14866008D01*
X4748634Y-14866008D02*
X4758158Y-14875531D01*
X4758158Y-14875531D02*
X4767682Y-14894579D01*
X4767682Y-14894579D02*
X4777205Y-14932674D01*
X4777205Y-14932674D02*
X4777205Y-14980293D01*
X4777205Y-14980293D02*
X4767682Y-15018388D01*
X4767682Y-15018388D02*
X4758158Y-15037436D01*
X4758158Y-15037436D02*
X4748634Y-15046960D01*
X4748634Y-15046960D02*
X4729586Y-15056484D01*
X4729586Y-15056484D02*
X4710539Y-15056484D01*
X4710539Y-15056484D02*
X4691491Y-15046960D01*
X4691491Y-15046960D02*
X4681967Y-15037436D01*
X4681967Y-15037436D02*
X4672444Y-15018388D01*
X4672444Y-15018388D02*
X4662920Y-14980293D01*
X4662920Y-14980293D02*
X4662920Y-14932674D01*
X4662920Y-14932674D02*
X4672444Y-14894579D01*
X4672444Y-14894579D02*
X4681967Y-14875531D01*
X4681967Y-14875531D02*
X4691491Y-14866008D01*
X4691491Y-14866008D02*
X4710539Y-14856484D01*
X4862920Y-15056484D02*
X4862920Y-14923150D01*
X4862920Y-14942198D02*
X4872444Y-14932674D01*
X4872444Y-14932674D02*
X4891491Y-14923150D01*
X4891491Y-14923150D02*
X4920063Y-14923150D01*
X4920063Y-14923150D02*
X4939110Y-14932674D01*
X4939110Y-14932674D02*
X4948634Y-14951722D01*
X4948634Y-14951722D02*
X4948634Y-15056484D01*
X4948634Y-14951722D02*
X4958158Y-14932674D01*
X4958158Y-14932674D02*
X4977205Y-14923150D01*
X4977205Y-14923150D02*
X5005777Y-14923150D01*
X5005777Y-14923150D02*
X5024825Y-14932674D01*
X5024825Y-14932674D02*
X5034348Y-14951722D01*
X5034348Y-14951722D02*
X5034348Y-15056484D01*
X5129586Y-15056484D02*
X5129586Y-14923150D01*
X5129586Y-14942198D02*
X5139110Y-14932674D01*
X5139110Y-14932674D02*
X5158158Y-14923150D01*
X5158158Y-14923150D02*
X5186729Y-14923150D01*
X5186729Y-14923150D02*
X5205777Y-14932674D01*
X5205777Y-14932674D02*
X5215301Y-14951722D01*
X5215301Y-14951722D02*
X5215301Y-15056484D01*
X5215301Y-14951722D02*
X5224825Y-14932674D01*
X5224825Y-14932674D02*
X5243872Y-14923150D01*
X5243872Y-14923150D02*
X5272444Y-14923150D01*
X5272444Y-14923150D02*
X5291491Y-14932674D01*
X5291491Y-14932674D02*
X5301015Y-14951722D01*
X5301015Y-14951722D02*
X5301015Y-15056484D01*
X5691491Y-14846960D02*
X5520063Y-15104103D01*
X5948634Y-14856484D02*
X5967682Y-14856484D01*
X5967682Y-14856484D02*
X5986729Y-14866008D01*
X5986729Y-14866008D02*
X5996253Y-14875531D01*
X5996253Y-14875531D02*
X6005777Y-14894579D01*
X6005777Y-14894579D02*
X6015301Y-14932674D01*
X6015301Y-14932674D02*
X6015301Y-14980293D01*
X6015301Y-14980293D02*
X6005777Y-15018388D01*
X6005777Y-15018388D02*
X5996253Y-15037436D01*
X5996253Y-15037436D02*
X5986729Y-15046960D01*
X5986729Y-15046960D02*
X5967682Y-15056484D01*
X5967682Y-15056484D02*
X5948634Y-15056484D01*
X5948634Y-15056484D02*
X5929586Y-15046960D01*
X5929586Y-15046960D02*
X5920063Y-15037436D01*
X5920063Y-15037436D02*
X5910539Y-15018388D01*
X5910539Y-15018388D02*
X5901015Y-14980293D01*
X5901015Y-14980293D02*
X5901015Y-14932674D01*
X5901015Y-14932674D02*
X5910539Y-14894579D01*
X5910539Y-14894579D02*
X5920063Y-14875531D01*
X5920063Y-14875531D02*
X5929586Y-14866008D01*
X5929586Y-14866008D02*
X5948634Y-14856484D01*
X6101015Y-15037436D02*
X6110539Y-15046960D01*
X6110539Y-15046960D02*
X6101015Y-15056484D01*
X6101015Y-15056484D02*
X6091491Y-15046960D01*
X6091491Y-15046960D02*
X6101015Y-15037436D01*
X6101015Y-15037436D02*
X6101015Y-15056484D01*
X6234348Y-14856484D02*
X6253396Y-14856484D01*
X6253396Y-14856484D02*
X6272444Y-14866008D01*
X6272444Y-14866008D02*
X6281967Y-14875531D01*
X6281967Y-14875531D02*
X6291491Y-14894579D01*
X6291491Y-14894579D02*
X6301015Y-14932674D01*
X6301015Y-14932674D02*
X6301015Y-14980293D01*
X6301015Y-14980293D02*
X6291491Y-15018388D01*
X6291491Y-15018388D02*
X6281967Y-15037436D01*
X6281967Y-15037436D02*
X6272444Y-15046960D01*
X6272444Y-15046960D02*
X6253396Y-15056484D01*
X6253396Y-15056484D02*
X6234348Y-15056484D01*
X6234348Y-15056484D02*
X6215301Y-15046960D01*
X6215301Y-15046960D02*
X6205777Y-15037436D01*
X6205777Y-15037436D02*
X6196253Y-15018388D01*
X6196253Y-15018388D02*
X6186729Y-14980293D01*
X6186729Y-14980293D02*
X6186729Y-14932674D01*
X6186729Y-14932674D02*
X6196253Y-14894579D01*
X6196253Y-14894579D02*
X6205777Y-14875531D01*
X6205777Y-14875531D02*
X6215301Y-14866008D01*
X6215301Y-14866008D02*
X6234348Y-14856484D01*
X6415301Y-14942198D02*
X6396253Y-14932674D01*
X6396253Y-14932674D02*
X6386729Y-14923150D01*
X6386729Y-14923150D02*
X6377206Y-14904103D01*
X6377206Y-14904103D02*
X6377206Y-14894579D01*
X6377206Y-14894579D02*
X6386729Y-14875531D01*
X6386729Y-14875531D02*
X6396253Y-14866008D01*
X6396253Y-14866008D02*
X6415301Y-14856484D01*
X6415301Y-14856484D02*
X6453396Y-14856484D01*
X6453396Y-14856484D02*
X6472444Y-14866008D01*
X6472444Y-14866008D02*
X6481967Y-14875531D01*
X6481967Y-14875531D02*
X6491491Y-14894579D01*
X6491491Y-14894579D02*
X6491491Y-14904103D01*
X6491491Y-14904103D02*
X6481967Y-14923150D01*
X6481967Y-14923150D02*
X6472444Y-14932674D01*
X6472444Y-14932674D02*
X6453396Y-14942198D01*
X6453396Y-14942198D02*
X6415301Y-14942198D01*
X6415301Y-14942198D02*
X6396253Y-14951722D01*
X6396253Y-14951722D02*
X6386729Y-14961246D01*
X6386729Y-14961246D02*
X6377206Y-14980293D01*
X6377206Y-14980293D02*
X6377206Y-15018388D01*
X6377206Y-15018388D02*
X6386729Y-15037436D01*
X6386729Y-15037436D02*
X6396253Y-15046960D01*
X6396253Y-15046960D02*
X6415301Y-15056484D01*
X6415301Y-15056484D02*
X6453396Y-15056484D01*
X6453396Y-15056484D02*
X6472444Y-15046960D01*
X6472444Y-15046960D02*
X6481967Y-15037436D01*
X6481967Y-15037436D02*
X6491491Y-15018388D01*
X6491491Y-15018388D02*
X6491491Y-14980293D01*
X6491491Y-14980293D02*
X6481967Y-14961246D01*
X6481967Y-14961246D02*
X6472444Y-14951722D01*
X6472444Y-14951722D02*
X6453396Y-14942198D01*
X6662920Y-14856484D02*
X6624825Y-14856484D01*
X6624825Y-14856484D02*
X6605777Y-14866008D01*
X6605777Y-14866008D02*
X6596253Y-14875531D01*
X6596253Y-14875531D02*
X6577206Y-14904103D01*
X6577206Y-14904103D02*
X6567682Y-14942198D01*
X6567682Y-14942198D02*
X6567682Y-15018388D01*
X6567682Y-15018388D02*
X6577206Y-15037436D01*
X6577206Y-15037436D02*
X6586729Y-15046960D01*
X6586729Y-15046960D02*
X6605777Y-15056484D01*
X6605777Y-15056484D02*
X6643872Y-15056484D01*
X6643872Y-15056484D02*
X6662920Y-15046960D01*
X6662920Y-15046960D02*
X6672444Y-15037436D01*
X6672444Y-15037436D02*
X6681967Y-15018388D01*
X6681967Y-15018388D02*
X6681967Y-14970769D01*
X6681967Y-14970769D02*
X6672444Y-14951722D01*
X6672444Y-14951722D02*
X6662920Y-14942198D01*
X6662920Y-14942198D02*
X6643872Y-14932674D01*
X6643872Y-14932674D02*
X6605777Y-14932674D01*
X6605777Y-14932674D02*
X6586729Y-14942198D01*
X6586729Y-14942198D02*
X6577206Y-14951722D01*
X6577206Y-14951722D02*
X6567682Y-14970769D01*
X6853396Y-14856484D02*
X6815301Y-14856484D01*
X6815301Y-14856484D02*
X6796253Y-14866008D01*
X6796253Y-14866008D02*
X6786729Y-14875531D01*
X6786729Y-14875531D02*
X6767682Y-14904103D01*
X6767682Y-14904103D02*
X6758158Y-14942198D01*
X6758158Y-14942198D02*
X6758158Y-15018388D01*
X6758158Y-15018388D02*
X6767682Y-15037436D01*
X6767682Y-15037436D02*
X6777206Y-15046960D01*
X6777206Y-15046960D02*
X6796253Y-15056484D01*
X6796253Y-15056484D02*
X6834348Y-15056484D01*
X6834348Y-15056484D02*
X6853396Y-15046960D01*
X6853396Y-15046960D02*
X6862920Y-15037436D01*
X6862920Y-15037436D02*
X6872444Y-15018388D01*
X6872444Y-15018388D02*
X6872444Y-14970769D01*
X6872444Y-14970769D02*
X6862920Y-14951722D01*
X6862920Y-14951722D02*
X6853396Y-14942198D01*
X6853396Y-14942198D02*
X6834348Y-14932674D01*
X6834348Y-14932674D02*
X6796253Y-14932674D01*
X6796253Y-14932674D02*
X6777206Y-14942198D01*
X6777206Y-14942198D02*
X6767682Y-14951722D01*
X6767682Y-14951722D02*
X6758158Y-14970769D01*
X6948634Y-14856484D02*
X6948634Y-14894579D01*
X7024825Y-14856484D02*
X7024825Y-14894579D01*
X7320063Y-15132674D02*
X7310539Y-15123150D01*
X7310539Y-15123150D02*
X7291491Y-15094579D01*
X7291491Y-15094579D02*
X7281968Y-15075531D01*
X7281968Y-15075531D02*
X7272444Y-15046960D01*
X7272444Y-15046960D02*
X7262920Y-14999341D01*
X7262920Y-14999341D02*
X7262920Y-14961246D01*
X7262920Y-14961246D02*
X7272444Y-14913627D01*
X7272444Y-14913627D02*
X7281968Y-14885055D01*
X7281968Y-14885055D02*
X7291491Y-14866008D01*
X7291491Y-14866008D02*
X7310539Y-14837436D01*
X7310539Y-14837436D02*
X7320063Y-14827912D01*
X7501015Y-15056484D02*
X7386729Y-15056484D01*
X7443872Y-15056484D02*
X7443872Y-14856484D01*
X7443872Y-14856484D02*
X7424825Y-14885055D01*
X7424825Y-14885055D02*
X7405777Y-14904103D01*
X7405777Y-14904103D02*
X7386729Y-14913627D01*
X7615301Y-14942198D02*
X7596253Y-14932674D01*
X7596253Y-14932674D02*
X7586729Y-14923150D01*
X7586729Y-14923150D02*
X7577206Y-14904103D01*
X7577206Y-14904103D02*
X7577206Y-14894579D01*
X7577206Y-14894579D02*
X7586729Y-14875531D01*
X7586729Y-14875531D02*
X7596253Y-14866008D01*
X7596253Y-14866008D02*
X7615301Y-14856484D01*
X7615301Y-14856484D02*
X7653396Y-14856484D01*
X7653396Y-14856484D02*
X7672444Y-14866008D01*
X7672444Y-14866008D02*
X7681968Y-14875531D01*
X7681968Y-14875531D02*
X7691491Y-14894579D01*
X7691491Y-14894579D02*
X7691491Y-14904103D01*
X7691491Y-14904103D02*
X7681968Y-14923150D01*
X7681968Y-14923150D02*
X7672444Y-14932674D01*
X7672444Y-14932674D02*
X7653396Y-14942198D01*
X7653396Y-14942198D02*
X7615301Y-14942198D01*
X7615301Y-14942198D02*
X7596253Y-14951722D01*
X7596253Y-14951722D02*
X7586729Y-14961246D01*
X7586729Y-14961246D02*
X7577206Y-14980293D01*
X7577206Y-14980293D02*
X7577206Y-15018388D01*
X7577206Y-15018388D02*
X7586729Y-15037436D01*
X7586729Y-15037436D02*
X7596253Y-15046960D01*
X7596253Y-15046960D02*
X7615301Y-15056484D01*
X7615301Y-15056484D02*
X7653396Y-15056484D01*
X7653396Y-15056484D02*
X7672444Y-15046960D01*
X7672444Y-15046960D02*
X7681968Y-15037436D01*
X7681968Y-15037436D02*
X7691491Y-15018388D01*
X7691491Y-15018388D02*
X7691491Y-14980293D01*
X7691491Y-14980293D02*
X7681968Y-14961246D01*
X7681968Y-14961246D02*
X7672444Y-14951722D01*
X7672444Y-14951722D02*
X7653396Y-14942198D01*
X7929587Y-15056484D02*
X7929587Y-14856484D01*
X8015301Y-15056484D02*
X8015301Y-14951722D01*
X8015301Y-14951722D02*
X8005777Y-14932674D01*
X8005777Y-14932674D02*
X7986730Y-14923150D01*
X7986730Y-14923150D02*
X7958158Y-14923150D01*
X7958158Y-14923150D02*
X7939110Y-14932674D01*
X7939110Y-14932674D02*
X7929587Y-14942198D01*
X8139110Y-15056484D02*
X8120063Y-15046960D01*
X8120063Y-15046960D02*
X8110539Y-15037436D01*
X8110539Y-15037436D02*
X8101015Y-15018388D01*
X8101015Y-15018388D02*
X8101015Y-14961246D01*
X8101015Y-14961246D02*
X8110539Y-14942198D01*
X8110539Y-14942198D02*
X8120063Y-14932674D01*
X8120063Y-14932674D02*
X8139110Y-14923150D01*
X8139110Y-14923150D02*
X8167682Y-14923150D01*
X8167682Y-14923150D02*
X8186730Y-14932674D01*
X8186730Y-14932674D02*
X8196253Y-14942198D01*
X8196253Y-14942198D02*
X8205777Y-14961246D01*
X8205777Y-14961246D02*
X8205777Y-15018388D01*
X8205777Y-15018388D02*
X8196253Y-15037436D01*
X8196253Y-15037436D02*
X8186730Y-15046960D01*
X8186730Y-15046960D02*
X8167682Y-15056484D01*
X8167682Y-15056484D02*
X8139110Y-15056484D01*
X8320063Y-15056484D02*
X8301015Y-15046960D01*
X8301015Y-15046960D02*
X8291491Y-15027912D01*
X8291491Y-15027912D02*
X8291491Y-14856484D01*
X8472444Y-15046960D02*
X8453396Y-15056484D01*
X8453396Y-15056484D02*
X8415301Y-15056484D01*
X8415301Y-15056484D02*
X8396253Y-15046960D01*
X8396253Y-15046960D02*
X8386730Y-15027912D01*
X8386730Y-15027912D02*
X8386730Y-14951722D01*
X8386730Y-14951722D02*
X8396253Y-14932674D01*
X8396253Y-14932674D02*
X8415301Y-14923150D01*
X8415301Y-14923150D02*
X8453396Y-14923150D01*
X8453396Y-14923150D02*
X8472444Y-14932674D01*
X8472444Y-14932674D02*
X8481968Y-14951722D01*
X8481968Y-14951722D02*
X8481968Y-14970769D01*
X8481968Y-14970769D02*
X8386730Y-14989817D01*
X8558158Y-15046960D02*
X8577206Y-15056484D01*
X8577206Y-15056484D02*
X8615301Y-15056484D01*
X8615301Y-15056484D02*
X8634349Y-15046960D01*
X8634349Y-15046960D02*
X8643873Y-15027912D01*
X8643873Y-15027912D02*
X8643873Y-15018388D01*
X8643873Y-15018388D02*
X8634349Y-14999341D01*
X8634349Y-14999341D02*
X8615301Y-14989817D01*
X8615301Y-14989817D02*
X8586730Y-14989817D01*
X8586730Y-14989817D02*
X8567682Y-14980293D01*
X8567682Y-14980293D02*
X8558158Y-14961246D01*
X8558158Y-14961246D02*
X8558158Y-14951722D01*
X8558158Y-14951722D02*
X8567682Y-14932674D01*
X8567682Y-14932674D02*
X8586730Y-14923150D01*
X8586730Y-14923150D02*
X8615301Y-14923150D01*
X8615301Y-14923150D02*
X8634349Y-14932674D01*
X8710539Y-15132674D02*
X8720063Y-15123150D01*
X8720063Y-15123150D02*
X8739111Y-15094579D01*
X8739111Y-15094579D02*
X8748634Y-15075531D01*
X8748634Y-15075531D02*
X8758158Y-15046960D01*
X8758158Y-15046960D02*
X8767682Y-14999341D01*
X8767682Y-14999341D02*
X8767682Y-14961246D01*
X8767682Y-14961246D02*
X8758158Y-14913627D01*
X8758158Y-14913627D02*
X8748634Y-14885055D01*
X8748634Y-14885055D02*
X8739111Y-14866008D01*
X8739111Y-14866008D02*
X8720063Y-14837436D01*
X8720063Y-14837436D02*
X8710539Y-14827912D01*
M02*
