M48
; DRILL file {KiCad 8.0.5-8.0.5-0~ubuntu24.04.1} date 2024-09-28T01:01:02+0200
; FORMAT={-:-/ absolute / inch / decimal}
; #@! TF.CreationDate,2024-09-28T01:01:02+02:00
; #@! TF.GenerationSoftware,Kicad,Pcbnew,8.0.5-8.0.5-0~ubuntu24.04.1
; #@! TF.FileFunction,Plated,1,2,PTH
FMAT,2
INCH
; #@! TA.AperFunction,Plated,PTH,ViaDrill
T1C0.0157
; #@! TA.AperFunction,Plated,PTH,ComponentDrill
T2C0.0197
; #@! TA.AperFunction,Plated,PTH,ComponentDrill
T3C0.0276
; #@! TA.AperFunction,Plated,PTH,ComponentDrill
T4C0.0315
; #@! TA.AperFunction,Plated,PTH,ComponentDrill
T5C0.0433
; #@! TA.AperFunction,Plated,PTH,ComponentDrill
T6C0.0866
%
G90
G05
T1
X2.3228Y-2.6378
X2.3819Y-3.4449
X2.4692Y-3.1543
X2.4803Y-2.6181
X2.5394Y-3.0118
X2.5591Y-2.9134
X2.6186Y-2.8691
X2.6881Y-3.2497
X2.9121Y-3.2497
X2.9754Y-3.0599
X3.0118Y-3.1102
X3.0955Y-3.0514
X3.1216Y-2.9288
X3.1648Y-3.0449
X3.4406Y-3.2013
X3.4646Y-2.4213
X3.5039Y-3.2283
X3.5433Y-2.1063
X3.5433Y-3.0906
X3.8189Y-3.1496
T2
X2.1063Y-3.5827
X2.2047Y-3.5827
X3.3268Y-3.5433
X3.4252Y-3.5433
T3
X1.7323Y-2.5165
X1.7323Y-2.7165
X1.7488Y-3.5827
X1.8307Y-4.1339
X1.8307Y-4.3339
X1.8898Y-2.5197
X1.8898Y-2.7197
X1.9457Y-4.252
X1.9488Y-3.5827
X1.9587Y-3.1957
X1.9587Y-3.3957
X2.1228Y-2.5197
X2.1457Y-4.252
X2.185Y-3.1858
X2.185Y-3.3858
X2.2638Y-4.252
X2.3228Y-2.5197
X2.4638Y-4.252
X2.4803Y-3.5827
X2.6181Y-4.1142
X2.6181Y-4.3142
X2.6803Y-3.5827
X2.7165Y-2.5197
X2.7165Y-2.7197
X2.8346Y-3.5827
X2.874Y-4.1126
X2.874Y-4.3126
X2.9134Y-2.5165
X2.9134Y-2.7165
X3.0087Y-4.2323
X3.0346Y-3.5827
X3.0512Y-2.5165
X3.0512Y-2.7165
X3.2087Y-4.2323
X3.2661Y-2.5197
X3.3268Y-3.2087
X3.3268Y-3.4087
X3.3268Y-4.2323
X3.4661Y-2.5197
X3.5268Y-4.2323
X3.6205Y-3.5827
X3.622Y-3.2071
X3.622Y-3.4071
X3.6614Y-4.0913
X3.6614Y-4.2913
X3.8151Y-2.5165
X3.8151Y-2.7165
X3.8205Y-3.5827
T4
X1.7913Y-2.9331
X1.7913Y-3.2283
X1.7913Y-3.3268
X1.826Y-3.8583
X1.8307Y-2.2441
X1.8307Y-2.3425
X1.8307Y-4.0157
X1.9291Y-2.9331
X2.0276Y-2.2441
X2.0276Y-2.3425
X2.126Y-3.8583
X2.1307Y-4.0157
X2.1654Y-4.4488
X2.185Y-2.126
X2.2047Y-2.9331
X2.2244Y-2.2441
X2.2244Y-2.3425
X2.2638Y-4.4488
X2.2835Y-2.126
X2.3228Y-3.8583
X2.3228Y-4.0157
X2.3425Y-2.9331
X2.3524Y-3.2283
X2.3524Y-3.3268
X2.4213Y-2.2441
X2.4213Y-2.3425
X2.6181Y-2.2441
X2.6181Y-2.3425
X2.6228Y-3.8583
X2.6228Y-4.0157
X2.8815Y-3.8598
X2.8815Y-3.9976
X2.9331Y-2.2441
X2.9331Y-2.3425
X3.1299Y-2.2441
X3.1299Y-2.3425
X3.1693Y-3.248
X3.1693Y-3.3465
X3.1815Y-3.8598
X3.1815Y-3.9976
X3.2283Y-4.4291
X3.248Y-2.9528
X3.2874Y-2.126
X3.3268Y-4.4291
X3.3417Y-3.8567
X3.3417Y-3.9945
X3.3465Y-2.2441
X3.3465Y-2.3425
X3.3858Y-2.126
X3.3858Y-2.9528
X3.5433Y-2.2343
X3.5433Y-2.3327
X3.6417Y-3.8567
X3.6417Y-3.9945
X3.6554Y-2.9528
X3.7932Y-2.9528
X3.7992Y-2.2343
X3.7992Y-2.3327
X3.7992Y-3.2677
X3.7992Y-3.3661
T5
X2.1228Y-1.9291
X2.2228Y-1.9291
X2.3228Y-1.9291
X3.2071Y-1.9313
X3.3071Y-1.9313
X3.4071Y-1.9313
T6
X1.6732Y-1.4764
X1.6732Y-4.9213
X1.811Y-4.6752
X2.0079Y-1.5748
X2.1949Y-4.6752
X2.2047Y-1.5748
X2.4213Y-1.5748
X2.5984Y-4.6752
X2.7559Y-1.4764
X2.7559Y-4.9213
X2.8937Y-4.685
X3.0315Y-1.5748
X3.248Y-1.5748
X3.248Y-4.685
X3.4843Y-1.5748
X3.6417Y-4.685
X3.7598Y-1.4567
X3.7598Y-4.9213
M30
