%TF.GenerationSoftware,KiCad,Pcbnew,8.0.5-8.0.5-0~ubuntu24.04.1*%
%TF.CreationDate,2024-09-28T04:38:33+02:00*%
%TF.ProjectId,Highz-stereo,48696768-7a2d-4737-9465-72656f2e6b69,rev?*%
%TF.SameCoordinates,Original*%
%TF.FileFunction,Soldermask,Top*%
%TF.FilePolarity,Negative*%
%FSLAX46Y46*%
G04 Gerber Fmt 4.6, Leading zero omitted, Abs format (unit mm)*
G04 Created by KiCad (PCBNEW 8.0.5-8.0.5-0~ubuntu24.04.1) date 2024-09-28 04:38:33*
%MOMM*%
%LPD*%
G01*
G04 APERTURE LIST*
G04 Aperture macros list*
%AMRoundRect*
0 Rectangle with rounded corners*
0 $1 Rounding radius*
0 $2 $3 $4 $5 $6 $7 $8 $9 X,Y pos of 4 corners*
0 Add a 4 corners polygon primitive as box body*
4,1,4,$2,$3,$4,$5,$6,$7,$8,$9,$2,$3,0*
0 Add four circle primitives for the rounded corners*
1,1,$1+$1,$2,$3*
1,1,$1+$1,$4,$5*
1,1,$1+$1,$6,$7*
1,1,$1+$1,$8,$9*
0 Add four rect primitives between the rounded corners*
20,1,$1+$1,$2,$3,$4,$5,0*
20,1,$1+$1,$4,$5,$6,$7,0*
20,1,$1+$1,$6,$7,$8,$9,0*
20,1,$1+$1,$8,$9,$2,$3,0*%
G04 Aperture macros list end*
%ADD10R,0.850000X0.850000*%
%ADD11C,1.600000*%
%ADD12C,1.400000*%
%ADD13O,1.400000X1.400000*%
%ADD14R,1.600000X1.600000*%
%ADD15O,1.600000X1.600000*%
%ADD16C,3.500000*%
%ADD17RoundRect,0.150000X-0.825000X-0.150000X0.825000X-0.150000X0.825000X0.150000X-0.825000X0.150000X0*%
G04 APERTURE END LIST*
D10*
%TO.C,J14*%
X56000000Y-91000000D03*
%TD*%
%TO.C,J13*%
X89500000Y-91000000D03*
%TD*%
D11*
%TO.C,C22*%
X86000000Y-113000000D03*
X88500000Y-113000000D03*
%TD*%
%TO.C,C21*%
X59750000Y-113000000D03*
X62250000Y-113000000D03*
%TD*%
D12*
%TO.C,R28*%
X73000000Y-113000000D03*
D13*
X78080000Y-113000000D03*
%TD*%
D12*
%TO.C,R27*%
X51580000Y-113000000D03*
D13*
X46500000Y-113000000D03*
%TD*%
D12*
%TO.C,R23*%
X65000000Y-64000000D03*
D13*
X65000000Y-69080000D03*
%TD*%
D12*
%TO.C,R1*%
X92500000Y-63960000D03*
D13*
X92500000Y-69040000D03*
%TD*%
D14*
%TO.C,D10*%
X51340000Y-52500000D03*
D15*
X61500000Y-52500000D03*
%TD*%
D14*
%TO.C,D1*%
X79340000Y-52500000D03*
D15*
X89500000Y-52500000D03*
%TD*%
D11*
%TO.C,C1*%
X61500000Y-59500000D03*
X61500000Y-57000000D03*
%TD*%
%TO.C,C2*%
X56500000Y-59500000D03*
X56500000Y-57000000D03*
%TD*%
%TO.C,C3*%
X51500000Y-59500000D03*
X51500000Y-57000000D03*
%TD*%
%TO.C,C4*%
X46500000Y-59500000D03*
X46500000Y-57000000D03*
%TD*%
%TO.C,C5*%
X66500000Y-59500000D03*
X66500000Y-57000000D03*
%TD*%
%TO.C,C8*%
X62000000Y-108500000D03*
X59500000Y-108500000D03*
%TD*%
D14*
%TO.C,D4*%
X46380000Y-95000000D03*
D15*
X54000000Y-95000000D03*
%TD*%
D14*
%TO.C,D5*%
X59000000Y-95000000D03*
D15*
X66620000Y-95000000D03*
%TD*%
D16*
%TO.C,J7*%
X42500000Y-125000000D03*
%TD*%
%TO.C,J8*%
X70000000Y-37500000D03*
%TD*%
%TO.C,J9*%
X42500000Y-37500000D03*
%TD*%
%TO.C,J10*%
X70000000Y-125000000D03*
%TD*%
D12*
%TO.C,R11*%
X49750000Y-81170000D03*
D13*
X49750000Y-86250000D03*
%TD*%
D12*
%TO.C,R5*%
X44000000Y-69000000D03*
D13*
X44000000Y-63920000D03*
%TD*%
D12*
%TO.C,R6*%
X59000000Y-64000000D03*
D13*
X53920000Y-64000000D03*
%TD*%
D12*
%TO.C,R7*%
X48000000Y-64000000D03*
D13*
X48000000Y-69080000D03*
%TD*%
D12*
%TO.C,R2*%
X49460000Y-104500000D03*
D13*
X54540000Y-104500000D03*
%TD*%
D12*
%TO.C,R4*%
X46500000Y-102460000D03*
D13*
X46500000Y-107540000D03*
%TD*%
D12*
%TO.C,R8*%
X69000000Y-64000000D03*
D13*
X69000000Y-69080000D03*
%TD*%
D12*
%TO.C,R9*%
X44420000Y-91000000D03*
D13*
X49500000Y-91000000D03*
%TD*%
D12*
%TO.C,R10*%
X62620000Y-104500000D03*
D13*
X57540000Y-104500000D03*
%TD*%
D14*
%TO.C,D2*%
X46500000Y-99000000D03*
D15*
X54120000Y-99000000D03*
%TD*%
D14*
%TO.C,D3*%
X59000000Y-99000000D03*
D15*
X66620000Y-99000000D03*
%TD*%
D12*
%TO.C,R3*%
X66500000Y-101960000D03*
D13*
X66500000Y-107040000D03*
%TD*%
D12*
%TO.C,R12*%
X63000000Y-91000000D03*
D13*
X68080000Y-91000000D03*
%TD*%
D12*
%TO.C,R13*%
X55500000Y-80920000D03*
D13*
X55500000Y-86000000D03*
%TD*%
D11*
%TO.C,C6*%
X45500000Y-84500000D03*
X45500000Y-82000000D03*
%TD*%
%TO.C,C9*%
X59750000Y-84500000D03*
X59750000Y-82000000D03*
%TD*%
D14*
%TO.C,C7*%
X45500000Y-74500000D03*
D11*
X49000000Y-74500000D03*
%TD*%
D14*
%TO.C,C10*%
X56000000Y-74500000D03*
D11*
X59500000Y-74500000D03*
%TD*%
D16*
%TO.C,J2*%
X66000000Y-118750000D03*
%TD*%
D10*
%TO.C,J3*%
X53500000Y-91000000D03*
%TD*%
D16*
%TO.C,J4*%
X55750000Y-118750000D03*
%TD*%
%TO.C,J5*%
X46000000Y-118750000D03*
%TD*%
D10*
%TO.C,J6*%
X87000000Y-91000000D03*
%TD*%
D12*
%TO.C,R14*%
X93000000Y-101420000D03*
D13*
X93000000Y-106500000D03*
%TD*%
D11*
%TO.C,C19*%
X74500000Y-59500000D03*
X74500000Y-57000000D03*
%TD*%
D16*
%TO.C,J17*%
X73500000Y-119000000D03*
%TD*%
D12*
%TO.C,R20*%
X91960000Y-91000000D03*
D13*
X97040000Y-91000000D03*
%TD*%
D17*
%TO.C,U2*%
X69000000Y-73960000D03*
X69000000Y-75230000D03*
X69000000Y-76500000D03*
X69000000Y-77770000D03*
X69000000Y-79040000D03*
X69000000Y-80310000D03*
X69000000Y-81580000D03*
X73950000Y-81580000D03*
X73950000Y-80310000D03*
X73950000Y-79040000D03*
X73950000Y-77770000D03*
X73950000Y-76500000D03*
X73950000Y-75230000D03*
X73950000Y-73960000D03*
%TD*%
D14*
%TO.C,D9*%
X84880000Y-94960000D03*
D15*
X92500000Y-94960000D03*
%TD*%
D12*
%TO.C,R25*%
X74000000Y-69000000D03*
D13*
X74000000Y-63920000D03*
%TD*%
D16*
%TO.C,J12*%
X95500000Y-37000000D03*
%TD*%
D14*
%TO.C,D8*%
X73190000Y-95040000D03*
D15*
X80810000Y-95040000D03*
%TD*%
D16*
%TO.C,J19*%
X82500000Y-40000000D03*
%TD*%
D11*
%TO.C,C18*%
X79500000Y-59500000D03*
X79500000Y-57000000D03*
%TD*%
D16*
%TO.C,J16*%
X82500000Y-119000000D03*
%TD*%
D12*
%TO.C,R26*%
X82960000Y-64000000D03*
D13*
X88040000Y-64000000D03*
%TD*%
D14*
%TO.C,C12*%
X82500000Y-75000000D03*
D11*
X86000000Y-75000000D03*
%TD*%
%TO.C,C20*%
X96500000Y-56750000D03*
X96500000Y-59250000D03*
%TD*%
D16*
%TO.C,J20*%
X88500000Y-40000000D03*
%TD*%
%TO.C,J18*%
X77000000Y-40000000D03*
%TD*%
D14*
%TO.C,C15*%
X92847300Y-75000000D03*
D11*
X96347300Y-75000000D03*
%TD*%
D12*
%TO.C,R16*%
X89580000Y-105000000D03*
D13*
X84500000Y-105000000D03*
%TD*%
D12*
%TO.C,R15*%
X73000000Y-101960000D03*
D13*
X73000000Y-107040000D03*
%TD*%
D12*
%TO.C,R22*%
X77500000Y-69000000D03*
D13*
X77500000Y-63920000D03*
%TD*%
D12*
%TO.C,R24*%
X96902700Y-69000000D03*
D13*
X96902700Y-63920000D03*
%TD*%
D12*
%TO.C,R19*%
X84500000Y-81500000D03*
D13*
X84500000Y-86580000D03*
%TD*%
D11*
%TO.C,C11*%
X86500000Y-108000000D03*
X89000000Y-108000000D03*
%TD*%
D12*
%TO.C,R18*%
X72000000Y-91000000D03*
D13*
X77080000Y-91000000D03*
%TD*%
D16*
%TO.C,J1A1*%
X56000000Y-40000000D03*
%TD*%
D11*
%TO.C,C16*%
X85000000Y-59500000D03*
X85000000Y-57000000D03*
%TD*%
D16*
%TO.C,J6A1*%
X61500000Y-40000000D03*
%TD*%
D11*
%TO.C,C14*%
X80500000Y-85000000D03*
X80500000Y-82500000D03*
%TD*%
D16*
%TO.C,J3A1*%
X51000000Y-40000000D03*
%TD*%
%TO.C,J11*%
X92500000Y-119000000D03*
%TD*%
D11*
%TO.C,C17*%
X96500000Y-85500000D03*
X96500000Y-83000000D03*
%TD*%
D14*
%TO.C,D7*%
X84880000Y-98460000D03*
D15*
X92500000Y-98460000D03*
%TD*%
D14*
%TO.C,D6*%
X73190000Y-98540000D03*
D15*
X80810000Y-98540000D03*
%TD*%
D12*
%TO.C,R21*%
X92000000Y-86540000D03*
D13*
X92000000Y-81460000D03*
%TD*%
D16*
%TO.C,J1*%
X95500000Y-125000000D03*
%TD*%
D11*
%TO.C,C13*%
X90000000Y-59250000D03*
X90000000Y-56750000D03*
%TD*%
D12*
%TO.C,R17*%
X81500000Y-105000000D03*
D13*
X76420000Y-105000000D03*
%TD*%
M02*
